<?xml version="1.0" encoding="UTF-8"?>
<svg id="svg8" xmlns="http://www.w3.org/2000/svg" xmlns:xlink="http://www.w3.org/1999/xlink" xmlns:svg="http://www.w3.org/2000/svg" xmlns:sodipodi="http://sodipodi.sourceforge.net/DTD/sodipodi-0.dtd" xmlns:rdf="http://www.w3.org/1999/02/22-rdf-syntax-ns#" xmlns:inkscape="http://www.inkscape.org/namespaces/inkscape" xmlns:dc="http://purl.org/dc/elements/1.1/" xmlns:cc="http://creativecommons.org/ns#" version="1.1" viewBox="0 0 500 500">
  <!-- Generator: Adobe Illustrator 29.2.1, SVG Export Plug-In . SVG Version: 2.1.0 Build 116)  -->
  <defs>
    <style>
      .st0 {
        fill: url(#linear-gradient);
      }

      .st1 {
        fill: #fff;
      }
    </style>
    <linearGradient id="linear-gradient" x1="-1320.6" y1="301.1" x2="-1299.3" y2="313.4" gradientTransform="translate(6032 1620.2) scale(4.4 -4.7)" gradientUnits="userSpaceOnUse">
      <stop offset="0" stop-color="#976b29"/>
      <stop offset=".3" stop-color="#efb21e"/>
      <stop offset=".4" stop-color="#6e3918"/>
      <stop offset=".6" stop-color="#ffc808"/>
      <stop offset="1" stop-color="#643212"/>
    </linearGradient>
  </defs>
  <sodipodi:namedview id="base" bordercolor="#666666" borderopacity="1.0" fit-margin-bottom="0" fit-margin-left="0" fit-margin-right="0" fit-margin-top="0" inkscape:current-layer="layer1" inkscape:cx="114.563" inkscape:cy="170.55973" inkscape:document-units="mm" inkscape:pagecheckerboard="true" inkscape:pageopacity="0.0" inkscape:pageshadow="2" inkscape:window-height="1017" inkscape:window-maximized="1" inkscape:window-width="1920" inkscape:window-x="1912" inkscape:window-y="70" inkscape:zoom="1.6821407" pagecolor="#ffffff" showgrid="false"/>
  <g id="layer1" inkscape:groupmode="layer" inkscape:label="Layer 1">
    <g id="g930">
      <path id="path912" class="st1" d="M203.5,329.3l-1.9-.5-6.1,13h-24.5v-52.4h24.5l6.1,13,1.9-.5v-15.5h-49.4v2.8h7.5v52.4h-7.5v2.8h49.4v-15.5.3h0ZM187.3,328.4l1.7-.5v-22.9l-1.7-.5-6,11.9,6,11.9ZM107,286.5l-.6.3h0l.6-.3-.5-1.3-1.6,1.4-4.1,2.8-21.2,52.7h-7.5v2.8h18v-2.8h-7.4l7.2-17.9h21.2l6.7,17.9h-7.1v2.8h24.5v-2.8h-7.2l-21-55.5h0l-.2-.2ZM91.1,321.2l9.7-24.2,9.3,24.2h-19ZM325.1,344.8h24.5v-2.8h-7.2l-21-55.5-.6.3h0l.6-.3-.5-1.3-1.6,1.4-4.1,2.8-21.2,52.7h-7.5v2.8h18v-2.8h-7.4l7.2-17.9h21.2l6.7,17.9h-7.1v2.8h-.2v-.2ZM305.3,321.2l9.7-24.2,9.3,24.2h-19,0ZM400.2,318.5l-4.1-1.1c3.6-.8,7.2-2,10.5-3.9,5.3-3.1,8.3-7.2,8.3-11.6,0-10.5-10.5-16.3-20.4-16.3h-28.1v2.8h7.5v53.3h-7.5v2.8h24.5v-2.8h-7.5v-23.7h6.1l19.6,26.7h13.8v-2.8h-5l-17.7-23.5h0v.2ZM383.5,288.5h7.5c12.4.5,13.8,10.4,13.8,14.7,0,10.2-10,11.9-21.3,11.9v-26.5h0v-.2ZM263,314.9s-6.7-3.8-8.9-5l-2.8-1.4c-2.8-1.4-5.5-3-8.2-4.7-1.9-1.3-3-3.3-3-5.5-.2-2.2.5-4.2,1.9-5.8,2.2-2.7,7.2-3.5,9.9-3.5,5,0,9.6,2.4,12.4,6.4l3.6,9.1h2.2v-14.4c-1.4-1.3-2.8-2-4.6-2.7-5-1.7-10.2-2.4-15.4-1.6-4.6.8-8.8,2.5-12.6,5.2-3.1,2.2-5.2,5.8-5.5,9.6-.2,2.2.3,4.4,1.3,6.4,1.1,2,2.7,3.9,4.9,5,2.2,1.4,5.5,3.1,10.5,5.8l1.4.8c3.3,1.7,5.3,2.8,7.1,3.9,1.7.9,3.1,2.2,4.4,3.6,1.3,1.4,2,3.3,2.2,5.2.3,2.7-.6,5.5-2.7,7.2-2,2-5.8,3.3-9.7,3.3-5.5-.2-10.7-2.7-14.4-6.7l-3.5-9.1h-2.4v14.3l.3.3c1.3,1.1,2.7,1.9,4.1,2.5,3.6,1.7,7.7,2.7,11.8,2.8,1.6,0,3,0,4.4-.5,4.9-.9,9.6-3,13.5-6,4.1-3,6.4-7.7,6.3-12.7,0-.3,0-7.8-8.9-12.1h.5v.2ZM482.6,327c0-.3,0-7.8-8.8-12.1,0,0-6.7-3.8-8.9-5l-2.8-1.4c-2.8-1.4-5.5-3-8.2-4.7-1.9-1.3-3-3.3-3-5.5-.2-2.2.5-4.2,1.9-5.8,2.2-2.7,7.2-3.5,9.9-3.5,5,0,9.6,2.4,12.4,6.4l3.6,9.1h2.2v-14.4c-1.4-1.3-2.8-2-4.4-2.7-5-1.7-10.2-2.4-15.5-1.6-4.6.8-8.8,2.5-12.6,5.2-3.1,2.2-5.2,5.8-5.5,9.6-.2,2.2.3,4.4,1.3,6.4,1.1,2,2.7,3.9,4.9,5,2.2,1.4,5.5,3.1,10.4,5.8l1.6.8c3.1,1.7,5.3,2.8,7.1,3.9,1.7.9,3.1,2.2,4.4,3.6,1.3,1.4,2,3.3,2.2,5.2.3,2.7-.6,5.5-2.7,7.2-2,2-5.8,3.3-9.7,3.3-5.5-.2-10.7-2.7-14.4-6.7l-3.5-9.1h-2.4v14.3l.3.3c1.3,1.1,2.7,1.9,4.1,2.5,3.6,1.7,7.7,2.7,11.8,2.8,1.6,0,3,0,4.4-.5,4.9-.9,9.6-3,13.5-6,4.1-3,6.3-7.7,6.1-12.7h.5v.2ZM54,340.3v-14.3l-1.9-.5-6.7,13.5c-3.5,2.5-7.5,3.8-11.8,3.8-16,0-23.2-13.7-23.2-27.3s8.5-27.3,23.2-27.3,8.9,1.6,12.6,4.4l6.1,12.1,1.7-.5v-14.1l-.6-.3c-5.6-3-12.1-4.6-18.5-4.6C14.6,285.4,0,298.1,0,315.7s12.4,30.3,34.8,30.3,13-2,18.5-5.5l.5-.3h.2v.2ZM6.3,379h10.4v-3H6.3v-5.5h11.6v-3H3v20.1h15.1v-3H6.3v-5.6h0ZM55.2,381.7l-11.3-14.3h-2.8v20.1h3.1v-14.6l11.6,14.6h2.5v-20.1h-3.1v14.3ZM81.3,370.6h6.4v17.1h3.3v-17.1h6.4v-3.1h-16.2s0,3.1,0,3.1ZM123.5,379h10.4v-3h-10.4v-5.5h11.6v-3h-14.9v20.1h15.1v-3h-11.8v-5.6h0ZM174.6,373.7c0-1.6-.6-3-1.6-4.1-1.6-1.4-3.6-2.2-5.8-2h-8.8v20.1h3.3v-7.4h4.7l5.5,7.4h3l.5-.9-5.3-7.1c2.8-.6,4.9-3.1,4.7-6h-.2ZM171.5,373.9c0,2-1.7,3.5-4.4,3.5h-5.3v-6.6h5.3c2.7,0,4.2,1.3,4.2,3.3h.2v-.2ZM196.6,370.6h6.4v17.1h3.3v-17.1h6.4v-3.1h-16.2v3.1h0ZM240.4,367.4l-9.3,20.2h3.5l2.2-5h9.7l2.2,5h3.5l-9.3-20.2h-2.7.2ZM245.2,379.5h-7.1l3.5-7.8,3.5,7.8h.2ZM272.5,367.6h3.3v20.1h-3.3v-20.1ZM312.5,381.7l-11.3-14.3h-2.8v20.1h3.1v-14.6l11.6,14.6h2.5v-20.1h-3.1v14.3ZM351.1,377.5l-6.6-10h-3v20.1h3.1v-14.3l6.1,8.9h.6l6.1-8.9v14.3h3.3v-20.1h-3l-6.6,10h-.2ZM388.8,379h10.5v-3h-10.5v-5.5h11.6v-3h-14.9v20.1h15.1v-3h-11.8v-5.6h0ZM437.7,381.7l-11.3-14.3h-2.8v20.1h3.1v-14.6l11.6,14.6h2.5v-20.1h-3.1v14.3ZM463.8,370.6h6.4v17.1h3.3v-17.1h6.4v-3.1h-16.2v3.1h0ZM495.3,378.1c.8,0,1.7.2,2.4.6.8.5,1.4,1.1,1.7,1.7.8,1.4.8,3.3,0,4.9-.5.8-1.1,1.4-1.7,1.7-1.4.8-3.3.8-4.9,0-.8-.5-1.4-1.1-1.7-1.7-.5-.8-.6-1.6-.6-2.4s.2-1.7.6-2.4c.5-.8,1.1-1.4,1.7-1.7.8-.5,1.6-.6,2.4-.6h.2v-.2ZM495.3,379c-.6,0-1.3.2-1.9.5-.6.3-1.1.8-1.4,1.4-.6,1.3-.6,2.7,0,3.9.3.6.8,1.1,1.4,1.4,1.3.6,2.7.6,3.9,0s1.1-.8,1.4-1.4c.3-.6.5-1.3.5-1.9s-.2-1.4-.5-1.9c-.3-.6-.8-1.1-1.4-1.4s-1.3-.5-1.9-.5h0l-.2-.2ZM493.1,385.3v-5h2.7c.3,0,.6,0,.8.2.2,0,.3.3.5.5,0,.2.2.5.2.8s0,.6-.3.9c-.3.3-.6.5-.9.5,0,0,.3,0,.3.2l.3.3.3.6.6.9h-1.3l-.5-.8c-.2-.5-.5-.8-.8-1.1-.2,0-.5-.2-.6-.2h-.3v2h-1.1l.2.2ZM494.2,382.5h1.6s.3,0,.3-.3v-.6s-.2-.2-.3-.3h-1.6v1.4h0v-.2Z" inkscape:connector-curvature="0"/>
      <path id="rings-181" class="st0" d="M246.5,112.3h2c2,.2,4.1.5,6,.9h0l3.6.9c3.6.9,7.2,1.9,10.7,3.1h0l1.7.6c3.9,1.7,7.4,4.4,10.7,7.2h0l2.5,2.2c2.7,2.2,5.2,4.4,7.7,6.7h0l1.9,1.9c1.7,1.9,3.5,3.9,5,6h0l2.7,3.3c1.7,2.2,3.5,4.4,5,6.7h0l1.3,1.9c2.8,4.2,5.2,8.8,6.4,13.8h0l.8,2.7c1.1,3.6,2.2,7.1,2.8,10.7h0l.3,2.2c.9,5.6,1.4,11.5.2,17.3h0l-.5,2.5c-.6,3.3-.9,6.7-1.9,9.9h0l-.8,2.5c-1.4,4.1-3.3,8.2-5.6,11.9h0l-1.3,2c-2,3.3-4.4,6.4-7.2,9.1h0l-1.9,1.7c-4.4,3.9-9.3,7.1-14.9,9.3h0l-2.5,1.1c-3.5,1.4-6.9,2.8-10.4,3.6h0l-2.4.6c-7.1,1.6-14.1,2.2-21.3,1.1h0l-3-.5c-8.9-1.9-17.3-5.2-25.3-9.7h0l-2.4-1.4c-5.3-3.3-9.9-7.5-14-12.2h0l-1.4-1.4c-1.9-1.7-4.1-3.3-6.1-5h0l-1.3-1.3c-3-3-5.2-6.4-6.4-10.5h0l-1.3-4.4c-.8-2.8-1.6-5.8-2.4-8.8h0l-.3-1.6c0-1.6-.3-3.3-.5-4.9h0v-1.9c.5-4.2,1.7-8.2,3.5-12.1h0l1.6-3.6c.5-1.3.9-2.4,1.4-3.6l2.5-7.4,1.1-3.3c1.6-4.6,2.8-8.9,4.7-13.3h0l.9-1.9c1.9-3.9,4.4-7.5,7.4-10.7h0l2.4-2.7c2.4-2.7,4.7-5.3,7.2-7.7h0l1.9-1.7c5-4.4,10.7-7.7,16.8-9.9h0l2-.6c3.3-1.1,6.6-1.6,10-1.6,0,0,.2,0,.2,0ZM247.6,117.5c-9.4-1.3-17.7,1.6-25.4,7.1h0l-2,1.6c-3.9,3.1-7.4,6.7-10.7,10.5h0l-1.6,1.9c-5.6,7.1-9.4,15.4-12.2,24h0l-1.6,4.9c-1.1,3.3-2,6.6-3.1,9.9h0l-1.4,4.2c-.9,2.8-1.7,5.6-2,8.6-.5,5.5.8,10.7,3.9,15.4h0v-8.5h0v-2.2c-.3-4.4,0-8.6,1.3-12.9h0l.5-2c.6-2,1.3-3.9,2-5.8h0l1.4-3.3c1.6-3.3,3.1-6.6,4.9-9.7h0l1.3-2.2c2.8-4.4,6.1-8.3,9.7-12.1h0l1.4-1.4c3.1-3.1,6.4-6.1,10.7-7.8h0l2.7-1.1c2.7-.9,5.5-1.7,8.2-2.5h0l2-.5c8.5-1.7,16.8-.9,24.9,1.9h0l7.7,2.7h0l7.7,2.7,2.4.8c1.6.5,3.1,1.1,4.7,1.7h0l1.9.9c4.2,2.2,7.7,5.3,11.1,8.6h0l.8.8c.9,1.1,1.9,2.5,2.4,3.8h0l1.4,4.1c.9,2.8,1.7,5.5,2.5,8.3h0l.6,2c1.3,4.9,1.3,9.7.6,14.6h0l-.3,2.7c-1.1,6.3-3.1,12.4-6.1,18h0l-1.3,2.2c-4.9,8.8-11.6,15.8-19.9,21.7h0l-2.4,1.6c-6.4,4.1-13.3,7.1-20.7,8.8h0l-2.7.5c-6.9,1.3-14,1.3-21,.3h0l-2.7-.3h0l-2.7-.3v.3h0v.3l1.4.5c.9.3,2,.6,3,.8h0l7.8,1.4h0l7.8,1.3,2.5.3c6.6.8,13,0,19.3-1.7h0l2.5-.6c5.2-1.4,10-3.3,14.7-6h0l1.9-1.1c4.9-3,9.1-6.6,12.4-11.3h0l1.3-2c3.5-5.5,5.5-11.5,6.9-17.7h0l.5-2.4c.9-5.5.9-11.1.5-16.6h0l-.5-3.3c-.5-3.3-.9-6.4-1.1-9.7h0v-2c-.6-6-2.4-11.6-5.8-16.5h0l-1.3-1.9c-4.9-7.1-9.4-14.4-16.5-19.5h0l-3.9-2.7c-3.9-2.7-7.8-5.3-11.9-7.7h0l-1.9-1.1c-5.2-2.5-11-3.6-16.6-4.9h0l-1.9-.3h0v.2ZM249.3,138.4c-3-.3-6.1-.2-9.1,0h-2.7c-2.7.3-5.2.8-7.7,1.3h0l-1.6.3c-3.6.9-6.9,2.7-9.7,5.2h0l-2.2,2c-6.4,6.1-11.9,13.2-15.8,21.3h0l-1.1,2.2c-3.3,7.5-5.3,15.2-5.3,23.4h0v2.5c0,5.6,1.1,11.1,3.1,16.3h0l.5,1.1c1.1,2.4,2.7,4.4,5.2,5.5h0l1.3.8c.8.5,1.6,1.1,2.4,1.7h0l2.2,1.4c2.8,1.9,5.8,3.8,8.8,5,6,2.5,12.2,4.4,18.8,4.4h3.1c4.1,0,8.2-.3,12.1-.8h0l1.9-.3c2.5-.6,5-1.7,7.5-2.5h0l2.4-.8c6.1-2.4,11.6-5.5,16.5-9.9h0l1.7-1.6c9.4-9.3,15.7-20.4,16.9-33.9h0v-1.4c.6-5.2.8-10.4-2-15.2h0l-1.3-2c-.9-1.4-1.9-2.7-3-3.9h0l-1.3-1.4c-3.3-3.6-7.4-6.4-11.9-8.5h0l-6.6-3c-4.4-2-8.6-4.1-13-6h0l-1.6-.6c-2-.9-4.2-1.7-6.4-2h0l-2.2-.3v-.3h.2ZM239.4,151.4l.3.5c.5.9,1.3,1.7,2.2,2h0c.2-.5.3-.8.6-.5h0l.8.3c2,.6,3.9-.6,5.8-.8h.8c1.6,0,3.6.3,4.2.6h0c.8.2,5.8,1.6,7.4,3.5h0c.6.5,4.6,3,6.7,5.8h0l.6.9c1.4,2.5.6,3.8,1.7,5.5h0l1.1,1.7v.9c.5,2.8,0,5.8-2.2,7.4h0l1.3-.8v.9c0,1.3,0,2.8-.5,3.9h1.3l-.3.5c-.6,1.4.3,3.3-1.4,4.1h-.3c-.3,0-.8,0-.9-.3h0l-.3-.8c-.8-2.2,1.4-4.6-.3-6.6h0v.3c-.5.5-.5.9-.6,1.3h0v.3c-.3.3-.5.5-.6.6h-.2l.3-.9c.5-2.4,0-4.6-1.4-6.4h0v-.3c-.2-.5,0-.8-.5-1.1h0l-.5.6c-.8,1.1-.8,2.4-.9,3.6h-.3v-.8c-.3-1.6-.9-3.1-2.2-4.4h0l-.5-.5c-1.1-.8-2.4-1.7-2.4-3.1h0v-1.3h-.3c-.3.5-.6.9-.8,1.3h0v.6c-.5.8-.3,1.7,0,2.5h0l-.5-.5c-.9-1.1-1.3-2.7-1.3-4.2h0l-.3-.9c-.5-1.3-1.1-2.4-2.4-3.1h-.3c-.2.5,0,1.1-.3,1.4h0v.8c-.3,1.3,0,2.5.6,3.5h0l-.5-.5c-.8-1.3-.9-2.7-.8-4.1h0l-.5-.6c-.3-.3-.8-.6-1.3-.9h0v-.8c-.2-2.2-2-3.8-3.8-5.2h0l-.5-.6c-.3-.5-.6-.9-.8-1.4h-.3c0,.3-.3.5-.3.6h0v.3c-.3.3-.3.8-.5.9h0l-.3-.8c-.8-1.3-2.5-1.7-3.3-3.1h-.2c-.2.2-.2.5-.3.6h0v.8c-.3,1.3.3,2.5.9,3.5h-.3c0-.3-.2-.5-.5-.5h0v.6c0,1.3.8,2.2,1.7,2.8h0l.6.3c1.6.8,3.3,1.1,3.9,2.8h0l-.5-.5c-.9-.8-2-1.4-3.3-1.4h0l.5.8c.5.9.6,2.2,1.4,3h0l.8.5c1.6.9,3.6,1.1,5.5,1.1h0v.3h-.2l-.6.3h-2l.5.6c1.4,1.7,3.3,2.7,5.6,2.2h1.4c0,.3-.3.5-.5.5h-.6c-1.4,0-2.7.3-3.6,1.4h0v.3h.8c1.6,0,2.8.8,4.1,1.7h0l.8.3c1.7.6,3.9-.3,5.3,1.3h-.6c-.9-.5-2.2-.5-3.1,0h0v.3h0l.3.5c.8,1.3,1.6,2.8,3.3,3.1h.8c1.9,0,3.9.5,4.7,2.5h-.3c-.2,0-.3-.5-.6-.6h0l-.5-.5c-.8-.5-1.6-.6-2.5-.5h0l.6.5c1.1.6,1.9,1.9,1.9,3.1h0v.6c.3,1.4,1.3,2.7,2.5,3.1h.5c.6.3,1.3.5,1.7,0h0c0-.3-.3-.5-.3-.6h.5c.9.3,1.9,0,2.5-.6h0v.5c-.5.6-1.1,1.1-1.7,1.3h0v.6c0,1.1-.2,2-1.1,2.8h0l-.6.3h-.5l-.3.3c-.8.5-2.2,0-2.2,1.4h.2s.3.3.5,0h0l-.3.5c-.5.6-1.1.6-1.6,1.3h-.2c-.3.5-.5.9-.6,1.7h0v1.1c-.3,4.4,3.8,6.1,4.4,10.5h0v.3c0,.3-.5.6-.8.8h-5.8c-5.2.6-9.7,2-14.1,4.9h0l-1.3.8c-2.2,1.1-4.6,1.6-7.2,1.9h-.3c-.2,0-.3-.3-.5-.5h0v-.9c.6-1.7,1.3-3.3.8-5.3h0l-.3-1.1c-.5-1.9-.5-2.7-.6-5.2h0v-.6c-.5-1.1-1.6-2.2-2.7-2.7h0l-1.1-.3c-1.6-.5-3.1-.5-4.9-.6h-.5c-.6-.5-1.1-.8-1.4-1.4h0v-.9c-.3-1.3,0-2.5.3-3.6h0v-.3c-.3-.3-.8-.6-.8-1.1h0v-.5c.2-.6,1.1-1.1.6-1.7h0l-1.3-1.3v-.5c.3-.6.6-1.1.3-1.7h0l-.3-.3c-.6-.3-1.3-.3-1.9,0h-.6c-.6,0-1.1,0-1.6-.3h0v-.5c-.2-.8.3-1.6.6-2.2h0l.8-.8c1.4-1.9,1.3-4.4,2.7-6.1h0l.5-.6c.9-1.4,1.4-3,1.3-4.7h0l.3-.9c.5-1.3,1.6-2.2,1.6-3.6h0v-1.1c.5-1.9,1.4-3.6,2.4-5.2h0v-.6c0-.9,0-1.7.8-2.4h0l1.3-.9v.3c-.3.6-.5,1.3,0,1.7h.5v-.6c.6-1.1,1.3-2.5,1.6-2.8h0v.3c0,.5,0,.9.5,1.3h0l.3.3c.3.2.8.3,1.1.2h0v-.3c0-.3-.5-.5-.5-.8h0v-.5c-.3-.6-.2-1.4.3-2h0c0-.2.3-.2.3,0h0s.3,0,.3-.2h0v-.8c.2-1.1.6-1.9,1.4-2.7h-1.3Z" inkscape:connector-curvature="0"/>
    </g>
  </g>
</svg>