<?xml version="1.0" encoding="UTF-8"?>
<svg id="Layer_1" xmlns="http://www.w3.org/2000/svg" version="1.1" viewBox="0 0 343 237">
  <!-- Generator: Adobe Illustrator 29.0.1, SVG Export Plug-In . SVG Version: 2.1.0 Build 192)  -->
  <defs>
    <style>
      .st0 {
        fill: #fff;
      }
    </style>
  </defs>
  <path class="st0" d="M20,67.4h10.7V1.3h-10.7V0h55.3v16.7h-1.1c-.8-2.5-1.7-4.7-2.7-6.6-1-1.9-2.1-3.5-3.5-4.8-1.3-1.3-3-2.3-4.8-2.9-1.9-.6-4.1-1-6.8-1h-16v31.3h6.3c2.1,0,3.9-.2,5.4-.6,1.5-.4,2.8-1.1,3.8-2.2,1.1-1.1,2-2.5,2.7-4.3.7-1.8,1.5-4.2,2.2-7.1h1.1v30h-1.1c-.4-1.9-.9-3.7-1.4-5.4-.5-1.7-1.2-3.3-2-4.6-.9-1.3-2-2.4-3.5-3.2-1.4-.8-3.3-1.2-5.6-1.2h-7.8v33.4h10.7v1.3h-31.1v-1.3h0Z"/>
  <path class="st0" d="M84.8,67.4h10.7V1.3h-10.7V0h31.1v1.3h-10.7v66.1h10.7v1.3h-31.1v-1.3Z"/>
  <path class="st0" d="M122,67.4h10.7V1.3h-10.7V0h55.3v16.7h-1.1c-.8-2.5-1.7-4.7-2.7-6.6-1-1.9-2.1-3.5-3.5-4.8-1.4-1.3-3-2.3-4.8-2.9-1.9-.6-4.1-1-6.8-1h-16v31.3h6.3c2.1,0,3.9-.2,5.4-.6,1.5-.4,2.8-1.1,3.8-2.2,1.1-1.1,2-2.5,2.7-4.3.7-1.8,1.5-4.2,2.2-7.1h1.1v30h-1.1c-.4-1.9-.9-3.7-1.4-5.4-.5-1.7-1.2-3.3-2-4.6-.9-1.3-2-2.4-3.5-3.2-1.5-.8-3.3-1.2-5.7-1.2h-7.8v33.4h10.7v1.3h-31.1v-1.3h0Z"/>
  <path class="st0" d="M201,67.4h10.7V1.3h-5.6c-1.3,0-2.7.1-4.4.3s-3.2.9-4.9,1.9-3.2,2.7-4.7,4.9c-1.5,2.2-2.8,5.3-3.9,9.2h-1.1V0h58.7v17.7h-1.1c-1.1-3.9-2.4-7-3.9-9.2-1.5-2.2-3.1-3.8-4.7-4.9s-3.3-1.7-4.9-1.9c-1.6-.2-3.1-.3-4.4-.3h-5.6v66.1h10.7v1.3h-31.1v-1.3h0Z"/>
  <path class="st0" d="M252.5,67.4h10.7V1.3h-10.7V0h31.1v1.3h-10.7v31.6h32.2V1.3h-10.7V0h31.1v1.3h-10.7v66.1h10.7v1.3h-31.1v-1.3h10.7v-33.1h-32.2v33.1h10.7v1.3h-31.1v-1.3Z"/>
  <path class="st0" d="M22.3,147.7h9.9v-61.1h-9.9v-1.2h16.6c.8,0,1.7,0,2.5,0,.8,0,1.7,0,2.5-.1.8,0,1.7,0,2.5,0s1.7,0,2.5,0c1.8,0,3.4,0,4.8,0,1.4,0,2.7.2,3.9.3,1.2.1,2.4.4,3.5.6,1.1.3,2.3.6,3.5,1,3.6,1.2,6.8,2.8,9.4,4.8,2.7,2,4.8,4.3,6.5,6.9,1.7,2.6,2.9,5.5,3.8,8.6.8,3.1,1.2,6.3,1.2,9.7s-.5,7.5-1.4,10.6c-.9,3.1-2.3,5.9-3.9,8.3-1.7,2.4-3.6,4.5-5.8,6.2-2.2,1.8-4.6,3.2-7.2,4.2-1.4.7-2.8,1.2-4.1,1.5s-2.6.6-3.9.8c-1.3.2-2.8.3-4.4.4-1.6,0-3.5,0-5.5,0s-1.9,0-2.9,0c-1,0-2,0-3-.1-1,0-2-.1-3-.1-1,0-1.9,0-2.8,0h-15.2v-1.3ZM41.2,147.7c1,.1,2.2.2,3.5.3s2.8,0,4.4,0,4,0,6-.3c2-.2,3.9-.6,5.7-1.3,1.8-.7,3.5-1.7,5.1-2.9s3-3,4.2-5.1c1.9-3.2,3.2-6.5,4-9.9.7-3.4,1.1-7,1.1-11s-.4-9-1.3-12.8c-.9-3.8-2.4-7.1-4.4-9.8-2.1-2.7-4.8-4.8-8.2-6.3-3.4-1.5-7.6-2.2-12.6-2.2s-2.8,0-4.1,0c-1.2,0-2.4.1-3.5.2v61.1h0Z"/>
  <path class="st0" d="M98.5,117c0-4.8.9-9.2,2.8-13.2,1.9-4,4.3-7.6,7.2-10.5,3-3,6.3-5.3,10-7,3.7-1.7,7.4-2.5,11.1-2.5s7.8.8,11.5,2.5c3.7,1.7,7,4,10,7,2.9,3,5.3,6.5,7,10.5,1.8,4.1,2.6,8.5,2.6,13.2s-.8,8.2-2.4,12.2c-1.6,4-3.8,7.5-6.6,10.6-2.8,3.1-6.1,5.6-9.9,7.5-3.8,1.9-7.9,2.9-12.2,2.9s-8.6-.9-12.4-2.8c-3.8-1.8-7.1-4.3-9.9-7.4-2.8-3.1-4.9-6.6-6.5-10.6-1.5-4-2.3-8.2-2.3-12.5ZM108.8,117c0,5.4.4,10,1.1,14,.7,4,1.9,7.3,3.6,10,1.7,2.7,3.8,4.7,6.4,6s5.9,2,9.7,2,7-.7,9.7-2c2.6-1.3,4.8-3.3,6.5-6,1.7-2.7,2.9-6,3.6-10,.7-4,1.1-8.7,1.1-14s-.3-8.1-.8-11.9c-.5-3.8-1.6-7.3-3.1-10.3-1.5-3-3.6-5.4-6.3-7.2-2.7-1.8-6.2-2.7-10.6-2.7s-7.9.9-10.6,2.7-4.8,4.2-6.3,7.2c-1.5,3-2.5,6.4-3.1,10.3-.5,3.8-.8,7.8-.8,11.9Z"/>
  <path class="st0" d="M164.3,85.3h26.9v1.2h-9.3l18.4,51.8h.2l11.9-33-6.8-18.8h-7.5v-1.2h26.8v1.2h-9.7l18.4,51.8h.2l18.8-51.8h-9.6v-1.2h19.1v1.2h-8l-23.1,63.7h-2.2l-15.4-42.9h-.2l-15.6,42.9h-2.4l-22.8-63.7h-8v-1.2h0Z"/>
  <path class="st0" d="M263,147.7h9.9v-61.1h-9.9v-1.2h19.1l30.2,48.7h.2v-47.4h-9.9v-1.2h21.2v1.2h-9.9v63.6h-1.8l-37.6-59.9h-.2v57.4h9.9v1.2h-21.2v-1.2h0Z"/>
  <path class="st0" d="M63.2,235.8h-1c-.3-.4-.7-.7-1.1-1s-1.1-.4-1.9-.4-1.4.1-2.2.4-1.7.5-2.8.9c-1,.3-2.2.6-3.5.9-1.3.2-2.7.4-4.3.4-2.9,0-5.7-.5-8.4-1.6-2.7-1.1-5.3-2.8-7.7-5.2-2.2-2.2-4.1-4.9-5.6-8-1.5-3.1-2.3-6.6-2.3-10.7s.6-6.7,1.9-9.9,3-5.9,5.2-8.3c2.2-2.4,4.8-4.3,7.8-5.7,3-1.4,6.2-2.1,9.8-2.1s2.7.1,3.8.4c1.1.3,2.1.6,3,.9.9.3,1.7.6,2.4.9s1.5.4,2.1.4,1.6-.2,2-.4c.4-.3.8-.6,1.1-1h1v13.8h-.8c-.4-1.8-.9-3.5-1.6-5.2-.6-1.7-1.5-3.2-2.7-4.5-1.2-1.3-2.6-2.4-4.4-3.2s-4-1.2-6.6-1.2-4.5.4-6.3,1.1c-1.8.8-3.2,1.8-4.4,3-1.2,1.3-2.2,2.7-2.9,4.4-.7,1.7-1.2,3.4-1.6,5.3-.4,1.9-.6,3.7-.7,5.6s-.2,3.7-.2,5.4c0,4.8.4,8.8,1.2,12,.8,3.2,1.9,5.7,3.3,7.5,1.4,1.8,3.1,3.1,5.1,3.9,2,.7,4.2,1.1,6.6,1.1s5.6-.4,7.4-1.3,3.4-2,4.5-3.4c1.2-1.4,2-3,2.6-4.8.6-1.8,1.1-3.5,1.6-5.3h.8v14.7h0Z"/>
  <path class="st0" d="M65.7,234.8h6.1l18.6-49.3h1.7l18.7,49.3h6.1v1h-21.2v-1h7.6l-7.2-19.2h-16l-7.2,19.2h7.7v1h-14.8v-1h0ZM88.1,194.7l-7.6,20.1h15.2l-7.6-20.1Z"/>
  <path class="st0" d="M118.9,234.8h7.7v-47.1h-7.7v-1h13c.6,0,1.3,0,1.9,0,.6,0,1.3,0,1.9,0,.6,0,1.3,0,1.9,0,.6,0,1.2,0,1.9,0,2.6,0,5,.3,7.3.9,2.2.6,4.2,1.5,5.8,2.6,1.6,1.2,2.9,2.5,3.8,4.1.9,1.6,1.4,3.4,1.4,5.4s-.5,3.9-1.6,5.5c-1.1,1.6-2.5,3-4.2,4.1-1.8,1.1-3.8,1.9-6.1,2.5-2.3.6-4.7.9-7.3.9s-1.5,0-2.5-.2-1.9-.2-2.7-.4v22.7h7.7v1h-22.2v-1h0ZM133.4,211.1c.9.2,1.9.3,2.9.4,1,0,1.9.1,2.7.1,3.4,0,6.1-1,8-3s2.9-5,2.9-9.1-.2-4.3-.7-5.9c-.5-1.6-1.2-2.8-2.2-3.8-1-.9-2.3-1.6-3.9-2-1.6-.4-3.5-.6-5.7-.6s-1.7,0-2.4,0c-.7,0-1.2,0-1.6.1v23.4h0Z"/>
  <path class="st0" d="M163.7,234.8h7.7v-47.1h-7.7v-1h22.2v1h-7.6v47.1h7.6v1h-22.2v-1Z"/>
  <path class="st0" d="M200.7,234.8h7.6v-47.1h-4c-.9,0-1.9,0-3.1.2-1.2.2-2.3.6-3.5,1.3-1.2.7-2.3,1.9-3.4,3.5-1.1,1.6-2,3.8-2.8,6.6h-.8v-12.6h41.9v12.6h-.8c-.8-2.8-1.7-5-2.8-6.6-1.1-1.6-2.2-2.8-3.4-3.5s-2.3-1.2-3.5-1.3c-1.2-.2-2.2-.2-3.1-.2h-4v47.1h7.6v1h-22.2v-1h0Z"/>
  <path class="st0" d="M230.1,234.8h6.1l18.6-49.3h1.6l18.7,49.3h6.1v1h-21.2v-1h7.7l-7.2-19.2h-16l-7.2,19.2h7.7v1h-14.8v-1h0ZM252.5,194.7l-7.6,20.1h15.2l-7.6-20.1Z"/>
  <path class="st0" d="M283.3,234.8h7.6v-47.1h-7.6v-1h22.2v1h-7.6v47.1h12.3c4,0,7.2-1.3,9.5-3.8,2.3-2.5,4-6,5-10.3h.8v15.1h-42.1v-1h0Z"/>
  <path class="st0" d="M342.9,162.7H0v5.3h342.9v-5.3Z"/>
</svg>