<svg width="16" height="14" viewBox="0 0 16 14" fill="none" xmlns="http://www.w3.org/2000/svg">
<path d="M4.71163 13.6667C2.40835 13.6688 0.715869 12.1731 0.521796 10.2189C0.402794 9.01833 0.770891 7.97204 1.63078 7.1169C3.54079 5.22219 5.46531 3.3413 7.38513 1.45539C7.62698 1.21771 7.93493 1.20639 8.14948 1.42059C8.36402 1.6348 8.34099 1.93703 8.10171 2.17261C6.1789 4.06286 4.25637 5.95311 2.33413 7.84335C1.53609 8.63226 1.27591 9.59052 1.58727 10.6557C1.8948 11.7091 2.62588 12.3836 3.71311 12.6351C4.72442 12.869 5.63933 12.6225 6.3751 11.9057C8.89335 9.45316 11.4016 6.99073 13.9 4.51837C14.4669 3.95876 14.6157 3.27507 14.3231 2.53856C14.0305 1.80205 13.4521 1.41892 12.6575 1.37239C12.1222 1.34137 11.6509 1.52749 11.2704 1.90056C9.26998 3.86319 7.27153 5.82735 5.27507 7.79305C4.92233 8.14056 4.92063 8.65406 5.25801 8.98815C5.60265 9.32937 6.12643 9.32098 6.49709 8.95755C7.75238 7.72766 9.00212 6.49316 10.2608 5.26872C10.3658 5.16858 10.4966 5.09856 10.6391 5.06625C10.8524 5.02224 11.023 5.12871 11.1297 5.31357C11.1803 5.40048 11.2026 5.50055 11.1936 5.6003C11.1846 5.70005 11.1447 5.7947 11.0793 5.8715C11.0556 5.89973 11.0302 5.9266 11.0034 5.95199C9.73547 7.19837 8.46682 8.44433 7.19746 9.68986C6.19383 10.6691 4.52438 10.2918 4.08676 8.98354C3.85728 8.29691 3.98737 7.65262 4.50604 7.13912C6.53292 5.12997 8.56236 3.12207 10.6187 1.14184C11.4538 0.334904 12.4924 0.13621 13.5899 0.526891C14.6874 0.917572 15.3267 1.72367 15.4747 2.86678C15.595 3.79276 15.282 4.58544 14.614 5.2444C13.0759 6.75878 11.5366 8.27148 9.99594 9.7825C9.06979 10.6919 8.14365 11.6013 7.2175 12.511C6.44292 13.2726 5.50711 13.657 4.71163 13.6667Z" fill="#222222"/>
</svg>
