<svg width="62" height="8" viewBox="0 0 62 8" fill="none" xmlns="http://www.w3.org/2000/svg">
<g clip-path="url(#clip0_372_1348)">
<path d="M15.0192 3.06073H9.91L9.7207 3.19873V7.62946H11.1351V5.96796L11.2701 5.85003H15.0194C15.9661 5.85003 16.4099 5.60174 16.4099 4.96466V3.94734C16.4097 3.3092 15.9661 3.06073 15.0192 3.06073ZM15.0192 4.69879C15.0192 4.99894 14.8155 5.06128 14.3717 5.06128H11.2856L11.1349 4.91849V3.96936L11.2699 3.84894H14.3717C14.8155 3.84894 15.0192 3.91057 15.0192 4.21215V4.69879Z" fill="#E7E7E7"/>
<path d="M18.9892 3.89853L20.2062 5.63676L20.1388 5.80513H17.4473L16.7603 6.62904H20.7667L21.0443 6.79386L21.6663 7.63021H23.2849L19.7371 3.00375" fill="#E7E7E7"/>
<path d="M35.0834 6.73029V5.50055L35.2289 5.378H37.9367V4.59494H33.6451V7.63005H39.9756V6.85071H35.2353" fill="#E7E7E7"/>
<path d="M40.0423 3.06073H33.645V3.92176H40.0423V3.06073Z" fill="#E7E7E7"/>
<path d="M26.5099 3.87596H31.6637C31.5843 3.23711 31.1776 3.05986 30.146 3.05986H26.455C25.291 3.05986 24.9197 3.28133 24.9197 4.14006V6.54928C24.9197 7.40889 25.291 7.63037 26.455 7.63037H30.146C31.1927 7.63037 31.5936 7.43873 31.6209 6.77608H26.5099L26.3583 6.63702V3.96902" fill="#E7E7E7"/>
<path d="M6.28158 4.84077H2.53224L2.42184 4.72231V3.94049L2.5317 3.85773H7.58607L7.65512 3.69309C7.48295 3.26133 7.03713 3.05992 6.20925 3.05992H2.69822C1.53492 3.05992 1.16307 3.2814 1.16307 4.14012V4.64523C1.16307 5.50502 1.53492 5.72614 2.69822 5.72614H6.43917L6.55669 5.82666V6.64401L6.46086 6.77153H2.18171V6.76762H1.06086C1.06086 6.76762 0.932597 6.83031 0.937516 6.85962C1.03317 7.46028 1.45294 7.63043 2.45791 7.63043H6.28158C7.44469 7.63043 7.82766 7.40895 7.82766 6.54934V5.92008C7.82766 5.06189 7.44469 4.84077 6.28158 4.84077Z" fill="#E7E7E7"/>
<path d="M44.0668 3.04158H41.9623L41.848 3.25346L44.1852 4.91426C44.6279 4.66436 45.1096 4.4111 45.6336 4.16121" fill="#E7E7E7"/>
<path d="M45.9525 6.17016L48.0067 7.63043H50.1369L50.2251 7.43702L47.1577 5.24838C46.7503 5.53983 46.3479 5.84762 45.9525 6.17016Z" fill="#E7E7E7"/>
<path d="M43.7536 7.62706H41.8495L41.6886 7.38143C42.9833 6.16288 48.7737 0.93932 61.3603 0.379684C61.3603 0.379684 50.7957 0.727081 43.7536 7.62706Z" fill="#E7E7E7"/>
</g>
<defs>
<clipPath id="clip0_372_1348">
<rect width="60.423" height="7.25075" fill="white" transform="translate(0.937622 0.37973)"/>
</clipPath>
</defs>
</svg>
