<?xml version="1.0" encoding="UTF-8"?>
<svg id="Layer_1" xmlns="http://www.w3.org/2000/svg" version="1.1" viewBox="0 0 1920 1080">
  <!-- Generator: Adobe Illustrator 29.0.1, SVG Export Plug-In . SVG Version: 2.1.0 Build 192)  -->
  <defs>
    <style>
      .st0 {
        fill: #fff;
      }
    </style>
  </defs>
  <g id="SVG">
    <path class="st0" d="M674.3,445.7h128.7v612.4h-128.7v-43c-54.5,42.1-121.4,64.9-190.3,64.9-175.9,0-319-147.2-319-328s143.1-328.1,319-328.1,137.1,24.2,190.2,64.9v-43ZM674.3,752.1c0-107.9-85.4-195.8-190.3-195.8s-190.2,87.8-190.2,195.8,85.3,195.8,190.3,195.8,190.2-87.8,190.2-195.8h0ZM1029.3,1058.2h-128.7V0h128.7v1058.2ZM1102,751.9c0-180.9,143.1-328.1,319-328.1s319,147.1,319,328.1-143.1,328.1-319,328.1-319-147.2-319-328.1h0ZM1230.7,752.1c0,108,85.4,195.8,190.2,195.8s190.3-87.8,190.3-195.8-85.3-195.8-190.3-195.8-190.2,87.8-190.2,195.8h0Z"/>
  </g>
</svg>