<?xml version="1.0" encoding="UTF-8"?>
<svg id="Layer_1" xmlns="http://www.w3.org/2000/svg" version="1.1" viewBox="0 0 48 47">
  <!-- Generator: Adobe Illustrator 29.0.1, SVG Export Plug-In . SVG Version: 2.1.0 Build 192)  -->
  <defs>
    <style>
      .st0 {
        fill: #fff;
      }

      .st1 {
        fill: #016fd0;
      }
    </style>
  </defs>
  <path class="st1" d="M.7,0h46.4v25.1l-2.3,3.6,2.3,3.2v14.6H.7v-23.6l1.4-1.7-1.4-1.6V0Z"/>
  <path class="st0" d="M9.7,32.4v-7.3h7.7l.8,1.1.9-1.1h28v6.8s-.7.5-1.6.5h-15.5l-.9-1.1v1.1h-3.1v-2s-.4.3-1.3.3h-1v1.7h-4.6l-.8-1.1-.8,1.1h-7.7Z"/>
  <path class="st0" d="M.7,19.6l1.7-4.1h3l1,2.3v-2.3h3.7l.6,1.6.6-1.6h16.8v.8s.9-.8,2.3-.8h5.5s1,2.3,1,2.3v-2.3h3.1l.9,1.3v-1.3h3.2v7.3h-3.2l-.8-1.3v1.3h-4.6l-.5-1.1h-1.2l-.5,1.1h-3.1c-1.2,0-2-.8-2-.8v.8h-4.7l-.9-1.1v1.1H5l-.5-1.1h-1.2l-.5,1.1H.7v-3.2Z"/>
  <path class="st1" d="M3,16.4l-2.3,5.5h1.5l.4-1.1h2.5l.4,1.1h1.6l-2.3-5.5h-1.8ZM3.9,17.7l.8,1.9h-1.5l.8-1.9Z"/>
  <path class="st1" d="M7.3,21.9v-5.5h2.2s1.3,3.5,1.3,3.5l1.2-3.5h2.2v5.5h-1.4v-4l-1.4,4h-1.2l-1.5-4v4h-1.4Z"/>
  <path class="st1" d="M15.1,21.9v-5.5h4.5v1.2h-3.1v.9h3v1.1h-3v1h3.1v1.2h-4.5Z"/>
  <path class="st1" d="M20.3,16.4v5.5h1.4v-1.9h.6l1.6,1.9h1.7l-1.8-2c.7,0,1.5-.7,1.5-1.7s-.9-1.8-1.9-1.8h-3ZM21.7,17.7h1.6c.4,0,.6.3.6.6s-.4.6-.6.6h-1.6v-1.1Z"/>
  <path class="st1" d="M27.2,21.9h-1.4v-5.5h1.4v5.5Z"/>
  <path class="st1" d="M30.5,21.9h-.3c-1.5,0-2.3-1.1-2.3-2.7s.9-2.8,2.7-2.8h1.5v1.3h-1.6c-.7,0-1.3.6-1.3,1.5s.6,1.5,1.5,1.5h.4l-.6,1.2Z"/>
  <path class="st1" d="M33.5,16.4l-2.3,5.5h1.5l.4-1.1h2.5l.4,1.1h1.6l-2.3-5.5h-1.8ZM34.3,17.7l.8,1.9h-1.5l.8-1.9Z"/>
  <path class="st1" d="M37.8,21.9v-5.5h1.7l2.2,3.4v-3.4h1.4v5.5h-1.7l-2.3-3.5v3.5h-1.4Z"/>
  <path class="st1" d="M10.6,31.4v-5.5h4.5v1.2h-3.1v.9h3v1.1h-3v1h3.1v1.2h-4.5Z"/>
  <path class="st1" d="M32.4,31.4v-5.5h4.5v1.2h-3.1v.9h3v1.1h-3v1h3.1v1.2h-4.5Z"/>
  <path class="st1" d="M15.2,31.4l2.2-2.7-2.2-2.8h1.7l1.3,1.7,1.3-1.7h1.7l-2.2,2.7,2.2,2.7h-1.7l-1.3-1.7-1.3,1.7h-1.7Z"/>
  <path class="st1" d="M21.4,26v5.5h1.4v-1.7h1.4c1.2,0,2.1-.6,2.1-1.9s-.7-1.8-2-1.8h-3ZM22.8,27.2h1.5c.4,0,.7.2.7.6s-.3.6-.7.6h-1.5v-1.3Z"/>
  <path class="st1" d="M26.9,26v5.5h1.4v-1.9h.6l1.6,1.9h1.7l-1.8-2c.7,0,1.5-.7,1.5-1.7s-.9-1.8-1.9-1.8h-3ZM28.3,27.2h1.6c.4,0,.6.3.6.6s-.4.6-.6.6h-1.6v-1.1Z"/>
  <path class="st1" d="M37.5,31.4v-1.2h2.7c.4,0,.6-.2.6-.5s-.2-.5-.6-.5h-1.2c-1.1,0-1.7-.7-1.7-1.6s.5-1.7,2.1-1.7h2.7l-.6,1.2h-2.3c-.4,0-.6.2-.6.5s.2.5.5.5h1.3c1.2,0,1.7.7,1.7,1.6s-.6,1.7-1.8,1.7h-2.9Z"/>
  <path class="st1" d="M42.5,31.4v-1.2h2.7c.4,0,.6-.2.6-.5s-.2-.5-.6-.5h-1.2c-1.1,0-1.7-.7-1.7-1.6s.5-1.7,2.1-1.7h2.7l-.6,1.2h-2.3c-.4,0-.6.2-.6.5s.2.5.5.5h1.3c1.2,0,1.7.7,1.7,1.6s-.6,1.7-1.8,1.7h-2.9Z"/>
</svg>