<?xml version="1.0" encoding="UTF-8"?>
<svg id="Layer_1" xmlns="http://www.w3.org/2000/svg" version="1.1" viewBox="0 0 118.8 42.1">
  <!-- Generator: Adobe Illustrator 29.0.1, SVG Export Plug-In . SVG Version: 2.1.0 Build 192)  -->
  <defs>
    <style>
      .st0 {
        fill: #fff;
      }
    </style>
  </defs>
  <path class="st0" d="M49.1,14.9c-1.3-.2-2.6,0-3.8.5-1.2.5-2.2,1.4-2.9,2.5l-.3-2.8s0,0,0,0c0,0,0,0,0,0,0,0,0,0,0,0,0,0,0,0,0,0h-4.3c-.2,0-.2,0-.2.2v20.6c0,.2,0,.2.2.2h5c.2,0,.2,0,.2-.2v-10.8c0-.8,0-1.6.3-2.4.3-.8.8-1.4,1.3-2,.6-.5,1.4-.9,2.2-1.1.8-.2,1.6-.2,2.4-.1.2,0,.2,0,.2-.2v-4.1c0,0,0-.1,0-.2s0,0-.1,0Z"/>
  <path class="st0" d="M63.7,15.2c-1.3-.5-2.6-.8-4-.7-1.4,0-2.7.2-4,.7-1.3.5-2.4,1.3-3.4,2.3-1.8,2.3-2.7,5.1-2.7,8s1,5.7,2.7,8c1,1,2.1,1.8,3.4,2.3,1.3.5,2.7.7,4,.7,2.2,0,4.4-.6,6.2-1.9,1.7-1.3,2.9-3.1,3.3-5.2,0-.2,0-.2-.2-.2h-5.1c0,0-.1,0-.2,0,0,0,0,0,0,.1-.1,1-.6,1.8-1.4,2.4-.8.6-1.7.9-2.7.8-2.8,0-4.4-2.1-4.5-6.2h14s0,0,0,0c0,0,0,0,0,0,0,0,0,0,0,0,0,0,0,0,0,0,.3-3-.6-6.1-2.4-8.5-.9-1-2-1.9-3.2-2.4ZM55.2,23c0-1.3.5-2.5,1.4-3.5.4-.4.9-.8,1.4-1,.5-.2,1.1-.3,1.7-.3h0c.6,0,1.1.1,1.6.4.5.2,1,.6,1.3,1,.8,1,1.2,2.2,1.2,3.4h-8.7Z"/>
  <path class="st0" d="M82.7,14.5c-1.2,0-2.4.3-3.4.8-1.1.6-2,1.4-2.6,2.4l-.3-2.6c0-.2,0-.2-.2-.2h-4.3c-.2,0-.2,0-.2.2v20.6c0,.2,0,.2.2.2h4.9c.2,0,.2,0,.2-.2v-11.6c0-1.5.3-2.9,1.1-4.1.3-.5.8-.9,1.4-1.2s1.1-.4,1.7-.4c.5,0,1,0,1.5.3.5.2.9.6,1.2,1,.7,1.3,1,2.8.8,4.2v11.8s0,0,0,0c0,0,0,0,0,0,0,0,0,0,0,0,0,0,0,0,0,0h4.9c.2,0,.2,0,.2-.2v-12.9c0-5.5-2.5-8.3-7.4-8.3Z"/>
  <path class="st0" d="M110.8,36.3c.8,0,1.5-.1,2.3-.3,0,0,0,0,0,0,0,0,0,0,0-.1v-3.7c0,0-.1,0-.1,0-1.3.3-1.9-.2-1.9-1.6v-8.6c0-1-.1-2-.5-3-.4-.9-1-1.8-1.8-2.5-1.8-1.4-4.1-2.1-6.4-1.9-2.3,0-4.5.6-6.3,1.9-.8.6-1.5,1.4-2,2.3-.5.9-.8,1.9-.8,2.9,0,.2,0,.2.2.2h4.9c.1,0,.2,0,.2-.2,0-.5.1-.9.3-1.3.2-.4.5-.8.8-1.1.3-.3.7-.5,1.2-.7.4-.1.9-.2,1.3-.2,1,0,1.9.2,2.6.8.3.3.5.7.7,1.2.1.4.2.9.2,1.4,0,.6-.5,1-1.4,1.2-1.1.3-2.2.5-3.4.7-1.3.2-2.6.5-3.9.8-1.3.3-2.5,1-3.4,1.9-.9,1-1.4,2.4-1.3,3.8,0,4.1,2.5,6.1,7.6,6.1,1.3.1,2.6-.1,3.7-.7,1.2-.6,2.1-1.4,2.8-2.5l.3.8c.3.8.9,1.4,1.6,1.8.7.4,1.5.6,2.3.4ZM105.6,27.3c.1,1.5-.3,2.9-1.2,4.1-.4.5-.9.9-1.5,1.1-.6.3-1.2.4-1.9.3-.8,0-1.6-.2-2.2-.7-.3-.3-.5-.6-.7-1-.1-.4-.2-.8-.2-1.2,0-.4,0-.8.3-1.2.2-.3.5-.6.9-.8,1.1-.5,2.2-.8,3.4-1,1-.1,2-.4,3-.7v.9Z"/>
  <path class="st0" d="M21.7,12.8l1.9-5.4h-5.2s-.2,0-.2.2l-10.3,28.2c0,.2,0,.2.2.2h5.8s0,0,.1,0c0,0,0,0,0-.1l1.9-5.8h11.3l1.9,5.8s0,0,0,0c0,0,0,0,0,0,0,0,0,0,0,0,0,0,0,0,0,0h5.8c.1,0,.2,0,.2-.2l-8.3-22.9h-5.4ZM17,26.3l4.6-13.4.7,2.2,3.7,11.3h-9Z"/>
  <polygon class="st0" points="1.6 1.6 9.7 1.6 9.7 0 0 0 0 42.1 9.7 42.1 9.7 40.4 1.6 40.4 1.6 1.6"/>
  <polygon class="st0" points="109.1 0 109.1 1.6 117.2 1.6 117.2 40.4 109.1 40.4 109.1 42.1 118.8 42.1 118.8 0 109.1 0"/>
</svg>