<?xml version="1.0" encoding="UTF-8"?>
<svg id="Layer_1" xmlns="http://www.w3.org/2000/svg" version="1.1" viewBox="0 0 500 500">
  <!-- Generator: Adobe Illustrator 29.2.1, SVG Export Plug-In . SVG Version: 2.1.0 Build 116)  -->
  <defs>
    <style>
      .st0 {
        fill: #fff;
      }
    </style>
  </defs>
  <path class="st0" d="M206.6,224.1c-5.5-.8-10.9,0-16,2.1s-9.3,5.9-12.2,10.5l-1.3-11.8h-18.1q-.8,0-.8.8v86.7q0,.8.8.8h21q.8,0,.8-.8v-45.5c0-3.4,0-6.7,1.3-10.1s3.4-5.9,5.5-8.4c2.5-2.1,5.9-3.8,9.3-4.6s6.7-.8,10.1-.4q.8,0,.8-.8v-18.1c0-.4,0,0-.4,0l-.8-.4Z"/>
  <path class="st0" d="M268.1,225.4c-5.5-2.1-10.9-3.4-16.8-2.9-5.9,0-11.4.8-16.8,2.9s-10.1,5.5-14.3,9.7c-7.6,9.7-11.4,21.5-11.4,33.7s4.2,24,11.4,33.7c4.2,4.2,8.8,7.6,14.3,9.7,5.5,2.1,11.4,2.9,16.8,2.9,9.3,0,18.5-2.5,26.1-8,7.2-5.5,12.2-13,13.9-21.9q0-.8-.8-.8h-22.3v.4c-.4,4.2-2.5,7.6-5.9,10.1-3.4,2.5-7.2,3.8-11.4,3.4-11.8,0-18.5-8.8-18.9-26.1h58.9c1.3-12.6-2.5-25.7-10.1-35.8-3.8-4.2-8.4-8-13.5-10.1l.8-.8ZM232.3,258.2c0-5.5,2.1-10.5,5.9-14.7,1.7-1.7,3.8-3.4,5.9-4.2s4.6-1.3,7.2-1.3h0c2.5,0,4.6.4,6.7,1.7,2.1.8,4.2,2.5,5.5,4.2,3.4,4.2,5.1,9.3,5.1,14.3h-36.6.4Z"/>
  <path class="st0" d="M348.1,222.4c-5.1,0-10.1,1.3-14.3,3.4-4.6,2.5-8.4,5.9-10.9,10.1l-1.3-10.9q0-.8-.8-.8h-18.1q-.8,0-.8.8v86.7q0,.8.8.8h20.6q.8,0,.8-.8v-48.8c0-6.3,1.3-12.2,4.6-17.3,1.3-2.1,3.4-3.8,5.9-5.1s4.6-1.7,7.2-1.7,4.2,0,6.3,1.3c2.1.8,3.8,2.5,5.1,4.2,2.9,5.5,4.2,11.8,3.4,17.7v49.7h20.6q.8,0,.8-.8v-54.3c0-23.1-10.5-34.9-31.1-34.9l1.3.8Z"/>
  <path class="st0" d="M466.3,314.2c3.4,0,6.3-.4,9.7-1.3h0v-16h-.4c-5.5,1.3-8-.8-8-6.7v-36.2c0-4.2-.4-8.4-2.1-12.6-1.7-3.8-4.2-7.6-7.6-10.5-7.6-5.9-17.3-8.8-26.9-8-9.7,0-18.9,2.5-26.5,8-3.4,2.5-6.3,5.9-8.4,9.7s-3.4,8-3.4,12.2,0,.8.8.8h20.6c.4,0,.8,0,.8-.8,0-2.1.4-3.8,1.3-5.5.8-1.7,2.1-3.4,3.4-4.6,1.3-1.3,2.9-2.1,5.1-2.9,1.7-.4,3.8-.8,5.5-.8,4.2,0,8,.8,10.9,3.4,1.3,1.3,2.1,2.9,2.9,5.1.4,1.7.8,3.8.8,5.9s-2.1,4.2-5.9,5.1c-4.6,1.3-9.3,2.1-14.3,2.9-5.5.8-10.9,2.1-16.4,3.4s-10.5,4.2-14.3,8c-3.8,4.2-5.9,10.1-5.5,16,0,17.3,10.5,25.7,32,25.7,5.5.4,10.9-.4,15.6-2.9,5.1-2.5,8.8-5.9,11.8-10.5l1.3,3.4c1.3,3.4,3.8,5.9,6.7,7.6,2.9,1.7,6.3,2.5,9.7,1.7l.8.8ZM444.4,276.3c.4,6.3-1.3,12.2-5.1,17.3-1.7,2.1-3.8,3.8-6.3,4.6-2.5,1.3-5.1,1.7-8,1.3-3.4,0-6.7-.8-9.3-2.9-1.3-1.3-2.1-2.5-2.9-4.2-.4-1.7-.8-3.4-.8-5.1s0-3.4,1.3-5.1c.8-1.3,2.1-2.5,3.8-3.4,4.6-2.1,9.3-3.4,14.3-4.2,4.2-.4,8.4-1.7,12.6-2.9v3.8l.4.8Z"/>
  <path class="st0" d="M91.3,215.3l8-22.7h-21.9s-.8,0-.8.8l-43.4,118.7q0,.8.8.8h24.8v-.4l8-24.4h47.6l8,24.4h24.4c.4,0,.8,0,.8-.8l-34.9-96.4h-22.7,1.3ZM71.5,272.1l19.4-56.4,2.9,9.3,15.6,47.6h-37.9v-.4Z"/>
  <polygon class="st0" points="6.7 168.1 40.8 168.1 40.8 161.4 0 161.4 0 338.6 40.8 338.6 40.8 331.4 6.7 331.4 6.7 168.1"/>
  <polygon class="st0" points="459.2 161.4 459.2 168.1 493.3 168.1 493.3 331.4 459.2 331.4 459.2 338.6 500 338.6 500 161.4 459.2 161.4"/>
</svg>