<?xml version="1.0" encoding="UTF-8"?>
<svg id="Layer_1" xmlns="http://www.w3.org/2000/svg" version="1.1" viewBox="0 0 150.3 40">
  <!-- Generator: Adobe Illustrator 29.0.1, SVG Export Plug-In . SVG Version: 2.1.0 Build 192)  -->
  <defs>
    <style>
      .st0 {
        fill: #fff;
        fill-rule: evenodd;
      }
    </style>
  </defs>
  <polygon class="st0" points="148.6 13.2 148.2 14.4 147.7 13.2 147.5 13.2 147.5 14.7 147.7 14.7 147.7 13.5 148.1 14.7 148.2 14.7 148.6 13.5 148.6 14.7 148.8 14.7 148.8 13.2 148.6 13.2"/>
  <polygon class="st0" points="146.1 13.4 146.6 13.4 146.6 14.7 146.8 14.7 146.8 13.4 147.2 13.4 147.2 13.2 146.1 13.2 146.1 13.4"/>
  <path class="st0" d="M144.9,24.9c0-2,.3-7.4.3-7.4,0-2.7-1.8-3.7-1.8-3.7.8,1.8.5,4.5.3,7.2s0,5.6,0,7.6c0,2-1.9,2-3.2,2s-3.2-1.1-3.2-1.1c-3.4,1.4-7,0-7,0,1.9,1.6,3.2,1.7,4.8,1.7s2.9-.8,2.9-.8v.2c.4-.2,1.2.3,1.7.6,2.3,1.1,4.6.2,5.3-.3.6-.6,0-1.3,0-1.7,0-.4-.2-2.2-.2-4.3Z"/>
  <path class="st0" d="M131.9,17.4h0c0-.1.4,0,.8-.4.4-.4,2.5-1.6,3.3-1.6s.4-.8-.9-.8-3.8,2-4.3,2.3c-.5.4-.3.5,0,.5h1Z"/>
  <path class="st0" d="M137.4,27.5c.3.4.9.7,1.6,1.1.7.4,1.7.2,2.4.2s1-.3,1-1.6c-.1-1.3,0-5.7.3-10s-3-5.2-4-5.3c-1-.1-2.5-.8-4.4-.8-1.9,0-4.7,2.3-6,3.5-1.3,1.2-.5,2-.5,2h0c.7,1.1,1.5.4,2,0,3.6-3.3,5.6-3.4,6.6-3.1,1,.3,1.7,1.8,1.7,3.4,0,1.6-1.8,1.2-1.8,1.2-4-.2-7.5,1-9.2,3.2-1.7,2.1.7,4.8,1.9,5.8s2.8,1.4,4.8,1.4,3.6-.9,3.6-.9ZM131.6,25.3s-1.7-.4-1.7-1.4,1.2-1.6,3.1-2.1c1.9-.6,5.1-1.4,4.9.5-.2,2-.7,2.7-2,2.9s-2.9.3-4.2,0h0Z"/>
  <path class="st0" d="M125,18.2c0-1.7-1.3-3.4-1.9-4.1-.6-.7-.3.2-.3.2,1.5,2.5.8,5.8.8,7.2-.1,1.5-.1,4.4-.1,5.2s.5,1.3,0,2.4c-.5,1.1-2.9.9-3.8.9s-2.4-.3-2.4-.3c0,0,.9.9,1.3,1.2.4.3.6.3,1.1.3h2.7v-.2c3.9,0,2.6-4.3,2.6-5.5v-7.3Z"/>
  <path class="st0" d="M114.8,15.2c-.7-.5-1.3.4-1.3.4-1.4,2.7-1.8,7.5-1.8,8.4s0,1.5.4,4.2c.4,2.7-2,2.5-3.3,2.5s-2.7-.2-2.7-.2v.2c.8,1,2.3,1.7,5.1,1.2,2.8-.4,2.4-3,2.4-3.3-.1-.3-.4-1.3-.4-4.5s1.2-7.2,1.4-7.6c.2-.4.9-.8.2-1.3Z"/>
  <path class="st0" d="M121.1,28.8c.9,0,1.4,0,1.2-1.5-.2-1.4.2-3,.2-8.9,0-5.9-5.1-6.1-6.9-6.1s-3,.4-3.8.8c-.8.4-1,.5-1.3-.3-.3-.8-1-.8-1.3-.8s-1.4,0-2.8,0c-1.4.2-.8,1.4-.8,1.4.4,3.3.3,12.1,0,13.8s.6,1.7.6,1.7h0c0,.2,2.1.2,3.4.2s.8-1.4.8-1.4c-.2-2.7-.1-5.3.2-8.4.3-3.1,1.5-5.6,3.8-5.6s2.7,3.7,2.7,3.7c.5,4.8,0,9-.2,9.9-.2.9,0,1.1.7,1.3.7,0,2.5,0,3.4,0Z"/>
  <path class="st0" d="M101.8,13.9c1.6,3.6,1.3,6.5,1.3,6.5,0,8.7-5.8,10.1-8.4,10.1s-6.3-.9-6.3-.9c2.3,2,7,2.1,7,2.1h0c4.7-.1,8.8-4.4,8.8-11.7s-.9-4.9-1.8-6.1c-.9-1.2-.7,0-.7,0Z"/>
  <path class="st0" d="M100.9,15.5c-1.1-3.5-3.8-4.3-8.9-4.6-5.1-.3-6.1,3.4-6.7,8.5-.6,5,.8,6.7,2.3,8,1.5,1.3,5.8,1.6,5.8,1.6,9.5.7,8.6-10,7.5-13.5ZM90,21.5c-.3-6.5,2-8.6,3.4-8.6s3.5,1.6,3.7,6.6c.2,5-1.3,8.2-3.7,8.2,0,0-3.1.3-3.4-6.2Z"/>
  <path class="st0" d="M84.5,10.3c-.8,1.1-13.4,16.5-14,17.2-.6.8-.2.8,0,.8.2,0,1.3,0,1.3,0v-.2c2.1-2.5,13.8-16.7,14.5-17.6.8-.9.7-1.3.3-2.2-.4-.9-2.9-3.3-2.9-3.3,0,0,.9,1.9,1.4,2.9.4,1,.2,1.4-.6,2.5Z"/>
  <path class="st0" d="M82.9,30.5s0,0,0,0c0,0,0,0,0-.1h0Z"/>
  <path class="st0" d="M82.9,30.5c.5,3.6-2.8,3.6-6.2,3.7-3.4.2-10.4,1.3-10.4,1.3,2,1.1,3.4,1,4.4.8s7.9-1,10-1,3.3-1.7,3.3-2.9c0-1.1-1-1.9-1.1-1.9Z"/>
  <path class="st0" d="M74.1,9.9h0c0,.1,0,0,0,0h0Z"/>
  <path class="st0" d="M69.6,11.6c.5,0,3.4-.4,3.4-.4l1-1.2c-.7,0-5.4.6-6.5.6s-.9.2-.3.5c.5.3,1.9.5,2.4.5Z"/>
  <path class="st0" d="M78.9,32.7c1.3-.1,2.4-.3,2.4-1.9.1-1.6-1.6-1.3-1.6-1.3,0,0-7.4.2-10,.3-2.6.2-1.8-1.1-.7-2.3,1.1-1.3,13.2-16.2,14.1-17.5,1-1.3.3-2.2.3-2.2,0,0-.5-1.4-1.2-2.5-.7-1.2-1.1-1.2-2.4-.9-1.3.2-12.3,1.7-14.2,1.7-1.9.1-1.9.9-1.3,2,.6,1.1,1.8.9,2.5.9.7,0,7.7-.7,9.1-.7,1.4,0,.5.6.5.6h-.1c-.8,1.3-12.8,17.7-14.6,20.1s-.1,3.6,1,4.5c1.2.9,2,.9,3.8.5s11.2-1.3,12.4-1.3Z"/>
  <path class="st0" d="M51.6,30s0,0,.1,0c0,0-.1,0-.1-.1h0Z"/>
  <path class="st0" d="M59.4,14.6c-.2-.7-1-1.7-1-1.7-1.2,7.2-.5,13.4-.4,14.9s-.4,2-1.9,2.2c-1.3.3-3.7,0-4.4,0,1.8,1.7,5,1.4,6.6,1,1.6-.4,1.1-2.4,1.1-2.4-.4-4.8-.1-11.9,0-12.5,0-.6.2-.9,0-1.5Z"/>
  <path class="st0" d="M52.5,28.7h3.2c1.6,0,1-1.6,1-1.6-.4-4,0-11.8.3-13.2.2-1.4,0-1.8-.9-2.1-1-.2-3.5-.2-4.7,0-1.2.3-.8,1.4-.8,1.4h.1c1.1,7.3.8,11.5.6,13.6-.2,2.1.7,1.9,1.2,1.9Z"/>
  <path class="st0" d="M56.1,8.3c-1.8,1.4-4.2.1-4.2.1h0c1.4,1.8,4.2,2.3,5.9.3s-.3-3.8-.3-3.8c.2.5.4,1.9-1.4,3.4Z"/>
  <path class="st0" d="M53.5,7.7c2.1,0,2.8-1.1,2.8-2.3s-.8-2.2-2.4-2.2-3,1.1-3,2.3c-.1,1.2,1.5,2.2,2.6,2.2Z"/>
  <path class="st0" d="M44.3,15.3c-1.9.1-2.3.9-3.1,4.1-.8,3.1-.6,5.8-.6,8.6s-3.4,2.2-4,2.2c-.6-.1-2-.3-1,.3s2.7.8,2.7.8h0c4,.2,3.7-1.5,3.7-4.3s.3-5.6.9-8.2c.6-2.6,2.5-2.3,3-2.3s2,.2,2.8-.9c.8-1.1-.7-2.8-.7-2.8.5,2.5-1.8,2.5-3.6,2.5Z"/>
  <path class="st0" d="M39.2,27.3c0-7.5.9-9.9,1.5-11.7.6-1.8,3.1-1.8,4-1.8s1.4,0,1.8-.5c.3-.5-.6-1.4-.6-1.4-1.9-1.1-4-.4-5.2.5-1.2.9-1.7.2-1.7-.5s-.4-.9-1-.9c-.5,0-1.9,0-3.5,0-1.6.2-1,1.3-1,1.3h0c.9,3.1.9,13,.9,14.5-.1,1.5.3,1.5.8,1.7.5.2,1.5.2,2.9.2,1.5,0,1.1-1.5,1.1-1.5Z"/>
  <path class="st0" d="M30.7,24.3c1.5-3.5-.5-3.7-.5-3.7.4,1.8-1,3.5-1,3.5,0,0,.5,1.5,1.3,3.3.7,1.7-.4,2.3-1.5,2.4-1.1.1-3.7.1-3.7.1,1.3,1.5,3.3,1.2,3.5,1.2h0c4.1.1,3.2-3.1,3-3.7-.2-.5-1.1-3.1-1.1-3.1Z"/>
  <path class="st0" d="M20.5,26.3c-.3.1-7,.4-7.4.4s-.7-.1-1,.6c-.3.7-1.4,5.3-1.9,7.4-.5,2.1-2.1,2.4-2.9,2.5-.8,0-4.4-.2-4.4-.2l2.7,1.4h2.4c2.7,0,3.4-2.6,3.6-3.5.2-.9,1.3-5.4,1.6-6.2s.9-.6.9-.6c0,0,6.3-.5,7.1-.5s.5-.3.4-.8c-.2-.5-.7-.5-1.1-.5Z"/>
  <path class="st0" d="M27.6,17.9c.3,0,.9.3.6-.6-.3-.8-3.4-10.8-3.4-10.8-.3-1.3-.9-2.1-.9-2.1l-1.5-1.4c.4,1.9,3.9,13.3,4.2,14.2.3.8.7.7,1,.7Z"/>
  <path class="st0" d="M29,27.4l-1.4-3.9c.4-.2.8-1.1,1.1-2.7.3-1.6-.7-1.2-1.7-1.1-1,.2-1-.7-1-.7-.6-1.8-4.5-13.6-4.8-14.8s-.6-1.5-1.4-1.7-4.3-.5-5.2-.5-1,.6-1,.6c0,0-.3,1-.3,1.4,0,.4-.4.7-.4.7-.4.2-.6.6-.4,1,.2.3,0,1,0,1-1.4,6.5-8.8,25.2-8.8,25.2-.4.9-1,2.4-1.5,3-.5.6-.4,1,.3,1,.7,0,2.6.3,4.6,0,2-.3,1.8-2,1.9-2.7.2-.8,1.6-5.8,1.9-7,.3-1.2,1.2-1,1.2-1,0,0,7.4-.5,9-.5,1.5-.2,1.8,1,1.8,1l-.2.2s.4,1,.9,1.9c.5.9,1.2.9,3.7.9s1.7-1.3,1.7-1.3ZM20.1,20.3h.1s-6.2.8-6.7.8-.9,0-.6-1c.3-1,3.1-8.8,3.3-9.5.2-.7,1.2-1.2,1.5,0,.3,1.2,2.4,8.1,2.7,8.7.2.6.2,1-.3,1Z"/>
  <path class="st0" d="M16.7,13.2h0c-.2.4-1.9,5.1-2.2,5.9-.4.8,0,.8,0,.8l1.2-.3,1.7-4.4s-.3-.6-.3-1.7c-.1-1.1-.5-.3-.5-.3Z"/>
  <path class="st0" d="M93.4,25.5h0c-.2-.6-.8-2.3-.7-5.8.2-3.6,1.3-4.3,1.8-4.5s.4-.4,0-.9c-.5-.4-1.2-.2-1.2-.2-1.9,1.1-1.9,5.7-1.9,7.6,0,2,.5,4.3,1.4,4.6.9.3.6-.8.6-.8Z"/>
  <path class="st0" d="M136.1,23.5c.3,0,.4,0,.5-.5,0-.5-.5-.5-.5-.5-1.7,0-3.6.8-4.1,1.1-.5.3,0,.5,0,.5.5.2.9.2,1.2.2s.5,0,.7-.3c.3,0,1.8-.5,2.2-.5Z"/>
</svg>