<?xml version="1.0" encoding="UTF-8"?>
<svg id="Layer_1" xmlns="http://www.w3.org/2000/svg" version="1.1" viewBox="0 0 530 50">
  <!-- Generator: Adobe Illustrator 29.0.1, SVG Export Plug-In . SVG Version: 2.1.0 Build 192)  -->
  <defs>
    <style>
      .st0 {
        fill: #d7d7d7;
      }

      .st1 {
        fill: #fff;
      }

      .st2 {
        fill: #afafaf;
      }
    </style>
  </defs>
  <g>
    <path class="st1" d="M22.8,44.9H4.1V5.1h17.4c8.3,0,13.9,4,13.9,10.7s-2.6,7.2-6,8.5c4.6.7,8.1,4.8,8.1,9.3,0,7.1-5.7,11.3-14.6,11.3ZM18.6,14h-2v7.4h2c3.6,0,5.5-1.3,5.5-3.9,0-2.7-2-3.5-5.5-3.5ZM20.6,28.6h-4v7.4h4c3.7,0,5.1-1.4,5.1-3.9,0-2.4-1.8-3.6-5.1-3.6Z"/>
    <path class="st1" d="M74.4,44.9l-2.1-7.3h-11.7l-2.1,7.3h-12.7L59.6,5.1h14.4l13.8,39.8h-13.4ZM66.4,18l-3,10.1h6l-3-10.1Z"/>
    <path class="st1" d="M116.2,45.6c-11,0-19.3-5.7-19.3-19V5.1h13.3v22.9c0,4.3,2.3,7,6,7s6-2.7,6-7V5.1h13.3v21.5c0,13.3-8.3,19-19.3,19Z"/>
    <path class="st1" d="M162.8,45.6c-6.5,0-12.1-2.3-15.8-5.6l5.3-8.5c3.7,3,6.9,4.3,10.4,4.3s3.3-.8,3.3-2.2-1.5-2.6-6.4-4.1c-7.3-2.2-10.9-5.3-10.9-11.9s6.8-13.3,16.4-13.3,10.3,1.9,12.9,4l-5.2,8.7c-2.7-2-5.2-3-8.2-3s-3.4,1.1-3.4,2.2.9,2,6.2,3.5c7.2,2.1,11.1,4.9,11.1,12.3,0,8-6,13.3-15.6,13.3Z"/>
    <path class="st1" d="M210.3,45.6c-12.1,0-20.8-8.5-20.8-20.4s9-20.7,21-20.7,10.6,2.7,14.1,5.7l-6.5,8.9c-2.2-2.2-4.4-3.7-7.8-3.7s-7.7,3.8-7.7,9.6,3.2,9.9,8.5,9.9,5.7-1.3,8-3.5l6.4,8.7c-3.8,3.3-8.1,5.7-15.1,5.7Z"/>
    <path class="st1" d="M261.4,44.9v-13.9h-10v13.9h-13.3V5.1h13.3v14.7h10V5.1h13.3v39.8h-13.3Z"/>
    <path class="st1" d="M349.7,44.9V5.1h12.8v29.7h13v10.1h-25.8Z"/>
    <path class="st1" d="M404.3,45.6c-12.5,0-21.4-8.6-21.4-20.5s9-20.6,21.5-20.6,21.4,8.6,21.4,20.5-9,20.6-21.5,20.6ZM404.3,15c-4.9,0-8.3,4.2-8.3,9.9s3.6,10,8.5,10,8.3-4.2,8.3-9.9-3.6-10-8.5-10Z"/>
    <path class="st1" d="M466.6,44.9v-19.4l-6.2,11.6h-6.1l-6.3-11.6v19.4h-12.5V5.1h12.9l9.1,15.9,8.4-15.9h14v39.8h-13.3Z"/>
    <path class="st1" d="M511.3,44.9h-18.7V5.1h17.4c8.4,0,13.9,4,13.9,10.7s-2.6,7.2-6,8.5c4.6.7,8.1,4.8,8.1,9.3,0,7.1-5.7,11.3-14.6,11.3ZM507,14h-2v7.4h2c3.6,0,5.5-1.3,5.5-3.9,0-2.7-2-3.5-5.5-3.5ZM509,28.6h-4v7.4h4c3.7,0,5.1-1.4,5.1-3.9s-1.8-3.6-5.1-3.6Z"/>
  </g>
  <g>
    <rect class="st1" x="305.8" y="18.5" width="12.9" height="12.9"/>
    <g>
      <rect class="st0" x="305.8" y="5.1" width="12.9" height="13.5"/>
      <rect class="st0" x="305.8" y="31.5" width="12.9" height="13.5"/>
    </g>
    <g>
      <rect class="st2" x="292.3" y="18.5" width="13.5" height="12.9"/>
      <rect class="st2" x="318.7" y="18.5" width="13.4" height="12.9"/>
    </g>
  </g>
</svg>