<?xml version="1.0" encoding="UTF-8"?>
<svg id="Layer_1" xmlns="http://www.w3.org/2000/svg" version="1.1" viewBox="0 0 500 500">
  <!-- Generator: Adobe Illustrator 29.2.1, SVG Export Plug-In . SVG Version: 2.1.0 Build 116)  -->
  <defs>
    <style>
      .st0 {
        fill: #d7d7d7;
      }

      .st1 {
        fill: #fff;
      }

      .st2 {
        fill: #afafaf;
      }
    </style>
  </defs>
  <g>
    <path class="st1" d="M18,269.1H0v-38.1h16.7c8,0,13.3,3.8,13.3,10.3s-2.5,6.9-5.7,8.1c4.4.7,7.8,4.6,7.8,8.9,0,6.8-5.5,10.8-14,10.8h0ZM13.9,239.5h-1.9v7.1h1.9c3.4,0,5.3-1.2,5.3-3.7s-1.9-3.4-5.3-3.4ZM15.9,253.5h-3.8v7.1h3.8c3.5,0,4.9-1.3,4.9-3.7s-1.7-3.4-4.9-3.4h0Z"/>
    <path class="st1" d="M67.4,269.1l-2-7h-11.2l-2,7h-12.2l13.2-38.1h13.8l13.2,38.1s-12.8,0-12.8,0ZM59.7,243.3l-2.9,9.7h5.7l-2.9-9.7Z"/>
    <path class="st1" d="M107.4,269.7c-10.5,0-18.5-5.5-18.5-18.2v-20.6h12.7v21.9c0,4.1,2.2,6.7,5.7,6.7s5.7-2.6,5.7-6.7v-21.9h12.7v20.6c0,12.7-8,18.2-18.5,18.2Z"/>
    <path class="st1" d="M152.1,269.7c-6.2,0-11.6-2.2-15.1-5.4l5.1-8.1c3.5,2.9,6.6,4.1,10,4.1s3.2-.8,3.2-2.1-1.4-2.5-6.1-3.9c-7-2.1-10.4-5.1-10.4-11.4s6.5-12.7,15.7-12.7,9.9,1.8,12.4,3.8l-5,8.3c-2.6-1.9-5-2.9-7.9-2.9s-3.3,1.1-3.3,2.1.9,1.9,5.9,3.4c6.9,2,10.6,4.7,10.6,11.8s-5.7,12.7-14.9,12.7v.3Z"/>
    <path class="st1" d="M197.6,269.7c-11.6,0-19.9-8.1-19.9-19.5s8.6-19.8,20.1-19.8,10.2,2.6,13.5,5.5l-6.2,8.5c-2.1-2.1-4.2-3.5-7.5-3.5s-7.4,3.6-7.4,9.2,3.1,9.5,8.1,9.5,5.5-1.2,7.7-3.4l6.1,8.3c-3.6,3.2-7.8,5.5-14.5,5.5v-.2Z"/>
    <path class="st1" d="M246.6,269.1v-13.3h-9.6v13.3h-12.7v-38.1h12.7v14.1h9.6v-14.1h12.7v38.1s-12.7,0-12.7,0Z"/>
    <path class="st1" d="M331.1,269.1v-38.1h12.3v28.5h12.5v9.7h-24.7Z"/>
    <path class="st1" d="M383.5,269.7c-12,0-20.5-8.2-20.5-19.6s8.6-19.7,20.6-19.7,20.5,8.2,20.5,19.6-8.6,19.7-20.6,19.7ZM383.5,240.4c-4.7,0-8,4-8,9.5s3.4,9.6,8.1,9.6,8-4,8-9.5-3.4-9.6-8.1-9.6Z"/>
    <path class="st1" d="M443.1,269.1v-18.6l-5.9,11.1h-5.8l-6-11.1v18.6h-12v-38.1h12.4l8.7,15.2,8-15.2h13.4v38.1h-12.7Z"/>
    <path class="st1" d="M486,269.1h-17.9v-38.1h16.7c8,0,13.3,3.8,13.3,10.3s-2.5,6.9-5.7,8.1c4.4.7,7.8,4.6,7.8,8.9,0,6.8-5.5,10.8-14,10.8h0ZM481.8,239.5h-1.9v7.1h1.9c3.4,0,5.3-1.2,5.3-3.7s-1.9-3.4-5.3-3.4ZM483.8,253.5h-3.8v7.1h3.8c3.5,0,4.9-1.3,4.9-3.7s-1.7-3.4-4.9-3.4h0Z"/>
  </g>
  <g>
    <rect class="st1" x="289.1" y="243.8" width="12.4" height="12.4"/>
    <g>
      <rect class="st0" x="289.1" y="230.9" width="12.4" height="12.9"/>
      <rect class="st0" x="289.1" y="256.2" width="12.4" height="12.9"/>
    </g>
    <g>
      <rect class="st2" x="276.2" y="243.8" width="12.9" height="12.4"/>
      <rect class="st2" x="301.4" y="243.8" width="12.8" height="12.4"/>
    </g>
  </g>
</svg>