<?xml version="1.0" encoding="UTF-8"?>
<svg id="Layer_1" xmlns="http://www.w3.org/2000/svg" version="1.1" viewBox="0 0 48 16">
  <!-- Generator: Adobe Illustrator 29.0.1, SVG Export Plug-In . SVG Version: 2.1.0 Build 192)  -->
  <defs>
    <style>
      .st0 {
        fill-rule: evenodd;
      }

      .st0, .st1 {
        fill: #fff;
      }
    </style>
  </defs>
  <path class="st0" d="M37.1,1.8c-.1,0-.3,0-.4.2-.1.1-.2.2-.2.4l-1.2,7.8c0,0,0,.1,0,.2,0,0,0,.1,0,.1,0,0,0,0,.1,0,0,0,.1,0,.2,0l2.4-.4c0,0,.1,0,.2,0,0,0,.1,0,.1,0,0,0,0,0,0,.2,0,0,0,.1,0,.2l-1.3,4.2c0,0,0,.2,0,.2,0,0,0,.1.1.2,0,0,.1,0,.2,0,0,0,.1,0,.2,0l9.2-8.8c0,0,0-.1.1-.2,0,0,0-.2,0-.2,0,0,0-.1-.2-.2,0,0-.1,0-.2,0l-2.3.4c0,0-.1,0-.2,0,0,0-.1,0-.2-.1,0,0,0-.1,0-.2,0,0,0-.1,0-.2l2.5-5c0,0,0-.1,0-.2,0,0,0-.1,0-.2,0,0,0,0-.2-.1,0,0-.1,0-.2,0l-9.2,1.6ZM41.1,6.6c.4.2.7.3.6-.3,0-.2-.1-.4-.2-.6-.1-.2-.3-.4-.5-.5-.2-.1-.4-.2-.6-.3-.2,0-.5,0-.7,0-.5,0-.9.3-1.1.7-.3.4-.4.9-.3,1.3,0,.5.3.3.6,0,.3-.2.6-.5,1-.6.4,0,.8,0,1.2.2Z"/>
  <path class="st0" d="M4.2,14.1c.4,0,.7.1,1.1.1.6,0,1.1-.1,1.7-.3.5-.2,1-.6,1.4-1,.4-.4.7-1,1-1.5.2-.6.4-1.3.4-1.9,0-.7-.1-1.3-.4-1.9-.2-.6-.5-1.1-1-1.5-.4-.4-.9-.8-1.4-1-.5-.2-1.1-.4-1.7-.4-.4,0-.7,0-1,.2-.3,0-.5.2-.7.3-.2.1-.4.3-.6.4V1.3H.6v12.7h1.7l.4-.8c.2.2.5.4.7.5.3.2.5.3.8.4ZM3.4,11.3c-.4-.5-.7-1.1-.7-1.9,0-.8.2-1.4.7-1.9.2-.2.5-.4.8-.5.3-.1.6-.2.9-.2.3,0,.6,0,.9.2.3.1.5.3.8.5.4.5.7,1.1.7,1.9s-.2,1.4-.7,1.9c-.2.2-.5.4-.8.5-.3.1-.6.2-.9.2-.3,0-.6,0-.9-.2-.3-.1-.5-.3-.8-.5Z"/>
  <path class="st1" d="M23.4,2.6h-2v1.2c0,.7-.4,1.1-1.1,1.1h-.6v1.9h1.4v4.1c0,.5,0,.9.2,1.4.1.4.4.7.6,1.1.3.3.6.5,1,.7.4.2.8.2,1.3.2.3,0,.5,0,.8-.1.1,0,.2,0,.3-.1v-2c0,0-.1,0-.2,0,0,0-.1,0-.2,0h-.3c-.2,0-.4,0-.5,0-.2,0-.3-.2-.4-.3-.2-.3-.4-.6-.3-1v-4h2v-2.1h-2v-2.1Z"/>
  <path class="st1" d="M30.9,4.6c0,0-.2,0-.3,0-.3,0-.7,0-1,.2-.2,0-.5.2-.7.4-.2.2-.4.3-.6.6l-.4-1h-1.7v9.4h2.3v-5c0-.6.2-1.1.5-1.5.2-.2.4-.3.6-.4.2,0,.5-.1.8-.1.1,0,.2,0,.3,0,.1,0,.2,0,.3,0,0,0,.2,0,.2,0v-2.5h-.2c0,0-.1,0-.2,0Z"/>
  <path class="st0" d="M19.1,11.3c-.1.4-.3.7-.6,1.1-.3.4-.6.7-.9,1-.4.3-.8.5-1.2.7-.5.2-1,.3-1.5.3-.6,0-1.2-.1-1.8-.4-.6-.3-1.1-.6-1.5-1-.4-.4-.8-.9-1-1.5-.2-.6-.4-1.2-.4-1.9,0-.6.1-1.3.4-1.8.2-.6.6-1.1,1-1.5.4-.4.9-.8,1.5-1,.6-.2,1.2-.4,1.8-.4.6,0,1.2.1,1.8.3.5.2,1,.6,1.4,1,.4.4.7,1,1,1.5.2.6.4,1.3.4,1.9,0,.1,0,.2,0,.3v.3c0,.1,0,.2,0,.3h-6.5c.1.4.3.9.7,1.2.4.3.8.5,1.4.5.3,0,.5,0,.8-.1.2,0,.4-.1.5-.2.2-.1.3-.2.4-.4h2.4ZM15,7c-.5,0-1.1.2-1.5.5-.4.3-.6.8-.7,1.3h4.5c-.1-.5-.4-1-.7-1.3-.4-.4-.9-.6-1.5-.5Z"/>
</svg>