<svg width="54" height="23" viewBox="0 0 54 23" fill="none" xmlns="http://www.w3.org/2000/svg">
<path d="M11.3055 0.180023C11.0361 0.180023 10.7636 0.187455 10.4941 0.206814C8.58319 0.337956 6.73826 0.958934 5.13697 2.00994C3.53568 3.06095 2.232 4.50658 1.35149 6.2076C0.470983 7.90861 0.0433104 9.80769 0.109663 11.7219C0.176015 13.6362 0.734158 15.5011 1.73034 17.137C2.72651 18.773 4.12716 20.1249 5.79738 21.0625C7.46759 22.0001 9.3511 22.4919 11.2665 22.4904C13.1819 22.4889 15.0646 21.9942 16.7334 21.054C18.4022 20.1138 19.8007 18.7598 20.7943 17.1223H30.2504L32.2276 21.9538H36.3757L38.353 17.1223H47.7584L49.7684 21.9538H53.714L44.8014 0.513521H41.2072L34.3061 17.4037L27.3961 0.509073H23.8049L18.1218 14.067C16.2532 18.5233 11.1686 19.9497 7.51331 17.8399C6.65876 17.3471 5.90965 16.6908 5.30875 15.9085C4.70785 15.1261 4.26692 14.2331 4.01115 13.2804C3.49458 11.3562 3.76353 9.30571 4.75883 7.57988C5.75413 5.85405 7.39425 4.59428 9.31838 4.07772C11.2425 3.56115 13.293 3.83011 15.0189 4.82541C15.2525 4.96212 15.4786 5.11122 15.6963 5.27208L17.2641 1.92056C17.1272 1.83271 16.9827 1.75379 16.8413 1.6719C15.1595 0.696067 13.2499 0.181437 11.3055 0.180023ZM25.5871 5.72173L28.757 13.4759H22.3636L25.5871 5.72173ZM43.0177 5.72173L46.2412 13.4759H39.8479L43.0177 5.72173Z" fill="#BC1F2F"/>
</svg>
