<?xml version="1.0" encoding="UTF-8"?>
<svg id="svg8" xmlns="http://www.w3.org/2000/svg" xmlns:xlink="http://www.w3.org/1999/xlink" xmlns:svg="http://www.w3.org/2000/svg" xmlns:sodipodi="http://sodipodi.sourceforge.net/DTD/sodipodi-0.dtd" xmlns:rdf="http://www.w3.org/1999/02/22-rdf-syntax-ns#" xmlns:inkscape="http://www.inkscape.org/namespaces/inkscape" xmlns:dc="http://purl.org/dc/elements/1.1/" xmlns:cc="http://creativecommons.org/ns#" version="1.1" viewBox="0 0 318.7 175.5">
  <!-- Generator: Adobe Illustrator 29.0.1, SVG Export Plug-In . SVG Version: 2.1.0 Build 192)  -->
  <defs>
    <style>
      .st0 {
        fill: url(#linear-gradient);
      }

      .st1 {
        fill: #fff;
      }
    </style>
    <linearGradient id="linear-gradient" x1="-1207.2" y1="205.2" x2="-1193.6" y2="197.4" gradientTransform="translate(5452.8 -905.4) scale(4.4 4.7)" gradientUnits="userSpaceOnUse">
      <stop offset="0" stop-color="#976b29"/>
      <stop offset=".3" stop-color="#efb21e"/>
      <stop offset=".4" stop-color="#6e3918"/>
      <stop offset=".6" stop-color="#ffc808"/>
      <stop offset="1" stop-color="#643212"/>
    </linearGradient>
  </defs>
  <sodipodi:namedview id="base" bordercolor="#666666" borderopacity="1.0" fit-margin-bottom="0" fit-margin-left="0" fit-margin-right="0" fit-margin-top="0" inkscape:current-layer="layer1" inkscape:cx="114.563" inkscape:cy="170.55973" inkscape:document-units="mm" inkscape:pagecheckerboard="true" inkscape:pageopacity="0.0" inkscape:pageshadow="2" inkscape:window-height="1017" inkscape:window-maximized="1" inkscape:window-width="1920" inkscape:window-x="1912" inkscape:window-y="70" inkscape:zoom="1.6821407" pagecolor="#ffffff" showgrid="false"/>
  <g id="layer1" inkscape:groupmode="layer" inkscape:label="Layer 1">
    <g id="g930">
      <path id="path912" class="st1" d="M129.7,138.3l-1.2-.3-3.9,8.3h-15.6v-33.4h15.6l3.9,8.3,1.2-.3v-9.9h-31.5v1.8h4.8v33.4h-4.8v1.8h31.5v-9.9.2ZM119.4,137.7l1.1-.3v-14.6l-1.1-.3-3.8,7.6,3.8,7.6ZM68.2,111l-.4.2h0l.4-.2-.3-.8-1,.9-2.6,1.8-13.5,33.6h-4.8v1.8h11.5v-1.8h-4.7l4.6-11.4h13.5l4.3,11.4h-4.5v1.8h15.6v-1.8h-4.6l-13.4-35.4h0ZM58.1,133.1l6.2-15.4,5.9,15.4h-12.1ZM207.2,148.2h15.6v-1.8h-4.6l-13.4-35.4-.4.2h0l.4-.2-.3-.8-1,.9-2.6,1.8-13.5,33.6h-4.8v1.8h11.5v-1.8h-4.7l4.6-11.4h13.5l4.3,11.4h-4.5v1.8h-.1ZM194.6,133.1l6.2-15.4,5.9,15.4h-12.1,0ZM255.1,131.4l-2.6-.7c2.3-.5,4.6-1.3,6.7-2.5,3.4-2,5.3-4.6,5.3-7.4,0-6.7-6.7-10.4-13-10.4h-17.9v1.8h4.8v34h-4.8v1.8h15.6v-1.8h-4.8v-15.1h3.9l12.5,17h8.8v-1.8h-3.2l-11.3-15h0ZM244.4,112.3h4.8c7.9.3,8.8,6.6,8.8,9.4,0,6.5-6.4,7.6-13.6,7.6v-16.9h0ZM167.6,129.1s-4.3-2.4-5.7-3.2l-1.8-.9c-1.8-.9-3.5-1.9-5.2-3-1.2-.8-1.9-2.1-1.9-3.5-.1-1.4.3-2.7,1.2-3.7,1.4-1.7,4.6-2.2,6.3-2.2,3.2,0,6.1,1.5,7.9,4.1l2.3,5.8h1.4v-9.2c-.9-.8-1.8-1.3-2.9-1.7-3.2-1.1-6.5-1.5-9.8-1-2.9.5-5.6,1.6-8,3.3-2,1.4-3.3,3.7-3.5,6.1-.1,1.4.2,2.8.8,4.1.7,1.3,1.7,2.5,3.1,3.2,1.4.9,3.5,2,6.7,3.7l.9.5c2.1,1.1,3.4,1.8,4.5,2.5,1.1.6,2,1.4,2.8,2.3.8.9,1.3,2.1,1.4,3.3.2,1.7-.4,3.5-1.7,4.6-1.3,1.3-3.7,2.1-6.2,2.1-3.5-.1-6.8-1.7-9.2-4.3l-2.2-5.8h-1.5v9.1l.2.2c.8.7,1.7,1.2,2.6,1.6,2.3,1.1,4.9,1.7,7.5,1.8,1,0,1.9,0,2.8-.3,3.1-.6,6.1-1.9,8.6-3.8,2.6-1.9,4.1-4.9,4-8.1,0-.2,0-5-5.7-7.7h.3ZM307.6,136.8c0-.2,0-5-5.6-7.7,0,0-4.3-2.4-5.7-3.2l-1.8-.9c-1.8-.9-3.5-1.9-5.2-3-1.2-.8-1.9-2.1-1.9-3.5-.1-1.4.3-2.7,1.2-3.7,1.4-1.7,4.6-2.2,6.3-2.2,3.2,0,6.1,1.5,7.9,4.1l2.3,5.8h1.4v-9.2c-.9-.8-1.8-1.3-2.8-1.7-3.2-1.1-6.5-1.5-9.9-1-2.9.5-5.6,1.6-8,3.3-2,1.4-3.3,3.7-3.5,6.1-.1,1.4.2,2.8.8,4.1.7,1.3,1.7,2.5,3.1,3.2,1.4.9,3.5,2,6.6,3.7l1,.5c2,1.1,3.4,1.8,4.5,2.5,1.1.6,2,1.4,2.8,2.3.8.9,1.3,2.1,1.4,3.3.2,1.7-.4,3.5-1.7,4.6-1.3,1.3-3.7,2.1-6.2,2.1-3.5-.1-6.8-1.7-9.2-4.3l-2.2-5.8h-1.5v9.1l.2.2c.8.7,1.7,1.2,2.6,1.6,2.3,1.1,4.9,1.7,7.5,1.8,1,0,1.9,0,2.8-.3,3.1-.6,6.1-1.9,8.6-3.8,2.6-1.9,4-4.9,3.9-8.1h.3ZM34.4,145.3v-9.1l-1.2-.3-4.3,8.6c-2.2,1.6-4.8,2.4-7.5,2.4-10.2,0-14.8-8.7-14.8-17.4s5.4-17.4,14.8-17.4,5.7,1,8,2.8l3.9,7.7,1.1-.3v-9l-.4-.2c-3.6-1.9-7.7-2.9-11.8-2.9-12.9.1-22.2,8.2-22.2,19.4s7.9,19.3,22.2,19.3,8.3-1.3,11.8-3.5l.3-.2h.1ZM4,170h6.6v-1.9h-6.6v-3.5h7.4v-1.9H1.9v12.8h9.6v-1.9h-7.5v-3.6h0ZM35.2,171.7l-7.2-9.1h-1.8v12.8h2v-9.3l7.4,9.3h1.6v-12.8h-2v9.1ZM51.8,164.6h4.1v10.9h2.1v-10.9h4.1v-2h-10.3s0,2,0,2ZM78.7,170h6.6v-1.9h-6.6v-3.5h7.4v-1.9h-9.5v12.8h9.6v-1.9h-7.5v-3.6h0ZM111.3,166.6c0-1-.4-1.9-1-2.6-1-.9-2.3-1.4-3.7-1.3h-5.6v12.8h2.1v-4.7h3l3.5,4.7h1.9l.3-.6-3.4-4.5c1.8-.4,3.1-2,3-3.8h-.1ZM109.3,166.7c0,1.3-1.1,2.2-2.8,2.2h-3.4v-4.2h3.4c1.7,0,2.7.8,2.7,2.1h.1ZM125.3,164.6h4.1v10.9h2.1v-10.9h4.1v-2h-10.3v2h0ZM153.2,162.6l-5.9,12.9h2.2l1.4-3.2h6.2l1.4,3.2h2.2l-5.9-12.9h-1.7.1ZM156.3,170.3h-4.5l2.2-5,2.2,5h.1ZM173.7,162.7h2.1v12.8h-2.1v-12.8ZM199.2,171.7l-7.2-9.1h-1.8v12.8h2v-9.3l7.4,9.3h1.6v-12.8h-2v9.1ZM223.8,169l-4.2-6.4h-1.9v12.8h2v-9.1l3.9,5.7h.4l3.9-5.7v9.1h2.1v-12.8h-1.9l-4.2,6.4h-.1ZM247.8,170h6.7v-1.9h-6.7v-3.5h7.4v-1.9h-9.5v12.8h9.6v-1.9h-7.5v-3.6h0ZM279,171.7l-7.2-9.1h-1.8v12.8h2v-9.3l7.4,9.3h1.6v-12.8h-2v9.1ZM295.6,164.6h4.1v10.9h2.1v-10.9h4.1v-2h-10.3v2h0ZM315.7,169.4c.5,0,1.1.1,1.5.4.5.3.9.7,1.1,1.1.5.9.5,2.1,0,3.1-.3.5-.7.9-1.1,1.1-.9.5-2.1.5-3.1,0-.5-.3-.9-.7-1.1-1.1-.3-.5-.4-1-.4-1.5s.1-1.1.4-1.5c.3-.5.7-.9,1.1-1.1.5-.3,1-.4,1.5-.4h.1ZM315.7,170c-.4,0-.8.1-1.2.3-.4.2-.7.5-.9.9-.4.8-.4,1.7,0,2.5.2.4.5.7.9.9.8.4,1.7.4,2.5,0s.7-.5.9-.9c.2-.4.3-.8.3-1.2s-.1-.9-.3-1.2c-.2-.4-.5-.7-.9-.9s-.8-.3-1.2-.3h0ZM314.3,174v-3.2h1.7c.2,0,.4,0,.5.1.1,0,.2.2.3.3,0,.1.1.3.1.5s0,.4-.2.6c-.2.2-.4.3-.6.3,0,0,.2,0,.2.1l.2.2.2.4.4.6h-.8l-.3-.5c-.1-.3-.3-.5-.5-.7-.1,0-.3-.1-.4-.1h-.2v1.3h-.7,0ZM315,172.2h1s.2,0,.2-.2v-.4s-.1-.1-.2-.2h-1v.9h0Z" inkscape:connector-curvature="0"/>
      <path id="rings-181" class="st0" d="M157.1,0h1.3c1.3.1,2.6.3,3.8.6h0l2.3.6c2.3.6,4.6,1.2,6.8,2h0l1.1.4c2.5,1.1,4.7,2.8,6.8,4.6h0l1.6,1.4c1.7,1.4,3.3,2.8,4.9,4.3h0l1.2,1.2c1.1,1.2,2.2,2.5,3.2,3.8h0l1.7,2.1c1.1,1.4,2.2,2.8,3.2,4.3h0l.8,1.2c1.8,2.7,3.3,5.6,4.1,8.8h0l.5,1.7c.7,2.3,1.4,4.5,1.8,6.8h0l.2,1.4c.6,3.6.9,7.3.1,11h0l-.3,1.6c-.4,2.1-.6,4.3-1.2,6.3h0l-.5,1.6c-.9,2.6-2.1,5.2-3.6,7.6h0l-.8,1.3c-1.3,2.1-2.8,4.1-4.6,5.8h0l-1.2,1.1c-2.8,2.5-5.9,4.5-9.5,5.9h0l-1.6.7c-2.2.9-4.4,1.8-6.6,2.3h0l-1.5.4c-4.5,1-9,1.4-13.6.7h0l-1.9-.3c-5.7-1.2-11-3.3-16.1-6.2h0l-1.5-.9c-3.4-2.1-6.3-4.8-8.9-7.8h0l-.9-.9c-1.2-1.1-2.6-2.1-3.9-3.2h0l-.8-.8c-1.9-1.9-3.3-4.1-4.1-6.7h0l-.8-2.8c-.5-1.8-1-3.7-1.5-5.6h0l-.2-1c0-1-.2-2.1-.3-3.1h0v-1.2c.3-2.7,1.1-5.2,2.2-7.7h0l1-2.3c.3-.8.6-1.5.9-2.3l1.6-4.7.7-2.1c1-2.9,1.8-5.7,3-8.5h0l.6-1.2c1.2-2.5,2.8-4.8,4.7-6.8h0l1.5-1.7c1.5-1.7,3-3.4,4.6-4.9h0l1.2-1.1c3.2-2.8,6.8-4.9,10.7-6.3h0l1.3-.4c2.1-.7,4.2-1,6.4-1h.1ZM157.8,3.3c-6-.8-11.3,1-16.2,4.5h0l-1.3,1c-2.5,2-4.7,4.3-6.8,6.7h0l-1,1.2c-3.6,4.5-6,9.8-7.8,15.3h0l-1,3.1c-.7,2.1-1.3,4.2-2,6.3h0l-.9,2.7c-.6,1.8-1.1,3.6-1.3,5.5-.3,3.5.5,6.8,2.5,9.8h0v-5.4h0v-1.4c-.2-2.8,0-5.5.8-8.2h0l.3-1.3c.4-1.3.8-2.5,1.3-3.7h0l.9-2.1c1-2.1,2-4.2,3.1-6.2h0l.8-1.4c1.8-2.8,3.9-5.3,6.2-7.7h0l.9-.9c2-2,4.1-3.9,6.8-5h0l1.7-.7c1.7-.6,3.5-1.1,5.2-1.6h0l1.3-.3c5.4-1.1,10.7-.6,15.9,1.2h0l4.9,1.7h0l4.9,1.7,1.5.5c1,.3,2,.7,3,1.1h0l1.2.6c2.7,1.4,4.9,3.4,7.1,5.5h0l.5.5c.6.7,1.2,1.6,1.5,2.4h0l.9,2.6c.6,1.8,1.1,3.5,1.6,5.3h0l.4,1.3c.8,3.1.8,6.2.4,9.3h0l-.2,1.7c-.7,4-2,7.9-3.9,11.5h0l-.8,1.4c-3.1,5.6-7.4,10.1-12.7,13.8h0l-1.5,1c-4.1,2.6-8.5,4.5-13.2,5.6h0l-1.7.3c-4.4.8-8.9.8-13.4.2h0l-1.7-.2h0l-1.7-.2v.2h0v.2l.9.3c.6.2,1.3.4,1.9.5h0l5,.9h0l5,.8,1.6.2c4.2.5,8.3,0,12.3-1.1h0l1.6-.4c3.3-.9,6.4-2.1,9.4-3.8h0l1.2-.7c3.1-1.9,5.8-4.2,7.9-7.2h0l.8-1.3c2.2-3.5,3.5-7.3,4.4-11.3h0l.3-1.5c.6-3.5.6-7.1.3-10.6h0l-.3-2.1c-.3-2.1-.6-4.1-.7-6.2h0v-1.3c-.4-3.8-1.5-7.4-3.7-10.5h0l-.8-1.2c-3.1-4.5-6-9.2-10.5-12.4h0l-2.5-1.7c-2.5-1.7-5-3.4-7.6-4.9h0l-1.2-.7c-3.3-1.6-7-2.3-10.6-3.1h0l-1.2-.2h0ZM158.9,16.6c-1.9-.2-3.9-.1-5.8,0h-1.7c-1.7.2-3.3.5-4.9.8h0l-1,.2c-2.3.6-4.4,1.7-6.2,3.3h0l-1.4,1.3c-4.1,3.9-7.6,8.4-10.1,13.6h0l-.7,1.4c-2.1,4.8-3.4,9.7-3.4,14.9h0v1.6c0,3.6.7,7.1,2,10.4h0l.3.7c.7,1.5,1.7,2.8,3.3,3.5h0l.8.5c.5.3,1,.7,1.5,1.1h0l1.4.9c1.8,1.2,3.7,2.4,5.6,3.2,3.8,1.6,7.8,2.8,12,2.8h2c2.6,0,5.2-.2,7.7-.5h0l1.2-.2c1.6-.4,3.2-1.1,4.8-1.6h0l1.5-.5c3.9-1.5,7.4-3.5,10.5-6.3h0l1.1-1c6-5.9,10-13,10.8-21.6h0v-.9c.4-3.3.5-6.6-1.3-9.7h0l-.8-1.3c-.6-.9-1.2-1.7-1.9-2.5h0l-.8-.9c-2.1-2.3-4.7-4.1-7.6-5.4h0l-4.2-1.9c-2.8-1.3-5.5-2.6-8.3-3.8h0l-1-.4c-1.3-.6-2.7-1.1-4.1-1.3h0l-1.4-.2v-.2ZM152.6,24.9l.2.3c.3.6.8,1.1,1.4,1.3h0c.1-.3.2-.5.4-.3h0l.5.2c1.3.4,2.5-.4,3.7-.5h.5c1,0,2.3.2,2.7.4h0c.5.1,3.7,1,4.7,2.2h0c.4.3,2.9,1.9,4.3,3.7h0l.4.6c.9,1.6.4,2.4,1.1,3.5h0l.7,1.1v.6c.3,1.8,0,3.7-1.4,4.7h0l.8-.5v.6c0,.8,0,1.8-.3,2.5h.3c.2,0,.3,0,.5,0h0l-.2.3c-.4.9.2,2.1-.9,2.6h-.2c-.2,0-.5,0-.6-.2h0l-.2-.5c-.5-1.4.9-2.9-.2-4.2h0v.2c-.3.3-.3.6-.4.8h0v.2c-.2.2-.3.3-.4.4h0s-.1,0-.1,0h0l.2-.6c.3-1.5,0-2.9-.9-4.1h0v-.2c-.1-.3,0-.5-.3-.7h0l-.3.4c-.5.7-.5,1.5-.6,2.3h-.2v-.5c-.2-1-.6-2-1.4-2.8h0l-.3-.3c-.7-.5-1.5-1.1-1.5-2h0v-.8h-.2c-.2.3-.4.6-.5.8h0v.4c-.3.5-.2,1.1,0,1.6h0l-.3-.3c-.6-.7-.8-1.7-.8-2.7h0l-.2-.6c-.3-.8-.7-1.5-1.5-2h-.2c-.1.3,0,.7-.2.9h0v.5c-.2.8,0,1.6.4,2.2h0c0,0-.3-.3-.3-.3-.5-.8-.6-1.7-.5-2.6h0l-.3-.4c-.2-.2-.5-.4-.8-.6h0v-.5c-.1-1.4-1.3-2.4-2.4-3.3h0l-.3-.4c-.2-.3-.4-.6-.5-.9h-.2c0,.2-.2.3-.2.4h0v.2c-.2.2-.2.5-.3.6h0l-.2-.5c-.5-.8-1.6-1.1-2.1-2h-.1c-.1.1-.1.3-.2.4h0v.5c-.2.8.2,1.6.6,2.2h-.2c0-.2-.1-.3-.3-.3h0v.4c0,.8.5,1.4,1.1,1.8h0l.4.2c1,.5,2.1.7,2.5,1.8h0l-.3-.3c-.6-.5-1.3-.9-2.1-.9h0l.3.5c.3.6.4,1.4.9,1.9h0l.5.3c1,.6,2.3.7,3.5.7h0v.2h-.1c0,0-.4.2-.4.2h-1.3l.3.4c.9,1.1,2.1,1.7,3.6,1.4h.2c.2,0,.5,0,.7,0h0c0,.2-.2.3-.3.3h-.4c-.9,0-1.7.2-2.3.9h0v.2h.5c1,0,1.8.5,2.6,1.1h0l.5.2c1.1.4,2.5-.2,3.4.8h-.4c-.6-.3-1.4-.3-2,0h0v.2h0l.2.3c.5.8,1,1.8,2.1,2h.5c1.2,0,2.5.3,3,1.6h-.2c-.1,0-.2-.3-.4-.4h0l-.3-.3c-.5-.3-1-.4-1.6-.3h0c0,0,.4.3.4.3.7.4,1.2,1.2,1.2,2h0v.4c.2.9.8,1.7,1.6,2h.3c.4.2.8.3,1.1,0h0c0-.2-.2-.3-.2-.4h.3c.6.2,1.2,0,1.6-.4h0v.3c-.3.4-.7.7-1.1.8h0v.4c0,.7-.1,1.3-.7,1.8h0l-.4.2h0c0,0-.2,0-.2,0h-.1l-.2.2c-.5.3-1.4,0-1.4.9h.1c0,0,.2.2.3,0h0l-.2.3c-.3.4-.7.4-1,.8h-.1c-.2.3-.3.6-.4,1.1h0v.7c-.2,2.8,2.4,3.9,2.8,6.7h0v.2c0,.2-.3.4-.5.5h-3.7c-3.3.4-6.2,1.3-9,3.1h0l-.8.5c-1.4.7-2.9,1-4.6,1.2h-.2c-.1,0-.2-.2-.3-.3h0v-.6c.4-1.1.8-2.1.5-3.4h0l-.2-.7c-.3-1.2-.3-1.7-.4-3.3h0v-.4c-.3-.7-1-1.4-1.7-1.7h0l-.7-.2c-1-.3-2-.3-3.1-.4h-.3c-.4-.3-.7-.5-.9-.9h0v-.6c-.2-.8,0-1.6.2-2.3h0v-.2c-.2-.2-.5-.4-.5-.7h0v-.3c.1-.4.7-.7.4-1.1h0l-.8-.8v-.3c.2-.4.4-.7.2-1.1h0l-.2-.2c-.4-.2-.8-.2-1.2,0h-.4c-.4,0-.7,0-1-.2h0v-.3c-.1-.5.2-1,.4-1.4h0l.5-.5c.9-1.2.8-2.8,1.7-3.9h0l.3-.4c.6-.9.9-1.9.8-3h0l.2-.6c.3-.8,1-1.4,1-2.3h0v-.7c.3-1.2.9-2.3,1.5-3.3h0v-.4c0-.6,0-1.1.5-1.5h0l.8-.6v.2c-.2.4-.3.8,0,1.1h.3v-.4c.4-.7.8-1.6,1-1.8h0v.2c0,.3,0,.6.3.8h0l.2.2c.2.1.5.2.7.1h0v-.2c0-.2-.3-.3-.3-.5h0v-.3c-.2-.4-.1-.9.2-1.3h0c0-.1.2-.1.2,0h0s.2,0,.2-.1h0v-.5c.1-.7.4-1.2.9-1.7h-.8Z" inkscape:connector-curvature="0"/>
    </g>
  </g>
</svg>