<?xml version="1.0" encoding="UTF-8"?>
<svg id="Layer_1" xmlns="http://www.w3.org/2000/svg" xmlns:xlink="http://www.w3.org/1999/xlink" version="1.1" viewBox="0 0 1558 536">
  <!-- Generator: Adobe Illustrator 29.0.1, SVG Export Plug-In . SVG Version: 2.1.0 Build 192)  -->
  <defs>
    <style>
      .st0, .st1 {
        fill: #fff;
      }

      .st0, .st2 {
        fill-rule: evenodd;
      }

      .st3 {
        fill: url(#linear-gradient1);
      }

      .st4 {
        fill: url(#linear-gradient3);
      }

      .st5 {
        fill: url(#linear-gradient);
      }

      .st6 {
        fill: #f6780d;
      }

      .st2 {
        fill: url(#linear-gradient2);
      }
    </style>
    <linearGradient id="linear-gradient" x1="95.2" y1="196.2" x2="543.6" y2="196.2" gradientTransform="translate(0 538) scale(1 -1)" gradientUnits="userSpaceOnUse">
      <stop offset="0" stop-color="#c7c9cb"/>
      <stop offset=".2" stop-color="#b4b5b7"/>
      <stop offset=".4" stop-color="#a1a2a3"/>
      <stop offset=".6" stop-color="#cecfd0"/>
      <stop offset=".7" stop-color="#e0e1e3"/>
    </linearGradient>
    <linearGradient id="linear-gradient1" x1="196.4" y1="413" x2="434.2" y2="-50.9" gradientTransform="translate(0 538) scale(1 -1)" gradientUnits="userSpaceOnUse">
      <stop offset="0" stop-color="#464749"/>
      <stop offset=".2" stop-color="#373738" stop-opacity=".7"/>
      <stop offset=".5" stop-color="#272626" stop-opacity=".3"/>
      <stop offset=".8" stop-color="#1d1b1b" stop-opacity="0"/>
      <stop offset="1" stop-color="#1a1818" stop-opacity="0"/>
    </linearGradient>
    <linearGradient id="linear-gradient2" x1="9.8" y1="475.1" x2="135.5" y2="475.1" gradientTransform="translate(0 538) scale(1 -1)" gradientUnits="userSpaceOnUse">
      <stop offset="0" stop-color="#c7c9cb"/>
      <stop offset=".3" stop-color="#a1a3a5"/>
      <stop offset=".5" stop-color="#8e9091"/>
      <stop offset=".8" stop-color="#b0b2b3"/>
      <stop offset="1" stop-color="#c2c4c6"/>
    </linearGradient>
    <linearGradient id="linear-gradient3" x1="98.5" y1="395.9" x2="568.8" y2="395.9" gradientTransform="translate(0 538) scale(1 -1)" gradientUnits="userSpaceOnUse">
      <stop offset=".1" stop-color="#ffc861"/>
      <stop offset=".3" stop-color="#fcb44c"/>
      <stop offset=".5" stop-color="#f78218"/>
      <stop offset=".6" stop-color="#f6780d"/>
    </linearGradient>
  </defs>
  <g id="Layer_2">
    <g id="Celsius_Logo">
      <path id="Light_Grey" class="st5" d="M398.9,391.9c-3.7,1.7-7.6,3.1-11.5,4.3-3.9,1.3-7.8,2.3-11.9,3.2-4,.9-8,1.5-12.1,1.9-4.1.5-8.2.7-12.3.7-15.7-.1-31.3-3.2-45.9-9.2-14.6-6.1-27.8-15-38.9-26.1-11.2-11.2-20-24.5-26-39-6-14.6-9.1-30.2-9.1-46,.1-10.8,1.6-21.6,4.4-32,2.9-10.5,7.1-20.5,12.6-29.8s12.2-17.8,20-25.4c7.7-7.6,16.4-14.1,25.8-19.4,43.2-22.5,78.4-22.7,121.7-26.7-11.9.3-39.1.9-67.7.7-4,0-8,0-11.9,0-4,0-8,.2-11.9.3-4,.1-8,.4-11.9.7-3.9.3-7.9.6-11.9,1-126.1,12.2-198.7,106-202.4,116v8.1c0,139.7,113.6,260,253.2,260s37.2-2.1,55.3-6.1c18.2-4.1,35.9-10.1,52.7-18.1,16.8-7.9,32.7-17.7,47.4-29.1,14.7-11.5,28.1-24.5,39.9-38.9,11.8-14.3-63.3-88.5-147.6-51.1h0Z"/>
      <g id="Celsius_Logomark">
        <path id="Dark_Grey" class="st3" d="M546.4,442.9s-63.2-88.4-147.5-51c-3.7,1.7-7.6,3.1-11.5,4.3-3.9,1.3-7.8,2.3-11.9,3.2-4,.9-8,1.5-12.1,1.9-4.1.5-8.2.7-12.3.7-15.7-.1-31.3-3.2-45.9-9.2-14.6-6.1-27.8-15-38.9-26.1-11.2-11.2-20-24.5-26-39-6-14.6-9.1-30.2-9.1-46,.1-10.8,1.6-21.6,4.4-32,2.9-10.5,7.1-20.5,12.6-29.8s12.2-17.8,20-25.4c7.7-7.6,16.4-14.1,25.8-19.4,43.2-22.5,78.4-22.7,121.7-26.7h-5c-13.5.3-37.6.8-62.7.6-4,0-8,0-11.9,0-4,0-8,0-11.9.3-4,.1-8,.4-11.9.7-3.9.3-7.9.6-11.9,1-126.1,12.2-198.7,106-202.4,116v8.1c0,139.7,113.6,260,253.2,260s37.2-2.1,55.3-6.1c18.2-4.1,35.8-10.2,52.6-18.1,16.9-7.9,32.8-17.7,47.5-29.1,14.6-11.5,28-24.5,39.8-38.9Z"/>
        <path id="Degree" class="st2" d="M87.9,4.8c7.6,3.2,14.6,7.8,20.4,13.6,5.8,5.9,10.5,12.8,13.6,20.4,3.2,7.7,4.8,15.8,4.8,24.1,0,25.4-15.3,48.4-38.8,58.1-23.5,9.7-50.5,4.3-68.5-13.6C1.4,89.4-3.9,62.3,5.8,38.8,15.5,15.3,38.4,0,63.9,0s16.4,1.6,24,4.8ZM73.9,87c3.1-1.3,6-3.2,8.4-5.6s4.4-5.3,5.7-8.5c1.3-3.2,2-6.6,2-10,0-10.6-6.4-20.1-16.1-24.2-9.8-4-21-1.8-28.5,5.7s-9.7,18.7-5.7,28.5c4.1,9.8,13.6,16.1,24.2,16.1s6.8-.6,10-2Z"/>
        <path id="Orange_Gradient" class="st4" d="M348,149.1c38.9.2,68.2-.5,72-.7,109.2-8,145.1-123.5,148.3-131.8-82.5,8.1-214.4,4-214.4,4-136.7-2.8-253.2,109.2-255.9,245.9v1c1-7,74-104,202.4-116.5,4-.4,8-.7,11.9-1s7.9-.5,11.9-.6c3.9-.2,7.9-.3,11.9-.4,3.9,0,7.9,0,11.9.1h0Z"/>
      </g>
      <g id="Celsius">
        <g id="Group_24">
          <path id="Path_55" class="st0" d="M1539.2,339.5c.4,0,.8-.1,1.2-.1.4,0,.8-.1,1.2-.2.4,0,.8,0,1.2-.1h2.6c.3,0,.7,0,1.1.2.4,0,.8.2,1.1.3.3.2.7.4,1,.6.1,0,.3.2.4.3.1.1.2.3.3.4.1.1.2.3.3.4.1.2.2.4.3.5.1.5.2.9.2,1.4s-.1.9-.3,1.3c-.2.5-.5.9-.8,1.2-.3.3-.7.6-1.2.7l-.5.3c.3.2.5.4.8.6.2.2.4.5.6.8.2.3.3.5.4.8.1.3.2.7.3,1,0,.3,0,.5,0,.8l.2.8c0,.3.2.5.3.7,0,.3.2.5.3.8h0c0,.1,0,.1,0,.2h0c0,0,0,0,0,.1,0,0,0,0,0,0t0,0h-3.3c-.1-.2-.2-.4-.3-.6-.1-.3-.2-.5-.3-.7s-.1-.4-.2-.7c0-.2-.1-.4-.2-.7v-.6c-.2-1.2-.9-1.7-2.3-1.7h-1.2v4.3h0c0,.2,0,.2,0,.2,0,0,0,.1,0,.1h-3.2c0,0,0,0,0-.1,0,0,0,0,0-.1h0v-13.2h.5ZM240.4-27.9,1543.7,342.1h-1.4v3.2h1.8c.2,0,.4,0,.6-.1.2,0,.4-.2.6-.3.2,0,.4-.2.6-.3,0,0,0-.1,0-.2,0,0,.1-.1,0-.2,0,0,0-.1,0-.2v-.3c0-1.1-.8-1.7-2.5-1.6h0Z"/>
          <path id="Path_56" class="st0" d="M1544.3,332.7c1.8,0,3.5.3,5.2,1,1.6.7,3.1,1.6,4.3,2.9,1.3,1.2,2.3,2.7,3,4.3.7,1.6,1.1,3.4,1.1,5.1v.3c0,1.8-.4,3.5-1.1,5.2-.7,1.6-1.7,3.1-3,4.3-1.3,1.2-2.7,2.2-4.4,2.8-1.6.7-3.4,1-5.1,1s-1.8,0-2.7-.2c-.9-.2-1.8-.5-2.6-.8-.9-.3-1.7-.8-2.4-1.3-.8-.5-1.5-1-2.1-1.6-.7-.6-1.2-1.3-1.7-2-.5-.7-.9-1.5-1.2-2.3-.4-.8-.7-1.6-.8-2.5-.2-.9-.3-1.7-.3-2.6v-.3c0-1.8.4-3.5,1.1-5.1.7-1.7,1.7-3.1,3-4.4,1.3-1.2,2.8-2.2,4.4-2.8,1.6-.7,3.4-1,5.2-1h0ZM1553.6,344.2c-.1-.7-.3-1.3-.5-1.9-.3-.7-.6-1.3-.9-1.8-.3-.5-.7-1.1-1.2-1.6-.5-.5-1-.9-1.5-1.2-.5-.4-1.1-.7-1.7-1-.6-.3-1.2-.4-1.8-.5-.7-.1-1.3-.2-1.9-.2s-1.3,0-2,.2c-.6.1-1.2.3-1.8.6s-1.2.6-1.7.9c-.5.4-1,.8-1.5,1.3-.4.5-.8,1-1.2,1.6-.3.5-.6,1.1-.8,1.8-.3.6-.4,1.2-.5,1.9-.1.6-.2,1.2-.2,1.9,0,.7,0,1.3.2,2,.1.7.3,1.3.6,1.9.2.6.5,1.2.9,1.7.3.6.7,1.1,1.2,1.6.5.5,1,.9,1.5,1.2.5.4,1.1.7,1.7.9.6.3,1.2.5,1.9.6.6.1,1.2.2,1.9.2s1.2,0,1.8-.2c.6-.1,1.2-.3,1.7-.5.6-.3,1.1-.6,1.6-.9.5-.3,1-.7,1.4-1.2.5-.5.9-1,1.3-1.6.4-.5.7-1.1,1-1.8.2-.6.4-1.2.5-1.9.1-.7.2-1.4.2-2.1,0-.7,0-1.3-.2-1.9Z"/>
        </g>
        <g id="Group_25">
          <path id="Path_57" class="st1" d="M635.4,362.9c-4.5.1-9.1-.3-13.6-1.1-4.5-.9-8.9-2.2-13.1-4-4.2-1.7-8.3-3.9-12-6.5-3.8-2.6-7.3-5.6-10.4-8.9-18.5-19-18-42.5-18-75s-.5-55.9,18-74.9c3.1-3.3,6.6-6.3,10.3-8.9,3.8-2.6,7.8-4.8,12.1-6.5,4.2-1.8,8.6-3.1,13.1-4,4.5-.8,9-1.2,13.6-1.1,34.1,0,60.5,20.1,67.1,59.3h-36.1c-3.6-15.1-12.8-26.6-30.7-26.6-2.1,0-4.3,0-6.4.4-2.1.4-4.1,1-6.1,1.9s-3.9,1.9-5.6,3.1c-1.7,1.3-3.3,2.7-4.8,4.3-6.8,7.9-8.9,16.9-8.9,53s2.1,45.1,8.9,53c1.5,1.7,3.1,3.1,4.8,4.3,1.7,1.3,3.6,2.3,5.6,3.2,1.9.8,4,1.4,6.1,1.8,2.1.4,4.3.6,6.4.5,17.9,0,27.1-11.5,30.7-26.6h36.1c-6.4,39.3-33.2,59.3-67.1,59.3h0ZM726.9,361.4v-182.4h120v31.8h-84.5v42.7h72v31.8h-72v44.3h84.5v31.8h-120ZM881.7,361.4v-182.4h35.7v150.6h82.6v31.8h-118.3ZM1079.1,362.9c-27.6,0-48.6-5.9-66.6-24.1l23.1-23c11.5,11.5,27.1,15.1,44,15.1s32.3-7.9,32.3-22.6c0-1.4,0-2.8-.2-4.1-.3-1.4-.6-2.7-1.1-4-.5-1.3-1.1-2.6-1.8-3.7-.7-1.2-1.6-2.3-2.6-3.3-1.1-.9-2.3-1.8-3.6-2.6-1.3-.7-2.6-1.4-3.9-1.9-1.4-.6-2.8-1-4.2-1.3-1.5-.3-2.9-.5-4.4-.6l-22-3c-3.3-.3-6.5-.9-9.6-1.7s-6.2-1.8-9.2-3.1-5.9-2.8-8.7-4.5c-2.7-1.8-5.3-3.8-7.8-5.9-2.3-2.4-4.3-5-6-7.8-1.7-2.8-3.1-5.7-4.2-8.8-1.1-3.1-1.9-6.2-2.4-9.5s-.6-6.5-.5-9.8c0-32.5,24.1-55.2,63.6-55.2s43.2,6.1,58.8,21.2l-22.5,22.3c-11.5-11-25.2-12.6-37.4-12.6-18.9,0-28.1,10.5-28.1,23.1s0,2.4.3,3.6c.2,1.2.5,2.4,1,3.5.5,1.1,1,2.2,1.7,3.2.7,1,1.4,1.9,2.3,2.7,1.2,1,2.5,1.9,3.8,2.7,1.3.9,2.7,1.6,4.2,2.2,1.4.6,2.9,1.1,4.4,1.5,1.5.4,3,.7,4.5.8l21.6,3.1c16.6,2.3,27.1,6.9,34.8,14.1,9.7,9.2,14.1,22.5,14.1,38.7,0,35.3-29.5,55.5-67.7,55.5v-.2ZM1173.9,179h35.3v182.4h-35.3v-182.4ZM1312.4,362.8c-37.4,0-67.1-25.2-67.1-64v-119.8h35.3v118.7c0,21,12.3,33.6,31.5,33.6s31.7-12.6,31.7-33.6v-118.7h35.4v119.8c0,38.7-29.7,64-67.1,64h.3ZM1462.9,362.8c-27.6,0-48.6-5.9-66.5-24l23-23.1c11.5,11.5,27.1,15.1,44.1,15.1s32.2-7.9,32.2-22.5c0-1.4,0-2.8-.2-4.2-.2-1.3-.5-2.7-1-4-.5-1.3-1.2-2.5-1.9-3.7-.7-1.2-1.6-2.3-2.5-3.3-1.1-.9-2.3-1.8-3.6-2.5-1.3-.8-2.6-1.5-4-2-1.3-.5-2.7-1-4.2-1.3-1.5-.3-2.9-.5-4.4-.6l-22-3c-3.3-.3-6.5-.8-9.6-1.6-3.2-.9-6.3-1.9-9.3-3.2-3-1.3-5.9-2.8-8.6-4.5-2.8-1.7-5.4-3.7-7.9-5.8-2.2-2.4-4.2-5-5.9-7.8-1.7-2.8-3.1-5.7-4.2-8.8-1.1-3.1-1.8-6.2-2.3-9.5-.5-3.3-.6-6.5-.4-9.8,0-32.5,24-55.2,63.5-55.2s43.2,6.1,58.8,21.2l-22.5,22.3c-11.5-11-25.2-12.6-37.4-12.6-18.9,0-28.2,10.5-28.2,23.1s0,2.4.3,3.6c.3,1.2.6,2.4,1.1,3.5.5,1.1,1,2.2,1.7,3.2s1.4,1.9,2.3,2.7c1.2,1,2.5,1.9,3.8,2.8,1.3.8,2.7,1.5,4.2,2.1,1.4.6,2.9,1.1,4.4,1.5,1.5.4,3,.7,4.5.8l21.5,3.1c16.7,2.3,27.2,6.9,34.8,14.1,9.8,9.2,14.2,22.5,14.2,38.7,0,35.3-29.5,55.5-67.6,55.5l-.2-.3Z"/>
        </g>
      </g>
      <g id="Live_Fit">
        <g id="Group_27">
          <path id="Path_64" class="st6" d="M1173.9,461.9v-62.3h12.1v51.4h28.3v10.9h-40.4ZM1228.5,399.6h12.2v62.3h-12.2v-62.3ZM1282.2,461.8h-9.1l-20.5-62.2h12.6l12.5,40.3,12.5-40.3h12.5l-20.5,62.2ZM1314.7,461.8v-62.3h41v10.8h-28.8v14.7h24.5v10.8h-24.5v15.1h28.8v10.9h-41ZM1408.7,410.3v15.2h24.5v11h-24.5v25.2h-12.2v-62.2h41v10.8h-28.8ZM1452.6,399.5h12.2v62.3h-12.2v-62.3ZM1507.5,410.3v51.4h-12.2v-51.4h-16.3v-10.8h44.7v10.8h-16.2Z"/>
        </g>
      </g>
    </g>
  </g>
</svg>