<?xml version="1.0" encoding="UTF-8"?>
<svg id="Layer_1" xmlns="http://www.w3.org/2000/svg" version="1.1" viewBox="0 0 60 29">
  <!-- Generator: Adobe Illustrator 29.0.1, SVG Export Plug-In . SVG Version: 2.1.0 Build 192)  -->
  <defs>
    <style>
      .st0 {
        fill: #9ebee0;
      }

      .st1 {
        fill: #7b7b79;
      }
    </style>
  </defs>
  <path class="st0" d="M28,1.8s-3.9,0-6.7,2.9c0,0-2.7,2.9-2.8,6.9,0,0,0,4.1,2.8,7,0,0,2.8,2.9,6.7,2.9,0,0,3.9,0,6.7-2.9,0,0,2.8-2.9,2.8-6.9h0s0-4.1-2.8-6.9c0,0-2.8-2.9-6.7-2.9ZM28,2.7s1.5,0,2.9.6c0,0,2.4,1.1,3.7,3.5,0,0,1.2,2.1,1.2,4.7h0s0,2.7-1.2,4.8c0,0-1.4,2.4-3.7,3.4,0,0-1.4.6-2.9.6,0,0-1.5,0-2.9-.6,0,0-2.3-1.1-3.7-3.5,0,0-1.2-2.1-1.2-4.7h0s0-2.7,1.2-4.8c0,0,1.4-2.4,3.7-3.5,0,0,1.4-.6,2.9-.6Z"/>
  <path class="st0" d="M57.4,26l-11.7-14.8,6.3-7.5s1-1.2,1.9-1.8h-2.8s-.2.7-1,1.8l-5,6.8-5.2-6.8s-.7-.9-1-1.8h-3.1l.7.5,1.7,1.9,5.8,7.4-6.4,7.7-1.3,1.4-.6.4h2.8s.1-.5.6-1.2l.4-.6,5.1-6.9,11.3,14.5.3.5h2.5s-.2,0-1.3-1.4Z"/>
  <path class="st1" d="M36.5,23.9v3.6h.6v-1.2h.8l.9,1.2h.7l-1-1.4c.8-.2.8-1.1.8-1.1,0-1.2-1.3-1.2-1.3-1.2h-1.6ZM37.1,24.5h.9c.7,0,.7.6.7.6,0,.6-.7.6-.7.6h-.9v-1.2Z"/>
  <path class="st1" d="M40.8,23.9v3.6h-.6v-3.6h.6Z"/>
  <path class="st1" d="M29.4,23.9v3.6h.6v-1.2h.8l.9,1.2h.8l-1-1.4c.9-.2.9-1.1.9-1.1,0-1.2-1.3-1.2-1.3-1.2h-1.6ZM30,24.5h.9c.8,0,.8.6.8.6,0,.6-.7.6-.7.6h-.9v-1.2Z"/>
  <path class="st1" d="M33.1,23.9v3.6h.6v-1.2h.7c1.4,0,1.4-1.2,1.4-1.2,0-1.2-1.4-1.2-1.4-1.2h-1.4ZM33.7,24.5h.7c.8,0,.8.6.8.6,0,.6-.8.6-.8.6h-.7v-1.3Z"/>
  <path class="st1" d="M41.9,26.5s.5.5,1.1.5c0,0,.6,0,.6-.4,0,0,0-.4-.8-.6,0,0-1.2-.3-1.2-1.1,0,0,0-1,1.2-1,0,0,.7,0,1.3.5l-.4.5s-.5-.4-1-.4c0,0-.6,0-.6.4,0,0,0,.4.8.6,0,0,1.2.3,1.2,1.1,0,0,0,1.1-1.3,1.1,0,0-.8,0-1.5-.6l.4-.5Z"/>
  <path class="st1" d="M49.6,24.4s-.6,0-.6.4c0,0,0,.4.9.6,0,0,1.1.3,1.1,1.1,0,0,0,1.1-1.3,1.1,0,0-.8,0-1.5-.6l.4-.5s.5.5,1.1.5c0,0,.6,0,.6-.4,0,0,0-.4-.8-.6,0,0-1.2-.3-1.2-1.1,0,0,0-1,1.2-1,0,0,.7,0,1.3.5l-.4.5s-.5-.4-1-.4Z"/>
  <path class="st1" d="M45.7,25.4h1.8v.6h-1.8v1h2v.6h-2.7v-3.6h2.7v.6h-2v.9Z"/>
  <path class="st0" d="M17.3,3.3s-3.3-1.7-6.4-1.5c0,0-3.9,0-6.6,2.9,0,0-2.7,2.9-2.7,6.9,0,0,0,4.1,2.8,6.9,0,0,2.7,2.9,6.6,2.9,0,0,2.9.1,6.3-1.6v-2.5s-2.4,3-6.3,3.1c0,0-1.5,0-2.9-.6,0,0-2.3-1.1-3.7-3.4,0,0-1.2-2.1-1.2-4.7,0,0,0-2.7,1.2-4.8,0,0,1.3-2.4,3.7-3.5,0,0,1.4-.6,2.9-.6,0,0,3.9.1,6.3,3.1v-2.5Z"/>
  <path class="st1" d="M24.1,24.5v3h-.6v-3h-1.1v-.6h2.9v.6h-1.1Z"/>
  <path class="st1" d="M28.6,24.4h-2v.9h1.8v.6h-1.8v1h2.1v.6h-2.7v-3.6h2.7v.6Z"/>
  <path class="st1" d="M17.8,24.4h-2v.9h1.8v.6h-1.8v1h2v.6h-2.7v-3.6h2.6v.6Z"/>
  <path class="st1" d="M21.1,26.3v-2.5h.6v3.6h-.5l-2-2.6v2.6h-.6v-3.6h.6l1.9,2.5Z"/>
</svg>