<?xml version="1.0" encoding="UTF-8"?>
<svg id="layer" xmlns="http://www.w3.org/2000/svg" version="1.1" viewBox="0 0 608 120.6">
  <!-- Generator: Adobe Illustrator 29.0.1, SVG Export Plug-In . SVG Version: 2.1.0 Build 192)  -->
  <defs>
    <style>
      .st0 {
        fill: #fff;
      }

      .st1 {
        fill: #009abf;
      }
    </style>
  </defs>
  <path class="st1" d="M83,55.1v8.5h-11.4v24.1c9.4-4.4,16.2-13.4,17.4-24.1h8.5c-1.6,18.4-16.1,33.2-34.4,35.2V21.8c17.7,1.9,31.8,15.8,34.2,33.3h-8.6c-1.7-9.9-8.3-18.1-17.1-22.2v22.2h11.4ZM54.7,98.8c-19.4-2.1-34.5-18.6-34.5-38.5s15.1-36.4,34.5-38.5v77ZM58.8,15.7c-24.6,0-44.6,20-44.6,44.6s20,44.6,44.6,44.6,44.6-20,44.6-44.6S83.4,15.7,58.8,15.7M58.8,109.6c-27.2,0-49.3-22.1-49.3-49.3S31.6,11,58.8,11s49.3,22.1,49.3,49.3-22.1,49.3-49.3,49.3M58.8,5.5C28.6,5.5,4,30.1,4,60.3s24.6,54.8,54.8,54.8,54.8-24.6,54.8-54.8S89,5.5,58.8,5.5M46.2,87.8v-54.9c-10.4,4.8-17.5,15.3-17.5,27.4-.1,12.2,7.1,22.6,17.5,27.5"/>
  <g>
    <path class="st0" d="M459,40.1c2.1,0,3.7-1.7,3.7-3.7s-1.7-3.7-3.7-3.7-3.7,1.7-3.7,3.7,1.7,3.7,3.7,3.7Z"/>
    <path class="st0" d="M394.4,83.8h-11.3v-27.7h6.1c8.7,0,9.5,3.8,9.5,10.1h1.3v-22h-1.3c0,5.4-.8,10.6-9.4,10.6h-6.2v-26.7h13c8.8,0,15.1,3.2,15.1,12.8h1.3l-1-14.1h-40.3v1.3h3.5v55.7h-3.5v1.3h44.5v-17h-1.4c0,14.1-6.5,15.7-19.9,15.7Z"/>
    <path class="st0" d="M463.1,49.3h0c-1.7,1.7-4.3,1.8-7,1.8h-2.8v1.3h2.8v31.3h-2.8v1.3h12.6v-1.3h-2.8v-34.4Z"/>
    <path class="st0" d="M429,83.8V24.2c-1.7,1.9-4.3,2.1-7,2.1h-2.8v1.3h2.8v56.2h-2.8v1.3h12.6v-1.3h-2.8Z"/>
    <path class="st0" d="M446.2,83.8V24.2c-1.7,1.9-4.3,2.1-7,2.1h-2.8v1.3h2.8v56.2h-2.8v1.3h12.6v-1.3h-2.8Z"/>
    <path class="st0" d="M601.3,83.7v-25c0-4.9-2.5-9.4-11.3-9.4s-10.2,4.5-12.3,8.5h-.2v-8.5c-1.5,1.8-3,1.8-7,1.8h-2.7v1.3h2.7v31.3h-2.7v1.3h12.2v-1.3h-2.5v-23.3c1.5-2.8,5.1-9.8,12-9.8s4.9,1.5,4.9,6v27.1h-2.7v1.3h12.4v-1.3h-2.8Z"/>
    <path class="st0" d="M562.1,84.3c-2.2,0-2.5-2.1-2.5-3.6v-21.7c0-6.4-7.5-9.6-13.7-9.6s-12.8,4.6-12.8,8.9,1.3,4.6,3.6,4.6,3.8-1.5,3.8-3.5c0-3.7-2.7-2.8-2.7-4.8,0-3,5.6-3.9,8-3.9s6.8.9,6.8,4.8v10.2h-1.6c-8.5,0-20.9,2.3-20.9,11.6s3.9,8.9,10.4,8.9,9.2-1.4,12-5.1h.2c.6,2.9,3.4,5.1,7.3,5.1s5.7-1.7,7.3-4.5l-.9-.7c-1.2,1.7-2.4,3.3-4.3,3.3ZM552.8,77.8h0c0,1.7-2.7,6.3-8.9,6.3s-6-3.5-6-8.1c0-8.9,7.5-9,13.6-9h1.4v10.8Z"/>
    <path class="st0" d="M525.7,59.4c0-5.2-2.8-10-11.3-10.1-6.2,0-10.4,4.1-12,8.9h-.2c-.7-7.4-6-8.9-11.3-8.9s-9.7,4.1-11.9,8.1h-.2v-8.1c-1.5,1.8-3,1.8-7,1.8h-2.7v1.3h2.7v31.3h-2.7v1.3h12.2v-1.2h-2.6v-23.4c2.4-5.9,6.1-9.8,11.1-9.8s5.4,1.6,5.4,5.7v27.4h-2.7v1.3h12.2v-1.3h-2.5v-22.1c1.7-5.8,5.9-11,10.7-11s5.8,1.3,5.8,7.3v25.8h-2.7v1.3h12.4v-1.3h-2.7v-24.3Z"/>
    <path class="st0" d="M150.4,26.5h-22.4v1.8h4.1v55.2h-4.1v1.8h22.4c17.3,0,28.4-11.5,28.4-29.4s-2.2-13.8-5.9-18.9c-4.9-6.8-12.7-10.5-22.5-10.5ZM147.9,83.5h-6.9V28.3h3.8c21.6,0,24.1,15.8,24.1,27.6,0,22.8-11.3,27.6-21,27.6ZM176.5,44.1c-.4-1-.9-2.1-1.4-3.1.5.9,1,2,1.4,3.1Z"/>
    <path class="st0" d="M198.2,49c-11.1,0-17.8,9.5-17.8,18.6s6.7,18.6,17.8,18.6,17.8-9.5,17.8-18.6-6.7-18.6-17.8-18.6ZM207.5,70.9c0,8-.7,13.6-9.4,13.6s-9.4-5.6-9.4-13.6v-6.5c0-8,.7-13.6,9.4-13.6s9.4,5.6,9.4,13.6v6.5Z"/>
    <path class="st0" d="M301.5,23.5l-.4.5c-1.6,1.8-4.2,2-6.8,2h-3v1.8h2.8v55.7h-2.8v1.8h13v-1.8h-2.8V23.5Z"/>
    <polygon class="st0" points="249.3 48.7 249.3 48.8 249.4 48.7 249.3 48.7"/>
    <path class="st0" d="M359.7,63.3l-2.8-.2c-5.9-.4-8.5-2.1-8.5-5.9s2.9-6.4,7.4-6.4c6.9,0,8.9,4.8,9.4,8.8v.2h1.5l-.3-10.3h-1.6v.9c0,1.1,0,1.5-.3,1.5s-.7-.3-1.2-.6c-1.5-.9-4-2.3-7.2-2.3-6.2,0-10.6,4.5-10.6,10.9s5.7,9.6,10.8,10.2h.8c4.1.5,8.3,1,8.3,6.9s-3.2,7.5-7.8,7.5-10.1-4-11.3-11.5v-.2h-1.5l.2,12.7v.2h1.7v-.2c0-.4,0-.8,0-1.1.1-1.3.1-1.8.7-1.8s1.1.4,1.8.9c1.6,1.1,4,2.7,8.4,2.7,6.8,0,11.8-5.5,11.8-13,0-6.2-3.4-9.5-9.8-9.9Z"/>
    <path class="st0" d="M342.7,80.8c-1.2,1.7-2.3,3.2-4.1,3.2s-2.2-1.1-2.2-3.4v-21.7c0-3-1.6-5.6-4.6-7.4-2.6-1.6-6-2.4-9.4-2.4-8.4,0-13,4.7-13,9.1s1.5,4.9,3.9,4.9,4-1.6,4-3.7-1-2.9-1.8-3.5c-.5-.4-.9-.6-.9-1.3,0-2.7,5.4-3.7,7.8-3.7s6.6.8,6.6,4.6v9.9h-1.3c-10.2,0-21.1,3.1-21.1,11.8s4,9.1,10.6,9.1,9.3-1.5,12-5c.8,3,3.8,5,7.4,5s5.7-1.5,7.5-4.6v-.2c.1,0-1.2-.9-1.2-.9l-.2.2ZM328.9,77.8c0,1.5-2.6,6.1-8.7,6.1s-5.8-2.9-5.8-7.9c0-8.8,7.7-8.8,13.3-8.8h1.2v10.6Z"/>
    <path class="st0" d="M249.3,48.8l-.3.3c-1.6,1.6-4.2,1.8-6.8,1.8h-3v1.8h2.7v19.4c0,6.3-5.3,12.4-10.7,12.4s-4.9-2.1-4.9-5.6v-30.2l-.4.4c-1.6,1.6-4.2,1.8-6.8,1.8h-3v1.8h2.8v24.2c0,2.8,1.1,9.4,11.5,9.4s10.5-6,11.5-8v7h10.2v-1.8h-2.8v-34.7Z"/>
    <path class="st0" d="M286.5,49c-2.8,0-4.9,1.8-6.4,3.5-2.3-2.2-5.7-3.5-9.7-3.5-7.7,0-14,5.9-14,13.2s2.8,7.3,5.9,9.4c-5.3.2-7.8,2.9-7.8,8.4s2.3,7.6,6.3,7.9c-3.7,1.8-7.8,5.3-7.8,9.6,0,8.1,8.4,10.9,16.2,10.9s10-1.6,13.5-4.6c3.9-3.2,5.9-7.8,5.9-13.1s-3.3-9.8-9.4-9.8h-19.4c-2,0-3.4-1.3-3.4-3.2,0-3.2,2.6-4.9,7.8-5,.1,0,.2,0,.3,0,1,.5,2.8,1.3,6,1.3s6.8-1.3,9.4-3.6c2.9-2.4,4.5-5.6,4.5-8.9s-1.2-6.1-3.2-8.3c1-1.3,2.5-2.4,3.8-2.7-.3.5-.6,1.1-.6,2.4s1.2,2.8,2.9,2.8,3.5-.8,3.5-3.1c.1-2.1-1.6-3.7-4.3-3.7ZM278.5,87.8h0c5.1.1,7.5,1.8,7.5,5.4,0,6.6-6.2,13.4-16.5,13.4s-12.2-7.2-12.2-9.5c0-5.2,2.3-8.2,7.3-9.3h13.9ZM270.4,72.6c-6.6,0-6.6-5.5-6.6-10.9s0-10.9,6.6-10.9,6.6,4.3,6.6,10.9,0,10.9-6.6,10.9Z"/>
  </g>
</svg>