<?xml version="1.0" encoding="UTF-8"?>
<svg id="layer" xmlns="http://www.w3.org/2000/svg" version="1.1" viewBox="0 0 500 500">
  <!-- Generator: Adobe Illustrator 29.2.1, SVG Export Plug-In . SVG Version: 2.1.0 Build 116)  -->
  <defs>
    <style>
      .st0 {
        fill: #fff;
      }

      .st1 {
        fill: #009abf;
      }
    </style>
  </defs>
  <path class="st1" d="M65.9,245.7v7.1h-9.5v20.1c7.8-3.7,13.5-11.2,14.5-20.1h7.1c-1.3,15.3-13.4,27.7-28.7,29.3v-64.2c14.7,1.6,26.5,13.2,28.5,27.7h-7.2c-1.4-8.2-6.9-15.1-14.2-18.5v18.5s9.5,0,9.5,0ZM42.3,282.1c-16.2-1.7-28.7-15.5-28.7-32.1s12.6-30.3,28.7-32.1v64.2ZM45.7,212.8c-20.5,0-37.2,16.7-37.2,37.2s16.7,37.2,37.2,37.2,37.2-16.7,37.2-37.2-16.7-37.2-37.2-37.2M45.7,291.1c-22.7,0-41.1-18.4-41.1-41.1s18.4-41.1,41.1-41.1,41.1,18.4,41.1,41.1-18.4,41.1-41.1,41.1M45.7,204.3C20.5,204.3,0,224.8,0,250s20.5,45.7,45.7,45.7,45.7-20.5,45.7-45.7-20.5-45.7-45.7-45.7M35.2,272.9v-45.7c-8.7,4-14.6,12.7-14.6,22.8,0,10.2,5.9,18.8,14.6,22.9"/>
  <g>
    <path class="st0" d="M379.2,233.2c1.7,0,3.1-1.4,3.1-3.1s-1.4-3.1-3.1-3.1-3.1,1.4-3.1,3.1,1.4,3.1,3.1,3.1Z"/>
    <path class="st0" d="M325.3,269.6h-9.4v-23.1h5.1c7.2,0,7.9,3.2,7.9,8.4h1.1v-18.3h-1.1c0,4.5-.7,8.8-7.8,8.8h-5.2v-22.2h10.8c7.3,0,12.6,2.7,12.6,10.7h1.1l-.8-11.7h-33.6v1.1h2.9v46.4h-2.9v1.1h37.1v-14.2h-1.2c0,11.7-5.4,13.1-16.6,13.1h0Z"/>
    <path class="st0" d="M382.6,240.8h0c-1.4,1.4-3.6,1.5-5.8,1.5h-2.3v1.1h2.3v26.1h-2.3v1.1h10.5v-1.1h-2.3v-28.7h0Z"/>
    <path class="st0" d="M354.2,269.6v-49.7c-1.4,1.6-3.6,1.7-5.8,1.7h-2.3v1.1h2.3v46.8h-2.3v1.1h10.5v-1.1h-2.3Z"/>
    <path class="st0" d="M368.5,269.6v-49.7c-1.4,1.6-3.6,1.7-5.8,1.7h-2.3v1.1h2.3v46.8h-2.3v1.1h10.5v-1.1h-2.3Z"/>
    <path class="st0" d="M497.7,269.5v-20.8c0-4.1-2.1-7.8-9.4-7.8s-8.5,3.7-10.2,7.1h-.2v-7.1c-1.2,1.5-2.5,1.5-5.8,1.5h-2.2v1.1h2.2v26.1h-2.2v1.1h10.2v-1.1h-2.1v-19.4c1.2-2.3,4.2-8.2,10-8.2s4.1,1.2,4.1,5v22.6h-2.2v1.1h10.3v-1.1h-2.3Z"/>
    <path class="st0" d="M465.1,270c-1.8,0-2.1-1.7-2.1-3v-18.1c0-5.3-6.2-8-11.4-8s-10.7,3.8-10.7,7.4,1.1,3.8,3,3.8,3.2-1.2,3.2-2.9c0-3.1-2.2-2.3-2.2-4,0-2.5,4.7-3.2,6.7-3.2s5.7.7,5.7,4v8.5h-1.3c-7.1,0-17.4,1.9-17.4,9.7s3.2,7.4,8.7,7.4,7.7-1.2,10-4.2h.2c.5,2.4,2.8,4.2,6.1,4.2s4.7-1.4,6.1-3.7l-.7-.6c-1,1.4-2,2.7-3.6,2.7h0ZM457.3,264.6h0c0,1.4-2.2,5.2-7.4,5.2s-5-2.9-5-6.7c0-7.4,6.2-7.5,11.3-7.5h1.2v9h0Z"/>
    <path class="st0" d="M434.7,249.3c0-4.3-2.3-8.3-9.4-8.4-5.2,0-8.7,3.4-10,7.4h-.2c-.6-6.2-5-7.4-9.4-7.4s-8.1,3.4-9.9,6.7h-.2v-6.7c-1.2,1.5-2.5,1.5-5.8,1.5h-2.2v1.1h2.2v26.1h-2.2v1.1h10.2v-1h-2.2v-19.5c2-4.9,5.1-8.2,9.2-8.2s4.5,1.3,4.5,4.7v22.8h-2.2v1.1h10.2v-1.1h-2.1v-18.4c1.4-4.8,4.9-9.2,8.9-9.2s4.8,1.1,4.8,6.1v21.5h-2.2v1.1h10.3v-1.1h-2.2v-20.2Z"/>
    <path class="st0" d="M122,221.8h-18.7v1.5h3.4v46h-3.4v1.5h18.7c14.4,0,23.7-9.6,23.7-24.5s-1.8-11.5-4.9-15.7c-4.1-5.7-10.6-8.7-18.7-8.7ZM119.9,269.3h-5.7v-46h3.2c18,0,20.1,13.2,20.1,23,0,19-9.4,23-17.5,23h0ZM143.8,236.5c-.3-.8-.7-1.7-1.2-2.6.4.7.8,1.7,1.2,2.6Z"/>
    <path class="st0" d="M161.9,240.6c-9.2,0-14.8,7.9-14.8,15.5s5.6,15.5,14.8,15.5,14.8-7.9,14.8-15.5-5.6-15.5-14.8-15.5ZM169.6,258.8c0,6.7-.6,11.3-7.8,11.3s-7.8-4.7-7.8-11.3v-5.4c0-6.7.6-11.3,7.8-11.3s7.8,4.7,7.8,11.3v5.4Z"/>
    <path class="st0" d="M247.9,219.3l-.3.4c-1.3,1.5-3.5,1.7-5.7,1.7h-2.5v1.5h2.3v46.4h-2.3v1.5h10.8v-1.5h-2.3v-50h0Z"/>
    <polygon class="st0" points="204.4 240.3 204.4 240.4 204.5 240.3 204.4 240.3"/>
    <path class="st0" d="M296.4,252.5l-2.3-.2c-4.9-.3-7.1-1.7-7.1-4.9s2.4-5.3,6.2-5.3c5.7,0,7.4,4,7.8,7.3v.2h1.2l-.2-8.6h-1.3v.7c0,.9,0,1.2-.2,1.2s-.6-.2-1-.5c-1.2-.7-3.3-1.9-6-1.9-5.2,0-8.8,3.7-8.8,9.1s4.7,8,9,8.5h.7c3.4.4,6.9.8,6.9,5.7s-2.7,6.2-6.5,6.2-8.4-3.3-9.4-9.6v-.2h-1.2l.2,10.6v.2h1.4v-1.1c0-1.1,0-1.5.6-1.5s.9.3,1.5.7c1.3.9,3.3,2.2,7,2.2,5.7,0,9.8-4.6,9.8-10.8s-2.8-7.9-8.2-8.2h0Z"/>
    <path class="st0" d="M282.3,267.1c-1,1.4-1.9,2.7-3.4,2.7s-1.8-.9-1.8-2.8v-18.1c0-2.5-1.3-4.7-3.8-6.2-2.2-1.3-5-2-7.8-2-7,0-10.8,3.9-10.8,7.6s1.2,4.1,3.2,4.1,3.3-1.3,3.3-3.1-.8-2.4-1.5-2.9c-.4-.3-.7-.5-.7-1.1,0-2.2,4.5-3.1,6.5-3.1s5.5.7,5.5,3.8v8.2h-1.1c-8.5,0-17.6,2.6-17.6,9.8s3.3,7.6,8.8,7.6,7.7-1.2,10-4.2c.7,2.5,3.2,4.2,6.2,4.2s4.7-1.2,6.2-3.8v-.2c0,0-1-.7-1-.7l-.2.2h0ZM270.8,264.6c0,1.2-2.2,5.1-7.2,5.1s-4.8-2.4-4.8-6.6c0-7.3,6.4-7.3,11.1-7.3h1v8.8Z"/>
    <path class="st0" d="M204.4,240.4l-.2.2c-1.3,1.3-3.5,1.5-5.7,1.5h-2.5v1.5h2.2v16.2c0,5.2-4.4,10.3-8.9,10.3s-4.1-1.7-4.1-4.7v-25.2l-.3.3c-1.3,1.3-3.5,1.5-5.7,1.5h-2.5v1.5h2.3v20.2c0,2.3.9,7.8,9.6,7.8s8.7-5,9.6-6.7v5.8h8.5v-1.5h-2.3v-28.9Z"/>
    <path class="st0" d="M235.4,240.6c-2.3,0-4.1,1.5-5.3,2.9-1.9-1.8-4.7-2.9-8.1-2.9-6.4,0-11.7,4.9-11.7,11s2.3,6.1,4.9,7.8c-4.4.2-6.5,2.4-6.5,7s1.9,6.3,5.2,6.6c-3.1,1.5-6.5,4.4-6.5,8,0,6.7,7,9.1,13.5,9.1s8.3-1.3,11.2-3.8c3.2-2.7,4.9-6.5,4.9-10.9s-2.7-8.2-7.8-8.2h-16.2c-1.7,0-2.8-1.1-2.8-2.7,0-2.7,2.2-4.1,6.5-4.2h.2c.8.4,2.3,1.1,5,1.1s5.7-1.1,7.8-3c2.4-2,3.7-4.7,3.7-7.4s-1-5.1-2.7-6.9c.8-1.1,2.1-2,3.2-2.2-.2.4-.5.9-.5,2s1,2.3,2.4,2.3,2.9-.7,2.9-2.6c0-1.7-1.3-3.1-3.6-3.1h0ZM228.8,272.9h0c4.2,0,6.2,1.5,6.2,4.5,0,5.5-5.2,11.2-13.7,11.2s-10.2-6-10.2-7.9c0-4.3,1.9-6.8,6.1-7.7h11.6ZM222,260.2c-5.5,0-5.5-4.6-5.5-9.1s0-9.1,5.5-9.1,5.5,3.6,5.5,9.1,0,9.1-5.5,9.1Z"/>
  </g>
</svg>