<svg width="66" height="15" viewBox="0 0 66 15" fill="none" xmlns="http://www.w3.org/2000/svg">
<path d="M35.5784 7.46604C37.1656 7.46604 38.2436 8.69383 38.2436 10.5206V13.9195C38.2436 13.9644 38.1987 14.0093 38.1538 14.0093H36.5966C36.5517 14.0093 36.5067 13.9644 36.5067 13.9195V10.5355C36.5067 9.83179 36.1624 9.06816 35.1891 9.06816H35.1592C34.4255 9.08314 33.7966 9.74195 33.7966 10.4906V13.9195C33.7966 13.9644 33.7517 14.0093 33.7068 14.0093H32.1645C32.1196 14.0093 32.0747 13.9644 32.0747 13.9195V7.63074C32.0747 7.58582 32.1196 7.5409 32.1645 7.5409H33.6618C33.7068 7.5409 33.7517 7.58582 33.7517 7.63074V8.18475C34.3207 7.69063 34.9046 7.46604 35.5784 7.46604ZM59.3108 12.8713C59.2809 12.9013 59.2959 12.9612 59.3258 12.9911C60.2541 13.9195 61.2573 14.0392 62.1258 14.0392C63.3536 14.0392 64.2669 13.5751 64.6562 12.7516C64.776 12.497 64.8359 12.2275 64.8359 11.943C64.8359 10.281 63.3985 9.98152 62.1557 9.90666C61.1675 9.84677 61.1675 9.50238 61.1675 9.3826C61.1675 8.96335 61.8413 8.91843 62.1258 8.91843C62.6798 8.91843 63.099 9.05319 63.4434 9.35265C63.4734 9.3826 63.5333 9.3826 63.5632 9.33768L64.4466 8.31951C64.4766 8.28956 64.4766 8.22967 64.4316 8.19972C63.7878 7.66069 63.099 7.43609 62.0958 7.43609C61.452 7.43609 60.8231 7.60079 60.359 7.87031C59.76 8.22967 59.4456 8.7687 59.4456 9.42752C59.4456 10.5805 60.359 11.2842 62.0359 11.404C62.9793 11.4639 63.099 11.7334 63.099 11.973C63.099 12.3173 62.6349 12.497 62.1857 12.497H62.1408C61.4071 12.482 60.7033 12.2125 60.2392 11.7783C60.1942 11.7484 60.1344 11.7484 60.1044 11.7933L59.3108 12.8713ZM43.6639 11.8082C43.9184 11.5088 44.0382 11.0895 44.0382 10.6403C44.0382 9.83179 43.5441 8.97832 42.3463 8.97832C41.358 8.97832 40.6992 9.65211 40.6992 10.6553C40.6992 11.6585 41.358 12.3473 42.3463 12.3473C42.8553 12.3473 43.3644 12.1526 43.6639 11.8082ZM43.9933 7.61577C43.9933 7.57085 44.0382 7.52593 44.0831 7.52593H45.6254C45.6703 7.52593 45.7152 7.57085 45.7152 7.61577V13.9195C45.7152 13.9644 45.6703 14.0093 45.6254 14.0093H44.0831C44.0382 14.0093 43.9933 13.9644 43.9933 13.9195V13.4403C43.4543 13.9344 42.8104 13.9494 42.2564 13.9644H42.1666C41.2383 13.9644 40.4596 13.6799 39.8907 13.1259C39.2917 12.5419 38.9923 11.6885 38.9923 10.6703C38.9923 8.69383 40.25 7.42112 42.2115 7.42112H42.2415C42.8554 7.42112 43.4992 7.48101 44.0083 7.90026L43.9933 7.61577ZM24.8127 5.96872V4.45644C24.8127 4.39654 24.7678 4.35162 24.7079 4.35162H19.093C19.0331 4.35162 18.9882 4.39654 18.9882 4.45644V13.8895C18.9882 13.9494 19.0331 13.9943 19.093 13.9943H20.6053C20.6652 13.9943 20.7101 13.9494 20.7101 13.8895V10.0414C20.7101 9.98152 20.755 9.9366 20.8149 9.9366H23.6448C23.7047 9.9366 23.7496 9.89169 23.7496 9.83179V8.30453C23.7496 8.24464 23.7047 8.19972 23.6448 8.19972H20.8149C20.755 8.19972 20.7101 8.1548 20.7101 8.09491V6.19332C20.7101 6.13343 20.755 6.08851 20.8149 6.08851H24.6929C24.7678 6.08851 24.8127 6.02862 24.8127 5.96872ZM57.8285 11.9879C57.7985 11.958 57.7387 11.958 57.7087 11.9879C57.4092 12.2425 57.0199 12.3772 56.6456 12.3772C55.7023 12.3772 55.0435 11.7034 55.0435 10.7302C55.0435 9.75693 55.7023 9.08314 56.6456 9.08314C57.0199 9.08314 57.3943 9.21789 57.7087 9.47244C57.7387 9.50238 57.7985 9.50238 57.8285 9.47244L58.8317 8.42432C58.8616 8.39437 58.8616 8.33448 58.8317 8.30453C58.1878 7.69063 57.529 7.43609 56.6306 7.43609C54.6093 7.43609 53.3066 8.73875 53.3066 10.7601C53.3066 12.7815 54.6093 14.0842 56.6306 14.0842C57.529 14.0842 58.1878 13.8296 58.8317 13.2157C58.8616 13.1858 58.8616 13.1259 58.8317 13.0959L57.8285 11.9879ZM49.7729 14.0093C49.8179 14.0093 49.8628 13.9644 49.8628 13.9195V12.512C49.8628 12.4671 49.8179 12.4221 49.7729 12.4221H49.0093C48.5601 12.4072 48.3505 12.1826 48.3505 11.7034V9.29276H49.7729C49.8179 9.29276 49.8628 9.24784 49.8628 9.20292V7.63074C49.8628 7.58582 49.8179 7.5409 49.7729 7.5409H48.3655V6.17835C48.3655 6.13343 48.3205 6.08851 48.2756 6.08851H46.7184C46.6735 6.08851 46.6286 6.13343 46.6286 6.17835V11.7034C46.6286 13.1708 47.4521 14.0093 48.9045 14.0093H49.189H49.7729ZM29.0801 11.8082C29.3346 11.5088 29.4544 11.0895 29.4544 10.6403C29.4544 9.83179 28.9603 8.97832 27.7624 8.97832C26.7742 8.97832 26.1154 9.65211 26.1154 10.6553C26.1154 11.6585 26.7742 12.3473 27.7624 12.3473C28.2865 12.3473 28.7956 12.1526 29.0801 11.8082ZM29.4244 7.61577C29.4244 7.57085 29.4694 7.52593 29.5143 7.52593H31.0565C31.1014 7.52593 31.1464 7.57085 31.1464 7.61577V13.9195C31.1464 13.9644 31.1014 14.0093 31.0565 14.0093H29.5143C29.4694 14.0093 29.4244 13.9644 29.4244 13.9195V13.4403C28.8854 13.9344 28.2416 13.9494 27.6876 13.9644H27.5977C26.6694 13.9644 25.8908 13.6799 25.3218 13.1259C24.7229 12.5419 24.4234 11.6885 24.4234 10.6703C24.4084 8.69383 25.6662 7.40614 27.6127 7.40614H27.6426C28.2565 7.40614 28.9004 7.46604 29.4095 7.88528L29.4244 7.61577ZM50.7911 14.0093H52.3483C52.3932 14.0093 52.4382 13.9644 52.4382 13.9195V7.61577C52.4382 7.57085 52.3932 7.52593 52.3483 7.52593H50.7911C50.7462 7.52593 50.7013 7.57085 50.7013 7.61577V13.9195C50.7163 13.9644 50.7462 14.0093 50.7911 14.0093ZM52.5579 5.62434C52.5579 4.35162 50.6414 4.35162 50.6414 5.62434C50.6264 6.88208 52.5579 6.88208 52.5579 5.62434Z" fill="white"/>
<path d="M16.3534 2.52475L14.7363 5.04024C14.7064 5.08516 14.6315 5.11511 14.5866 5.08516C10.8583 3.21352 6.546 6.65734 2.74282 5.83382C2.71287 5.81884 2.68293 5.80387 2.65298 5.77392C2.66795 5.77392 0.826257 2.95897 0.212358 2.01566C0.137493 1.89588 0.227331 1.73117 0.392036 1.74615C0.721445 1.82101 2.15887 2.13545 3.26688 2.22529C9.03154 2.53972 12.1609 -0.919071 16.3384 2.36005C16.3834 2.38999 16.3983 2.46486 16.3534 2.52475ZM11.6518 9.72683C11.6818 9.74181 11.7117 9.72683 11.7417 9.69689L13.6882 6.65734C13.7181 6.61242 13.6882 6.5675 13.6433 6.55253C10.8133 5.57927 8.1631 7.45092 4.12035 7.55573C4.01554 7.55573 3.91072 7.67551 3.98559 7.81027L8.34278 14.5482C8.40267 14.668 8.5524 14.5931 8.53743 14.4883L7.59412 10.2209C7.57915 10.176 7.60909 10.1461 7.63904 10.1311C8.01337 10.0263 10.4839 9.1878 11.6518 9.72683Z" fill="#E53D2E"/>
<path d="M65.9446 6.85139C65.9446 7.16583 65.7499 7.42037 65.3906 7.42037C65.0312 7.42037 64.8365 7.16583 64.8365 6.85139C64.8365 6.53695 65.0312 6.28241 65.3906 6.28241C65.7499 6.28241 65.9446 6.53695 65.9446 6.85139ZM65.3906 7.33053C65.69 7.33053 65.8547 7.12091 65.8547 6.85139C65.8547 6.58187 65.69 6.37225 65.3906 6.37225C65.0911 6.37225 64.9264 6.58187 64.9264 6.85139C64.9264 7.12091 65.0911 7.33053 65.3906 7.33053ZM65.4804 6.92625C65.705 6.89631 65.69 6.55193 65.4355 6.55193H65.166V7.13588H65.2558V6.92625H65.3756L65.5553 7.13588H65.6601V7.12091L65.4804 6.92625ZM65.4355 6.64177C65.5852 6.64177 65.5852 6.85139 65.4355 6.85139H65.2558V6.64177H65.4355Z" fill="white"/>
</svg>
