<?xml version="1.0" encoding="UTF-8"?>
<svg id="Layer_1" xmlns="http://www.w3.org/2000/svg" version="1.1" viewBox="0 0 800 800">
  <!-- Generator: Adobe Illustrator 29.0.1, SVG Export Plug-In . SVG Version: 2.1.0 Build 192)  -->
  <defs>
    <style>
      .st0 {
        fill: #fff;
      }
    </style>
  </defs>
  <path class="st0" d="M399.9,0C179.5,0,0,179.5,0,400.1s179.5,400.1,399.9,400.1,399.9-179.5,399.9-400.1C800,179.5,620.5,0,399.9,0ZM368.4,762v-104.4c10.4,1.3,20.7,1.9,31.5,1.9s20.7-.6,30.8-1.7v104.4c-10.1.9-20.5,1.3-30.8,1.3-10.6-.2-21.1-.6-31.5-1.5ZM476.7,390.2v-197.8l-45.7-13.2v210.7h-62.3v-210.5l-45.7,13.2v197.8h-174.7c3.9-135.9,115.2-244.8,251.7-244.8s247.8,109.1,251.7,244.6h-174.9,0ZM651.6,400.8c-1.5,110.6-74.6,204.3-175.1,236.6v-236.6h175.1ZM322.7,400.8v236.4c-100.1-32.4-173-126-174.5-236.4h174.5ZM368.4,400.8h62.3v246.5c-10.1,1.3-20.5,1.9-30.8,1.9s-21.1-.6-31.5-1.9v-246.5h0ZM476.7,755.1v-107.2c107.2-32.8,185.5-132.9,185.5-250.6s-117.6-262.3-262.3-262.3S137.6,252.6,137.6,397.3s77.9,217.4,184.8,250.6v107c-163.1-35.4-285.8-181.2-285.8-354.8S199.7,36.7,399.9,36.7s363.4,163.1,363.4,363.4-122.9,319.9-286.7,355ZM85.6,238.1l17.9,6.5-20.9,57.6,14.9,5.4,19.8-54.4,17.9,6.7-19.6,54.4,26.3,9.5-8.4,23.7-77.4-28.3,29.5-81.1ZM219.3,196.7l-18,17.4-57.2-59.3,18-17.4,57.2,59.3ZM296.1,119.7c1.5,4.1,3.5,6.5,5.8,6.9.9.2,2.2,0,3.7-.2s3.5-.9,5.6-1.5l8.4-2.8,6.3-2.2c4.7-1.7,6.5-4.5,5-8.6-1.3-3.5-3.5-4.7-6.9-4.3l-5,1.3-4.7,1.3-13.8,3.9-9.5,2.4c-1.5.4-3.7.9-6.3,1.3-7.1,1.3-12.3-.6-15.7-5.8-1.9-2.8-3.7-6-4.7-9.7-2.4-6.5-3.2-11.6-3.2-14.9.2-5.6,2.6-9.9,6.7-13.2s13.6-7.3,28-12.3c2.6-.9,4.7-1.5,7.1-2.2,5.4-1.5,9.1-2.6,12.9-3,3.9-.6,7.3-.6,10.1-.2,3.2.4,6,1.7,8.6,4.1,2.4,2.4,4.5,5.6,5.8,9.7l1.7,5.2-23.7,8.2-1.3-2.8c-1.3-2.4-3.2-3.7-5.8-3.7s-.6,0-1.7.2c-1.7.4-3.5.9-5.4,1.3,0,0-3.2.9-4.7,1.5-1.5.4-6,2.4-6,2.4-1.7.9-3.2,1.3-4.3,2.4-2.4,1.5-3,3.9-2.2,6.9,1.1,3,3.2,4.5,6.9,4.1.6,0,1.5-.2,2.6-.4s1.9-.4,2.8-.6l6.3-1.7,6.3-1.9,12.9-3.7c1.7-.6,3.5-1.1,5.2-1.3,1.7-.2,3.7-.4,5.4-.4,8.6,0,15.1,6,19.2,18.3,4.7,13.6,1.1,23.3-10.8,29.3-.6.4-1.7.9-3.2,1.5-1.3.6-2.6,1.1-3.5,1.3-2.4.9-5.4,1.9-9.1,3.2-3.7,1.3-5.8,2.2-6.5,2.4-.9.2-4.3,1.5-10.8,3.5-6.5,2.2,4.1-1.7.6-.4-1.5.4-3,1.1-4.5,1.3-1.5.4-3,.9-4.5,1.1-3.2,1.1-6.5,1.7-9.3,1.7s-5.6-.6-8.2-1.5c-2.2-.9-4.1-2.4-6-4.7-1.9-2.4-3.5-5.4-4.7-8.8l-2.2-5.4,24.4-8.2h0ZM469.8,54.8l-7.5,29.8,6.5,1.5,35.2-22.9,28.5,7.1-48.7,30.2,34.5,51.1-28.9-7.3-26.1-37.7-6-1.3-7.3,29.3-24.2-6,19.8-79.8,24.4,6ZM705.1,270.3l-18.1,6.9,7.1,18.3c.2.6.6,1.9,1.3,3.5.6,1.7,1.1,3,1.5,3.9.4,1.1.9,1.9,1.3,2.6s.9,1.3,1.5,1.9c1.9,1.9,5.2,1.9,9.7.2,3-1.3,5.2-2.8,6-5.2.6-1.7.4-4.3-1.1-7.8l-2.6-6.9-6.7-17.5h0ZM736.6,292.5c1.1,2.6,1.7,4.3,1.9,5.4s.6,2.4,1.3,4.3c1.9,7.5,1.3,13.4-2.2,17.7-1.3,1.7-2.8,3-4.5,4.3-1.7,1.1-3.5,2.2-5.2,3s-3.7,1.7-5.8,2.6c-6.3,2.4-11.4,3.5-15.3,2.8-3.9-.4-8-3.7-12.3-9.3.6,7.1,0,12.1-1.9,14.5-1.9,2.6-6.3,5.2-12.9,7.8l-9.5,3.7-9.1-23.3,7.1-2.8c4.7-1.9,7.8-3.7,8.8-5.4,1.1-1.9.9-5.2-1.1-10.1l-8.6-22.6-19.2,7.3-9.1-23.3,77-29.5,20.5,53.1h0ZM608.9,112.8l62.6,59.3-13.4,14-44.2-42.1-7.8,8.2,42.1,39.9-12.5,12.9-41.8-39.9-10.4,10.8,44.9,42.5-13.2,14-63-60,56.7-59.7Z"/>
</svg>