<?xml version="1.0" encoding="UTF-8"?>
<svg id="Layer_1" xmlns="http://www.w3.org/2000/svg" version="1.1" viewBox="0 0 348.1 364.4">
  <!-- Generator: Adobe Illustrator 29.0.1, SVG Export Plug-In . SVG Version: 2.1.0 Build 192)  -->
  <defs>
    <style>
      .st0 {
        fill: #e3b000;
      }
    </style>
  </defs>
  <path class="st0" d="M295.2,62.2C206.5-59.5,14.6,10,24.5,161.9c4.4,68.5,64.1,130.4,132.9,136.4,8.6.7,24.2.7,32.8,0,112.5-9.8,171.4-145.1,105-236.2ZM55.8,235.7C-12.2,143.1,49.8,11.4,163.9,3.9c117.6-7.8,196.4,120.8,134.6,221.7-54,88.3-181.5,93.6-242.8,10.1Z"/>
  <path class="st0" d="M316.1,229.7c-18.6,3.4-9.1,35.2,10.1,24.3,12.4-7,5.2-27.1-10.1-24.3ZM326,250.5c-10.1,8-23.4-5.3-14.8-14.7,10.3-11.2,25.9,4.9,14.8,14.7Z"/>
  <path class="st0" d="M261.3,64.9c-13.1-4-30.1-3.8-39,8.1-5.5,7.4-1.4,7.8-11.7,11.8-6.7,2.6-13.9,3.8-20.6,6.3-3.1,1.1-15.3,7.8-16.2,7.9-.8,0-8.3-3.8-11.8-3.9-6.4-.3-13.7,3.7-16.7,9.3-1.8,3.3-1.6,6.1-3.4,9.1-5.2-.5-19.7-7.2-22.5-1.3-2.4,5.1,7.5,5.5,4,10.7-.5.7-15.4,6.4-16.2,6.6-.8.1-8.9-4.7-11.9-5.4-14.6-3.5-27.6,2.1-41.4,5.8-5.5,1.5-13.4,1.2-17.5,5.6,5.7-1.9,12.2-1.7,17.9-2.7,13.5-2.6,27.9-9,41.9-5.3,7.9,2.1,9.7,6.2,14.3,12.2,1.3-2-1.9-8-1.7-8.4.5-.6,12.7-4.4,14.9-5.7,8.3-5-2.9-10.7-3-11.5-.7-6.3,19.5,1.2,22.9.5,4.6-8.1,8.7-16.9,19.5-16.9,3.9,0,8.6,2.6,11.4,2.2,3-.4,8.7-4.3,12.1-5.5,8.5-3.2,27.1-5.9,33.5-10,.6-.4,2.1-4.9,3-6.4,6.3-10.4,16.3-13.1,28.1-11.8,3.9.4,17.1,3.7,18.7,7.3,1.8,4-2.2,18.5-5,21.8-4.5,5.5-18.6,8.1-25.4,11.6-6.6,3.3-23.9,19-26.5,25.6-3.8,9.7-.1,24.4-1.4,34.6-.2,1.6-1.6,1.1-1.7,1.8-1.6,6.8,2.7,19.8,2.5,27.1l2.5-5c.2,3.4.6,8.9,1.9,12,.4,1,6.7,10.4,7.4,11.1,3.7,3.4,17,8,22.2,9,1.4.3,4.4-.2,4.6,0,2.8,2.2-1.6,3.3-3.2,4.6-1.8,1.5-1.4,3.4-4.8,3.4-6.3,0-5.2-7.7-15.1-4.8-8.1,2.4-10.9,5.9-21,5.1-6.4-.5-8.1-4.7-13.2-6.2-6.3-1.9-5.7,2.2-8.8,6.1-4.3,5.5-4.8,3.6-11.3,2.6.7,2,3.2,2.4,5,2.5-5.6,5.1-16.5,10.9-23.1,5v2.5c-1.4-.9-6.3-6.5-7.2-5.9l1.3,4.2-8-10.9c.2,2.7,2,6.5,3.5,8.7,2.9,4.2,9.7,5.5,2,8l-5.5-.7c.9,2.7,4.1,1,5.9,2.1-.6,3.8-2.9,5-4.9,7.7-2.2,3-.5,5.5-6,4.5l2.5,2.5h-6.7s4.2,1.7,4.2,1.7c2.1,1.7-10,.7-10.9.8.3,2.3,7.7.5,6.7,2.9-1.9,2.2-4.4,4.1-6.3,6.3-.6.7-2.2,1.7-.8,2.5,4.5-5.6,12-9.1,16.4-14.7,1.3-1.6,5.8-7.9,6.6-9.3.9-1.6.6-3.5,1.8-4.9,3.5-4.4,11.3-2.4,16.2-3.2,9.2-1.4,20-10.5,24.7-18.3,2.7-.4,7.7,4.4,10.4,5.5,5.3,2,11.5,1.3,16.8,0,3.9-.9,11.1-5.4,13.9-5.4,3.7,0,4.2,6.6,12.6,4.9.8-.2,7.6-5.5,8.1-6.2,2.2-3.2-1-4.5-.5-5.5,1.3-2.9,6.9-5.1,8-11.4.9-5.2-5.4,1.6-6.7.5,4-5.9,9.5-12.7,6.7-20.1-3.5,3.9-8.6,5.3-12.5,8-3.9,2.7-13.8,12.9-17.8,12.5-5.3-.5-9.9-4.3-11.7-9.3-1.2-3.2-1.9-9.8-2.4-13.5-1.7-11.4-4-44.5,0-54.4,1.8-4.4,21.9-23.5,25.7-23.8,1.9-.2,3.5,2.2,4.1,2.2.9,0,1.8-2.8,2.9-2,3,3.7,2.7,5.9,1.8,10.2-.6,3,4.6-1.4,5.4-2.2,5.1-5.3,5.1-13.8,7.4-16.6.6-.8,3.1-2,4.4-3.6,3-3.6,6.9-16.1,7.1-20.7.4-7.4-7.1-10.3-13-12.1ZM245.3,206.8l13.1-12.6c.7,8.1-12.8,22.2-20,23.4-2.6.4-4.5-1.2-6.9-1.5l13.8-9.2ZM253.3,115.3c.4-3.6-2.1-6.3-4.2-8.8,0-1.2,9.5-4.3,10.1-3.8.8.8-3.3,11.9-5.9,12.6Z"/>
  <path class="st0" d="M183.5,136.3c-1.5,4.9-2.7,10-2.5,15.1l1.7-1.7c-.4,4.7-1.1,9.1-.8,13.8.5,7.6,3.1,16.4,5.8,22.9.7,1.6,0,5.2,1.7,6.1-.5-5.9-.4-13.7-2.1-19.4-.7-2.2-2.1-2.6-2.2-3.7-.5-4.3,2-9.7.9-14.2-.2-.6-1.5-.5-1.6-1.2-.5-2,.3-4.8,0-7l-1.7,1.7c.1-1,3.6-14.7.8-12.6Z"/>
  <path class="st0" d="M208.7,122.9c11.1-9.3,17.2-20.6,32-24.8,9.1-2.6,19.8-1.8,26.1-10.5-3.5.7-6.3,3.1-9.6,4.2-17,5.6-21,2.5-36.2,15.9-4.5,3.9-10.1,9.5-12.2,15.1Z"/>
  <path class="st0" d="M125.3,181.4l3.5,6.1-5-19.3-2.5,2.5c-.8-3.8-.7-10.2-1.7-13.7-.2-.7-1.3-.6-1.4-.8-.6-2.6-.7-5.5-.3-8.2-4.3,1.8-2.3,10.6-1.3,14.3.3,1.1,1.6,2,1.9,3.2,1.1,3.9,2.2,10.2,4,13.6,1.4,2.5,1-1.5,2.1-.8l.7,3.1Z"/>
  <path class="st0" d="M150.7,106.9l8.4-2.5.8,4.2c-1,.7-5.9-1.6-5,1.7,1.5,1.1,14-1,12.2-5l-2.1,1.7.8-4.2,3.4,1.7c-4.7-7.8-15.4-5.4-18.5,2.5Z"/>
  <path class="st0" d="M238.9,76.6c.3-.2.6-3.3.9-4.1l2.5,2.5c.4-9.5-15.7-5.2-14.3,3.4l1.7-3.3h.8c-1.2,2.6,8,1.9,8.3,1.6Z"/>
  <path class="st0" d="M94.3,146.8c-.6-.7-.2-1.9-.8-2.5-5.3-5.9-13-9-21-8l7.2,1.6c1.5.4,7.3,3.3,8.3,4.2.6.6-.2,1.4.5,2.1,4.7,4.2,9.7,8,14.3,12.2-.2-4.7-6.2-7-8.4-9.6Z"/>
  <path class="st0" d="M157.4,204.3c.4,2.1,10.6,27,12.6,25.2l.4-1.7c2.1,2.1,3.8,4.3,6.9,4.9,1.6.3,1.6-1.1,1.1-1.5-.2-.2-2-.3-2.8-1-2-1.6-5.8-4.1-7-5.2-3.2-2.9-6.6-17.4-11.2-20.8Z"/>
  <path class="st0" d="M341.3,334c-10.4-7.6-26.5-2-27.7,11.3-1.9,21.8,27.6,26,33.7,6.3v-8.4c-1.6-3.5-2.8-6.9-6.1-9.3ZM328.2,357.3c-9.8-2.4-9.3-18.3.3-19.9,15.8-2.6,14.4,23.4-.3,19.9Z"/>
  <polygon class="st0" points="181.9 350.5 167.9 331.4 160.2 331.3 160.2 363.7 167.5 363.7 167.5 343.9 181.9 363.4 189.1 363.7 189.1 331.3 181.9 331.3 181.9 350.5"/>
  <path class="st0" d="M120.7,333.8c-.8-.5-5.5-2.5-5.9-2.5h-17.2v32.4h16.5c.7,0,5.3-1.8,6.1-2.3,9.8-5.7,10.3-21.8.4-27.7ZM105.5,357.1v-19.2c5.4,0,11.5-.9,14,5,4.2,9.9-4.6,16.1-14,14.2Z"/>
  <path class="st0" d="M32.1,345.7H15.8v6h8.4c-.2,1.1.5,3.6-.4,4.3-4.6,3.6-12.4,1.4-14.7-3.9-4.2-10.1,6.2-19.3,14.8-12.3.6.5.8,1.8,1.2,1.8,1.6,0,4.5-2.8,6.3-3.1-6.5-12.9-28.5-8.8-30.5,5.3-2.3,15.6,11.9,25.3,25.7,18.5,1.1-.5,5.1-3.3,5.4-4.2.8-2.8-.6-9.1,0-12.3Z"/>
  <path class="st0" d="M48.8,330.8c-18.7,2.7-18.3,31.9,1.7,33.5,25.3,1.9,24.5-37.3-1.7-33.5ZM50.1,357.4c-10-2-9.6-18.3-.1-20,15.3-2.7,15.1,23,.1,20Z"/>
  <polygon class="st0" points="228.8 343.9 214.4 343.9 214.4 331.3 207.2 331.3 207.2 363.7 214.4 363.7 214.4 350.5 228.8 350.5 228.8 363.7 236.7 363.7 236.7 331.3 228.8 331.3 228.8 343.9"/>
  <polygon class="st0" points="132 363.7 155.4 363.7 155.4 357.1 139.8 357.1 139.8 350.5 154.8 350.5 154.8 343.9 139.8 343.9 139.8 337.9 155.4 337.9 155.4 331.3 132 331.3 132 363.7"/>
  <path class="st0" d="M277,332.8c-.5-.3-3-1.5-3.3-1.5h-18.4v32.4h7.2v-11.4h10.5c.3,0,3.6-1.6,4.1-1.9,6.1-4,5.8-13.7-.2-17.6ZM271.3,345.7h-8.7v-7.8h8.7c3.4,0,3.4,7.8,0,7.8Z"/>
  <path class="st0" d="M307.3,333.2c-.5-.3-3.8-1.9-4.1-1.9h-17.8v32.4h7.2v-11.4h10.5c.2,0,3.3-1.4,3.7-1.7,5.8-3.6,6.2-13.7.4-17.4ZM304,342.2c-.7,4.7-8,3.3-11.3,3.4v-7.8c2.4.4,6.7-.6,8.7,0,1,.3,2.8,3.1,2.6,4.4Z"/>
  <polygon class="st0" points="80.2 331.3 73 331.3 73 363.7 94 363.7 94 357.1 80.2 357.1 80.2 331.3"/>
  <rect class="st0" x="242.1" y="331.3" width="7.2" height="32.4"/>
  <path class="st0" d="M317.4,244.6h2.4c.6,0,1.1.1,1.4.4.3.3.5.7.6,1.2,0,.2,0,.8,0,1.6,0,.9.1,1.5.3,2h3.8v-.5c-.3-.2-.5-.8-.6-2,0-.5,0-.9,0-1.2,0-1-.2-1.7-.4-2.1-.3-.4-.7-.7-1.3-1,.8-.4,1.3-.9,1.7-1.4s.5-1.2.5-2c0-1.3-.4-2.3-1.3-3-.8-.6-2.2-1-3.9-1h-6.7v14h3.6v-5.2ZM317.4,238.6h2.8c.7,0,1.2.1,1.5.4s.5.6.5,1.1-.2,1-.5,1.3-.9.4-1.6.4h-2.7v-3.2Z"/>
</svg>