<?xml version="1.0" encoding="UTF-8"?>
<svg id="Layer_1" xmlns="http://www.w3.org/2000/svg" version="1.1" viewBox="0 0 2500 1376">
  <!-- Generator: Adobe Illustrator 29.0.1, SVG Export Plug-In . SVG Version: 2.1.0 Build 192)  -->
  <defs>
    <style>
      .st0 {
        stroke-width: 18.6px;
      }

      .st0, .st1 {
        stroke: #dfae4b;
      }

      .st0, .st1, .st2 {
        fill: none;
        stroke-miterlimit: 33.9;
      }

      .st3 {
        fill: #b33c3a;
      }

      .st3, .st4, .st5, .st6 {
        fill-rule: evenodd;
      }

      .st4 {
        fill: #373739;
      }

      .st5 {
        fill: #fff;
      }

      .st1, .st2 {
        stroke-linecap: round;
        stroke-width: 13.2px;
      }

      .st2 {
        stroke: #373739;
      }

      .st6 {
        fill: #005944;
      }
    </style>
  </defs>
  <path class="st6" d="M0,688C0,308,559.6,0,1250,0s1250,308,1250,688-559.6,688-1250,688S0,1068,0,688h0Z"/>
  <path class="st0" d="M80.2,688C80.2,341.3,604,60.2,1250,60.2s1169.8,281.1,1169.8,627.9-523.7,627.8-1169.8,627.8S80.2,1034.8,80.2,688h0Z"/>
  <path class="st2" d="M949.1,705.2h1097.3M461.9,708.5h260.2"/>
  <path class="st4" d="M1246.9,736.6c11.7,0,21.2,2.1,23.9,6.8,2.4,4.5,4.7,13.5,4.7,18.1s-1.5,3.9-7.6,3.9c-15.3,0-13.5-9.9-26.7-9.9s-22.4,15.7-22.4,31.5,8.9,34.6,25.9,34.6,11-9.6,24-9.6,9.9,1.2,9.9,4.1-3.9,12.5-6.5,17.6c-2.2,4-15.7,6.7-29.2,6.7-31.1,0-49.6-20.5-49.6-49.9s21.5-53.9,53.4-53.9h0ZM1395.2,736.6c30.1,0,49,22.4,49,52s-18.9,51.8-49,51.8-49-22.4-49-51.8,19-52,49-52ZM1395.2,821.6c16.1,0,23.5-14.4,23.5-33s-7.4-33.2-23.5-33.2-23.5,14.4-23.5,33.2,7.4,33,23.5,33ZM1526.4,759.6c0-3-1.5-4.3-5.5-4.3s-6.4-1.3-6.4-5v-7.7c0-3.1,1.5-4.2,5.2-4.2h62c2.2,0,3.1,1,3.9,2.8.7,1.6,6.7,16.3,6.7,18.8s-2.4,4.5-9.4,4.5c-10.2,0-9.3-8.6-23.1-8.6h-10.8v21.6h9.3c13.9,0,5.6-4.5,17.6-4.5s7.1.7,7.6,2.1c1.3,3.6,7.9,19,7.9,21.6s-1.6,4.2-7.3,4.2c-16.4,0-6.7-5.9-24.3-5.9h-10.8v22.5c0,3.1,1.5,4.3,5.1,4.3,7.4,0,8.7,1.2,8.7,4.6v8.2c0,3.1-1.5,4.1-5.2,4.1h-37.9c-3.7,0-5.2-1-5.2-4.1v-7.7c0-3.7,1.5-5.1,6.4-5.1s5.5-1.3,5.5-4.3v-57.9h0ZM1670.9,759.6c0-3-1.5-4.3-5.5-4.3s-6.4-1.3-6.4-5v-7.7c0-3.1,1.5-4.2,5.2-4.2h62c2.2,0,3.1,1,3.9,2.8.7,1.6,6.7,16.3,6.7,18.8s-2.4,4.5-9.3,4.5c-10.2,0-9.3-8.6-23.1-8.6h-10.8v21.6h9.3c13.9,0,5.7-4.5,17.6-4.5s7.1.7,7.6,2.1c1.4,3.6,7.9,19,7.9,21.6s-1.6,4.2-7.3,4.2c-16.4,0-6.7-5.9-24.3-5.9h-10.8v22.5c0,3.1,1.5,4.3,5.1,4.3,7.4,0,8.7,1.2,8.7,4.6v8.2c0,3.1-1.5,4.1-5.2,4.1h-37.9c-3.7,0-5.2-1-5.2-4.1v-7.7c0-3.7,1.5-5.1,6.4-5.1s5.5-1.3,5.5-4.3v-57.9h0ZM1838.1,777.5h10.4c13.9,0,5.6-4.5,17.6-4.5s7.1.7,7.6,2.1c1.3,3.6,7.8,19,7.8,21.6s-1.6,4.2-7.2,4.2c-16.4,0-6.7-5.9-24.3-5.9h-11.8v26.2h18.7c13.5,0,8.4-9,22.5-9s9,1.5,9,3.9-6.7,18.2-7.6,20.4c-.6,1.5-1.6,2.2-4.9,2.2h-67.1c-3.7,0-5.2-1-5.2-4.1v-7.7c0-3.7,1.5-5.1,6.4-5.1s5.5-1.3,5.5-4.3v-57.9c0-3-1.5-4.3-5.5-4.3s-6.4-1.3-6.4-5v-7.7c0-3.1,1.5-4.2,5.2-4.2h63.1c2.2,0,3.1,1,3.9,2.8.7,1.6,6.7,16.3,6.7,18.8s-2.4,4.5-9.3,4.5c-10.2,0-9.3-8.6-23.1-8.6h-11.8v21.6h0ZM1990.7,777.5h10.4c13.9,0,5.6-4.5,17.6-4.5s7.1.7,7.6,2.1c1.3,3.6,7.8,19,7.8,21.6s-1.6,4.2-7.2,4.2c-16.4,0-6.7-5.9-24.3-5.9h-11.9v26.2h18.7c13.5,0,8.4-9,22.5-9s9,1.5,9,3.9-6.7,18.2-7.6,20.4c-.6,1.5-1.6,2.2-4.9,2.2h-67.1c-3.7,0-5.2-1-5.2-4.1v-7.7c0-3.7,1.5-5.1,6.4-5.1s5.5-1.3,5.5-4.3v-57.9c0-3-1.5-4.3-5.5-4.3s-6.4-1.3-6.4-5v-7.7c0-3.1,1.5-4.2,5.2-4.2h63.1c2.2,0,3.1,1,3.9,2.8.7,1.6,6.7,16.3,6.7,18.8s-2.4,4.5-9.3,4.5c-10.2,0-9.3-8.6-23.1-8.6h-11.9v21.6h0ZM1216.7,884.6c0-3-1.5-4.3-5.5-4.3s-6.7-1.3-6.7-5v-7.7c0-3.1,1.5-4.2,5.2-4.2h43.5c20,0,32.9,9.3,32.9,27.3s-7.6,23.9-20.7,27.6l24.9,36.4c1,1.5,1.3,2.7,1.3,4.5,0,3.1-7.7,7.7-10.8,7.7s-3.6-1.3-4.9-3.1l-36.3-45.9h-.3v24.7c0,3,1.5,4.3,7,4.3s6.7,1.4,6.7,5.1v7.7c0,3.1-1.5,4.1-5.2,4.1h-38.1c-3.7,0-5.2-1-5.2-4.1v-7.7c0-3.7,1.5-5.1,6.7-5.1s5.5-1.3,5.5-4.3v-57.9ZM1239.4,902.8h8.7c10.1,0,14.5-2.9,14.5-10.9s-4.4-11-14.5-11h-8.7v21.9h0ZM1363.9,861.6c30.1,0,49,22.4,49,52s-18.9,51.8-49,51.8-49-22.4-49-51.8,19-52,49-52ZM1363.9,946.7c16.1,0,23.5-14.4,23.5-33s-7.4-33.2-23.5-33.2-23.5,14.4-23.5,33.2,7.4,33,23.5,33ZM1467.7,932.3l-2.1,6.5c-.3,1.2-.6,2.8-.6,4.7s1.3,3.2,3.9,3.2c5.8,0,8.2,1.4,8.2,5.3v7.6c0,3.3-2.2,4-5.3,4h-33.8c-3,0-4.8-.7-4.8-4v-7.4c0-3.9,1.9-5.5,5.6-5.5s4.8-3.9,6.4-9l15.1-48c.6-1.6,1.3-3.9,1.3-5.9s-2.5-3.6-4.4-3.6-4.5-1.6-4.5-5.2v-7.6c0-3.1,1.5-4.2,5.2-4.2h51.7c3.5,0,5.2,1,5.2,4.2v8.3c0,2.4-2,4.5-4.9,4.5s-4,1.6-4,3.6.6,4,1.3,5.9l16.6,48.9c2,5.5,3.6,8.1,6.5,8.1s5.5,1.6,5.5,5.5v7.4c0,3.3-1.7,4-4.7,4h-35.2c-3.1,0-5.3-.7-5.3-4v-7.6c0-4,2.5-5.3,6.7-5.3s5.3-1,5.3-3.5-.5-3.1-.9-4.7l-1.8-6.2h-32.2s0,0,0,0ZM1494.2,915.4l-10.7-34.6h-.3l-10.7,34.6h21.6ZM1590.3,861.6c10.4,0,23.3,2.8,26.4,8.6,1.9,3.7,5.2,13,5.2,16.8s-1,2.8-9.8,2.8c-17.8,0-11.8-10.7-23.8-10.7s-9.3,3-9.3,9.2c0,18.2,47.7,11.3,47.7,45.5s-19.1,31.7-39.4,31.7-24.6-1.4-28.7-9.5c-2.1-4-5.3-11.8-5.3-15.7s1.4-4.5,9.6-4.5c19.3,0,15,12.1,28.6,12.1s12.6-3.3,12.6-11c0-19.1-47.7-13.8-47.7-46.8,0-20.9,15.1-28.6,34.1-28.6h0ZM1670.7,963.7c-3.7,0-5.2-1-5.2-4.1v-7.7c0-3.7,1.5-5.1,6.7-5.1s7-1.3,7-4.3v-59.7c-17.6,0-7.9,5.9-24.3,5.9s-7.3-1.6-7.3-4.1,6.5-18.1,7.9-21.6c.5-1.4,2.5-2.1,7.6-2.1,12,0,3.7,4.5,17.6,4.5h26.6c12.9,0,5.3-4.5,20-4.5s7.2,1.6,7.2,4.1-6.5,18.1-7.8,21.6c-.4,1.3-2.5,2.1-7.6,2.1-8.2,0-5.6-5.9-17.3-5.9v59.7c0,3,1.5,4.3,7.8,4.3s6.7,1.4,6.7,5.1v7.7c0,3.1-1.5,4.1-5.2,4.1h-40.4,0ZM1789.3,902.5h10.4c13.9,0,5.6-4.5,17.6-4.5s7.1.7,7.6,2.1c1.3,3.5,7.8,18.9,7.8,21.6s-1.6,4.1-7.3,4.1c-16.4,0-6.7-5.9-24.3-5.9h-11.9v26.2h18.7c13.5,0,8.4-9,22.5-9s9,1.5,9,3.9-6.7,18.2-7.6,20.4c-.6,1.5-1.6,2.2-4.9,2.2h-67.1c-3.7,0-5.2-1-5.2-4.1v-7.7c0-3.7,1.5-5.1,6.4-5.1s5.5-1.3,5.5-4.3v-57.9c0-3-1.5-4.3-5.5-4.3s-6.4-1.3-6.4-5v-7.7c0-3.1,1.5-4.2,5.2-4.2h63.1c2.2,0,3.1,1,3.9,2.8.7,1.6,6.7,16.3,6.7,18.8s-2.4,4.4-9.3,4.4c-10.2,0-9.3-8.6-23.1-8.6h-11.9v21.6h0,0ZM1870.9,884.6c0-3-1.5-4.3-5.5-4.3s-6.7-1.3-6.7-5v-7.7c0-3.1,1.5-4.2,5.2-4.2h43.5c20,0,32.9,9.3,32.9,27.3s-7.6,23.9-20.8,27.6l24.9,36.4c1,1.5,1.3,2.7,1.3,4.5,0,3.1-7.7,7.7-10.8,7.7s-3.6-1.3-4.9-3.1l-36.3-45.9h-.3v24.7c0,3,1.5,4.3,7,4.3s6.7,1.4,6.7,5.1v7.7c0,3.1-1.5,4.1-5.2,4.1h-38.1c-3.7,0-5.2-1-5.2-4.1v-7.7c0-3.7,1.5-5.1,6.7-5.1s5.5-1.3,5.5-4.3v-57.9h0,0ZM1893.6,902.8h8.7c10.1,0,14.5-2.9,14.5-10.9s-4.5-11-14.5-11h-8.7v21.9h0ZM2003.3,861.6c10.4,0,23.3,2.8,26.4,8.6,1.9,3.7,5.2,13,5.2,16.8s-1,2.8-9.8,2.8c-17.8,0-11.8-10.7-23.8-10.7s-9.3,3-9.3,9.2c0,18.2,47.7,11.3,47.7,45.5s-19.1,31.7-39.4,31.7-24.6-1.4-28.7-9.5c-2.1-4-5.3-11.8-5.3-15.7s1.4-4.5,9.6-4.5c19.2,0,15,12.1,28.6,12.1s12.6-3.3,12.6-11c0-19.1-47.7-13.8-47.7-46.8,0-20.9,15.1-28.6,34.1-28.6h0Z"/>
  <path class="st5" d="M1254.1,729.4c11.7,0,21.2,2.1,23.9,6.8,2.4,4.5,4.7,13.5,4.7,18.1s-1.5,3.9-7.6,3.9c-15.3,0-13.5-9.9-26.7-9.9s-22.4,15.7-22.4,31.5,8.9,34.6,25.9,34.6,11-9.6,24-9.6,9.9,1.2,9.9,4.1-3.9,12.4-6.5,17.6c-2.2,4-15.7,6.7-29.2,6.7-31.1,0-49.6-20.6-49.6-49.9,0-32.3,21.5-53.9,53.4-53.9h0ZM1402.3,729.4c30.1,0,49,22.4,49,52s-19,51.8-49,51.8-49-22.4-49-51.8,18.9-52,49-52ZM1402.3,814.4c16.1,0,23.5-14.4,23.5-33s-7.4-33.2-23.5-33.2-23.5,14.4-23.5,33.2c0,18.7,7.4,33,23.5,33ZM1533.5,752.4c0-3-1.5-4.3-5.5-4.3s-6.3-1.3-6.3-5.1v-7.7c0-3.1,1.5-4.2,5.2-4.2h62c2.2,0,3.1,1,3.9,2.8.7,1.6,6.7,16.3,6.7,18.8s-2.4,4.5-9.3,4.5c-10.2,0-9.3-8.6-23.1-8.6h-10.8v21.7h9.3c13.9,0,5.6-4.5,17.6-4.5s7.1.7,7.6,2.1c1.4,3.6,7.9,19,7.9,21.6s-1.6,4.2-7.3,4.2c-16.4,0-6.7-5.9-24.3-5.9h-10.8v22.5c0,3.1,1.5,4.3,5.1,4.3,7.4,0,8.7,1.2,8.7,4.6v8.2c0,3.1-1.5,4.1-5.2,4.1h-37.9c-3.7,0-5.2-1-5.2-4.1v-7.7c0-3.7,1.5-5.1,6.3-5.1s5.5-1.3,5.5-4.3v-57.9h0ZM1678.1,752.4c0-3-1.5-4.3-5.5-4.3s-6.3-1.3-6.3-5.1v-7.7c0-3.1,1.5-4.2,5.2-4.2h62.1c2.2,0,3.1,1,3.9,2.8.7,1.6,6.7,16.3,6.7,18.8s-2.4,4.5-9.3,4.5c-10.2,0-9.3-8.6-23.1-8.6h-10.8v21.7h9.3c13.9,0,5.6-4.5,17.6-4.5s7.1.7,7.6,2.1c1.3,3.6,7.8,19,7.8,21.6s-1.6,4.2-7.3,4.2c-16.4,0-6.7-5.9-24.3-5.9h-10.8v22.5c0,3.1,1.5,4.3,5,4.3,7.4,0,8.8,1.2,8.8,4.6v8.2c0,3.1-1.5,4.1-5.2,4.1h-37.9c-3.7,0-5.2-1-5.2-4.1v-7.7c0-3.7,1.5-5.1,6.3-5.1s5.5-1.3,5.5-4.3v-57.9h0ZM1845.3,770.3h10.4c13.9,0,5.6-4.5,17.6-4.5s7.1.7,7.6,2.1c1.3,3.6,7.8,19,7.8,21.6s-1.6,4.2-7.3,4.2c-16.4,0-6.7-5.9-24.3-5.9h-11.8v26.2h18.7c13.5,0,8.4-9,22.5-9s9,1.5,9,3.9-6.7,18.2-7.6,20.4c-.6,1.5-1.6,2.2-4.9,2.2h-67.1c-3.7,0-5.2-1-5.2-4.1v-7.7c0-3.7,1.5-5.1,6.4-5.1s5.5-1.3,5.5-4.3v-57.9c0-3-1.5-4.3-5.5-4.3s-6.4-1.3-6.4-5.1v-7.7c0-3.1,1.5-4.2,5.2-4.2h63.1c2.2,0,3.1,1,3.9,2.8.7,1.6,6.7,16.3,6.7,18.8s-2.4,4.5-9.3,4.5c-10.2,0-9.4-8.6-23.1-8.6h-11.8v21.7h0ZM1997.9,770.3h10.4c13.9,0,5.6-4.5,17.6-4.5s7.1.7,7.6,2.1c1.3,3.6,7.8,19,7.8,21.6s-1.6,4.2-7.3,4.2c-16.4,0-6.7-5.9-24.3-5.9h-11.8v26.2h18.7c13.5,0,8.4-9,22.5-9s9,1.5,9,3.9-6.7,18.2-7.6,20.4c-.6,1.5-1.6,2.2-4.9,2.2h-67.1c-3.7,0-5.2-1-5.2-4.1v-7.7c0-3.7,1.5-5.1,6.4-5.1s5.5-1.3,5.5-4.3v-57.9c0-3-1.5-4.3-5.5-4.3s-6.4-1.3-6.4-5.1v-7.7c0-3.1,1.5-4.2,5.2-4.2h63.1c2.2,0,3.1,1,3.9,2.8.7,1.6,6.7,16.3,6.7,18.8s-2.4,4.5-9.3,4.5c-10.2,0-9.3-8.6-23.1-8.6h-11.8v21.7h0ZM1223.9,877.4c0-3-1.5-4.3-5.5-4.3s-6.7-1.3-6.7-5v-7.7c0-3.1,1.5-4.2,5.2-4.2h43.5c20,0,32.9,9.3,32.9,27.3s-7.6,23.8-20.7,27.5l24.9,36.4c1,1.5,1.3,2.7,1.3,4.5,0,3.1-7.7,7.7-10.8,7.7s-3.6-1.4-4.9-3.1l-36.3-45.9h-.3v24.8c0,3,1.5,4.3,7,4.3s6.7,1.4,6.7,5.1v7.7c0,3.1-1.5,4.1-5.2,4.1h-38.1c-3.7,0-5.2-1-5.2-4.1v-7.7c0-3.7,1.5-5.1,6.7-5.1s5.5-1.3,5.5-4.3v-57.9ZM1246.5,895.6h8.7c10.1,0,14.5-3,14.5-11s-4.5-10.9-14.5-10.9h-8.7v21.9h0ZM1371.1,854.5c30.1,0,49,22.4,49,52s-19,51.8-49,51.8-49-22.3-49-51.8,19-52,49-52ZM1371.1,939.5c16.1,0,23.5-14.4,23.5-33s-7.4-33.2-23.5-33.2-23.5,14.4-23.5,33.2c0,18.7,7.4,33,23.5,33ZM1474.9,925.1l-2.1,6.5c-.3,1.2-.6,2.8-.6,4.7s1.3,3.2,3.9,3.2c5.8,0,8.2,1.4,8.2,5.3v7.6c0,3.3-2.2,4-5.3,4h-33.8c-2.9,0-4.7-.7-4.7-4v-7.4c0-3.9,2-5.5,5.7-5.5s4.7-3.9,6.3-9l15.1-48c.6-1.6,1.3-3.9,1.3-5.9s-2.5-3.6-4.5-3.6-4.4-1.6-4.4-5.2v-7.6c0-3.1,1.5-4.2,5.2-4.2h51.7c3.5,0,5.2,1,5.2,4.2v8.3c0,2.4-1.9,4.5-4.9,4.5s-4,1.6-4,3.6.6,4,1.3,5.9l16.6,48.9c1.9,5.5,3.5,8.1,6.5,8.1s5.5,1.6,5.5,5.5v7.4c0,3.3-1.8,4-4.8,4h-35.2c-3.1,0-5.3-.7-5.3-4v-7.6c0-4,2.5-5.3,6.7-5.3s5.3-1,5.3-3.6-.5-3.1-.9-4.7l-1.8-6.2h-32.2s0,0,0,0ZM1501.4,908.2l-10.7-34.7h-.3l-10.7,34.7h21.6ZM1597.5,854.5c10.4,0,23.3,2.8,26.4,8.6,1.9,3.7,5.2,13,5.2,16.7s-1,2.8-9.8,2.8c-17.8,0-11.9-10.7-23.9-10.7s-9.3,3-9.3,9.2c0,18.2,47.7,11.3,47.7,45.4s-19.1,31.7-39.4,31.7-24.6-1.3-28.7-9.5c-2.1-4-5.3-11.8-5.3-15.7s1.4-4.5,9.6-4.5c19.3,0,15,12.1,28.6,12.1s12.6-3.2,12.6-10.9c0-19.1-47.7-13.8-47.7-46.8s15.1-28.5,34.1-28.5h0ZM1677.9,956.5c-3.7,0-5.2-1-5.2-4.1v-7.7c0-3.7,1.5-5.1,6.7-5.1s7-1.3,7-4.3v-59.7c-17.6,0-7.9,5.9-24.3,5.9s-7.2-1.6-7.2-4.1,6.5-18.1,7.8-21.6c.5-1.4,2.5-2.1,7.6-2.1,12,0,3.7,4.4,17.6,4.4h26.7c12.9,0,5.3-4.4,20-4.4s7.3,1.6,7.3,4.1-6.5,18.1-7.9,21.6c-.4,1.3-2.5,2.1-7.6,2.1-8.2,0-5.6-5.9-17.3-5.9v59.7c0,3,1.5,4.3,7.8,4.3s6.7,1.4,6.7,5.1v7.7c0,3.1-1.5,4.1-5.2,4.1h-40.4,0ZM1796.5,895.3h10.4c13.9,0,5.6-4.5,17.6-4.5s7.1.7,7.5,2.1c1.4,3.6,7.9,19,7.9,21.7s-1.6,4.1-7.3,4.1c-16.4,0-6.7-5.9-24.3-5.9h-11.9v26.2h18.7c13.5,0,8.4-9,22.5-9s9,1.5,9,3.9-6.7,18.2-7.6,20.4c-.6,1.5-1.6,2.2-4.9,2.2h-67.1c-3.7,0-5.2-1-5.2-4.1v-7.7c0-3.7,1.5-5.1,6.4-5.1s5.5-1.3,5.5-4.3v-57.9c0-3-1.5-4.3-5.5-4.3s-6.4-1.3-6.4-5v-7.7c0-3.1,1.5-4.2,5.2-4.2h63.1c2.2,0,3.1,1,3.9,2.8.7,1.6,6.7,16.3,6.7,18.8s-2.4,4.5-9.3,4.5c-10.2,0-9.3-8.6-23.1-8.6h-11.9v21.6h0ZM1878.1,877.4c0-3-1.5-4.3-5.5-4.3s-6.7-1.3-6.7-5v-7.7c0-3.1,1.5-4.2,5.2-4.2h43.5c20,0,32.9,9.3,32.9,27.3s-7.6,23.8-20.7,27.5l24.9,36.4c1,1.5,1.3,2.7,1.3,4.5,0,3.1-7.7,7.7-10.8,7.7s-3.6-1.4-4.9-3.1l-36.3-45.9h-.3v24.8c0,3,1.5,4.3,7,4.3s6.7,1.4,6.7,5.1v7.7c0,3.1-1.5,4.1-5.2,4.1h-38c-3.7,0-5.2-1-5.2-4.1v-7.7c0-3.7,1.5-5.1,6.7-5.1s5.5-1.3,5.5-4.3v-57.9h0,0ZM1900.8,895.6h8.7c10.1,0,14.5-3,14.5-11s-4.5-10.9-14.5-10.9h-8.7v21.9h0ZM2010.5,854.5c10.4,0,23.3,2.8,26.4,8.6,1.9,3.7,5.2,13,5.2,16.7s-1,2.8-9.8,2.8c-17.8,0-11.8-10.7-23.8-10.7s-9.3,3-9.3,9.2c0,18.2,47.7,11.3,47.7,45.4s-19.1,31.7-39.4,31.7-24.6-1.3-28.7-9.5c-2.1-4-5.3-11.8-5.3-15.7s1.4-4.5,9.6-4.5c19.2,0,15,12.1,28.6,12.1s12.6-3.2,12.6-10.9c0-19.1-47.7-13.8-47.7-46.8,0-20.8,15.1-28.5,34.1-28.5Z"/>
  <path class="st4" d="M866.5,482.5c-35.5,58.3-51.3,125.4-64.2,193.5-4,8.9-17.1,15.2-28,10.3-29.6-25.7-49.6-62.4-35.8-104.9,9.9-49.4,49.9-95.9,98.3-115.7,22.6-11.5,38.7,2.1,29.6,16.8Z"/>
  <path class="st4" d="M932.7,545.7c6.9,60.2-30.6,113.5-83.9,140.2-11.8,4-36.5,17.8-40.5-4,9.9-40.5,30.3-72.2,39.5-117.5,6.7-33.1,15.5-84.3,41.5-92.8,30.6,8.9,40.5,44.4,43.5,74ZM991.9,810.3c5.9,16.8,4.9,38.5-3,53.3-5.9,12.8-18.8,19.8-31.6,21.7l-10.9-6.9c-38.5-53.3-110.4-147.7-107.6-162.9,13.3-24.3,72.5-7,104.7,26.7,20.7,18.8,40.5,42.5,48.4,68.1ZM851.7,758.9c21.7,45.4,53.3,87.9,83.9,130.3,2,8.9-5.9,13.8-12.8,17.8-56.3,7.9-102.7-36.5-127.4-81-11.8-27.6-20.7-65.2-2-92.8,4-6.9,11.8-9.9,17.8-12.8,20.8,0,30.6,23.7,40.5,38.5h0ZM763.8,802.4c-47.1,39.5-106.4,77.7-180.7,112.5-12.8,1-16.8-9.8-14.8-21.7,7.3-56.4,56.3-99.7,105.7-118.5,42.4-16.9,88,5.3,89.8,27.7ZM789.5,841.9c1,38.5-30.6,66.1-59.2,89.9-36.5,25.7-95.4,39.6-128.4,28.6-9.9-6.9-18.8-17.4-13.8-27.6,17.2-21.8,121.5-73.1,179.7-114.5,14,.2,20.7,10.9,21.7,23.7h0ZM1183.5,914.9c3.9,8.9,7.9,20.8,1,29.6l-8.9,4.9c-50.7,4.6-88.1-.2-131.3-6.9-26.7-3-72.4,6.6-77-16.8,3-38.5,45.4-48.4,73.1-60.3,54.3-13.8,108.6,7.9,143.2,49.4h0ZM939.6,957.4c18.8,17.8,24.1,37.9,21.1,64.6,0,0-4.9,9.9-21.1,7.5-66-9.7-117.5-54.3-182.7-66.1-4-3.9-5.9-9.8-3-14.8,29.6-38.5,67.1-36.9,110.5-33.9,21.4,3.4,51.8,19.5,75.1,42.8Z"/>
  <path class="st4" d="M1126,967.9c20.7-4.8,25.6-15.9,49.4-9.9,7.9,2,19.4,7.6,19.7,17.8,1,14.8-7.9,25.7-17.8,35.5-42.5,30.6-113.5,37.5-160.9,12.8-19.8-9.9-41.3-22.8-48.7-47.5l1.2-21c12.8-24.3,117.3,16.1,157.1,12.2ZM944.3,1045.3c6.9,15.8-9.9,26.6-19.8,34.6-37.5,28.6-95.8,22.7-133.3,0-33.6-24.7-71.2-67.7-54.3-104.7l1-1c19.2-7.8,140.2,43.4,206.4,71.1h0ZM1152.8,1114.4c-66.1,24.7-182.2,54.5-209.3,48.4-11.9-3.9-6.9-18.7-4-26.7,22.7-49.3,76-73,126.4-78,52.7-.4,94.7,44.1,86.9,56.3h0ZM1165.7,1147c-4.9,46.4-56.3,68.1-94.8,80-40.5,10.8-87.9,3.6-119.5-14.8-10.9-6.9-12.9-22.3-5.9-31.6,69.1-15.8,138.2-29.6,203.4-52.3,9.9,2,12.8,11.8,16.8,18.8h0Z"/>
  <path class="st3" d="M859.3,475.3c-35.5,58.3-51.3,125.4-64.2,193.5-4,8.9-17.1,15.2-28,10.3-29.6-25.7-49.6-62.5-35.8-104.9,9.9-49.4,49.9-95.9,98.3-115.7,22.6-11.5,38.7,2.1,29.6,16.8h0Z"/>
  <path class="st3" d="M925.5,538.5c6.9,60.2-30.6,113.5-83.9,140.2-11.8,4-36.5,17.8-40.5-4,9.9-40.5,30.3-72.2,39.5-117.5,6.7-33.1,15.5-84.3,41.5-92.8,30.6,8.9,40.5,44.4,43.4,74ZM984.7,803.1c5.9,16.8,4.9,38.5-3,53.3-5.9,12.8-18.8,19.8-31.6,21.7l-10.8-6.9c-38.5-53.3-110.4-147.7-107.6-162.9,13.2-24.3,72.5-7,104.7,26.7,20.7,18.8,40.5,42.5,48.4,68.1h0ZM844.5,751.7c21.7,45.4,53.3,87.9,83.9,130.3,2,8.9-5.9,13.8-12.8,17.8-56.3,7.9-102.7-36.5-127.4-81-11.8-27.6-20.7-65.2-2-92.8,4-6.9,11.8-9.9,17.8-12.8,20.7,0,30.6,23.7,40.5,38.5h0ZM756.7,795.2c-47.1,39.5-106.4,77.7-180.7,112.6-12.8,1-16.8-9.9-14.8-21.7,7.3-56.4,56.3-99.7,105.7-118.5,42.4-16.8,88,5.4,89.8,27.7ZM782.3,834.7c1,38.5-30.6,66.1-59.2,89.8-36.5,25.7-95.4,39.6-128.4,28.6-9.9-6.9-18.8-17.4-13.8-27.6,17.2-21.8,121.4-73.1,179.7-114.5,14,.2,20.7,10.9,21.7,23.7ZM1176.3,907.7c4,8.9,7.9,20.7,1,29.6l-8.9,4.9c-50.7,4.6-88.1-.3-131.3-6.9-26.7-3-72.4,6.6-77-16.8,3-38.5,45.4-48.4,73.1-60.2,54.3-13.8,108.6,7.9,143.2,49.4h0ZM932.4,950.2c18.8,17.8,24.1,37.9,21.2,64.6,0,0-4.9,9.9-21.2,7.5-66-9.6-117.5-54.3-182.6-66.1-4-3.9-5.9-9.9-3-14.8,29.6-38.5,67.1-36.9,110.5-33.9,21.4,3.4,51.8,19.5,75.1,42.8h0Z"/>
  <path class="st3" d="M1118.8,960.8c20.7-4.8,25.6-15.9,49.4-9.9,7.9,2,19.4,7.6,19.7,17.8,1,14.8-7.9,25.7-17.8,35.5-42.5,30.6-113.5,37.5-160.9,12.8-19.7-9.9-41.3-22.8-48.7-47.5l1.2-21c12.7-24.3,117.2,16,157.1,12.2ZM937.1,1038.1c6.9,15.8-9.9,26.6-19.7,34.5-37.5,28.6-95.8,22.7-133.3,0-33.6-24.7-71.2-67.7-54.3-104.6l1-1c19.2-7.8,140.2,43.4,206.3,71.1h0ZM1145.7,1107.2c-66.1,24.7-182.2,54.5-209.3,48.4-11.8-3.9-6.9-18.7-4-26.7,22.7-49.3,76-73.1,126.4-78,52.8-.3,94.7,44.1,86.9,56.3h0ZM1158.5,1139.8c-4.9,46.4-56.3,68.1-94.8,79.9-40.5,10.9-87.9,3.6-119.5-14.8-10.9-6.9-12.9-22.3-5.9-31.6,69.1-15.8,138.2-29.6,203.4-52.3,9.9,2,12.8,11.8,16.8,18.8h0Z"/>
  <path class="st4" d="M946.4,321.4c7.4,0,10.4,2.1,10.4,8.3v15.4c0,7.4-3,10.1-7.1,10.1-8,0-11,2.7-11,8.6v37.9c0,6.2-28.7,22.2-67.8,22.2-59.3,0-97.2-38.2-97.2-96.2s37-111.4,102.2-111.4,43.2,4.7,50.3,13.9c3,4.1,11,29.9,11,34.1,0,7.1-2.7,9.5-20.1,9.5-31.1,0-26.6-19.8-49.5-19.8s-43,28.7-43,72.3,20.4,62.2,47.1,62.2,17.8-1.2,23.1-3.9v-20.7c0-5.9-3-8.6-13.6-8.6s-13.3-2.7-13.3-10.1v-15.4c0-6.2,3-8.3,10.4-8.3h68.1,0ZM988.1,262.1c0-5.9-3-8.6-11-8.6s-13.3-2.7-13.3-10.1v-15.4c0-6.2,3-8.3,10.4-8.3h87.1c40,0,65.7,18.7,65.7,54.5s-15.1,47.7-41.5,55.1l49.8,72.9c1.9,2.6,2.8,5.7,2.7,8.9,0,6.2-15.4,15.4-21.6,15.4s-7.1-2.7-9.8-6.2l-72.6-91.8h-.6v49.5c0,5.9,3,8.6,13.9,8.6s13.3,2.7,13.3,10.1v15.4c0,6.2-3,8.3-10.4,8.3h-76.1c-7.4,0-10.4-2.1-10.4-8.3v-15.4c0-7.4,3-10.1,13.3-10.1s11-2.7,11-8.6v-115.8h0ZM1033.4,298.5h17.5c20.1,0,29-5.9,29-21.9s-8.9-21.9-29-21.9h-17.5v43.8h0ZM1222.9,298h20.7c27.8,0,11.2-8.9,35.2-8.9s14.2,1.5,15.1,4.1c2.7,7.1,15.7,37.9,15.7,43.2s-3.2,8.3-14.5,8.3c-32.9,0-13.3-11.9-48.6-11.9h-23.7v52.4h37.3c27,0,16.9-18.1,45-18.1s18.1,3,18.1,7.7-13.3,36.4-15.1,40.9c-1.2,3-3.2,4.4-9.8,4.4h-134.2c-7.4,0-10.4-2.1-10.4-8.3v-15.4c0-7.4,2.9-10.1,12.7-10.1s11-2.7,11-8.6v-115.8c0-5.9-3-8.6-11-8.6s-12.7-2.7-12.7-10.1v-15.4c0-6.2,2.9-8.3,10.4-8.3h126.2c4.4,0,6.2,2.1,7.7,5.6,1.5,3.2,13.3,32.6,13.3,37.6s-4.7,8.9-18.7,8.9c-20.4,0-18.7-17.2-46.2-17.2h-23.7v43.2h0,0ZM1410.4,298h20.8c27.8,0,11.3-8.9,35.2-8.9s14.2,1.5,15.1,4.1c2.7,7.1,15.7,37.9,15.7,43.2s-3.2,8.3-14.5,8.3c-32.9,0-13.3-11.9-48.6-11.9h-23.7v52.4h37.3c27,0,16.9-18.1,45-18.1s18.1,3,18.1,7.7-13.3,36.4-15.1,40.9c-1.2,3-3.2,4.4-9.8,4.4h-134.2c-7.4,0-10.4-2.1-10.4-8.3v-15.4c0-7.4,2.9-10.1,12.7-10.1s11-2.7,11-8.6v-115.8c0-5.9-3-8.6-11-8.6s-12.7-2.7-12.7-10.1v-15.4c0-6.2,2.9-8.3,10.4-8.3h126.2c4.4,0,6.2,2.1,7.7,5.6,1.5,3.2,13.3,32.6,13.3,37.6s-4.7,8.9-18.7,8.9c-20.4,0-18.7-17.2-46.2-17.2h-23.7v43.2h0,0ZM1550.4,262.1c0-6.8-3-8.6-8.6-8.6-10.1,0-12.7-2.4-12.7-11.6v-13.9c0-6.2,3-8.3,10.4-8.3h64.3c5,0,7.7,2.1,9.5,5.6l58.3,137.1h-.3.6v-100.4c0-6.8-3-8.6-8.6-8.6-11,0-13.6-2.4-13.6-11.6v-13.9c0-6.2,3-8.3,10.4-8.3h58c7.4,0,10.4,2.1,10.4,8.3v15.7c0,7.7-3.2,9.8-9.5,9.8s-10.4,1.8-10.4,8.6v149.6c0,6.2-3,8.6-8.6,8.6h-39.7c-5.6,0-8.9-2.1-11-7.1l-61.6-144.2h-.6v109c0,6.8,3,8.6,9.8,8.6s11.6,2.4,11.6,11.5v13.9c0,6.2-3,8.3-10.4,8.3h-58.6c-7.4,0-10.4-2.1-10.4-8.3v-13.9c0-9.2,2.7-11.5,11.5-11.5s9.8-1.8,9.8-8.6v-115.8h0ZM469.7,667.1c-7.4,0-10.4-2.1-10.4-8.3v-13.9c0-9.2,2.7-11.6,13.6-11.6s9.8-1.8,9.8-8.6v-117c0-5.3-2.4-7.4-12.2-7.4s-11.3-2.1-11.3-8.9v-16.6c0-6.2,3-8.3,10.4-8.3h72.3c5,0,8,1.8,9.2,6.5l33.8,116.4h.6l34.1-116.4c1.2-4.7,4.2-6.5,9.2-6.5h69c7.4,0,10.4,2.1,10.4,8.3v15.7c0,7.4-2.1,9.8-11.8,9.8s-11.3,2.1-11.3,8.6v115.8c0,6.5,2.4,8.6,9.5,8.6,11,0,13.6,2.4,13.6,9.8v15.7c0,6.2-3,8.3-10.4,8.3h-59.8c-7.4,0-10.4-2.1-10.4-8.3v-16.3c0-7.4,2.4-9.2,9.8-9.2s8.6-2.1,8.6-8.6v-117.3h-.6l-42.3,151.6c-1.8,5.9-4.1,8-8.6,8h-19.8c-4.5,0-6.8-2.1-8.6-8l-45.9-151.6h-.6v117.3c0,6.8,2.4,8.6,10.4,8.6s9.5,2.1,9.5,9.8v15.7c0,6.2-3,8.3-10.4,8.3h-59.2s0,0,0,0ZM1008,466.6c7.4,0,10.4,2.1,10.4,8.3v15.4c0,7.4-3,10.1-13.3,10.1s-11,2.7-11,8.6v92.1c0,20.1,11.6,32,31.7,32s32-8.9,32-32v-92.1c0-5.9-3-8.6-11-8.6s-13.3-2.7-13.3-10.1v-15.4c0-6.2,3-8.3,10.4-8.3h73.2c7.4,0,10.4,2.1,10.4,8.3v15.4c0,7.4-3,10.1-13.3,10.1s-11,2.7-11,8.6v86.5c0,51.2-25.2,75.2-76.4,75.2s-77.9-25.8-77.9-75.2v-86.5c0-5.9-3-8.6-11-8.6s-13.3-2.7-13.3-10.1v-15.4c0-6.2,3-8.3,10.4-8.3h73.2ZM1160.2,509c0-6.8-3-8.6-8.6-8.6-10.1,0-12.7-2.4-12.7-11.6v-13.9c0-6.2,3-8.3,10.4-8.3h64.3c5,0,7.7,2.1,9.5,5.6l58.4,137.1h-.3.6v-100.4c0-6.8-3-8.6-8.6-8.6-11,0-13.6-2.4-13.6-11.6v-13.9c0-6.2,3-8.3,10.4-8.3h58c7.4,0,10.4,2.1,10.4,8.3v15.7c0,7.7-3.2,9.8-9.5,9.8s-10.4,1.8-10.4,8.6v149.6c0,6.2-3,8.6-8.6,8.6h-39.7c-5.6,0-8.9-2.1-11-7.1l-61.6-144.2h-.6v109c0,6.8,3,8.6,9.8,8.6s11.6,2.4,11.6,11.6v13.9c0,6.2-3,8.3-10.4,8.3h-58.6c-7.4,0-10.4-2.1-10.4-8.3v-13.9c0-9.2,2.7-11.6,11.6-11.6s9.8-1.8,9.8-8.6v-115.8h0ZM1393.6,667.1c-7.4,0-10.4-2.1-10.4-8.3v-15.4c0-7.4,3-10.1,13.3-10.1s13.9-2.7,13.9-8.6v-119.4c-35.2,0-15.7,11.8-48.6,11.8s-14.5-3.3-14.5-8.3,13-36.1,15.7-43.2c.9-2.7,5.1-4.1,15.1-4.1,24,0,7.4,8.9,35.2,8.9h53.3c25.8,0,10.7-8.9,40-8.9s14.5,3.3,14.5,8.3-13.1,36.1-15.7,43.2c-.9,2.7-5.1,4.1-15.1,4.1-16.3,0-11.3-11.8-34.7-11.8v119.4c0,5.9,3,8.6,15.7,8.6s13.3,2.7,13.3,10.1v15.4c0,6.2-3,8.3-10.4,8.3h-80.8,0ZM1571,604.3l-4.1,13c-.6,2.4-1.2,5.6-1.2,9.5s2.7,6.5,7.7,6.5c11.5,0,16.3,2.7,16.3,10.7v15.1c0,6.5-4.5,8-10.7,8h-67.5c-5.9,0-9.5-1.5-9.5-8v-14.8c0-7.7,3.9-11,11.3-11s9.5-7.7,12.8-18.1l30.2-96c1.2-3.3,2.7-7.7,2.7-11.8s-5.1-7.1-8.9-7.1-8.9-3.3-8.9-10.4v-15.1c0-6.2,3-8.3,10.4-8.3h103.3c7.1,0,10.4,2.1,10.4,8.3v16.6c0,4.7-3.9,8.9-9.8,8.9s-8,3.2-8,7.1,1.2,8,2.7,11.8l33.2,97.7c3.9,11,7.1,16.3,13,16.3s11,3.3,11,11v14.8c0,6.5-3.6,8-9.5,8h-70.5c-6.2,0-10.7-1.5-10.7-8v-15.1c0-8,5.1-10.7,13.3-10.7s10.7-2.1,10.7-7.1-.9-6.2-1.8-9.5l-3.6-12.4h-64.3s0,0,0,0ZM1624,570.6l-21.3-69.3h-.6l-21.3,69.3h43.2,0ZM1790.3,624.8c0,5.9,3,8.6,11,8.6s13.3,2.7,13.3,10.1v15.4c0,6.2-3,8.3-10.4,8.3h-73.2c-7.4,0-10.3-2.1-10.3-8.3v-15.4c0-7.4,3-10.1,13.3-10.1s10.9-2.7,10.9-8.6v-115.8c0-5.9-3-8.6-10.9-8.6s-13.3-2.7-13.3-10.1v-15.4c0-6.2,3-8.3,10.3-8.3h73.2c7.4,0,10.4,2.1,10.4,8.3v15.4c0,7.4-3,10.1-13.3,10.1s-11,2.7-11,8.6v115.8h0ZM1853.1,509c0-6.8-2.9-8.6-8.6-8.6-10.1,0-12.7-2.4-12.7-11.6v-13.9c0-6.2,3-8.3,10.4-8.3h64.2c5.1,0,7.7,2.1,9.5,5.6l58.4,137.1h-.3.6v-100.4c0-6.8-3-8.6-8.6-8.6-11,0-13.6-2.4-13.6-11.6v-13.9c0-6.2,3-8.3,10.4-8.3h58c7.4,0,10.4,2.1,10.4,8.3v15.7c0,7.7-3.3,9.8-9.5,9.8s-10.4,1.8-10.4,8.6v149.6c0,6.2-2.9,8.6-8.6,8.6h-39.7c-5.6,0-8.9-2.1-11-7.1l-61.6-144.2h-.6v109c0,6.8,3,8.6,9.8,8.6s11.5,2.4,11.5,11.6v13.9c0,6.2-2.9,8.3-10.4,8.3h-58.6c-7.4,0-10.4-2.1-10.4-8.3v-13.9c0-9.2,2.7-11.6,11.6-11.6s9.8-1.8,9.8-8.6v-115.8h0Z"/>
  <path class="st5" d="M951.2,314.2c7.4,0,10.4,2.1,10.4,8.3v15.4c0,7.4-3,10.1-7.1,10.1-8,0-11,2.7-11,8.6v37.9c0,6.2-28.7,22.2-67.8,22.2-59.2,0-97.2-38.2-97.2-96.2s37-111.4,102.2-111.4,43.2,4.7,50.3,13.9c3,4.1,11,29.9,11,34.1,0,7.1-2.7,9.5-20.2,9.5-31.1,0-26.6-19.8-49.5-19.8s-43,28.7-43,72.3,20.4,62.2,47.1,62.2,17.8-1.2,23.1-3.8v-20.7c0-5.9-3-8.6-13.6-8.6s-13.3-2.7-13.3-10.1v-15.4c0-6.2,3-8.3,10.4-8.3h68.1,0ZM992.9,255c0-5.9-3-8.6-11-8.6s-13.3-2.7-13.3-10.1v-15.4c0-6.2,3-8.3,10.4-8.3h87.1c40,0,65.8,18.7,65.8,54.5s-15.1,47.7-41.5,55.1l49.8,72.9c1.9,2.6,2.8,5.7,2.7,8.9,0,6.2-15.4,15.4-21.6,15.4s-7.1-2.7-9.8-6.2l-72.6-91.8h-.6v49.5c0,5.9,3,8.6,13.9,8.6s13.3,2.7,13.3,10.1v15.4c0,6.2-2.9,8.3-10.4,8.3h-76.1c-7.4,0-10.4-2.1-10.4-8.3v-15.4c0-7.4,3-10.1,13.3-10.1s11-2.7,11-8.6v-115.8h0ZM1038.2,291.4h17.5c20.1,0,29-5.9,29-21.9s-8.9-21.9-29-21.9h-17.5v43.8h0ZM1227.7,290.8h20.8c27.8,0,11.2-8.9,35.2-8.9s14.2,1.5,15.1,4.1c2.7,7.1,15.7,37.9,15.7,43.2s-3.3,8.3-14.5,8.3c-32.9,0-13.3-11.9-48.6-11.9h-23.7v52.4h37.3c27,0,16.9-18.1,45-18.1s18.1,3,18.1,7.7-13.3,36.4-15.1,40.8c-1.2,3-3.2,4.5-9.8,4.5h-134.2c-7.4,0-10.4-2.1-10.4-8.3v-15.4c0-7.4,3-10.1,12.7-10.1s11-2.7,11-8.6v-115.8c0-5.9-3-8.6-11-8.6s-12.7-2.7-12.7-10.1v-15.4c0-6.2,3-8.3,10.4-8.3h126.2c4.5,0,6.2,2.1,7.7,5.6,1.5,3.3,13.3,32.6,13.3,37.6s-4.7,8.9-18.6,8.9c-20.4,0-18.7-17.2-46.2-17.2h-23.7v43.2h0ZM1415.1,290.8h20.7c27.9,0,11.3-8.9,35.2-8.9s14.2,1.5,15.1,4.1c2.7,7.1,15.7,37.9,15.7,43.2s-3.3,8.3-14.5,8.3c-32.9,0-13.3-11.9-48.6-11.9h-23.7v52.4h37.3c27,0,16.9-18.1,45-18.1s18.1,3,18.1,7.7-13.3,36.4-15.1,40.8c-1.2,3-3.2,4.5-9.8,4.5h-134.2c-7.4,0-10.4-2.1-10.4-8.3v-15.4c0-7.4,3-10.1,12.7-10.1s10.9-2.7,10.9-8.6v-115.8c0-5.9-3-8.6-10.9-8.6s-12.7-2.7-12.7-10.1v-15.4c0-6.2,3-8.3,10.4-8.3h126.2c4.5,0,6.2,2.1,7.7,5.6,1.5,3.3,13.3,32.6,13.3,37.6s-4.7,8.9-18.6,8.9c-20.4,0-18.7-17.2-46.2-17.2h-23.7v43.2h0,0ZM1555.2,255c0-6.8-3-8.6-8.6-8.6-10.1,0-12.7-2.4-12.7-11.6v-13.9c0-6.2,3-8.3,10.4-8.3h64.3c5.1,0,7.7,2.1,9.5,5.6l58.4,137.1h-.3.6v-100.4c0-6.8-3-8.6-8.6-8.6-11,0-13.6-2.4-13.6-11.6v-13.9c0-6.2,3-8.3,10.4-8.3h58c7.4,0,10.4,2.1,10.4,8.3v15.7c0,7.7-3.2,9.8-9.5,9.8s-10.4,1.8-10.4,8.6v149.6c0,6.2-3,8.6-8.6,8.6h-39.7c-5.6,0-8.9-2.1-10.9-7.1l-61.6-144.2h-.6v109c0,6.8,3,8.6,9.8,8.6s11.5,2.4,11.5,11.6v13.9c0,6.2-3,8.3-10.4,8.3h-58.6c-7.4,0-10.4-2.1-10.4-8.3v-13.9c0-9.2,2.7-11.6,11.6-11.6s9.8-1.8,9.8-8.6v-115.9h0ZM474.5,659.9c-7.4,0-10.4-2.1-10.4-8.3v-13.9c0-9.2,2.7-11.5,13.6-11.5s9.8-1.8,9.8-8.6v-117c0-5.3-2.4-7.4-12.1-7.4s-11.3-2.1-11.3-8.9v-16.6c0-6.2,3-8.3,10.4-8.3h72.3c5,0,8,1.8,9.2,6.5l33.8,116.4h.6l34.1-116.4c1.2-4.7,4.2-6.5,9.2-6.5h69c7.4,0,10.4,2.1,10.4,8.3v15.7c0,7.4-2.1,9.8-11.8,9.8s-11.3,2.1-11.3,8.6v115.8c0,6.5,2.4,8.6,9.5,8.6,11,0,13.6,2.4,13.6,9.8v15.7c0,6.2-3,8.3-10.4,8.3h-59.8c-7.4,0-10.4-2.1-10.4-8.3v-16.3c0-7.4,2.4-9.2,9.8-9.2s8.6-2.1,8.6-8.6v-117.3h-.6l-42.3,151.6c-1.8,5.9-4.1,8-8.6,8h-19.8c-4.4,0-6.8-2.1-8.6-8l-45.9-151.6h-.6v117.3c0,6.8,2.4,8.6,10.4,8.6s9.5,2.1,9.5,9.8v15.7c0,6.2-3,8.3-10.4,8.3h-59.3ZM1012.8,459.4c7.4,0,10.4,2.1,10.4,8.3v15.4c0,7.4-2.9,10.1-13.3,10.1s-11,2.7-11,8.6v92.1c0,20.2,11.5,32,31.7,32s32-8.9,32-32v-92.1c0-5.9-3-8.6-11-8.6s-13.3-2.7-13.3-10.1v-15.4c0-6.2,3-8.3,10.4-8.3h73.2c7.4,0,10.4,2.1,10.4,8.3v15.4c0,7.4-3,10.1-13.3,10.1s-11,2.7-11,8.6v86.5c0,51.2-25.2,75.2-76.4,75.2s-77.9-25.8-77.9-75.2v-86.5c0-5.9-3-8.6-11-8.6s-13.3-2.7-13.3-10.1v-15.4c0-6.2,3-8.3,10.4-8.3h73.2ZM1165,501.8c0-6.8-3-8.6-8.6-8.6-10.1,0-12.7-2.4-12.7-11.6v-13.9c0-6.2,3-8.3,10.4-8.3h64.3c5,0,7.7,2.1,9.5,5.6l58.4,137.1h-.3.6v-100.4c0-6.8-3-8.6-8.6-8.6-11,0-13.6-2.4-13.6-11.6v-13.9c0-6.2,3-8.3,10.4-8.3h58.1c7.4,0,10.4,2.1,10.4,8.3v15.7c0,7.7-3.3,9.8-9.5,9.8s-10.4,1.8-10.4,8.6v149.6c0,6.2-3,8.6-8.6,8.6h-39.7c-5.6,0-8.9-2.1-11-7.1l-61.6-144.2h-.6v109c0,6.8,3,8.6,9.8,8.6s11.6,2.4,11.6,11.5v13.9c0,6.2-3,8.3-10.4,8.3h-58.6c-7.4,0-10.4-2.1-10.4-8.3v-13.9c0-9.2,2.7-11.5,11.6-11.5s9.8-1.8,9.8-8.6v-115.8h0ZM1398.4,659.9c-7.4,0-10.4-2.1-10.4-8.3v-15.4c0-7.4,3-10.1,13.3-10.1s13.9-2.7,13.9-8.6v-119.4c-35.2,0-15.7,11.8-48.6,11.8s-14.5-3.2-14.5-8.3,13-36.1,15.7-43.2c.9-2.7,5-4.1,15.1-4.1,24,0,7.4,8.9,35.2,8.9h53.3c25.8,0,10.7-8.9,40-8.9s14.5,3.2,14.5,8.3-13,36.1-15.7,43.2c-.9,2.7-5,4.1-15.1,4.1-16.3,0-11.3-11.8-34.6-11.8v119.4c0,5.9,3,8.6,15.7,8.6s13.3,2.7,13.3,10.1v15.4c0,6.2-3,8.3-10.4,8.3h-80.8,0ZM1575.7,597.1l-4.1,13c-.6,2.4-1.2,5.6-1.2,9.5s2.6,6.5,7.7,6.5c11.6,0,16.3,2.7,16.3,10.7v15.1c0,6.5-4.5,8-10.7,8h-67.5c-5.9,0-9.5-1.5-9.5-8v-14.8c0-7.7,3.9-11,11.3-11s9.5-7.7,12.7-18.1l30.2-96c1.2-3.3,2.7-7.7,2.7-11.8s-5.1-7.1-8.9-7.1-8.9-3.3-8.9-10.4v-15.1c0-6.2,3-8.3,10.4-8.3h103.4c7.1,0,10.4,2.1,10.4,8.3v16.6c0,4.7-3.9,8.9-9.8,8.9s-8,3.2-8,7.1,1.2,8,2.7,11.8l33.2,97.7c3.9,11,7.1,16.3,13,16.3s11,3.2,11,11v14.8c0,6.5-3.6,8-9.5,8h-70.5c-6.2,0-10.7-1.5-10.7-8v-15.1c0-8,5-10.7,13.3-10.7s10.7-2.1,10.7-7.1-.9-6.2-1.8-9.5l-3.6-12.5h-64.3s0,0,0,0ZM1628.8,563.4l-21.3-69.3h-.6l-21.3,69.3h43.3,0ZM1795.1,617.6c0,5.9,3,8.6,11,8.6s13.3,2.7,13.3,10.1v15.4c0,6.2-3,8.3-10.4,8.3h-73.2c-7.4,0-10.4-2.1-10.4-8.3v-15.4c0-7.4,3-10.1,13.3-10.1s11-2.7,11-8.6v-115.8c0-5.9-3-8.6-11-8.6s-13.3-2.7-13.3-10.1v-15.4c0-6.2,3-8.3,10.4-8.3h73.2c7.4,0,10.4,2.1,10.4,8.3v15.4c0,7.4-3,10.1-13.3,10.1s-11,2.7-11,8.6v115.8ZM1857.9,501.8c0-6.8-3-8.6-8.6-8.6-10.1,0-12.7-2.4-12.7-11.6v-13.9c0-6.2,3-8.3,10.4-8.3h64.3c5.1,0,7.7,2.1,9.5,5.6l58.4,137.1h-.3.6v-100.4c0-6.8-3-8.6-8.6-8.6-10.9,0-13.6-2.4-13.6-11.6v-13.9c0-6.2,3-8.3,10.4-8.3h58c7.4,0,10.4,2.1,10.4,8.3v15.7c0,7.7-3.2,9.8-9.5,9.8s-10.4,1.8-10.4,8.6v149.6c0,6.2-3,8.6-8.6,8.6h-39.7c-5.6,0-8.9-2.1-11-7.1l-61.6-144.2h-.6v109c0,6.8,3,8.6,9.8,8.6s11.5,2.4,11.5,11.5v13.9c0,6.2-3,8.3-10.4,8.3h-58.6c-7.4,0-10.4-2.1-10.4-8.3v-13.9c0-9.2,2.7-11.5,11.6-11.5s9.8-1.8,9.8-8.6v-115.8h0ZM1205.9,1056.5c4.5,4.6,6.8,10.1,6.8,16.5s-2.3,12.1-6.8,16.7c-4.5,4.6-10.1,6.9-16.6,6.9s-12-2.3-16.6-6.9c-4.4-4.4-6.9-10.4-6.8-16.7,0-6.5,2.2-12,6.8-16.5,4.3-4.5,10.3-7,16.5-6.9,6.5,0,12,2.3,16.6,6.9ZM1208.6,1053.9c-5.1-5.2-12-8-19.3-7.9-7.5,0-13.8,2.6-19.2,7.9-5.2,5-8.1,12-8,19.2,0,7.6,2.6,14,7.9,19.3,5.3,5.3,11.7,8,19.2,8,7.3.1,14.2-2.8,19.3-8,5.3-5.3,8-11.8,8-19.3s-2.6-13.9-8-19.2ZM1193.4,1071.8c-1.6.5-3.3.7-5,.7h-4.7v-10.8h4.5c2.9,0,5,.4,6.3,1.1,1.3.7,2,2.2,2,4.4,0,2.3-1,3.9-3.1,4.7h0ZM1178.4,1087.9h5.3v-11.8h4.2c2.8,0,4.7.3,5.8,1,1.9,1.1,2.8,3.4,2.8,6.8v3.4c.1,0,.2.3.2.3v.3h5l-.2-.3c-.2-.5-.3-1-.3-1.5,0-.7,0-1.5,0-2.2v-2.2c0-1.7-.6-3.3-1.6-4.6-1.2-1.6-3.1-2.7-5.2-2.9,1.5-.2,3-.7,4.3-1.5,1.9-1.2,2.9-3.2,2.9-5.9s-1.6-6.3-4.6-7.6c-1.7-.7-4.4-1.1-8.2-1.1h-10.4v29.8h0Z"/>
  <path class="st1" d="M941.9,698h1097.3M454.7,701.3h260.2"/>
  <path class="st4" d="M545.6,785.6c-65.7,8.3-126.2,37-185.6,68.4-9.1,2.4-21.9-3.8-24.7-15,1.6-38,17.3-75.4,57.9-90.6,43.4-22.4,103-20.2,147.2,4.6,22.4,10.2,21.8,30.6,5.2,32.6h0Z"/>
  <path class="st4" d="M537.7,874c-41.5,41.7-104.6,45.5-157.1,21.2-10.2-6.6-35.6-17-21.5-33.1,36.7-17,73.1-20.7,113-41.1,29.2-14.9,73.3-39.3,95.5-24.8,11.8,28.6-9.2,57.6-29.9,77.8Z"/>
  <path class="st3" d="M538.5,778.4c-65.7,8.3-126.2,37-185.6,68.5-9.1,2.4-21.9-3.8-24.7-15,1.5-38,17.3-75.4,57.9-90.6,43.4-22.4,103-20.2,147.2,4.6,22.4,10.2,21.8,30.6,5.2,32.6h0Z"/>
  <path class="st3" d="M530.6,866.8c-41.5,41.7-104.6,45.5-157.1,21.2-10.2-6.6-35.6-17-21.5-33.1,36.7-17,73.1-20.7,113-41.1,29.2-15,73.3-39.3,95.5-24.7,11.8,28.6-9.2,57.6-29.9,77.8Z"/>
</svg>