<?xml version="1.0" encoding="UTF-8"?>
<svg id="Layer_1" xmlns="http://www.w3.org/2000/svg" version="1.1" viewBox="0 0 1236 273">
  <!-- Generator: Adobe Illustrator 29.0.1, SVG Export Plug-In . SVG Version: 2.1.0 Build 192)  -->
  <defs>
    <style>
      .st0 {
        fill: #f9f9f9;
      }

      .st1 {
        fill: #fefefe;
      }

      .st2 {
        fill: #fbfbfb;
      }

      .st3 {
        fill: #fcfcfc;
      }

      .st4 {
        fill: #fdfdfd;
      }
    </style>
  </defs>
  <path class="st1" d="M142.1.1h89.9l14.2,1.8,7.2,1.5,5.4,1.8,4.8,2.4,3.6,2.4,4.2,3.9,3.6,4.8,2.7,4.8,2.1,5.7,1.2,6,.3,3.3.3,13.9-.6.6h-46.2l-.3-.3-1.2-6.6-.9-3-1.8-2.4-2.4-1.5-3.6-1.2-6.9-.9-6-.3h-61.3l-6.9.6-4.2.9-4.8,2.4-2.7,2.4-1.5,2.4-1.5,4.2-.9,5.7-.6,7.2-.3,10.6v5.7l.3,11.8.6,5.4,1.2,4.8,2.1,4.8,2.7,3.3,3.3,2.1,3.6,1.5,7.8,1.5,7.5.6h54.9l6.6-.3,6-.9,3.9-1.5,3.3-2.4,2.1-3,1.2-3,.6-3,.6-6.3h-61.6l-.3-.3v-28.7l.3-.3h42.8l64.9.3.3.3v29.6l-.3,10-.9,9.7-1.5,7.5-1.8,5.4-2.4,4.8-2.1,3.3-3.6,3.9-3,2.4-4.8,2.7-4.2,1.8-6.3,1.8-6.6,1.2-4.5.6-3.9.3h-107.7l-7.8-.9-6-1.2-5.1-1.5-4.8-2.1-5.1-2.7-3.3-2.4-3.6-3.3-3-3-3-4.2-2.7-5.7-2.1-6.9-1.2-6.3-.9-9.1-.3-19.6v-27.2l.9-9.4.9-5.7,1.5-6.3,1.5-4.5,3-6.3,2.4-3.6,3.3-3.9,2.1-2.1,3.9-3,4.5-2.7,6.3-2.7,5.1-1.5,4.8-.9,8.4-.9,14.2-.9Z"/>
  <path class="st1" d="M818.4.1h62.8l10.3.6,18.1.9,7.5.9,6.9,1.5,4.5,1.5,5.1,2.4,4.5,3,4.2,3.6,2.7,3.3,2.1,3,3,5.7,1.8,5.1,1.2,4.5.9,5.7.6,6.3.6,13.3v24.4l-.9,15.1-.9,8.4-1.5,7.5-1.5,4.8-1.8,4.5-3,4.8-2.4,3-2.4,2.7-3.3,2.7-3,2.1-5.7,3-5.1,1.8-4.2,1.2-8.4,1.5-7.8.9-3.9.3-11.5.3h-67.3l-12.7-.3-10.3-.6-8.8-.9-7.5-1.5-6.3-2.1-4.8-2.4-3.6-2.1-3.3-2.7-4.2-4.2-2.4-3.3-2.7-4.8-2.4-6.3-1.8-7.5-1.2-10-.3-5.7v-16l.9-23.2.6-15.1,1.5-8.4,2.1-6.3,2.4-5.1,3-4.5,4.2-4.5,3.9-3,4.5-2.7,5.7-2.4,5.1-1.5,6.3-1.2,9.4-.9,20.5-1.2ZM817.8,37.5l-6.3.9-3.9,1.2-3.6,1.8-3.3,2.7-1.8,2.4-1.5,3-1.2,3.6-.9,8.1-.3,5.7-.3,13,.6,10.9.9,7.2,1.2,4.5,1.8,3.6,1.8,2.1,3.3,2.1,4.2,1.5,5.7,1.2,8.1.9h61l6.3-.6,4.5-.9,3.6-1.2,3.3-1.8,3-2.7,2.1-3.3,1.5-3.9,1.2-6.6v-35.9l-.9-5.1-1.5-4.5-2.1-3.3-2.4-2.4-4.8-2.4-4.8-1.2-5.7-.6h-68.8Z"/>
  <path class="st1" d="M586,.1h63.1l10.3.6,17.8.9,7.5.9,6,1.2,6.3,2.1,4.8,2.4,4.5,3,3.9,3.6,3.3,3.9,2.4,3.9,2.4,4.8,1.8,5.7,1.2,5.4.9,7.5.6,11.2v31.4l-.6,10.6-.9,9.4-1.2,6.6-1.5,5.7-1.8,4.5-3,5.1-3,3.9-4.2,4.2-4.8,3.3-4.8,2.4-4.5,1.8-6.9,1.8-6.6,1.2-11.8,1.2-11.5.3h-67.3l-12.7-.3-10.3-.6-8.8-.9-7.8-1.5-5.4-1.8-6.3-3-3.6-2.4-3-2.4-3.3-3.3-3.3-4.5-2.4-4.5-2.1-5.7-1.5-5.4-1.5-10.6-.3-4.5v-19.6l1.2-36.2,1.2-7.5,1.5-5.7,1.8-4.8,2.4-4.5,3-4.2,3.6-3.6,3.3-2.7,4.5-2.7,4.5-2.1,4.5-1.5,6.9-1.5,6.6-.9,24.7-1.5ZM585.7,37.5l-5.1.6-4.8,1.2-3.9,2.1-3,2.4-2.1,2.4-1.8,3.6-1.2,4.5-.6,4.2-.3,4.8-.3,12.7v6.9l.6,9.4,1.2,7.8,1.8,4.8,1.8,2.4,2.4,2.1,3.9,1.8,4.2,1.2,8.1,1.2,3.3.3h60.7l6.6-.6,4.8-.9,4.8-1.8,2.7-1.8,3-3,2.4-4.8,1.2-4.8.6-5.4v-31.4l-.6-5.7-1.5-5.1-2.1-3.9-2.4-2.7-3.6-2.1-3.6-1.2-4.5-.9-4.2-.3h-68.5Z"/>
  <path class="st1" d="M446,1.3h10.6l6.3.6,6,1.2,4.8,1.8,4.2,2.1,4.2,3,4.2,4.2,3,4.5,1.8,3.9,1.5,4.5,1.5,7.2.6,5.1v16.9l-1.2,10-1.5,6-2.4,4.8-2.4,3.3-2.4,2.7-4.2,3-4.8,2.4-5.1,1.8-7.8,2.1,8.1.9,5.1,1.2,4.5,1.8,3.9,2.7,2.7,2.7,2.7,4.2,1.5,3.6.9,4.2.3,3.3v31.7l-.3.3h-46.2l-.3-25-1.2-4.5-1.8-3-2.7-2.1-3.9-1.5-6.3-.9-77.2-.3v37.1l-.3.3h-46.2l-.3-.3V2.2l.3-.3,131.3-.3,8.4-.3ZM354.9,37.5l-1.8.3-.3,1.5v35.9h70.6l12.1-.6,3.6-.6,3.6-1.5,2.4-1.8,2.1-3.3,1.5-4.8.3-1.5v-7.5l-.9-4.8-1.2-3.6-1.8-2.7-2.1-1.8-2.4-1.2-4.5-1.2-2.7-.3-32.6-.3h-45.9Z"/>
  <path class="st1" d="M975.6,1.9h178l.3.3v33.8l-.3.3-66.1.3v112.6l-.3.3h-46.5l-.3-.3V36.6h-64.9V1.9Z"/>
  <path class="st1" d="M288.5,211h28.4l9.7.6,6,.9,2.7,1.2,2.7,1.8,1.5,1.2,2.1,3.3.9,3,.3,2.1v5.4l-.3.3h-18.1l-.6-.6-.9-2.4-.9-1.5-2.1-.6-8.4-.6h-17.2l-3.9.6-1.8,1.5-.6,1.5.3,2.1,1.5,1.8,2.4.9,3.3.3,10,.3,8.1.3,16,.6,4.5.6,3.3,1.2,2.7,1.8,2.1,2.4,1.5,3,.9,4.2v10l-.9,3.9-1.5,3-2.7,3-2.7,1.5-3.9,1.2-4.2.6-10.3.6h-21.4l-15.1-.9-4.2-.9-3.6-1.5-3-2.7-1.2-1.8-1.2-3.9-.3-1.8v-6.9h19l.9,3.9,1.2,1.2,1.5.6,1.8.3,12.4.6h4.8l11.2-.3,3-1.5,1.2-2.4-.3-2.1-.9-1.5-2.1-.9-4.2-.6-13.3-.3h-5.1l-13.6-.9-5.1-.6-3.9-.9-3.3-1.8-2.4-2.4-1.5-3-.9-3.3-.3-2.1v-5.1l.6-5.1,1.2-3.9,2.1-3,2.7-2.4,3.3-1.5,4.8-.9,5.4-.6Z"/>
  <path class="st1" d="M157.5,211h29.6l10.9.6,5.7.9,3,1.2,3,2.1,2.4,2.4,1.8,3,1.5,4.8.6,6.6v15.7l-.3,5.1-.9,5.1-1.5,3.9-2.1,3-2.1,2.1-3.6,2.1-3.9,1.2-6,.9-3.9.3h-32.9l-9.1-.6-4.8-.9-3.6-1.5-2.7-1.8-2.4-2.4-1.8-3-1.5-4.5-.6-3.9-.3-4.2.3-11.5.3-7.8.6-4.8,1.2-3.6,2.1-3.6,2.7-2.7,4.8-2.4,3.6-.9,10-.9ZM159.9,226.4l-3,.6-2.4,1.2-1.8,2.1-.9,2.1-.3,2.1-.3,9.7.3,5.1.9,3.6,1.2,1.8,2.4,1.2,3.6.9h29.9l3.9-1.2,2.1-1.8,1.2-3,.3-2.1v-15.1l-.9-3-1.2-1.8-1.5-1.2-2.4-.9-3.6-.3h-27.5Z"/>
  <path class="st4" d="M398.9,211.6h55.8l5.1.6,3.3,1.2,3.6,2.7,2.4,3.3,1.5,3.6.6,5.1v12.1l-.9,4.8-1.8,4.5-2.1,2.7-2.7,2.1-3.3,1.2-4.2.9-4.2.3h-34.1v14.5l-.3.3h-19l-.3-3.3v-47.7l.3-8.8.3-.3ZM417.9,226.4v15.4h27.5l3.6-.6,2.4-2.1.9-2.1.3-1.5-.3-4.2-1.2-2.7-1.5-1.2-3.3-.9h-28.4Z"/>
  <path class="st1" d="M0,211.6h18.4l.6.6v21.1h28.4l11.8.3v-21.7l.6-.3h17.8l.6.3v59.4l-.3.3h-18.4l-.3-1.8v-21.4H18.7v22.9l-.6.3H0v-60Z"/>
  <path class="st4" d="M743.2,211.6h23.2l1.2,1.5,3.3,5.7,1.8,3.3,4.5,8.1,3.9,6.9,4.2,7.5,3.6,6.3,4.2,7.5,3.9,6.9,3,5.1v.9h-21.1l-1.5-2.4-3.9-7.8-38.3-.3-.3,1.5-3.6,6.9-1.5,2.1h-20.2l-.3-.6,4.2-7.5,3.6-6.6,3.9-6.9,4.8-8.8,4.2-7.5,4.8-8.8,4.5-8.1,2.7-4.5.9-.6ZM754.4,226.1l-2.4,4.8-3.6,6.6-3.9,6.9-1.5,2.7v.6h23.5l-2.7-5.7-3.6-6.6-4.2-8.1-.9-1.2h-.6Z"/>
  <path class="st4" d="M1149.1,211.6h22.6l1.2.6,2.7,3.3,3.3,3.9,2.4,3,3.3,3.9,2.4,3,4.2,5.1,1.2.9.6-1.2,2.7-3.3,3.3-3.9,2.7-3.3,3.3-3.9,3.3-4.2,3.3-3.6.9-.3h23.2l-.3,1.5-1.5,1.5-3.9,4.2-2.1,2.4-2.7,3-2.1,2.4-3,3.3-2.7,3.3-2.1,2.1-2.7,3.3-2.1,2.1-2.7,3.3-4.5,4.8-1.2,1.5-.3,20.8-.3.3h-19l-.3-20.8-2.1-2.7-3.6-3.9-2.7-3.3-3.3-3.6-2.7-3.3-3.9-4.2-2.7-3.3-3.3-3.6-2.1-2.4-2.7-3.3-4.2-4.5.3-.9Z"/>
  <path class="st2" d="M593.9,211.6h70.9l.6.3v13.9l-.6.3-26,.3v44.7l-.6.6h-18.7l-.3-.3v-45.3h-26l-.3-.3v-13.9l.9-.3Z"/>
  <path class="st0" d="M1032.3,211.6h71.2l.6.3v13.9l-.6.3h-26.3v45.3l-.3.3h-18.7l-.3-.3v-45.3h-26l-.3-.6v-13.3l.6-.6Z"/>
  <path class="st1" d="M850.4,211.6h18.1l.6.6-.3,44.4h41v14.8l-.3.3h-59.4l-.3-.3v-59.1l.6-.6Z"/>
  <path class="st3" d="M522.9,211.6h18.7l.6.6v59.1l-.3.3h-19.3l-.3-.9v-56.4l.3-2.4.3-.3Z"/>
  <path class="st4" d="M961.7,211.6h17.2l2.1.6v58.8l-.6.6h-19l-.3-1.8v-57.6l.6-.6Z"/>
</svg>