<?xml version="1.0" encoding="UTF-8"?>
<svg id="a" xmlns="http://www.w3.org/2000/svg" version="1.1" viewBox="0 0 201.3 74.2">
  <!-- Generator: Adobe Illustrator 29.0.1, SVG Export Plug-In . SVG Version: 2.1.0 Build 192)  -->
  <defs>
    <style>
      .st0 {
        fill: #518ac9;
      }

      .st1 {
        fill: #002c57;
      }

      .st2 {
        fill: #fff;
      }

      .st3 {
        fill: #7e8698;
      }
    </style>
  </defs>
  <path class="st2" d="M89.9,34.1V12.8h3.9v9h9.7v-9h3.9v21.4h-3.9v-9.1h-9.7v9.1s-3.9,0-3.9,0Z"/>
  <path class="st2" d="M109.8,26.7c0-4.5,2.7-7.8,7.7-7.8s7.7,3.3,7.7,7.8-2.7,7.8-7.7,7.8-7.7-3.3-7.7-7.8ZM113.6,26.7c0,2.8,1.3,4.9,3.9,4.9s3.9-2.1,3.9-4.9-1.3-4.9-3.9-4.9-3.9,2.1-3.9,4.9Z"/>
  <path class="st2" d="M140.5,34.1h-3.5v-2.1h-.1c-.9,1.5-2.6,2.4-4.6,2.4-3.1,0-5.2-2.1-5.2-5.1v-10.1h3.8v9.5c0,1.6.9,2.8,2.7,2.8s3.2-1.4,3.2-3.3v-9h3.8v14.9h0Z"/>
  <path class="st2" d="M143.4,34.1V12.8h3.8v21.4s-3.8,0-3.8,0Z"/>
  <path class="st2" d="M150,12.8h3.9v3.4h-3.9v-3.4ZM150.1,34.1v-14.9h3.8v14.9h-3.8Z"/>
  <path class="st2" d="M156.8,12.8h3.8v8.5h0c.9-1.5,2.5-2.3,4.5-2.3,3.1,0,5.1,2,5.1,5.1v10.2h-3.8v-9.5c0-1.5-.9-2.8-2.7-2.8s-3.2,1.4-3.2,3.3v9h-3.8V12.8Z"/>
  <path class="st2" d="M181.5,34.1v-2.1h-.1c-.9,1.5-2.3,2.4-4.4,2.4s-4.8-1.9-4.8-4.5.9-3.2,2.8-3.9c1.5-.5,3.9-.7,6.2-.8v-1.1c0-1.4-.9-2.4-2.7-2.4s-2.6.8-3,2l-2.9-1.4c1-2.3,3-3.5,6.1-3.5s6.3,2,6.3,5.3v10h-3.5ZM181.3,28.4v-.8c-.9,0-2.1.1-3.1.3-1.2.2-2.2.6-2.2,1.8s.8,1.9,2.2,1.9,3.1-1.4,3.1-3.2h0Z"/>
  <path class="st2" d="M187.9,19.2h3.5v2.1h.1c.9-1.5,2.5-2.4,4.6-2.4,3.1,0,5.2,2.1,5.2,5.1v10.1h-3.8v-9.5c0-1.5-.9-2.8-2.7-2.8s-3.2,1.4-3.2,3.3v9h-3.8v-14.9h0Z"/>
  <path class="st2" d="M89.9,39.9h3.9v18.1h10.3v3.2h-14.3v-21.4h0Z"/>
  <path class="st2" d="M104.8,53.8c0-4.5,2.7-7.8,7.7-7.8s7.7,3.3,7.7,7.8-2.7,7.8-7.7,7.8-7.7-3.3-7.7-7.8ZM108.6,53.8c0,2.8,1.3,4.9,3.9,4.9s3.9-2.1,3.9-4.9-1.3-4.9-3.9-4.9-3.9,2.1-3.9,4.9Z"/>
  <path class="st2" d="M127.5,54.9h-1.5v6.4h-3.8v-21.4h3.8v12.2h1.5l3.6-5.8h4.3l-4.8,7.2,5,7.8h-4.4l-3.8-6.4h0Z"/>
  <path class="st2" d="M149.4,59c-1.3,1.6-3.2,2.6-6.1,2.6-5.1,0-7.7-3.1-7.7-7.8s2.6-7.8,7.3-7.8,7,3.2,7,7.3,0,1.2-.1,1.7h-10.4c.3,2.3,1.5,3.7,4,3.7s2.7-.6,3.6-1.8l2.4,2.1h0ZM146.2,52.5c-.2-2.1-1.1-3.6-3.3-3.6s-3.2,1.5-3.5,3.6h6.8Z"/>
  <path class="st2" d="M165.2,46.3l-6.1,15.9c-1.2,3.1-2.6,4.4-5.3,4.4s-1.6-.1-2.1-.3v-2.7c.4,0,.8.2,1.3.2,1.3,0,2.1-.5,2.6-2.2l-5.8-15.3h4l3.8,11h0l3.8-11h3.8,0Z"/>
  <g>
    <path class="st3" d="M31.1,27.7c-1.4,1.4-.5,4,1.9,4,1.9-.1,2.5-1.7,2.4-2.7-.2-2-2.9-2.8-4.3-1.3"/>
    <path class="st3" d="M39.4,27.8c-1.3,1.4-.5,3.8,1.9,4,1.9,0,2.7-1.5,2.6-2.5-.1-2.2-3-3.1-4.5-1.4"/>
    <path class="st3" d="M48.1,28c-1.5,1.3-1,3.9,1.4,4.2,1.9,0,2.7-1.3,2.7-2.4,0-2-2.6-3.1-4.1-1.9"/>
    <path class="st3" d="M22.9,20.4c-1.4,1.5-.7,4,1.6,3.9,1.8-.3,2.5-1.8,2.4-2.8-.2-1.9-2.6-2.5-4-1"/>
    <path class="st3" d="M32.8,23.7c2-.1,2.7-1.7,2.5-2.7-.2-2-3-2.7-4.5-1.1-1.3,1.4-.4,3.7,2,3.8"/>
    <path class="st3" d="M39.4,19.8c-1.3,1.4-.4,3.7,2,3.9,2,0,2.7-1.5,2.6-2.5-.3-2.1-3.1-2.9-4.6-1.4"/>
    <path class="st3" d="M48,20.2c-1.2,1.3-.3,3.7,2,4,2,0,2.6-1.3,2.5-2.4-.3-2-3.1-3.1-4.5-1.7"/>
    <path class="st3" d="M56.2,21.1c-1,1.2-.2,3.7,1.8,4.1,1.7.2,2.2-1.2,2.1-2.2-.3-2.1-2.7-3.3-3.9-1.9"/>
    <path class="st3" d="M11.4,15.2c-1.7,1.2-2.3,3.7-.9,3.8.2,0,.4,0,.5,0,1.3-.4,2.1-1.9,2.3-2.8.2-1.3-.7-1.8-1.9-1"/>
    <path class="st3" d="M17,14.1c-1.6,1.2-1.8,3.3-.3,3.5.2,0,.4,0,.6,0,1.6-.4,2.4-1.7,2.5-2.6.1-1.5-1.4-2-2.8-.9"/>
    <path class="st3" d="M23.7,13.4c-1.5,1.3-1,3.3.9,3.3s.2,0,.2,0c1.8-.2,2.6-1.6,2.6-2.5,0-1.6-2.2-2.1-3.7-.8"/>
    <path class="st3" d="M31,13.1c-1,1.1-.5,3,1.9,3.1,1.9-.1,2.6-1.4,2.5-2.3-.2-1.8-3-2.3-4.4-.8"/>
    <path class="st3" d="M41.3,16.1c1.9,0,2.5-1.3,2.4-2.2-.4-1.8-3.3-2.5-4.6-1-.9,1.1-.2,3,2.2,3.2"/>
    <path class="st3" d="M49.7,16.6c1.9.1,2.4-1.1,2.1-2-.5-1.8-3.5-2.7-4.5-1.3-.8,1,0,3,2.4,3.3"/>
    <path class="st3" d="M59.1,15.7c-.6-1.9-3.2-2.9-4-1.6-.6,1.1.5,3.1,2.4,3.5,1.6.2,1.9-1,1.6-1.9"/>
    <path class="st3" d="M61.7,15.3c-.5,1,.6,3.2,2.2,3.7,1.2.3,1.3-.9,1-1.9-.7-1.8-2.6-3-3.2-1.9"/>
    <path class="st3" d="M68.9,19c-.6-1.7-1.9-3-2.3-2.2-.4.8.8,3.4,1.9,4.1.8.3.7-.9.4-1.8"/>
    <path class="st3" d="M11.1,10.4c-1,.2-3.6,3.4-2.9,3.7.1,0,.2,0,.4,0,.9-.5,2-1.8,2.4-2.5.4-.7.5-1.2.1-1.1"/>
    <path class="st3" d="M15,9c-1.7.6-3.4,3.1-2.4,3.4.2,0,.4,0,.5,0,1.3-.4,2.3-1.6,2.6-2.3.4-.9,0-1.3-.8-1"/>
    <path class="st3" d="M19.6,8.1c-1.7.9-2.5,2.6-1.2,3,.2,0,.5,0,.7,0,1.5-.3,2.4-1.4,2.6-2.2.3-1.1-.7-1.5-2.1-.8"/>
    <path class="st3" d="M25,7.7c-1.3,1-1.1,2.4.4,2.5h.4c1.6-.2,2.5-1.3,2.5-2,.1-1.4-1.9-1.7-3.3-.5"/>
    <path class="st3" d="M31.6,7.4c-.8.9-.4,2.3,1.7,2.3,1.7-.1,2.4-1.2,2.3-1.9-.2-1.5-2.8-1.8-4-.5"/>
    <path class="st3" d="M41,9.8c1.8,0,2.3-1,2-1.7-.5-1.5-3.2-2-4.2-.7-.6.9,0,2.3,2.2,2.4"/>
    <path class="st3" d="M50.3,8.6c-.8-1.5-3.6-2.2-4.2-1-.4.8.5,2.3,2.6,2.6,1.7.1,2-.9,1.7-1.6"/>
    <path class="st3" d="M56.8,9.6c-.9-1.5-3.3-2.4-3.7-1.3-.3.9,1,2.5,2.7,2.9,1.5.2,1.5-.8,1-1.5"/>
    <path class="st3" d="M61.6,12.4c1.1.2.8-.7.4-1.3,0,0,0-.1-.1-.2-1-1.4-2.8-2.4-3.1-1.7-.2.7,1.2,2.7,2.7,3.2"/>
    <path class="st3" d="M65.6,12.5c-.9-1.3-2.3-2.4-2.4-2-.1.5,1.5,2.9,2.7,3.5.5.2.4-.2.3-.5,0-.2-.2-.5-.6-1"/>
    <path class="st3" d="M16.7,7c1.1-.3,2.2-1.3,2.7-1.8.5-.5.5-.8.2-.8-1.1,0-3.9,2.3-3.4,2.6.1,0,.3,0,.5,0"/>
    <path class="st3" d="M21.1,5.9c.2,0,.5,0,.6,0,1.3-.3,2.3-1.2,2.6-1.7.4-.6.1-.9-.7-.8-1.6.4-3.4,2-2.5,2.4"/>
    <path class="st3" d="M27.4,3.2c-1.2.7-1.6,1.6-.6,1.9.2,0,.4,0,.7,0,1.4-.2,2.2-1,2.4-1.5.3-.9-1.1-1.1-2.5-.4"/>
    <path class="st3" d="M32.5,3.2c-.6.6-.3,1.6,1.3,1.6,1.5,0,2.1-.9,2-1.4,0-1.1-2.4-1.2-3.4-.2"/>
    <path class="st3" d="M40.4,4.7c1.3,0,1.9-.7,1.6-1.3-.5-1.2-3.1-1.4-3.6-.3-.3.6.4,1.5,2,1.6"/>
    <path class="st3" d="M48,4c-.8-1-3.4-1.7-3.6-.6-.1.6.8,1.6,2.5,1.8,1.3,0,1.6-.5,1.1-1.2"/>
    <path class="st3" d="M53,5.9c1.2.2.9-.5.6-.9,0,0-.2-.2-.2-.2-1-1-3.2-1.8-3.3-1,0,.6,1.3,1.8,2.9,2.2"/>
    <path class="st3" d="M58,7c.7.2.5-.2.4-.4,0-.1-.3-.4-.7-.7-1.2-1-2.8-1.8-2.8-1.4,0,.4,1.8,2.1,3.2,2.5"/>
    <path class="st3" d="M25.3,2.2c1-.2,2-.8,2.5-1,.2-.1.5-.4.3-.4-.5-.1-3.6,1.1-3.2,1.4,0,0,.3,0,.5,0"/>
    <path class="st3" d="M29.7,1.6c1-.1,1.9-.6,2.1-.9.3-.3,0-.5-.8-.4-1.3.2-2.5,1-2,1.2.2,0,.5,0,.6,0"/>
    <path class="st3" d="M33.6.5c-.4.3-.2.8,1,.8,1.1,0,1.6-.5,1.6-.8,0-.6-1.9-.6-2.6,0"/>
    <path class="st3" d="M40.7.5c-.6-.7-2.7-.7-2.7,0,0,.3.5.7,1.6.8,1.1,0,1.3-.4,1.1-.7"/>
    <path class="st3" d="M44.7,1.6c1,0,.9-.3.7-.5,0,0-.2-.1-.3-.2-.9-.6-2.8-.9-2.7-.4,0,.3,1,1,2.3,1.1"/>
    <path class="st3" d="M49.3,2.2c.6,0,.6,0,.5-.2,0,0-.2-.2-.7-.5-1-.5-2.7-1-2.7-.7,0,.2,1.6,1.1,2.9,1.4"/>
  </g>
  <g>
    <path class="st0" d="M45.1,39.6c1.9.8,3.9-1.1,3.3-3.1-.5-1.9-3.2-2.4-4.4-.3-.8,1.7.2,3,1.1,3.4"/>
    <path class="st0" d="M40.8,46.9c1.9,1,4.2-1.1,3.5-3.2-.6-1.8-3-2.3-4.4-.3-.9,1.7,0,3.1.9,3.5"/>
    <path class="st0" d="M36,53.8c1.8,1,4-.7,3.7-2.7-.3-2-2.9-2.8-4.4-.9-1,1.6-.2,3,.7,3.5"/>
    <path class="st0" d="M56,36c1.7.8,3.5-1,2.9-3-.6-2-3-2.6-4.1-.5-.7,1.7.3,3.1,1.2,3.5"/>
    <path class="st0" d="M52.1,43.5c1.9.8,3.9-1.3,3.2-3.3-.6-1.8-3-2.2-4.2-.2-.8,1.8,0,3.1,1,3.5"/>
    <path class="st0" d="M46.7,47.5c-1,1.7,0,3.1.9,3.5,1.9.8,4.1-1.3,3.5-3.3-.5-1.8-3-2.2-4.4-.2"/>
    <path class="st0" d="M42.8,58c1.9.8,4.2-1.2,3.7-3.1-.5-1.7-3-2.1-4.5-.3-1,1.7-.2,3,.8,3.3"/>
    <path class="st0" d="M37.1,61.1c-1,1.3,0,2.5.9,2.9,1.9.8,4.2-.7,3.6-2.4-.5-1.5-3-2-4.5-.5"/>
    <path class="st0" d="M67.3,26.8c1,.9,1.9.3,1.8-1.1-.2-2-2-3.8-2.8-2.7-.1.1-.2.3-.2.5-.3,1.4.6,2.8,1.2,3.4"/>
    <path class="st0" d="M65,33.1c1.2.8,2.4-.2,2.2-2-.2-2-1.9-3.2-2.9-2-.1.2-.2.4-.3.5-.5,1.6.3,3,1,3.5"/>
    <path class="st0" d="M62,40c1.4.8,2.9-.9,2.6-2.8-.4-2-2.4-2.5-3.3-.9,0,0,0,.2-.1.2-.7,1.7,0,3,.8,3.5"/>
    <path class="st0" d="M57.5,43.8c-.8,1.7,0,3,.7,3.3,1.7.7,3.5-1.5,2.8-3.4-.5-1.4-2.4-1.9-3.6,0"/>
    <path class="st0" d="M54,54.3c1.8.6,3.8-1.6,3.2-3.4-.5-1.3-2.5-1.7-3.8.3-.9,1.7-.2,2.9.7,3.1"/>
    <path class="st0" d="M49.4,61c1.8.5,4.1-1.7,3.4-3.3-.5-1.2-2.7-1.4-4.1.4-1,1.6-.2,2.6.7,2.8"/>
    <path class="st0" d="M44.8,66.8c2,.4,4.1-1.3,3.4-2.7-.6-1.1-2.9-1.1-4.2.4-1,1.3,0,2.1.9,2.3"/>
    <path class="st0" d="M43.9,69.2c-.6-.9-3.1-1.1-4.3,0-.9.9.1,1.6,1.1,1.8,1.9.3,3.9-.8,3.2-1.8"/>
    <path class="st0" d="M35.7,72.5c-.7.6.4,1.1,1.4,1.2,1.8.3,3.5-.2,3.1-.8-.5-.7-3.3-1.1-4.5-.4"/>
    <path class="st0" d="M73.4,27.8c.4-1-1.2-4.8-1.7-4.4,0,0,0,.2-.1.3,0,1.1.6,2.6,1,3.3.4.7.8,1,.9.7"/>
    <path class="st0" d="M72.7,31.9c.3-1.8-.9-4.5-1.7-3.7-.1.1-.2.3-.2.5-.3,1.3.3,2.8.7,3.4.6.8,1.1.8,1.3-.1"/>
    <path class="st0" d="M69.4,37.7c.8.8,1.7.1,1.7-1.4,0-1.9-1.1-3.5-1.9-2.6-.2.2-.3.4-.3.6-.5,1.4,0,2.8.6,3.4"/>
    <path class="st0" d="M66.7,43.9c1.1.8,2.4-.8,2.1-2.6-.2-1.7-1.5-2.2-2.4-1,0,0-.2.3-.2.4-.6,1.5-.1,2.8.5,3.2"/>
    <path class="st0" d="M65.7,47c-.4-1.2-1.8-1.5-2.8.3-.8,1.6-.2,2.7.4,3,1.4.6,3-1.5,2.4-3.2"/>
    <path class="st0" d="M59,54c-.9,1.5-.2,2.5.5,2.6,1.6.4,3.4-1.8,2.7-3.3-.4-1-2-1.1-3.2.7"/>
    <path class="st0" d="M55.4,62.7c1.7.1,3.7-2,3-3.2-.5-.8-2.3-.7-3.5.9-1,1.5-.2,2.2.6,2.2"/>
    <path class="st0" d="M54.3,65.3c-.6-.7-2.7-.4-3.8.9-.9,1.2,0,1.7.8,1.6,1.8,0,3.7-1.7,3-2.6"/>
    <path class="st0" d="M46.4,70.6c-.8.8.2,1.1.9,1.1,0,0,.2,0,.2,0,1.7-.2,3.5-1.2,3-1.8-.5-.6-2.9-.3-4.2.8"/>
    <path class="st0" d="M42.9,73.6c-.5.3,0,.5.3.5.2,0,.6,0,1.2,0,1.6-.2,3.2-.8,2.9-1.1-.3-.3-3.2,0-4.4.6"/>
    <path class="st0" d="M73.8,34c-.1,0-.2.3-.2.4-.2,1.1,0,2.6.2,3.3.2.7.4.9.6.5.5-1,0-4.5-.6-4.2"/>
    <path class="st0" d="M72.3,38.7c-.2.1-.3.4-.3.5-.4,1.3-.2,2.6.1,3.1.3.7.8.5,1-.3.5-1.6,0-3.9-.8-3.4"/>
    <path class="st0" d="M70.1,44.1c-.2.2-.3.4-.4.5-.5,1.3-.3,2.4,0,2.8.7.7,1.5-.4,1.6-1.9,0-1.4-.6-2.2-1.3-1.5"/>
    <path class="st0" d="M66.9,50.3c-.7,1.3-.3,2.2.2,2.5,1,.5,2.3-1.5,1.9-2.8-.2-.8-1.2-1.1-2,.4"/>
    <path class="st0" d="M64,58c1.3.1,2.8-2,2.1-3-.4-.5-1.5-.4-2.4,1-.7,1.2-.4,2,.3,2"/>
    <path class="st0" d="M62.9,60.2c-.5-.4-1.8,0-2.8,1.3-.7,1.1-.3,1.7.5,1.5,1.3-.2,3.1-2.1,2.3-2.8"/>
    <path class="st0" d="M56.3,66.4c-.7.9,0,1.1.5,1,0,0,.2,0,.3,0,1.4-.4,3.2-1.9,2.5-2.3-.5-.3-2.2.2-3.3,1.4"/>
    <path class="st0" d="M52.9,70.2c-.5.5,0,.5.2.5.2,0,.5,0,1-.2,1.4-.5,2.9-1.5,2.6-1.8-.3-.3-2.7.5-3.8,1.5"/>
    <path class="st0" d="M73.7,43.8c-.1,0-.2.3-.3.4-.3,1-.4,2.2-.3,2.7,0,.2,0,.7.2.5.4-.4.9-3.7.4-3.5"/>
    <path class="st0" d="M72.1,47.8c-.2.1-.3.4-.4.5-.4,1-.4,1.9-.2,2.3.2.4.5.2.7-.5.5-1.3.4-2.7,0-2.3"/>
    <path class="st0" d="M69.6,52.7c-.5,1-.4,1.7-.1,1.8.6.3,1.5-1.3,1.3-2.2-.1-.5-.6-.5-1.2.4"/>
    <path class="st0" d="M67,57.1c-.6,1-.3,1.4,0,1.3.9-.2,2-1.9,1.4-2.3-.2-.2-.9,0-1.5,1"/>
    <path class="st0" d="M64.3,61.3c-.5.8-.2.9,0,.9,0,0,.2,0,.3-.1.9-.5,2.2-2,1.7-2.2-.3-.1-1.3.4-2.1,1.4"/>
    <path class="st0" d="M61.4,65.1c-.4.4-.2.5,0,.5,0,0,.3,0,.8-.4.9-.6,2.2-1.9,2-1.9-.2,0-1.8.8-2.7,1.8"/>
  </g>
  <g>
    <path class="st1" d="M25,32.2c1.8-.3,2.3-1.8,2.1-2.8-.3-2-2.9-2.6-4.1-1.1-1.2,1.5-.2,4,2,3.9"/>
    <path class="st1" d="M32.3,47.2c1.9.5,3.7-1.6,2.5-3.7-1.1-1.5-2.7-1.4-3.5-.8-1.6,1.2-1,3.9,1,4.4"/>
    <path class="st1" d="M28.2,40c1.9.4,3.5-1.5,2.5-3.6-1-1.6-2.6-1.6-3.5-1-1.8,1.2-1.1,4.1,1,4.6"/>
    <path class="st1" d="M32.6,54.7c-1.1-1.5-2.8-1.3-3.6-.7-1.6,1.1-.9,3.5,1.1,4,2,.5,3.8-1.3,2.5-3.3"/>
    <path class="st1" d="M25.7,51.3c1.9.4,3.5-1.5,2.3-3.6-1.1-1.6-2.8-1.5-3.6-.9-1.6,1.2-.8,4,1.3,4.5"/>
    <path class="st1" d="M21.3,43.9c1.8.4,3.4-1.5,2.4-3.7-1-1.7-2.6-1.6-3.5-1-1.6,1.3-1,4.2,1.1,4.7"/>
    <path class="st1" d="M17.3,36.3c1.7.4,3.4-1.6,2.5-3.8-.9-1.7-2.5-1.6-3.3-1-1.6,1.3-1.1,4.3.8,4.7"/>
    <path class="st1" d="M14,28.7c1.6.3,3.3-1.6,2.7-3.6-.7-1.5-2.1-1.3-3-.7-1.7,1.3-1.5,4,.3,4.3"/>
    <path class="st1" d="M34.8,69c-1-.9-2.7-.9-3.5-.6-1.2.4-1.2,1.5,0,2.1,1.8.9,4.3.2,3.8-1.1,0-.2-.2-.3-.3-.4"/>
    <path class="st1" d="M27.5,66.2c1.9.8,3.8,0,3.2-1.5,0-.2-.2-.4-.3-.5-1.1-1.2-2.7-1.2-3.5-.9-1.3.6-1,2.2.6,2.9"/>
    <path class="st1" d="M23.6,60.8c1.9.7,3.4-.8,2.4-2.4,0,0,0-.1-.1-.2-1.1-1.4-2.7-1.5-3.4-1-1.4.8-.7,3,1.1,3.6"/>
    <path class="st1" d="M21.4,51.4c-1.1-1.6-2.5-1.6-3.3-1-1.5,1.1-.5,3.8,1.5,4.2,1.5.3,2.9-1.1,1.7-3.2"/>
    <path class="st1" d="M17.2,44.1c-1-1.7-2.4-1.6-3.1-1-1.4,1.2-.5,4.1,1.4,4.5,1.4.2,2.7-1.3,1.7-3.5"/>
    <path class="st1" d="M11.7,40.4c1.3.2,2.6-1.6,1.7-3.8-.9-1.7-2.2-1.5-2.8-.8-1.3,1.4-.6,4.4,1.1,4.6"/>
    <path class="st1" d="M8.6,33.2c1.2,0,2.4-2,1.8-3.9-.6-1.5-1.8-1.1-2.4-.4-1.3,1.5-.9,4.2.6,4.3"/>
    <path class="st1" d="M6.3,23.2c-1.2,1.5-1.3,3.8,0,3.7,1.1,0,2.5-2.2,2.1-3.8-.4-1.2-1.4-.7-2.1,0"/>
    <path class="st1" d="M5,21.9c.8,0,2.6-2.4,2.6-3.7-.1-.9-1.1-.2-1.7.6-1.1,1.4-1.6,3.2-.8,3.1"/>
    <path class="st1" d="M31.7,73.6c-.9-.6-2.5-.8-3.4-.8-.8,0-1.2.2-1,.4.7.8,4.7,1.4,4.6.7,0-.1-.1-.2-.2-.3"/>
    <path class="st1" d="M28.3,70.9c0-.2-.2-.3-.3-.4-1-.9-2.6-1.1-3.3-1.1-1,0-1.2.6-.5,1.2,1.4,1.2,4.4,1.4,4.1.4"/>
    <path class="st1" d="M24.3,66.6c0-.2-.2-.4-.3-.6-1-1.1-2.5-1.4-3.2-1.2-1.1.3-1,1.4.3,2.2,1.6,1,3.5.8,3.2-.4"/>
    <path class="st1" d="M18,62.5c1.5.6,2.6-.2,2-1.6,0-.1-.1-.3-.2-.4-1-1.3-2.4-1.5-3-1.2-1.3.6-.5,2.4,1.2,3.2"/>
    <path class="st1" d="M12.9,53.2c-1.2.9-.2,3.3,1.6,3.7,1.2.2,2.2-.8,1.2-2.6-1-1.5-2.2-1.5-2.8-1.1"/>
    <path class="st1" d="M11.8,47.6c-.9-1.5-2-1.5-2.5-.9-1.1,1.2-.1,3.8,1.5,4,1.1.1,1.9-1.2,1-3.1"/>
    <path class="st1" d="M6.2,40.1c-1,1.4-.1,4.2,1.3,4.2.9,0,1.7-1.6,1-3.5-.8-1.5-1.8-1.3-2.2-.6"/>
    <path class="st1" d="M4.5,37.9c.9-.1,1.7-2.1,1.1-3.8-.6-1.4-1.4-.9-1.8,0-.8,1.6-.4,4.1.7,3.9"/>
    <path class="st1" d="M2.5,28.6c0,0,0,.1,0,.2-.7,1.6-.7,3.6,0,3.5.7-.1,1.8-2.4,1.4-4-.3-1.1-1-.4-1.4.3"/>
    <path class="st1" d="M1.4,28c.5-.1,1.7-2.8,1.7-4.1,0-.6-.4-.2-.6,0-.1.2-.3.5-.6,1-.6,1.5-.9,3.2-.5,3.1"/>
    <path class="st1" d="M18.6,68.6c-.7-.2-1,0-.8.2.7.9,3.9,2.3,4,1.6,0-.1-.1-.3-.2-.4-.8-.8-2.2-1.3-2.9-1.5"/>
    <path class="st1" d="M18.4,66.8c0-.2-.2-.4-.3-.6-.9-1-2.1-1.4-2.7-1.4-.8,0-.9.4-.3,1,1.1,1.2,3.4,1.9,3.3,1"/>
    <path class="st1" d="M14.9,62.2c0-.2-.2-.4-.3-.6-.9-1.1-2-1.5-2.5-1.3-.9.2-.4,1.5.9,2.3,1.2.8,2.2.5,1.9-.4"/>
    <path class="st1" d="M10.4,58.3c.9.2,1.5-.5.7-1.9-.8-1.2-1.8-1.4-2.2-1.1-.9.6.1,2.7,1.5,3"/>
    <path class="st1" d="M5.9,49.9c-.7,1.1.4,3.4,1.5,3.3.6,0,1.1-1.1.4-2.5-.7-1.2-1.5-1.3-1.9-.8"/>
    <path class="st1" d="M4.5,47.9c.6-.2,1-1.5.3-3.1-.6-1.2-1.3-1.1-1.5-.4-.5,1.3.3,3.8,1.2,3.4"/>
    <path class="st1" d="M2.5,39.1c-.5-1.1-.9-.5-1.1,0,0,0,0,.2-.1.3-.3,1.4,0,3.7.8,3.3.5-.2.9-2.1.4-3.6"/>
    <path class="st1" d="M1,34.2c-.2-.7-.4-.4-.5-.1,0,.2-.2.5-.3,1-.3,1.5-.1,3.3.2,3.2.4-.2.9-2.6.6-4"/>
    <path class="st1" d="M11,63.4c-.2,0-.6-.3-.5,0,.2.5,2.7,2.6,2.9,2.1,0-.1-.1-.3-.2-.4-.7-.8-1.7-1.4-2.1-1.6"/>
    <path class="st1" d="M10.7,62.1c0-.2-.2-.4-.3-.6-.6-.8-1.4-1.3-1.8-1.4-.4,0-.4.3,0,.9.9,1,2.1,1.7,2,1.1"/>
    <path class="st1" d="M6.2,56.4c-.5.3.4,1.9,1.3,2.2.5.2.8-.2.2-1.2-.6-.9-1.3-1.2-1.5-1"/>
    <path class="st1" d="M4,52.5c-.3.8.7,2.7,1.3,2.4.3-.1.4-.8-.1-1.8-.6-1-1-.9-1.2-.6"/>
    <path class="st1" d="M2.1,48.1c0,0,0,.2,0,.3,0,1.1.6,2.9,1,2.6.3-.2.3-1.4-.2-2.5-.4-.9-.7-.6-.8-.4"/>
    <path class="st1" d="M.7,43.8c0,0,0,.3,0,.9,0,1.1.5,2.9.7,2.7.2-.2.2-2-.2-3.2-.2-.5-.3-.5-.4-.3"/>
  </g>
</svg>