<?xml version="1.0" encoding="UTF-8"?>
<svg id="Layer_1" xmlns="http://www.w3.org/2000/svg" version="1.1" viewBox="0 0 1920 504.3">
  <!-- Generator: Adobe Illustrator 29.0.1, SVG Export Plug-In . SVG Version: 2.1.0 Build 192)  -->
  <defs>
    <style>
      .st0 {
        fill: #fff;
      }
    </style>
  </defs>
  <path class="st0" d="M883.3,212.3c-7.5,20.5,3.7,30,9.8,47.4,22.5,63.5-25.7,169.3-93.6,186.2-15.8,3.9-39.7,4.6-53.6-5.2-4.6-3.3-16.2-16.6-15.4-22.4.4-2.6,12.6-14.5,15.3-17.8,37-44.6,74.5-104.5,72.2-164.8-2.2-60-51.7-52.4-81.4-15.4-29.5,36.7-51.2,99.6-55.7,146.2-2,21.1-.6,42.2-.5,63.4-19.2,15.5-64.4,27.7-84.6,10.3-24-20.7-9.2-87.3.5-113.8,8.2-22.6,21.6-44,35.3-63.7,8-11.5,33.3-40.4,35.7-51.9,1.4-6.6-3.3-13.4-9.9-14.1-5.6-.6-20.3,4.8-27.6,5.5-36.8,3.3-64-22.2-100.5-2.5-31.7,17.2-86.3,79.9-57.7,116.4,17.1,21.9,53.1,9.8,42.8-22.1-4.9-15.2-22.1-22.7-11-40.9,8.9-14.7,34.7-17.4,50.1-15.7,13.2,1.5,27.3,9.1,41.4,10.2,10.5.8,19.4-1.5,29.4-4.1-36,35.7-67.7,81.7-85.4,129.5-18.5,50.4-20.4,125.1,49.2,131.1,3.4.3,6.9-.2,10.3,0,8.3-1.8,16.3-3.3,24.3-6.2,24.4-8.8,45.9-26,66.5-41.2,5.9,17.6,17.3,35.4,35.1,42.7,5.7,2.4,11.6,3.1,17.5,4.7h11.3c90.1-7.4,168.6-132.8,188.1-212.4,6.3-25.7,11.9-68.3-6.5-89.9-15.2-17.8-43.5-10.7-51.3,10.5ZM723.2,390.8c-8.2-43.3-5.2-108.6,24.8-143.7,11.2-13.1,41.6-27.5,44.3-1,4.2,41.1-36.8,111.9-64.4,141.6-1.2,1.3-2.6,3.3-4.6,3.1Z"/>
  <path class="st0" d="M1919.6,13.2c4.2-27.3-23.9-4.5-35.3.8-15.2,7.1-34.1,14-50.2,18.9-9.1,2.8-21.6,4.4-29.7,7.4-1.5.5-2.9.9-3.8,2.4-3.9,16.9,6.7,13.1,17.8,16.2,15.5,4.4,18.3,9.5,15.2,25.1l-43.9,126.6c-28.9-27.9-64.9-20.4-97-2.6-71.8,39.8-158.6,151.7-152.7,237,1.9,28,18.3,56.1,48.5,59.2,2.7.3,5.5-.2,8.3,0,4.1-1.6,8.8-1.6,13.2-2.8,28-7.5,59.9-35.8,78.6-57.5,11-12.8,20.2-26.9,29.9-40.7-9.2,23.9-29.1,72.5-5.7,92.7,6.6,5.7,13.1,6.4,21.2,8.2h8.3c28.4-3.4,62.3-39.8,79.4-61.3,4.3-5.5,18.5-23.4,19.5-29.1,1-6.1-8.5-14.8-13.6-11.5-10.1,11-18,23.9-28,34.9-4.9,5.4-23.5,26.5-31.2,19.3-7.1-6.7,4-34.9,6.9-43.5,45.2-134.1,100.6-265.1,144.3-399.8ZM1737.3,340c-19.2,33.1-63.3,99.9-98.5,114.9-59,25.1-34.1-71.5-24.7-97.8,16.1-45,69.9-136.1,121.7-143.1,24.2-3.3,41.9,6,41.6,32.2-.3,23.6-27.7,72.5-40.1,93.9Z"/>
  <path class="st0" d="M216.5,202.6c-41.5,19.2-71,59.3-96.8,95.5L207.2,20.2c9.7-37.8-20.7-12.4-36.1-5.2-25.2,11.7-52.2,19.8-79.2,26.2-7.7,19,9.8,14.6,21.4,18.8,15.4,5.6,13.9,13.8,11.2,28L0,485.1c-.9,5.1,7.2,8.2,11.4,9.3,11.1,3,36.8,1.1,42.1-10.6,5.8-12.8,9.8-31.9,14.9-45.9,23.1-63.4,71.6-154.8,129-192.6,62.6-41.3,55.1,38.5,50.1,75.8-4.5,33.9-27.1,121.2-56.2,140.6-14.3,9.5-19.7-7.8-30.3-14.7-45.9-29.9-76,51.4-15.4,57.1,2.3.2,6,.2,8.3,0,15.6-1.6,34.8-14,46.9-23.7,57.9-46.4,110-134.7,114-209.6,3.5-65.9-36.3-96.8-98.2-68.2Z"/>
  <path class="st0" d="M1008.1,288.5c-41.5,70-59.7,191.9,42.1,215.6h11.3l1.6-1c112.4-8.3,216.4-203.3,132.5-289-62.1-63.5-154.4,18.4-187.6,74.4ZM1137.7,393.3c-12.5,27.2-47.8,87.4-80.8,89.3-20.2,1.1-26.2-11.4-27.4-29.4-4.4-64,26.5-155.6,66.7-205.4,10.5-13,28.1-32.1,45.6-33.8,23.7-2.3,28.2,13.1,29.2,33.1,2.2,45.2-14.4,105.2-33.2,146.2Z"/>
  <path class="st0" d="M1355.2,220c-60.6,44.4-108.2,136.3-91.2,212.2,7.7,34.5,35,68.1,71.9,71.9h11.3c111.5-7.7,217.8-200.6,135.7-288.4-37.1-39.7-89.2-23.9-127.7,4.3ZM1363.6,474.7c-17.2,11.4-41.1,13.2-46.7-10.9-9.3-40.3,10.8-112.8,27-150.9,12.3-29,49.1-95.3,83.5-98.9,22.5-2.4,27.9,11.7,29.1,31.1,4.1,64.7-36.7,192.4-93,229.7Z"/>
  <path class="st0" d="M377.1,432c-44.3,0-48.2,67.4-3.6,72.1,2,.2,5.2.2,7.2,0,43.7-4.7,40.6-72.1-3.6-72.1Z"/>
</svg>