<?xml version="1.0" encoding="UTF-8"?>
<svg id="Layer_1" xmlns="http://www.w3.org/2000/svg" version="1.1" viewBox="0 0 500 500">
  <!-- Generator: Adobe Illustrator 29.2.1, SVG Export Plug-In . SVG Version: 2.1.0 Build 116)  -->
  <defs>
    <style>
      .st0 {
        fill: #fff;
      }
    </style>
  </defs>
  <path class="st0" d="M230,239.6c-2,5.3,1,7.8,2.6,12.3,5.9,16.5-6.7,44.1-24.4,48.5-4.1,1-10.3,1.2-14-1.4-1.2-.9-4.2-4.3-4-5.8.1-.7,3.3-3.8,4-4.6,9.6-11.6,19.4-27.2,18.8-42.9-.6-15.6-13.5-13.6-21.2-4-7.7,9.6-13.3,25.9-14.5,38.1-.5,5.5-.2,11-.1,16.5-5,4-16.8,7.2-22,2.7-6.2-5.4-2.4-22.7.1-29.6,2.1-5.9,5.6-11.5,9.2-16.6,2.1-3,8.7-10.5,9.3-13.5.4-1.7-.9-3.5-2.6-3.7-1.5-.2-5.3,1.2-7.2,1.4-9.6.9-16.7-5.8-26.2-.7-8.3,4.5-22.5,20.8-15,30.3,4.5,5.7,13.8,2.6,11.1-5.8-1.3-4-5.8-5.9-2.9-10.7,2.3-3.8,9-4.5,13-4.1,3.4.4,7.1,2.4,10.8,2.7,2.7.2,5.1-.4,7.7-1.1-9.4,9.3-17.6,21.3-22.2,33.7-4.8,13.1-5.3,32.6,12.8,34.1.9,0,1.8,0,2.7,0,2.2-.5,4.2-.9,6.3-1.6,6.4-2.3,12-6.8,17.3-10.7,1.5,4.6,4.5,9.2,9.1,11.1,1.5.6,3,.8,4.6,1.2h2.9c23.5-1.9,43.9-34.6,49-55.3,1.6-6.7,3.1-17.8-1.7-23.4-4-4.6-11.3-2.8-13.4,2.7h0ZM188.3,286.1c-2.1-11.3-1.4-28.3,6.5-37.4,2.9-3.4,10.8-7.2,11.5-.3,1.1,10.7-9.6,29.1-16.8,36.9-.3.3-.7.9-1.2.8h0Z"/>
  <path class="st0" d="M499.9,187.8c1.1-7.1-6.2-1.2-9.2.2-4,1.8-8.9,3.6-13.1,4.9-2.4.7-5.6,1.1-7.7,1.9-.4.1-.8.2-1,.6-1,4.4,1.7,3.4,4.6,4.2,4,1.1,4.8,2.5,4,6.5l-11.4,33c-7.5-7.3-16.9-5.3-25.3-.7-18.7,10.4-41.3,39.5-39.8,61.7.5,7.3,4.8,14.6,12.6,15.4.7,0,1.4,0,2.2,0,1.1-.4,2.3-.4,3.4-.7,7.3-2,15.6-9.3,20.5-15,2.9-3.3,5.3-7,7.8-10.6-2.4,6.2-7.6,18.9-1.5,24.1,1.7,1.5,3.4,1.7,5.5,2.1h2.2c7.4-.9,16.2-10.4,20.7-16,1.1-1.4,4.8-6.1,5.1-7.6.3-1.6-2.2-3.9-3.5-3-2.6,2.9-4.7,6.2-7.3,9.1-1.3,1.4-6.1,6.9-8.1,5-1.8-1.7,1-9.1,1.8-11.3,11.8-34.9,26.2-69,37.6-104.1h0ZM452.4,272.9c-5,8.6-16.5,26-25.6,29.9-15.4,6.5-8.9-18.6-6.4-25.5,4.2-11.7,18.2-35.4,31.7-37.3,6.3-.9,10.9,1.6,10.8,8.4,0,6.1-7.2,18.9-10.4,24.5h0Z"/>
  <path class="st0" d="M56.4,237.1c-10.8,5-18.5,15.4-25.2,24.9l22.8-72.4c2.5-9.8-5.4-3.2-9.4-1.4-6.6,3-13.6,5.2-20.6,6.8-2,4.9,2.6,3.8,5.6,4.9,4,1.5,3.6,3.6,2.9,7.3L0,310.6c-.2,1.3,1.9,2.1,3,2.4,2.9.8,9.6.3,11-2.8,1.5-3.3,2.6-8.3,3.9-12,6-16.5,18.6-40.3,33.6-50.2,16.3-10.8,14.3,10,13,19.7-1.2,8.8-7.1,31.6-14.6,36.6-3.7,2.5-5.1-2-7.9-3.8-12-7.8-19.8,13.4-4,14.9.6,0,1.6,0,2.2,0,4.1-.4,9.1-3.6,12.2-6.2,15.1-12.1,28.6-35.1,29.7-54.6.9-17.2-9.5-25.2-25.6-17.8h0Z"/>
  <path class="st0" d="M262.5,259.5c-10.8,18.2-15.5,50,11,56.1h2.9l.4-.3c29.3-2.2,56.4-52.9,34.5-75.3-16.2-16.5-40.2,4.8-48.9,19.4h0ZM296.3,286.7c-3.3,7.1-12.4,22.8-21,23.3-5.3.3-6.8-3-7.1-7.7-1.1-16.7,6.9-40.5,17.4-53.5,2.7-3.4,7.3-8.4,11.9-8.8,6.2-.6,7.3,3.4,7.6,8.6.6,11.8-3.7,27.4-8.6,38.1h0Z"/>
  <path class="st0" d="M352.9,241.6c-15.8,11.6-28.2,35.5-23.7,55.3,2,9,9.1,17.7,18.7,18.7h2.9c29-2,56.7-52.2,35.3-75.1-9.7-10.3-23.2-6.2-33.3,1.1h0ZM355.1,307.9c-4.5,3-10.7,3.4-12.2-2.8-2.4-10.5,2.8-29.4,7-39.3,3.2-7.6,12.8-24.8,21.7-25.8,5.9-.6,7.3,3,7.6,8.1,1.1,16.8-9.6,50.1-24.2,59.8h0Z"/>
  <path class="st0" d="M98.2,296.8c-11.5,0-12.6,17.6-.9,18.8.5,0,1.4,0,1.9,0,11.4-1.2,10.6-18.8-.9-18.8Z"/>
</svg>