<?xml version="1.0" encoding="UTF-8"?>
<svg id="layer" xmlns="http://www.w3.org/2000/svg" version="1.1" viewBox="0 0 614 148">
  <!-- Generator: Adobe Illustrator 29.0.1, SVG Export Plug-In . SVG Version: 2.1.0 Build 192)  -->
  <defs>
    <style>
      .st0 {
        fill: #fff;
      }
    </style>
  </defs>
  <path class="st0" d="M8,101.2h10V11.3h-10v-1.8h21.1v51h.3c.4-1.1,1.2-2.5,2.2-4.2s2.4-3.3,4.2-4.8,3.9-2.8,6.5-3.9,5.6-1.6,9.1-1.6c5.7,0,10.4,1.4,13.9,4.2,3.6,2.8,5.4,7.2,5.4,13.2v37.9h10v1.8h-31.1v-1.8h10v-41.9c0-3.4-.8-6.1-2.4-8.3-1.6-2.2-4.1-3.2-7.5-3.2s-5.4.6-7.9,1.8c-2.5,1.2-4.7,2.9-6.6,5.1-1.9,2.2-3.4,4.7-4.5,7.6s-1.6,6.1-1.6,9.6v29.3h10v1.8H8v-1.9Z"/>
  <path class="st0" d="M76.9,47.3h31.8v1.8h-10.9l16.7,40.7,17.5-40.7h-10.8v-1.8h19.8v1.8h-7l-21.4,50.1c-1.6,3.7-3.2,7.5-4.7,11.2-1.5,3.8-2.9,7.5-4.4,11.4-1.2,3.1-2.4,5.8-3.6,8.2-1.2,2.3-2.5,4.2-3.8,5.7s-2.8,2.6-4.3,3.3c-1.6.7-3.4,1.1-5.5,1.1s-4.5-.4-6-1.2c-1.5-.8-2.7-1.7-3.6-2.7s-1.4-2.1-1.7-3.2c-.3-1.1-.4-2.1-.4-2.9,0-2.2.6-3.8,1.8-4.9,1.2-1.1,2.7-1.6,4.4-1.6s1.3.1,1.9.2,1.3.4,1.9.7c.6.3,1.1.8,1.6,1.4.4.6.7,1.3.7,2.2s-.4,2.3-1.1,3.4-1.1,2.3-1.1,3.6.3,1.9.9,2.2c.6.4,1.4.5,2.5.5s2.7-.3,3.8-1c1.2-.6,2.3-1.7,3.4-3.2s2.3-3.4,3.4-5.8,2.4-5.3,3.8-8.8l5.7-14.5-22.4-55.5h-9v-1.7h0Z"/>
  <path class="st0" d="M174.7,9.5h21.1v91.7h10v1.8h-20.9v-11.3h-.3c-.3,1-.9,2.3-1.6,3.8-.7,1.5-1.7,2.9-3,4.3s-3,2.6-5.1,3.6-4.5,1.5-7.5,1.5-7.4-.8-10.8-2.5c-3.4-1.6-6.4-3.9-9-6.6-2.6-2.8-4.6-5.9-6.2-9.5-1.5-3.6-2.3-7.4-2.3-11.3s.7-7.6,2.2-11.2c1.5-3.5,3.5-6.6,6-9.3,2.5-2.6,5.4-4.8,8.7-6.4s6.8-2.4,10.5-2.4,8.6,1.2,11.5,3.5,5,5.2,6.2,8.6h.3V11.3h-10v-1.8h.2ZM152.2,73.3c0,4.5.1,8.6.4,12.3.3,3.7.9,6.8,1.9,9.4s2.6,4.6,4.7,6c2.1,1.4,4.9,2.1,8.4,2.1s6.5-.8,8.8-2.3c2.2-1.6,3.9-3.6,5.1-6,1.2-2.5,2-5.2,2.5-8.2.4-3,.6-6,.6-8.8s-.1-6.3-.2-8.8-.4-4.6-.7-6.5-.8-3.5-1.4-4.9c-.6-1.4-1.3-2.7-2.2-3.9-1.3-1.7-3-3.2-5.1-4.3-2.1-1.1-4.7-1.7-7.9-1.7s-5.5.6-7.5,1.8c-1.9,1.2-3.5,2.9-4.5,5.2-1.1,2.3-1.8,4.9-2.3,8.1-.4,2.9-.6,6.5-.6,10.5"/>
  <path class="st0" d="M209.7,101.2h10v-52h-10v-1.8h20.9v13.1h.3c.3-1.3.9-2.8,1.7-4.4s1.9-3.2,3.2-4.7c1.4-1.5,3-2.8,5-3.8s4.3-1.6,7.1-1.6,3.7.3,5.2,1c1.5.6,2.7,1.5,3.6,2.5s1.6,2.1,2.1,3.4c.4,1.3.6,2.6.6,3.9,0,2.9-.6,4.8-2,5.7-1.3,1-2.8,1.4-4.5,1.4-3.8,0-5.7-1.2-5.7-3.6s.1-1.4.3-1.9c.2-.5.4-1,.6-1.4.2-.5.4-1,.6-1.6s.3-1.5.3-2.6c0-2.8-1.5-4.1-4.5-4.1s-2.9.5-4.4,1.6c-1.6,1-3,2.5-4.3,4.5s-2.5,4.4-3.4,7.2c-.9,2.8-1.4,6-1.4,9.7v29.7h11.3v1.8h-32.4v-2h-.2Z"/>
  <path class="st0" d="M317.8,101.5c-1.1.9-2.5,1.6-4,2.3-1.5.6-3.5,1-5.7,1-4.1,0-7.2-.9-9-2.7-1.9-1.8-3.1-4.3-3.8-7.5h-.3c-.3.8-.8,1.8-1.4,2.9-.6,1.2-1.5,2.3-2.8,3.4s-2.9,2-5,2.7-4.7,1.1-7.9,1.1-6.5-.4-8.7-1.2c-2.2-.8-3.8-1.8-5.1-3-1.2-1.2-2-2.6-2.4-4.1s-.6-2.9-.6-4.2c0-3,.6-5.5,1.8-7.3,1.2-1.8,2.8-3.3,4.7-4.3,1.9-1.1,4.1-2,6.5-2.7s4.8-1.4,7.2-2.2c2.9-1,5.2-1.8,7.1-2.5s3.3-1.5,4.3-2.5,1.7-2.3,2.1-3.8.6-3.6.6-6.2-.1-3.9-.4-5.6c-.3-1.6-.7-3.1-1.4-4.2-.7-1.2-1.7-2.1-3-2.7s-3-.9-5.2-.9-5.2.5-7.1,1.5-2.8,2.6-2.8,4.9.1,2.9.4,4.3.4,2.5.4,3.2c0,1.2-.4,2.2-1.3,3s-2.1,1.2-3.8,1.2c-2.9,0-4.6-.5-5.3-1.6-.7-1-1-2.4-1-4s.4-3.7,1.3-5.5c.9-1.7,2.1-3.3,3.8-4.6,1.7-1.3,3.8-2.4,6.4-3.2,2.5-.8,5.5-1.2,8.8-1.2s7.3.5,10,1.5,4.8,2.3,6.5,4c1.6,1.7,2.8,3.6,3.5,5.7s1,4.3,1,6.7v32.3c0,2.5.4,4.2,1.2,5.1.8.9,1.9,1.3,3.4,1.3s1.9-.2,3-.5c1-.3,2-.9,3-1.6l1,1.7ZM295.1,71.2h-.3c-.2,1.1-1.6,2.3-4.3,3.4l-9.7,3.9c-2.8,1.1-4.9,2.7-6.4,4.7s-2.2,4.6-2.2,7.6.1,2.6.4,4,.7,2.6,1.4,3.7c.7,1.1,1.7,2,2.9,2.7,1.3.7,2.9,1,4.9,1,2.9,0,5.2-.6,6.9-1.8,1.8-1.2,3.1-2.7,4-4.5s1.5-3.8,1.8-5.9.5-4,.5-5.8c.1,0,.1-13,.1-13Z"/>
  <path class="st0" d="M318.7,101.2h6.5v-52h-10v-1.8h10v-6.9c0-3,.1-5.6.5-7.8.3-2.2.7-4.2,1.2-5.8.5-1.7,1.1-3.2,1.8-4.4.7-1.3,1.5-2.4,2.3-3.4,2.2-2.9,5.1-5.3,8.4-7.5,3.4-2.1,7-3.2,10.8-3.2s5.3.4,7.3,1.2c2,.8,3.7,1.8,5,3s2.2,2.5,2.8,4c.6,1.4.9,2.7.9,3.8,0,1.6-.5,3.2-1.4,4.5-1,1.4-2.6,2.1-4.8,2.1s-2.4-.3-3.8-.8-2.1-1.6-2.1-3.4.4-2.8,1.2-4c.8-1.2,1.2-2.5,1.2-4s-.8-3.2-2.3-3.8c-1.5-.6-3.2-1-4.8-1-3.5,0-6.6,1.6-9.2,4.7s-3.9,8-3.9,14.5v18h16.1v1.8h-16.1v52h11.8v1.8h-29.5v-1.6h.1Z"/>
  <path class="st0" d="M413.6,101.5c-1.1.9-2.5,1.6-4,2.3-1.6.6-3.5,1-5.7,1-4.2,0-7.2-.9-9-2.7-1.9-1.8-3.1-4.3-3.8-7.5h-.3c-.4.8-.8,1.8-1.4,2.9-.6,1.2-1.5,2.3-2.8,3.4s-2.9,2-5,2.7-4.7,1.1-7.9,1.1-6.5-.4-8.7-1.2c-2.2-.8-3.8-1.8-5.1-3-1.2-1.2-2-2.6-2.4-4.1s-.6-2.9-.6-4.2c0-3,.6-5.5,1.8-7.3,1.2-1.8,2.8-3.3,4.7-4.3,1.9-1.1,4.1-2,6.5-2.7s4.8-1.4,7.2-2.2c2.9-1,5.2-1.8,7.1-2.5s3.3-1.5,4.3-2.5,1.8-2.3,2.1-3.8c.4-1.5.6-3.6.6-6.2s-.1-3.9-.4-5.6c-.3-1.6-.7-3.1-1.4-4.2-.7-1.2-1.7-2.1-3-2.7s-3-.9-5.2-.9-5.2.5-7.1,1.5-2.8,2.6-2.8,4.9.1,2.9.4,4.3.4,2.5.4,3.2c0,1.2-.4,2.2-1.3,3s-2.1,1.2-3.8,1.2c-2.8,0-4.6-.5-5.3-1.6-.7-1-1-2.4-1-4s.4-3.7,1.3-5.5c.9-1.7,2.1-3.3,3.8-4.6,1.7-1.3,3.8-2.4,6.4-3.2,2.5-.8,5.5-1.2,8.8-1.2s7.3.5,10,1.5,4.8,2.3,6.5,4c1.6,1.7,2.8,3.6,3.5,5.7s1,4.3,1,6.7v32.3c0,2.5.4,4.2,1.2,5.1.8.9,1.9,1.3,3.4,1.3s1.9-.2,3-.5c1-.3,2-.9,3-1.6l1,1.7ZM390.9,71.2h-.3c-.2,1.1-1.6,2.3-4.3,3.4l-9.7,3.9c-2.8,1.1-4.9,2.7-6.4,4.7s-2.2,4.6-2.2,7.6.1,2.6.4,4,.7,2.6,1.4,3.7c.7,1.1,1.7,2,2.9,2.7,1.3.7,2.9,1,4.9,1,2.9,0,5.2-.6,6.9-1.8,1.8-1.2,3.1-2.7,4-4.5s1.5-3.8,1.8-5.9.5-4,.5-5.8v-13h.1Z"/>
  <path class="st0" d="M468.6,88.7c-.3,1-.8,2.3-1.5,4.1-.7,1.8-1.9,3.5-3.5,5.3s-3.8,3.3-6.5,4.7c-2.7,1.3-6.3,2-10.6,2s-6.7-.5-10.3-1.6c-3.5-1-6.8-2.7-9.7-5-2.9-2.3-5.3-5.3-7.2-9-1.9-3.7-2.8-8.3-2.8-13.8s.8-8.2,2.4-11.8c1.6-3.6,3.8-6.8,6.5-9.5s5.9-4.8,9.6-6.3,7.6-2.3,11.7-2.3,4.7.3,7.2.8c2.5.6,4.7,1.4,6.7,2.6s3.7,2.7,5.1,4.5c1.3,1.9,2,4.1,2,6.8s-.6,3.3-1.7,4.5c-1.2,1.2-2.8,1.8-5,1.8s-2.9-.3-4.2-1c-1.4-.6-2-1.8-2-3.3s.3-2.7.9-4.4c.6-1.7.9-3.2.9-4.3,0-2-1-3.5-3-4.6s-4.3-1.6-6.9-1.6-3.9.2-5.9.7-3.9,1.7-5.6,3.6-3.1,4.8-4.2,8.6c-1.1,3.8-1.6,9-1.6,15.6s.2,7.2.7,10.5,1.3,6.2,2.6,8.6c1.3,2.5,3,4.4,5.2,5.8s5.1,2.1,8.6,2.1,6.9-.6,9.4-1.7,4.4-2.5,5.8-4.1,2.5-3.2,3.2-4.9c.7-1.6,1.2-3,1.6-4l2.1.6Z"/>
  <polygon class="st0" points="473.5 101.2 483.5 101.2 483.5 49.1 473.5 49.1 473.5 47.3 494.7 47.3 494.7 101.2 504.7 101.2 504.7 103 473.5 103 473.5 101.2"/>
  <path class="st0" d="M567.1,101.5c-1.1.9-2.5,1.6-4,2.3-1.6.6-3.5,1-5.7,1-4.2,0-7.2-.9-9-2.7-1.9-1.8-3.1-4.3-3.8-7.5h-.3c-.3.8-.8,1.8-1.4,2.9-.6,1.2-1.5,2.3-2.8,3.4s-2.9,2-5,2.7-4.7,1.1-7.9,1.1-6.5-.4-8.7-1.2c-2.2-.8-3.8-1.8-5.1-3-1.2-1.2-2-2.6-2.4-4.1s-.6-2.9-.6-4.2c0-3,.6-5.5,1.8-7.3s2.8-3.3,4.7-4.3c2-1.1,4.1-2,6.5-2.7s4.8-1.4,7.2-2.2c2.9-1,5.2-1.8,7.1-2.5,1.9-.7,3.3-1.5,4.3-2.5s1.8-2.3,2.1-3.8c.4-1.5.6-3.6.6-6.2s0-3.9-.4-5.6c-.3-1.6-.7-3.1-1.4-4.2-.7-1.2-1.7-2.1-3-2.7s-3-.9-5.2-.9-5.2.5-7.1,1.5c-1.9,1-2.8,2.6-2.8,4.9s0,2.9.4,4.3c.3,1.4.4,2.5.4,3.2,0,1.2-.4,2.2-1.3,3-.9.8-2.1,1.2-3.8,1.2-2.8,0-4.6-.5-5.3-1.6-.7-1-1-2.4-1-4s.4-3.7,1.3-5.5c.9-1.7,2.1-3.3,3.8-4.6s3.8-2.4,6.4-3.2c2.6-.8,5.5-1.2,8.8-1.2s7.3.5,10,1.5,4.8,2.3,6.5,4c1.6,1.7,2.8,3.6,3.5,5.7s1,4.3,1,6.7v32.3c0,2.5.4,4.2,1.2,5.1s1.9,1.3,3.4,1.3,1.9-.2,3-.5c1-.3,2-.9,3-1.6l1,1.7ZM544.4,71.2h-.3c-.2,1.1-1.6,2.3-4.3,3.4l-9.7,3.9c-2.8,1.1-4.9,2.7-6.4,4.7s-2.2,4.6-2.2,7.6,0,2.6.4,4c.3,1.4.7,2.6,1.4,3.7s1.7,2,2.9,2.7c1.3.7,2.9,1,4.9,1s5.2-.6,6.9-1.8c1.8-1.2,3.1-2.7,4-4.5s1.5-3.8,1.8-5.9.5-4,.5-5.8v-13h0Z"/>
  <polygon class="st0" points="567.8 101.2 577.8 101.2 577.8 11.3 567.8 11.3 567.8 9.5 589 9.5 589 101.2 599 101.2 599 103 567.8 103 567.8 101.2"/>
  <path class="st0" d="M608,13.5c0,2.3-1.8,4.1-4.2,4.1s-4.2-1.8-4.2-4.1,1.9-4.1,4.2-4.1c2.4.1,4.2,1.9,4.2,4.1M600.6,13.5c0,1.8,1.3,3.3,3.2,3.3s3.1-1.5,3.1-3.2-1.3-3.3-3.1-3.3-3.2,1.4-3.2,3.2M603.2,15.7h-.9v-4.1c.4-.1.9-.1,1.6-.1s1.1.1,1.4.3c.2.2.4.5.4.9s-.3.8-.8.9h0c.4.2.6.5.7,1.1,0,.6.2.9.3,1h-1c0-.2-.2-.5-.3-1s-.3-.6-.8-.6h-.5c-.1,0-.1,1.6-.1,1.6ZM603.2,13.4h.5c.5,0,.9-.2.9-.6s-.3-.6-.9-.6-.4,0-.5.1v1.1Z"/>
  <path class="st0" d="M497.2,128.9c0,4.5-3.7,8.2-8.2,8.2s-8.2-3.7-8.2-8.2,8.2-10.2,8.2-10.2c0,0,8.2,4.7,8.2,10.2"/>
</svg>