<?xml version="1.0" encoding="utf-8"?>
<!-- Generator: Adobe Illustrator 15.1.0, SVG Export Plug-In . SVG Version: 6.00 Build 0)  -->
<!DOCTYPE svg PUBLIC "-//W3C//DTD SVG 1.1//EN" "http://www.w3.org/Graphics/SVG/1.1/DTD/svg11.dtd">
<svg version="1.1" id="Layer_1" xmlns="http://www.w3.org/2000/svg" xmlns:xlink="http://www.w3.org/1999/xlink" x="0px" y="0px"
	 width="345.213px" height="250.848px" viewBox="0 0 345.213 250.848" enable-background="new 0 0 345.213 250.848"
	 xml:space="preserve">
<g>
	<path fill="#EE3227" d="M172.744,0C77.563-0.073,0.07,56.098,0,125.254c-0.062,69.152,77.312,125.484,172.489,125.594
		c95.186,0.083,172.653-56.114,172.724-125.249C345.288,56.441,267.92,0.113,172.744,0"/>
	<path fill="#FFFFFF" d="M8.189,125.262C8.125,189.898,81.842,242.58,172.49,242.663c90.659,0.1,164.479-52.415,164.538-117.058
		C337.09,60.955,263.381,8.287,172.744,8.19C82.068,8.115,8.241,60.626,8.189,125.262"/>
	<path fill="#134A7C" d="M13.636,125.262C13.706,63.636,85.071,13.57,172.723,13.648c87.65,0.097,158.913,50.304,158.859,111.945
		c-0.07,61.627-71.428,111.701-159.097,111.604C84.836,237.113,13.566,186.905,13.636,125.262z"/>
	<g>
		<path fill="#FFFFFF" d="M128.059,36.969c-0.62-0.27-1.36-0.373-2.046-0.202c-0.528,0.124-1.157,0.566-1.017,1.118
			c0.128,0.57,0.946,0.593,1.473,0.633l0.784,0.042c1.61,0.037,2.96,0.451,3.349,2.052c0.213,0.97,0.197,2.043-0.521,2.917
			c-0.695,0.846-1.794,1.404-2.896,1.66c-1.372,0.306-2.828,0.227-4.104-0.208l0.727-2.364c0.841,0.393,1.797,0.663,2.774,0.431
			c0.66-0.175,1.293-0.64,1.134-1.334c-0.158-0.702-1.345-0.689-1.991-0.703c-1.883-0.038-3.162-0.195-3.61-2.084
			c-0.481-2.011,0.792-3.675,2.986-4.215c1.099-0.231,2.541-0.256,3.624,0.008L128.059,36.969"/>
		<polyline fill="#FFFFFF" points="138.053,42.681 135.171,43.198 133.365,33.245 136.237,32.723 138.053,42.681 		"/>
		<polyline fill="#FFFFFF" points="140.93,31.875 143.832,31.515 149.896,37.018 149.928,37.008 149.163,30.863 152.065,30.487 
			153.315,40.571 150.407,40.905 144.333,35.396 144.3,35.4 145.055,41.568 142.157,41.92 140.93,31.875 		"/>
		<path fill="#FFFFFF" d="M165.102,33.091c-0.649-0.669-1.618-1.029-2.631-0.95c-1.78,0.081-2.923,1.388-2.833,2.961
			c0.081,1.59,1.37,2.648,3.185,2.56c0.95-0.038,1.874-0.504,2.459-1.203l0.184,3.159c-0.974,0.329-1.652,0.552-2.566,0.601
			c-1.571,0.099-3.085-0.361-4.303-1.266c-1.296-0.927-1.93-2.207-2.004-3.707c-0.075-1.373,0.433-2.755,1.462-3.783
			c1.049-1.097,2.617-1.801,4.176-1.882c0.952-0.043,1.809,0.083,2.697,0.37L165.102,33.091"/>
		<polyline fill="#FFFFFF" points="172.496,31.848 172.493,33.554 175.788,33.542 175.777,35.777 172.501,35.762 172.493,37.507 
			175.952,37.523 175.944,39.736 169.554,39.733 169.558,29.624 175.964,29.625 175.979,31.839 172.496,31.848 		"/>
		<polyline fill="#FFFFFF" points="189.671,32.519 189.882,30.287 194.396,30.717 193.43,40.783 190.525,40.504 191.274,32.672 
			189.671,32.519 		"/>
		<path fill="#FFFFFF" d="M199.834,41.552l3.683-2.891l-0.021-0.021c-0.544,0.124-1.029,0.147-1.616,0.057
			c-2.18-0.319-3.314-2.238-3.037-4.06c0.364-2.471,2.805-3.443,5.356-3.077c1.069,0.156,2.29,0.597,3.033,1.339
			c0.801,0.807,1.237,1.951,1.086,2.992c-0.221,1.447-1.264,2.714-2.397,3.708l-2.791,2.433L199.834,41.552 M201.852,34.997
			c-0.132,0.908,0.528,1.77,1.565,1.926c1.002,0.162,1.935-0.451,2.08-1.367c0.121-0.925-0.577-1.769-1.604-1.938
			C202.867,33.478,202.002,34.065,201.852,34.997z"/>
		<path fill="#FFFFFF" d="M215.934,36.378l-0.417,1.091l0.886,0.146c2.296,0.323,3.575,2.334,3.114,4.399
			c-0.223,1.019-0.948,1.889-1.993,2.343c-1.008,0.459-2.287,0.378-3.39,0.11c-1.252-0.258-2.454-0.807-3.396-1.653l0.961-2.335
			c0.703,0.843,1.671,1.558,2.805,1.818c0.919,0.187,1.895-0.216,2.075-1.088c0.271-1.194-0.887-1.961-2.029-2.219
			c-0.717-0.147-1.479-0.165-2.19-0.05l2.134-5.155l5.729,1.257l-0.485,2.181L215.934,36.378"/>
		<path fill="#FFFFFF" d="M232.4,38.385l-4.027,2.379l0.029,0.028c0.533-0.046,1.019-0.019,1.581,0.134
			c2.115,0.63,2.985,2.677,2.455,4.45c-0.703,2.388-3.252,3.035-5.712,2.315c-1.051-0.304-2.171-0.9-2.829-1.74
			c-0.682-0.889-0.973-2.087-0.668-3.12c0.429-1.393,1.622-2.514,2.851-3.335l3.136-2.059L232.4,38.385 M229.502,44.588
			c0.264-0.889-0.294-1.789-1.27-2.089c-0.975-0.284-1.985,0.183-2.249,1.052c-0.259,0.91,0.35,1.854,1.317,2.15
			C228.275,45.995,229.254,45.488,229.502,44.588z"/>
		<path fill="#FFFFFF" d="M163.768,209.218c0.001,4.971-0.277,5.835-0.629,6.164c-0.694,0.609-2.678,1.226-4.189,0.183
			c-1.425-0.986-1.985-3.114-1.985-6.994c0.001-2.171,0.248-4.941,0.689-8.12c-2.326-0.231-5.523-0.237-7.084,0.011
			c-0.364,1.514-1.047,5.868-1.05,10.168c0.001,3.314,0.31,6.692,1.918,8.815c1.206,1.606,2.911,2.35,5.313,2.285
			c0.024,0,2.747,0.229,5.072-1.312l1.833-0.897c0,0,0.046,1.778,0.214,2.01c1.145,0.208,6.279,0.043,6.279,0.043
			c0.046,0.005,0.512-19.395,0.566-21.09c-1.64-0.242-5.215-0.196-6.987-0.011C163.744,204.239,163.768,207.144,163.768,209.218"/>
		<path fill="#FFFFFF" d="M145.622,217.247c0.976-4.305-2.42-6.902-7.265-9.025c-1.509-0.671-2.939-1.331-2.583-2.977
			c0.597-2.743,5.501-1.571,7.487-0.806c0.419-0.87,0.756-3.077,0.811-4.3c0.009-0.153-13.989-3.112-15.493,3.774
			c-0.996,4.54,2.8,6.515,6.313,8.088c2.611,1.172,4.104,2.384,3.542,4.251c-0.712,2.228-6.37,1.371-8.414,0.259
			c-0.614,0.851-1.063,3.047-1.091,4.251C133.846,223.282,144.237,223.3,145.622,217.247"/>
		<path fill="#FFFFFF" d="M215.563,217.33c0.983-4.305-2.409-6.913-7.253-9.036c-1.504-0.655-2.953-1.333-2.589-2.985
			c0.604-2.724,5.504-1.552,7.486-0.79c0.412-0.892,0.763-3.061,0.809-4.305c0.019-0.156-13.985-3.106-15.48,3.769
			c-0.986,4.564,2.805,6.525,6.32,8.096c2.595,1.167,4.098,2.387,3.521,4.238c-0.689,2.25-6.361,1.398-8.417,0.256
			c-0.605,0.889-1.045,3.077-1.083,4.265C203.805,223.346,214.175,223.384,215.563,217.33"/>
		<path fill="#FFFFFF" d="M187.349,207.674L187.349,207.674L187.349,207.674 M195.692,214.148c-0.264-3.85-4.626-4.435-4.599-4.65
			c0.017-0.237,3.777-2.04,2.681-5.86c-1.792-6.248-16.674-2.802-17.386-2.672c0.003,1.159-0.267,20.907-0.267,20.907
			c0.067,0.064,7.412,0.986,12.819-0.1C191.964,221.193,195.997,218.863,195.692,214.148z M182.85,208.892
			c-0.199-0.221-0.184-4.2,0.164-4.311c1.054-0.41,4.906-0.544,4.747,1.756C187.61,208.472,183.03,209.091,182.85,208.892z
			 M183.055,217.583c-0.219-0.25-0.17-3.985,0.137-4.254c1.285-1.153,5.922-1.482,5.822,1.654
			C188.893,217.934,183.326,217.909,183.055,217.583z"/>
		<path fill-rule="evenodd" clip-rule="evenodd" fill="#FFFFFF" d="M142.926,69.536c0.047-0.018,0.082-0.019,0.125-0.027
			C143.052,69.509,142.936,69.52,142.926,69.536 M289.783,124.195c5.461-1.692,6.498-6.634,6.496-10.049
			c0-0.247-0.014-0.493-0.014-0.692c-0.035-0.886-0.404-3.124-2.756-4.448c1.083-6.528,2.535-17.601,2.543-25.493
			c0-1.631-0.062-3.135-0.188-4.425c-0.116-1.032-0.854-4.461-5.706-5.534c-2.584-0.593-12.224-0.364-17.496,1.953
			c-1.481-3.54-5.854-3.856-7.357-3.923c-3.252-0.183-7.14,0.229-8.67,0.403c-4.5,0.538-7.541,1.12-8.813,3.986
			c-0.391,0.908-0.688,1.818-0.994,2.729c-0.507-0.671-1.078-1.328-1.738-1.929c-3.758-3.347-8.672-5.029-13.88-4.793
			c-6.493,0.322-12.988,3.707-18.274,9.505c-1.31,1.444-2.417,2.999-3.312,4.638c-0.138-0.164-0.242-0.346-0.396-0.497
			c0,0,0.011,0.01,0.019,0.004c-0.057-0.086-0.127-0.155-0.208-0.252c0.081,0.089,0.135,0.156,0.189,0.248
			c-2.927-4.2-3.858-6.582-3.379-8.765l-0.003,0.009c0.617-2.786,1.011-6.313-1.274-8.953c-1.511-1.747-3.758-2.627-6.662-2.622
			c-0.011,0.001-10.033,0.023-10.033,0.023c-7.945,0.039-11.539,8.504-12.644,15c-1.594-1.234-3.581-1.938-5.844-1.83l-1.673,0.096
			c-1.971,0.128-4.166,0.243-5.173-0.181c0,0-0.018-0.018-0.014-0.059c0.003-0.187,0.014-0.377,0.044-0.551
			c0.065-0.349,0.16-0.935,0.162-1.684c-0.002-0.852-0.168-1.956-0.694-3.042c-0.654-1.377-2.024-3.031-4.89-3.524
			c-1.01-0.234-3.836-0.485-7.051-0.57c-3.571-0.05-6.525,0.454-7.063,0.524c-1.375,0.215-3.917,0.854-5.464,2.813
			c-0.941,1.156-1.271,2.422-1.363,3.562c-3.494-2.535-7.763-3.863-12.291-3.631c-5.556,0.264-11.08,2.74-15.867,7.092
			c-0.162-9.905-0.61-17.532-1.001-21.662l-0.051-0.736c-0.128-1.724-0.311-4.028-2.08-6.048c-2.722-3.123-6.762-3.104-8.062-3.097
			l-12.587,1.268c0.204,0.005,0.374,0.029,0.546,0.029c-2.204-0.218-5.551,0.509-7.689,3.249c-2.244,2.848-1.714,6.482-1.371,8.893
			l0.492,2.445c4.145,19.686,2.848,23.315,2.04,26.013c-0.534,1.766-2.389,2.046-3.168,2.089c-2.088,0.143-6.562-1.98-9.513-4.017
			c-1.27-0.902-3.327-1.998-6.351-1.522c-3.501,0.455-4.896,3.466-5.348,4.463l-0.062,0.12c-0.205,0.381-1.832,4.017-4.833,10.75
			c-0.391,0.714-0.955,2.045-0.967,3.65c0.019,0.773,0.14,1.571,0.471,2.41c0.998,2.582,3.994,4.81,4.125,4.907
			c1.181,0.889,9.617,6.822,20.769,8.019c-0.6,1.163-1.062,2.508-1.353,4.102c0.015-0.083-10.498,51.714-10.498,51.714
			c-0.548,2.695-1.288,6.337,1.298,9.328c1.68,1.905,4.268,2.875,7.713,2.867l11.551-0.03c6.163-0.019,8.472-3.419,10.046-8.502
			c0.101-0.356,0.204-0.701,0.298-1.073c0.023,0.038,0.204,0.434,0.204,0.434c2.028,5.062,7.82,5.049,10.311,5.049l1.864,0.002
			c2.495,0,8.262-0.027,10.356-5.156c-0.003,0.005,0.062-0.181,0.183-0.412c0.024,0.075,0.176,0.776,0.176,0.776
			c1.467,6.126,4.601,8.823,10.164,8.802l11.37-0.024c3.023-0.002,5.388-0.757,7.057-2.274c1.711,1.493,4.115,2.247,7.221,2.25
			l6.471-0.027c4.261-0.011,7.076-1.53,8.535-4.669c1.157,2.417,3.545,4.502,8.417,4.454l0.331-0.014
			c0.009,0.003,3.238,0.11,3.238,0.11l2.14,0.083c1.985-0.013,3.966-0.862,5.556-2.368c0.509-0.482,0.899-1.005,1.276-1.552
			c4.839,3.6,11.063,7.121,17.49,7.102c5.485-0.011,7.472-2.729,8.573-5.086c0,0,0.213-0.426,0.245-0.472
			c3.737,2.069,8.185,3.185,13.123,3.182c7.565-0.016,13.199-2.352,16.963-4.399c2.88,2.083,7.172,4.003,13.304,3.982
			c10.879-0.014,17.852-5.58,20.891-12.014c4.224,0.216,8.491-1.096,10.674-2.82c3.686-2.867,3.583-5.764,3.096-8.953l0.003-0.008
			c-1.118-7.375-7.161-6.984-9.139-6.861l-1.035,0.057c-2.729,0.028-5.536-0.116-7.201-2.125c-2.131-3.081-3.309-6.019-3.309-8.23
			c-0.003-0.394,0.03-0.771,0.127-1.102c0.231-1.153,0.437-2.408,0.439-3.684c0.002-1.036-0.146-2.081-0.502-3.064
			C284.54,138.838,288.086,130.206,289.783,124.195z M105.856,122.209c-0.25,0.838-0.994,3.282-1.913,6.28
			c-0.718-2.448-1.859-6.221-1.859-6.221c-1.362-4.276-3.658-6.283-5.963-7.14c2.642-1.818,4.839-4.002,6.564-6.633
			c1.871,2.957,4.49,5.445,7.642,7.35C108.56,116.945,106.93,118.909,105.856,122.209z M167.22,122.479
			c-0.628,2.58-1.164,5.479-1.587,8.57c-0.369-0.45-0.754-0.889-1.186-1.296c-2.917-2.751-6.795-4.26-10.905-4.242
			c-7.263,0.005-13.361,4.843-15.009,11.334c-1.389-7.122-2.389-12.349-2.389-12.349l-0.001,0.032
			c-0.381-2.134-1.103-3.869-2.017-5.264c3.034-0.662,5.988-1.663,8.74-3.042c0.016-0.011,0.248-0.116,0.24-0.116
			c3.084-1.568,5.937-3.82,8.489-6.567c0.384,0.931,0.851,1.798,1.463,2.636c3.091,4.261,7.887,6.698,13.472,6.859
			c0.726,0.027,1.461,0.006,2.191-0.054C168.107,119.922,167.568,121.081,167.22,122.479z M223.329,131.815
			c0.108,3.668,1.757,7.773,5.758,10.339c-0.787-0.074-1.593-0.106-2.385-0.047c-4.814,0.222-9.623,2.143-13.934,5.525
			c-0.833-4.083-2.926-7.481-6.162-9.468c-4.278-2.685-8.869-3.605-13.451-2.77c0.859-3.508,1.855-6.924,2.537-8.88
			c0.499-1.451,0.695-2.732,0.695-3.85c0.008-1.816-0.52-3.227-1.169-4.242c6.895-0.836,12.123-4.176,15.405-8.454
			c4.332,6.176,11.819,9.787,20.65,9.765c0.156,0.005,0.313-0.006,0.475-0.024c-2.274,0.826-4.015,2.021-5.093,3.05
			c-2.214,2.128-3.332,6.159-3.332,8.861C223.315,131.69,223.332,131.753,223.329,131.815z M248.484,109.278
			c0.009,0.005,0.017,0.046,0.017,0.046s-0.003-0.024-0.021-0.045L248.484,109.278z M249.7,123.701
			c-0.035,0.465-0.065,0.88-0.046,1.319c-0.009,0.808,0.057,1.657,0.186,2.426c-0.1-0.247-0.186-0.484-0.323-0.705
			c-2.048-3.855-6.401-7.218-11.02-7.802c4.845-1.059,9.494-3.168,13.614-6.132c0.856,0.627,1.743,1.156,2.65,1.593
			C251.825,116.921,250.045,120.042,249.7,123.701z M161.993,72.958c0.023,0.051,0.021,0.066,0.05,0.111
			c0.019,0.059,0.085,0.126,0.122,0.201C162.102,73.165,162.047,73.044,161.993,72.958z"/>
		<path fill="#FFFFFF" d="M277.527,141.054c2.414,0.014,4.346,1.963,4.341,4.347c0.002,2.422-1.94,4.359-4.343,4.356
			c-2.412-0.003-4.365-1.948-4.349-4.362C273.171,142.984,275.119,141.044,277.527,141.054 M277.522,148.415
			c1.638-0.018,2.912-1.358,2.904-3.004c0.014-1.637-1.267-3.001-2.886-3.002c-1.659,0.003-2.923,1.339-2.923,2.993
			C274.607,147.047,275.865,148.397,277.522,148.415z M275.795,143.203l1.717,0.007c1.239,0.001,1.956,0.303,1.956,1.385
			c-0.009,0.858-0.534,1.157-1.178,1.203l0.983,1.804l-1.129,0.007l-0.889-1.738l-0.41-0.009l-0.005,1.751l-1.04-0.004
			L275.795,143.203z M276.841,145.045l0.878,0.007c0.407,0.017,0.625-0.139,0.625-0.57c-0.014-0.423-0.506-0.45-0.856-0.469
			l-0.633,0.008L276.841,145.045z"/>
	</g>
	<path fill-rule="evenodd" clip-rule="evenodd" fill="#EE3227" d="M58.732,92.8c0.255-0.557,0.63-1.392,1.226-1.482
		c0.868-0.116,1.437,0.032,2.276,0.618c0.772,0.552,7.876,5.328,13.063,5.007c3.104-0.186,6.851-1.808,8.076-5.849
		c2.127-7.103-0.508-21.58-1.943-28.423l-0.444-2.145c-0.241-1.778-0.556-3.944,0.364-5.123c1.024-1.305,2.678-1.165,2.73-1.154
		c0.024-0.005,12.622-1.277,12.622-1.277c1.386-0.014,2.892,0.126,3.846,1.22c0.656,0.73,0.743,1.881,0.837,3.112l0.06,0.829
		c0.637,6.664,2.118,26.8,0.149,37.678c-1.964,10.779-7.406,16.471-18.229,19.02c-11.317,2.667-22.638-2.759-27.557-6.394
		c-0.87-0.614-2.095-1.905-2.354-2.61c-0.366-0.94,0.339-2.118,0.339-2.118c0.051-0.116,4.542-10.163,4.805-10.661L58.732,92.8
		 M290.662,113.633c0.199,5.53-2.627,5.807-4.306,5.956c-0.668,0.083-1.18,0.121-1.285,0.529l-0.253,0.95
		c-1.636,6.329-3.662,14.23-17.973,13.783c-4.211-0.137-7.528-1.328-9.589-3.47c-1.725-1.832-2.495-4.259-2.293-7.226
		c0.725-7.646,10.995-10.219,17.06-11.081l0.095-0.024l0.057-0.058c0.016-0.026,0.565-3.323,0.31-3.577l-0.121-0.116l-0.151,0.066
		c-1.355,0.54-13.422,5.023-19.511-3.159l-0.299-0.45l-0.275,0.11c-5.776,5.51-13.419,8.668-21.022,8.694
		c-8.091,0-14.436-3.538-17.444-9.715c-3.16-6.487-1.867-14.332,3.238-19.972c4.297-4.739,9.427-7.46,14.44-7.71
		c3.691-0.195,7.178,1.003,9.839,3.389c3.074,2.75,2.948,6.118,2.314,8.438c-1.433,5.2-6.74,10.138-12.377,11.493l-0.199,0.038
		v0.189c-0.003,0.706,0.345,1.312,1.062,1.678c2.142,1.22,6.884,0.547,10.842-1.482c4.747-2.462,6.608-6.083,6.746-8.392
		l0.247-1.924c0.523-4.185,1.081-8.5,2.886-12.622c0.625-0.56,10.64-1.822,13.95-0.994c0.496,0.138,0.781,0.283,0.849,0.461
		c0.188,0.668-0.234,2.64-0.708,4.923c-1.081,5.235-2.727,13.119,0.178,16.962c0.708,0.757,1.603,1.176,2.54,1.157
		c0.908-0.002,1.803-0.455,2.477-1.235c0.859-0.812,1.204-5.903,1.605-12.473c0.153-2.937,0.334-6.004,0.553-6.342
		c0.613-0.742,11.135-2.837,14.917-1.766c0.757,0.214,1.143,0.524,1.19,0.939c0.936,8.754-2.235,29.401-3.119,32.977
		c-0.027,0.101-0.024,0.256,0.072,0.345c0.202,0.226,0.634,0.25,1.458,0.229C289.489,113.149,290.632,113.136,290.662,113.633
		 M227.106,92.903c3.381-0.006,6.902-2.584,7.434-4.691c0.236-1.005-0.167-1.793-1.159-2.285c-1.099-0.542-2.273-0.42-3.432,0.352
		c-1.91,1.308-3.395,4.35-3.106,6.417l0.048,0.21L227.106,92.903z M271.495,120.46l0.006-0.236l-0.288,0.009
		c-3.333,0.183-6.725,1.863-7.536,3.708c-0.358,0.765-0.21,1.523,0.355,2.169c0.825,0.923,1.951,1.161,3.195,0.754
		C269.294,126.135,271.512,123.417,271.495,120.46z M204.532,88.481c3.505,4.389,5.006,8.515,4.292,11.978
		c-0.887,6.364-6.733,13.108-17.412,12.978c-6.577-0.092-9.953-2.573-12.148-4.715l-0.213-0.183l-0.164,0.228
		c-2.613,3.132-7.687,5.242-12.348,5.088c-2.702-0.057-6.483-0.93-9.191-4.647c-2.977-4.029-1.157-9.459,0.192-12.31
		c0.771-1.611,1.45-3.601-0.061-4.332c-0.469-0.177-0.902-0.181-1.317-0.041c-1.03,0.423-1.634,1.784-2.04,2.713l-0.132,0.364
		c-3.139,7.398-7.978,13.056-13.615,15.938c0.039-0.021-0.233,0.112-0.233,0.112c-4.996,2.492-10.792,3.63-16.312,3.148
		c-8.616-0.756-15.134-4.866-17.864-11.286c-2.569-6.062-1.195-13.126,3.63-18.417c4.307-4.708,9.423-7.455,14.438-7.685
		c3.687-0.198,7.188,1.017,9.842,3.393c3.062,2.729,2.939,6.097,2.305,8.444c-1.417,5.205-6.745,10.122-12.381,11.463l-0.188,0.024
		v0.215c0,0.698,0.339,1.277,1.026,1.667c2.036,1.197,6.817,0.543,10.868-1.475c2.939-1.452,4.65-4.189,4.729-4.3
		c4.109-7.056,1.489-18.905,1.385-19.429c-0.11-0.377-0.315-1.456,0.129-1.981c0.385-0.477,1.568-0.757,2.011-0.811
		c0.024-0.013,2.857-0.506,6.073-0.441c3.329,0.055,5.628,0.329,5.979,0.409l0.178,0.028c0.382,0.078,0.75,0.132,0.948,0.651
		c0.263,0.45,0.175,1.115,0.098,1.623c-0.156,0.829-0.745,5.021,2.786,6.149c2.251,1.075,5.196,0.889,8.064,0.725l1.595-0.117
		c1.466-0.027,2.511,0.559,3.097,1.825c0.508,1.132,0,2.324-0.563,3.342c-0.617,1.087-5.963,10.91-3.528,13.969
		c0.644,0.823,1.771,1.071,3.329,0.75c5.33-1.074,8.27-14.011,8.308-19.062c0.04-4.996,2.578-13.937,7.589-13.975l10.039-0.005
		c1.261-0.029,1.98,0.213,2.416,0.698c0.631,0.742,0.692,2.197,0.148,4.622C199.419,80.086,201.267,83.829,204.532,88.481
		 M119.82,93.145c3.358-0.023,6.889-2.608,7.408-4.68c0.252-1.002-0.154-1.831-1.164-2.314c-1.08-0.525-2.285-0.391-3.403,0.353
		c-1.933,1.313-3.423,4.37-3.11,6.428l0.028,0.208L119.82,93.145z M195.326,96.152c-0.003-1.579-0.951-3.012-1.858-4.402
		c-0.623-0.964-1.267-1.945-1.601-2.97l-0.518,0.098c0.148,3.543-1.501,8.721-3.324,10.472l-0.28,0.261l0.363,0.143
		c1.649,0.66,3.43,0.735,4.756,0.171c1.048-0.449,1.802-1.273,2.22-2.442C195.245,97.031,195.323,96.575,195.326,96.152z
		 M235.857,138.868l0.013,0.008c1.611,0.302,2.385,2.309,2.083,3.99c-0.092,0.463,0.138,0.881,0.633,1.091
		c0.833,0.345,2.253,0.032,3.365-1.446c3.128-4.115,3.937-9.862,1.905-13.666c-0.927-1.777-2.883-3.893-6.809-3.898
		c-3.071,0.005-4.941,1.196-5.98,2.207c-1.512,1.461-2.008,3.155-1.988,4.195C229.124,133.212,229.895,137.7,235.857,138.868
		 M206.399,175.9c1.856,0.139,3.451,0.6,4.111,1.817c0.49,0.86,0.14,1.709,0.026,2.078c-0.463,1.43-1.39,3.519-2.021,4.785
		l-0.202,0.407c-0.533,1.161-0.948,2.045-3.64,2.063c-8.139-0.002-16.981-8.23-20.761-11.748l-0.76-0.692l-0.035,6.168
		c0.011,0.711-0.398,1.59-1.069,2.22c-0.539,0.531-1.178,0.824-1.697,0.824l-1.768-0.062l-3.607-0.135l-0.386,0.013
		c-1.718,0.021-3.326,0.041-3.77-2.77c-1.984-12.563-2.345-40.936,1.565-56.82c0.929-3.748,3.342-4.149,8.585-4.157l5.755,0.003
		c1.714,0.05,2.934,0.494,3.557,1.363c0.679,0.891,0.708,2.255,0.089,4.033c-1.237,3.57-4.021,13.303-4.356,19.007l-0.044,0.542
		l0.453-0.334c5.873-4.478,11.625-4.987,17.078-1.573c2.486,1.583,3.998,4.641,4.136,8.422c0.256,6.793-3.82,13.923-10.909,19.131
		l-0.161,0.11l0.078,0.183C197.57,172.708,202.649,175.682,206.399,175.9 M194.361,155.496c-0.016-0.312-0.064-0.639-0.172-0.916
		c-0.251-0.668-0.884-1.117-1.749-1.242c-1.172-0.193-2.281,0.096-3.289,0.873c-2.603,1.998-3.771,6.503-3.898,8.869l-0.021,0.233
		l0.27,0.018c3.203-0.003,5.692-2.164,7.212-3.963C193.615,158.271,194.359,156.758,194.361,155.496z M286.407,166.1
		c0.119,0.79,0.173,1.393,0.178,1.863c-0.008,1.167-0.374,1.628-1.35,2.383c-1.722,1.336-7.19,2.705-10.614,0.744l-0.34-0.204
		l-0.046,0.378c-0.892,6.148-6.633,12.771-17.127,12.798c-6.714,0.008-10.493-2.807-12.457-5.181l-0.157-0.162l-0.441,0.27
		c-3.012,1.918-8.607,5.475-17.231,5.482c-6.798,0.016-12.38-2.519-15.716-7.172l-0.334-0.495
		c-4.337-6.564-3.48-15.431,2.094-21.605c4.214-4.663,9.26-7.358,14.169-7.596c3.637-0.174,7.072,1.01,9.677,3.347
		c3.007,2.704,2.901,6.038,2.266,8.322c-1.4,5.119-6.622,9.983-12.15,11.305l-0.193,0.06l0.002,0.194
		c-0.016,0.746,0.386,1.385,1.193,1.805c1.997,1.052,6.558,0.748,10.508-1.633c5.262-3.128,7.487-10.987,7.702-15.497
		c0.208-4.622,2.366-14.76,7.447-14.803l9.868-0.032c1.21,0.02,1.935,0.247,2.371,0.721c0.611,0.712,0.652,2.173,0.148,4.563
		c-1.032,4.831,1.684,10.026,4.141,13.515c3.494,4.373,9.021,4.297,11.695,4.254l1.314-0.057
		C285.018,163.528,286.015,163.462,286.407,166.1 M222.893,163.118c3.316,0.005,6.776-2.53,7.296-4.615
		c0.242-1.003-0.153-1.792-1.137-2.269c-1.1-0.536-2.239-0.409-3.373,0.372c-1.902,1.261-3.365,4.292-3.042,6.302l0.035,0.225
		L222.893,163.118z M259.129,162.66c-0.601-0.93-1.226-1.903-1.573-2.913l-0.498,0.079c0.135,3.4-1.506,8.624-3.276,10.333
		l-0.261,0.255l0.353,0.14c1.605,0.668,3.359,0.741,4.645,0.183c1.046-0.431,1.792-1.231,2.215-2.396
		C261.489,166.227,260.29,164.419,259.129,162.66z M159.361,154.286l-10.761,0.037c-1.397,0.004-2.472,0.168-3.175,0.854
		c-0.764,0.787-1.07,2.237-0.943,4.57c0.238,4.306,0.878,9.88,1.366,14.348l0.578,5.482c0.364,3.998,2.227,4.332,4.765,4.311
		l6.496-0.027c2.366,0.019,3.839-0.218,4.239-4.359c0.372-3.964,1.169-13.194,1.53-19.819c0.129-2.336-0.156-3.781-0.933-4.54
		C161.849,154.432,160.769,154.321,159.361,154.286 M153.373,150.512c5.547-0.008,10.038-4.381,10.063-9.725
		c0.004-2.628-1.071-5.085-2.993-6.933c-1.898-1.787-4.386-2.766-7.044-2.772c-5.534,0.015-10.048,4.403-10.053,9.742
		c0.005,2.621,1.049,5.073,2.997,6.921C148.229,149.523,150.726,150.537,153.373,150.512 M130.592,125.817
		c-0.656-3.64-2.606-5.806-5.205-5.81L115,120.04c-1.992-0.01-3.206,1.232-4.104,4.062c-0.824,2.574-6.849,22.827-6.897,23.039
		l-0.261,0.826l-7.082-23.834c-0.904-2.849-2.128-4.016-4.091-4.048l-10.108,0.032c-2.605-0.005-4.585,2.188-5.231,5.822
		l-10.533,52.063c-0.476,2.308-0.719,4.024,0.149,5.032c0.605,0.706,1.742,1.037,3.495,1.037l11.57-0.03
		c2.203-0.016,3.407-0.226,4.827-4.804c1.152-3.789,2.068-7.983,2.815-11.331l1.254-5.46c0,0,6.722,15.629,6.724,15.673
		c0.536,1.352,1.859,1.815,5.248,1.797l1.889-0.021c3.382-0.003,4.712-0.469,5.256-1.832l6.739-15.669l4.049,16.771
		c1.062,4.473,2.518,4.78,4.812,4.782l11.396-0.032c1.761-0.011,2.9-0.339,3.499-1.048c0.89-0.983,0.634-2.71,0.162-5.028
		L130.592,125.817"/>
</g>
</svg>
