<?xml version="1.0" encoding="UTF-8"?>
<svg id="Layer_1" xmlns="http://www.w3.org/2000/svg" xmlns:v="https://vecta.io/nano" version="1.1" viewBox="0 0 600 102">
  <!-- Generator: Adobe Illustrator 29.0.1, SVG Export Plug-In . SVG Version: 2.1.0 Build 192)  -->
  <defs>
    <style>
      .st0 {
        fill: #fff;
      }
    </style>
  </defs>
  <path class="st0" d="M116.8,2.1h69.8v20.4h-44.4v17.6h41v20.6h-41v19.3h44.4v20.4h-69.8V2.1ZM273.6,68.5c0,7.8-4.3,12.1-16.8,12.1s-16.6-4.4-16.6-12.1V2.1h-25.3v69.2c0,15.5,9.5,31,42,31s42.2-15.5,42.2-31V2.1h-25.3v66.4h-.2ZM445.8,100.4h25.3V2.1h-25.3v98.3ZM557.7,51.8v27.6c-4.5.8-9.6,1.3-15.1,1.3-13,0-15.5-4.5-15.5-12.9v-33.9c0-9.1,4.4-12.1,15.1-12.1s21.8,1.1,33.8,2.8l2.3-21.2c-12.5-2.5-24.2-3.4-35.6-3.4-28.9,0-41,9.8-41,30.6v40.9c0,19.7,11,30.6,40.3,30.6s27-1.7,39-5.1v-45.4h-23.3v.2ZM15.4,35.8c-8.5,0-15.4,6.9-15.4,15.5s6.9,15.5,15.4,15.5,15.4-6.9,15.4-15.5-6.9-15.5-15.4-15.5M15.4.2c-8.5,0-15.4,6.9-15.4,15.5s6.9,15.5,15.4,15.5,15.4-6.9,15.4-15.5S23.9.2,15.4.2M15.4,71.4c-8.5,0-15.4,6.9-15.4,15.5s6.9,15.5,15.4,15.5,15.4-6.9,15.4-15.5-6.9-15.5-15.4-15.5M92.8,2.1h-28.5l-28.9,49.2,28.9,49.2h28.4l-29.8-49.2L92.8,2.1ZM399.6,67.5l19.9,32.9h-28.4l-15.8-27.8h-19.4v27.8h-25.3V2.1h46.5c26.5,0,35,10.4,35,28.4v13.8c-.1,11.1-3.1,17.6-12.5,23.2h0ZM387.5,31.6c0-6.4-3-9.1-10.6-9.1h-21v30.1h20.4c8.1,0,11.2-3,11.2-9.6v-11.4ZM593.5.7c-3.6,0-6.5,2.9-6.5,6.6s2.9,6.6,6.5,6.6,6.5-3,6.5-6.6c0-3.7-2.9-6.6-6.5-6.6M593.5,13c-3.2,0-5.7-2.6-5.7-5.8s2.6-5.7,5.7-5.7,5.7,2.6,5.7,5.7-2.5,5.8-5.7,5.8M593.9,8.1h-1.5v2.1h-.9v-6.2h2.4c1.3,0,1.9.6,1.9,1.6v.9c0,.7-.2,1.1-.9,1.4l1.7,2.2h-1.1l-1.6-2h0ZM593.9,4.8h-1.5v2.5h1.5c.7,0,1-.3,1-.8v-.9c0-.6-.3-.8-1-.8"/>
</svg>