<?xml version="1.0" encoding="UTF-8"?>
<svg id="Layer_1" xmlns="http://www.w3.org/2000/svg" xmlns:v="https://vecta.io/nano" version="1.1" viewBox="0 0 500 500">
  <!-- Generator: Adobe Illustrator 29.2.1, SVG Export Plug-In . SVG Version: 2.1.0 Build 116)  -->
  <defs>
    <style>
      .st0 {
        fill: #fff;
      }
    </style>
  </defs>
  <path class="st0" d="M97.3,209.3h58.2v17h-37v14.7h34.2v17.2h-34.2v16.1h37v17h-58.2v-81.9ZM228,264.6c0,6.5-3.6,10.1-14,10.1s-13.8-3.7-13.8-10.1v-55.3h-21.1v57.7c0,12.9,7.9,25.8,35,25.8s35.2-12.9,35.2-25.8v-57.7h-21.1v55.3h-.2ZM371.5,291.2h21.1v-81.9h-21.1v81.9ZM464.8,250.7v23c-3.8.7-8,1.1-12.6,1.1-10.8,0-12.9-3.8-12.9-10.8v-28.3c0-7.6,3.7-10.1,12.6-10.1s18.2.9,28.2,2.3l1.9-17.7c-10.4-2.1-20.2-2.8-29.7-2.8-24.1,0-34.2,8.2-34.2,25.5v34.1c0,16.4,9.2,25.5,33.6,25.5s22.5-1.4,32.5-4.2v-37.8h-19.4v.2ZM12.8,237.4c-7.1,0-12.8,5.8-12.8,12.9s5.8,12.9,12.8,12.9,12.8-5.8,12.8-12.9-5.7-12.9-12.8-12.9M12.8,207.7c-7.1,0-12.8,5.7-12.8,12.9s5.8,12.9,12.8,12.9,12.8-5.7,12.8-12.9-5.7-12.9-12.8-12.9M12.8,267c-7.1,0-12.8,5.8-12.8,12.9s5.8,12.9,12.8,12.9,12.8-5.8,12.8-12.9-5.7-12.9-12.8-12.9M77.3,209.3h-23.8l-24.1,41,24.1,41h23.7l-24.8-41,24.9-41ZM333,263.8l16.6,27.4h-23.7l-13.2-23.2h-16.2v23.2h-21.1v-81.9h38.8c22.1,0,29.2,8.7,29.2,23.7v11.5c0,9.3-2.6,14.7-10.4,19.3h0ZM322.9,233.9c0-5.3-2.5-7.6-8.8-7.6h-17.5v25.1h17c6.8,0,9.3-2.5,9.3-8v-9.5ZM494.6,208.1c-3,0-5.4,2.4-5.4,5.5s2.4,5.5,5.4,5.5,5.4-2.5,5.4-5.5-2.4-5.5-5.4-5.5M494.6,218.4c-2.7,0-4.8-2.2-4.8-4.8s2.2-4.7,4.8-4.7,4.8,2.2,4.8,4.7-2.1,4.8-4.8,4.8M494.9,214.3h-1.2v1.8h-.8v-5.2h2c1.1,0,1.6.5,1.6,1.3v.8c0,.6-.2.9-.8,1.2l1.4,1.8h-.9l-1.3-1.7h0ZM494.9,211.5h-1.2v2.1h1.2c.6,0,.8-.3.8-.7v-.8c0-.5-.2-.7-.8-.7"/>
</svg>