<?xml version="1.0" encoding="UTF-8"?>
<svg id="Layer_1" xmlns="http://www.w3.org/2000/svg" xmlns:xlink="http://www.w3.org/1999/xlink" version="1.1" viewBox="0 0 500 500">
  <!-- Generator: Adobe Illustrator 29.2.1, SVG Export Plug-In . SVG Version: 2.1.0 Build 116)  -->
  <defs>
    <style>
      .st0, .st1, .st2 {
        fill: none;
      }

      .st1 {
        stroke: #cf0a2c;
        stroke-width: 1.3px;
      }

      .st1, .st2 {
        stroke-miterlimit: 10;
      }

      .st2 {
        stroke: #000;
        stroke-width: 0px;
      }

      .st3 {
        fill: #fff;
      }

      .st4 {
        fill: #cf0a2c;
      }

      .st5 {
        clip-path: url(#clippath);
      }
    </style>
    <clipPath id="clippath">
      <rect class="st0" x="0" y="193.5" width="500" height="113.2"/>
    </clipPath>
  </defs>
  <g class="st5">
    <g>
      <path d="M378.4,293.6c.6-.2,1-.8,1-1.4,0-.9-.7-1.6-1.6-1.6h-2v4.6h.9v-1.6h.7l1,1.5h1.1l-1.1-1.6ZM377.8,292.8h-1.1v-1.5h1.2s.7,0,.7.7,0,.7-.7.7Z"/>
      <path class="st2" d="M377.6,297c2.2,0,4.1-1.8,4.1-4.1s-1.8-4.1-4.1-4.1-4.1,1.8-4.1,4.1,1.8,4.1,4.1,4.1Z"/>
      <path class="st1" d="M389.2,295.4h105v-96.3H5.6v96.3h105.9"/>
      <path class="st4" d="M36.3,223.2h15.3v34h22.4v13.7h-37.7v-47.6ZM129.8,270.9l19.1-48h-16.9l-9.4,27.2h-.2l-9.6-27.2h-17.1l19.1,48h15ZM149.9,223v47.9h40.4v-13.1h-24.9v-5.1h23v-11.4h-23v-5.5h24.4v-12.8h-39.9Z"/>
      <path class="st3" d="M132.4,289.6h11.7v2.9h-8.9c0,0,0,3.6,0,3.6h7.8v3h-7.8v3.8h8.9c0,0,0,3,0,3h-11.8v-16.4ZM189,289.6v16.5h11.8v-3.1h-9c0,0,0-3.7,0-3.7h7.9v-3.1h-7.9v-3.5c0,0,8.9,0,8.9,0v-3h-11.7ZM317.1,289.6v16.5h11.8v-3.1h-9c0,0,0-3.7,0-3.7h7.9v-3.1h-7.9v-3.5c0,0,8.9,0,8.9,0v-3h-11.7ZM150.4,306h3.3v-10.7l8.3,10.3h2.8c0,0,0-16,0-16h-3.3v11c0,0-8.2-11-8.2-11h-2.9v16.5ZM273.2,306h3.3v-10.7l8.3,10.3h2.8c0,0,0-16,0-16h-3.3v11c0,0-8.2-11-8.2-11h-2.9v16.5ZM335,306h3.3v-10.7l8.3,10.3h2.8c0,0,0-16,0-16h-3.3v11c0,0-8.3-11-8.3-11h-2.9v16.5M183.3,289.6h-12.8v3h4.6v13.4h3.6v-13.4h4.6v-3ZM238.3,289.6h-12.8v3h4.6v13.4h3.6v-13.4h4.6v-3ZM367.9,289.6h-12.8v3h4.6v13.4h3.6v-13.4h4.6v-3ZM250.6,289.6l6.9,16.5h-3.6l-1.6-4.2h-7.2c0,0-1.1,4.2-1.1,4.2h-3.4l6.9-16.5h3ZM251.6,299.5l-2.4-5.8-2.4,5.8h4.7ZM263.1,306h3.6v-16.5h-3.6v16.5ZM294.4,289.6l-.2,16.5h3.4v-10.7c0,0,4.6,6.7,4.6,6.7l4.9-6.9v11h3.3v-16.5h-3.7l-4.4,6.7-4.2-6.7h-3.7ZM216.9,300.2l4,5.8h-4.2l-3.6-5.4h-2.7v5.4h-3.5v-16.5h7.3c3.3,0,6.1,2.5,6.1,5.6.2,2.3-1.4,4.2-3.5,5ZM217.4,295.2c0-2.4-2.5-2.5-2.5-2.5h-4.6v5.2l4.3-.2c2.9,0,2.8-2.5,2.8-2.5ZM101.1,213.3s-1-1.8-1.2-2.1c-.2-.3-.6,0-.6,0,0,0-1.1.8-1.6,1.1-.6.4-.5.8-.5,1.1s-.2,1.6-.2,1.6c0,.3-.2.6-.3.7l-9.1,7-1.1.2-2.8,1.4.2-2c.2,0,.5.4.7.4s.7,0,.7,0c0,0-.2-.3-.2-.6s0-.6,0-.6c0,0,.4.2.7.2s.5,0,.7-.2l.3-.3s-.6-.3-.7-.5l-.2-.3c.2,0,.7-.3.7-.3,0,0-.2-.2-.5-.3-.2-.2-.3-.3-.4-.7,0-.2-.2-.5-.2-.5,0,0,.2.2.6.2s.6-.2.6-.2l-.4-.3c-.2-.2-.3-.4-.4-.7,0-.3-.2-.6-.2-.8,0-.2,0-.3-.2-.7,0-.8-.5-1.1-.5-1.1-1.1-1.5-3.5-1.8-3.5-1.8-1.2-.2-2.5,1.4-3,3-.8,2.7-.6,5.4-.6,5.4,0,0,0,.5.5.8.2.2,1.3.4,1.3.4v2.2c0,0-2.7.2-2.7.2,0,0-2-1.1-3.6-2.1l-7.2-5.4s-.3-.2-.3-.7c0,0-.2-1.4-.2-1.6s0-.7-.5-1.1c-.6-.4-1.6-1.1-1.6-1.1,0,0-.3-.2-.6,0-.2.3-1.2,2.1-1.2,2.1l.6,2s.2.4.6.8l.5.5,2.7,2.4h0l4.4,3.9,1.2,1.2s0,.2,0,.4v1.3c0,0,2.6,2,2.6,2,0,0,.2.2.2.5l.4,14.1s0,.2.2.2l.7.2,1.7,15.4,3.3,10.2-5.2,2.5s-.2,0-.2.3l-.3.7c0,.2.2.2.2.2h7.8l-.7,2-.2.6s-.2,1.1.2,1.2c.4.2,1.9.2,2.4.2.8,0,2.2-.2,2.4-.4.2-.2.3-1.1-.8-7.4l-.7-24.1,2-15.1c.2-1.7.4-1.9.4-1.9,0,0,2.1-1.5,2.4-1.8.2-.2.2-.5.2-.5v-1.7c0-.3.2-.6.2-.6l1.7-1.6.5-.6,5.5-5.3,1-1.1.5-.5c.3-.4.6-.8.6-.8,0,0,.4-1,.6-1.3l-.2-.4ZM209.3,223v47.2h15.4v-21.7l17.4,21.8h14v-47.3h-15.4v21.3l-16.9-21.1-14.6-.2ZM418.3,223v47.2h15.4v-21.7l17.4,21.8h14v-47.3h-15.4v21.3l-16.9-21.1-14.6-.2ZM275.8,222.7l-19.8,47.7h16.2l3.2-6.5h16.2l2,6.5h17.3l-19.8-47.7h-15.3ZM283.3,241.3l4.7,11.7h-9l4.3-11.7ZM314.2,236.4v34.1h15.3v-34.1h13.9v-13.3h-43.3v13.3h14.1ZM346,270.6h15.6v-47.4h-15.6v47.4ZM390.7,221.9c-15.6,0-26,10.7-26,25s10.4,24.7,26,24.7,26-10.3,26-24.7-10.4-25-26-25ZM381,246.7c0-8.7,5.9-10.7,9.9-10.7s9.9,2,9.9,10.7-5.9,10.7-9.9,10.7c-3.9,0-9.9-2.1-9.9-10.7Z"/>
    </g>
  </g>
</svg>