<svg fill="none" height="16" viewBox="0 0 64 16" width="64" xmlns="http://www.w3.org/2000/svg" xmlns:xlink="http://www.w3.org/1999/xlink"><clipPath id="a"><path d="m.054565.868362h63.7689v14.4363h-63.7689z"/></clipPath><g clip-path="url(#a)"><path d="m48.3288 13.6324c.0729-.0312.1249-.1041.1249-.1769 0-.1145-.0936-.1978-.2081-.1978h-.2498v.5829h.1145v-.1978h.0936l.1249.1874h.1353zm-.0832-.0936h-.1457v-.1874h.1561s.0832.0104.0832.0937c0 .0104 0 .0937-.0936.0937z" fill="#000"/><path d="m48.2246 14.0693c.2868 0 .5193-.2325.5193-.5193s-.2325-.5193-.5193-.5193-.5193.2325-.5193.5193.2325.5193.5193.5193z" stroke="#000" stroke-miterlimit="10" stroke-width=".091073"/><path d="m49.6987 13.8601h13.3977v-12.27605h-62.314906v12.27605h13.511906" stroke="#cf0a2c" stroke-miterlimit="10" stroke-width="1.27501"/><path d="m4.68677 4.65899h1.95253v4.33089h2.8561v1.74482h-4.80863zm11.93333 6.07571 2.4303-6.11725h-2.1499l-1.2048 3.46886h-.0207l-1.2256-3.46886h-2.181l2.4407 6.11725zm2.5549-6.10686v6.10686h5.1514v-1.67212h-3.1781v-.65431h2.9288v-1.45401h-2.9288v-.69585h3.1157v-1.63057z" fill="#cf0a2c"/><path d="m16.9532 13.1233h1.4956v.3739l-1.1321.0104.0104.4466h.9971v.3843l-.9971.0103v.4778l1.1321-.0104v.3947h-1.506zm7.2078 0v2.098h1.5059v-.3947l-1.1424.0104v-.4778l1.0074-.0104v-.3842h-1.0074l-.0104-.4466 1.1425-.0104v-.3843zm16.3473 0v2.098h1.5059v-.3947l-1.1424.0104v-.4778l1.0074-.0104v-.3842h-1.0074l-.0104-.4466 1.1424-.0104v-.3843zm-21.2702 2.098h.4155v-1.3606l1.0593 1.3086.3531.0104.0104-2.0564h-.4258l-.0104 1.4021-1.0386-1.4021h-.3635zm15.6618 0h.4155v-1.3606l1.0593 1.3086.3531.0104.0104-2.0564h-.4258l-.0104 1.4021-1.0386-1.4021h-.3635zm7.8829 0h.4154v-1.3606l1.0594 1.3086.3531.0104.0104-2.0564h-.4259l-.0103 1.4021-1.049-1.4021h-.3635v2.098m-19.3384-2.098h-1.6306v.3843h.5816v1.7033h.457v-1.7033h.592zm7.0208 0h-1.6306v.3843h.5816v1.7033h.457v-1.7033h.592zm16.5342 0h-1.6305v.3843h.5816v1.7033h.4569v-1.7033h.592zm-14.9659 0 .8828 2.098h-.457l-.2077-.5297-.914.0104-.135.5193h-.4362l.8828-2.098zm.1246 1.2671-.3012-.7374-.3012.7374zm1.4644.8309h.457v-2.098h-.457zm3.9985-2.098-.0207 2.098h.4362l.0104-1.371.5712.8517.6231-.8828v1.4021h.4155v-2.098h-.4674l-.5608.8517-.5401-.8517zm-9.8873 1.3606.5089.7374h-.5296l-.457-.6855h-.3427v.6855h-.4466v-2.098h.9347c.4258 0 .7789.322.7789.7166.0208.2908-.1765.5297-.4466.644zm.0624-.644c0-.3011-.322-.3219-.322-.3219h-.5816v.6647l.5504-.0208c.3635 0 .3532-.322.3532-.322zm-14.831-10.44809s-.1246-.22849-.1558-.27003c-.0208-.04155-.0727-.01039-.0727-.01039s-.135.10386-.2077.1454c-.0727.05193-.0623.10386-.0623.13502s-.0208.20771-.0208.20771c0 .04155-.0208.0727-.0415.09348l-1.1632.89318-.1454.03116-.3532.17655.0208-.24926c.0208.01039.0623.05193.0935.05193.0311 0 .0831-.01038.0831-.01038s-.0208-.04155-.0208-.0727c0-.03116.0104-.07271.0104-.07271s.0519.03116.0935.03116c.0311 0 .0623-.01038.083-.03116l.0416-.04154s-.0727-.04154-.0935-.06231l-.0208-.04155c.0312 0 .0831-.04154.0831-.04154s-.0311-.02077-.0623-.04154c-.0311-.02077-.0415-.04155-.0519-.08309-.0104-.03116-.0208-.06231-.0208-.06231s.0208.03115.0727.03115c.0416 0 .0727-.03115.0727-.03115l-.0519-.04155c-.0208-.02077-.0416-.05193-.0519-.08308-.0104-.04155-.0208-.0727-.0312-.10386-.0104-.02077-.0104-.04155-.0208-.09347-.0104-.10386-.0623-.14541-.0623-.14541-.135-.18694-.4466-.22848-.4466-.22848-.1558-.03116-.3219.17656-.3843.38427-.10381.34273-.07265.68546-.07265.68546s.01035.06232.06235.10386c.0311.02077.1661.05193.1661.05193l-.0104.28042-.3323.03116s-.24926-.1454-.45697-.27003l-.92434-.68547s-.04154-.02077-.04154-.09347c0 0-.02078-.17656-.02078-.20772 0-.03115 0-.08308-.06231-.13501-.0727-.05193-.20772-.1454-.20772-.1454s-.04154-.03116-.0727.01038c-.02077.04154-.15579.27003-.15579.27003l.0727.25965s.03116.05193.07271.10386l.06231.06231.34273.30119h.01039l.56083.49852.15579.15579s.01039.02077.01039.05193v.12463l.01038.04154.32196.25964s.02077.02078.02077.06232l.05193 1.79675s0 .03115.03116.03115l.09347.03116.2181 1.96292.41543 1.29819-.66469.322s-.02077.0104-.03115.0415l-.04155.0935c0 .0208.02078.0312.02078.0312h.99701l-.0934.2596-.0208.0727s-.0312.135.0208.1558c.0519.0208.2388.0208.3115.0208.1039-.0104.2804-.0208.3012-.0519.0312-.0312.0416-.1455-.1038-.9452l-.0831-3.07416.2596-1.92138c.0208-.2181.0519-.23887.0519-.23887s.2701-.19733.3012-.22849c.0312-.02077.0208-.06232.0208-.06232v-.2181c0-.04154.0208-.0727.0208-.0727l.2181-.20772.0623-.0727.7062-.67508.1247-.1454.0623-.06231c.0415-.05193.0727-.10386.0727-.10386s.0519-.12463.0727-.16617zm13.8028 1.2463v6.02379h1.9629v-2.77303l2.2225 2.78343h1.7864v-6.03419h-1.9629v2.71069l-2.1499-2.68992zm26.65 0v6.02379h1.9629v-2.77303l2.2226 2.78343h1.7863v-6.03419h-1.9629v2.71069l-2.1499-2.68992zm-18.1752-.04155-2.5238 6.08614h2.0668l.4051-.83091h2.0667l.2597.83091h2.2018l-2.5238-6.08614zm.9555 2.36797.6024 1.49556h-1.1529zm3.9466-.62315v4.35162h1.9525v-4.35162h1.776v-1.69289h-5.5253v1.69289zm4.0505 4.36202h1.994v-6.04452h-1.994zm5.7122-6.2107c-1.9837 0-3.3131 1.36055-3.3131 3.18845 0 1.83829 1.3294 3.14695 3.3131 3.14695s3.313-1.30866 3.313-3.14695c0-1.8279-1.3293-3.18845-3.313-3.18845zm-1.2463 3.16768c0-1.11128.7581-1.37093 1.2566-1.37093.4986 0 1.2567.25965 1.2567 1.37093s-.7581 1.37093-1.2567 1.37093c-.4985-.01039-1.2566-.27003-1.2566-1.37093z" fill="#fff"/></g></svg>