<?xml version="1.0" encoding="UTF-8"?>
<svg xmlns="http://www.w3.org/2000/svg" version="1.1" viewBox="0 0 379 66">
  <!-- Generator: Adobe Illustrator 29.0.1, SVG Export Plug-In . SVG Version: 2.1.0 Build 192)  -->
  <defs>
    <style>
      .st0 {
        fill: #fff;
      }
    </style>
  </defs>
  <g id="Layer_1" focusable="false">
    <path class="st0" d="M338.5,64.6h20.8v-14.9h14.8v-16.5h-14.7c.5-6.2,5.7-10.9,12.1-10.9h7.4V1.4h-7.4c-18.4,0-33,14.6-33,32.9v30.2h0ZM252.9,33c0-6.8,5.3-12.2,12.2-12.2s12.2,5.3,12.2,12.2-5.3,12.2-12.2,12.2-12.2-5.3-12.2-12.2ZM168.3,33.1c0,18.3,14.6,32.9,33,32.9s28.6-9.9,32.1-23.6c4,13.7,16.6,23.6,31.6,23.6s27.7-9.8,31.6-23.4c4.5,12.8,16.7,22,31.2,22h7.4v-20.9h-7.4c-6.8,0-12.2-5.2-12.2-12.1V1.4h-20.8v17.3c-5.3-11.2-16.6-18.8-29.8-18.8s-27.9,10.1-31.8,24.1h-31.6v16.6h9.2c-2.3,2.7-5.7,4.5-9.6,4.5-6.8,0-12.2-5.3-12.2-12.2s5.3-12.2,12.2-12.2,3.6.4,5.1,1.2l10.2-18.3C212,1.3,206.9,0,201.3,0,182.9,0,168.3,14.6,168.3,33.1h0ZM105.2,64.6h6.1c1.2,0,2.9-.9,4.1-2.1L173.8,4.4c1.5-1.4,1.5-3,0-3h-3.4l-59.7,59.4,1-4.7L166.5,1.4h-6.3l-46.8,46.8.9-4.3L156.2,1.4h-6.2l-33.9,34,1-4.5L146.2,1.4h-4.1c-1.3,0-3,.8-4.1,2l-19.2,19.7,4-18.7c.4-1.7-.8-3-2.4-3h-1.7l-13.3,63.1h0ZM97.6,64.6h4.9L115.8,1.4h-4.9l-13.3,63.1h0ZM90.1,64.6h5L108.4,1.4h-4.9l-13.3,63.1h0ZM83.3,61.6c-.4,1.7.8,3,2.4,3h1.7L100.8,1.4h-2c-1.6,0-3,1-3.3,2.7,0,0-12.2,57.4-12.2,57.4ZM71.1,64.6h2c1.6,0,3-1,3.3-2.7l12.2-57.4c.4-1.7-.8-3-2.4-3h-1.7l-13.3,63.1h0ZM56.1,64.6h5L74.3,1.4h-4.9l-13.3,63.1h0ZM49.2,61.6c-.4,1.7.8,3,2.4,3h1.7L66.7,1.4h-2c-1.6,0-3,1-3.3,2.7l-12.2,57.4h0ZM17.7,59.9l3.8,4.7h19.4c1.3,0,2.2-.9,2.5-2.1l.5-2.6h-21.5l.6-2.8h21.4c.4-1.4.7-3.1,1-4.6h-21.4l.6-2.8h21.5c.3-1.5.6-3.1,1-4.7h-21.5l.5-2.7h21.5l.4-1.7c.4-1.5-.8-2.9-2.4-2.9h-18.4l7-33.3c.4-1.7-.8-3-2.4-3h-1.7l-12.3,58.4h0ZM11.7,52.3l3.8,4.8L27.3,1.4h-4.9l-10.7,50.9h0ZM5.8,44.7l3.9,4.9L19.8,1.4h-4.9L5.7,44.7h0ZM0,37.5l3.7,4.7L12.2,1.4h-2c-1.6,0-3,1-3.3,2.7L0,37.5ZM81.8,1.4h-4.9l-13.3,63.1h4.9L81.8,1.4Z"/>
  </g>
</svg>