<?xml version="1.0" encoding="UTF-8"?>
<svg id="svg4540" xmlns="http://www.w3.org/2000/svg" xmlns:svg="http://www.w3.org/2000/svg" version="1.1" viewBox="0 0 1024 302">
  <!-- Generator: Adobe Illustrator 29.0.1, SVG Export Plug-In . SVG Version: 2.1.0 Build 192)  -->
  <defs>
    <style>
      .st0 {
        fill: #fff;
        fill-rule: evenodd;
      }
    </style>
  </defs>
  <path id="path3568" class="st0" d="M409.3,9.3c-4.7,0-6.8,2.8-8.5,6.8-109.9,252.4-119.1,272.4-119.1,272.4h62.3l13-31.7h93.8l13,31.7h73.2s-6.3-13-119.1-272.4c-1.7-4-3.8-6.8-8.5-6.8M376.7,208.5l27-66.1,27.1,66.1h-54.2.1ZM720.4,161.7c21.4-12.7,37.6-34.9,37.6-66.8s-10-45.6-27.5-59.6c-17.7-14.2-38.2-21.8-80.1-21.8h-89.6v275h66.2v-102.4h20.5c22.3,0,33.6,8.4,43,30.7,7.9,18.9,13.5,41.3,20.8,71.6h73.8c-10.5-31.2-15.7-45.9-23.6-67.9-10.8-30.1-23.8-48.6-41.1-58.9M678.1,127.9c-8,6.1-18.3,8-36.9,8h-14.1s0-73.3,0-73.3h14.1c19.4,0,29.1,2.1,36.9,8,8.9,6.7,12.9,16.9,12.9,28.6s-4.5,22.2-12.9,28.7M133.1,130L20.7,18.3c-3.4-3.3-6.8-5.7-12.1-5.7v275.9h57.8v-131.9l66.8,66.3,66.8-66.3v131.9h57.8V12.6c-5.3,0-8.7,2.4-12.1,5.7l-112.5,111.7h-.1ZM991.3,151.2c-29.5-27.9-83.1-32.6-104.2-49-8.3-6.4-11.3-15.9-8.5-24.9,3.3-11.2,14.6-18.5,31-18.5s43,10.3,57.1,26.9l37.8-39.3c-22.3-23.5-57.9-37.7-95.3-37.7s-76.6,21-91.4,54.4c-11.4,26-7.5,53.1,6.6,72.5,27.1,37.7,84.4,38.8,109.2,58.2,8.8,6.9,13.8,18,8.5,30-4.6,10.5-16.1,17.6-34.9,18.1-26.1.6-49.4-11.5-66.5-32.8l-37.9,39.3c25,30.1,62.3,44.6,107.4,44.6s82.2-16.9,97.9-53c13.7-31.5,8.8-65-16.7-89"/>
</svg>