<?xml version="1.0" encoding="UTF-8"?>
<svg id="Layer_1" xmlns="http://www.w3.org/2000/svg" version="1.1" viewBox="0 0 150 167">
  <!-- Generator: Adobe Illustrator 29.0.1, SVG Export Plug-In . SVG Version: 2.1.0 Build 192)  -->
  <defs>
    <style>
      .st0 {
        fill: #e6632a;
      }

      .st1 {
        fill: #e37b33;
      }

      .st2 {
        fill: #e76a2b;
      }

      .st3 {
        fill: #e76c2f;
      }

      .st4 {
        fill: #801214;
      }

      .st5 {
        fill: #df6127;
      }

      .st6 {
        fill: #e23323;
      }

      .st7 {
        fill: #c46c1f;
      }

      .st8 {
        fill: #c66a1e;
      }

      .st9 {
        fill: #d52f25;
      }

      .st10 {
        fill: #e76a2c;
      }

      .st11 {
        fill: #e55b2a;
      }

      .st12 {
        fill: #d85021;
      }

      .st13 {
        fill: #d94d21;
      }

      .st14 {
        fill: #eb8e50;
      }

      .st15 {
        fill: #e77432;
      }

      .st16 {
        fill: #9d1117;
      }

      .st17 {
        fill: #d55b20;
      }

      .st18 {
        fill: #a66c2e;
      }

      .st19 {
        fill: #d73224;
      }

      .st20 {
        fill: #e02f23;
      }

      .st21 {
        fill: #9d1017;
      }

      .st22 {
        fill: #e87133;
      }

      .st23 {
        fill: #d53124;
      }

      .st24 {
        fill: #cf2b23;
      }

      .st25 {
        fill: #e45428;
      }

      .st26 {
        fill: #e6622a;
      }

      .st27 {
        fill: #e55829;
      }

      .st28 {
        fill: #9c1017;
      }

      .st29 {
        fill: #e77e37;
      }

      .st30 {
        fill: #e5672a;
      }

      .st31 {
        fill: #e77934;
      }

      .st32 {
        fill: #9b1016;
      }

      .st33 {
        fill: #dd7c30;
      }

      .st34 {
        fill: #c6671e;
      }

      .st35 {
        fill: #c7651d;
      }

      .st36 {
        fill: #9f1518;
      }

      .st37 {
        fill: #e57d35;
      }

      .st38 {
        fill: #e44e29;
      }

      .st39 {
        fill: #a46a2b;
      }

      .st40 {
        fill: #d52f24;
      }

      .st41 {
        fill: #e56729;
      }

      .st42 {
        fill: #e47734;
      }

      .st43 {
        fill: #e34a28;
      }

      .st44 {
        fill: #e98440;
      }

      .st45 {
        fill: #e67c36;
      }

      .st46 {
        fill: #c46a1d;
      }

      .st47 {
        fill: #e13022;
      }

      .st48 {
        fill: #9f6a2d;
      }

      .st49 {
        fill: #e46629;
      }

      .st50 {
        fill: #e36129;
      }

      .st51 {
        fill: #dc6c28;
      }

      .st52 {
        fill: #dd6b2e;
      }

      .st53 {
        fill: #e76c2d;
      }

      .st54 {
        fill: #c76b1f;
      }

      .st55 {
        fill: #e45e2a;
      }

      .st56 {
        fill: #e6652a;
      }

      .st57 {
        fill: #e04f27;
      }

      .st58 {
        fill: #e23023;
      }

      .st59 {
        fill: #801114;
      }

      .st60 {
        fill: #c5691d;
      }

      .st61 {
        fill: #c36a1d;
      }

      .st62 {
        fill: #9d1217;
      }

      .st63 {
        fill: #ed925a;
      }

      .st64 {
        fill: #c5681d;
      }

      .st65 {
        fill: #e3642d;
      }

      .st66 {
        fill: #e07932;
      }

      .st67 {
        fill: #e67535;
      }

      .st68 {
        fill: #e87f38;
      }

      .st69 {
        fill: #eb8541;
      }

      .st70 {
        fill: #e13023;
      }

      .st71 {
        fill: #e34b28;
      }

      .st72 {
        fill: #861615;
      }

      .st73 {
        fill: #811314;
      }

      .st74 {
        fill: #e87635;
      }

      .st75 {
        fill: #e23a25;
      }

      .st76 {
        fill: #e04f26;
      }

      .st77 {
        fill: #da5722;
      }

      .st78 {
        fill: #e68038;
      }

      .st79 {
        fill: #e88037;
      }

      .st80 {
        fill: #e17331;
      }

      .st81 {
        fill: #a26a2c;
      }

      .st82 {
        fill: #e77a35;
      }

      .st83 {
        fill: #811114;
      }

      .st84 {
        fill: #db4621;
      }

      .st85 {
        fill: #d65b21;
      }

      .st86 {
        fill: #e87432;
      }

      .st87 {
        fill: #ec873c;
      }

      .st88 {
        fill: #a91f1c;
      }

      .st89 {
        fill: #851615;
      }

      .st90 {
        fill: #e6602a;
      }

      .st91 {
        fill: #a2692c;
      }

      .st92 {
        fill: #e6692c;
      }

      .st93 {
        fill: #e6682a;
      }

      .st94 {
        fill: #c4691d;
      }

      .st95 {
        fill: #e33925;
      }

      .st96 {
        fill: #e26628;
      }

      .st97 {
        fill: #df7b32;
      }

      .st98 {
        fill: #e25d28;
      }

      .st99 {
        fill: #e87131;
      }

      .st100 {
        fill: #a4642c;
      }

      .st101 {
        fill: #e6632b;
      }

      .st102 {
        fill: #ea7f39;
      }

      .st103 {
        fill: #c46b1d;
      }

      .st104 {
        fill: #e6642a;
      }

      .st105 {
        fill: #d75621;
      }

      .st106 {
        fill: #a11218;
      }

      .st107 {
        fill: #a01218;
      }

      .st108 {
        fill: #d53125;
      }

      .st109 {
        fill: #e03222;
      }

      .st110 {
        fill: #821414;
      }

      .st111 {
        fill: #e55d29;
      }

      .st112 {
        fill: #eb853a;
      }

      .st113 {
        fill: #e44b29;
      }

      .st114 {
        fill: #e97535;
      }

      .st115 {
        fill: #e3632b;
      }

      .st116 {
        fill: #821314;
      }

      .st117 {
        fill: #d72f24;
      }

      .st118 {
        fill: #e98038;
      }

      .st119 {
        fill: #e44c29;
      }

      .st120 {
        fill: #e34828;
      }

      .st121 {
        fill: #a61b1a;
      }

      .st122 {
        fill: #ea843f;
      }

      .st123 {
        fill: #e23123;
      }

      .st124 {
        fill: #8d1115;
      }

      .st125 {
        fill: #a0692c;
      }

      .st126 {
        fill: #e36929;
      }

      .st127 {
        fill: #e03422;
      }

      .st128 {
        fill: #e15c27;
      }

      .st129 {
        fill: #e12f23;
      }

      .st130 {
        fill: #cb6e23;
      }

      .st131 {
        fill: #ea7e37;
      }

      .st132 {
        fill: #d62f24;
      }

      .st133 {
        fill: #eb863b;
      }

      .st134 {
        fill: #d85321;
      }

      .st135 {
        fill: #e44b28;
      }

      .st136 {
        fill: #e87230;
      }

      .st137 {
        fill: #ea7e38;
      }

      .st138 {
        fill: #eb853b;
      }

      .st139 {
        fill: #9e1117;
      }

      .st140 {
        fill: #e77131;
      }

      .st141 {
        fill: #dd692a;
      }

      .st142 {
        fill: #891916;
      }

      .st143 {
        fill: #e34928;
      }

      .st144 {
        fill: #d52e24;
      }

      .st145 {
        fill: #ea8239;
      }

      .st146 {
        fill: #971016;
      }

      .st147 {
        fill: #e35f28;
      }

      .st148 {
        fill: #9f692c;
      }

      .st149 {
        fill: #e55c29;
      }

      .st150 {
        fill: #da4129;
      }

      .st151 {
        fill: #e23223;
      }

      .st152 {
        fill: #dd4222;
      }

      .st153 {
        fill: #e56529;
      }

      .st154 {
        fill: #a51719;
      }

      .st155 {
        fill: #a76d2f;
      }

      .st156 {
        fill: #e34c28;
      }

      .st157 {
        fill: #e67230;
      }

      .st158 {
        fill: #e13223;
      }

      .st159 {
        fill: #e25927;
      }

      .st160 {
        fill: #c6681d;
      }

      .st161 {
        fill: #e36b2c;
      }

      .st162 {
        fill: #e2642b;
      }

      .st163 {
        fill: #e56e2e;
      }

      .st164 {
        fill: #dc5f24;
      }

      .st165 {
        fill: #9f1418;
      }

      .st166 {
        fill: #cc601f;
      }

      .st167 {
        fill: #c86a1e;
      }

      .st168 {
        fill: #e46129;
      }

      .st169 {
        fill: #e34727;
      }

      .st170 {
        fill: #d65a21;
      }

      .st171 {
        fill: #ca6920;
      }

      .st172 {
        fill: #df4e24;
      }

      .st173 {
        fill: #e7692b;
      }

      .st174 {
        fill: #811214;
      }

      .st175 {
        fill: #c8641e;
      }

      .st176 {
        fill: #d53025;
      }

      .st177 {
        fill: #e46729;
      }

      .st178 {
        fill: #c6661d;
      }

      .st179 {
        fill: #e56e30;
      }

      .st180 {
        fill: #e34728;
      }

      .st181 {
        fill: #e55729;
      }

      .st182 {
        fill: #e5642a;
      }

      .st183 {
        fill: #dd4f24;
      }

      .st184 {
        fill: #e23e27;
      }

      .st185 {
        fill: #d43024;
      }

      .st186 {
        fill: #aa1c1b;
      }

      .st187 {
        fill: #9e1217;
      }
    </style>
  </defs>
  <path class="st58" d="M45.6,65.1h1.8c0,0,0,.2,0,.2v61c0,0-.3.2-.3.2h-14.7l-.2-.2v-.7c0,0,0-19.5,0-19.5v-3.6c0,0-15.7,0-15.7,0v23.7l-.7.2H1.7c0,0-.4-.2-.4-.2v-.2c0,0,0-59.2,0-59.2v-1.5c0,0,.2-.2.2-.2h14.9c0,0,0,24,0,24h15.7v-23.9c0,0,.2,0,.2,0h13.1Z"/>
  <path class="st58" d="M76,64.3h3.4l2,.2,2,.4,1.7.5,2,.8,1.9.9,1.7,1.1,1.1.8.9.7,1.1,1,.9.9.6.7.8,1.1.8,1.3.5.8.9,2,.6,1.6.6,2,.4,2.2.3,2.8.2,2,.2,3.7v8.1l-.2,3.8-.3,3.2-.3,2.3-.4,2-.7,2.2-.7,1.6-.7,1.3-.7,1.1-.8,1.1-.9,1.1-1,1.1-.8.8-1.1.9-1.2.9-1.5.9-1.2.7-2,.8-2.3.7-2.2.5-2.2.3h-1c0,0-2.4,0-2.4,0l-2.4-.2-1.8-.3-1.7-.4-1.5-.5-1.7-.7-1.5-.7-1.4-.8-1.5-1.1-1.1-1-1.1-1-.6-.6-.7-.9-1.1-1.4-1-1.6-.8-1.7-.6-1.6-.6-2-.5-2.3-.3-2.5-.2-3.4v-2.5c0,0,0-7.1,0-7.1v-3.8c0,0,.2-2.9.2-2.9l.3-2.6.5-2.4.5-1.8.7-1.9.7-1.5.8-1.5,1.1-1.5,1-1.1,1-1.1.7-.6.8-.7,1.4-1.1,1.7-1.1,1.5-.8,2-.8,1.2-.4,2.4-.6,2.4-.3h1.1ZM76.3,78.3l-1.3.2-1.3.6-.9.7-.7.6-.5.7-.5.8-.6,1.1-.6,1.7-.4,2-.2,2.3v1.4c0,0,0,11.3,0,11.3l.2,2.6.3,2,.3,1.3.8,2,.6.9.7.8.7.7,1.1.7,1.3.5.9.2h1.5c0,0,1.2,0,1.2,0l1.3-.5,1.3-.7.8-.7.7-.9.5-.9.4-1,.5-1.7.5-2.9.2-1.6v-1.6c0,0,0-10.2,0-10.2l-.2-2.1-.4-2.9-.3-1.4-.6-1.5-.7-1.2-.6-.7-.7-.8-1.1-.7-1.1-.5-1.2-.2h-2Z"/>
  <path class="st58" d="M103.2,65.2h38.6v13.3l-.4.2h-11.3v47.3l-.2.4h-.5c0,0-14.2,0-14.2,0l-.3-.2v-.7c0,0-.2-46.8-.2-46.8h-5.4c0,0-6.1,0-6.1,0l-.2-.2-.2-1.1v-11.9c0,0,.2-.3.2-.3Z"/>
  <path class="st73" d="M41.1,11.5h1.3c0,0,1.4.4,1.4.4l1.4.7.9.6.8.7.8.7.7.7.7,1.1.4,1v.3c0,0,0,1.4,0,1.4l-.3,1.9-.7,2.9-1.5,4.5-.6,1.8h0c0,0,.7-.7.7-.7l1-1.3,1.1-1.3.7-.8.6-.7,1.1-1.1.7-.6,1-.9,1.3-1,1.2-.8,1.7-.8.7-.2h.5c0,0,.8,0,.8,0l1.4.2,1.3.5.9.5,1.1.8.7.8.7,1.1.2.7v1.3l-.2,1.7-.7,2.7-.8,2.4-.9,2.4-1,2.4-.9,2-1.1,2.6-1.2,2.9-1,2.4-1,3-.2,1v1c0,0,.3.4.3.4l.3.2h1.3l1.3-.2.4.4v.5c0,0-.6.4-.6.4l-.8.3-1,.2-1.4.2h-1.8l-1.1-.3-.8-.6-.7-.7-.5-.8-.5-1.7v-2.3l.2-1.3.5-1.7.6-1.5,1-2.4.8-1.9,1.1-2.4.9-2,1.1-2.4,1.3-3.2.8-2.4.5-1.5.3-1.3v-.5c0,0,0-1.1,0-1.1l-.4-.7-.5-.2h-1l-1.1.3-1.4.7-1.4,1-.8.7-.7.6-1.8,1.8-.7.9-.9,1.1-.7,1-1.1,1.5-1.5,2.2-.9,1.5-1.1,1.7-1.1,2-.8,1.5-1.1,1.9-1.2,2.4-1.5,3-.7,1.3-.8,1.5-.7.8-.7.5-.7.2-1.7.3h-2.1l-1.3-.3-.5-.2-.4-.4v-.6c0,0,1.1-2,1.1-2l.8-1.5,1.6-3.3,1.1-2.4,1.2-2.7,1.1-2.4.8-1.9,1.1-2.5.9-2.3,1.1-2.9.9-2.7.7-2.3.6-2.5.2-1.5v-.8c0,0,0-.9,0-.9l-.2-1-.5-.7-.2-.2h-.2c0,0-.7,0-.7,0l-1.2.3-1.7.8-1.1.7-1.2,1.1-1.5,1.5-.7.9-.7.7-1,1.3-.7,1.1-.6.8-1.6,2.6-1.1,2-1,1.8-1.1,2-1.6,3.2-.7,1.3-1.2,2.7-.9,2-1.5,3.2-1.2,2.3-1.1,2-1.1,1.8-1.2,2-.8,1.3-.6.8-1,1.5-.8,1.1-.7.7-1,.4-1.1.2-1.8.2h-.8l-1.5-.2-1.3-.3-.2-.4.5-.8.9-1.1.8-1.1,2-2.8.8-1.2,1-1.5,1.2-2,1.1-2,1-1.8.8-1.5,1.8-3.8.8-1.8,1-2.4,1.2-3.2,1-2.9.7-2.3.6-2.4.5-2.6.2-1.4v-1.7l-.2-1.1-.5-.8-.4-.4-.5-.3h-.2c0,0-1.6,0-1.6,0l-1.2.3-1.2.5-1.5.8-1.1.8-.9.7-1,.9-.7.6-.9.9-.6.7-.8,1-.7,1-.7,1.1-.5.8-.8,1.5-.7,1.6-.3,1.1v.4c0,0,0,2.3,0,2.3l.2.8.3.5.7.5h.2c0,0,.6,0,.6,0l.7-.3,1.3-1,.9-.7,1-.5h.2c0,0,.7,0,.7,0l.8.4.4.4.5.7.2.3v.8l-.3.8-.7,1.1-.8.8-1.3.7-1.4.4h-1.6c0,0-1,0-1,0l-1-.4-1-.7-.6-.7-.7-1.1-.4-1-.2-1.1v-2.3l.4-1.9.5-1.4,1-2,1-1.6.9-1.2.8-1.1.8-.9.6-.7.8-.8.7-.6.8-.7,1.5-1.1,1.5-1,1.3-.7,1.5-.7,1.5-.4,1.9-.2h1.9c0,0,2.1.4,2.1.4l1.2.3,1.1.4.8.5.7.7.5.8.3,1.1v.6c0,0,.2,1.4.2,1.4v1.8l-.2,1.5-.3,1.9v1c0,0,.6-.8.6-.8l1.6-2.4.6-.8,1.1-1.5.8-1,.7-.8,1.2-1.3.7-.8,1.1-1,1.4-1.1,1.7-1,1.1-.4,1.4-.2Z"/>
  <path class="st116" d="M102.5,1h1.4c0,0,1.1.4,1.1.4l1.1.6,1,.9.5.8v.2c0,0,0,.8,0,.8l-.7,2-.6,1.4-1.3,2.7-1.3,2.4-1,1.5-.7,1.1-.8,1.2-1,1.5-1.1,1.6-1,1.5-1.1,1.5-.8,1.1-1,1.4-.7.8-.7.9-1,1.4-.7,1-1.8,2.3-.8,1-.7.8-.9,1.1-1,1.1-.8,1.3-.8,2.4-.2.9.7-1,.8-1.2.7-.8.7-.9.9-1.1.7-.8,1.2-1.2.9-.7.8-.6.8-.5,1.6-.7,1.9-.5h1.1c0,0,1.3.2,1.3.2l1.2.5,1.1.7.8.7.2.6v1.2l-.4,1.4-1,2-.9,1.3-.9,1.1-.6.7-.7.6-.6.5-.7.5-1.4.7v.4c0,0,.2.7.2.7l1,2,.8,1.4.8,1.1.9,1.1,1.7,1.7,1.4,1.1,1.4.8,1.2.6,1.5.5,1.2.2h3.2l1.8-.3,1.3-.4.8-.2h.7l.2.2v.5l-.6.6-1.7.8-2.1.8-2.4.6-1.1.2h-1.9c0,0-1.9,0-1.9,0l-2-.4-2-.7-1.7-.8-1.4-.9-1.4-1.1-1.3-1.2-.8-.8-.7-.9-1.1-1.5-.7-1.2-.8-1.5-.7-1.6-.4-1.1v-.5l.4-.5,1.2-.9,1.5-1,1.1-.9.7-.6.8-.9.9-1.1,1.1-1.5.9-1.5.5-1.3v-.6c0,0-.5-.4-.5-.4h-.4c0,0-1,0-1,0l-1.2.5-1.4.7-1,.7-1.4,1.1-1.4,1.4-1,1.3-1.1,1.5-.9,1.4-.8,1.4-.9,1.9-.6,1.3-.7,2-.3,1.1-.3,1.7-.3,3.2-.2,1.9-.2.7-.2.2h-.2c0,0-1.6,0-1.6,0l-1.2-.3-.9-.6-.6-.7v-.2c0,0,0-1.7,0-1.7l.2-2,.4-2.7.3-1.7v-.7l-.8.7-1.8,1.8-.9.7-1.1.8-1.6,1.1-1.3.7-1.4.4h-.4c0,0-1.4.2-1.4.2l-1.2-.2-.8-.3-.9-.7-.7-.9-.4-1.1v-1.1l.3-1.6.8-2.4.9-2,1.9-3.8,1.1-2,.3-.7-1.7.3h-.7c0,0-.2-.3-.2-.3l.4-.7.8-.8,1.5-1.1.9-.5,1-.4.8-.2h1.3l.9.3.9.7.5.7v.7c0,0-.2.8-.2.8l-.7,1.4-.7,1.3-2,3.8-.7,1.3-1.3,2.5-.7,1.5-.7,2v.7l.2.5.4.2h.5c0,0,1.3-.7,1.3-.7l1.3-1,1.1-.9.7-.6,1.1-1,1.3-1.2.2-.2h.2v-.2l1.5-1.5.6-.7.2-.3.7-2.1.8-2.9,1.1-3.4,1.1-3,1.2-3.2.7-1.7,1.1-2.4.7-1.6,1.1-2.3,1.4-2.8.8-1.5.7-1.1,1.1-1.9,1.1-1.8,1.4-2,1.1-1.4.9-1.1,1.2-1.3.7-.7,1.1-.9,1.1-.7.8-.3h.7ZM105.4,3.8l-.8.2-1,.7-.8.7-1,1.1-.7.9-1.1,1.5-.7,1-.6.8-.8,1.3-1.1,1.7-.8,1.5-1.1,1.9-2.4,4.7-1.1,2.4-1,2.2-1.5,3.3-.3,1.1.4-.2,1-1,.7-.8,1.1-1.5.8-1.1.9-1.1,2.7-3.6.9-1.2.7-.9.8-1.1,1.1-1.5,1-1.5.6-.8.9-1.4.5-.8.7-1.1.7-1.2.7-1.2.6-1.1.7-1.5.3-1.4-.2-.7-.2-.2h-.4Z"/>
  <path class="st9" d="M81.3,132.1h2.9c0,0,0,1.3,0,1.3v31.6h0c0,0-4.2.2-4.2.2h-2l-.6-.2-1.1-1.8-.6-.8-.8-1.3-.9-1.4-1.1-1.7-.9-1.4-1-1.5-1.3-2-1-1.6-1.1-1.7-.7-1-.2-.2v.2c0,0,0,1.9,0,1.9v14.5c0,0,0,0,0,0h-3.3c0,0-4.8,0-4.8,0v-.4c0,0,0-32.5,0-32.5v-.2h6.4l.4.2.6.8,1.1,1.9,1.1,1.8,1,1.5,1.1,1.6.8,1.3.8,1.2,1.3,2,.7,1.1,1.1,2,.7.9h0c0,0,0-1.7,0-1.7v-14.5c0,0,.2-.2.2-.2h5.1Z"/>
  <path class="st58" d="M24.1,132.1h2.2v32.9c0,0,0,0,0,0h-2.9c0,0-5.1,0-5.1,0v-.2c0,0-.2-1.4-.2-1.4v-11.4h-8.6v.3c0,0,0,12.5,0,12.5h0c0,0-7.8,0-7.8,0h-.2c0,0,0-.4,0-.4v-32.1l.2-.4h8v13h8.6v-13c0,0,6,0,6,0Z"/>
  <path class="st70" d="M41.2,131.7h2.9l2,.4,1.5.5,1.3.7,1.1.7.8.7,1.5,1.5.7,1.1.8,1.5.5,1.4.3,1.3.2,1.8.2,2.9v4.7l-.2,3.1-.2,2-.3,1.5-.6,1.6-.7,1.2-1,1.3-.7.8-1.1.9-1.2.8-1.7.8-2,.6-1.5.2h-2.3l-2-.2-1.5-.4-1.6-.7-1.1-.7-.9-.7-.8-.7-.9-.9-.8-1.1-.9-1.7-.5-1.5-.3-1.6-.2-2.3v-1.4c0,0,0-5.8,0-5.8v-2c0,0,.4-2.7.4-2.7l.4-1.5.5-1.3.7-1.4,1-1.3,1.1-1.1,1-.7,1.7-1,1.3-.6,1.5-.4,1.5-.2ZM41.9,139.3l-1.1.3-.8.5-.7.8-.5,1.1-.3,1.2-.2,1.7-.2,2.5v4.9c0,0,.3,1.8.3,1.8l.3,1.2.6,1.1,1.1,1.1,1.1.4,1.4.2,1-.2.7-.3,1-.9.7-1.3.3-1.4.2-1.5v-1.2c0,0,0-5.2,0-5.2l-.2-2.4-.3-1.5-.6-1.3-.7-.8-.7-.5-.9-.3h-1.5Z"/>
  <path class="st4" d="M77,64.3h2.4l2,.2,2,.4,1.7.5,2,.8,1.9.9,1.7,1.1,1.1.8.9.7,1.1,1,.9.9.6.7.8,1.1.8,1.3.5.8.9,2,.6,1.6.6,2,.4,2.2.3,2.8.2,2,.2,3.7v8.1l-.2,3.8-.3,3.2-.3,2.3-.4,2-.7,2.2-.7,1.6-.7,1.3-.7,1.1-.8,1.1-.9,1.1-1,1.1-.8.8-1.1.9-1.2.9-1.5.9-1.2.7-2,.8-2.3.7-2.2.5-2.2.3h-2.6v-2.4c0,0,.2-2,.2-2v-2.6l1.9-.2,2.4-.5,1.5-.4,2.3-.9,1.4-.7,1.1-.8,1.1-1,1.1-1.2.8-1.2.7-1.3.4-1,.5-1.6.4-2,.3-3.1.2-4.3v-7.2l-.2-4.3-.2-2-.3-2.7-.4-2-.6-1.7-.7-1.3-.6-.9-1-1.3-.4-.4-1-.9-1.3-.9-1-.6-1.6-.7-2-.7-1.1-.3-3-.5h-.9v-7.1Z"/>
  <path class="st123" d="M89.4,132.3h21.9v.2c0,0,.2,1.7.2,1.7v5c0,0,0,.2,0,.2l-.4.2h-13.5v4.6c0,0-.2.5-.2.5h11.9c0,0,0,.2,0,.2v6.9c0,0,0,.2,0,.2h-2.3c0,0-5.3,0-5.3,0h-4.2c0,0,0,5.9,0,5.9h13.9c0,0,0,.3,0,.3v6.8h-.6c0,0-16.2.2-16.2.2h-5.2c0,0,0-.2,0-.2v-2c0,0,0-30.4,0-30.4v-.2Z"/>
  <path class="st4" d="M123.1,72.7h14.4l.8.3,1,.9.9.9.7,1.1.7,1v.2h.2v1.6h-.3c0,0-11.3,0-11.3,0v47.3l-.2.4h-1.5l-.2-.2-.9-.3-.7-.4v-.2h-.2v-.2h-.2v-.2l-.5-.2-.9-.7-.7-.6-.5-.5v-.2h-.2l-.4-.5v-.2c0,0,0-31.8,0-31.8v-11.8c0,0,.2-5.5.2-5.5v-.4Z"/>
  <path class="st174" d="M45.8,65.2h1.6c0,0,0,61.1,0,61.1l-.2.2h-1.4l-1.1-.4v-.2h-.4c0,0,0-.2,0-.2l-.4-.2v-.2h-.4v-.2l-.4-.2-1.4-1-1.4-1.1-.2-.2v-1.5c0,0,0-42.5,0-42.5l.2-9,.2-.5.8-.7.9-.7.8-.6,1.5-1,1.4-.9Z"/>
  <path class="st116" d="M132,23.6h.7c0,0,.8.5.8.5l.9.7.6.7.5,1v.8l-.7,2-.8,1.8-.7,1.3-.7,1.2v.4c0,0,.5.6.5.6l1.5,1.1,2.9,2,.7.2,1.1-.4,2.6-.7,2-.3,2-.2h1.4l.7.3.2.7v.3c0,0-.7.2-.7.2l-3.1.3-2.9.5-2.1.5h-.2l.8,1.1.7,1,.9,1.7.5,1.5.2,1.3v2.1l-.2,1.2-.4,1.2-.8,1.5-.6.8-1,1.1-1.1,1-1.2.8-1.9.9-1.4.4-2,.3h-1.8l-1.3-.2-1.5-.6-1-.7-1.1-1.1-.7-1.1-.5-1.2-.2-.7v-1.5l.3-1.6.7-1.4,1-1.2.6-.7,1.5-1.5,1.1-.9,1.3-.9,1.6-1,1.1-.7,2-1.1.7-.4v-.2l-1.5-1.1-1.4-1-.6-.4-.9-.3-.6.8-1.3,2-.9,1.1-.8,1.1-.8,1.1-1,1.1-.6.7-1.7,1.7-.9.7-.8.7-1.4,1-1.5,1-1.7.9-2.1.8-1.4.3-2.1.2h-2.1l-1.5-.2-1.5-.6-1.1-.8-.7-.7-.7-1.1-.5-1.3-.2-.8v-1.6l.2-1,.6-2,.6-1.3.7-1.3.8-1.4.8-1.1.7-.9,1-1.1,1.3-1.3,1.1-.9.8-.6,1.6-.9,1.7-.7,1.5-.3h1.8l1.1.3.8.6.7.7.6.9.2.7v1.1l-.3.7-.7.9-1,1.1-1.1,1.1-.9.7-.8.7-1.1.7-1.6,1-1.3.7-1.5.6-2.2.6-.4.2-.3.7-.5,2.3v1.5c0,0,.2,1.1.2,1.1l.4.8.7.4.7.2h2l1.6-.2,2-.7,1.2-.6,1.2-.7,1.3-.9,1.3-1,1.1-1,1.1-1,.4-.4,1.1-1.2,1-1.1.6-.7,1.1-1.4,1.1-1.5.8-1.1.6-.9.2-.3v-.4c0,0-.7-.8-.7-.8l-.8-.8-.5-.8v-1c0,0,.3-1.7.3-1.7l.8-2,1.1-2,.6-.7.7-.9.5-.3ZM118.6,32.5l-1.1.3-1.2.7-1.1.7-.8.7-.7.6-.9.9-.7.9-.4.5-1,1.4-.7,1.1-.2.7h.8l1.1-.3,2-.9,1.8-1.1,1.1-.8.7-.6,1.1-1,1-1,.7-.9.6-1.2-.3-.4-.6-.2h-1.1ZM137.1,40.1l-1.1.4-2,1-2,1.1-1.5,1-.9.7-.8.7-1.1,1.1-.8,1.1-.7,1.2-.2.7v1.1l.3.8.5.9.7.5.8.3h1.6l1.5-.4,1.3-.6.9-.5,1-.7,1-.9,1-1.4.4-.8.5-1.6.2-1.5v-2.4l-.3-1.3-.2-.6h-.2Z"/>
  <path class="st58" d="M1.4,65.2h2.9l.2.7.3.2.3.2v.2l.4.2,1.1.8.4.3.7,1.1.3.6.2,2.1v50.9c0,0-1,1-1,1l-1,.9-1.5,1.1-1.3.8-.2.2h-1.5l-.4-.2v-.2c0,0,0-59.2,0-59.2v-1.5c0,0,.2,0,.2,0Z"/>
  <path class="st58" d="M120.3,131.9h1.9c0,0,.4.5.4.5l.7,1.3,1.4,3.1,1.3,2.9.9,2,.5,1.2.4.5h.2l.3-.5.6-1.3.8-1.9.6-1.1,1.1-2.3,1.5-3,.6-1.1h0c0,0,1.5-.2,1.5-.2h4.2c0,0,2.3,0,2.3,0v.2c0,0-.8,1.9-.8,1.9l-1.3,2.9-1.2,2.7-1.3,2.9-1.1,2.3-1.3,2.8-1.4,2.9-.7,1.7-.2.5v1.2c0,0,0,11.3,0,11.3h-.2c0,0-4.7.2-4.7.2h-3.2l-.2-.2v-12l-.2-.7-.6-1.3-1.1-2.4-1.1-2.3-1.1-2.4-1.2-2.6-1-2.1-1.3-2.9-.9-2-.9-1.9v-.5c0,0,6,0,6,0Z"/>
  <path class="st4" d="M77,72.3l2.1.2.9.2v.2c0,0-.7,0-.7,0h-.5c0,0-.7-.2-.7-.2h-.8v5.5h0c0,0-2.2.5-2.2.5l-1.3.6-.9.7-.6.5-.5.7-.5.8-.6,1.1-.6,1.7-.4,2-.2,2.3v1.4c0,0,0,11.3,0,11.3l.2,2.6.3,2,.3,1.3.8,2,.6.9.7.8.7.6,1.1.7,1.3.5,1.9.3v5.9h-1.3l-1.8-.2-1.5-.4-.8-.2-1-.4-1.3-.7-1-.6-.7-.4-1.1-.8-1.1-1-.9-1.1-.7-1.3-.8-2-.5-1.6-.2-1.1-.2-1.9-.2-2v-2c0,0,0-10,0-10v-2.4c0,0,.3-3.1.3-3.1l.3-2.4.2-1.2.5-1.5.8-1.8.7-1,.7-.9.8-.8,1.4-1,1.5-.9,1.7-.8,1.1-.4,1.3-.3,1.4-.3,1.2-.2h1.1Z"/>
  <path class="st58" d="M78.1,72.6h1c0,0,.6.2.6.2h.7c0,0,1.4.2,1.4.2l1.7.6,1.5.7,1.5.9,1.1.8,1.5,1.5.7,1.1.7,1.3.6,1.5.2.8.2,1.5.3,1.5.4,2.5.2,1.5v13.5c0,0-.2.2-.2.2v1.8l-.2,1.7-.2,1.5-.2,1.1-.2,1-.4,1-.6,1.3-.7,1.1-.6.7h-.2l-.2.3-1.3,1.3-.8.7-.4.4-.8.6-1,.5-.7.2-1,.4-1.8.6-1.3.2-2.1.2h-2.4v-.2h2c0,0,0-5.8,0-5.8h-.4c0,0,1,0,1,0l1.2-.2,1.3-.5,1.3-.7.7-.7.7-.9.5-.9.4-1,.5-1.7.5-2.9.2-1.6v-1.6c0,0,0-10.2,0-10.2l-.2-2.1-.4-2.9-.3-1.4-.6-1.5-.7-1.2-.6-.7-.7-.7-1.1-.7-1.1-.5-1.2-.2h-1.7v-.2h.6v-5.5c0,0,.9-.2.9-.2Z"/>
  <path class="st4" d="M9.2,96.3h20.5c0,0,6.6,0,6.6,0h2.7c0,0,0,.7,0,.7l-1.2.7-.9.7-1.4,1.4-.7.6-2.6,2.6v-.4h-15.8v23.7l-.7.2h-.9l-1.1-.6-1.1-.7-1.1-.8-1-.7-.8-.8-.6-.4v-9.8c0,0,0-6.8,0-6.8v-9.4c0,0,.2,0,.2,0Z"/>
  <path class="st174" d="M81.3,132.1h2.9c0,0,0,1.3,0,1.3v31.6h0c0,0-4.2.2-4.2.2h-2l-.2-.2,1.1-1.5.3-.8.2-.2.6-.2v-.4c0,0-.7-1.3-.7-1.3l-.6-.9-1.2-2-.6-.9-1.1-1.6-.7-1.1-1.1-1.7-.9-1.5-1.1-1.8-1-1.5-1.3-2-1.1-1.6-1.2-2-1.1-1.9-.9-1.4-1-1.7-1.2-2.3-.3-.6v-.3c0,0,.9-.7.9-.7l.4-.5v-.5h.9l.4.2.6.8,1.1,1.9,1.1,1.8,1,1.5,1.1,1.6.8,1.3.8,1.2,1.3,2,.7,1.1,1.1,2,.7.9h0c0,0,0-1.7,0-1.7v-14.5c0,0,.2-.2.2-.2h5.1Z"/>
  <path class="st58" d="M103.2,65.2h38.5c0,0,0,1.3,0,1.3l-.2,1.1-.8,1.2-.6.7-.7.6-1.5,1.1-.8.5-1.1.2-1.5.3h-1.1c0,0-.7-.3-.7-.3h-.4v-.2h-.6c0,0-.6,0-.6,0h-.4c0,0-4.4,0-4.4,0h-.9c0,0-1.8,0-1.8,0h-.4c0,0-.3,0-.3,0h-2.9c0,0-1,0-1,0l-.9.2v.3h-.8c0,0-.9-.4-.9-.4l-1.2-.2h-1.9c0,0-2.4-.2-2.4-.2l-1.7-.2v.2c0,0-.8,0-.8,0l-1.2-.3-.7-.5-1-1-.6-.7-.6-.5-.6-.7v-.2c0,0,0-.2,0-.2l-.5-.2v-2.2h0Z"/>
  <path class="st58" d="M41.2,131.7h1.4v.8c0,0-.2,1.1-.2,1.1l-.2.6h-.2v.8c0,0,1.1,0,1.1,0l1.2.2v.2c0,0-.9,0-.9,0h-.4c0,0,0,0,0,0h-1c0,0,.4,0,.4,0h.5c0,0,0,.3,0,.3h-.8c0,0-1.7.6-1.7.6l-1.4.6-1,.6-1.1.8-.9,1.1-.7,1.5-.3,1.1-.2,1v1.1c0,0,0,6.7,0,6.7l.2,2.8.2,1.1.3,1.4.5,1.3.4.7.6.7.7.7,1.1.7,1.1.4.7.2h2.3c0,0,.2.2.2.2h.5c0,0,0,0,0,0h.8c0,0,1.3-.4,1.3-.4l.7-.2.3-.3h.4v-.2h.3c0,0,0,0,0,0h.4c0,0,0-.3,0-.3h.3c0,0,.2-.3.2-.3l.3.2-.7.6-1.4.8-1.2.5-1.7.4-1.7.2.3.9.2,1.3v1.2h1.3c0,0-2.3,0-2.3,0l-2-.2-1.5-.4-1.6-.7-1.1-.7-.9-.7-.8-.7-.9-.9-.8-1.1-.9-1.7-.5-1.5-.3-1.6-.2-2.3v-1.4c0,0,0-5.8,0-5.8v-2c0,0,.4-2.7.4-2.7l.4-1.5.5-1.3.7-1.4,1-1.3,1.1-1.1,1-.7,1.7-1,1.3-.6,1.5-.4,1.5-.2Z"/>
  <path class="st59" d="M14.9,65.2h1.5c0,0,0,24,0,24h.4c0,0-.4.4-.4.4l-.9.7-1.1,1-.9.7-1.3,1.2-.7.7-.6.7-.6.5-.7.3h-.5v-23.5c0,0,.2-2.4.2-2.4l.2-.4.8-.7.8-.7,1.1-.8,2.4-1.5.2-.2Z"/>
  <path class="st58" d="M39.1,96.7h0l.2,4.6v9.8c0,0,0,11.6,0,11.6l-.6.6-.8.7-1.1.8-1.4,1-1.3.7h-1.9c0,0,0-.7,0-.7v-22.7c0,0,1.1-1.1,1.1-1.1l2.1-2.1.7-.6,1.1-1.1.9-.7.9-.4v-.3Z"/>
  <path class="st174" d="M42.6,131.7h1.5l2,.4,1.5.5,1.3.7,1.1.7.8.7,1.5,1.5.7,1.1.8,1.5.5,1.4.3,1.3.2,1.8.2,2.9v4.7l-.2,3.1-.2,2-.3,1.5-.6,1.6-.7,1.2-1,1.3-.7.8-1.1.9-1.2.8-1.7.8-2,.6-.9.2h-1.9v-.2c0,0-.2-1.3-.2-1.3l-.2-1.1-.2-.7v-.2c0,0,0,0,0,0l2.1-.3,1.5-.4,1.3-.6,1.3-.8.8-.8.9-1.4.4-1,.3-1.2.2-1.2.2-2.6v-6.6l-.2-2.4-.2-1.3-.2-.8-.6-1-.5-.9-.9-1-1.2-.9-1.2-.7-1.3-.5-1.4-.3h-.4c0,0-1.1-.2-1.1-.2v-.4c0,0,0-.5,0-.5h.2v-.4c0,0,.3-.7.3-.7l.2-.7v-.7Z"/>
  <path class="st174" d="M24.9,132.2h1.4v32.9c0,0,0,0,0,0h-1.5l-.8-.6h-.2v-.2l-.4-.2h0c0,0-.6-.2-.6-.2v-.2h-.7c0,0,.2,0,.2,0v-25.9c0,0,.2-3.5.2-3.5l.3-.7.7-.7,1.1-.8h.2Z"/>
  <path class="st105" d="M141.7,65.3h0v13.2h0v-1.5h-.2l-.9-1.4-.7-1-1.3-1.3-.8-.5h-.3c0,0-14.4-.2-14.4-.2l-.2,5.9v11.8c0,0,0,31.8,0,31.8v.3c0,0,.4.2.4.2v.2h.2l.6.7,1.1.8.5.4.5.2v.2h.2v.2h.2v.2h.3c0,0,.7.5.7.5l.7.2.2.2h-11.1l.3-.2,1.2-.7.9-.7.6-.5h.2l.2-.3.6-.6h.2l.2-.3.6-.8v-3.7c0,0,0-6.9,0-6.9v-3.5c0,0,0-2.4,0-2.4v-5.5c0,0,0-3.5,0-3.5h0c0,0,0-2.2,0-2.2v-1h.2v-1.6c0,0,0-6,0-6v-.7c0,0,0-2,0-2h-.2c0,0,0-.6,0-.6h-.2v-.3h.2v-.5c0,0-.2-.3-.2-.3v-.9c0,0,0-1.2,0-1.2v-.4c0,0,0-1.2,0-1.2v-2c0,0,0-.2,0-.2l.2-.5-.2-.6v-1.9c0,0-.4,0-.4,0h-14.1c0,0-.8.4-.8.4l-.8.7-.4.4-.9,1-1,1.5-.4.8h0v-11.9h.2v2l.6.2v.3c0,0,.5.6.5.6v.2l.3.2.8.8.6.7.6.6.8.4,1.1.2h.6c0,0,0-.2,0-.2l4.5.2h1.8c0,0,1.8.4,1.8.4v.2c0,0,.9,0,.9,0v-.2c0,0,0,0,0,0l.5-.2,1.3-.2h3.1c0,0,.3,0,.3,0v.2h.3v-.2h2.9c0,0,4.2,0,4.2,0h.7c0,0,.8,0,.8,0h.4c0,0,.7.3.7.3h1.1c0,0,1.5-.2,1.5-.2l1.2-.3.9-.6,1.3-1,.8-.7.5-.7.2-.4.4-.7.2-.9v-1.1c0,0,.2-.2.2-.2Z"/>
  <path class="st174" d="M140,131.9h1.3v.2c0,0-.8,1.9-.8,1.9l-1.3,2.9-1.2,2.7-1.3,2.9-1.1,2.3-1.3,2.8-1.4,2.9-.7,1.7-.2.5v1.2c0,0,0,11.3,0,11.3h-.2c0,0-1.2,0-1.2,0l-1.7-1.1-.7-.5-.2-.2v-10.5c0,0,.4-1.1.4-1.1l1.1-2.4.8-1.9,1.3-2.9.9-1.8.7-1.4.7-1.3,1.1-2.4,1.1-2.3.7-1.2.7-1,.8-.6,1.2-.5.7-.2Z"/>
  <path class="st153" d="M45.6,65.1h1.1c0,0-.8.2-.8.2l-1.4.9-1.2.8-1.1.7-1.2,1.1-.5.4v.4c0,0-.2,9-.2,9v44c0,0,1.2.9,1.2.9l1.1.8,1.1.7v.2h.4v.2l.5.2v.2h.4v.2l.9.2h.2c0,0,1.1.2,1.1.2h0c0,0-14.7,0-14.7,0h0c0,0,1.7-.2,1.7-.2l1.5-.8,2.3-1.6,1.1-1,.2-.2v-21.4c0,0-.2-5.1-.2-5.1h-.4c0,0-2.7.2-2.7.2H13.9c0,0-4.6-.2-4.6-.2v-.2l.7-.2.2-.6h14.4c0,0,3.7,0,3.7,0h.4c0,0,3.6,0,3.6,0l5.6-.2h1.3c0,0,.2-12.1.2-12.1v-9.9l-.2-3.3-.3-1.2-.4-.7-.7-.5-.7-.3-.9-.5-.7-.5v-.7c0,0-2.7,0-2.7,0h0c0,0,13.1-.2,13.1-.2Z"/>
  <path class="st174" d="M41.8,136h.8l.2,1.6.3,1.3v.2l-1.7.2-1,.4-.7.5-.6.9-.4,1-.2,1-.2,1.7-.2,2.5v4.9c0,0,.3,1.8.3,1.8l.3,1.2.6,1.1,1,1,1.1.4,1.4.2v.7c0,0-.4.3-.4.3v.9c0,0,.2.3.2.3v.7h-2.3l-1.4-.4-1.2-.7-.9-.7-.6-.7-.5-.8-.5-1.2-.3-1.3-.2-.7-.2-2.3v-2c0,0,0-6,0-6v-1.1c0,0,.3-1.2.3-1.2l.4-1.3.7-1.2,1-1.1,1-.7,1.1-.7,1.2-.5,1.1-.3h.4Z"/>
  <path class="st70" d="M81.3,132.1h1.7l-.3.2-.7.7-.8.6h-.2v.2l-.2.2h-.2l-.2,1.2v3.1c0,0,0,3.1,0,3.1v2.1c0,0,.2,2.6.2,2.6v4.6c0,0,.2,5,.2,5v3c0,0,0,3.5,0,3.5h-.3l-.3-1.2-.2-1.1-.3-1.1-.3-1.3-.5-1.3-.7-1.7-.8-2.4-.9-2.4-.3-.8v-.2c0,0,.2.2.2.2v-1.8c0,0,0-9.1,0-9.1v-5.4c0,0,.2-.2.2-.2h5.1Z"/>
  <path class="st56" d="M76.2,71.4h2.4l2.4.4,2.7.9,1.7.7,1.5.8,1.3,1,1,.9.6.7.8,1.1,1,1.7.7,1.8.4,1.8.2,1.6.2,2.4.2,3.1v2.4c0,0,0,7.2,0,7.2l-.2,4.3-.3,3.1-.4,2-.5,1.6-.6,1.4-.7,1.3-.7,1-1.2,1.3-1.1,1-1.5,1-1.4.7-2,.7-2.3.6-1.3.2h-.8c0,0-1.7,0-1.7,0h-1.1c0,0-.7-.2-.7-.2l-.6-.2-1.4-.3-1.2-.4-.5-.2-.8-.2v-.2l-.7-.2-1.6-1v-.2l-.3-.2-.6-.4v-.2l-.3-.2-.8-.7-1-1-.8-1.1-.7-1.1-.4-1.1-.3-1h0c0,0-.2-1.3-.2-1.3l-.3-1.5-.2-1.1-.2-1.5v-1.3c0,0,0-11.3,0-11.3l.2-4.2.2-2.7.2-1.6.4-1.6.4-1.1h.2v-.4c0,0,.2-.5.2-.5l.3-.7.6-.9.7-.9.3-.6,1.1-1.2.7-.7,1.8-1.1.7-.4.7-.2,1.1-.4.8-.4,1.7-.6,1.4-.3,1.1-.2ZM77,72.3l-1.7.2-1.6.3-1,.2-1.1.3-1,.4-1.6.8-1.6,1.1-1.1.8-.9.9-.8,1.1-.7,1.1-.7,1.8-.3,1.2-.3,1.9-.2,2.2-.2,2.2v2.5c0,0,0,9.9,0,9.9l.2,3.1.2,2.1.2,1.5.5,1.7.7,1.7.7,1.3.6.9,1,1.1.9.8,1.1.7.8.5,1.7.9.9.4,2,.7,1.7.3h0c0,0,.7.2.7.2h1.8l2.1-.2,1.6-.3,1.7-.6.7-.3,1.3-.6.7-.4.8-.6.4-.4,1.2-1.1.7-.7v-.2h.2l.6-.7.6-.8.5-1,.7-1.6.2-.9.3-1.6.2-1.7v-1.1c0,0,0-1.9,0-1.9v-.4c0,0,.2-3.1.2-3.1v-10.1l-.3-2.5-.4-2.4-.3-1.4-.2-.9-.5-1.5-.3-.7-.7-1.4-.8-1.1-1.5-1.5-.9-.7-1.7-1-2-.8-2-.6-1.6-.2-2.1-.2Z"/>
  <path class="st174" d="M62.6,135.5h.3c0,0,.7,1.6.7,1.6l.8,1.6.7,1.1.8,1.2.4.7v.2h-.2v.2h-.4l-.6-.2.2,1,1.2,3.9.5,1.5v.2h-.2c0,0,0,2,0,2v14.5c0,0,0,0,0,0h-1.1l-1.2-.7-1.5-.6h0c0,0,0-14.3,0-14.3v-4.6c0,0-.2-7.2-.2-7.2v-1.1c0,0-.2-.3-.2-.3v-.9Z"/>
  <path class="st174" d="M6.7,149.1h14.6v1.1l-.2.2v.3h-.2v.2c0,0-.8,0-.8,0l-.2.2h-.2v.2h-.2v.2l-.7.6-.3.5-.2.5h0v-.8h-8.7v.3c0,0,0,12.5,0,12.5h0c0,0-1.1,0-1.1,0l-.4-.2v-.2h-.3c0,0-1.8-1-1.8-1h0v-12.8c0,0,.2-1.8.2-1.8h.8Z"/>
  <path class="st30" d="M1.5,65.2h13.4l-.2.2-1.9,1.2-1.3.9-1.4,1.1-.6.5v.3c0,0-.2,2.4-.2,2.4v1.1c0,0-.2,5.9-.2,5.9v26.3c0,0,0,3.1,0,3.1v6.2c0,0,0,8.1,0,8.1l.4.2.8.7.7.6,1.5,1.1,1.5,1,.7.4h0c0,0-11.4,0-11.4,0l.4-.3,1.1-.7,1.1-.7.7-.6,1.1-1,.5-.6v-7.1c0,0,0-43.8,0-43.8l-.2-2.1-.6-1-.4-.6v-.2l-.3-.2-.7-.6-.9-.6-.7-.7v-.5H1.5Z"/>
  <path class="st4" d="M108.5,72.6h13.4v.3c0,0-.4,0-.4,0l-.5.3-.9.8-.4.4-1.2,1.1-.8.7-.7.6-.8.7-.8.7-.3.2h-1.1c0,0-4.6.2-4.6.2h-6.1l-.2-.2v-.3c0,0,0-.9,0-.9l.6-1.1.8-1.1.8-.9.3-.4.7-.6.8-.5h.3c0,0,1.1-.2,1.1-.2Z"/>
  <path class="st151" d="M24.1,132.1h2.1c0,0-1.3.2-1.3.2l-.7.3-1.4,1.1-.3.7-.2,3.5v21.9c0,0-.2,4.1-.2,4.1h.6v.2h.6l.5.3v.2l.4.2.6.4h0c0,0-1.5.2-1.5.2h-5.1v-.2c0,0-.2-1.4-.2-1.4v-11.3h0v.5c0,0,.6-.8.6-.8l.3-.3h.2v-.2h.2v-.2l.2-.2h.2v-.2h.9c0,0,0-.2,0-.2h.2l.2-.8v-.7H6.9l-.3-.2,1.5-.2h1.9c0,0,.7,0,.7,0h.5c0,0,.7,0,.7,0h.2c0,0,0,0,0,0h.4c0,0,.9,0,.9,0h1.5c0,0,.2.2.2.2v-.2c0,0,0,.2,0,.2h.7c0,0,.8-.2.8-.2h4.2c0,0,.5,0,.5,0h.2c0,0,0-3.3,0-3.3v-2.2c0,0,0-9.5,0-9.5v-.6c0,0-.7-.2-.7-.2l-.7-.2v-.2h-.8v-.2h4.6Z"/>
  <path class="st174" d="M94.4,136.3h15.6c0,0,.2.3.2.3l.5.2.3.3v.7h.4v.4c0,0,0,.8,0,.8v.2c0,0-.5.2-.5.2h-13.5v5.1c0,0,0,.2,0,.2l-.5.7-.8.7-1.1.8-1.1.8h-.3c0,0,0-7,0-7v-3.1c0,0,.2-1.3.2-1.3l.5-.2Z"/>
  <path class="st70" d="M58.8,132.3h0v2.1c0,0,.3.8.3.8v.2c0,0,0,0,0,0v.7h0c0,0,.2-.2.2-.2h.2v.2h.2v.7h.2v-.3c0,0-.2-.3-.2-.3v-.4c0,0,0,0,0,0v-.3h-.2c0,0,0-.5,0-.5h.2c0,0,0-.6,0-.6h.2c0,0,.2.2.2.2h.3v-.4l.4-.2.2.2v.4c0,0,0,0,0,0h.2c0,0,0,.4,0,.4l-.5.2v.7c0,0-.2.2-.2.2v.2c0,0-.3-.2-.3-.2l.2.4-.2.4h.2c0,0-.2.2-.2.2v.2c0,0,0,.2,0,.2h.3c0,0,0,0,0,0h-.2v.6c0,0-.2,0-.2,0v.5c0,0,.2.7.2.7h.2c0,0,0,1.6,0,1.6h.2v.9c0,0-.2,0-.2,0v-.2c0,0-.2.8-.2.8h.2l.2.2v1.5l.2.8-.2,1.1v.3c0,0,.2.4.2.4h-.2l.2.8v.7c0,0,0,.3,0,.3h.2c0,0,0,1.2,0,1.2h.2v.6c0,0,.2.3.2.3l-.2.4h.2v.6c0,0,0,0,0,0l-.2.3v.2c0,0,0,.2,0,.2v.2c0,0,.2,0,.2,0h-.2v.9c0,0,.2,0,.2,0v.5l-.2.3v1.1c0,0,0,0,0,0h-.2v.8c0,0,0,0,0,0v1.1c0,0,0,1,0,1l-.2.4-.2.8v.5c0,0,.3,0,.3,0v.7c0,0,0,.9,0,.9v.7c0,0,0,.4,0,.4l-.2,1.1h0c0,0,.6,0,.6,0v-.4h.2v.7l-1.2.2-1.5.5h-.9v-.3c0,0,0-32.5,0-32.5Z"/>
  <path class="st58" d="M65.5,140.5h.2v.2h.2l.7,1h.2c0,0,.3.7.3.7l.3.6.7,1.1.3.4.5,1,.6.8.5.9.3.5h.2c0,0,0,.6,0,.6h.2l.3.5.2.4.2.3.3.6.4.7.4.7.5.8.2.5h.2c0,0,.5.8.5.8l.4.7.7,1.1,1.8,2.7,1.5,2.3.8,1.2.5.8.2.2h-.2l-.2.3-.2.7-1.1,1.5h-.2c0,0-.4-.3-.4-.3l-1-1.5-.6-.8-.8-1.3-.9-1.4-1.1-1.7-.9-1.4-1-1.5-1.3-2-1-1.6-1.1-1.7-.7-1v-.4c0,0-1.3-3.8-1.3-3.8l-.7-2.4v-.2c0,0,.7.2.7.2h.5c0,0-.5-.9-.5-.9l-.3-.5v-.2Z"/>
  <path class="st174" d="M107.3,148.7h.6l.2.7h-.2l-.6.2-.3.2-.3.5h-.8l-.7.3-.5.3v.5c0,0,0,0,0,0v.3c0,0-.2,0-.2,0v.2l-.7.2h-6.2v6.1l-1.1,1.1-1.1.9-1,.7-.5.2h0v-12.2h13.5Z"/>
  <path class="st40" d="M42.6,136h1c0,0,.3.2.3.2l1.5.4.7.2v.2l.3.2.4.2.7.7.4.2.6.7.7,1,.5,1.5.3,1.7v1.8c0,0,.2,1.1.2,1.1v.7c0,0,0,0,0,0v.3c0,0,0,.6,0,.6v1.1h-.2l.2.3v2c0,0-.2.2-.2.2v1.9c0,0-.2.3-.2.3l-.5,2.4-.2.2h-.2v-.8c0,0,0-.7,0-.7l-.2-.2v-1.1h-.2c0,0,0-.7,0-.7v-.4c0,0,0-.2,0-.2v-.2h.2v-.4h-.2v-1.1h-.6c0,0-.3,0-.3,0v.5c0,0,0,.2,0,.2v.4h.3v.6c0,0-.2,0-.2,0l-.2.2v.4c0,0-.3.2-.3.2h-.2c0,0,0,.5,0,.5l-.2.2v-.2h-.2c0,0,0,0,0,0h-.2v-.2c0,0,0-2,0-2v-5.2l-.2-2.4-.3-1.5-.6-1.3-.7-.8-.7-.5-.7-.2h-1v-.2h.7l-.3-1.1-.2-1.4v-.7Z"/>
  <path class="st59" d="M106.8,162h3.3l.6.7.6,1.1.3.8v.3h-.6c0,0-16.2.2-16.2.2h-4.4v-.2c0,0,.7-1.1.7-1.1l.6-.9.4-.6h.2c0,0,1.7-.2,1.7-.2h3.4c0,0,9.5-.2,9.5-.2Z"/>
  <path class="st174" d="M121,132h1.1l.4.4.7,1.3,1.4,3.1,1.3,2.9.9,2,.5,1.2.4.5h.3l-.2,1.4-.2,1v2c0,0,0,.7,0,.7l.2,1.1.2.2h.2c0,0,0,.4,0,.4l-.5,1.2-.2.2-.2-.4-.4-.9-.5-1.5-1.5-3-.9-1.9-.7-1.2-.7-1.3-1.1-2.3-.7-1.5-.6-1.2-.7-1.3-.7-1.1.2-.3.8-.5.5-.2h.2l.2-.4.2-.5Z"/>
  <path class="st70" d="M133.3,132.1h2.1l.2.4h.7l.2-.4h.7l-.3.3-.6.4-.5.8-.7,1.5-.4.8-.7,1.6-1.2,2.4-.7,1.5-.3.5-.7,1.5-.7,1.4-.4.9-.6,1.2v.3h-.2l-.2.8-.7,1.3-.2.5-.2-.2h-.2c0,0,0,0,0,0h-.2c0,0-.2-1.6-.2-1.6v-.3c0,0,0-2,0-2l.2-1.5.2-.8.2-.3.7-1.5.8-1.9.6-1.1,1.1-2.3,1.5-3,.6-1.1h0Z"/>
  <path class="st174" d="M8.2,132.2h1.3v13h.3c0,0-.6.7-.6.7l-1,.7-.4.4-.9.7h-.2c0,0-.2.4-.2.4h-.6c0,0,0-.2,0-.2l.2-13.8.5-.6.8-.6.6-.5h.2v-.2Z"/>
  <path class="st41" d="M122.6,75.1l.2.2v.9c0,0,0,4.6,0,4.6v2.7c0,0,0,6.5,0,6.5v5.5c0,0,.2,26.5.2,26.5v.3c0,0,.4.2.4.2v.2h.2l.6.7,1.1.8.5.4.5.2v.2h.2v.2h.2v.2h.3c0,0,.7.5.7.5l.7.2.2.2h-11.1l.3-.2,1.2-.7.9-.7.6-.5h.2l.2-.3.6-.6h.2l.2-.3.6-.8v-3.7c0,0,0-6.9,0-6.9v-3.5c0,0,0-2.4,0-2.4v-5.5c0,0,0-3.5,0-3.5h0c0,0,0-2.2,0-2.2v-1c0,0,.2,0,.2,0v2.7c0,0,0-.2,0-.2v-7c0,0,0-5.2,0-5.2v-.5c0,0,0-.3,0-.3v-5.7c0,0,0-.4,0-.4l.2-.8h-.2c0,0,0-.5,0-.5v-.5Z"/>
  <path class="st116" d="M122.3,19.2h.8l.9.3.7.5.7.8.5,1,.3,1.1v.7c0,0,0,1.7,0,1.7l-.2,1.2-.5,1.4-.5.8-.4.4h-.3c0,0-.2-.6-.2-.6l.2-.9.3-1.2v-.5c0,0-.3-.4-.3-.4l-.7-.4-1.7-.5-1.1-.6-.7-.6-.5-.8-.2-.4v-.7c0,0,.4-.7.4-.7l.5-.7.9-.7,1-.4Z"/>
  <path class="st110" d="M76.8,23.3h1.2l.8.2.8.3.4.3.3.5v.2c0,0,0,.6,0,.6l-.7,1.3-.7,1-.7.9-.8.6-.8.3-.9.2h-1.4c0,0-.9-.4-.9-.4l-.7-.6v-.2c0,0,0-1.3,0-1.3l.4-1,.9-1.4.7-.7.9-.6.6-.2h.5Z"/>
  <path class="st60" d="M139.1,131.9h1l-.2.2-1,.3-1,.4-.7.5-1,1.6-1.2,2.5-1.1,2.3-.7,1.5-.7,1.2-.9,1.9-1.1,2.4-.9,2-1.4,3.3-.2.7v10.6c0,0,.3.3.3.3l2.1,1.3h0c0,0-3.5.2-3.5.2h-3.2c0,0,1-.2,1-.2l1.9-.6.5-.4h.2v-.4c0,0,0-11.4,0-11.4l.4-1.5.3-.8h.2v-.5c0,0,.7-1.3.7-1.3l.2-.8h.2v-.6c0,0,.6-1,.6-1l.5-1.1,1.1-2.3,1-2,.7-1.4.6-1.1.9-2,.9-1.9.6-1.1.4-.4.6-.5h-.6c0,0-.2.3-.2.3h0c0,0-.7,0-.7,0l-.2-.4h-.7v-.2h4.2Z"/>
  <path class="st94" d="M45.6,65.1h1.1c0,0-.8.2-.8.2l-1.4.9-1.2.8-1.1.7-1.2,1.1-.5.4v.4c0,0-.2,3.9-.2,3.9h0c0,0,0,2.9,0,2.9h-.2v-2.6c0,0,0-.2,0-.2v-.3c0,0-.3.5-.3.5v1.7c0,0-.2,3.8-.2,3.8h0v-2c0,0,0-4,0-4l-.2-3.3-.3-1.2-.4-.7-.7-.5-.7-.3-.9-.5-.7-.5v-.7c0,0-2.7,0-2.7,0h0c0,0,13.1-.2,13.1-.2Z"/>
  <path class="st170" d="M39.2,90.1h0v.4c0,0,.2,3.7.2,3.7v.4c0,0-.2,1.1-.2,1.1v.5c0,0,0,.5,0,.5h0v-.4h-.4c0,0-2.7.2-2.7.2H13.9c0,0-4.6-.2-4.6-.2v-.2l.7-.2.2-.6h14.4c0,0,3.7,0,3.7,0h.4c0,0,3.6,0,3.6,0l5.6-.2h1.3c0,0,0-5.1,0-5.1Z"/>
  <path class="st71" d="M62.4,134.6l.5.4.7,1.2.2.2-.6-1.1v-.5h.2c0,0,1.2,2.4,1.2,2.4l1,1.7,1.1,1.6,1,1.6,1.4,2.3,1.4,2.1,1,1.5,1.1,1.8.8,1.3,1.1,1.7.8,1.3.7,1.1,1.1,1.6.8,1.3,1,1.5.7,1.1.6,1.2v.3c0,0-.4,0-.4,0l-.4-.4-.7-1.2-.7-.9-3.1-4.6-.7-1.1-.4-.7-.5-.7-.2-.2-.4-.7-.6-.9-.4-.8-.3-.4-.2-.5-.2-.2-.2-.5v-.2h-.2v-.5c0,0-.3,0-.3,0l-.7-1.1-.4-.7-.7-1.1-.2-.4-.8-1.3-.2-.4-.3-.6v-.2h-.2c0,0-.6-.9-.6-.9v-.2h-.2l-.5-.6-.7-1.1-.5-.8-.4-1-.7-1.2-.3-.8-.2-.4v-.2Z"/>
  <path class="st94" d="M1.5,65.2h13.4l-.2.2-1.9,1.2-1.3.9-1.4,1.1-.6.5v.3c0,0-.2,2.4-.2,2.4v1.1c0,0-.2,2.3-.2,2.3h0v-4.8h-.3c0,0-.2.7-.2.7h-.2v2.4c0,0,0,17.5,0,17.5h0v-19.3c0,0-.3-2.1-.3-2.1l-.6-1-.4-.6v-.2l-.3-.2-.7-.6-.9-.6-.7-.7v-.5H1.5Z"/>
  <path class="st170" d="M24.1,132.1h2.1c0,0-1.3.2-1.3.2l-.7.3-1.4,1.1-.3.7h-.2v1.7c0,0-.2.9-.2.9v20.7h-.2v1.1c0,0,0,.7,0,.7h-.2v.4c0,0,0,.6,0,.6v.5c0,0,0,.2,0,.2h-.2v1.8l-.2-.2-.2-.9v-3.2c0,0,0,0,0,0v-9.5c0,0-14.5,0-14.5,0l-.3-.2,1.5-.2h1.9c0,0,.7,0,.7,0h.5c0,0,.7,0,.7,0h.2c0,0,0,0,0,0h.4c0,0,.9,0,.9,0h1.5c0,0,.2.2.2.2v-.2c0,0,0,.2,0,.2h.7c0,0,.8-.2.8-.2h4.2c0,0,.5,0,.5,0h.2c0,0,0-3.3,0-3.3v-2.2c0,0,0-9.5,0-9.5v-.6c0,0-.7-.2-.7-.2l-.7-.2v-.2h-.8v-.2h4.6Z"/>
  <path class="st145" d="M92.4,106.7h.2v1.5c0,0-.5,1.8-.5,1.8l-.6,1.6-.7,1.3-.6,1-.7.8-1.1,1.2-1.1,1-1.5,1-1.4.7-2,.7-2.3.6-1.3.2h-.8c0,0-1.7,0-1.7,0h-1.1c0,0-.7-.2-.7-.2l-.6-.2-1.4-.3-1.2-.4-.5-.2-.8-.2v-.2l-.7-.2-1.6-1v-.2l-.3-.2-.6-.4v-.2l-.3-.2-.8-.7-1-1-.8-1.1-.7-1.1-.4-1.1-.3-1h0c0,0-.2-1.3-.2-1.3l-.2-.7v-.3c0,0,.5,1.4.5,1.4l.2.5.6,1.5.2.7.5,1,.8,1.2.3.3-.4-.7-.7-1.1-.6-1.3-.4-1.1v-.3c0,0-.6-1.8-.6-1.8v-.4l.2.2v.7h.2l.5,1.6.7,1.6.7,1.3.7,1.1.9,1,.9.7.8.6.8.5,1.7.9.9.4,2,.7,1.7.3h0c0,0,.7.2.7.2h1.8l2.1-.2,1.6-.3,1.7-.6.7-.3.5-.2h0c0,0,.7,0,.7,0l1.3-.6.9-.7h.3c0,0,.2-.4.2-.4l.5-.4h.2l.2-.3.2-.2h.2l.2-.3,1.1-1.1h.2v-.4c0,0,.2-.4.2-.4h.2v-.7c0,0,.5-.8.5-.8v-.4c0,0,.2.2.2.2h.2v-.3h-.2c0,0,.2-.5.2-.5v-.3c0,0,.2-.7.2-.7h.2v-.8h.2v-1.5c0,0,.2-.2.2-.2Z"/>
  <path class="st46" d="M141.7,65.3h0v13.2h0v-1.5h-.2l-.9-1.4-.7-1-1.3-1.3-.8-.5-.6-.2h-2.9c0,0-.2-.2-.2-.2l.5-.2h.2v-.2l1.1-.2,1.2-.3.9-.6,1.3-1,.8-.7.5-.7.2-.4.4-.7.2-.9v-1.1c0,0,.2-.2.2-.2Z"/>
  <path class="st72" d="M143.7,157h1l1.1.2.7.3.8.7.6.8.4,1.1v.3c0,0,0,1.4,0,1.4l-.2.7-.5.9-.7.8-.7.6-.9.4-.7.2h-1.2l-.8-.2-.9-.6-.7-.7-.6-.9-.3-.8v-1.7l.2-.8.5-.9.8-.9.9-.6.6-.2h.7ZM143.7,157.8l-.9.3-.7.5-.5.6-.4.8-.2.6v1.1l.3.8.5.7.7.7.7.3h.3c0,0,1,0,1,0l.9-.3.7-.5.4-.3.5-.7.2-.5v-.6c0,0,0-.7,0-.7l-.2-.9-.4-.7-.6-.6-.7-.4-.9-.2h-.8Z"/>
  <path class="st46" d="M103,65.6h0v2l.6.2v.3c0,0,.5.6.5.6v.2l.3.2.8.8.6.7.6.6.8.4,1.4.3h0c0,0,.6.2.6.2l.6.3.3.2h0c0,0-2.8.3-2.8.3l-.8.3-.8.7-.4.4-.9,1-1,1.5-.4.8h0v-11.9Z"/>
  <path class="st125" d="M8.5,122.2h.5l.9.7.8.8,1.1.8,1.1.7,1.6,1,.2.2H3.3l.4-.3,1.1-.7,1.1-.7.7-.6,1.1-1,.5-.6.3-.2Z"/>
  <path class="st91" d="M39.8,122.6h.5l1.1.9,1.1.8,1.1.7v.2h.4v.2l.5.2v.2h.4v.2l.9.2h.2c0,0,1.1.2,1.1.2h0c0,0-14.7,0-14.7,0h0c0,0,1.7-.2,1.7-.2l1.5-.8,2.3-1.6,1.1-1,.2-.2.5-.2Z"/>
  <path class="st125" d="M122.3,121.9h.4l.2.6.3.2v.2h.2l.6.7,1.1.8.5.4.5.2v.2h.2v.2h.2v.2h.3c0,0,.7.5.7.5l.7.2.2.2h-11.1l.3-.2,1.2-.7.9-.7.6-.5h.2l.2-.3.6-.6h.2l.2-.3.8-1.1Z"/>
  <path class="st175" d="M62.8,80.8v.3c0,0-.3,1.3-.3,1.3l-.2,1.2h.2l.3-1.4h0v.8c0,0-.4,2.1-.4,2.1l-.2,2.5v1.2c0,0-.2,2.5-.2,2.5v9.9l.2,3.1.2,2.1.2,1.5v.3c0,0-.2-.7-.2-.7l.2.9.3,1.3.8,2,.8,1.5.4.6v.3c0,0-.2,0-.2,0l-.8-1.1-.7-1.1-.2-.4-.2-.7-.5-1.3-.2-.5-.3-1.1v-.2h-.2l-.3-1.5-.2-1.5v-1.3c0,0,0-11.3,0-11.3l.2-4.2.2-2.7.2-1.6.4-1.6.4-1.1Z"/>
  <path class="st128" d="M62.5,137.4l.2.2v2c0,0,0,2.9,0,2.9l.2,5.3v1.8c0,0,.2,14.2.2,14.2l1.6.7,1.1.6h0c0,0-2.1.2-2.1.2h-4.8c0,0,.9-.2.9-.2l1.5-.5h.6c0,0,.7,0,.7,0v-7.5c0,0,0-1.8,0-1.8v-1.8c0,0,0-1.5,0-1.5v-3.8c0,0,0-10.4,0-10.4v-.2Z"/>
  <path class="st132" d="M65.5,140.5h.2v.2h.2l.7,1h.2c0,0,.3.7.3.7l.3.6.7,1.1.3.4.5,1,.6.8.5.9.3.5h.2c0,0,0,.6,0,.6h.2l.3.5.2.4.2.3.3.6.4.7.4.7.5.8.2.5h.2c0,0,.5.8.5.8l.4.7.7,1.1,1.1,1.6v.4c0,0,0,.2,0,.2l-.3-.2-.2-.8h-.2c0,0-.3-.6-.3-.6h-.2l-.2-.4h-.2v-.2l-.3-.2v-.2h-.2v-.5h-.2l-.2-.2v-.2l-.3-.2-.2-.3v-.2l-.4-.2-.2-.5h-.2v-.2h-.2v-.4c0,0-.3,0-.3,0v-.2c0,0-.2,0-.2,0v-.3h-.2l-.2-.7-.2-.2v-.2h-.2v-.2h-.2v-.2h-.2v-.3h-.2v-.2h-.2v-.3h-.2c0,0,0-.3,0-.3l-.2-.2v-.2c0,0,0,0,0,0l-.2-.2v-.3h-.2l-.2-.5v-.2h-.2c0,0,0-.5,0-.5h-.2v-.3c0,0-.2,0-.2,0l-.2-.6v-.2l-.3-.2-.4-.4v-.3c0,0-.3,0-.3,0l-.6-.7-.2-.5v-.2l-.4.2-.2-1h.2c0,0,.6.2.6.2h.5c0,0-.5-.9-.5-.9l-.3-.5v-.2Z"/>
  <path class="st85" d="M93,88.4h0l.2,4.3v7.2l-.2,4.3-.3,3.1v.5h-.2v-1h-.2v.4c0,0-.2,1-.2,1v.2h-.2v.8c0,0-.2.2-.2.2v.7c0,0-.2.2-.2.2v.7h-.2l-.3.7v.2h-.2c0,0-.2.9-.2.9l-.3.7-.7.6-1.5,1.5-.6.5v.2c0,0-.5.2-.5.2l-1,.7-1.4.6h-.6l.2-.2,1.2-.7.7-.6h.2v-.2c0,0,1-.7,1-.7l1.3-1.3v-.2h.2l.2-.3.7-.7.7-1.1.7-1.6.2-.9v-.4c0,0,.4-1.5.4-1.5l.2-1.7.2-2.9v-2.4c0,0,.2-5.2.2-5.2h0v2.5c0,0,0,.2,0,.2h.2c0,0,0,.3,0,.3v.6c0,0,.2-.6.2-.6v-.6c0,0,0-.4,0-.4v-8.8Z"/>
  <path class="st36" d="M109.4,145.1h0v6.6c0,0,0,.2,0,.2h-2.3c0,0-5.3,0-5.3,0h0c0,0,2-.2,2-.2h.7v-.2h.2v-.2h-.2v-.2c0,0,.2-.4.2-.4l.4-.2.7-.3h.8l.4-.6.8-.2v-.2c0,0,0-.2,0-.2v-.6l.3-.4,1.1-2.5v-.2Z"/>
  <path class="st156" d="M21.5,145.2h0l.2,1.5v2.1c0,0,0,.2,0,.2v.6l.2.6.2.2v.4c0,0,0,6.8,0,6.8v.2h-.2v1.1c0,0,0,.7,0,.7h-.2v.4c0,0,0,.6,0,.6v.5c0,0,0,.2,0,.2h-.2v1.8l-.2-.2-.2-.9v-3.2c0,0,0,0,0,0v-9.5c0,0-14.5,0-14.5,0l-.3-.2,1.5-.2h1.9c0,0,.7,0,.7,0h.5c0,0,.7,0,.7,0h.2c0,0,0,0,0,0h.4c0,0,.9,0,.9,0h1.5c0,0,.2.2.2.2v-.2c0,0,0,.2,0,.2h.7c0,0,.8-.2.8-.2h4.2c0,0,.5,0,.5,0h.2c0,0,0-3.3,0-3.3Z"/>
  <path class="st34" d="M120.3,131.9h1.1c0,0-.4,0-.4,0v.5c0,0-.3.4-.3.4l-1.2.7-.3.2.2.4.9,1.7.7,1.4.9,1.9,1.3,2.8.8,1.5.2.5v.3c0,0-.7-1.1-.7-1.1l-.2-.5v.2c0,0,0,.5,0,.5l.3.7.7,1.4.5,1.1.4.9v.3c0,0,0,0,0,0v-.2h-.2l-.8-1.8-.7-1.2-.2-.5v-.3h-.2l-.4-1-.8-1.7-.7-1.5-1.1-2.4-1.1-2.1-.5-1.1-.7-1.1-.2-.2v-.2h.4v-.2h-2.9c0,0,5.2-.2,5.2-.2Z"/>
  <path class="st104" d="M90,78.8h.7c0,0,.2.3.2.3h.2l.5,1.1.5,1.5.4,2,.3,2.7v.8c0,0,0,10.4,0,10.4v.2c0,0,0,.5,0,.5v.7c0,0-.2,0-.2,0v-.7c0,0,0-.3,0-.3v2.3c0,0,0,1.1,0,1.1l-.2,2.7h0v-1.1c0,0,0-.4,0-.4v-3.1c0,0,0-10.1,0-10.1l-.3-2.5-.4-2.4-.3-1.4-.2-.9-.5-1.5-.3-.7-.3-.7v-.2Z"/>
  <path class="st58" d="M64,132.2h.3v.5c0,0-.5.7-.5.7l-.7.6v.4c0,0,.3.4.3.4v.6c0,0,.4,1,.4,1v.2l-.3-.2-.8-1.3-.2-.2.3.5v.2h-.2c0,0,0,.3,0,.3v.9c0,0,.2,1.1.2,1.1v7.2c0,0,0,2.9,0,2.9h0l-.2-5.4v-4.9c0,0-.2,0-.2,0v.2c0,0,0,11.4,0,11.4v3.8c0,0,0,1.2,0,1.2v1.7c0,0,0,1.3,0,1.3v1.5c0,0,0,2.9,0,2.9v1h-.2v-.8c0,0-.2,0-.2,0v-.2h.2l-.2-.8v-1.5h.2l-.2-.2v-1.1c0,0,0-.6,0-.6h0c0,0,0-1.1,0-1.1v-3.3l.2-.2h-.2c0,0,0-.9,0-.9v-.8l.2-.2h-.2v-.2h.2v-1.2c0,0,0-7.7,0-7.7v-4.6c0,0,0-1.1,0-1.1v-.6h.3c0,0-.4-.9-.4-.9v-.6h.3c0,0,.2,0,.2,0l.2-.6v-.2h-.5v.2c0,0,0,.4,0,.4l-.7-.5-.2-.7h-.2c0,0,2.9-.2,2.9-.2Z"/>
  <path class="st134" d="M129.5,147.5h.2v.4c0,0-.7,1.5-.7,1.5l-.2.5h-.2l-.5,1.8-.2.2v-.3c0,0,0,0,0,0v.4l.3.2h.2c0,0-.2.7-.2.7v10.6c0,0,.3.3.3.3l2.1,1.3h0c0,0-3.5.2-3.5.2h-3.2c0,0,1-.2,1-.2l1.9-.6.5-.4h.2v-.4c0,0,0-11.4,0-11.4l.4-1.5.3-.8h.2v-.5c0,0,.7-1.3.7-1.3l.2-.4h.2v-.2Z"/>
  <path class="st2" d="M8.7,70.4h.3v.3c0,0,0,8.2,0,8.2v8.9c0,0-.2,3-.2,3h-.3v-1h-.2v-18.8h.2c0,0,0-.6,0-.6h0Z"/>
  <path class="st49" d="M92.4,106.7h.2v1.5c0,0-.5,1.8-.5,1.8l-.6,1.6-.7,1.3-.6,1-.7.8-1.1,1.2-1.1,1-1.5,1-1.4.7-2,.7-2.3.6-1.3.2h-.8c0,0-1.7,0-1.7,0h-1.1c0,0-.7-.2-.7-.2h0c0,0,1.1,0,1.1,0h2.3v-.2c0,0-.4-.2-.4-.2v-.2h-.7c0,0,2.9-.3,2.9-.3l1.6-.3,1.7-.6.7-.3.5-.2h0c0,0,.7,0,.7,0l1.3-.6.9-.7h.3c0,0,.2-.4.2-.4l.5-.4h.2l.2-.3.2-.2h.2l.2-.3,1.1-1.1h.2v-.4c0,0,.2-.4.2-.4h.2v-.7c0,0,.5-.8.5-.8v-.4c0,0,.2.2.2.2h.2v-.3h-.2c0,0,.2-.5.2-.5v-.3c0,0,.2-.7.2-.7h.2v-.8h.2v-1.5c0,0,.2-.2.2-.2Z"/>
  <path class="st28" d="M121,132h1.1l.4.4.6,1.1h-.2c0,0-.3,0-.3,0v-.2h-.2v.7l-.2.2h-.2l-.2.7-.4.2-.2.2.7.2v.2l.2.3v.2c0,0,.5,0,.5,0v.3c0,0,0,.3,0,.3h.2c0,0,0,.3,0,.3l-.3-.2v-.3c0,0-.4,0-.4,0v-.2h-.3c0,0-.2.4-.2.4h.2v.2c0,0,.5,0,.5,0v.2l-.4.2v.2h-.2l-.2-.5h-.4v.2c0,0-.7-1.3-.7-1.3l-.7-1.4-.5-.9.2-.3.8-.5.5-.2h.2l.2-.4.2-.5Z"/>
  <path class="st32" d="M62.6,135.5h.3c0,0,.7,1.6.7,1.6l.8,1.6.7,1.1.8,1.2.4.7v.2h-.2v.2h-.4l-.6-.2-.2.2-.5-1.2-.4-.3v-.2h-.2l-.2-.5v-.2h-.2c0,0,0,1.1,0,1.1v.5c0,0-.2.7-.2.7l-.2.2v20.5c0,0,.2.6.2.6l.2.4h.5v.2l.8.2v-.2c0,0,.7,0,.7,0l.4.3.2.6h-.2c0,0-1.2-.6-1.2-.6l-1.5-.6h0c0,0,0-14.3,0-14.3v-4.6c0,0-.2-7.2-.2-7.2v-1.1c0,0-.2-.3-.2-.3v-.9Z"/>
  <path class="st108" d="M124.1,65.2h5.3v.2h-.7c0,0-.2.2-.2.2h-1.1c0,0-1,0-1,0l-.6.2h-.4c0,0-.2,0-.2,0l-.2.2h-1.5l-1.1.2h-.7c0,0-.2-.2-.2-.2h-.7l-.2.2h-.8c0,0-.5-.2-.5-.2h-.3c0,0,0,0,0,0h-.7l-.2.2h-.2v-.2l-.7-.2-.2.2h-.4v-.2h-.2c0,0-1.8,0-1.8,0h-.4v-.2h-.2v.2h-1.5l-.2-.2h-.4c0,0,0,0,0,0v-.2h-.2v-.2h.6v-.2h3.6c0,0,8.3-.2,8.3-.2Z"/>
  <path class="st153" d="M10.1,95.3h14.4c0,0,3.7,0,3.7,0l-.2.2h-6.1c0,0-1.1.2-1.1.2h-1.8c0,0-.5,0-.5,0v.2c0,0-.7-.2-.7-.2h-.5c0,0-1,0-1,0h-.3c0,0-2.5,0-2.5,0h-.3c0,0,.3.2.3.2h9.3c0,0,1.1,0,1.1,0h1.8c0,0,.4.2.4.2h0c0,0-12.2,0-12.2,0h-4.6v-.3l.7-.2.2-.6Z"/>
  <path class="st135" d="M71.2,148.9l.5.4v.3c0,0,.3.2.3.2v.2h.2l.3.8v.2h.2l.2.5.4.2v.4c0,0,.4.3.4.3v.4c0,0,.2,0,.2,0v.2l.6.2.2.3h.2c0,0,1.6,2.5,1.6,2.5l.6.9.9,1.4.9,1.5.7,1,.6,1.2v.3c0,0-.4,0-.4,0l-.4-.4-.7-1.2-.7-.9-3.1-4.6-.7-1.1-.4-.7-.5-.7-.2-.2-.4-.7-.6-.9-.4-.8-.3-.4-.2-.4v-.4Z"/>
  <path class="st40" d="M21.3,149h0v8.6c0,0,0,0,0,0v.2c0,0-.2-1.1-.2-1.1v-.4c0,0-.5,0-.5,0l-.2-.4v-1c0,0,0-.5,0-.5l-.7-.5v-.3c0,0,.3,0,.3,0v-.2h-.5l-.2.2v.2c0,0,0,.2,0,.2h-.5v-.3c0,0,0-.2,0-.2h-.6v-.2h-.2l.2-.4.3-.7.4-.4h.2v-.2h.2v-.2l.2-.2h.2v-.2h.9c0,0,0-.2,0-.2h.2l.2-.8v-.7h0Z"/>
  <path class="st178" d="M122.3,98h0v2.9c0,0,0,2.9,0,2.9v2.1c0,0,0,1,0,1v.3c0,0,0,.3,0,.3v1.1c0,0,0,2.3,0,2.3v1.5c0,0,.2-.2.2-.2v-5.9h.2v15.7l-.4.2h-.2c0,0,0-1,0-1v-2.5c0,0,0-6.9,0-6.9v-3.5c0,0,0-2.4,0-2.4v-5.5c0,0,0-2,0-2h0Z"/>
  <path class="st144" d="M38.8,115.6h.2v.6h-.2v1.4c0,0,0,.3,0,.3h.2c0,0,0,.3,0,.3l.2,1.3v3l-.3.5-.4.4-1,.8-.7.5-.5.2v-.2h.2v-.2h-.2c0,0,.2,0,.2,0v-.3c0,0,.3-.8.3-.8l.4-.8h.3c0,0-.2-.8-.2-.8v-.5c0,0,.5,0,.5,0v-.7c0,0,0-.4,0-.4l.2-.5v-.2h.2v-.6l.2-1.1v-.2c0,0,0-.6,0-.6v-.5c0,0,.2-.2.2-.2v-.4Z"/>
  <path class="st6" d="M43.9,138.9l.6.2h.3v.3h.2l.3.4h.2v.2l.4.2.2-.2.3.6v.2h-.2v.6c0,0,0,.2,0,.2h.2v.2c0,0,.4,0,.4,0l.2.7v.4c0,0,.2,0,.2,0l.2,1.1.2.8v.6c0,0,0,.8,0,.8v.4l-.2.3v.4c0,0-.2,1.3-.2,1.3v.3c0,0,0,.2,0,.2v.2c0,0,0,.3,0,.3h-.2v.5l.3.2-.2.2v.3h.2v.3c0,0-.3.4-.3.4v.2h-.2v.9c0,0-.2,0-.2,0v-1.7c0,0,0-5.2,0-5.2l-.2-2.4-.3-1.5-.6-1.3-.7-.8-.7-.5-.7-.2v-.2h.2v-.2l.3-.2Z"/>
  <path class="st89" d="M143.6,158.8h.7l.8.2.6.7v.3c0,0,0,.7,0,.7l-.2,1.1-.2.3-.7.3-.7.2h-.5l-.5-.3-.2-.7v-1.8l.3-.8.6-.3ZM144.4,159.7v.7l.2.7h.2c0,0,0-.8,0-.8l-.2-.6h-.2Z"/>
  <path class="st187" d="M71,140.9l.3.3,1.3,2,1.4,2.1.9,1.5.4.7v.2c0,0-.7-.2-.7-.2l-.4-.3-.7-.4-.8-.7-.3-.2-.2-.5-.4-.6-.3-.6-.2-.6-.6-.8-.2-.4v-.9c0,0,0-.4,0-.4l.4.2v-.4Z"/>
  <path class="st176" d="M40.7,161.8h1.7c0,0,.9,0,.9,0h0c0,0-1.2.2-1.2.2l.3.9.2,1.3v1.2h1.3c0,0-2.3,0-2.3,0l-1.5-.2v-.2h-.2v-.5h-.2c0,0,.3,0,.3,0h0c0,0,0-.4,0-.4h-.5v-.3c0,0,.3,0,.3,0l.2-.4-.3-.3-.2.2v-.2l-.3-.2v-.2l.4-.2h0l.3-.2.2-.5.5-.2Z"/>
  <path class="st62" d="M76.8,151.1l.2.2,1,2.8.3,1,.4,1,.6,1.6.3,1.1.2,1,.2,1.1.3,1.2h.2v.2c0,0-.5.2-.5.2l-.4.6v.5c0,0,.2.7.2.7l1.1.6v.2c0,0,.4,0,.4,0h-1.4c0,0-2,0-2,0l-.2-.2,1.1-1.5.3-.8.2-.2.6-.2v-.4c0,0-.7-1.3-.7-1.3l-.6-.9-1.2-2-.6-.9-1.1-1.6-.7-1.1-.7-1.1v-.2c0,0,.6.7.6.7l.8,1.3.5.8.7,1.1.4.7.7.8.5.7v.2l.4.2v-.4c0,0-.2-.7-.2-.7l-.2-.9-.5-1.5-.5-2-.9-2.5v-.2Z"/>
  <path class="st105" d="M62.4,134.6l.5.4.7,1.2.2.2-.6-1.1v-.5h.2c0,0,1.2,2.4,1.2,2.4l1,1.7.2.3v.6c0,0,.8,1.1.8,1.1v.2h.2l.2.5v.2h.2l.5,1,.3.6-.2.3v.2h.2l.3.7h-.2l-.3-.4-.7-1.1-.2-.4-.3-.6v-.2h-.2c0,0-.6-.9-.6-.9v-.2h-.2l-.5-.6-.7-1.1-.5-.8-.4-1-.7-1.2-.3-.8-.2-.4v-.2Z"/>
  <path class="st154" d="M91.2,163.1v.2c0,0,0,.7,0,.7h.5c0,0,.8.3.8.3l2.9.2,2.3-.2h.2c0,0,7.7,0,7.7,0h1.5c0,0,.4.2.4.2l3.3.2h0c0,0-16.2.2-16.2.2h-4.4v-.2c0,0,.7-1.1.7-1.1l.2-.4Z"/>
  <path class="st40" d="M78.1,72.6h1c0,0,.6.2.6.2h.7c0,0,1.4.2,1.4.2l1.5.5h.2c0,0,0,.3,0,.3h-1.3l-.7.2h-1.5c0,0-.2-.2-.2-.2l-1.1.2-.4.2h-.3c0,0,.2-.4.2-.4h-.3c0,0,0,1.3,0,1.3v.6c0,0-.2.7-.2.7v.9c0,0-.2,0-.2,0v-4.6c0,0,.9-.2.9-.2Z"/>
  <path class="st147" d="M93,88.4h0l.2,4.3v7.2l-.2,4.3-.2,1.8-.2.2v-.3h-.2v-10.8h.2v2.5c0,0,0,.2,0,.2h.2c0,0,0,.3,0,.3v.6c0,0,.2-.6.2-.6v-.6c0,0,0-.4,0-.4v-8.8Z"/>
  <path class="st152" d="M9.2,72.9h0v22.4c0,0,.4,0,.4,0h.7l-.3.2-.2.6h-.7c0,0,0,9.8,0,9.8v16.6h0l-.2-15.3v-2.2h0v-26.2l.2-5.8Z"/>
  <path class="st28" d="M138.9,134.5h.4v.6l-.2.4-.2.7-.2.6v.6c0,0-.3,0-.3,0v.2h-.2v.4c0,0-.6.7-.6.7l-.2.5-.4.8-.5.5-.2.7-.4.2v.3c0,0-.2.3-.2.3l-.2-.2v-.8c0,0,.4-.7.4-.7l.3-.7.3-1.1.2-.4h.2c0,0,.6-1.4.6-1.4l.2-.4.4-.4.4-.8.2-.4.2-.2Z"/>
  <path class="st68" d="M73.6,72.6h.4v.2l-1.3.3-1.1.3-1,.4-1.6.8-1.6,1.1-1.1.8-.8.8-.8,1.1-.7,1.1-.7,1.8-.2.8h-.2v.7c0,0-.2.8-.2.8h-.2v-.7l.2-1.1.4-1.4.4-1,.7-1.1.7-.9,1.2-1.2,1.5-1.1,1.3-.9.4-.2v-.2c0,0,2-.8,2-.8l1.5-.3.8-.2Z"/>
  <path class="st66" d="M139.1,131.9h1l-.2.2-1,.3-1,.4-.7.5-1,1.6-1.2,2.5-1.1,2.3-.7,1.5-.7,1.2-.9,1.9-1.1,2.4-.9,2-.9,2.1h-.2v-.5c0,0,.4-.7.4-.7v-.5c0,0,1.3-2.9,1.3-2.9l.5-1.1v-.3h.3l.2-.7.3-.7.2-.7.6-1.1.2-.5h.2v-.3h.2l.2-.7h.2l.2-.7.4-.7.2-.6h.2l.2-.5.4-.8.7-1.5.7-1.1.5-.7.3-.7.7-.6.8-.4h.4Z"/>
  <path class="st143" d="M21.5,145.2h0l.2,1.5v2.1c0,0,0,.2,0,.2v.6l.2.7h-.2c0,0-.3,0-.3,0v-1.1c0,0-14.5,0-14.5,0l-.3-.2,1.5-.2h1.9c0,0,.7,0,.7,0h.5c0,0,.7,0,.7,0h.2c0,0,0,0,0,0h.4c0,0,.9,0,.9,0h1.5c0,0,.2.2.2.2v-.2c0,0,0,.2,0,.2h.7c0,0,.8-.2.8-.2h4.2c0,0,.5,0,.5,0h.2c0,0,0-3.3,0-3.3Z"/>
  <path class="st40" d="M41.6,131.7h1v.8c0,0-.2,1.1-.2,1.1l-.2.6h-.2v.8c0,0,1.1,0,1.1,0h0c0,0-1.5.2-1.5.2h-.6c0,0-.6.3-.6.3h-1.1c0,0,.3-.3.3-.3h.2v-.2c0,0,.2-.2.2-.2l.2-.2h.2v-.2l.3-.2.5-.6h-1.1v-.2h.2v-.2l.3-.2h.2v-.4h.2c0,0,0-.5,0-.5h.2v-.3c0,0,.2,0,.2,0Z"/>
  <path class="st155" d="M111.2,157.9h.2v.2c0,0,0,6.5,0,6.5l-.2-.2-.7-1.5-.4-.6v-.2h-.2c0,0,0-.2,0-.2v-.7c0,0,.8-1.9.8-1.9l.5-1.5Z"/>
  <path class="st18" d="M141.7,65.3h0v13.2h0v-1.5c0,0-.2-.4-.2-.4v-.8l-.3-2.9v-5.1c0,0,.2-.3.2-.3l.2-.9v-1.1c0,0,.2-.2.2-.2Z"/>
  <path class="st54" d="M127.9,161h0v2.4c0,0,.5.3.5.3l2.1,1.3h0c0,0-3.5.2-3.5.2h-3.2c0,0,1-.2,1-.2l1.9-.6.5-.4h.2l.2-1v-1.3c0,0,.3-.8.3-.8Z"/>
  <path class="st7" d="M24.1,132.1h2.1c0,0-1.3.2-1.3.2l-.7.3-1.4,1.1-.3.7h-.2l-.2.5-.4.2-.2-.3-.2-1.8-.6-.2-.7-.2v-.2h-.8v-.2h4.6Z"/>
  <path class="st28" d="M81.2,133.3h.2c0,0-.2.3-.2.3v.2h.2c0,0,0,.3,0,.3l-.2.8-.2.4v.8c0,0-.2.7-.2.7l-.2.2v1.1c0,0,0,12.3,0,12.3h-.2v-3.7c0,0,0-1.5,0-1.5v-2.3c0,0-.2-2.5-.2-2.5v-5.3c0,0,.2-.9.2-.9l.2-.3.5-.2v-.2l.2-.2Z"/>
  <path class="st35" d="M40,110.2h0v7.4c0,0,.2,3.3.2,3.3v1.5l-.8.2v-11.2h0v2.5c0,0,0,3,0,3l.2.7v-.9c0,0,.2-6.7.2-6.7Z"/>
  <path class="st148" d="M109.4,145.1h0v6.3l-.2-.2-.5-1v-.3l-.3-.2-.5-.4-.2-.4v-.6l.3-.4,1.1-2.5v-.2Z"/>
  <path class="st40" d="M94.9,132.3h8.4v.2h-.4v.2h-1.1c0,0-.5.2-.5.2h-.8c0,0-1.1.2-1.1.2h-.7c0,0-.2,0-.2,0l-.3-.2-.7.2h-.2c0,0-.8,0-.8,0h-1c0,0-.4-.2-.4-.2h-.7c0,0,0-.2,0-.2l-.3-.2.9-.2Z"/>
  <path class="st143" d="M48.5,159.4l.3.2-.7.6-1.4.8-1.2.5-1.7.4h-1.5c0,0-1.1,0-1.1,0l-1.3-.3-.5-.2-.2-.3h.4c0,0,.7.2.7.2h2.3c0,0,.2.2.2.2h.5c0,0,0,0,0,0h.8c0,0,1.3-.4,1.3-.4l.7-.2.3-.3h.4v-.2h.3c0,0,0,0,0,0h.4c0,0,0-.3,0-.3h.3c0,0,.2-.3.2-.3Z"/>
  <path class="st138" d="M92.4,84.6l.2.3.3,2.2h0v10.6c0,0,0,.5,0,.5v.7c0,0-.2,0-.2,0v-.7c0,0,0-.3,0-.3v-3.5c0,0-.2-5.7-.2-5.7v-2h-.2c0,0,0-.3,0-.3v-.8c0,0,0-.8,0-.8Z"/>
  <path class="st87" d="M8.8,99.5h0v1.1c0,0,0,7.6,0,7.6v4.4h-.3v-.3c0,0-.2-1.2-.2-1.2v-10.9c0,0,.2-.5.2-.5v-.2Z"/>
  <path class="st120" d="M123.2,142.7l.2.2.6,1.1.2.2h.2c0,0,1.5,3.1,1.5,3.1l.8,1.7.2.6v.6l-.2-.2-.2-.7-.2-.6-.2-.2v.7c0,0,.2.6.2.6v.3h.2v.2h-.2l-.7-1.6-.5-1v-.2c0,0-.2-.8-.2-.8l-.5-1.1-.7-1.3-.4-1-.2-.2v-.5h.2Z"/>
  <path class="st84" d="M40.1,73.6h0v26.7h-.2v-1c0,0-.2-5.8-.2-5.8v-17.1h.2v-2.8Z"/>
  <path class="st170" d="M4.8,132.2h3.3v.2l-.5.2-.3.3-.9.7-.3.4-.2.2h-.7c0,0-.7-.4-.7-.4l-.2-.2v-.7c0,0,.3-.2.3-.2h.2l.2-.5Z"/>
  <path class="st176" d="M73.7,119.9h.8l.7.2,1.8.2v.2c0,0,0,2.4,0,2.4l-.2,3.8v.7c0,0,1.5,0,1.5,0h0c0,0-2.4,0-2.4,0l-.2-.4v-.3h.2v-.3c0,0,.3-.5.3-.5h-.2c0,0,.2-.5.2-.5l.2-.2-.2-.2v-.4c0,0,0,0,0,0v-.3c0,0,0,0,0,0v-.7c0,0,0,0,0,0v-.2h-.2c0,0,.2-.5.2-.5h.2v-.8c0,0-.3-.2-.3-.2v-.2c0,0,0,0,0,0v.2c0,0-.3-.6-.3-.6h.2v-.2c0,0,0-.2,0-.2l-.9-.2h-.3c0,0,0,0,0,0h-.2v.2c0,0,0-.2,0-.2h-.6c0,0-.5-.2-.5-.2v-.2Z"/>
  <path class="st158" d="M64,132.2h.3v.5c0,0-.5.7-.5.7l-.7.6v.4c0,0,.3.4.3.4v.6c0,0,.4,1,.4,1v.2l-.3-.2-.8-1.3-.2-.2v.2c0,0-.4-.7-.4-.7v-.6h.3c0,0,.2,0,.2,0l.2-.6v-.2h-.5v.2c0,0,0,.4,0,.4l-.7-.5-.2-.7h-.2c0,0,2.9-.2,2.9-.2Z"/>
  <path class="st130" d="M22,163.1l.2.2v.7h.7v.2h.6l.5.3v.2l.4.2.6.4h0c0,0-1.5.2-1.5.2h-3.4l.4-.3.7-.5.6-1.2.3-.2Z"/>
  <path class="st64" d="M81.3,132.1h1.7l-.3.2-.7.7-.8.6h-.2v.2l-.8.4v.2h-.2l.2.4h-.2c0,0-.3-.4-.3-.4l-.2-1.1-.2-.6h-.2c0,0-2.4-.2-2.4-.2h-.5v-.2h5.1Z"/>
  <path class="st160" d="M9,114.3h0v8h-.6l-.2.2v-7.5h.2v.5c0,0,0,1.5,0,1.5v.5c0,0,0,.7,0,.7h.2v-1.1c0,0,.2-2.7.2-2.7Z"/>
  <path class="st31" d="M92.4,106.7h.2v1.5c0,0-.5,1.8-.5,1.8l-.6,1.6-.7,1.3-.6,1-.7.8-1.1,1.2-1.1,1-1.3.8h-.2v-.2l.2-.2.4-.2.4-.4.4-.3h.2l.2-.3.5-.4h.2l.2-.3.2-.2h.2l.2-.3,1.1-1.1h.2v-.4c0,0,.2-.4.2-.4h.2v-.7c0,0,.5-.8.5-.8v-.4c0,0,.2.2.2.2h.2v-.3h-.2c0,0,.2-.5.2-.5v-.3c0,0,.2-.7.2-.7h.2v-.8h.2v-1.5c0,0,.2-.2.2-.2Z"/>
  <path class="st26" d="M71.2,148.9l.5.4v.3c0,0,.3.2.3.2v.2h.2l.3.8v.2h.2l.2.5.4.2v.4c0,0,.4.3.4.3v.4c0,0,.2,0,.2,0v.2h.3v.5l.3.3.5,1,.8,1.4.7,1.1.3.4v.2h.2v.6h.2l.5.7.3.8h-.2c0,0-3.1-4.7-3.1-4.7l-.7-1.1-.4-.7-.5-.7-.2-.2-.4-.7-.6-.9-.4-.8-.3-.4-.2-.4v-.4Z"/>
  <path class="st8" d="M5.5,163.1h.2v.2l.7.2.8.5.7.3v.2l.4.2h0c0,0-5.5,0-5.5,0l.2-.2,1.5-.7.4-.3.3-.4h.2Z"/>
  <path class="st40" d="M34.2,154.4v.2h.3v-.2h.2v.2h.2l.4,1.8.5,1.3.4.7.6.7.2.2h-.5c0,0-.6-.2-.6-.2v-.2h-.2c0,0,0-.2,0-.2l-.4-.2v-.2l-.3-.2-.5-.7v-.2c0,0,.3.2.3.2l-.2-.2v-.9c0,0-.3,0-.3,0l-.3-.5v-.2h.6c0,0-.2-.2-.2-.2l-.2-.6v-.5Z"/>
  <path class="st176" d="M91.3,162.2l.7.2-.2.5-.6.8-.5.8-.3.5v.2h-.8c0,0,0-.2,0-.2v-1.9.2c0,0,.3,0,.3,0l.2-.4v-.2c0,0,.7-.2.7-.2l.2-.2h.5Z"/>
  <path class="st185" d="M127.7,144.8h0v2c0,0,0,.6,0,.6h.3v-.2h.2v-.2l.2-.3h.4c0,0,.2-.4.2-.4l.2.3-.2.2v.4c0,0-.2.2-.2.2l.3.2-.2.7-.7,1.3-.2.5-.2-.2h-.2c0,0,0,0,0,0h-.2c0,0-.2-1.6-.2-1.6v-.3c0,0,0-2,0-2l.2-1Z"/>
  <path class="st173" d="M8.4,105.8h.2v6.8c0,0,.2,0,.2,0v-4.3h.2v8.8l-.2,1.5h0v-.4h-.2l-.2-1.3v-10.9Z"/>
  <path class="st40" d="M76.7,158.2l.3.2,2.1,3.2.5.8.2.2h-.2l-.2.3-.2.7-1.1,1.5h-.3v-.2c0,0,.2-.5.2-.5h.2v-.4c0,0,.3-.4.3-.4l.2-.2h.3v-.4h-.2c0,0-.2-.3-.2-.3v-.7h-.2l-.2-.6v-.6c0,0-.2-.2-.2-.2v-.2h-.2l-.2-.4-.5-1-.2-.3v-.2h-.2c0,0,0-.2,0-.2Z"/>
  <path class="st16" d="M42.6,131.7h2.1c0,0-.2.4-.2.4v.7c0,0-.6.3-.6.3h-.2v.2c0,0-.9.4-.9.4l-.2.3h-.2v.8c0,0,0,.2,0,.2h.4c0,0-1,0-1,0v-.4c0,0,0-.5,0-.5h.2v-.4c0,0,.3-.7.3-.7l.2-.7v-.7Z"/>
  <path class="st9" d="M42.9,158h.5l.4.4v.5c0,0,.2.4.2.4l.2.6-.2.5v.3h-.2v.2c0,0-.4.2-.4.2h-.7l-.2-1.1v-.9c0,0,.2-.3.2-.3l.2-.7Z"/>
  <path class="st170" d="M22.1,153.6h0v4.1h-.2v1.1c0,0,0,.7,0,.7h-.2v.4c0,0,0,.6,0,.6v.5c0,0,0,.2,0,.2h-.2v1.8l-.2-.2-.2-.9v-3.6c0,0,.2-.8.2-.8v-1.1c0,0,0-.6,0-.6h-.2c0,0,.2,0,.2,0l-.2-.2.2-.7.2-.7.2-.2v-.2Z"/>
  <path class="st104" d="M120.9,138.9l.4.4.3.7.4,1.1v.2h.2l.2.5v-.6c0,0-.2-.7-.2-.7l.2.2.8,1.7.8,1.5v.3c0,0-.7-1.1-.7-1.1l-.2-.5v.2c0,0,0,.5,0,.5l.3.7.7,1.4.5,1.1.4.9v.3c0,0,0,0,0,0v-.2h-.2l-.8-1.8-.7-1.2-.2-.5v-.3h-.2l-.4-1-.8-1.7-.7-1.5-.2-.3v-.2Z"/>
  <path class="st17" d="M122.3,98h0v2.9c0,0,0,2.9,0,2.9v2.1c0,0,0,1,0,1v.3c0,0,0,.3,0,.3v1.1c0,0,0,2.3,0,2.3v1.5c0,0-.2,1.1-.2,1.1l-.2,5.1h0v-10.4c0,0,0-2.4,0-2.4v-5.5c0,0,0-2,0-2h0Z"/>
  <path class="st52" d="M1.5,65.2h13.4c0,0-8.2.2-8.2.2l-.3.3-.2,1v.5c0,0-.3-.2-.3-.2l-.7-.5-.7-.7v-.5H1.5Z"/>
  <path class="st103" d="M123.6,124h.4c0,0,.6.3.6.3l.4.3.4.5.3.3.4.2v.2c0,0-.6,0-.6,0h-.3c0,0-.7,0-.7,0h-1l-.3-.2v-.3c0,0,0-.2,0-.2h-.2c0,0,0-.6,0-.6h.2v-.5l.2-.2Z"/>
  <path class="st180" d="M95.2,136h11.2c0,0,0,.2,0,.2h-.3c0,0-11.6,0-11.6,0v-.2c0,0,.7-.2.7-.2Z"/>
  <path class="st40" d="M39.1,96.7h0v2.5l-.2.3-.2.2v-.7l-.6-.2h-.2c0,0-.4,0-.4,0h-.2v.2h-.6l-.4.2-.3.2.5-.6.7-.7.9-.7.9-.4v-.3Z"/>
  <path class="st112" d="M61.5,98.7h.2c0,0,0,.4,0,.4v2.9c0,0,.2,1.5.2,1.5v1.7c0,0,.2,1,.2,1v.6h-.2c0,0-.2-1.2-.2-1.2v-.2c0,0-.2,0-.2,0v.2c0,0,0-.3,0-.3h-.2v-.7c0,0,0-4.2,0-4.2v-1.6Z"/>
  <path class="st120" d="M94.6,148.4h3.7c0,0,5.7,0,5.7,0l2.2.2h0c0,0-.7.2-.7.2h-11.6v-.3h.7Z"/>
  <path class="st171" d="M62.5,163.7h0v.6c0,0,.7.2.7.2h.7c0,0,.7,0,.7,0l-.6-.2h.2c0,0,1.3.6,1.3.6l.2.2h-2.1c0,0-4.8,0-4.8,0h0c0,0,.9-.2.9-.2l1.5-.5h.6c0,0,.7,0,.7,0v-.7Z"/>
  <path class="st81" d="M111.3,134l.2.2v3.8h-.3c0,0,0,0,0,0v-.6c0,0-.4-.4-.4-.4l-.6-.2v-.4c0,0,.2,0,.2,0l.2-.9.5-.9.4-.4Z"/>
  <path class="st64" d="M61.6,105.4h.5c0,0,.2,1.5.2,1.5v-.5c0,0,.2.2.2.2l.2,1.5v.3c0,0-.2-.7-.2-.7l.2.9.3,1.3.8,2,.8,1.5.4.6v.3c0,0-.2,0-.2,0l-.8-1.1-.7-1.1-.2-.4-.2-.7-.5-1.3-.2-.5-.3-1.1v-.2h-.2l-.3-1.5v-.8Z"/>
  <path class="st43" d="M121.9,73.3l.2.3.2,1.5v1c0,0,0,9.7,0,9.7h0v-.7c0,0,0-2,0-2h-.2c0,0,0-.6,0-.6h-.2v-.3h.2v-.5c0,0-.2-.3-.2-.3v-.9c0,0,0-1.2,0-1.2v-.4c0,0,0-1.2,0-1.2v-2c0,0,0-.2,0-.2l.2-.5-.2-.6v-1.1Z"/>
  <path class="st139" d="M110,136.6l.7.3.3.3v.9c0,0-.2.4-.2.4h-.2c0,0-.7,0-.7,0l-.8-.4-.3-.4v-.4h.3v-.2l.4-.2.4-.4Z"/>
  <path class="st150" d="M76.2,134.2h.2c0,0,0,2.2,0,2.2v10.4c0,0-.2.2-.2.2h0v-12.8Z"/>
  <path class="st170" d="M62.5,137.4l.2.2v2c0,0,0,5.7,0,5.7h0v-.5c0,0-.2.7-.2.7l-.2-.2v-7.9Z"/>
  <path class="st132" d="M39,87.1h.2v8.1l-.4-.2v-.2h-.2c0,0,0-.3,0-.3h-.2v-.5c0,0,0-.2,0-.2l.2-.7v-.7c0,0,.2-1.1.2-1.1v-1c0,0,0-1.2,0-1.2v-.9c0,0,0-.7,0-.7v-.5Z"/>
  <path class="st113" d="M14.3,95.4h13.9l-.2.2h-6.1c0,0-1.1.2-1.1.2h-1.8c0,0-.5,0-.5,0v.2c0,0-.7-.2-.7-.2h-.5c0,0-1,0-1,0v-.2h.3c0,0-2.4-.2-2.4-.2h0Z"/>
  <path class="st85" d="M122.3,81h.2v.4c0,0,0,1.9,0,1.9v.2c0,0,0,.7,0,.7v6.5c0,0,0,5.5,0,5.5h-.2c0,0,0-4.3,0-4.3v-10.8Z"/>
  <path class="st104" d="M72.5,72.3l.3.2-.2.2-1.4.5-1.4.6-.2.2h-.2v.2c0,0-.7.3-.7.3l-1.4,1-1.4,1.1-.9.9v-.2l.7-.9,1-1,1.1-.7,1.1-.7.7-.4.7-.2,1.1-.4.8-.4.5-.2Z"/>
  <path class="st141" d="M32.5,65.2h10.6c0,0-5.9.2-5.9.2l-.6.3-.2.7v.3l.2.2-.5-.2-1-.7v-.7c0,0-2.7,0-2.7,0h0Z"/>
  <path class="st187" d="M139.1,78.1h1.5l.4.2.3.2v.2h-7c0,0,1.8-.3,1.8-.3h.7c0,0,.9,0,.9,0l1.4-.2h0Z"/>
  <path class="st21" d="M140,131.9h.8l-.4.6h-.2v.2h-.2v.2c0,0-.5,0-.5,0l-1.2.4h-.7c0,0,.2-.4.2-.4v-.3c0,0,1.2-.5,1.2-.5l1-.3Z"/>
  <path class="st58" d="M22.4,134.4h0v3.5c0,0-.2,19.7-.2,19.7h0v-7.5c0,0,0-13.1,0-13.1l.2-2.5Z"/>
  <path class="st149" d="M75.3,154.5l.4.2.7,1.2.7,1.1.9,1.4.9,1.5.7,1,.2.4v.5l-.2-.2v-.2h-.2l-.5-1-.8-1.3v-.2h-.2l-.4-.6-.2-.5-.3-.4-.2-.3-.5-.7v-.2c0,0-.2,0-.2,0l-.2-.4-.4-.7v-.3Z"/>
  <path class="st28" d="M49.2,138.2l.4.3.9,1.5.3.7.3,1.7.2,2.1v1.6c0,0,0,4.7,0,4.7l-.2,2.7v.6h-.2v-2.5c0,0,0-6.6,0-6.6l-.2-2.4-.2-1.3-.2-.8-.6-1-.5-.9-.2-.2v-.2Z"/>
  <path class="st29" d="M85.4,117.7h.3v.2l-1.6.7-1.5.6-1.9.5h-1c0,0,0,0,0,0l.7-.3.9-.2,1.1-.2,1.2-.4,1-.4.9-.3Z"/>
  <path class="st93" d="M122.6,75.1l.2.2v.9c0,0,0,4.6,0,4.6v2.7c0,0,0,2,0,2h-.2v-.6c0,0,0-1.2,0-1.2v-.5c0,0,0-.3,0-.3v-5.7c0,0,0-.4,0-.4l.2-.8h-.2c0,0,0-.5,0-.5v-.5Z"/>
  <path class="st143" d="M41.8,135.2h1.6l.8.2v.2c0,0-.9,0-.9,0h-.4c0,0,0,0,0,0h-1c0,0,.4,0,.4,0h.5c0,0,0,.3,0,.3h-.8c0,0-1.7.6-1.7.6l-1.4.6h-.3c0,0,.2-.2.2-.2l1.3-.7,1-.4.7-.2.2-.3Z"/>
  <path class="st115" d="M24.1,132.1h2.1c0,0-1.3.2-1.3.2l-.7.3-1.4,1.1-.3.7-.2-.2v-.3c0,0,.3,0,.3,0v-.2l.3-.2.2-.4-.4-.2h-1.1v-.4h0c0,0,2.4-.2,2.4-.2Z"/>
  <path class="st40" d="M9.8,145.1h.5v.2h-.2v.6c0,0-.4.4-.4.4l-.7.7-.3.2v.2c0,0-1.4.3-1.4.3l-.3.2h-.2v-.2l.8-.6.4-.4,1.1-.8.8-.7Z"/>
  <path class="st90" d="M65.9,139.4h.2c0,0,.9,1.5.9,1.5l.7,1.2,1.4,2.3,1.4,2.1.7,1v.3c0,0-1.2-1.7-1.2-1.7v-.2h-.2v-.3h-.2l-.5-.7-.7-1.2-.5-.7-.6-1v-.2h-.2l-.2-.4v-.2h-.2l-.8-1.3v-.4Z"/>
  <path class="st9" d="M32.9,146h0v.6c0,0,0,.4,0,.4v2.4c0,0,0,.7,0,.7v1.1c0,0,0,.8,0,.8l.2,1.8v.6c0,0-.2.2-.2.2v-1.3c0,0-.2-.2-.2-.2v-1.6l-.2-1v-.8c0,0,0-.7,0-.7v-.2c0,0,0-.2,0-.2v-1.6c0,0,.2-.8.2-.8Z"/>
  <path class="st28" d="M127.5,145.8h0v2l.2.7.2,1.1.2.2h.2c0,0,0,.4,0,.4l-.5,1.2-.2.2-.2-.4-.4-.9v-.5c0,0,.2.3.2.3l.2.2h.2v-.7c0,0,0-2.6,0-2.6v-1.3Z"/>
  <path class="st122" d="M139.1,131.9h1l-.2.2-1,.3-1,.4-.7.5-1,1.6-1.1,2.4h-.2c0,0,.2-.8.2-.8l.7-1.6.6-.8.6-1.1.7-.6.8-.4h.4Z"/>
  <path class="st85" d="M8.1,69.6l.2.2.2.7v2.9c0,0,0,17.5,0,17.5h0v-19.3c0,0-.2-1.5-.2-1.5v-.5Z"/>
  <path class="st28" d="M21.1,149.1h.2v1.1l-.2.2v.3h-.2v.2c0,0-.8,0-.8,0l-.2.2h-.2v.2h-.2v.2l-.7.6-.3.5-.2.5h0v-.7h.2l.2-.4.7-.8.4-.4.9-.6.6-.8v-.3Z"/>
  <path class="st117" d="M61.2,101.5h0l.3,3.8v1h-.4c0,0,0-.5,0-.5h-.2c0,0,.2,0,.2,0l-.2-.5v-.3h-.2c0,0,0-.4,0-.4v-.2c0,0,0,0,0,0l.2-.6v-.4c0,0,0-.2,0-.2h-.2c0,0,.2,0,.2,0v-.2h-.2v-.2h.2v-.5h0c0,0,0-.7,0-.7Z"/>
  <path class="st9" d="M121.5,72.8h.2c0,0-.2.3-.2.3h-.2v.2c0,0-.2,0-.2,0v.2h-.2v.2h-.2v.4c0,0-.2.2-.2.2l-.4.2h-.2v.3h-.2v.2l-.2.2h-.2c0,0-.2.2-.2.2l-.3.2v.2h-.2v.3c0,0-.5.2-.5.2v.2l-.6.5h-.2v.2l-.3.2h-.2v.2l-.5.2.4-.4.9-.8.8-.7.9-.9.4-.3.3-.4.9-.7.5-.4.2-.2Z"/>
  <path class="st13" d="M9.2,72.9h0v7.5c0,0-.2,8.1-.2,8.1h0v-9.8l.2-5.8Z"/>
  <path class="st139" d="M127.3,125.3h.5c0,0,.4.2.4.2h.7c0,0,.4.2.4.2v.2h.7c0,0,0,.4,0,.4h0c0,0-1.5,0-1.5,0l-.2-.2-.9-.3-.4-.2v-.2h.5Z"/>
  <path class="st184" d="M46.7,147.7h0v1.6h.3c0,0,.2.5.2.5h-.2v.5l.3.2-.2.2v.3h.2v.3c0,0-.3.4-.3.4v.2h-.2v.9c0,0-.2,0-.2,0v-1.7c0,0,.2-3.6.2-3.6Z"/>
  <path class="st28" d="M34.6,143.2h0v7.5c0,0,.2,3,.2,3v1.2c0,0,0,0,0,0l-.2-1.9-.2-2.4v-7.5Z"/>
  <path class="st104" d="M6.7,132.2h1.5v.2l-.5.2-.3.3-.9.7-.3.3h-.2c0,0,0-.6,0-.6h-.2v-.4h.2v-.2l.8-.2v-.2c0,0,0,0,0,0Z"/>
  <path class="st113" d="M122,98.6h.2c0,0,0,1.1,0,1.1v7.1c0,0,0,1.9,0,1.9l-.2.2v-.7c0,0,0-4.2,0-4.2v-3.5c0,0,0-1.8,0-1.8Z"/>
  <path class="st82" d="M89.6,114.6v.2l-1,1.1-.8.7-1.1.8-.6.3h-.2v-.2l.2-.2.4-.2.4-.4.4-.3h.2l.2-.3.5-.4h.2l.2-.3.2-.2.3-.2h.2v-.2c0,0,.2,0,.2,0Z"/>
  <path class="st165" d="M41.4,157.9l1.5.2v.7c0,0-.4.3-.4.3v.9c0,0,.2.3.2.3v.7h-2.3l-.3-.2h2.4c0,0,0-.9,0-.9l-.2-1-.2-.5h-.2v-.2h-.2l-.2-.4Z"/>
  <path class="st61" d="M42.6,125.1l.5.2h.3c0,0,.5.2.5.2h.4c0,0,.2,0,.2,0v.2c0,0-.5.2-.5.2h-.5c0,0-1.1,0-1.1,0h-.4v-.2h-.4v-.5h.2l.2.2.4-.2h.2v-.2Z"/>
  <path class="st28" d="M77.1,72.4h1.1l1.5.2.4.2h0c0,0-.7,0-.7,0h-.5c0,0-.7-.2-.7-.2h-.8v5.5h-.2c0,0,0-5.7,0-5.7Z"/>
  <path class="st118" d="M81.3,132.1h1.7l-.3.2-.7.7-1,.7h-.2v-.2c0,0,.3-.2.3-.2h.2v-.3h-.8c0,0-.3-.2-.3-.2v-.2l.7-.2h.4v-.2Z"/>
  <path class="st137" d="M88.3,75.8h.3c0,0,.8.7.8.7l1.1,1.5.4.7v.3c0,0-.2-.3-.2-.3h-.7l-.3-.7v-.2c0,0,0-.2,0-.2l-.7-.9-.7-.7v-.2h-.2v-.2Z"/>
  <path class="st45" d="M22.5,163.8h.2v.2h.6l.5.3v.2l.4.2.6.4h0c0,0-.9,0-.9,0l.2-.2-.2-.2h-.5v-.2h-1.6c0,0,0-.5,0-.5h.2c0,0,.7,0,.7,0v-.2Z"/>
  <path class="st0" d="M103.3,136h3.1c0,0,0,.2,0,.2h-.3c0,0-4.5,0-4.5,0h-2.7v-.2h1.3c0,0,3-.2,3-.2Z"/>
  <path class="st74" d="M118.8,133.9h.3c0,0,.7,1.2.7,1.2l.7,1.3.6,1.2,1.1,2.4v.4h-.2v-.6h-.2l-.2-.5-.2-.2v-.3c0,0-.2-.5-.2-.5l-.2-.4v-.2h-.2c0,0-.2-.6-.2-.6l-.2-.5-.6-1.2-.6-1-.3-.6h0Z"/>
  <path class="st186" d="M105.5,78.4h1.8c0,0,1,0,1,0l1.1.2h0c0,0-6.1,0-6.1,0h0c0,0,1.3-.2,1.3-.2l.6-.2h.3Z"/>
  <path class="st83" d="M120.9,132.7l.3.3-.2.4-.4.2-.8.2-.3.7-.2-.2-.2-.4.2-.3.8-.5.9-.5Z"/>
  <path class="st55" d="M122.3,140.5l.2.2.8,1.7.8,1.5v.3c0,0-.7-1.1-.7-1.1l-.2-.5-.2.3-.3-.7h0v-.7l-.2-.7v-.5Z"/>
  <path class="st173" d="M61.5,98.7h.2c0,0,0,.4,0,.4v2.3h-.2c0,0,0,.2,0,.2h-.2c0,0,0,.5,0,.5v.2c0,0,0,.2,0,.2v2.9h0v-.7c0,0,0-4.2,0-4.2v-1.6Z"/>
  <path class="st173" d="M67.9,116.8h.3c0,0,.9.6.9.6v.2l.3.2.4.2.4.2v.5h-.2v-.2l-.7-.2-1.6-1v-.2h.2v-.2Z"/>
  <path class="st39" d="M138.3,132h.3c0,0-1,.6-1,.6l-.6.5-.6,1.1-.2.2h-.2v-.2h-.2l.2-.5.6-.8.7-.3.7-.3.3-.2Z"/>
  <path class="st28" d="M77.1,120.2h.4-.2c0,0,0,1,0,1v4.8c0,0,0,.8,0,.8v.4h-.4v-2.4c0,0,.2-2,.2-2v-2.6Z"/>
  <path class="st28" d="M64.4,132.2l.2.2.7.2v.3c0,0,0,0,0,0v.3h-.6l-.6.2-.4.2h-.2v.2h-.2c0,0,0,.6,0,.6v.3c0,0-.2-.2-.2-.2l-.2-.3v-.3c0,0,.9-.7.9-.7l.4-.5v-.5Z"/>
  <path class="st28" d="M96.4,145.9h.2c0,0-.7.7-.7.7l-1.4,1.1-.3.2h-.2c0,0,.5-1.1.5-1.1l1-.5.4-.2.4-.2Z"/>
  <path class="st28" d="M9.5,145.1h.3c0,0-.6.7-.6.7l-1,.7-.4.4-.9.7h-.2c0,0-.2.4-.2.4h-.6c0,0,0-.2,0-.2h.3c0,0,.3-.3.3-.3l.2-.4.8-.6,1.5-1,.2-.3Z"/>
  <path class="st71" d="M62.4,145.3h0v1.4c0,0,0,1.1,0,1.1v2.4c0,0,.2,1.1.2,1.1v2.7c0,0-.2,0-.2,0v-6.1c0,0,0-2.7,0-2.7Z"/>
  <path class="st92" d="M91.3,111l.2.3h.2l-.2.5-.7,1.3-.7,1.1-.4.4h-.2c0,0,0,.2,0,.2l-.4.2.2-.3,1.1-1.1h.2v-.4c0,0,.2-.4.2-.4h.2v-.7c0,0,.5-.8.5-.8v-.4Z"/>
  <path class="st131" d="M62.6,163.1h.2v.3c0,0,.9.2.9.2l.3.2v.2l.7.2h0c0,0-.9,0-.9,0l-1-.2-.4-.2v-.8Z"/>
  <path class="st174" d="M22.1,164.6l1.7.2.3.3-.7.2h-2v-.4l.7-.2Z"/>
  <path class="st57" d="M92.5,91.5h0v2.9c0,0,0,6.4,0,6.4l-.2,2.9h0v-1.1c0,0,0-.4,0-.4v-3.1c0,0,.2-7.7.2-7.7Z"/>
  <path class="st60" d="M92.4,104.7h0v1.1c0,0,.2,0,.2,0v.8c0,0,0,1.1,0,1.1h0v-1h-.2v.4c0,0-.2,1-.2,1v.2h-.2v.8h-.2l.2-.9.2-1.2v-.2c0,0,.2-2,.2-2v-.2Z"/>
  <path class="st133" d="M8.7,87h.2c0,0,0,.8,0,.8v3c0,0-.4,0-.4,0v-1c0,0,0-2.1,0-2.1v-.2l.2-.4Z"/>
  <path class="st46" d="M91.8,109.3v.2c0,0,0,.7,0,.7l-.2.2v.7h-.2l-.3.7v.2h-.2c0,0-.2.9-.2.9l-.2.4h-.2c0,0-.2-.2-.2-.2l.2-.5.4-.7.7-1.7.2-.9h0Z"/>
  <path class="st1" d="M129.5,147.5h.2v.4c0,0-.7,1.5-.7,1.5l-.2.5h-.2l-.2.9-.2.3h-.2v-.7c0,0,.2-.4.2-.4h.2v-.5c0,0,.7-1.3.7-1.3l.2-.4h.2v-.2Z"/>
  <path class="st69" d="M134.8,132h3.5l-.3.2-.7.3-.4.2h-.2c0,0,.6-.7.6-.7h-.6c0,0-.2.3-.2.3h0c0,0-.7,0-.7,0l-.2-.4h-.7v-.2Z"/>
  <path class="st62" d="M23.3,163.7l.4.2.3.2h.7l.3.3v.2c0,0,.3.2.3.2v.2c0,0-.5,0-.5,0l-.8-.6h-.2v-.2l-.4-.2h0c0,0-.6-.2-.6-.2h0c0,0,.5-.2.5-.2Z"/>
  <path class="st43" d="M3.5,132.2h1.3v.3c0,0-.3.2-.3.2h-.2l-.2.8-.4-.2-.4-.4.2-.4.4-.2h-.5v-.2Z"/>
  <path class="st47" d="M64.5,137.7h.2c0,0,.3.6.3.6v.2h.2l.7,1.3.3.6v.2c0,0-.3,0-.3,0v-.2l-.3-.3-.5-.9v-.2h-.2l-.2-.4v-.3h-.2v-.2c0,0,0-.2,0-.2Z"/>
  <path class="st28" d="M76.9,113.3h.3v5.9h-.2v-5.6c0,0-.2-.2-.2-.2Z"/>
  <path class="st15" d="M65.9,139.4h.2c0,0,.9,1.5.9,1.5l1.5,2.4v.2c0,0-.2-.2-.2-.2h-.2c0,0-.7-1.1-.7-1.1v-.4h-.2l-.2-.4v-.2h-.2l-.8-1.3v-.4Z"/>
  <path class="st164" d="M63.1,110.7l.2.2.5,1.2.7,1.3.4.6v.3c0,0-.2,0-.2,0l-.8-1.1-.7-1.1-.2-.4v-.9Z"/>
  <path class="st85" d="M121.3,139l.4.4v.4h.2v.6h.2v-.2c0,0,.2.2.2.2v.7c0,0,.2.6.2.6h-.2l-.2-.5h-.2l-.8-2.1v-.2Z"/>
  <path class="st166" d="M128.9,149.6h.2l-.2.8-.2.2v.5l-.4.8-.2.2-.2-.2v-.4h.2v.2l.6-1.7.2-.2h0c0,0,.2-.2.2-.2Z"/>
  <path class="st94" d="M127.9,161h0v2.4c0,0,.2.2.2.2h-.3c0,0-.2.2-.2.2h-.2l.2-2.1.2-.8Z"/>
  <path class="st147" d="M63.3,134.8h.2c0,0,1.2,2.4,1.2,2.4v.3c0,0-.4-.4-.4-.4l-.4-.7v-.2h-.2l-.5-1v-.5Z"/>
  <path class="st23" d="M76.9,68.2h0v3.2h.9c0,0-1.1,0-1.1,0v-.8c0,0,0-.4,0-.4h-.2l-.2-.2v-.2h.3c0,0,0-.4,0-.4l.2-.2h-.2c0,0,.2-.6.2-.6h.2v-.4Z"/>
  <path class="st95" d="M120.3,131.9h1.1c0,0-.4,0-.4,0v.5c0,0-.2-.2-.2-.2h-.8c0,0-1.1,0-1.1,0l-.9-.2h0c0,0,2.3-.2,2.3-.2Z"/>
  <path class="st80" d="M130,147.7v.2c0,0-.8,2.1-.8,2.1l-.4,1h-.2v-.5c0,0,.4-.7.4-.7v-.5c0,0,.7-1.5.7-1.5l.2-.2Z"/>
  <path class="st24" d="M135.5,133.9h.2v.4c0,0-.5.9-.5.9h-.2v-.2h-.2v.2c0,0-.3,0-.3,0v-.4c0,0,0-.3,0-.3l.2-.2h.2c0,0,.2,0,.2,0v-.2h.3c0,0,0-.3,0-.3Z"/>
  <path class="st160" d="M67.5,74.9h.2l-.2.3-1.5,1.1-1,1v-.2l.7-.9.7-.7.4-.2.7-.4Z"/>
  <path class="st28" d="M140.8,76l.3.3.3.5v.2h.2v.7l-.5-.2-.4-.3v-.7c0,0,.2-.2.2-.2v-.4Z"/>
  <path class="st132" d="M20.7,163.1h.2v.3h.2v.4h.2v.5l-.3.3h-.2v-.3c0,0-.2-.2-.2-.2v-.2c0,0-.2,0-.2,0v-.2h.2v-.3c0,0,.2-.2.2-.2Z"/>
  <path class="st114" d="M78,158.7l.4.2.8,1.4.4.6.2.4v.5l-.2-.2v-.2h-.2l-.5-1-.9-1.5v-.2Z"/>
  <path class="st9" d="M32.3,103.4h0l.2.8v1.7c0,0-.2,2-.2,2h-.2v-4.5Z"/>
  <path class="st28" d="M129.5,164.2h.7l.7.2.3.7h-.7l-1.1-.7v-.2Z"/>
  <path class="st85" d="M72.5,72.3l.3.2-.2.2-1.4.5-1.4.6-.6.2v-.2c0,0,1.2-.6,1.2-.6l.8-.2.6-.3.7-.2Z"/>
  <path class="st113" d="M3.2,65.2h1.1l.2.7.3.2.3.2v.2l-.8-.2v-.2c0,0-.8-.4-.8-.4v-.2l-.2-.2Z"/>
  <path class="st12" d="M122.8,75.4h0v4.3c0,0-.2-.2-.2-.2v-3.8l.2-.3Z"/>
  <path class="st37" d="M135,137.2v.2c0,0-1,2.3-1,2.3l-.2.5h-.2c0,0,0-.6,0-.6l.4-.7.2-.6h.2l.2-.5.4-.7Z"/>
  <path class="st28" d="M41.8,136h.8l.2,1.6.3,1.3v.2h-.3l-.2-.6-.2-1.3-.2-1.2h-.6Z"/>
  <path class="st51" d="M61.6,105.4h.5c0,0,0,.9,0,.9v.5h-.2c0,0,0,.3,0,.3v.7h0l-.3-1.5v-.8Z"/>
  <path class="st14" d="M102.9,74.8h0v1.3c0,0,.5,0,.5,0l.3-.2v.4c0,0-.6.8-.6.8l-.2.5h0v-2.7Z"/>
  <path class="st133" d="M61.8,88.4h.2v3.9c0,0-.3-.2-.3-.2v-1.2c0,0,0-1.7,0-1.7v-.8Z"/>
  <path class="st28" d="M42.1,162h.6-.2c0,0,.4,2.8.4,2.8v.7h-.2v-.2c0,0-.2-1.3-.2-1.3l-.2-1.1-.2-.7v-.2c0,0,0,0,0,0Z"/>
  <path class="st40" d="M78.5,134.4l.3.2v1h.2c0,0-.3.4-.3.4h-.4v-1l.2-.6Z"/>
  <path class="st102" d="M24.3,132.3h.2c0,0-1.3,1.1-1.3,1.1l-.4.3-.3.7-.2-.2v-.3c0,0,.3,0,.3,0v-.2l.4-.4.6-.7.7-.2Z"/>
  <path class="st146" d="M130.1,146.7l.2.2-1.1,2.4-.4.7v-.2c0,0,.6-1.6.6-1.6l.7-1.5h0Z"/>
  <path class="st106" d="M83,132.1h.3l-.2.3h-.2v.2c0,0,0,.3,0,.3h-.7c0,0-.6.2-.6.2h-.2c0,0,.9-.7.9-.7l.3-.3h.3Z"/>
  <path class="st78" d="M127.8,163.1l.8.3,1.4.9h-.2c0,0-1.4-.6-1.4-.6l-.4-.2-.2.2h-.2c0,0,0-.3,0-.3h.2c0,0,0-.4,0-.4Z"/>
  <path class="st173" d="M65.2,114.8l.3.2.7.6.8.6.7.6v.3c0,0-.2-.2-.2-.2l-.6-.4v-.2l-.3-.2-.8-.7-.5-.6Z"/>
  <path class="st28" d="M38.9,96.3h.2v.7l-1.2.7-.5.4h-.2c0,0,.7-.8.7-.8l.9-.7v-.3Z"/>
  <path class="st85" d="M21.7,151.2l.2.3v.3h-.2v.9c0,0,0,.5,0,.5h-.2v.5c0,0,0,0,0,0v-2.1l.2-.5Z"/>
  <path class="st38" d="M21.5,150.1l.2.2v.2c0,0,0,.9,0,.9v.2c0,0,0,2,0,2h0v.4-.2h-.2v-3.7h.2Z"/>
  <path class="st48" d="M76.3,132.2h3.7v.2h-3.2c0,0-.5-.2-.5-.2h0Z"/>
  <path class="st97" d="M5.5,163.1h.2v.2l.7.2.5.3h-.2c0,0-1-.2-1-.2h-.8c0,0,.3-.4.3-.4l.2-.2Z"/>
  <path class="st79" d="M128.6,149.3h.2v.6h-.2l-.2.9-.2.3h-.2v-.7c0,0,.2-.4.2-.4h.2v-.5c0,0,.2-.2.2-.2Z"/>
  <path class="st113" d="M47.6,138l.3.2.8.7.3.6.4.7v.2c0,0-.3-.2-.3-.2l-.4-.7-.6-.8-.6-.6h0Z"/>
  <path class="st40" d="M86.8,75.6l.6.2.2.3.2.6h.2l.2.5v.2c0,0-.3,0-.3,0l-.2-.4v-.2h-.2v-.2h-.2c0,0-.3-.5-.3-.5l-.2-.2.2-.2Z"/>
  <path class="st113" d="M21.5,155.5v.2c0,0,.2.7.2.7v.4c0,0,0,1.1,0,1.1l-.2.7h0v-2.9h.2Z"/>
  <path class="st88" d="M54.9,151.3h0v2.4h-.2v-.7h-.2v-.3l.2-.4h-.2v-.4h.2v-.6Z"/>
  <path class="st177" d="M61.5,101.1l.2.2v.2h-.2c0,0,0,.5,0,.5v.2c0,0,0,.2,0,.2v2.9h0v-.7c0,0,0-3.4,0-3.4h0Z"/>
  <path class="st127" d="M21.7,132.2h1.3v.2c0,0-.9.2-.9.2h-.5v-.4h0Z"/>
  <path class="st28" d="M74.6,152.9l.4.4,1.1,1.8.5.8v.2c0,0-.7-.8-.7-.8l-.7-1.1-.7-1.1v-.2Z"/>
  <path class="st163" d="M91.3,111l.2.3h.2l-.2.5-.4.8h-.2v-.4l.4-.8v-.4Z"/>
  <path class="st0" d="M122.3,140.5l.2.2.7,1.3v.3c0,0-.4-.3-.4-.3v-.2h-.2c0,0-.2-.7-.2-.7v-.7Z"/>
  <path class="st98" d="M79.8,161.5l.2.2.2.4v.3c0,0-.4,0-.4,0l-.4-.4v-.3c0,0,.2,0,.2,0l.2-.4Z"/>
  <path class="st28" d="M121.4,72.6h.4v.3c0,0-.4,0-.4,0l-.5.3-.9.8h-.2c0,0,.7-.8.7-.8l.6-.5h-1.3v-.2h1.5Z"/>
  <path class="st65" d="M103,65.6h0v2l.6.2-.2.3-.4-.2v1.9h0v-4.2Z"/>
  <path class="st140" d="M121,138.1h.2l.9,1.9v.4h-.2v-.6h-.2l-.2-.5-.2-.2v-.3c0,0-.2-.5-.2-.5v-.2Z"/>
  <path class="st85" d="M104.3,136.1h2v.2c0,0-.2,0-.2,0h-2.2c0,0,.4-.2.4-.2h0Z"/>
  <path class="st42" d="M118.8,133.9h.3c0,0,.7,1.2.7,1.2l.4.8v.2h-.2c0,0-.5-1.1-.5-1.1l-.6-.8v-.3Z"/>
  <path class="st46" d="M61.8,99.1l.2.2v2.9h-.2c0,0,0-2.9,0-2.9h0Z"/>
  <path class="st44" d="M135.8,135.3h.2v.5c0,0-.8,1.5-.8,1.5h-.2c0,0,.2-.8.2-.8l.5-1.1v-.2Z"/>
  <path class="st168" d="M74.6,119.9h1.1c0,0,2.1,0,2.1,0l.4.2h0c0,0-1.7,0-1.7,0h-1.1c0,0-.7-.2-.7-.2h0Z"/>
  <path class="st111" d="M73.7,152h.3c0,0,.8,1.5.8,1.5v.2c0,0-.4-.4-.4-.4l-.2-.2-.4-.8v-.2Z"/>
  <path class="st117" d="M119.6,136.6l.2.2.7,1.4v.5c0,0-.2-.2-.2-.2l-.2-.5-.5-1v-.4Z"/>
  <path class="st71" d="M117,71.8h.7c0,0,.5.3.5.3v.2c0,0-.9,0-.9,0l-.6-.2v-.2c0,0,.3,0,.3,0Z"/>
  <path class="st85" d="M80.3,154.8h0v.5c0,0,0,1.9,0,1.9h-.2v-2.4Z"/>
  <path class="st40" d="M76.8,64.3h.2v2.9l-.2-.3h.2v-.5c0,0,0-1.1,0-1.1l-.2-.3.2-.2v-.4Z"/>
  <path class="st142" d="M108.8,151.3h.6l.2.2v.3c0,0-.2,0-.2,0h-.6v-.5c0,0,0-.2,0-.2Z"/>
  <path class="st3" d="M135.5,132.1h1.1l-.2.4h0c0,0-.7,0-.7,0l-.2-.5Z"/>
  <path class="st29" d="M136.9,133.5v.2c0,0-.7,1.2-.7,1.2l-.2.5v-.2c0,0-.2,0-.2,0l.5-.8.6-.8h0Z"/>
  <path class="st48" d="M19.4,132.2h2v.3h-1.2c0,0-.8-.2-.8-.2h0Z"/>
  <path class="st93" d="M36.4,96.1h2.2v.2l-2.3.2v-.2c0,0,0,0,0,0Z"/>
  <path class="st161" d="M45.6,65.1h1.1c0,0-.8.2-.8.2l-1,.7h-.4v-.2h.3v-.2h.2v-.4h.6Z"/>
  <path class="st119" d="M135.1,132.1h.4c0,0,.2.4.2.4h.5v.2l-.7.2-.4-.2.2-.2h.2v-.3h-.2Z"/>
  <path class="st76" d="M21.8,150.3h.3c0,0,0,.7,0,.7h-.2c0,0-.3.2-.3.2v.2c0,0-.2-.8-.2-.8l.2-.2Z"/>
  <path class="st58" d="M131.1,144.6v.2c0,0,0,.3,0,.3h-.2v.6c0,0-.7,1.1-.7,1.1h-.2c0,0,0-.5,0-.5l.4-.7.3-.8.2-.2Z"/>
  <path class="st58" d="M132.6,141.4l.2.2-1,2h-.2v-.4c0,0,.7-1.1.7-1.1l.3-.6Z"/>
  <path class="st40" d="M32.3,65.2h1.1v.2c0,0-.3.2-.3.2l-.7.2v-.6Z"/>
  <path class="st173" d="M122.6,75.1l.2.2v.9c0,0,0,1,0,1l-.2.2-.2-.5.2-.8h-.2c0,0,0-.5,0-.5v-.5Z"/>
  <path class="st173" d="M122.5,83.6h.2v2h-.2v-.6c0,0,0-1.2,0-1.2v-.2Z"/>
  <path class="st19" d="M63.1,112l.2.2.7,1.1.2.4-.5-.3-.2-.3v-.2h-.2v-.5c0,0-.2,0-.2,0v-.3Z"/>
  <path class="st28" d="M118.7,75.1h.2c0,0-.9,1-.9,1l-.8.7-.7.6h-.2c0,0,1-1,1-1l.9-.7.5-.5Z"/>
  <path class="st85" d="M122.5,141.9h.2l.4.7v.4c0,0-.2.2-.2.2l-.3-.7h0v-.6Z"/>
  <path class="st129" d="M65.5,140.5h.2v.2h.2l.7,1h.2c0,0,.3.7.3.7v.2h-.2c0,0-.3-.7-.3-.7v-.2h-.2l-.6-.9-.2-.4Z"/>
  <path class="st149" d="M72,149.2h.2l.9,1.4v.5c0,0-.2-.2-.2-.2l-.6-.9-.4-.7h0Z"/>
  <path class="st167" d="M92.2,107.1h.2c0,0,0,1.1,0,1.1v.2h-.2v.8h-.2l.2-.9.2-1.1h0Z"/>
  <path class="st113" d="M122.1,93.4h.2v2.9l-.2.2v-2.1c0,0,0-1,0-1Z"/>
  <path class="st107" d="M45,125.8l1,.2.4.2v.2h-.6c0,0-.9-.4-.9-.4v-.2Z"/>
  <path class="st172" d="M92.6,84.2h0l.2,2.1v.7h0l-.3-2.2v-.7Z"/>
  <path class="st114" d="M84.3,73.2h.6c0,0,1,.6,1,.6v.2c0,0-.7-.2-.7-.2l-.9-.5h0Z"/>
  <path class="st182" d="M65.9,139.4h.2c0,0,.7,1.1.7,1.1v.4l-.2-.2-.6-.9v-.4Z"/>
  <path class="st75" d="M80.5,155.5h0v2.6h-.2c0,0,0-.5,0-.5v-.5c0,0,.2-1.6.2-1.6Z"/>
  <path class="st67" d="M138.5,73.1l.4.2v.2l.3.2.7.7.2.3v.2c0,0-1.6-1.5-1.6-1.5h0Z"/>
  <path class="st85" d="M22,163.1l.2.3h-.2v.3c0,0-.7.5-.7.5v-.4c0,0,.3-.5.3-.5l.3-.2Z"/>
  <path class="st77" d="M35.7,139.5v.2c0,0-.5,1.1-.5,1.1h-.2v-.6c0,0,.5-.7.5-.7h.2Z"/>
  <path class="st53" d="M61.5,98.7h.2c0,0,0,.4,0,.4v.7l-.3.2v-1.2Z"/>
  <path class="st169" d="M36.5,138.5h.2l-.2.4-.6.7h-.2c0,0,.2-.4.2-.4l.4-.4.2-.2Z"/>
  <path class="st113" d="M121.9,73.3l.2.3.2,1.5h-.2l-.2-.2v-.5c0,0,0-1.1,0-1.1Z"/>
  <path class="st9" d="M61.2,105.4h.3c0,0,0,1,0,1h-.4c0,0,0-.5,0-.5h-.2c0,0,.2,0,.2,0v-.4Z"/>
  <path class="st181" d="M77.7,132.3h1.4l.3.2v.3c0,0-.4-.2-.4-.2l-1.3-.2h0Z"/>
  <path class="st109" d="M133.2,140.2h.2l-.2.7v.2h-.2v.3h-.2l.2-.8.2-.4Z"/>
  <path class="st11" d="M21.5,150.1l.2.2v.2c0,0,0,.7,0,.7v-.2h-.2v-1h.2Z"/>
  <path class="st58" d="M48.4,149.1h.2v.6l-.2.4h-.2v-.4c0,0,0-.6,0-.6Z"/>
  <path class="st5" d="M128,150.6v.2c0,0,0,.2,0,.2h.2c0,0,0,.6,0,.6l-.2.2v-.3c0,0,0,0,0,0v-.7c0,0,.2-.2.2-.2Z"/>
  <path class="st25" d="M74.9,153.5l.3.4.3.5v.2c0,0-.6-.4-.6-.4l-.2-.5v-.2Z"/>
  <path class="st22" d="M81.6,72.2h.6c0,0,.7.3.7.3v.2h-.6c0,0-.7-.3-.7-.3v-.2Z"/>
  <path class="st40" d="M80.3,133.9h.2v.2c0,0-.2.9-.2.9l-.2-.2-.2-.6.3-.3Z"/>
  <path class="st179" d="M129.1,149.7v.3c0,0-.3,1-.3,1h-.2v-.5c0,0,.5-.8.5-.8Z"/>
  <path class="st113" d="M50.1,140.6l.3.3v.3c0,0,0,0,0,0v.6h-.2l-.2-.7h0v-.5Z"/>
  <path class="st3" d="M121.7,139.2l.2.3.2.5v.4h-.2v-.6h-.2l-.2-.6h.2Z"/>
  <path class="st49" d="M120.9,138.9l.4.4.2.2v.5c0,0-.3-.3-.3-.3l-.2-.6v-.2Z"/>
  <path class="st183" d="M62.4,134.6l.5.4.2.5h-.2v.2c0,0-.4-.7-.4-.7l-.2-.4Z"/>
  <path class="st124" d="M80,132.2h1.3c0,0-.7.2-.7.2h-.6v-.2Z"/>
  <path class="st50" d="M90.9,112.6h.2c0,0-.6,1.1-.6,1.1h-.2c0,0,.2-.5.2-.5v-.3h.2v-.2Z"/>
  <path class="st87" d="M92.7,97.7h.2v.5c0,0,0,.7,0,.7h-.2c0,0,0-.8,0-.8v-.3Z"/>
  <path class="st28" d="M129.1,148.8h.2l-.2.5-.4.7v-.2c0,0,.3-1.1.3-1.1Z"/>
  <path class="st100" d="M21.3,164.7h.2c0,0,0,.4,0,.4h-1l.2-.2.6-.2Z"/>
  <path class="st157" d="M67.9,142.4l.3.4.3.6v.2c0,0-.2-.2-.2-.2h-.2c0,0-.3-.6-.3-.6v-.3Z"/>
  <path class="st162" d="M23,133.3h.2c0,0-.4.4-.4.4l-.3.7-.2-.2v-.3c0,0,.3,0,.3,0v-.2l.3-.2Z"/>
  <path class="st126" d="M63.1,110.7l.2.2.3.8v.2c0,0-.3-.5-.3-.5h-.2c0,0,0-.8,0-.8Z"/>
  <path class="st10" d="M61.7,93.4h0v1.4-.2h-.2v-.7l.2-.6Z"/>
  <path class="st101" d="M68.3,143.3l.3.2.4.7v.2c0,0-.4-.3-.4-.3l-.3-.5v-.2Z"/>
  <path class="st58" d="M133.8,139.1h.2v.4c0,0-.4.6-.4.6h-.2l.2-.7.2-.2Z"/>
  <path class="st173" d="M64.4,113.4h.3c0,0,.4.8.4.8h-.2l-.5-.7v-.2Z"/>
  <path class="st68" d="M135,137.2v.2c0,0-.2.7-.2.7h-.2c0,0,0-.5,0-.5l.3-.5Z"/>
  <path class="st9" d="M110.9,65.5h.4v.2c0,0-.2.2-.2.2l-.3-.2h-.4v-.2h.5Z"/>
  <path class="st40" d="M46.5,154.4l.3.2v.4l-.5-.2v-.3h.2v-.2Z"/>
  <path class="st27" d="M70.6,146.8l.3.4.2.3v.3c0,0-.7-.9-.7-.9v-.2Z"/>
  <path class="st4" d="M108.1,149.4l.3.2.4.3v.6c0,0-.2-.4-.2-.4l-.5-.7Z"/>
  <path class="st20" d="M131.1,144.6v.2c0,0,0,.3,0,.3h-.2v.6h-.3l.3-.8.2-.2Z"/>
  <path class="st87" d="M61.4,100.4h.2v.9h-.2v-.9Z"/>
  <path class="st136" d="M61.7,97l.2.2-.2.8h-.2v-1h.2Z"/>
  <path class="st63" d="M45.6,65.1h1.1c0,0-.8.2-.8.2l-.2.2h-.2v-.2c0,0,.2,0,.2,0Z"/>
  <path class="st99" d="M66.7,140.7h.2c0,0,.3.7.3.7l-.2.2-.2-.2v-.2h-.2v-.4Z"/>
  <path class="st33" d="M134.6,138.1v.2c0,0-.2.5-.2.5h-.2v-.5c0,0,.4-.2.4-.2Z"/>
  <path class="st121" d="M8.2,132.2h1.1c0,0-.8.2-.8.2l-.3.2h-.3c0,0,.3-.2.3-.2v-.2Z"/>
  <path class="st86" d="M122.3,140.5l.2.2v.6c0,0-.2,0-.2,0v-.7Z"/>
  <path class="st48" d="M80.5,133.6h.2c0,0-.2.2-.2.2l-.3.2h-.2c0,0,0,0,0,0h-.2v-.2c0,0,.2,0,.2,0l.2-.2h.2Z"/>
  <path class="st159" d="M77.7,119.9l.5.2h0c0,0-1.1,0-1.1,0v-.2h.7Z"/>
  <path class="st96" d="M67.3,74.8h.2c0,0-.4.5-.4.5l-.3.2h-.2c0,0,.8-.7.8-.7Z"/>
</svg>