<?xml version="1.0" encoding="UTF-8"?>
<svg id="Layer_1" xmlns="http://www.w3.org/2000/svg" version="1.1" viewBox="0 0 500 500">
  <!-- Generator: Adobe Illustrator 29.2.1, SVG Export Plug-In . SVG Version: 2.1.0 Build 116)  -->
  <defs>
    <style>
      .st0 {
        fill: #e6632a;
      }

      .st1 {
        fill: #e37b33;
      }

      .st2 {
        fill: #e76a2b;
      }

      .st3 {
        fill: #e76c2f;
      }

      .st4 {
        fill: #801214;
      }

      .st5 {
        fill: #df6127;
      }

      .st6 {
        fill: #e23323;
      }

      .st7 {
        fill: #c46c1f;
      }

      .st8 {
        fill: #c66a1e;
      }

      .st9 {
        fill: #d52f25;
      }

      .st10 {
        fill: #e76a2c;
      }

      .st11 {
        fill: #e55b2a;
      }

      .st12 {
        fill: #d85021;
      }

      .st13 {
        fill: #d94d21;
      }

      .st14 {
        fill: #eb8e50;
      }

      .st15 {
        fill: #e77432;
      }

      .st16 {
        fill: #9d1117;
      }

      .st17 {
        fill: #d55b20;
      }

      .st18 {
        fill: #a66c2e;
      }

      .st19 {
        fill: #d73224;
      }

      .st20 {
        fill: #e02f23;
      }

      .st21 {
        fill: #9d1017;
      }

      .st22 {
        fill: #e87133;
      }

      .st23 {
        fill: #d53124;
      }

      .st24 {
        fill: #cf2b23;
      }

      .st25 {
        fill: #e45428;
      }

      .st26 {
        fill: #e6622a;
      }

      .st27 {
        fill: #e55829;
      }

      .st28 {
        fill: #9c1017;
      }

      .st29 {
        fill: #e77e37;
      }

      .st30 {
        fill: #e5672a;
      }

      .st31 {
        fill: #e77934;
      }

      .st32 {
        fill: #9b1016;
      }

      .st33 {
        fill: #dd7c30;
      }

      .st34 {
        fill: #c6671e;
      }

      .st35 {
        fill: #c7651d;
      }

      .st36 {
        fill: #9f1518;
      }

      .st37 {
        fill: #e57d35;
      }

      .st38 {
        fill: #e44e29;
      }

      .st39 {
        fill: #a46a2b;
      }

      .st40 {
        fill: #d52f24;
      }

      .st41 {
        fill: #e56729;
      }

      .st42 {
        fill: #e47734;
      }

      .st43 {
        fill: #e34a28;
      }

      .st44 {
        fill: #e98440;
      }

      .st45 {
        fill: #e67c36;
      }

      .st46 {
        fill: #c46a1d;
      }

      .st47 {
        fill: #e13022;
      }

      .st48 {
        fill: #9f6a2d;
      }

      .st49 {
        fill: #e46629;
      }

      .st50 {
        fill: #e36129;
      }

      .st51 {
        fill: #dc6c28;
      }

      .st52 {
        fill: #dd6b2e;
      }

      .st53 {
        fill: #e76c2d;
      }

      .st54 {
        fill: #c76b1f;
      }

      .st55 {
        fill: #e45e2a;
      }

      .st56 {
        fill: #e6652a;
      }

      .st57 {
        fill: #e04f27;
      }

      .st58 {
        fill: #e23023;
      }

      .st59 {
        fill: #801114;
      }

      .st60 {
        fill: #c5691d;
      }

      .st61 {
        fill: #c36a1d;
      }

      .st62 {
        fill: #9d1217;
      }

      .st63 {
        fill: #ed925a;
      }

      .st64 {
        fill: #c5681d;
      }

      .st65 {
        fill: #e3642d;
      }

      .st66 {
        fill: #e07932;
      }

      .st67 {
        fill: #e67535;
      }

      .st68 {
        fill: #e87f38;
      }

      .st69 {
        fill: #eb8541;
      }

      .st70 {
        fill: #e13023;
      }

      .st71 {
        fill: #e34b28;
      }

      .st72 {
        fill: #861615;
      }

      .st73 {
        fill: #811314;
      }

      .st74 {
        fill: #e87635;
      }

      .st75 {
        fill: #e23a25;
      }

      .st76 {
        fill: #e04f26;
      }

      .st77 {
        fill: #da5722;
      }

      .st78 {
        fill: #e68038;
      }

      .st79 {
        fill: #e88037;
      }

      .st80 {
        fill: #e17331;
      }

      .st81 {
        fill: #a26a2c;
      }

      .st82 {
        fill: #e77a35;
      }

      .st83 {
        fill: #811114;
      }

      .st84 {
        fill: #db4621;
      }

      .st85 {
        fill: #d65b21;
      }

      .st86 {
        fill: #e87432;
      }

      .st87 {
        fill: #ec873c;
      }

      .st88 {
        fill: #a91f1c;
      }

      .st89 {
        fill: #851615;
      }

      .st90 {
        fill: #e6602a;
      }

      .st91 {
        fill: #a2692c;
      }

      .st92 {
        fill: #e6692c;
      }

      .st93 {
        fill: #e6682a;
      }

      .st94 {
        fill: #c4691d;
      }

      .st95 {
        fill: #e33925;
      }

      .st96 {
        fill: #e26628;
      }

      .st97 {
        fill: #df7b32;
      }

      .st98 {
        fill: #e25d28;
      }

      .st99 {
        fill: #e87131;
      }

      .st100 {
        fill: #a4642c;
      }

      .st101 {
        fill: #e6632b;
      }

      .st102 {
        fill: #ea7f39;
      }

      .st103 {
        fill: #c46b1d;
      }

      .st104 {
        fill: #e6642a;
      }

      .st105 {
        fill: #d75621;
      }

      .st106 {
        fill: #a11218;
      }

      .st107 {
        fill: #a01218;
      }

      .st108 {
        fill: #d53125;
      }

      .st109 {
        fill: #e03222;
      }

      .st110 {
        fill: #821414;
      }

      .st111 {
        fill: #e55d29;
      }

      .st112 {
        fill: #eb853a;
      }

      .st113 {
        fill: #e44b29;
      }

      .st114 {
        fill: #e97535;
      }

      .st115 {
        fill: #e3632b;
      }

      .st116 {
        fill: #821314;
      }

      .st117 {
        fill: #d72f24;
      }

      .st118 {
        fill: #e98038;
      }

      .st119 {
        fill: #e44c29;
      }

      .st120 {
        fill: #e34828;
      }

      .st121 {
        fill: #a61b1a;
      }

      .st122 {
        fill: #ea843f;
      }

      .st123 {
        fill: #e23123;
      }

      .st124 {
        fill: #8d1115;
      }

      .st125 {
        fill: #a0692c;
      }

      .st126 {
        fill: #e36929;
      }

      .st127 {
        fill: #e03422;
      }

      .st128 {
        fill: #e15c27;
      }

      .st129 {
        fill: #e12f23;
      }

      .st130 {
        fill: #cb6e23;
      }

      .st131 {
        fill: #ea7e37;
      }

      .st132 {
        fill: #d62f24;
      }

      .st133 {
        fill: #eb863b;
      }

      .st134 {
        fill: #d85321;
      }

      .st135 {
        fill: #e44b28;
      }

      .st136 {
        fill: #e87230;
      }

      .st137 {
        fill: #ea7e38;
      }

      .st138 {
        fill: #eb853b;
      }

      .st139 {
        fill: #9e1117;
      }

      .st140 {
        fill: #e77131;
      }

      .st141 {
        fill: #dd692a;
      }

      .st142 {
        fill: #891916;
      }

      .st143 {
        fill: #e34928;
      }

      .st144 {
        fill: #d52e24;
      }

      .st145 {
        fill: #ea8239;
      }

      .st146 {
        fill: #971016;
      }

      .st147 {
        fill: #e35f28;
      }

      .st148 {
        fill: #9f692c;
      }

      .st149 {
        fill: #e55c29;
      }

      .st150 {
        fill: #da4129;
      }

      .st151 {
        fill: #e23223;
      }

      .st152 {
        fill: #dd4222;
      }

      .st153 {
        fill: #e56529;
      }

      .st154 {
        fill: #a51719;
      }

      .st155 {
        fill: #a76d2f;
      }

      .st156 {
        fill: #e34c28;
      }

      .st157 {
        fill: #e67230;
      }

      .st158 {
        fill: #e13223;
      }

      .st159 {
        fill: #e25927;
      }

      .st160 {
        fill: #c6681d;
      }

      .st161 {
        fill: #e36b2c;
      }

      .st162 {
        fill: #e2642b;
      }

      .st163 {
        fill: #e56e2e;
      }

      .st164 {
        fill: #dc5f24;
      }

      .st165 {
        fill: #9f1418;
      }

      .st166 {
        fill: #cc601f;
      }

      .st167 {
        fill: #c86a1e;
      }

      .st168 {
        fill: #e46129;
      }

      .st169 {
        fill: #e34727;
      }

      .st170 {
        fill: #d65a21;
      }

      .st171 {
        fill: #ca6920;
      }

      .st172 {
        fill: #df4e24;
      }

      .st173 {
        fill: #e7692b;
      }

      .st174 {
        fill: #811214;
      }

      .st175 {
        fill: #c8641e;
      }

      .st176 {
        fill: #d53025;
      }

      .st177 {
        fill: #e46729;
      }

      .st178 {
        fill: #c6661d;
      }

      .st179 {
        fill: #e56e30;
      }

      .st180 {
        fill: #e34728;
      }

      .st181 {
        fill: #e55729;
      }

      .st182 {
        fill: #e5642a;
      }

      .st183 {
        fill: #dd4f24;
      }

      .st184 {
        fill: #e23e27;
      }

      .st185 {
        fill: #d43024;
      }

      .st186 {
        fill: #aa1c1b;
      }

      .st187 {
        fill: #9e1217;
      }
    </style>
  </defs>
  <path class="st58" d="M178.7,205.4h4.4v149l-.7.5h-35.8l-.5-.5v-58h-38.2v57.6l-1.7.5h-34.4l-1-.5v-148.2l.5-.5h36.2v58.4h38.2v-58.2h32.4l.5-.2h0Z"/>
  <path class="st58" d="M252.7,203.4h8.3l4.9.5,4.9,1,4.2,1.2,4.9,1.9,4.7,2.2,4.2,2.6,2.6,1.9,2.2,1.7,2.6,2.4,2.2,2.2,1.4,1.7,1.9,2.6,1.9,3.1,1.2,1.9,2.2,4.9,1.4,3.9,1.4,4.9,1,5.4.7,6.8.5,4.9.5,9v19.7l-.5,9.2-.7,7.8-.7,5.6-1,4.9-1.7,5.4-1.7,3.9-1.7,3.1-1.7,2.6-1.9,2.6-2.2,2.6-2.4,2.6-1.9,1.9-2.6,2.2-2.9,2.2-3.7,2.2-2.9,1.7-4.9,1.9-5.6,1.7-5.4,1.2-5.4.7h-8.3l-5.9-.5-4.4-.7-4.2-1-3.7-1.2-4.2-1.7-3.7-1.7-3.4-1.9-3.7-2.6-2.6-2.4-2.6-2.4-1.4-1.4-1.7-2.2-2.6-3.4-2.4-3.9-1.9-4.2-1.4-3.9-1.4-4.9-1.2-5.6-.7-6.1-.5-8.3v-32.6l.5-7.1.7-6.3,1.2-5.9,1.2-4.4,1.7-4.7,1.7-3.7,1.9-3.7,2.6-3.7,2.4-2.6,2.4-2.6,1.7-1.4,1.9-1.7,3.4-2.6,4.2-2.6,3.7-1.9,4.9-1.9,2.9-1,5.9-1.4,5.9-.7h2.6l.2-.2v.4ZM253.5,237.5l-3.1.5-3.1,1.4-2.2,1.7-1.7,1.4-1.2,1.7-1.2,1.9-1.4,2.6-1.4,4.2-1,4.9-.5,5.6v30.9l.5,6.3.7,4.9.7,3.1,1.9,4.9,1.4,2.2,1.7,1.9,1.7,1.7,2.6,1.7,3.1,1.2,2.2.5h6.6l3.1-1.2,3.1-1.7,1.9-1.7,1.7-2.2,1.2-2.2,1-2.4,1.2-4.2,1.2-7.1.5-3.9v-28.7l-.5-5.1-1-7.1-.7-3.4-1.4-3.7-1.7-2.9-1.4-1.7-1.7-1.9-2.6-1.7-2.6-1.2-2.9-.5h-4.9l.2-1h0Z"/>
  <path class="st58" d="M318.9,205.6h94v32.4l-1,.5h-27.5v115.1l-.5,1h-35.8l-.7-.5v-1.7l-.5-113.9h-28l-.5-.5-.5-2.6v-28.9l.5-.7h.5,0Z"/>
  <path class="st73" d="M167.8,74.9h3.1l3.4,1,3.4,1.7,2.2,1.4,1.9,1.7,1.9,1.7,1.7,1.7,1.7,2.6,1,2.4v4.2l-.7,4.7-1.7,7.1-3.7,11-1.4,4.4h0l1.7-1.7,2.4-3.1,2.6-3.1,1.7-1.9,1.4-1.7,2.6-2.6,1.7-1.4,2.4-2.2,3.1-2.4,2.9-1.9,4.2-1.9,1.7-.5h3.1l3.4.5,3.1,1.2,2.2,1.2,2.6,1.9,1.7,1.9,1.7,2.6.5,1.7v3.1l-.5,4.2-1.7,6.6-1.9,5.9-2.2,5.9-2.4,5.9-2.2,4.9-2.6,6.3-2.9,7.1-2.4,5.9-2.4,7.3-.5,2.4v2.4l.7,1,.7.5h3.1l3.1-.5,1,1v1.2l-1.4,1-1.9.7-2.4.5-3.4.5h-4.4l-2.6-.7-1.9-1.4-1.7-1.7-1.2-1.9-1.2-4.2v-5.6l.5-3.1,1.2-4.2,1.4-3.7,2.4-5.9,1.9-4.7,2.6-5.9,2.2-4.9,2.6-5.9,3.1-7.8,1.9-5.9,1.2-3.7.7-3.1v-3.9l-1-1.7-1.2-.5h-2.4l-2.6.7-3.4,1.7-3.4,2.4-1.9,1.7-1.7,1.4-4.4,4.4-1.7,2.2-2.2,2.6-1.7,2.4-2.6,3.7-3.7,5.4-2.2,3.7-2.6,4.2-2.6,4.9-1.9,3.7-2.6,4.7-2.9,5.9-3.7,7.3-1.7,3.1-1.9,3.7-1.7,1.9-1.7,1.2-1.7.5-4.2.7h-5.1l-3.1-.7-1.2-.5-1-1v-1.4l2.6-4.9,1.9-3.7,3.9-8,2.6-5.9,2.9-6.6,2.6-5.9,1.9-4.7,2.6-6.1,2.2-5.6,2.6-7.1,2.2-6.6,1.7-5.6,1.4-6.1.5-3.7v-4.2l-.5-2.4-1.2-1.7-.5-.5h-2.2l-2.9.7-4.2,1.9-2.6,1.7-2.9,2.6-3.7,3.7-1.7,2.2-1.7,1.7-2.4,3.1-1.7,2.6-1.4,1.9-3.9,6.3-2.6,4.9-2.4,4.4-2.6,4.9-3.9,7.8-1.7,3.1-2.9,6.6-2.2,4.9-3.7,7.8-2.9,5.6-2.6,4.9-2.6,4.4-2.9,4.9-1.9,3.1-1.4,1.9-2.4,3.7-1.9,2.6-1.7,1.7-2.4,1-2.6.5-4.4.5h-1.9l-3.7-.5-3.1-.7-.5-1,1.2-1.9,2.2-2.6,1.9-2.6,4.9-6.8,1.9-2.9,2.4-3.7,2.9-4.9,2.6-4.9,2.4-4.4,1.9-3.7,4.4-9.2,1.9-4.4,2.4-5.9,2.9-7.8,2.4-7.1,1.7-5.6,1.4-5.9,1.2-6.3.5-3.4v-4.2l-.5-2.6-1.2-1.9-1-1-1.2-.7h-4.4l-2.9.7-2.9,1.2-3.7,1.9-2.6,1.9-2.2,1.7-2.4,2.2-1.7,1.4-2.2,2.2-1.4,1.7-1.9,2.4-1.7,2.4-1.7,2.6-1.2,1.9-1.9,3.7-1.7,3.9-.7,2.6v6.6l.5,1.9.7,1.2,1.7,1.2h1.9l1.7-.7,3.1-2.4,2.2-1.7,2.4-1.2h2.2l1.9,1,1,1,1.2,1.7.5.7v1.9l-.7,1.9-1.7,2.6-1.9,1.9-3.1,1.7-3.4,1h-6.3l-2.4-1-2.4-1.7-1.4-1.7-1.7-2.6-1-2.4-.5-2.6v-5.6l1-4.7,1.2-3.4,2.4-4.9,2.4-3.9,2.2-2.9,1.9-2.6,1.9-2.2,1.4-1.7,1.9-1.9,1.7-1.4,1.9-1.7,3.7-2.6,3.7-2.4,3.1-1.7,3.7-1.7,3.7-1,4.7-.5h4.7l5.1,1,2.9.7,2.6,1,1.9,1.2,1.7,1.7,1.2,1.9.7,2.6v1.4l.5,3.4v4.4l-.5,3.7-.7,4.7v2.4l1.4-1.9,3.9-5.9,1.4-1.9,2.6-3.7,1.9-2.4,1.7-1.9,2.9-3.1,1.7-1.9,2.6-2.4,3.4-2.6,4.2-2.4,2.6-1,3.4-.5-1-2.4.2.2Z"/>
  <path class="st116" d="M317.2,49.4h3.4l2.6,1,2.6,1.4,2.4,2.2,1.2,1.9v2.4l-1.7,4.9-1.4,3.4-3.1,6.6-3.1,5.9-2.4,3.7-1.7,2.6-1.9,2.9-2.4,3.7-2.6,3.9-2.4,3.7-2.6,3.7-1.9,2.6-2.4,3.4-1.7,1.9-1.7,2.2-2.4,3.4-1.7,2.4-4.4,5.6-1.9,2.4-1.7,1.9-2.2,2.6-2.4,2.6-1.9,3.1-1.9,5.9-.5,2.2,1.7-2.4,1.9-2.9,1.7-1.9,1.7-2.2,2.2-2.6,1.7-1.9,2.9-2.9,2.2-1.7,1.9-1.4,1.9-1.2,3.9-1.7,4.7-1.2h2.6l3.1.5,2.9,1.2,2.6,1.7,1.9,1.7.5,1.4v2.9l-1,3.4-2.4,4.9-2.2,3.1-2.2,2.6-1.4,1.7-1.7,1.4-1.4,1.2-1.7,1.2-3.4,1.7v1l.5,1.7,2.4,4.9,1.9,3.4,1.9,2.6,2.2,2.6,4.2,4.2,3.4,2.6,3.4,1.9,2.9,1.4,3.7,1.2,2.9.5h7.8l4.4-.7,3.1-1,1.9-.5h1.7l.5.5v1.2l-1.4,1.4-4.2,1.9-5.1,1.9-5.9,1.4-2.6.5h-9.2l-4.9-1-4.9-1.7-4.2-1.9-3.4-2.2-3.4-2.6-3.1-2.9-1.9-1.9-1.7-2.2-2.6-3.7-1.7-2.9-1.9-3.7-1.7-3.9-1-2.6v-1.2l1-1.2,2.9-2.2,3.7-2.4,2.6-2.2,1.7-1.4,1.9-2.2,2.2-2.6,2.6-3.7,2.2-3.7,1.2-3.1v-1.4l-1.2-1h-3.4l-2.9,1.2-3.4,1.7-2.4,1.7-3.4,2.6-3.4,3.4-2.4,3.1-2.6,3.7-2.2,3.4-1.9,3.4-2.2,4.7-1.4,3.1-1.7,4.9-.7,2.6-.7,4.2-.7,7.8-.5,4.7-.5,1.7-.5.5h-4.4l-2.9-.7-2.2-1.4-1.4-1.7v-4.7l.5-4.9,1-6.6.7-4.2v-1.7l-1.9,1.7-4.4,4.4-2.2,1.7-2.6,1.9-3.9,2.6-3.1,1.7-3.4,1h-1l-3.4.5-2.9-.5-1.9-.7-2.2-1.7-1.7-2.2-1-2.6v-2.6l.7-3.9,1.9-5.9,2.2-4.9,4.7-9.2,2.6-4.9.7-1.7-4.2.7h-1.7l-.5-.7,1-1.7,1.9-1.9,3.7-2.6,2.2-1.2,2.4-1,1.9-.5h3.1l2.2.7,2.2,1.7,1.2,1.7v1.7l-.5,1.9-1.7,3.4-1.7,3.1-4.9,9.2-1.7,3.1-3.1,6.1-1.7,3.7-1.7,4.9v1.7l.5,1.2,1,.5h1.2l3.1-1.7,3.1-2.4,2.6-2.2,1.7-1.4,2.6-2.4,3.1-2.9.5-.5h.5v-.5l3.7-3.7,1.4-1.7.5-.7,1.7-5.1,1.9-7.1,2.6-8.3,2.6-7.3,2.9-7.8,1.7-4.2,2.6-5.9,1.7-3.9,2.6-5.6,3.4-6.8,1.9-3.7,1.7-2.6,2.6-4.7,2.6-4.4,3.4-4.9,2.6-3.4,2.2-2.6,2.9-3.1,1.7-1.7,2.6-2.2,2.6-1.7,1.9-.7h1.7l2.2-1.4.6-.2ZM324.3,56.2l-1.9.5-2.4,1.7-1.9,1.7-2.4,2.6-1.7,2.2-2.6,3.7-1.7,2.4-1.4,1.9-1.9,3.1-2.6,4.2-1.9,3.7-2.6,4.7-5.9,11.5-2.6,5.9-2.4,5.4-3.7,8-.7,2.6,1-.5,2.4-2.4,1.7-1.9,2.6-3.7,1.9-2.6,2.2-2.6,6.6-8.7,2.2-2.9,1.7-2.2,1.9-2.6,2.6-3.7,2.4-3.7,1.4-1.9,2.2-3.4,1.2-1.9,1.7-2.6,1.7-2.9,1.7-2.9,1.4-2.6,1.7-3.7.7-3.4-.5-1.7-.5-.5h-1l-.5-.2v-.2Z"/>
  <path class="st9" d="M265.6,368.5h7.1v80.1h0l-10.3.5h-4.9l-1.4-.5-2.6-4.4-1.4-1.9-1.9-3.1-2.2-3.4-2.6-4.2-2.2-3.4-2.4-3.7-3.1-4.9-2.4-3.9-2.6-4.2-1.7-2.4-.5-.5v40.4h-19.7v-80.6h15.6l1,.5,1.4,1.9,2.6,4.7,2.6,4.4,2.4,3.7,2.6,3.9,1.9,3.1,1.9,2.9,3.1,4.9,1.7,2.6,2.6,4.9,1.7,2.2h0v-39.4l.5-.5h12.4l.7.2v.2Z"/>
  <path class="st58" d="M126.4,368.5h5.4v80.1h-19.5v-.5l-.5-3.4v-27.7h-20.9v31.2h-19.5v-79.1l.5-1h19.5v31.7h20.9v-31.7h14.6l-.5.5h0Z"/>
  <path class="st70" d="M168,367.5h7.1l4.9,1,3.7,1.2,3.1,1.7,2.6,1.7,1.9,1.7,3.7,3.7,1.7,2.6,1.9,3.7,1.2,3.4.7,3.1.5,4.4.5,7.1v11.5l-.5,7.5-.5,4.9-.7,3.7-1.4,3.9-1.7,2.9-2.4,3.1-1.7,1.9-2.6,2.2-2.9,1.9-4.2,1.9-4.9,1.4-3.7.5h-5.6l-4.9-.5-3.7-1-3.9-1.7-2.6-1.7-2.2-1.7-1.9-1.7-2.2-2.2-1.9-2.6-2.2-4.2-1.2-3.7-.7-3.9-.5-5.6v-22.4l1-6.6,1-3.7,1.2-3.1,1.7-3.4,2.4-3.1,2.6-2.6,2.4-1.7,4.2-2.4,3.1-1.4,3.7-1,3.7-.5.2-.2h0ZM169.7,386l-2.6.7-1.9,1.2-1.7,1.9-1.2,2.6-.7,2.9-.5,4.2-.5,6.1v11.9l.7,4.4.7,2.9,1.4,2.6,2.6,2.6,2.6,1,3.4.5,2.4-.5,1.7-.7,2.4-2.2,1.7-3.1.7-3.4.5-3.7v-15.6l-.5-5.9-.7-3.7-1.4-3.1-1.7-1.9-1.7-1.2-2.2-.7h-3.7,0Z"/>
  <path class="st4" d="M255.2,203.4h5.9l4.9.5,4.9,1,4.2,1.2,4.9,1.9,4.7,2.2,4.2,2.6,2.6,1.9,2.2,1.7,2.6,2.4,2.2,2.2,1.4,1.7,1.9,2.6,1.9,3.1,1.2,1.9,2.2,4.9,1.4,3.9,1.4,4.9,1,5.4.7,6.8.5,4.9.5,9v19.7l-.5,9.2-.7,7.8-.7,5.6-1,4.9-1.7,5.4-1.7,3.9-1.7,3.1-1.7,2.6-1.9,2.6-2.2,2.6-2.4,2.6-1.9,1.9-2.6,2.2-2.9,2.2-3.7,2.2-2.9,1.7-4.9,1.9-5.6,1.7-5.4,1.2-5.4.7h-6.3v-5.9l.5-4.9v-6.3l4.7-.5,5.9-1.2,3.7-1,5.6-2.2,3.4-1.7,2.6-1.9,2.6-2.4,2.6-2.9,1.9-2.9,1.7-3.1,1-2.4,1.2-3.9,1-4.9.7-7.5.5-10.5v-17.6l-.5-10.5-.5-4.9-.7-6.6-1-4.9-1.4-4.2-1.7-3.1-1.4-2.2-2.4-3.1-1-1-2.4-2.2-3.1-2.2-2.4-1.4-3.9-1.7-4.9-1.7-2.6-.7-7.3-1.2h-2.2v-17.3l.5-.5-.2.3Z"/>
  <path class="st123" d="M285.3,369h53.3v.5l.5,4.2v12.7l-1,.5h-32.9v11.2l-.5,1.2h28.9v17.8h-28.7v14.4h33.8v17.3h-1.4l-39.4.5h-12.7v-80.1h0Z"/>
  <path class="st4" d="M367.3,223.9h35l1.9.7,2.4,2.2,2.2,2.2,1.7,2.6,1.7,2.4v.5h.5v3.9h-28.2v115.1l-.5,1h-3.7l-.5-.5-2.2-.7-1.7-1v-.5h-.5v-.5h-.5v-.5l-1.2-.5-2.2-1.7-1.7-1.4-1.2-1.2v-.5h-.5l-1-1.2v-106.6l.5-13.4v-1l-.5.5h0Z"/>
  <path class="st174" d="M179.2,205.6h3.9v148.7l-.5.5h-3.4l-2.6-1v-.5h-1v-.5l-1-.5v-.5h-1v-.5l-1-.5-3.4-2.4-3.4-2.6-.5-.5v-107.1l.5-21.9.5-1.2,1.9-1.7,2.2-1.7,1.9-1.4,3.7-2.4,3.4-2.2h-.2v-.2Z"/>
  <path class="st116" d="M389,104.4h1.7l1.9,1.2,2.2,1.7,1.4,1.7,1.2,2.4v1.9l-1.7,4.9-1.9,4.4-1.7,3.1-1.7,2.9v1l1.2,1.4,3.7,2.6,7.1,4.9,1.7.5,2.6-1,6.3-1.7,4.9-.7,4.9-.5h3.4l1.7.7.5,1.7v.7l-1.7.5-7.5.7-7.1,1.2-5.1,1.2h-.5l1.9,2.6,1.7,2.4,2.2,4.2,1.2,3.7.5,3.1v5.1l-.5,2.9-1,2.9-1.9,3.7-1.4,1.9-2.4,2.6-2.6,2.4-2.9,1.9-4.7,2.2-3.4,1-4.9.7h-4.4l-3.1-.5-3.7-1.4-2.4-1.7-2.6-2.6-1.7-2.6-1.2-2.9-.5-1.7v-3.7l.7-3.9,1.7-3.4,2.4-2.9,1.4-1.7,3.7-3.7,2.6-2.2,3.1-2.2,3.9-2.4,2.6-1.7,4.9-2.6,1.7-1v-.5l-3.7-2.6-3.4-2.4-1.4-1-2.2-.7-1.4,1.9-3.1,4.9-2.2,2.6-1.9,2.6-1.9,2.6-2.4,2.6-1.4,1.7-4.2,4.2-2.2,1.7-1.9,1.7-3.4,2.4-3.7,2.4-4.2,2.2-5.1,1.9-3.4.7-5.1.5h-5.1l-3.7-.5-3.7-1.4-2.6-1.9-1.7-1.7-1.7-2.6-1.2-3.1-.5-1.9v-3.9l.5-2.4,1.4-4.9,1.4-3.1,1.7-3.1,1.9-3.4,1.9-2.6,1.7-2.2,2.4-2.6,3.1-3.1,2.6-2.2,1.9-1.4,3.9-2.2,4.2-1.7,3.7-.7h4.4l2.6.7,1.9,1.4,1.7,1.7,1.4,2.2.5,1.7v2.6l-.7,1.7-1.7,2.2-2.4,2.6-2.6,2.6-2.2,1.7-1.9,1.7-2.6,1.7-3.9,2.4-3.1,1.7-3.7,1.4-5.4,1.4-1,.5-.7,1.7-1.2,5.6v3.7l.5,2.6,1,1.9,1.7,1,1.7.5h4.9l3.9-.5,4.9-1.7,2.9-1.4,2.9-1.7,3.1-2.2,3.1-2.4,2.6-2.4,2.6-2.4,1-1,2.6-2.9,2.4-2.6,1.4-1.7,2.6-3.4,2.6-3.7,1.9-2.6,1.4-2.2.5-.7v-1l-1.7-1.9-1.9-1.9-1.2-1.9v-2.4l.7-4.2,1.9-4.9,2.6-4.9,1.4-1.7,1.7-2.2,1.2-.7.5,1.4h.6ZM356.4,126.1l-2.6.7-2.9,1.7-2.6,1.7-1.9,1.7-1.7,1.4-2.2,2.2-1.7,2.2-1,1.2-2.4,3.4-1.7,2.6-.5,1.7h1.9l2.6-.7,4.9-2.2,4.4-2.6,2.6-1.9,1.7-1.4,2.6-2.4,2.4-2.4,1.7-2.2,1.4-2.9-.7-1-1.4-.5h-2.6l-.2-.2h-.2ZM401.4,144.6l-2.6,1-4.9,2.4-4.9,2.6-3.7,2.4-2.2,1.7-1.9,1.7-2.6,2.6-1.9,2.6-1.7,2.9-.5,1.7v2.6l.7,1.9,1.2,2.2,1.7,1.2,1.9.7h3.9l3.7-1,3.1-1.4,2.2-1.2,2.4-1.7,2.4-2.2,2.4-3.4,1-1.9,1.2-3.9.5-3.7v-5.9l-.7-3.1-.5-1.4h-.5l.2.2v.3Z"/>
  <path class="st58" d="M71.1,205.6h7.1l.5,1.7.7.5.7.5v.5l1,.5,2.6,1.9,1,.7,1.7,2.6.7,1.4.5,5.1v123.9l-2.4,2.4-2.4,2.2-3.7,2.6-3.1,1.9-.5.5h-3.7l-1-.5v-148.2h.5l-.2-.5v.2Z"/>
  <path class="st58" d="M360.5,368h4.7l1,1.2,1.7,3.1,3.4,7.5,3.1,7.1,2.2,4.9,1.2,2.9,1,1.2h.5l.7-1.2,1.4-3.1,1.9-4.7,1.4-2.6,2.6-5.6,3.7-7.3,1.4-2.6h0l3.7-.5h15.8v.5l-1.9,4.7-3.1,7.1-2.9,6.6-3.1,7.1-2.6,5.6-3.1,6.8-3.4,7.1-1.7,4.2-.5,1.2v30.4h-.5l-11.5.5h-7.8l-.5-.5v-29.2l-.5-1.7-1.4-3.1-2.6-5.9-2.6-5.6-2.6-5.9-2.9-6.3-2.4-5.1-3.1-7.1-2.2-4.9-2.2-4.7v-1.2h14.6l-.5-.7h-.3Z"/>
  <path class="st4" d="M255.2,222.9l5.1.5,2.2.5v.5h-2.9l-1.7-.5h-1.9v13.4h0l-5.4,1.2-3.1,1.4-2.2,1.7-1.4,1.2-1.2,1.7-1.2,1.9-1.4,2.6-1.4,4.2-1,4.9-.5,5.6v30.9l.5,6.3.7,4.9.7,3.1,1.9,4.9,1.4,2.2,1.7,1.9,1.7,1.4,2.6,1.7,3.1,1.2,4.7.7v14.4h-3.1l-4.4-.5-3.7-1-1.9-.5-2.4-1-3.1-1.7-2.4-1.4-1.7-1-2.6-1.9-2.6-2.4-2.2-2.6-1.7-3.1-1.9-4.9-1.2-3.9-.5-2.6-.5-4.7-.5-4.9v-35l.7-7.5.7-5.9.5-2.9,1.2-3.7,1.9-4.4,1.7-2.4,1.7-2.2,1.9-1.9,3.4-2.4,3.7-2.2,4.2-1.9,2.6-1,3.1-.7,3.4-.7,2.9-.5h2.6l-.7-1-.2-.2Z"/>
  <path class="st58" d="M257.8,223.7h2.4l1.4.5h1.7l3.4.5,4.2,1.4,3.7,1.7,3.7,2.2,2.6,1.9,3.7,3.7,1.7,2.6,1.7,3.1,1.4,3.7.5,1.9.5,3.7.7,3.7,1,6.1.5,3.7v32.9l-.5.5v4.4l-.5,4.2-.5,3.7-.5,2.6-.5,2.4-1,2.4-1.4,3.1-1.7,2.6-1.4,1.7h-.5l-.5.7-3.1,3.1-1.9,1.7-1,1-1.9,1.4-2.4,1.2-1.7.5-2.4,1-4.4,1.4-3.1.5-5.1.5h-5.9v-.5h4.9v-14.1h-1,2.4l2.9-.5,3.1-1.2,3.1-1.7,1.7-1.7,1.7-2.2,1.2-2.2,1-2.4,1.2-4.2,1.2-7.1.5-3.9v-28.7l-.5-5.1-1-7.1-.7-3.4-1.4-3.7-1.7-2.9-1.4-1.7-1.7-1.7-2.6-1.7-2.6-1.2-2.9-.5h-4.2v-.5h1.4v-13.4l2.2-.5.5-.5h-.2Z"/>
  <path class="st4" d="M90.1,281.4h72.6v1.7l-2.9,1.7-2.2,1.7-3.4,3.4-1.7,1.4-6.3,6.3v-1h-38.5v57.6l-1.7.5h-2.2l-2.6-1.4-2.6-1.7-2.6-1.9-2.4-1.7-1.9-1.9-1.4-1v-63.3h.5l-.2-.5h-.2Z"/>
  <path class="st174" d="M265.6,368.5h7.1v80.1h0l-10.3.5h-4.9l-.5-.5,2.6-3.7.7-1.9.5-.5,1.4-.5v-1l-1.7-3.1-1.4-2.2-2.9-4.9-1.4-2.2-2.6-3.9-1.7-2.6-2.6-4.2-2.2-3.7-2.6-4.4-2.4-3.7-3.1-4.9-2.6-3.9-2.9-4.9-2.6-4.7-2.2-3.4-2.4-4.2-2.9-5.6-.7-1.4v-.7l2.2-1.7,1-1.2v-1.2h2.2l1,.5,1.4,1.9,2.6,4.7,2.6,4.4,2.4,3.7,2.6,3.9,1.9,3.1,1.9,2.9,3.1,4.9,1.7,2.6,2.6,4.9,1.7,2.2h0v-39.4l.5-.5h12.4l.5.2v.2Z"/>
  <path class="st58" d="M318.9,205.6h93.7v3.1l-.5,2.6-1.9,2.9-1.4,1.7-1.7,1.4-3.7,2.6-1.9,1.2-2.6.5-3.7.7h-2.6l-1.7-.7h-1v-.5h-32.4l-2.2.5v.7h-1.9l-2.2-1-2.9-.5h-4.7l-5.9-.5-4.2-.5v.5h-1.9l-2.9-.7-1.7-1.2-2.4-2.4-1.4-1.7-1.4-1.2-1.4-1.7v-1l-1.2-.5v-5.4h0v.7h-.3Z"/>
  <path class="st58" d="M168,367.5h3.4v1.9l-.5,2.6-.5,1.4h-.5v1.9h2.6l2.9.5v.5h-5.6,2.2v.7h-1.9l-4.2,1.4-3.4,1.4-2.4,1.4-2.6,1.9-2.2,2.6-1.7,3.7-.7,2.6-.5,2.4v19l.5,6.8.5,2.6.7,3.4,1.2,3.1,1,1.7,1.4,1.7,1.7,1.7,2.6,1.7,2.6,1,1.7.5h5.6l.5.5h3.1l3.1-1,1.7-.5.7-.7h1v-.5h1.7v-.7h.7l.5-.7.7.5-1.7,1.4-3.4,1.9-2.9,1.2-4.2,1-4.2.5.7,2.2.5,3.1v2.9h3.1-5.6l-4.9-.5-3.7-1-3.9-1.7-2.6-1.7-2.2-1.7-1.9-1.7-2.2-2.2-1.9-2.6-2.2-4.2-1.2-3.7-.7-3.9-.5-5.6v-22.4l1-6.6,1-3.7,1.2-3.1,1.7-3.4,2.4-3.1,2.6-2.6,2.4-1.7,4.2-2.4,3.1-1.4,3.7-1,3.7-.5.5.5.4.3Z"/>
  <path class="st59" d="M104,205.6h3.7v58.4h1l-1,1-2.2,1.7-2.6,2.4-2.2,1.7-3.1,2.9-1.7,1.7-1.4,1.7-1.4,1.2-1.7.7h-1.2v-57.2l.5-5.9.5-1,1.9-1.7,1.9-1.7,2.6-1.9,5.9-3.7.5-.5h.2-.2Z"/>
  <path class="st58" d="M162.9,282.3h0l.5,11.2v52.1l-1.4,1.4-1.9,1.7-2.6,1.9-3.4,2.4-3.1,1.7h-4.7v-56.9l2.6-2.6,5.1-5.1,1.7-1.4,2.6-2.6,2.2-1.7,2.2-1v-.7l.2-.2h0Z"/>
  <path class="st174" d="M171.4,367.5h3.7l4.9,1,3.7,1.2,3.1,1.7,2.6,1.7,1.9,1.7,3.7,3.7,1.7,2.6,1.9,3.7,1.2,3.4.7,3.1.5,4.4.5,7.1v11.5l-.5,7.5-.5,4.9-.7,3.7-1.4,3.9-1.7,2.9-2.4,3.1-1.7,1.9-2.6,2.2-2.9,1.9-4.2,1.9-4.9,1.4-2.2.5h-4.7v-.5l-.5-3.1-.5-2.6-.5-1.7v-.5h0l5.1-.7,3.7-1,3.1-1.4,3.1-1.9,1.9-1.9,2.2-3.4,1-2.4.7-2.9.5-2.9.5-6.3v-16l-.5-5.9-.5-3.1-.5-1.9-1.4-2.4-1.2-2.2-2.2-2.4-2.9-2.2-2.9-1.7-3.1-1.2-3.4-.7h-1l-2.6-.5v-2.2h.5v-1l.7-1.7.5-1.7v-1.7l.5-.5-.2-.5Z"/>
  <path class="st174" d="M128.3,368.7h3.4v80.1h-3.7l-1.9-1.4h-.5v-.5l-1-.5h0l-1.4-.5v-.5h-1.7.5v-63l.5-8.5.7-1.7,1.7-1.7,2.6-1.9h.5l.2.2v-.2Z"/>
  <path class="st105" d="M412.6,205.9h0v32.2h0v-3.7h-.5l-2.2-3.4-1.7-2.4-3.1-3.1-1.9-1.2h-.7l-35-.5-.5,14.4v106.9l1,.5v.5h.5l1.4,1.7,2.6,1.9,1.2,1,1.2.5v.5h.5v.5h.5v.5h.7l1.7,1.2,1.7.5.5.5h-27l.7-.5,2.9-1.7,2.2-1.7,1.4-1.2h.5l.5-.7,1.4-1.4h.5l.5-.7,1.4-1.9v-62.1h0v-7.8h.5v-25.1h-.5v-1.4h-.5v-.7h.5v-1.2l-.5-.7v-14.4l.5-1.2-.5-1.4v-4.7h-35.3l-1.9,1-1.9,1.7-1,1-2.2,2.4-2.4,3.7-1,1.9h0v-28.9h.5v4.9l1.4.5v.7l1.2,1.4v.5l.7.5,1.9,1.9,1.4,1.7,1.4,1.4,1.9,1,2.6.5h1.4v-.5l11,.5h4.4l4.4,1v.5h2.2v-.5h0l1.2-.5,3.1-.5h8.3v.5h.7v-.5h21.9l1.7.7h2.6l3.7-.5,2.9-.7,2.2-1.4,3.1-2.4,1.9-1.7,1.2-1.7.5-1,1-1.7.5-2.2v-2.6l.5-.5h-.7l.4-.2Z"/>
  <path class="st174" d="M408.4,368h3.1v.5l-1.9,4.7-3.1,7.1-2.9,6.6-3.1,7.1-2.6,5.6-3.1,6.8-3.4,7.1-1.7,4.2-.5,1.2v30.4h-3.4l-4.2-2.6-1.7-1.2-.5-.5v-25.6l1-2.6,2.6-5.9,1.9-4.7,3.1-7.1,2.2-4.4,1.7-3.4,1.7-3.1,2.6-5.9,2.6-5.6,1.7-2.9,1.7-2.4,1.9-1.4,2.9-1.2,1.7-.5h-.5.2Z"/>
  <path class="st153" d="M178.7,205.4h2.6l-1.9.5-3.4,2.2-2.9,1.9-2.6,1.7-2.9,2.6-1.2,1v1l-.5,21.9v107.1l2.9,2.2,2.6,1.9,2.6,1.7v.5h1v.5l1.2.5v.5h1v.5l2.2.5h.5l2.6.5h-35.8l4.2-.5,3.7-1.9,5.6-3.9,2.6-2.4.5-.5v-52.1l-.5-12.4h-1l-6.6.5h-53.8l-11.2-.5v-.5l1.7-.5.5-1.4h53.8l13.6-.5h3.1l.5-29.4v-24.1l-.5-8-.7-2.9-1-1.7-1.7-1.2-1.7-.7-2.2-1.2-1.7-1.2v-1.7h-6.6l31.9-.5-.7.2h0Z"/>
  <path class="st174" d="M169.4,378h1.9l.5,3.9.7,3.1v.5l-4.2.5-2.4,1-1.7,1.2-1.4,2.2-1,2.4-.5,2.4-.5,4.2-.5,6.1v11.9l.7,4.4.7,2.9,1.4,2.6,2.4,2.4,2.6,1,3.4.5v1.7l-1,.7v2.2l.5.7v1.7h-5.6l-3.4-1-2.9-1.7-2.2-1.7-1.4-1.7-1.2-1.9-1.2-2.9-.7-3.1-.5-1.7-.5-5.6v-22.1l.7-2.9,1-3.1,1.7-2.9,2.4-2.6,2.4-1.7,2.6-1.7,2.9-1.2,2.6-.7h1l.2.2.2-.2Z"/>
  <path class="st70" d="M265.6,368.5h4.2l-.7.5-1.7,1.7-1.9,1.4h-.5v.5l-.5.5h-.5l-.5,2.9v20.2l.5,6.3v11.2l.5,12.2v15.8h-.7l-.7-2.9-.5-2.6-.7-2.6-.7-3.1-1.2-3.1-1.7-4.2-1.9-5.9-2.2-5.9-.7-1.9v-.5l.5.5v-39.7l.5-.5h12.4l-1-.7h-.2Z"/>
  <path class="st56" d="M253.2,220.8h5.9l5.9,1,6.6,2.2,4.2,1.7,3.7,1.9,3.1,2.4,2.4,2.2,1.4,1.7,1.9,2.6,2.4,4.2,1.7,4.4,1,4.4.5,3.9.5,5.9.5,7.5v23.3l-.5,10.5-.7,7.5-1,4.9-1.2,3.9-1.4,3.4-1.7,3.1-1.7,2.4-2.9,3.1-2.6,2.4-3.7,2.4-3.4,1.7-4.9,1.7-5.6,1.4-3.1.5h-8.7l-1.7-.5-1.4-.5-3.4-.7-2.9-1-1.2-.5-1.9-.5v-.5l-1.7-.5-3.9-2.4v-.5l-.7-.5-1.4-1v-.5l-.7-.5-1.9-1.7-2.4-2.4-1.9-2.6-1.7-2.6-1-2.6-.7-2.4h0l-.5-3.1-.7-3.7-.5-2.6-.5-3.7v-30.7l.5-10.3.5-6.6.5-3.9,1-3.9,1-2.6h.5v-1l.5-1.2.7-1.7,1.4-2.2,1.7-2.2.7-1.4,2.6-2.9,1.7-1.7,4.4-2.6,1.7-1,1.7-.5,2.6-1,1.9-1,4.2-1.4,3.4-.7,2.6-.5-1.2.2v-.2ZM255.2,222.9l-4.2.5-3.9.7-2.4.5-2.6.7-2.4,1-3.9,1.9-3.9,2.6-2.6,1.9-2.2,2.2-1.9,2.6-1.7,2.6-1.7,4.4-.7,2.9-.7,4.7-.5,5.4-.5,5.4v30.1l.5,7.5.5,5.1.5,3.7,1.2,4.2,1.7,4.2,1.7,3.1,1.4,2.2,2.4,2.6,2.2,1.9,2.6,1.7,1.9,1.2,4.2,2.2,2.2,1,4.9,1.7,4.2.7h0l1.7.5h4.4l5.1-.5,3.9-.7,4.2-1.4,1.7-.7,3.1-1.4,1.7-1,1.9-1.4,1-1,2.9-2.6,1.7-1.7v-.5h.5l1.4-1.7,1.4-1.9,1.2-2.4,1.7-3.9.5-2.2.7-3.9.5-4.2v-8.3l.5-7.5v-24.6l-.7-6.1-1-5.9-.7-3.4-.5-2.2-1.2-3.7-.7-1.7-1.7-3.4-1.9-2.6-3.7-3.7-2.2-1.7-4.2-2.4-4.9-1.9-4.9-1.4-3.9-.5-5.1-.5-.7,1,.2.2Z"/>
  <path class="st174" d="M220.1,376.8h.7l1.7,3.9,1.9,3.9,1.7,2.6,1.9,2.9,1,1.7v.5h-.5v.5h-1l-1.4-.5.5,2.4,2.9,9.5,1.2,3.7v.5h-.5v40.2h-2.6l-2.9-1.7-3.7-1.4h0v-46l-.5-17.6v-2.6l-.5-.7v-2.2.5h0Z"/>
  <path class="st174" d="M84.1,409.9h35.5v2.6l-.5.5v.7h-.5v.5h-1.9l-.5.5h-.5v.5h-.5v.5l-1.7,1.4-.7,1.2-.5,1.2h0v-1.9h-21.2v31.2h-2.6l-1-.5v-.5h-.7l-4.4-2.4h0v-31.2l.5-4.4h1.9-.8Z"/>
  <path class="st30" d="M71.4,205.6h32.6l-.5.5-4.7,2.9-3.1,2.2-3.4,2.6-1.4,1.2v.7l-.5,5.9v2.6l-.5,14.4v106.4l1,.5,1.9,1.7,1.7,1.4,3.7,2.6,3.7,2.4,1.7,1h-27.7l1-.7,2.6-1.7,2.6-1.7,1.7-1.4,2.6-2.4,1.2-1.4v-123.9l-.5-5.1-1.4-2.4-1-1.4v-.5l-.7-.5-1.7-1.4-2.2-1.4-1.7-1.7v-1.2h-7.1Z"/>
  <path class="st4" d="M331.8,223.7h32.6v.7h-1l-1.2.7-2.2,1.9-1,1-2.9,2.6-1.9,1.7-1.7,1.4-1.9,1.7-1.9,1.7-.7.5h-2.6l-11.2.5h-14.8l-.5-.5v-2.9l1.4-2.6,1.9-2.6,1.9-2.2.7-1,1.7-1.4,1.9-1.2h.7l2.6-.5v.5h0Z"/>
  <path class="st151" d="M126.4,368.5h5.1l-3.1.5-1.7.7-3.4,2.6-.7,1.7-.5,8.5v53.3l-.5,9.9h1.4v.5h1.4l1.2.7v.5l1,.5,1.4,1h0l-3.7.5h-12.4v-.5l-.5-3.4v-27.5h0v1.2l1.4-1.9.7-.7h.5v-.5h.5v-.5l.5-.5h.5v-.5h2.2v-.5h.5l.5-1.9v-1.7h-34.3l-.7-.5,3.7-.5h16.5l.5.5v-.5.5h1.7l1.9-.5h11.9v-38l-1.7-.5-1.7-.5v-.5h-1.9v-.5h11.2l.5-1.2h0Z"/>
  <path class="st174" d="M297.5,378.7h38l.5.7,1.2.5.7.7v1.7h1v3.4l-1.2.5h-32.9v12.9l-1.2,1.7-1.9,1.7-2.6,1.9-2.6,1.9h-.7v-24.6l.5-3.1,1.2-.5.2.5h0Z"/>
  <path class="st70" d="M210.8,369h0v5.1l.7,1.9v.5h0v1.7h0l.5-.5h.5v.5h.5v1.7h.5v-.7l-.5-.7v-1h0v-.7h-.5v-1.2h.5v-1.4h.5l.5.5h.7v-1l1-.5.5.5v1h.5v1l-1.2.5v1.7l-.5.5v.5l-.7-.5.5,1-.5,1h.5l-.5.5v1h.7-.5v1.4h-.5v1.2l.5,1.7h.5v3.9h.5v2.2h-.5v-.5l-.5,1.9h.5l.5.5v3.7l.5,1.9-.5,2.6v.7l.5,1h-.5l.5,1.9v2.4h.5v2.9h.5v1.4l.5.7-.5,1h.5v1.4h0l-.5.7v1.4h.5-.5v2.2h.5v1.2l-.5.7v2.6h-.5v1.9h0v5.1l-.5,1-.5,1.9v1.2h.7v6.6l-.5,2.6h1.4v-1h.5v1.7l-2.9.5-3.7,1.2h-2.2v-79.9l1.9,1v.6Z"/>
  <path class="st58" d="M227.2,388.9h.5v.5h.5l1.7,2.4h.5l.7,1.7.7,1.4,1.7,2.6.7,1,1.2,2.4,1.4,1.9,1.2,2.2.7,1.2h.5v1.4h.5l.7,1.2.5,1,.5.7.7,1.4,1,1.7,1,1.7,1.2,1.9.5,1.2h.5l1.2,1.9,1,1.7,1.7,2.6,4.4,6.6,3.7,5.6,1.9,2.9,1.2,1.9.5.5h-.5l-.5.7-.5,1.7-2.6,3.7h-.5l-1-.7-2.4-3.7-1.4-1.9-1.9-3.1-2.2-3.4-2.6-4.2-2.2-3.4-2.4-3.7-3.1-4.9-2.4-3.9-2.6-4.2-1.7-2.4v-1l-3.1-9.2-1.7-5.9v-.5l1.7.5h1.2l-1.2-2.2-.7-1.2v-1l-.2.6Z"/>
  <path class="st174" d="M328.9,408.9h1.4l.5,1.7h-.5l-1.4.5-.7.5-.7,1.2h-1.9l-1.7.7-1.2.7v1.2h0v.7h-.5v.5l-1.7.5h-15.1v14.8l-2.6,2.6-2.6,2.2-2.4,1.7-1.2.5h0v-29.7h32.9l-.2-.5-.2.2Z"/>
  <path class="st40" d="M171.4,378h2.4l.7.5,3.7,1,1.7.5v.5l.7.5,1,.5,1.7,1.7,1,.5,1.4,1.7,1.7,2.4,1.2,3.7.7,4.2v4.4l.5,2.6v1.7h0v4.9h-.5l.5.7v4.9l-.5.5v4.7l-.5.7-1.2,5.9-.5.5h-.5v-3.7l-.5-.5v-2.6h-.5v-3.7h.5v-1h-.5v-2.6h-2.2v2.6h.7v1.4h-.5l-.5.5v1l-.7.5h-.5v1.2l-.5.5v-.5h-1v-18l-.5-5.9-.7-3.7-1.4-3.1-1.7-1.9-1.7-1.2-1.7-.5h-2.4v-.5h1.7l-.7-2.6-.5-3.4v-1.7l.5.5h0Z"/>
  <path class="st59" d="M327.6,441.3h8l1.4,1.7,1.4,2.6.7,1.9v.7h-1.4l-39.4.5h-10.7v-.5l1.7-2.6,1.4-2.2,1-1.4h.5l4.2-.5h8.3l23.1-.5-.2.2h.2Z"/>
  <path class="st174" d="M362.3,368.2h2.6l1,1,1.7,3.1,3.4,7.5,3.1,7.1,2.2,4.9,1.2,2.9,1,1.2h.7l-.5,3.4-.5,2.4v6.6l.5,2.6.5.5h.5v1l-1.2,2.9-.5.5-.5-1-1-2.2-1.2-3.7-3.7-7.3-2.2-4.7-1.7-2.9-1.7-3.1-2.6-5.6-1.7-3.7-1.4-2.9-1.7-3.1-1.7-2.6.5-.7,1.9-1.2,1.2-.5h.5l.5-1,.5-1.2.2-.2h0Z"/>
  <path class="st70" d="M392.2,368.5h5.1l.5,1h1.7l.5-1h1.7l-.7.7-1.4,1-1.2,1.9-1.7,3.7-1,1.9-1.7,3.9-2.9,5.9-1.7,3.7-.7,1.2-1.7,3.7-1.7,3.4-1,2.2-1.4,2.9v.7h-.5l-.5,1.9-1.7,3.1-.5,1.2-.5-.5h-1l-.5-3.9v-5.6l.5-3.7.5-1.9.5-.7,1.7-3.7,1.9-4.7,1.4-2.6,2.6-5.6,3.7-7.3,1.4-2.6h0l.2-.2h-.2Z"/>
  <path class="st174" d="M87.7,368.7h3.1v31.7h.7l-1.4,1.7-2.4,1.7-1,1-2.2,1.7h-.5l-.5,1h-1.4v-.5l.5-33.6,1.2-1.4,1.9-1.4,1.4-1.2h.5v-.5h0Z"/>
  <path class="st41" d="M366.1,229.7l.5.5v49.1l.5,64.5v.7l1,.5v.5h.5l1.4,1.7,2.6,1.9,1.2,1,1.2.5v.5h.5v.5h.5v.5h.7l1.7,1.2,1.7.5.5.5h-27l.7-.5,2.9-1.7,2.2-1.7,1.4-1.2h.5l.5-.7,1.4-1.4h.5l.5-.7,1.4-1.9v-62.1h0v-7.8h.5v6.6-47l.5-1.9h-.5v-2.4h-.2.3Z"/>
  <path class="st116" d="M365.4,93.7h1.9l2.2.7,1.7,1.2,1.7,1.9,1.2,2.4.7,2.6v5.9l-.5,2.9-1.2,3.4-1.2,1.9-1,1h-.7l-.5-1.4.5-2.2.7-2.9v-1.2l-.7-1-1.7-1-4.2-1.2-2.6-1.4-1.7-1.4-1.2-1.9-.5-1v-1.7l1-1.7,1.2-1.7,2.2-1.7,2.4-1,.2.5v-.2Z"/>
  <path class="st110" d="M254.7,103.6h2.9l1.9.5,1.9.7,1,.7.7,1.2v1.9l-1.7,3.1-1.7,2.4-1.7,2.2-1.9,1.4-1.9.7-2.2.5h-3.4l-2.2-1-1.7-1.4v-3.7l1-2.4,2.2-3.4,1.7-1.7,2.2-1.4,1.4-.5h1.4v.2Z"/>
  <path class="st60" d="M406.3,368h2.4l-.5.5-2.4.7-2.4,1-1.7,1.2-2.4,3.9-2.9,6.1-2.6,5.6-1.7,3.7-1.7,2.9-2.2,4.7-2.6,5.9-2.2,4.9-3.4,8-.5,1.7v25.8l.7.7,5.1,3.1h0l-8.5.5h-7.8l2.4-.5,4.7-1.4,1.2-1h.5v-28.7l1-3.7.7-1.9h.5v-1.2l1.7-3.1.5-1.9h.5v-1.4l1.4-2.4,1.2-2.6,2.6-5.6,2.4-4.9,1.7-3.4,1.4-2.6,2.2-4.9,2.2-4.7,1.4-2.6,1-1,1.4-1.2h-1.4l-.5.7h-1.7l-.5-1h-1.7v-.5h10.3l.2,1v-.2Z"/>
  <path class="st94" d="M178.7,205.4h2.6l-1.9.5-3.4,2.2-2.9,1.9-2.6,1.7-2.9,2.6-1.2,1v1l-.5,9.5h0v7.1h-.5v-7.5l-.7,1.2v4.2l-.5,9.2h0v-14.6l-.5-8-.7-2.9-1-1.7-1.7-1.2-1.7-.7-2.2-1.2-1.7-1.2v-1.7h-6.6l31.9-.5-1.2-.7h-.2Z"/>
  <path class="st170" d="M163.1,266.2h0v1l.5,9v1l-.5,2.6v2.4h0v-1h-1l-6.6.5h-54l-11.2-.5v-.5l1.7-.5.5-1.4h53.8l13.6-.5h3.1v-12.4.2h0Z"/>
  <path class="st71" d="M219.6,374.5l1.2,1,1.7,2.9.5.5-1.4-2.6v-1.2h.5l2.9,5.9,2.4,4.2,2.6,3.9,2.4,3.9,3.4,5.6,3.4,5.1,2.4,3.7,2.6,4.4,1.9,3.1,2.6,4.2,1.9,3.1,1.7,2.6,2.6,3.9,1.9,3.1,2.4,3.7,1.7,2.6,1.4,2.9v.7h-1l-1-1-1.7-2.9-1.7-2.2-7.5-11.2-1.7-2.6-1-1.7-1.2-1.7-.5-.5-1-1.7-1.4-2.2-1-1.9-.7-1-.5-1.2-.5-.5-.5-1.2v-.5h-.5v-1.2h-.7l-1.7-2.6-1-1.7-1.7-2.6-.5-1-1.9-3.1-.5-1-.7-1.4v-.5h-.5l-1.4-2.2v-.5h-.5l-1.2-1.4-1.7-2.6-1.2-1.9-1-2.4-1.7-2.9-.7-1.9-.5-1v-.5l-.7-.2v-.7Z"/>
  <path class="st94" d="M71.4,205.6h32.6l-.5.5-4.7,2.9-3.1,2.2-3.4,2.6-1.4,1.2v.7l-.5,5.9v2.6l-.5,5.6h0v-11.7h-.7l-.5,1.7h-.5v48.4h0v-47l-.7-5.1-1.4-2.4-1-1.4v-.5l-.7-.5-1.7-1.4-2.2-1.4-1.7-1.7v-1.2h-7.5Z"/>
  <path class="st170" d="M126.4,368.5h5.1l-3.1.5-1.7.7-3.4,2.6-.7,1.7h-.5v4.2l-.5,2.2v50.4h-.5v4.4h-.5v4.2h-.5v4.4l-.5-.5-.5-2.2v-7.8h0v-23.1h-35.3l-.7-.5,3.7-.5h16.5l.5.5v-.5.5h1.7l1.9-.5h11.9v-38l-1.7-.5-1.7-.5v-.5h-1.9v-.5h11.2l1.2-.7h-.2Z"/>
  <path class="st145" d="M292.6,306.6h.5v3.7l-1.2,4.4-1.4,3.9-1.7,3.1-1.4,2.4-1.7,1.9-2.6,2.9-2.6,2.4-3.7,2.4-3.4,1.7-4.9,1.7-5.6,1.4-3.1.5h-8.7l-1.7-.5-1.4-.5-3.4-.7-2.9-1-1.2-.5-1.9-.5v-.5l-1.7-.5-3.9-2.4v-.5l-.7-.5-1.4-1v-.5l-.7-.5-1.9-1.7-2.4-2.4-1.9-2.6-1.7-2.6-1-2.6-.7-2.4h0l-.5-3.1-.5-1.7v-.7l1.2,3.4.5,1.2,1.4,3.7.5,1.7,1.2,2.4,1.9,2.9.7.7-1-1.7-1.7-2.6-1.4-3.1-1-2.6v-.7l-1.4-4.4v-1l.5.5v1.7h.5l1.2,3.9,1.7,3.9,1.7,3.1,1.7,2.6,2.2,2.4,2.2,1.7,1.9,1.4,1.9,1.2,4.2,2.2,2.2,1,4.9,1.7,4.2.7h0l1.7.5h4.4l5.1-.5,3.9-.7,4.2-1.4,1.7-.7,1.2-.5h1.7l3.1-1.4,2.2-1.7h.7l.5-1,1.2-1h.5l.5-.7.5-.5h.5l.5-.7,2.6-2.6h.5v-1l.5-1h.5v-1.7l1.2-1.9v-1l.5.5h.5v-.7h-.5l.5-1.2v-.7l.5-1.7h.5v-1.9h.5v-3.7l.5-.5-.5-.7v-.4Z"/>
  <path class="st46" d="M412.6,205.9h0v32.2h0v-3.7h-.5l-2.2-3.4-1.7-2.4-3.1-3.1-1.9-1.2-1.4-.5h-7.1l-.5-.5,1.2-.5h.5v-.5l2.6-.5,2.9-.7,2.2-1.4,3.1-2.4,1.9-1.7,1.2-1.7.5-1,1-1.7.5-2.2v-2.6l.5-.5.2.2v-.2Z"/>
  <path class="st72" d="M417.5,429.1h2.4l2.6.5,1.7.7,1.9,1.7,1.4,1.9,1,2.6v4.2l-.5,1.7-1.2,2.2-1.7,1.9-1.7,1.4-2.2,1-1.7.5h-2.9l-1.9-.5-2.2-1.4-1.7-1.7-1.4-2.2-.7-1.9v-4.2l.5-1.9,1.2-2.2,1.9-2.2,2.2-1.4,1.4-.5h1.7l-.2-.2h0ZM417.5,431.1l-2.2.7-1.7,1.2-1.2,1.4-1,1.9-.5,1.4v2.6l.7,1.9,1.2,1.7,1.7,1.7,1.7.7h3.1l2.2-.7,1.7-1.2,1-.7,1.2-1.7.5-1.2v-3.1l-.5-2.2-1-1.7-1.4-1.4-1.7-1-2.2-.5h-1.9.2Z"/>
  <path class="st46" d="M318.4,206.7h0v4.9l1.4.5v.7l1.2,1.4v.5l.7.5,1.9,1.9,1.4,1.7,1.4,1.4,1.9,1,3.4.7h0l1.4.5,1.4.7.7.5h0l-6.8.7-1.9.7-1.9,1.7-1,1-2.2,2.4-2.4,3.7-1,1.9h0v-29.2.2Z"/>
  <path class="st125" d="M88.4,344.4h1.2l2.2,1.7,1.9,1.9,2.6,1.9,2.6,1.7,3.9,2.4.5.5h-27.7l1-.7,2.6-1.7,2.6-1.7,1.7-1.4,2.6-2.4,1.2-1.4.7-.5v-.2h.2Z"/>
  <path class="st91" d="M164.6,345.4h1.2l2.6,2.2,2.6,1.9,2.6,1.7v.5h1v.5l1.2.5v.5h1v.5l2.2.5h.5l2.6.5h-35.8l4.2-.5,3.7-1.9,5.6-3.9,2.6-2.4.5-.5,1.2-.5.2.5h.2Z"/>
  <path class="st125" d="M365.4,343.7h1l.5,1.4.7.5v.5h.5l1.4,1.7,2.6,1.9,1.2,1,1.2.5v.5h.5v.5h.5v.5h.7l1.7,1.2,1.7.5.5.5h-27l.7-.5,2.9-1.7,2.2-1.7,1.4-1.2h.5l.5-.7,1.4-1.4h.5l.5-.7,1.9-2.6-.5-.5h.3Z"/>
  <path class="st175" d="M220.6,243.6v.7l-.7,3.1-.5,2.9h.5l.7-3.4h0v1.9l-1,5.1-.5,6.1v2.9l-.5,6.1v24.1l.5,7.5.5,5.1.5,3.7v.7l-.5-1.7.5,2.2.7,3.1,1.9,4.9,1.9,3.7,1,1.4v.7h-.5l-1.9-2.6-1.7-2.6-.5-1-.5-1.7-1.2-3.1-.5-1.2-.7-2.6v-.5h-.5l-.7-3.7-.5-3.7v-30.7l.5-10.3.5-6.6.5-3.9,1-3.9,1-2.6.7-.2h0Z"/>
  <path class="st128" d="M219.9,381.4l.5.5v11.9l.5,12.9v4.4l.5,34.6,3.9,1.7,2.6,1.4h0l-5.1.5h-11.7l2.2-.5,3.7-1.2h3.1v-65.7l-.2-.5h0Z"/>
  <path class="st132" d="M227.2,388.9h.5v.5h.5l1.7,2.4h.5l.7,1.7.7,1.4,1.7,2.6.7,1,1.2,2.4,1.4,1.9,1.2,2.2.7,1.2h.5v1.4h.5l.7,1.2.5,1,.5.7.7,1.4,1,1.7,1,1.7,1.2,1.9.5,1.2h.5l1.2,1.9,1,1.7,1.7,2.6,2.6,3.9v1.4l-.7-.5-.5-1.9h-.5l-.7-1.4h-.5l-.5-1h-.5v-.5l-.7-.5v-.5h-.5v-1.2h-.5l-.5-.5v-.5l-.7-.5-.5-.7v-.5l-1-.5-.5-1.2h-.5v-.5h-.5v-1h-.7v-.5h-.5v-.7h-.5l-.5-1.7-.5-.5v-.5h-.5v-.5h-.5v-.5h-.5v-.7h-.5v-.5h-.5v-.7h-.5v-.7l-.5-.5v-.5h0l-.5-.5v-.7h-.5l-.5-1.2v-.5h-.5v-1.2h-.5v-.7h-.5l-.5-1.4v-.5l-.7-.5-1-1v-.7h-.7l-1.4-1.7-.5-1.2v-.5l-1,.5-.5-2.4h.5l1.4.5h1.2l-1.2-2.2-.7-1.2v-.5l-1.9-1.9h0Z"/>
  <path class="st85" d="M294.1,262.1h0l.5,10.5v17.6l-.5,10.5-.7,7.5v1.2h-.5v-2.4h-.5v1l-.5,2.4v.5h-.5v1.9l-.5.5v1.7l-.5.5v1.7h-.5l-.7,1.7v.5h-.5l-.5,2.2-.7,1.7-1.7,1.4-3.7,3.7-1.4,1.2v.5l-1.2.5-2.4,1.7-3.4,1.4h-1.4l.5-.5,2.9-1.7,1.7-1.4h.5v-.5l2.4-1.7,3.1-3.1v-.5h.5l.5-.7,1.7-1.7,1.7-2.6,1.7-3.9.5-2.2v-1l1-3.7.5-4.2.5-7.1v-5.9l.5-12.7h0v6.6h.5v2.2l.5-1.4v-23.9h.9Z"/>
  <path class="st36" d="M334,400.1h0v16.5h-18.5l4.9-.5h1.7v-.5h.5v-.5h-.5v-.5l.5-1,1-.5,1.7-.7h1.9l1-1.4,1.9-.5v-2.4l.7-1,2.6-6.1v-.5l.5-.5h.2Z"/>
  <path class="st156" d="M120.1,400.4h0l.5,3.7v7.1l.5,1.4.5.5v18h-.5v4.4h-.5v4.2h-.5v4.4l-.5-.5-.5-2.2v-7.8h0v-23.1h-35.3l-.7-.5,3.7-.5h16.5l.5.5v-.5.5h1.7l1.9-.5h11.9v-8l.7-1v-.2Z"/>
  <path class="st34" d="M360.5,368h2.6-1v1.2l-.7,1-2.9,1.7-.7.5.5,1,2.2,4.2,1.7,3.4,2.2,4.7,3.1,6.8,1.9,3.7.5,1.2v.7l-1.7-2.6-.5-1.2v1.7l.7,1.7,1.7,3.4,1.2,2.6,1,2.2v.7h0v-.5h-.5l-1.9-4.4-1.7-2.9-.5-1.2v-.7h-.5l-1-2.4-1.9-4.2-1.7-3.7-2.6-5.9-2.6-5.1-1.2-2.6-1.7-2.6-.5-.5v-.5h1v-.5h-7.1l12.7-.5v-.2h0Z"/>
  <path class="st104" d="M286.7,238.7h1.7l.5.7h.5l1.2,2.6,1.2,3.7,1,4.9.7,6.6v30.7h-.5v-2.4,8.3l-.5,6.6h0v-35.8l-.7-6.1-1-5.9-.7-3.4-.5-2.2-1.2-3.7-.7-1.7-.7-1.7v-.5l-.2-.7h0Z"/>
  <path class="st58" d="M223.5,368.7h.7v1.2l-1.2,1.7-1.7,1.4v1l.7,1v1.4l1,2.4v.5l-.7-.5-1.9-3.1-.5-.5.7,1.2v.5h-.5v2.9l.5,2.6v24.6h0l-.5-13.1v-11.9h-.5v60.9h-.5v-1.9h-.5v-.5h.5l-.5-1.9v-3.7h.5l-.5-.5v-4.2h0v-10.7l.5-.5h-.5v-4.2l.5-.5h-.5v-.5h.5v-37h.7l-1-2.2v-1.4h1.2l.5-1.4v-.5h-1.2v1.4l-1.7-1.2-.5-1.7h-.5l7.1-.5-.2-.7h0Z"/>
  <path class="st134" d="M383,406h.5v1l-1.7,3.7-.5,1.2h-.5l-1.2,4.4-.5.5v-.7h0v1l.7.5h.5l-.5,1.7v25.8l.7.7,5.1,3.1h0l-8.5.5h-7.8l2.4-.5,4.7-1.4,1.2-1h.5v-28.7l1-3.7.7-1.9h.5v-1.2l1.7-3.1.5-1h.5v-.7h0Z"/>
  <path class="st2" d="M88.9,218.3h.7v42.3l-.5,7.3h-.7v-2.4h-.5v-45.8h.5v-1.4h.5Z"/>
  <path class="st49" d="M292.6,306.6h.5v3.7l-1.2,4.4-1.4,3.9-1.7,3.1-1.4,2.4-1.7,1.9-2.6,2.9-2.6,2.4-3.7,2.4-3.4,1.7-4.9,1.7-5.6,1.4-3.1.5h-8.7l-1.7-.5h8.3v-.5l-1-.5v-.5h-1.7l7.1-.7,3.9-.7,4.2-1.4,1.7-.7,1.2-.5h1.7l3.1-1.4,2.2-1.7h.7l.5-1,1.2-1h.5l.5-.7.5-.5h.5l.5-.7,2.6-2.6h.5v-1l.5-1h.5v-1.7l1.2-1.9v-1l.5.5h.5v-.7h-.5l.5-1.2v-.7l.5-1.7h.5v-1.9h.5v-3.7l.5-.5-.2-.2v-.2Z"/>
  <path class="st28" d="M362.3,368.2h2.6l1,1,1.4,2.6h-1.2v-.5h-.5v1.7l-.5.5h-.5l-.5,1.7-1,.5-.5.5,1.7.5v.5l.5.7v.5h1.2v1.4h.5v.7l-.7-.5v-.7h-1v-.5h-.7l-.5,1h.5v.5h1.2v.5l-1,.5v.5h-.5l-.5-1.2h-1v.5l-1.7-3.1-1.7-3.4-1.2-2.2.5-.7,1.9-1.2,1.2-.5h.5l.5-1,.5-1.2-.7.5h0Z"/>
  <path class="st32" d="M220.1,376.8h.7l1.7,3.9,1.9,3.9,1.7,2.6,1.9,2.9,1,1.7v.5h-.5v.5h-1l-1.4-.5-.5.5-1.2-2.9-1-.7v-.5h-.5l-.5-1.2v-.5h-.5v3.9l-.5,1.7-.5.5v49.9l.5,1.4.5,1h1.2v.5l1.9.5v-.5h1.7l1,.7.5,1.4h-.5l-2.9-1.4-3.7-1.4h0v-46l-.5-17.6v-2.6l-.5-.7v-2.2l-.2.7h0Z"/>
  <path class="st108" d="M369.8,205.6h12.9v.5h-1.7l-.5.5h-5.1l-1.4.5h-1.4l-.5.5h-3.7l-2.6.5h-1.7l-.5-.5h-1.7l-.5.5h-1.9l-1.2-.5h-2.4l-.5.5h-.5v-.5l-1.7-.5-.5.5h-1v-.5h-5.9v-.5h-.5v.5h-3.7l-.5-.5h-1v-.5h-.5v-.5h1.4v-.5h8.7l20.2-.5-.2,1h-.2Z"/>
  <path class="st153" d="M92.3,278.9h44l-.5.5h-14.8l-2.6.5h-5.6v.5l-1.7-.5h-11.2l.7.5h29.7l1,.5h-40.9v-.7l1.7-.5.5-1.4-.2.7h0Z"/>
  <path class="st135" d="M241,409.3l1.2,1v.7l.7.5v.5h.5l.7,1.9v.5h.5l.5,1.2,1,.5v1l1,.7v1h.5v.5l1.4.5.5.7h.5l3.9,6.1,1.4,2.2,2.2,3.4,2.2,3.7,1.7,2.4,1.4,2.9v.7h-1l-1-1-1.7-2.9-1.7-2.2-7.5-11.2-1.7-2.6-1-1.7-1.2-1.7-.5-.5-1-1.7-1.4-2.2-1-1.9-.7-1-.5-1v-1h0Z"/>
  <path class="st40" d="M119.6,409.7h0v20.9h0v.5l-.5-2.6v-1h-1.2l-.5-1v-3.7l-1.7-1.2v-.7h.7v-.5h-1.2l-.5.5v1h-1.2v-1.2h-1.4v-.5h-.5l.5-1,.7-1.7,1-1h.5v-.5h.5v-.5l.5-.5h.5v-.5h2.2v-.5h.5l.5-1.9v-1.7h0l.7-.7v-.2Z"/>
  <path class="st178" d="M365.4,285.5h0v35l.5-.5v-14.4h.5v38.2l-1,.5h-.5v-58h0l.5-1Z"/>
  <path class="st144" d="M162.1,328.4h.5v1.4h-.5v4.2h.5v.7l.5,3.1v7.3l-.7,1.2-1,1-2.4,1.9-1.7,1.2-1.2.5v-.5h.5v-.5h-.5.5v-.7l.7-1.9,1-1.9h.7l-.5-1.9v-1.2h1.2v-2.6l.5-1.2v-.5h.5v-1.4l.5-2.6v-3.1l.5-.5v-1l.5-.7v-.2Z"/>
  <path class="st6" d="M174.6,385l1.4.5h.7v.7h.5l.7,1h.5v.5l1,.5.5-.5.7,1.4v.5h-.5v1.9h.5v.5h1l.5,1.7v1h.5l.5,2.6.5,1.9v4.4l-.5.7v1l-.5,3.1v2.4h-.5v1.2l.7.5-.5.5v.7h.5v.7l-.7,1v.5h-.5v2.2h-.5v-16.8l-.5-5.9-.7-3.7-1.4-3.1-1.7-1.9-1.7-1.2-1.7-.5v-.5h.5v-.5l.7-.5v1.4Z"/>
  <path class="st89" d="M417.3,433.5h1.7l1.9.5,1.4,1.7v2.4l-.5,2.6-.5.7-1.7.7-1.7.5h-1.2l-1.2-.7-.5-1.7v-4.4l.7-1.9,1.4-.7v.2h0ZM419.2,435.6v1.7l.5,1.7h.5v-1.9l-.5-1.4h-.5Z"/>
  <path class="st187" d="M240.6,389.9l.7.7,3.1,4.9,3.4,5.1,2.2,3.7,1,1.7v.5l-1.7-.5-1-.7-1.7-1-1.9-1.7-.7-.5-.5-1.2-1-1.4-.7-1.4-.5-1.4-1.4-1.9-.5-1v-3.1l1,.5v-1h.2v-.2Z"/>
  <path class="st176" d="M166.8,440.8h6.3l-2.9.5.7,2.2.5,3.1v2.9h3.1-5.6l-3.7-.5v-.5h-.5v-1.2h-.5.7v-1h-1.2v-.7h.7l.5-1-.7-.7-.5.5v-.5l-.7-.5v-.5l1-.5h0l.7-.5.5-1.2,1.2-.5.2.5h0Z"/>
  <path class="st62" d="M254.7,414.7l.5.5,2.4,6.8.7,2.4,1,2.4,1.4,3.9.7,2.6.5,2.4.5,2.6.7,2.9h.5v.5l-1.2.5-1,1.4v1.2l.5,1.7,2.6,1.4v.5h1-8.3l-.5-.5,2.6-3.7.7-1.9.5-.5,1.4-.5v-1l-1.7-3.1-1.4-2.2-2.9-4.9-1.4-2.2-2.6-3.9-1.7-2.6-1.7-2.6v-.5l1.4,1.7,1.9,3.1,1.2,1.9,1.7,2.6,1,1.7,1.7,1.9,1.2,1.7v.5l1,.5v-1l-.5-1.7-.5-2.2-1.2-3.7-1.2-4.9-2.2-6.1v-.5l.5.2v.3Z"/>
  <path class="st105" d="M219.6,374.5l1.2,1,1.7,2.9.5.5-1.4-2.6v-1.2h.5l2.9,5.9,2.4,4.2.5.7v1.4l1.9,2.6v.5h.5l.5,1.2v.5h.5l1.2,2.4.7,1.4-.5.7v.5h.5l.7,1.7h-.5l-.7-1-1.7-2.6-.5-1-.7-1.4v-.5h-.5l-1.4-2.2v-.5h-.5l-1.2-1.4-1.7-2.6-1.2-1.9-1-2.4-1.7-2.9-.7-1.9-.5-1v-.5l.2-.2v-.2Z"/>
  <path class="st154" d="M289.7,444v2.2h1.2l1.9.7,7.1.5,5.6-.5h22.9l1,.5,8,.5h0l-39.4.5h-10.7v-.5l1.7-2.6.5-1,.2-.2h.2Z"/>
  <path class="st40" d="M257.8,223.7h2.4l1.4.5h1.7l3.4.5,3.7,1.2h.5v.7h-3.1l-1.7.5h-3.7l-.5-.5-2.6.5-1,.5h-.7l.5-1h-.7v4.7l-.5,1.7v2.2h-.5v-11.2l2.2-.5-.7.2h0Z"/>
  <path class="st147" d="M294.1,262.1h0l.5,10.5v17.6l-.5,10.5-.5,4.4-.5.5v-.7h-.5v-26.3h.5v6.6h.5v2.2l.5-1.4v-23.9.2h0Z"/>
  <path class="st152" d="M90.1,224.4h0v54.5h2.6l-.7.5-.5,1.4h-1.7v64.2h0l-.5-37.2v-5.4h0v-63.7l.5-14.1.2-.2h0Z"/>
  <path class="st28" d="M405.8,374.3h1v1.4l-.5,1-.5,1.7-.5,1.4v1.4h-.7v.5h-.5v1l-1.4,1.7-.5,1.2-1,1.9-1.2,1.2-.5,1.7-1,.5v.7l-.5.7-.5-.5v-1.9l1-1.7.7-1.7.7-2.6.5-1h.5l1.4-3.4.5-1,1-1,1-1.9.5-1,.5-.5h0Z"/>
  <path class="st68" d="M246.9,223.7h1v.5l-3.1.7-2.6.7-2.4,1-3.9,1.9-3.9,2.6-2.6,1.9-1.9,1.9-1.9,2.6-1.7,2.6-1.7,4.4-.5,1.9h-.5v1.7l-.5,1.9h-.5v-1.7l.5-2.6,1-3.4,1-2.4,1.7-2.6,1.7-2.2,2.9-2.9,3.7-2.6,3.1-2.2,1-.5v-.5l4.9-1.9,3.7-.7,1.9-.5v.2h0Z"/>
  <path class="st66" d="M406.3,368h2.4l-.5.5-2.4.7-2.4,1-1.7,1.2-2.4,3.9-2.9,6.1-2.6,5.6-1.7,3.7-1.7,2.9-2.2,4.7-2.6,5.9-2.2,4.9-2.2,5.1h-.5v-1.2l1-1.7v-1.2l3.1-7.1,1.2-2.6v-.7h.7l.5-1.7.7-1.7.5-1.7,1.4-2.6.5-1.2h.5v-.7h.5l.5-1.7h.5l.5-1.7,1-1.7.5-1.4h.5l.5-1.2,1-1.9,1.7-3.7,1.7-2.6,1.2-1.7.7-1.7,1.7-1.4,1.9-1h1l.2.2v-.5Z"/>
  <path class="st143" d="M120.1,400.4h0l.5,3.7v7.1l.5,1.7h-1.2v-2.6h-35.3l-.7-.5,3.7-.5h16.5l.5.5v-.5.5h1.7l1.9-.5h11.9v-8.7h0Z"/>
  <path class="st40" d="M169,367.5h2.4v1.9l-.5,2.6-.5,1.4h-.5v1.9h2.6l-3.7.5h-1.4l-1.4.7h-2.6l.7-.7h.5v-.5l.5-.5.5-.5h.5v-.5l.7-.5,1.2-1.4h-2.6v-.5h.5v-.5l.7-.5h.5v-1h.5v-1.2h.5v-.7h.5l.5-.2h0Z"/>
  <path class="st155" d="M338.4,431.3h.5v16.3l-.5-.5-1.7-3.7-1-1.4v-.5h-.5v-2.2l1.9-4.7,1.2-3.7v.2h0Z"/>
  <path class="st18" d="M412.6,205.9h0v32.2h0v-3.7l-.5-1v-1.9l-.7-7.1v-12.4l.5-.7.5-2.2v-2.6l.5-.5h-.2Z"/>
  <path class="st54" d="M379,438.8h0v5.9l1.2.7,5.1,3.1h0l-8.5.5h-7.8l2.4-.5,4.7-1.4,1.2-1h.5l.5-2.4v-3.1l.7-1.9v.2h0Z"/>
  <path class="st7" d="M126.4,368.5h5.1l-3.1.5-1.7.7-3.4,2.6-.7,1.7h-.5l-.5,1.2-1,.5-.5-.7-.5-4.4-1.4-.5-1.7-.5v-.5h-1.9v-.5h11.2l.7-.2h-.2Z"/>
  <path class="st28" d="M265.3,371.4h.5l-.5.7v.5h.5v.7l-.5,1.9-.5,1v1.9l-.5,1.7-.5.5v32.6h-.5v-18.3l-.5-6.1v-12.9l.5-2.2.5-.7,1.2-.5v-.5l.5-.5h-.2Z"/>
  <path class="st35" d="M165.1,315.2h0v18l.5,8v3.7l-1.9.5v-27.3h0v13.4l.5,1.7v-2.2l.5-16.3.5.5h0Z"/>
  <path class="st148" d="M334,400.1h0v15.3l-.5-.5-1.2-2.4v-.7l-.7-.5-1.2-1-.5-1v-1.4l.7-1,2.6-6.1v-.5l.7-.2h0Z"/>
  <path class="st40" d="M298.7,369h20.4v.5h-1v.5h-2.6l-1.2.5h-1.9l-2.6.5h-2.2l-.7-.5-1.7.5h-4.9l-1-.5h-1.7v-.5l-.7-.5,2.2-.5h-.4Z"/>
  <path class="st143" d="M185.8,434.9l.7.5-1.7,1.4-3.4,1.9-2.9,1.2-4.2,1h-6.3l-3.1-.7-1.2-.5-.5-.7h1l1.7.5h5.6l.5.5h3.1l3.1-1,1.7-.5.7-.7h1v-.5h1.7v-.7h.7l.5-.7,1.2-1h.2Z"/>
  <path class="st138" d="M292.6,252.8l.5.7.7,5.4h0v28.7h-.5v-11l-.5-13.9v-4.9h-.5v-4.7l.2-.5h0Z"/>
  <path class="st87" d="M89.1,289.2h0v31.9h-.7v-.7l-.5-2.9v-26.5l.5-1.2v-.5h.7Z"/>
  <path class="st120" d="M367.6,394.3l.5.5,1.4,2.6.5.5h.5l3.7,7.5,1.9,4.2.5,1.4v1.4l-.5-.5-.5-1.7-.5-1.4-.5-.5v1.7l.5,1.4v.7h.5v.5h-.5l-1.7-3.9-1.2-2.4v-.5l-.5-1.9-1.2-2.6-1.7-3.1-1-2.4-.5-.5v-1.2h.5l-.2.2h0Z"/>
  <path class="st84" d="M165.4,226.1h0v65h-.5v-2.4l-.5-14.1v-41.6h.5v-6.8h.5Z"/>
  <path class="st170" d="M79.4,368.7h8v.5l-1.2.5-.7.7-2.2,1.7-.7,1-.5.5h-1.7l-1.7-1-.5-.5v-1.7l.7-.5h.5l.5-1.2h-.6Z"/>
  <path class="st176" d="M247.1,338.8h1.9l1.7.5,4.4.5v6.3l-.5,9.2v1.7h3.7-5.9l-.5-1v-.7h.5v-.7l.7-1.2h-.5l.5-1.2.5-.5-.5-.5v-1h0v-.7h0v-1.7h0v-.5h-.5l.5-1.2h.5v-1.9l-.7-.5v-.5h0v.5l-.7-1.4h.5v-1l-2.2-.5h-1.2v.5-.5h-1.4l-1.2-.5v-.5l.5-1v-.2Z"/>
  <path class="st158" d="M223.5,368.7h.7v1.2l-1.2,1.7-1.7,1.4v1l.7,1v1.4l1,2.4v.5l-.7-.5-1.9-3.1-.5-.5v.5l-1-1.7v-1.4h1.2l.5-1.4v-.5h-1.2v1.4l-1.7-1.2-.5-1.7h-.5l7.1-.5h-.3Z"/>
  <path class="st130" d="M121.3,444l.5.5v1.7h1.7v.5h1.4l1.2.7v.5l1,.5,1.4,1h0l-3.7.5h-8.3l1-.7,1.7-1.2,1.4-2.9.7-.5-.2-.5h.2Z"/>
  <path class="st64" d="M265.6,368.5h4.2l-.7.5-1.7,1.7-1.9,1.4h-.5v.5l-1.9,1v.5h-.5l.5,1h-.5l-.7-1-.5-2.6-.5-1.4h-.5l-5.9-.5h-1.2v-.5h12.4v-.5h-.2Z"/>
  <path class="st160" d="M89.6,325.2h0v19.5h-1.4l-.5.5v-18.3h.5v7.8h.5v-2.6l.5-6.6.5-.2h0Z"/>
  <path class="st31" d="M292.6,306.6h.5v3.7l-1.2,4.4-1.4,3.9-1.7,3.1-1.4,2.4-1.7,1.9-2.6,2.9-2.6,2.4-3.1,1.9h-.5v-.5l.5-.5,1-.5,1-1,1-.7h.5l.5-.7,1.2-1h.5l.5-.7.5-.5h.5l.5-.7,2.6-2.6h.5v-1l.5-1h.5v-1.7l1.2-1.9v-1l.5.5h.5v-.7h-.5l.5-1.2v-.7l.5-1.7h.5v-1.9h.5v-3.7l.5-.5-.2-.7v-.2Z"/>
  <path class="st26" d="M241,409.3l1.2,1v.7l.7.5v.5h.5l.7,1.9v.5h.5l.5,1.2,1,.5v1l1,.7v1h.5v.5h.7v1.2l.7.7,1.2,2.4,1.9,3.4,1.7,2.6.7,1v.5h.5v1.4h.5l1.2,1.7.7,1.9h-.5l-7.5-11.5-1.7-2.6-1-1.7-1.2-1.7-.5-.5-1-1.7-1.4-2.2-1-1.9-.7-1-.5-1v-1l.5-.2h0Z"/>
  <path class="st8" d="M81.1,444h.5v.5l1.7.5,1.9,1.2,1.7.7v.5l1,.5h-13.4l.5-.5,3.7-1.7,1-.7.7-1h.8Z"/>
  <path class="st40" d="M150.9,422.7v.5h.7v-.5h.5v.5h.5l1,4.4,1.2,3.1,1,1.7,1.4,1.7.5.5h-1.2l-1.4-.5v-.5h-.5v-.5l-1-.5v-.5l-.7-.5-1.2-1.7v-.5l.7.5-.5-.5v-2.2h-.7l-.7-1.2v-.5h1.4l-.5-.5-.5-1.4v-1.2.2h0Z"/>
  <path class="st176" d="M289.9,441.7l1.7.5-.5,1.2-1.4,1.9-1.2,1.9-.7,1.2v.5h-1.9v-5.1.5h.7l.5-1v-.5l1.7-.5.5-.5h1.2l-.5-.2h0Z"/>
  <path class="st185" d="M378.5,399.4h0v6.3h.7v-.5h.5v-.5l.5-.7h1l.5-1,.5.7-.5.5v1l-.5.5.7.5-.5,1.7-1.7,3.1-.5,1.2-.5-.5h-1l-.5-3.9v-5.6l.5-2.4.7-.5h0Z"/>
  <path class="st173" d="M88.1,304.5h.5v16.5h.5v-10.5h.5v21.4l-.5,3.7h0v-1h-.5l-.5-3.1v-27Z"/>
  <path class="st40" d="M254.4,432l.7.5,5.1,7.8,1.2,1.9.5.5h-.5l-.5.7-.5,1.7-2.6,3.7h-.7v-.5l.5-1.2h.5v-1l.7-1,.5-.5h.7v-1h-.5l-.5-.7v-1.7h-.5l-.5-1.4v-1.4l-.5-.5v-.5h-.5l-.5-1-1.2-2.4-.5-.7v-.5h-.5v-.9Z"/>
  <path class="st16" d="M171.4,367.5h5.1l-.5,1v1.7l-1.4.7h-.5v.5l-2.2,1-.5.7h-.5v2.4h1-2.4v-2.2h.5v-1l.7-1.7.5-1.7v-1.7l.2.2h0Z"/>
  <path class="st9" d="M172.2,431.5h1.2l1,1v1.2l.5,1,.5,1.4-.5,1.2v.7h-.5v.5l-1,.5h-1.7l-.5-2.6v-2.2l.5-.7.5-1.7v-.2h0Z"/>
  <path class="st170" d="M121.5,420.8h0v9.9h-.5v4.4h-.5v4.2h-.5v4.4l-.5-.5-.5-2.2v-8.7l.5-1.9v-4.2h-.5.5l-.5-.5.5-1.7.5-1.7.5-.5v-.5l1-.5v-.2Z"/>
  <path class="st104" d="M362,385l1,1,.7,1.7,1,2.6v.5h.5l.5,1.2v-1.4l-.5-1.7.5.5,1.9,4.2,1.9,3.7v.7l-1.7-2.6-.5-1.2v1.7l.7,1.7,1.7,3.4,1.2,2.6,1,2.2v.7h0v-.5h-.5l-1.9-4.4-1.7-2.9-.5-1.2v-.7h-.5l-1-2.4-1.9-4.2-1.7-3.7-.5-.7v-.5l.2-.2h0Z"/>
  <path class="st17" d="M365.4,285.5h0v35l-.5,2.6-.5,12.4h0v-49.4h0l1-.7Z"/>
  <path class="st52" d="M71.4,205.6h32.6l-20,.5-.7.7-.5,2.4v1.2l-.7-.5-1.7-1.2-1.7-1.7v-1.2h-7.3v-.2h0Z"/>
  <path class="st103" d="M368.5,348.8h1l1.4.7,1,.7,1,1.2.7.7,1,.5v.5h-6.3l-.7-.5v-1.2h-.5v-1.4h.5v-1.2l.5-.5.5.5h0Z"/>
  <path class="st180" d="M299.4,378h27.3v.5h-28.9v-.5l1.7-.5v.5Z"/>
  <path class="st40" d="M162.9,282.3h0v6.1l-.5.7-.5.5v-1.7l-1.4-.5h-1.9v.5h-1.4l-1,.5-.7.5,1.2-1.4,1.7-1.7,2.2-1.7,2.2-1v-.7h.2Z"/>
  <path class="st112" d="M217.4,287.2h.5v8l.5,3.7v4.2l.5,2.4v1.4h-.5l-.5-2.9v-.5h-.5v.5-.7h-.5v-15.8l.5-.2h0Z"/>
  <path class="st120" d="M298,408.1h22.9l5.4.5h0l-1.7.5h-28.2v-.7h1.7v-.2h0Z"/>
  <path class="st171" d="M219.9,445.4h0v1.4l1.7.5h3.4l-1.4-.5h.5l3.1,1.4.5.5h-16.8l2.2-.5,3.7-1.2h3.1v-1.7h0Z"/>
  <path class="st81" d="M338.6,373.1l.5.5v9.2h-.7v-1.4l-1-1-1.4-.5v-1h.5l.5-2.2,1.2-2.2,1-1-.5-.5h0Z"/>
  <path class="st64" d="M217.6,303.5h1.2l.5,3.7v-1.2l.5.5.5,3.7v.7l-.5-1.7.5,2.2.7,3.1,1.9,4.9,1.9,3.7,1,1.4v.7h-.5l-1.9-2.6-1.7-2.6-.5-1-.5-1.7-1.2-3.1-.5-1.2-.7-2.6v-.5h-.5l-.7-3.7v-1.9l.5-.5v-.2Z"/>
  <path class="st43" d="M364.4,225.3l.5.7.5,3.7v26.1h0v-6.6h-.5v-1.4h-.5v-.7h.5v-1.2l-.5-.7v-14.4l.5-1.2-.5-1.4v-2.8Z"/>
  <path class="st139" d="M335.5,379.4l1.7.7.7.7v2.2l-.5,1h-2.2l-1.9-1-.7-1v-1h.7v-.5l1-.5,1-1,.2.2h0Z"/>
  <path class="st150" d="M253.2,373.6h.5v30.7l-.5.5h0v-31.2h0Z"/>
  <path class="st170" d="M219.9,381.4l.5.5v18.8h0v-1.2l-.5,1.7-.5-.5v-19.2h.5Z"/>
  <path class="st132" d="M162.6,258.9h.5v19.7l-1-.5v-.5h-.5v-.7h-.5v-1.7l.5-1.7v-1.7l.5-2.6v-10.5l.5.2h0Z"/>
  <path class="st113" d="M102.5,279.1h33.8l-.5.5h-14.8l-2.6.5h-5.6v.5l-1.7-.5h-3.7v-.5h.7l-5.9-.5s.2,0,.2,0Z"/>
  <path class="st85" d="M365.4,244.1h.5v37h-.5v-37h0Z"/>
  <path class="st104" d="M244.2,222.9l.7.5-.5.5-3.4,1.2-3.4,1.4-.5.5h-.5v.5l-1.7.7-3.4,2.4-3.4,2.6-2.2,2.2v-.5l1.7-2.2,2.4-2.4,2.6-1.7,2.6-1.7,1.7-1,1.7-.5,2.6-1,1.9-1,1.2-.5-.5-.2h.3Z"/>
  <path class="st141" d="M146.8,205.6h25.8l-14.4.5-1.4.7-.5,1.7v.7l.5.5-1.2-.5-2.4-1.7v-1.7h-6.6l.2-.2h0Z"/>
  <path class="st187" d="M406.3,237h3.7l1,.5.7.5v.5h-17.1l4.4-.7h3.9l3.4-.5h0v-.2h0Z"/>
  <path class="st21" d="M408.4,368h1.9l-1,1.4h-.5v.5h-.5v.5h-1.2l-2.9,1h-1.7l.5-1v-.7l2.9-1.2,2.4-.7v.2h0Z"/>
  <path class="st58" d="M122.2,374.1h0v8.5l-.5,47.9h0v-50.1l.5-6.1v-.2Z"/>
  <path class="st149" d="M251,423l1,.5,1.7,2.9,1.7,2.6,2.2,3.4,2.2,3.7,1.7,2.4.5,1v1.2l-.5-.5v-.5h-.5l-1.2-2.4-1.9-3.1v-.5h-.5l-1-1.4-.5-1.2-.7-1-.5-.7-1.2-1.7v-.5h-.5l-.5-1-1-1.7v-.7l-.5-.7v-.2Z"/>
  <path class="st28" d="M187.5,383.4l1,.7,2.2,3.7.7,1.7.7,4.2.5,5.1v15.3l-.5,6.6v1.4h-.5v-22.1l-.5-5.9-.5-3.1-.5-1.9-1.4-2.4-1.2-2.2-.5-.5v-.5h.5v-.2Z"/>
  <path class="st29" d="M275.6,333.4h.7v.5l-3.9,1.7-3.7,1.4-4.7,1.2h-2.4l1.7-.7,2.2-.5,2.6-.5,2.9-1,2.4-1,2.2-.7-.2-.5h.2Z"/>
  <path class="st93" d="M366.1,229.7l.5.5v24.9h-.5v-21.2l.5-1.9h-.5v-2.4.2h0Z"/>
  <path class="st143" d="M169.4,376.1h3.9l1.9.5v.5h-5.6,2.2v.7h-1.9l-4.2,1.4-3.4,1.4h-.7l.5-.5,3.1-1.7,2.4-1,1.7-.5.5-.7-.5-.2h.2Z"/>
  <path class="st115" d="M126.4,368.5h5.1l-3.1.5-1.7.7-3.4,2.6-.7,1.7-.5-.5v-.7h.7v-.5l.7-.5.5-1-1-.5h-2.6v-1h0l5.9-.5.2-.5h0Z"/>
  <path class="st40" d="M91.6,400.1h1.2v.5h-.5v1.4l-1,1-1.7,1.7-.7.5v.5l-3.4.7-.7.5h-.5v-.5l1.9-1.4,1-1,2.6-1.9,1.9-1.7-.2-.2h0Z"/>
  <path class="st90" d="M228.1,386.2h.5l2.2,3.7,1.7,2.9,3.4,5.6,3.4,5.1,1.7,2.4v.7l-2.9-4.2v-.5h-.5v-.7h-.5l-1.2-1.7-1.7-2.9-1.2-1.7-1.4-2.4v-.5h-.5l-.5-1v-.5h-.5l-1.9-3.1v-1.2l-.2-.2Z"/>
  <path class="st9" d="M147.8,402.3h0v14.6l.5,4.4v1.4l-.5.5v-3.1l-.5-.5v-3.9l-.5-2.4v-8.5l.5-1.9.5-.5h0Z"/>
  <path class="st28" d="M378.1,401.8h0v4.9l.5,1.7.5,2.6.5.5h.5v1l-1.2,2.9-.5.5-.5-1-1-2.2v-1.2l.5.7.5.5h.5v-11.2l-.2.2h0Z"/>
  <path class="st122" d="M406.3,368h2.4l-.5.5-2.4.7-2.4,1-1.7,1.2-2.4,3.9-2.6,5.9h-.5l.5-1.9,1.7-3.9,1.4-1.9,1.4-2.6,1.7-1.4,1.9-1h1l.5-.2h0Z"/>
  <path class="st85" d="M87.4,216.4l.5.5.5,1.7v49.6h0v-47l-.5-3.7v-1.2h-.5Z"/>
  <path class="st28" d="M119.1,409.9h.5v2.6l-.5.5v.7h-.5v.5h-1.9l-.5.5h-.5v.5h-.5v.5l-1.7,1.4-.7,1.2-.5,1.2h0v-1.7h.5l.5-1,1.7-1.9,1-1,2.2-1.4,1.4-1.9v-.7h-.5Z"/>
  <path class="st117" d="M216.7,294h0l.7,9.2v2.4h-1v-1.2h-.5.5l-.5-1.2v-.7h-.5v-1.4h0l.5-1.4v-1.4h-.5.5v-.5h-.5v-.5h.5v-1.2h0v-1.7l.7-.2h0Z"/>
  <path class="st9" d="M363.5,224.1h.5l-.5.7h-.5v.5h-.5v.5h-.5v.5h-.5v1l-.5.5-1,.5h-.5v.7h-.5v.5l-.5.5h-.5l-.5.5-.7.5v.5h-.5v.7l-1.2.5v.5l-1.4,1.2h-.5v.5l-.7.5h-.5v.5l-1.2.5,1-1,2.2-1.9,1.9-1.7,2.2-2.2,1-.7.7-1,2.2-1.7,1.2-1,.5-.5-.2-.5h0Z"/>
  <path class="st13" d="M90.1,224.4h0v18.3l-.5,19.7h0v-23.9l.5-14.1h0Z"/>
  <path class="st139" d="M377.6,351.9h1.2l1,.5h1.7l1,.5v.5h1.7v1h-3.7l-.5-.5-2.2-.7-1-.5v-.5h1.2l-.5-.2h0Z"/>
  <path class="st184" d="M181.4,406.5h0v3.9h.7l.5,1.2h-.5v1.2l.7.5-.5.5v.7h.5v.7l-.7,1v.5h-.5v2.2h-.5v-4.2l.5-8.7-.2.5h0Z"/>
  <path class="st28" d="M152,395.5h0v18.3l.5,7.3v2.9h0l-.5-4.7-.5-5.9v-18.3l.5.2h0Z"/>
  <path class="st104" d="M84.1,368.7h3.7v.5l-1.2.5-.7.7-2.2,1.7-.7.7h-.5v-1.4h-.5v-1h.5v-.5l1.9-.5v-.5h0l-.2-.2h0Z"/>
  <path class="st113" d="M364.7,286.9h.5v24.6l-.5.5v-25.1h0Z"/>
  <path class="st82" d="M285.8,325.9v.5l-2.4,2.6-1.9,1.7-2.6,1.9-1.4.7h-.5v-.5l.5-.5,1-.5,1-1,1-.7h.5l.5-.7,1.2-1h.5l.5-.7.5-.5.7-.5h.5v-.5h.5l.2-.5h0Z"/>
  <path class="st165" d="M168.5,431.3l3.7.5v1.7l-1,.7v2.2l.5.7v1.7h-5.6l-.7-.5h5.9v-2.2l-.5-2.4-.5-1.2h-.5v-.5h-.5l-.5-1-.2.2h0Z"/>
  <path class="st61" d="M171.4,351.5l1.2.5h.7l1.2.5h1.4v.5l-1.2.5h-4.9v-.5h-1v-1.2h.5l.5.5,1-.5h.5v-.5.2h0Z"/>
  <path class="st28" d="M255.4,223.2h2.6l3.7.5,1,.5h-2.9l-1.7-.5h-1.9v13.4h-.5v-13.9h-.3Z"/>
  <path class="st118" d="M265.6,368.5h4.2l-.7.5-1.7,1.7-2.4,1.7h-.5v-.5l.7-.5h.5v-.7h-1.9l-.7-.5v-.5l1.7-.5h1v-.7h0Z"/>
  <path class="st137" d="M282.7,231.4h.7l1.9,1.7,2.6,3.7,1,1.7v.7l-.5-.7h-1.7l-.7-1.7v-1l-1.7-2.2-1.7-1.7v-.5h-.5v-.5l.5.5h0Z"/>
  <path class="st45" d="M122.5,445.7h.5v.5h1.4l1.2.7v.5l1,.5,1.4,1h-2.2l.5-.5-.5-.5h-1.2v-.5h-3.9v-1.2h2.2v-.5h-.5,0Z"/>
  <path class="st0" d="M319.1,378h7.5v.5h-18.3v-.5h3.1l7.3-.5.2.5h0Z"/>
  <path class="st74" d="M356.9,372.9h.7l1.7,2.9,1.7,3.1,1.4,2.9,2.6,5.9v1h-.5v-1.4h-.5l-.5-1.2-.5-.5v-.7l-.5-1.2-.5-1v-.5h-.5l-.5-1.4-.5-1.2-1.4-2.9-1.4-2.4-.7-1.4h0l-.2.2h0Z"/>
  <path class="st186" d="M324.5,237.8h6.8l2.6.5h-14.8l3.1-.5,1.4-.5h.7v.5h0Z"/>
  <path class="st83" d="M362,370l.7.7-.5,1-1,.5-1.9.5-.7,1.7-.5-.5-.5-1,.5-.7,1.9-1.2,2.2-1.2-.2.2Z"/>
  <path class="st55" d="M365.4,388.9l.5.5,1.9,4.2,1.9,3.7v.7l-1.7-2.6-.5-1.2-.5.7-.7-1.7h0v-1.7l-.5-1.7v-1.2l-.5.5v-.2Z"/>
  <path class="st173" d="M217.4,287.2h.5v6.6h-.5v.5h-.5v9.2h0v-15.8l.5-.5Z"/>
  <path class="st173" d="M233,331.2h.7l2.2,1.4v.5l.7.5,1,.5,1,.5v1.2h-.5v-.5l-1.7-.5-3.9-2.4v-.5h.5v-.7h0Z"/>
  <path class="st39" d="M404.4,368.2h.7l-2.4,1.4-1.4,1.2-1.4,2.6-.5.5h-.5v-.5h-.5l.5-1.2,1.4-1.9,1.7-.7,1.7-.7.7-.5v-.2Z"/>
  <path class="st28" d="M255.4,339.5h1-.5v17.1h-1v-5.9l.5-4.9v-6.3Z"/>
  <path class="st28" d="M224.4,368.7l.5.5,1.7.5v.7h0v.7h-1.4l-1.4.5-1,.5h-.5v.5h-.5v2.2l-.5-.5-.5-.7v-.7l2.2-1.7,1-1.2v-1.2h.5Z"/>
  <path class="st28" d="M302.4,402h.5l-1.7,1.7-3.4,2.6-.7.5h-.5l1.2-2.6,2.4-1.2,1-.5,1-.5h.3Z"/>
  <path class="st28" d="M90.9,400.1h.7l-1.4,1.7-2.4,1.7-1,1-2.2,1.7h-.5l-.5,1h-1.4v-.5h.7l.7-.7.5-1,1.9-1.4,3.7-2.4.5-.7.7-.2h0Z"/>
  <path class="st71" d="M219.6,400.6h0v11.9l.5,2.6v6.6h-.5v-21.4.2h0Z"/>
  <path class="st92" d="M289.9,317.1l.5.7h.5l-.5,1.2-1.7,3.1-1.7,2.6-1,1h-.5v.5l-1,.5.5-.7,2.6-2.6h.5v-1l.5-1h.5v-1.7l1.2-1.9v-1l-.5.2h0Z"/>
  <path class="st131" d="M220.1,444h.5v.7l2.2.5.7.5v.5l1.7.5h-2.2l-2.4-.5-1-.5v-1.9l.5.2h0Z"/>
  <path class="st174" d="M121.5,447.6l4.2.5.7.7-1.7.5h-4.9v-1l1.7-.5v-.2Z"/>
  <path class="st57" d="M292.8,269.7h0v22.6l-.5,7.1h0v-11.2l.5-18.8v.2h0Z"/>
  <path class="st60" d="M292.6,301.8h0v2.6h.5v4.7h0v-2.4h-.5v1l-.5,2.4v.5h-.5v1.9h-.5l.5-2.2.5-2.9v-.5l.5-4.9v-.5.2h0Z"/>
  <path class="st133" d="M88.9,258.7h.5v9.2h-1v-8l.5-1s0-.2,0-.2Z"/>
  <path class="st46" d="M291.2,313v2.2l-.5.5v1.7h-.5l-.7,1.7v.5h-.5l-.5,2.2-.5,1h-.5l-.5-.5.5-1.2,1-1.7,1.7-4.2.5-2.2h.5Z"/>
  <path class="st1" d="M383,406h.5v1l-1.7,3.7-.5,1.2h-.5l-.5,2.2-.5.7h-.5v-1.7l.5-1h.5v-1.2l1.7-3.1.5-1h.5v-.7h0Z"/>
  <path class="st69" d="M395.8,368.2h8.5l-.7.5-1.7.7-1,.5h-.5l1.4-1.7h-1.4l-.5.7h-1.7l-.5-1h-1.7v-.5l-.2.7h0Z"/>
  <path class="st62" d="M124.5,445.4l1,.5.7.5h1.7l.7.7v.5l.7.5v.5h-1.2l-1.9-1.4h-.5v-.5l-1-.5h0l-1.4-.5h0l1.2-.5v.2Z"/>
  <path class="st43" d="M76.2,368.7h3.1v.7l-.7.5h-.5l-.5,1.9-1-.5-1-1,.5-1,1-.5h-1.2v-.5l.2.2h0Z"/>
  <path class="st47" d="M224.7,382.1h.5l.7,1.4v.5h.5l1.7,3.1.7,1.4v.5h-.7v-.5l-.7-.7-1.2-2.2v-.5h-.5l-.5-1v-.7h-.5v-1.4h0Z"/>
  <path class="st28" d="M254.9,322.8h.7v14.4h-.5v-13.6l-.5-.5.2-.2h0Z"/>
  <path class="st15" d="M228.1,386.2h.5l2.2,3.7,3.7,5.9v.5l-.5-.5h-.5l-1.7-2.6v-1h-.5l-.5-1v-.5h-.5l-1.9-3.1v-1l-.2-.2v-.2Z"/>
  <path class="st164" d="M221.3,316.4l.5.5,1.2,2.9,1.7,3.1,1,1.4v.7h-.5l-1.9-2.6-1.7-2.6-.5-1v-2.2l.2-.2Z"/>
  <path class="st85" d="M363,385.3l1,1v1h.5v1.4h.5v-.5l.5.5v1.7l.5,1.4h-.5l-.5-1.2h-.5l-1.9-5.1v-.5l.5.2h0Z"/>
  <path class="st166" d="M381.4,411.1h.5l-.5,1.9-.5.5v1.2l-1,1.9-.5.5-.5-.5v-1h.5v.5l1.4-4.2.5-.5h0l.5-.5h-.5,0Z"/>
  <path class="st94" d="M379,438.8h0v5.9l.5.5h-.7l-.5.5h-.5l.5-5.1.5-1.9.2.2Z"/>
  <path class="st147" d="M221.8,375h.5l2.9,5.9v.7l-1-1-1-1.7v-.5h-.5l-1.2-2.4v-1.2l.2.2h0Z"/>
  <path class="st23" d="M254.9,213h0v7.8h2.2-2.6v-2.9h-.5l-.5-.5v-.5h.7v-1l.5-.5h-.5l.5-1.4h.5v-1h-.2Z"/>
  <path class="st95" d="M360.5,368h2.6-1v1.2l-.5-.5h-4.7l-2.2-.5h0l5.6-.5v.2h0Z"/>
  <path class="st80" d="M384.2,406.5v.5l-1.9,5.1-1,2.4h-.5v-1.2l1-1.7v-1.2l1.7-3.7.5-.5.2.2h0Z"/>
  <path class="st24" d="M397.5,372.9h.5v1l-1.2,2.2h-.5v-.5h-.5v.5h-.7v-1.7l.5-.5h1v-.5h.7v-.7l.2.2Z"/>
  <path class="st160" d="M232,229.3h.5l-.5.7-3.7,2.6-2.4,2.4v-.5l1.7-2.2,1.7-1.7,1-.5,1.7-1h0Z"/>
  <path class="st28" d="M410.5,231.9l.7.7.7,1.2v.5h.5v1.7l-1.2-.5-1-.7v-1.7l.5-.5v-1l-.2.2Z"/>
  <path class="st132" d="M118.1,444h.5v.7h.5v1h.5v1.2l-.7.7h-.5v-.7l-.5-.5v-.5h-.5v-.5h.5v-.7l.5-.5s-.2-.2-.2-.2Z"/>
  <path class="st114" d="M257.6,433.2l1,.5,1.9,3.4,1,1.4.5,1v1.2l-.5-.5v-.5h-.5l-1.2-2.4-2.2-3.7v-.5h0Z"/>
  <path class="st9" d="M146.4,298.6h0l.5,1.9v4.2l-.5,4.9h-.5v-11h.5Z"/>
  <path class="st28" d="M383,446.6h1.7l1.7.5.7,1.7h-1.7l-2.6-1.7v-.5h.2Z"/>
  <path class="st85" d="M244.2,222.9l.7.5-.5.5-3.4,1.2-3.4,1.4-1.4.5v-.5l2.9-1.4,1.9-.5,1.4-.7,1.7-.5v-.5h.2Z"/>
  <path class="st113" d="M75.5,205.6h2.6l.5,1.7.7.5.7.5v.5l-1.9-.5v-.5l-1.9-1v-.5l-.5-.5-.2-.2Z"/>
  <path class="st12" d="M366.6,230.5h0v10.5l-.5-.5v-9.2l.5-.7h0Z"/>
  <path class="st37" d="M396.3,380.9v.5l-2.4,5.6-.5,1.2h-.5v-1.4l1-1.7.5-1.4h.5l.5-1.2,1-1.7v.2h0Z"/>
  <path class="st28" d="M169.4,378h1.9l.5,3.9.7,3.1v.5h-.7l-.5-1.4-.5-3.1-.5-2.9h-1.4.5Z"/>
  <path class="st51" d="M217.6,303.5h1.2v3.4h-.5v2.4h0l-.7-3.7v-2.2h0Z"/>
  <path class="st14" d="M318.2,229h0v3.1h1.2l.7-.5v1l-1.4,1.9-.5,1.2h0v-6.8h0Z"/>
  <path class="st133" d="M218.1,262.1h.5v9.5l-.7-.5v-9h.2,0Z"/>
  <path class="st28" d="M170.2,441.3h1.4-.5l1,6.8v1.7h-.5v-.5l-.5-3.1-.5-2.6-.5-1.7v-.5h0Z"/>
  <path class="st40" d="M258.8,374.1l.7.5v2.4h.5l-.7,1h-1v-2.4l.5-1.4h0Z"/>
  <path class="st102" d="M126.9,369h.5l-3.1,2.6-1,.7-.7,1.7-.5-.5v-.7h.7v-.5l1-1,1.4-1.7,1.7-.5v-.2h0Z"/>
  <path class="st146" d="M384.4,404l.5.5-2.6,5.9-1,1.7v-.5l1.4-3.9,1.7-3.7h0Z"/>
  <path class="st106" d="M269.7,368.5h.7l-.5.7h-.5v1.2h-1.7l-1.4.5h-.5l2.2-1.7.7-.7h1Z"/>
  <path class="st78" d="M378.8,444l1.9.7,3.4,2.2h-.5l-3.4-1.4-1-.5-.5.5h-.5v-.7h.5v-1,.2h0Z"/>
  <path class="st173" d="M226.4,326.4l.7.5,1.7,1.4,1.9,1.4,1.7,1.4v.7l-.5-.5-1.4-1v-.5l-.7-.5-1.9-1.7-1.2-1.4h-.2Z"/>
  <path class="st28" d="M162.4,281.4h.5v1.7l-2.9,1.7-1.2,1h-.5l1.7-1.9,2.2-1.7v-.7h.2Z"/>
  <path class="st85" d="M120.5,415l.5.7v.7h-.5v3.4h-.5v1.2h0v-5.1l.5-1.2v.2h0Z"/>
  <path class="st38" d="M120.1,412.3l.5.5v8h0v1-.5h-.5v-9h.5-.5Z"/>
  <path class="st48" d="M253.5,368.7h9v.5h-7.8l-1.2-.5h0Z"/>
  <path class="st97" d="M81.1,444h.5v.5l1.7.5,1.2.7h-.5l-2.4-.5h-1.9l.7-1,.5-.5.2.2h0Z"/>
  <path class="st79" d="M380.7,410.4h.5v1.4h-.5l-.5,2.2-.5.7h-.5v-1.7l.5-1h.5v-1.2l.5-.5h0Z"/>
  <path class="st113" d="M183.6,382.9l.7.5,1.9,1.7.7,1.4,1,1.7v.5l-.7-.5-1-1.7-1.4-1.9-1.4-1.4h0l.2-.2h0Z"/>
  <path class="st40" d="M279,230.9l1.4.5.5.7.5,1.4h.5l.5,1.2v.5h-.7l-.5-1v-.5h-.5v-.5h-.5l-.7-1.2-.5-.5.5-.5-.5-.2h0Z"/>
  <path class="st113" d="M120.1,425.5v.5l.5,1.7v3.7l-.5,1.7h0v-7.1h.5l-.5-.5h0Z"/>
  <path class="st88" d="M201.4,415.2h0v5.9h-.5v-1.7h-.5v-.7l.5-1h-.5v-1h.5v-1.4h.5Z"/>
  <path class="st177" d="M217.4,293l.5.5v.5h-.5v9.2h0v-9.9h0v-.2h0Z"/>
  <path class="st127" d="M120.5,368.7h3.1v.5l-2.2.5h-1.2v-1s.2,0,.2,0Z"/>
  <path class="st28" d="M249.3,419.1l1,1,2.6,4.4,1.2,1.9v.5l-1.7-1.9-1.7-2.6-1.7-2.6v-.5h.2Z"/>
  <path class="st163" d="M289.9,317.1l.5.7h.5l-.5,1.2-1,1.9h-.5v-1l1-1.9v-1h0Z"/>
  <path class="st0" d="M365.4,388.9l.5.5,1.7,3.1v.7l-1-.7v-.5h-.5l-.5-1.7v-1.7l-.2.2h0Z"/>
  <path class="st98" d="M262,440l.5.5.5,1v.7h-1l-1-1v-.7h.5l.5-1v.5Z"/>
  <path class="st28" d="M363.2,223.7h1v.7h-1l-1.2.7-2.2,1.9h-.5l1.7-1.9,1.4-1.2h-3.1v-.5h3.7l.2.2h0Z"/>
  <path class="st65" d="M318.4,206.7h0v4.9l1.4.5-.5.7-1-.5v4.7h0v-10.3h0Z"/>
  <path class="st140" d="M362.3,383.1h.5l2.2,4.7v1h-.5v-1.4h-.5l-.5-1.2-.5-.5v-.7l-.5-1.2v-.5h-.2Z"/>
  <path class="st85" d="M321.6,378.2h4.9v.5h-5.9l1-.5h0Z"/>
  <path class="st42" d="M356.9,372.9h.7l1.7,2.9,1,1.9v.5h-.5l-1.2-2.6-1.4-1.9v-.7h-.2Z"/>
  <path class="st46" d="M218.1,288.2l.5.5v7.1h-.5v-7.1h0v-.5Z"/>
  <path class="st44" d="M398.3,376.3h.5v1.2l-1.9,3.7h-.5l.5-1.9,1.2-2.6v-.5l.2.2h0Z"/>
  <path class="st168" d="M249.3,338.8h7.8l1,.5h-6.8l-1.7-.5h-.2Z"/>
  <path class="st111" d="M247.1,417h.7l1.9,3.7v.5l-1-1-.5-.5-1-1.9v-.5l-.2-.2h0Z"/>
  <path class="st117" d="M358.8,379.4l.5.5,1.7,3.4v1.2l-.5-.5-.5-1.2-1.2-2.4v-1h0Z"/>
  <path class="st71" d="M352.5,221.7h1.7l1.2.7v.5h-2.2l-1.4-.5v-.5h.7v-.2h0Z"/>
  <path class="st85" d="M263.2,423.8h0v5.9h-.5v-5.9h.5Z"/>
  <path class="st40" d="M254.7,203.4h.5v7.1l-.5-.7h.5v-3.9l-.5-.7.5-.5v-1l-.5-.2h0Z"/>
  <path class="st142" d="M332.5,415.2h1.4l.5.5v.7h-1.9v-1.7.5Z"/>
  <path class="st3" d="M397.5,368.5h2.6l-.5,1h-1.7l-.5-1.2v.2h0Z"/>
  <path class="st29" d="M400.9,371.9v.5l-1.7,2.9-.5,1.2v-.5h-.5l1.2-1.9,1.4-1.9h0v-.2h0Z"/>
  <path class="st48" d="M114.9,368.7h4.9v.7h-2.9l-1.9-.5h0v-.2h0Z"/>
  <path class="st93" d="M156.3,280.9h5.4v.5l-5.6.5v-.5h0l.2-.5Z"/>
  <path class="st161" d="M178.7,205.4h2.6l-1.9.5-2.4,1.7h-1v-.5h.7v-.5h.5v-1h1.4v-.2h0Z"/>
  <path class="st119" d="M396.6,368.5h1l.5,1h1.2v.5l-1.7.5-1-.5.5-.5h.5v-.7h-.5l-.5-.2h0Z"/>
  <path class="st76" d="M120.8,412.8h.7v1.7h-.5l-.7.5v.5l-.5-1.9.5-.5.5-.2h0Z"/>
  <path class="st58" d="M386.8,398.9v1.2h-.5v1.4l-1.7,2.6h-.5v-1.2l1-1.7.7-1.9.5-.5h.5Z"/>
  <path class="st58" d="M390.5,391.1l.5.5-2.4,4.9h-.5v-1l1.7-2.6.7-1.4v-.2h0Z"/>
  <path class="st40" d="M146.4,205.6h2.6v.5l-.7.5-1.7.5v-1.4h-.2Z"/>
  <path class="st173" d="M366.1,229.7l.5.5v4.7l-.5.5-.5-1.2.5-1.9h-.5v-2.4h.5Z"/>
  <path class="st173" d="M365.9,250.4h.5v4.9h-.5v-4.9Z"/>
  <path class="st19" d="M221.3,319.5l.5.5,1.7,2.6.5,1-1.2-.7-.5-.7v-.5h-.5v-1.2h-.5v-1Z"/>
  <path class="st28" d="M356.7,229.7h.5l-2.2,2.4-1.9,1.7-1.7,1.4h-.5l2.4-2.4,2.2-1.7,1.2-1.2v-.2Z"/>
  <path class="st85" d="M365.9,392.3h.5l1,1.7v1l-.5.5-.7-1.7h0v-1.4h-.2Z"/>
  <path class="st129" d="M227.2,388.9h.5v.5h.5l1.7,2.4h.5l.7,1.7v.5h-.5l-.7-1.7v-.5h-.5l-1.4-2.2-.5-1-.2.2h0Z"/>
  <path class="st149" d="M243,410.1h.5l2.2,3.4v1.2l-.5-.5-1.4-2.2-1-1.7h0l.2-.2h0Z"/>
  <path class="st167" d="M292.1,307.7h.5v3.1h-.5v1.9h-.5l.5-2.2.5-2.6h0l-.5-.2Z"/>
  <path class="st113" d="M364.9,274.3h.5v7.1l-.5.5v-7.5Z"/>
  <path class="st107" d="M177.2,353.1l2.4.5,1,.5v.5h-1.4l-2.2-1v-.5h.2Z"/>
  <path class="st172" d="M293.1,251.9h0l.5,5.1v1.7h0l-.7-5.4v-1.7l.2.2Z"/>
  <path class="st114" d="M272.9,225.1h1.4l2.4,1.4v.5l-1.7-.5-2.2-1.2h0v-.2h0Z"/>
  <path class="st182" d="M228.1,386.2h.5l1.7,2.6v1l-.5-.5-1.4-2.2v-1h-.2Z"/>
  <path class="st75" d="M263.7,425.5h0v6.3h-.5v-2.4l.5-3.9Z"/>
  <path class="st67" d="M404.8,224.9l1,.5v.5l.7.5,1.7,1.7.5.7v.5l-3.9-3.7h0v-.7h0Z"/>
  <path class="st85" d="M121.3,444l.5.7h-.5v.7l-1.7,1.2v-1l.7-1.2.7-.5h.2,0Z"/>
  <path class="st77" d="M154.6,386.5v.5l-1.2,2.6h-.5v-1.4l1.2-1.7h.5Z"/>
  <path class="st53" d="M217.4,287.2h.5v2.6l-.7.5v-2.9l.2-.2h0Z"/>
  <path class="st169" d="M156.5,384.1h.5l-.5,1-1.4,1.7h-.5l.5-1,1-1,.5-.5v-.2Z"/>
  <path class="st113" d="M364.4,225.3l.5.7.5,3.7h-.5l-.5-.5v-3.9Z"/>
  <path class="st9" d="M216.7,303.5h.7v2.4h-1v-1.2h-.5.5v-1l.2-.2Z"/>
  <path class="st181" d="M256.8,369h3.4l.7.5v.7l-1-.5-3.1-.5h0v-.2h0Z"/>
  <path class="st109" d="M391.9,388.2h.5l-.5,1.7v.5h-.5v.7h-.5l.5-1.9.5-1Z"/>
  <path class="st11" d="M120.1,412.3l.5.5v2.2-.5h-.5v-2.4h.5l-.5.2Z"/>
  <path class="st58" d="M185.6,409.9h.5v1.4l-.5,1h-.5v-2.4h.5Z"/>
  <path class="st5" d="M379.3,413.5v1h.5v1.4l-.5.5v-.7h0v-1.7l.5-.5h-.5Z"/>
  <path class="st25" d="M250,420.6l.7,1,.7,1.2v.5l-1.4-1-.5-1.2v-.5h.5Z"/>
  <path class="st22" d="M266.3,222.7h1.4l1.7.7v.5h-1.4l-1.7-.7v-.5Z"/>
  <path class="st40" d="M263.2,372.9h.5v.5l-.5,2.2-.5-.5-.5-1.4.7-.7h.2Z"/>
  <path class="st179" d="M381.9,411.3v.7l-.7,2.4h-.5v-1.2l1.2-1.9Z"/>
  <path class="st113" d="M189.6,389.2l.7.7v.7h0v1.4h-.5l-.5-1.7h0v-1.2h.2Z"/>
  <path class="st3" d="M364,385.8l.5.7.5,1.2v1h-.5v-1.4h-.5l-.5-1.4h.5Z"/>
  <path class="st49" d="M362,385l1,1,.5.5v1.2l-.7-.7-.5-1.4v-.5h-.2Z"/>
  <path class="st183" d="M219.6,374.5l1.2,1,.5,1.2h-.5v.5l-1-1.7-.5-1h.2Z"/>
  <path class="st124" d="M262.4,368.7h3.1l-1.7.5h-1.4v-.5Z"/>
  <path class="st50" d="M289,321h.5l-1.4,2.6h-.5l.5-1.2v-.7h.5v-.5l.5-.2h0Z"/>
  <path class="st87" d="M293.3,284.7h.5v2.9h-.5v-2.9Z"/>
  <path class="st28" d="M381.9,409.1h.5l-.5,1.2-1,1.7v-.5l.7-2.6.2.2h0Z"/>
  <path class="st100" d="M119.6,447.8h.5v1h-2.4l.5-.5,1.4-.5Z"/>
  <path class="st157" d="M233,393.5l.7,1,.7,1.4v.5l-.5-.5h-.5l-.7-1.4v-.7l.2-.2h0Z"/>
  <path class="st162" d="M123.7,371.4h.5l-1,1-.7,1.7-.5-.5v-.7h.7v-.5l.7-.5s.2-.5.2-.5Z"/>
  <path class="st126" d="M221.3,316.4l.5.5.7,1.9v.5l-.7-1.2h-.5v-1.9.2Z"/>
  <path class="st10" d="M217.9,274.3h0v3.4-.5h-.5v-1.7l.5-1.4v.2h0Z"/>
  <path class="st101" d="M234,395.7l.7.5,1,1.7v.5l-1-.7-.7-1.2v-.7h0Z"/>
  <path class="st58" d="M393.4,385.5h.5v1l-1,1.4h-.5l.5-1.7.5-.5v-.2Z"/>
  <path class="st173" d="M224.4,323h.7l1,1.9h-.5l-1.2-1.7v-.5.2h0Z"/>
  <path class="st68" d="M396.3,380.9v.5l-.5,1.7h-.5v-1.2l.7-1.2.2.2h0Z"/>
  <path class="st9" d="M337.7,206.4h1v.5l-.5.5-.7-.5h-1v-.5h1.2Z"/>
  <path class="st40" d="M180.9,422.7l.7.5v1l-1.2-.5v-.7h.5v-.5.2Z"/>
  <path class="st27" d="M239.5,404.3l.7,1,.5.7v.7l-1.7-2.2v-.5l.5.2h0Z"/>
  <path class="st4" d="M330.8,410.6l.7.5,1,.7v1.4l-.5-1-1.2-1.7h0Z"/>
  <path class="st20" d="M386.8,398.9v1.2h-.5v1.4h-.7l.7-1.9.5-.5v-.2Z"/>
  <path class="st87" d="M217.1,291.3h.5v2.2h-.5v-2.2Z"/>
  <path class="st136" d="M217.9,283.1l.5.5-.5,1.9h-.5v-2.4h.5Z"/>
  <path class="st63" d="M178.7,205.4h2.6l-1.9.5-.5.5h-.5v-.5h.5l-.2-.5Z"/>
  <path class="st99" d="M230.1,389.5h.5l.7,1.7-.5.5-.5-.5v-.5h-.5v-1l.2-.2h0Z"/>
  <path class="st33" d="M395.3,383.1v.5l-.5,1.2h-.5v-1.2l1-.5Z"/>
  <path class="st121" d="M87.7,368.7h2.6l-1.9.5-.7.5h-.7l.7-.5s0-.5,0-.5Z"/>
  <path class="st86" d="M365.4,388.9l.5.5v1.4h-.5v-1.9Z"/>
  <path class="st48" d="M263.7,372.1h.5l-.5.5-.7.5h-1v-.5h.5l.5-.5h.7Z"/>
  <path class="st159" d="M256.8,338.8l1.2.5h-2.6v-.5h1.7-.2Z"/>
  <path class="st96" d="M231.5,229h.5l-1,1.2-.7.5h-.5l1.9-1.7h-.2Z"/>
</svg>