<svg width="52" height="31" viewBox="0 0 52 31" fill="none" xmlns="http://www.w3.org/2000/svg">
<path d="M4.02034 0.697144H10.9795C12.6685 0.697144 14.0283 2.0569 14.0283 3.74592V27.2745C14.0283 28.9636 12.6685 30.3233 10.9795 30.3233H4.02034C2.33131 30.3233 0.971558 28.9636 0.971558 27.2745V3.74592C0.971558 2.0569 2.33131 0.697144 4.02034 0.697144Z" fill="white"/>
<path d="M9.25152 6.12774L9.2612 6.22795C9.47117 6.35203 9.58092 6.45224 9.7956 6.59063C10.3587 6.94853 11.0508 7.5832 10.9648 9.76401C11.127 10.2412 11.1986 11.1717 11.3418 11.4676C11.633 12.0546 11.8333 12.4363 11.9192 12.9851C11.9192 12.9851 12.0052 13.8441 12.1149 13.9061C12.697 14.0397 12.5301 14.097 12.6111 14.202C12.7017 14.3165 13.0406 14.3117 13.0406 14.6267C13.1599 14.7842 13.2506 14.9416 13.3126 15.1134V3.77037C13.3126 2.47239 12.2627 1.42255 10.9694 1.42255H8.73131C9.08921 1.55139 9.29441 1.70409 9.41377 1.94269C9.69996 1.96655 10.039 2.61078 9.50915 3.56995C9.74291 3.7322 9.56157 3.9708 9.39455 4.2428C9.34206 4.3287 9.28957 4.48617 9.13209 4.47663C8.92212 4.91088 8.67868 5.32127 8.49271 5.34513C8.44028 5.41194 8.40197 5.59805 8.4831 5.68394C8.7553 5.80802 9.08444 5.97026 9.25152 6.12774Z" fill="#C80F2E"/>
<path d="M11.341 29.5685L11.3172 29.5733C12.3431 28.9482 11.7084 27.7648 11.5129 27.0681L11.551 26.9486C11.6035 26.8532 11.4938 26.629 11.4938 26.629C11.365 26.524 11.3363 25.9419 11.2694 25.6746C11.1598 25.2404 11.4651 24.4816 11.4651 24.224C11.4651 23.9661 11.2694 23.6131 10.9164 23.1646C10.8304 23.0644 10.5727 20.8645 10.3436 20.3061C10.0239 19.5378 9.92842 19.6618 9.54679 18.7409C9.25563 18.0966 9.48469 17.1471 8.82622 14.9424L8.97408 14.804C8.97408 14.804 8.44916 12.8857 8.27731 12.3608C8.11022 11.8358 7.80017 11.8024 7.80017 11.8024L7.81919 11.5304C7.84312 11.4493 8.45864 9.85068 8.51113 9.79819C8.51584 9.76478 9.39873 9.15874 9.41298 9.24941C9.48449 9.64071 9.82814 11.6306 9.976 11.9456C10.1239 12.2653 10.6347 13.2388 10.8684 13.8448C9.95698 14.0691 9.27452 14.8947 9.27452 15.873C9.27452 17.0278 10.2099 17.9679 11.3647 17.9679C12.2474 17.9679 13.0111 17.4191 13.3164 16.6461L13.3116 27.2543C13.3118 28.4281 12.4672 29.3967 11.341 29.5685Z" fill="#C80F2E"/>
<path d="M7.99625 1.42255C7.23273 1.71841 7.12775 2.04768 7.09918 3.10706C6.97034 3.12138 6.70304 2.99731 6.79378 3.64153C6.79378 3.64153 6.8415 4.07101 7.01329 3.99943C6.87967 4.93474 6.98585 5.16883 6.36436 5.23538C6.23075 5.24969 6.06843 5.25924 5.86807 5.26878L5.80604 5.35468C4.95662 5.4358 4.53589 5.38152 3.98784 6.10388C3.77787 6.38066 3.55359 6.77196 3.27681 7.33029C3.27681 7.33029 3.02389 7.95542 2.94748 8.21311C2.7041 8.72371 2.1076 9.85468 1.93104 10.58C1.87384 10.8282 1.76402 10.9045 1.92149 11.2624C2.15532 11.7778 1.76879 11.9114 3.09541 11.8732V12.1786C3.09541 12.1786 2.74228 12.484 2.66593 12.6654C2.59435 12.8515 2.38915 13.7629 2.39876 14.1972C2.42256 15.3282 3.34362 16.273 3.61556 17.3992L4.23114 17.4852C4.56518 18.2535 6.02542 20.3244 6.3643 20.6585C6.36907 20.6633 6.37384 20.6681 6.37861 20.6729C6.4549 20.8685 6.83195 21.1119 7.0514 21.3553C7.18508 21.4841 7.80074 22.1522 8.62145 22.7869C8.92275 23.0199 9.24672 23.2498 9.5854 23.4455C9.57585 23.4406 9.78582 23.8606 9.89081 24.2042C9.47087 24.5429 10.2869 25.1634 10.535 26.1894C10.5493 26.3276 10.2964 26.4661 10.6734 26.8049C10.6496 28.3557 10.1772 29.1671 10.9693 29.5965H3.98784C2.71855 29.5678 1.6925 28.5276 1.6925 27.2534V3.77037C1.6925 2.4867 2.71849 1.45118 3.98784 1.42255H7.99625Z" fill="#1D4289"/>
<path fill-rule="evenodd" clip-rule="evenodd" d="M17.54 1.40915V29.5637H20.5829C20.5909 22.3132 20.7553 15.0334 20.3091 7.86768L23.8173 29.5637H28.1834V1.40915H25.1704C25.109 8.8741 25.374 16.2347 25.8802 23.5183L22.2349 1.40915H17.54Z" fill="#1D4289"/>
<path fill-rule="evenodd" clip-rule="evenodd" d="M43.918 1.38852L40.9272 29.5667H44.6484L45.1352 23.8689H47.5696L48.0565 29.5667H51.7603L48.8564 1.38852H43.918ZM46.3524 9.34221L47.2914 20.5629H45.4134L46.3524 9.34221Z" fill="#1D4289"/>
<path d="M30.5289 1.40855V29.5479H35.9715C36.8636 29.5479 39.9013 28.7682 39.9013 24.8612V19.2411C39.9013 18.649 39.9063 16.7926 38.2842 15.7018C39.2978 15.7018 39.9013 13.7354 39.9013 11.9486V5.92018C39.9013 3.57131 38.4393 1.40216 35.502 1.40855H30.5289ZM33.8849 5.00618H35.5368C36.2935 5.00618 36.5453 5.84161 36.5453 6.48413V13.0377C36.5453 14.1586 36.1768 14.2433 35.4151 14.2433H33.8849V5.00618ZM33.8849 17.3159H35.5368C36.2935 17.3159 36.5453 18.1513 36.5453 18.7939V24.6473C36.5453 25.41 36.1651 25.9891 35.4151 25.9891L33.8849 26.0085V17.3159Z" fill="#1D4289"/>
</svg>
