<?xml version="1.0" encoding="UTF-8"?>
<svg id="Layer_1" xmlns="http://www.w3.org/2000/svg" version="1.1" viewBox="0 0 34 47">
  <!-- Generator: Adobe Illustrator 29.0.1, SVG Export Plug-In . SVG Version: 2.1.0 Build 192)  -->
  <defs>
    <style>
      .st0 {
        fill: #fff;
      }

      .st1 {
        fill: #013369;
      }

      .st2 {
        fill: #d50a0a;
      }
    </style>
  </defs>
  <path class="st0" d="M32.3,6.2c-1.4,1-4.1,2.4-7.6,1.5-6-1.5-7.8-6.7-7.8-6.7,0,0-1.7,5.2-7.8,6.7-3.5.9-6.2-.5-7.6-1.5H.4v28c0,.7.2,2.1,1.3,3.5,1.4,1.7,3.8,2.8,7.2,3.3,2.7.4,4.6,1.2,6,2.5,1,1,2,2.7,2,2.7,0,0,1-1.7,2-2.7,1.4-1.3,3.4-2.2,6-2.5,3.3-.5,5.7-1.6,7.2-3.3,1.2-1.4,1.3-2.8,1.3-3.5V6.2h-1.1Z"/>
  <path class="st1" d="M32.4,7.3s-3.3,2.6-8,1.4c-5.4-1.3-7.5-5.4-7.5-5.4,0,0-2.1,4.1-7.5,5.4-4.6,1.2-8-1.4-8-1.4v26.9c0,.9.4,4.8,7.7,5.8,2.9.4,5,1.3,6.6,2.8.5.5,1,1.1,1.3,1.6.3-.5.7-1,1.3-1.6,1.5-1.5,3.7-2.4,6.6-2.8,7.3-1.1,7.7-4.9,7.7-5.8V7.3h0Z"/>
  <path class="st0" d="M16.9,41.6s2.1-2.6,7.6-3.4c6.3-1,6.1-3.9,6.1-4v-14.1H3.2v14.1c0,.2-.2,3.1,6.1,4,5.5.8,7.6,3.4,7.6,3.4h0Z"/>
  <path class="st2" d="M10.5,30.4v-6.7l-.8-.5v-1.7h3.8v1.7l-.8.5v13.7l-2.1-.6-3-8.7v5.8l.9.7v1.8l-4.1-1v-1.5l.9-.4v-9.6l-1-.5v-1.7h3.1l2.9,8.9ZM17.6,36.5l.8,1v1.7l-4.1-1.5v-1.5l.9-.4v-12.2l-.9-.4v-1.8h7.1v3.5h-1.6l-.5-1.4h-1.8v4.1h1.4l.5-.8h1.1v3.6h-1.1l-.5-.7h-1.4v6.7h0ZM22.1,37.1v-1.7l1-.8v-10.9l-.9-.4v-1.8h4.1v1.8l-.8.4v10.2l1.8-.5.3-2.7h1.7v4.5l-7.2,1.9h0Z"/>
  <path class="st0" d="M3.9,17.2l-1.2-.9h1.5l.5-1.4.5,1.4h1.5l-1.2.9.5,1.4-1.2-.9-1.2.9.5-1.4ZM9.3,17.2l-1.2-.9h1.5l.5-1.4.5,1.4h1.5l-1.2.9.5,1.4-1.2-.9-1.2.9.5-1.4ZM3.9,12.4l-1.2-.9h1.5l.5-1.4.5,1.4h1.5l-1.2.9.5,1.4-1.2-.9-1.2.9.5-1.4ZM9.3,12.4l-1.2-.9h1.5l.5-1.4.5,1.4h1.5l-1.2.9.5,1.4-1.2-.9-1.2.9.5-1.4ZM30.3,18.7l-1.2-.9-1.2.9.5-1.4-1.2-.9h1.5l.5-1.4.5,1.4h1.5l-1.2.9.5,1.4ZM24.9,18.7l-1.2-.9-1.2.9.5-1.4-1.2-.9h1.5l.5-1.4.5,1.4h1.5l-1.2.9.5,1.4ZM30.3,13.8l-1.2-.9-1.2.9.5-1.4-1.2-.9h1.5l.5-1.4.5,1.4h1.5l-1.2.9.5,1.4ZM24.9,13.8l-1.2-.9-1.2.9.5-1.4-1.2-.9h1.5l.5-1.4.5,1.4h1.5l-1.2.9.5,1.4ZM20.3,8.5c.1,0,.2.1.3.2.5,1.3.7,3,.3,4.6-.6,2.4-2.6,4.6-7,5.2,0,0-.2,0-.2,0,.2-.9.7-2.7,1.7-4.5.2.1.4.3.6.4,0-.1.2-.2.3-.4-.5-.4-1.2-.7-1.8-.8,0,0-.1.3-.2.5,0,0,.3,0,.6.2-.9,2-1.3,3.8-1.4,4.7-.3-.4-.5-1.4-.5-1.9-.7-5.1,3-8,6.9-8.1.3,0,.4,0,.4,0,0,0-.9.3-1.9,1.1,0,0-.2,0-.5-.2-.2,0-.3.2-.5.3.5.1,1.1.4,1.7.8.1-.1.3-.2.4-.4-.1-.1-.4-.3-.6-.4.9-.9,1.5-1.2,1.5-1.2h0ZM16.6,13.3c0-.1.2-.3.3-.5-.5-.4-1.1-.7-1.9-.9-.1.2-.3.5-.3.5.6.1,1.3.4,1.9.9ZM17.3,12.3c.1-.2.2-.3.4-.4-.6-.5-1.3-.8-1.9-.9-.1.1-.3.3-.4.4.7.1,1.4.5,1.9.9ZM18.1,11.3c.1-.1.2-.3.4-.4-.4-.3-.9-.7-1.7-.9-.1.1-.3.2-.5.4.6.1,1.3.4,1.8.9h0Z"/>
</svg>