<?xml version="1.0" encoding="UTF-8"?>
<svg id="Layer_1" xmlns="http://www.w3.org/2000/svg" xmlns:xlink="http://www.w3.org/1999/xlink" version="1.1" viewBox="0 0 40 45">
  <!-- Generator: Adobe Illustrator 29.0.1, SVG Export Plug-In . SVG Version: 2.1.0 Build 192)  -->
  <defs>
    <style>
      .st0 {
        fill: #fff;
      }

      .st0, .st1, .st2, .st3, .st4, .st5, .st6, .st7, .st8, .st9, .st10 {
        fill-rule: evenodd;
      }

      .st1 {
        fill: #111;
      }

      .st2 {
        fill: #e4e5e6;
      }

      .st3 {
        fill: url(#linear-gradient);
      }

      .st4 {
        fill: url(#linear-gradient1);
      }

      .st5 {
        fill: url(#linear-gradient2);
      }

      .st6 {
        fill: url(#linear-gradient7);
      }

      .st7 {
        fill: url(#linear-gradient4);
      }

      .st8 {
        fill: url(#linear-gradient5);
      }

      .st9 {
        fill: url(#linear-gradient3);
      }

      .st10 {
        fill: url(#linear-gradient6);
      }
    </style>
    <linearGradient id="linear-gradient" x1="-25.8" y1="26.1" x2="-24.2" y2="26.1" gradientTransform="translate(0 46) scale(1 -1)" gradientUnits="userSpaceOnUse">
      <stop offset="0" stop-color="#fff"/>
      <stop offset=".1" stop-color="#fff"/>
      <stop offset=".2" stop-color="#dcdfe1"/>
      <stop offset=".4" stop-color="#a8afb3"/>
      <stop offset=".5" stop-color="#949ca1"/>
      <stop offset="1" stop-color="#949ca1"/>
    </linearGradient>
    <linearGradient id="linear-gradient1" x1="37" y1="48.4" x2="37" y2="53" gradientTransform="translate(0 46) scale(1 -1)" gradientUnits="userSpaceOnUse">
      <stop offset="0" stop-color="#fff"/>
      <stop offset=".3" stop-color="#fff"/>
      <stop offset=".6" stop-color="#949ca1"/>
      <stop offset="1" stop-color="#949ca1"/>
    </linearGradient>
    <linearGradient id="linear-gradient2" x1="-25.4" y1="9.2" x2="-19.2" y2="9.2" gradientTransform="translate(0 46) scale(1 -1)" gradientUnits="userSpaceOnUse">
      <stop offset="0" stop-color="#fff"/>
      <stop offset=".2" stop-color="#fff"/>
      <stop offset=".2" stop-color="#fafafa"/>
      <stop offset=".3" stop-color="#ebeced"/>
      <stop offset=".4" stop-color="#d2d5d7"/>
      <stop offset=".5" stop-color="#afb5b9"/>
      <stop offset=".5" stop-color="#949ca1"/>
      <stop offset="1" stop-color="#949ca1"/>
    </linearGradient>
    <linearGradient id="linear-gradient3" x1="0" y1="54.2" x2="-7.1" y2="64.7" gradientTransform="translate(0 46) scale(1 -1)" gradientUnits="userSpaceOnUse">
      <stop offset="0" stop-color="#949ca1"/>
      <stop offset="0" stop-color="#99a1a6"/>
      <stop offset=".1" stop-color="#c2c6c8"/>
      <stop offset=".2" stop-color="#dbddde"/>
      <stop offset=".2" stop-color="#e4e5e6"/>
      <stop offset=".8" stop-color="#e4e5e6"/>
      <stop offset=".8" stop-color="#dcdedf"/>
      <stop offset=".9" stop-color="#c7cacd"/>
      <stop offset="1" stop-color="#a3aaae"/>
      <stop offset="1" stop-color="#949ca1"/>
    </linearGradient>
    <linearGradient id="linear-gradient4" x1="-23.3" y1="41.9" x2="-19.2" y2="41.9" gradientTransform="translate(0 46) scale(1 -1)" gradientUnits="userSpaceOnUse">
      <stop offset="0" stop-color="#fff"/>
      <stop offset=".2" stop-color="#fff"/>
      <stop offset=".3" stop-color="#fafafa"/>
      <stop offset=".5" stop-color="#ebeced"/>
      <stop offset=".6" stop-color="#d2d5d7"/>
      <stop offset=".7" stop-color="#afb5b9"/>
      <stop offset=".8" stop-color="#949ca1"/>
      <stop offset="1" stop-color="#949ca1"/>
    </linearGradient>
    <linearGradient id="linear-gradient5" x1="-19.2" y1="13.5" x2="-12.7" y2="13.5" gradientTransform="translate(0 46) scale(1 -1)" gradientUnits="userSpaceOnUse">
      <stop offset="0" stop-color="#fff"/>
      <stop offset=".2" stop-color="#fff"/>
      <stop offset=".3" stop-color="#fafbfb"/>
      <stop offset=".5" stop-color="#edeeef"/>
      <stop offset=".6" stop-color="#d7dadc"/>
      <stop offset=".8" stop-color="#b8bdc1"/>
      <stop offset=".9" stop-color="#949ca1"/>
      <stop offset="1" stop-color="#949ca1"/>
    </linearGradient>
    <linearGradient id="linear-gradient6" x1="-19.2" y1="41.9" x2="-15.1" y2="41.9" gradientTransform="translate(0 46) scale(1 -1)" gradientUnits="userSpaceOnUse">
      <stop offset="0" stop-color="#fff"/>
      <stop offset=".2" stop-color="#fff"/>
      <stop offset=".3" stop-color="#fafafa"/>
      <stop offset=".5" stop-color="#ebeced"/>
      <stop offset=".6" stop-color="#d2d5d7"/>
      <stop offset=".7" stop-color="#afb5b9"/>
      <stop offset=".8" stop-color="#949ca1"/>
      <stop offset="1" stop-color="#949ca1"/>
    </linearGradient>
    <linearGradient id="linear-gradient7" x1="-25.7" y1="40.4" x2="-23.1" y2="40.4" gradientTransform="translate(0 46) scale(1 -1)" gradientUnits="userSpaceOnUse">
      <stop offset="0" stop-color="#fff"/>
      <stop offset=".4" stop-color="#fff"/>
      <stop offset=".5" stop-color="#fafafa"/>
      <stop offset=".6" stop-color="#ebeced"/>
      <stop offset=".7" stop-color="#d2d5d7"/>
      <stop offset=".8" stop-color="#afb5b9"/>
      <stop offset=".9" stop-color="#949ca1"/>
      <stop offset="1" stop-color="#949ca1"/>
    </linearGradient>
  </defs>
  <path class="st0" d="M2.6,27c0-3.9,1.9-5.4,2.3-9.2-.5,3.3-2.7,5.9-2.7,9.2s.2,2.4.5,3.4c1.4,4.5,5.5,7.1,9.5,8.1-6.1-1.5-9.5-6.6-9.5-11.5ZM37.9,27c0-2-.6-3.7-1.2-5.2-.8-1.8-1.6-3.4-1.6-5.4,0,4.8,2.3,6.2,2.3,10.5s-3.4,9.9-9.5,11.5c5.6-1.4,10-5.4,10-11.5Z"/>
  <path class="st2" d="M35.9,7.9c-1.3-.4-2.2-1.3-2.7-2.8l-1.2-3.4-.6,2.2c1.2,5.3,5.7,5.7,5.7,5.7l1.8-.8-2.9-.8ZM14.7,27.3l-2.3-3.5-2.6,1.9s.9,0,.9,1v6.6l1.8-1.3v-4.7l2.1,3.2,1.9-1.4v-8.3l-1.8,1.3v5.2ZM22.2,19.6l-2.1,1.5v-3.1l-2.8,2s.9,0,.9,1v6.6l1.9-1.4v-3l2.1-1.5v3.1l1.8-1.3v-8.3l-1.8,1.3v3ZM27.4,18.8v-6.2l-2.8,2s.9,0,.9,1v6.6l5.2-3.9c0-1.3,0-2.1,0-2.1l-3.3,2.5Z"/>
  <path class="st3" d="M3.6,16.4c0,4.7-2.4,5.6-2.4,10.5s.2,2.9.7,4.2c.1-.3.4-.6.6-.8-.3-1-.5-2.1-.5-3.4,0-3.2,2.2-5.9,2.7-9.2,0-.4,0-.9,0-1.3,0-3.8-1.8-6.9-1.8-6.9l-1.8-.8,1.2,2.7c.6,1.4,1.1,3.1,1.1,5Z"/>
  <path class="st4" d="M35.1,16.4c0,2,.8,3.6,1.6,5.4h1c-.6-1.5-1.2-3-1.2-5.4s.5-3.6,1.1-5l1.2-2.7-1.8.8s-1.8,3.2-1.8,6.9Z"/>
  <path class="st5" d="M18.6,39.9c-1.5-.5-3.5-.7-6.4-1.4-4-1-8.2-3.5-9.5-8.1-.2.2-.5.5-.6.8,1.6,4.4,5.5,7.4,9.8,8.5,2.7.7,4,.7,6.1,1.3.3.3,2.1,2.3,2.1,2.3v-1.9s-1.2-1.4-1.4-1.5Z"/>
  <path class="st9" d="M12.5,37.1c3.3.8,5.4.9,6.8,1.6,0,0,.5.5.7.7.2-.2.7-.7.7-.7,1.4-.7,3.6-.8,6.8-1.6,4.1-1,8.6-4.6,8.6-10.2s-2.3-5.5-2.3-10.5,1.3-6.1,1.3-6.1c0,0-3-.6-4.4-4.4,0,0-2,1.9-4.8,1.9s-5.8-2.4-5.8-2.4c0,0-2.3,2.4-5.8,2.4s-4.8-1.9-4.8-1.9c-1.4,3.8-4.5,4.4-4.5,4.4,0,0,1.3,2.6,1.3,6.1,0,5.1-2.3,6.6-2.3,10.5s4.5,9.1,8.6,10.2ZM34.7,27c0,4.7-3.8,7.8-7.4,8.8-2.6.7-5.7,1-6.7,1.5-.2.1-.5.4-.5.4,0,0-.3-.3-.5-.4-.9-.5-4.1-.9-6.7-1.5h-.3c0,0,20.4-15.1,20.4-15.1.7,2.4,1.7,3.9,1.7,6.3ZM33.2,11.2c-.4,1.2-.9,3.1-.9,5.2s0,1.7.2,2.4l-21.9,16.1c-2.7-1.4-5.1-4-5.3-7.7L30.5,8.8c.9,1.2,1.9,1.9,2.7,2.4ZM7.7,16.4c0-2.2-.5-4-.9-5.2.9-.5,2.2-1.4,3.1-3,1,.6,2.5,1.2,4.2,1.2,2.6,0,4.6-1.1,5.8-2,1.2.8,3.2,2,5.8,2s.8,0,1.2,0L5.7,24.9c.6-2.4,2.1-4.3,2.1-8.5Z"/>
  <path class="st7" d="M14.2,6.5c3.5,0,5.8-2.9,5.8-2.9v-1.8l-1.8,1.8c-.9.9-2.5,1.7-4,1.7s-2.2-.5-3.1-1.2l-2.8-2.3.6,2.2c0,0,2.6,2.7,5.3,2.7Z"/>
  <path class="st8" d="M37.9,27c0,6.1-4.4,10.1-10,11.5-2.9.7-5,.9-6.4,1.4-.2.2-1.4,1.5-1.4,1.5v1.9s1.9-2,2.1-2.3c2-.6,3.3-.6,6.1-1.3,5.5-1.4,10.6-6.1,10.6-12.7s-.5-3.8-1.1-5.2h-1c.6,1.5,1.2,3.2,1.2,5.2Z"/>
  <path class="st10" d="M25.9,6.5c2.7,0,5.4-2.7,5.4-2.7l.6-2.2-2.8,2.3c-.9.7-2,1.2-3.1,1.2s-3-.7-4-1.7l-1.8-1.8v1.8c0,0,2.3,3,5.8,3Z"/>
  <path class="st6" d="M8.8,3.8l-.6-2.2-1.3,3.4c-.6,1.5-1.5,2.4-2.7,2.8l-2.9.8,1.8.8s4.5-.4,5.7-5.7Z"/>
  <path class="st1" d="M5.7,24.9l21.4-15.7c-.4,0-.8,0-1.2,0-2.6,0-4.6-1.1-5.8-2-1.2.8-3.2,2-5.8,2s-3.2-.6-4.2-1.2c-.9,1.6-2.2,2.5-3.1,3,.4,1.2.9,3.1.9,5.2,0,4.2-1.4,6.2-2.1,8.5ZM12.5,35.7h.3c2.6.7,5.7,1.1,6.7,1.6.2.1.5.4.5.4,0,0,.3-.3.5-.4.9-.5,4.1-.9,6.7-1.5,3.6-.9,7.4-4,7.4-8.8s-1-3.9-1.8-6.3l-20.4,15ZM3.1,16.4c0,4.5-2.4,5.5-2.4,10.5,0,7.2,5.7,11.9,11,13.3,2.7.7,3.5.7,5.9,1.2.2.2,2.5,2.6,2.5,2.6,0,0,2.3-2.4,2.5-2.6,2.4-.6,3.2-.6,5.9-1.2,5.3-1.3,11-6.1,11-13.3s-2.4-6-2.4-10.5.3-3.3,1-4.8l1.5-3.3-3.5-1c-1.1-.3-1.8-1.1-2.4-2.4l-1.6-4.2-3.5,2.8c-.9.7-1.8,1.1-2.8,1.1s-2.7-.6-3.6-1.5l-2.2-2.2-2.2,2.2c-.9.9-2.3,1.5-3.6,1.5s-1.8-.4-2.8-1.1L7.9.7l-1.6,4.2c-.5,1.3-1.3,2.1-2.4,2.4l-3.5,1.1,1.5,3.3c.7,1.5,1,3.1,1,4.7ZM4.2,7.9c1.3-.4,2.2-1.3,2.7-2.8l1.3-3.4,2.9,2.3c.9.7,2,1.2,3.1,1.2s3-.7,4-1.7l1.8-1.8,1.8,1.8c.9.9,2.5,1.7,4,1.7s2.2-.5,3.1-1.2l2.8-2.3,1.3,3.4c.6,1.5,1.5,2.4,2.7,2.8l2.9.8-1.2,2.7c-.6,1.4-1.1,3.1-1.1,5s.6,3.9,1.2,5.3c.6,1.4,1.1,2.8,1.1,5.2,0,6.6-5,11.3-10.5,12.7-2.7.7-4,.7-6.1,1.3-.3.3-2.1,2.3-2.1,2.3,0,0-1.9-2-2.1-2.3-2-.6-3.3-.6-6.1-1.3-4.3-1.1-8.2-4.1-9.8-8.5-.5-1.3-.7-2.7-.7-4.2,0-4.9,2.3-5.8,2.3-10.5s-.5-3.6-1.1-5l-1.2-2.7,2.9-.8ZM10.6,34.9l21.9-16.1c0-.7-.2-1.5-.2-2.4,0-2.2.5-4,.9-5.2-.8-.5-1.8-1.2-2.7-2.4L5.4,27.3c.1,3.6,2.5,6.3,5.2,7.6ZM27.4,12.7v6.1l3.3-2.5s0,.8,0,2.1l-5.2,3.9v-6.6c0-.9-.9-1-.9-1l2.8-2.1ZM20.1,18.1v3.1l2.1-1.5v-3.1l1.8-1.3v8.3l-1.8,1.4v-3l-2.1,1.5v3l-1.9,1.4v-6.6c0-.9-.9-1-.9-1l2.8-2.1ZM12.4,23.8l2.3,3.5v-5.2l1.8-1.3v8.3l-1.9,1.4-2.1-3.2v4.7l-1.8,1.3v-6.6c0-.9-.9-1-.9-1l2.6-1.9ZM4.9,17.8c-.4,3.8-2.3,5.2-2.3,9.2s3.4,9.9,9.6,11.5c2.9.7,5,.9,6.4,1.4.2.2,1.4,1.5,1.4,1.5,0,0,1.2-1.3,1.4-1.5,1.5-.5,3.5-.7,6.4-1.4,6.2-1.5,9.6-6.6,9.6-11.5s-2.3-5.7-2.3-10.5,1.8-6.9,1.8-6.9c0,0-4.5-.4-5.7-5.7,0,0-2.7,2.7-5.4,2.7s-5.8-2.9-5.8-2.9c0,0-2.3,2.9-5.8,2.9s-5.4-2.7-5.4-2.7c-1.2,5.3-5.7,5.7-5.7,5.7,0,0,1.8,3.2,1.8,6.9,0,.5,0,.9,0,1.3ZM5,10.4s3-.6,4.5-4.4c0,0,2,1.9,4.8,1.9s5.8-2.4,5.8-2.4c0,0,2.3,2.4,5.8,2.4s4.8-1.9,4.8-1.9c1.4,3.8,4.5,4.4,4.5,4.4,0,0-1.3,2.6-1.3,6.1,0,5.1,2.3,6.5,2.3,10.5s-4.5,9.1-8.6,10.2c-3.3.8-5.4.9-6.8,1.6,0,0-.5.5-.7.7-.2-.2-.7-.7-.7-.7-1.4-.7-3.6-.8-6.8-1.6-4.1-1-8.6-4.6-8.6-10.2s2.3-5.5,2.3-10.5c0-3.4-1.4-6.1-1.4-6.1Z"/>
</svg>