<?xml version="1.0" encoding="UTF-8"?>
<svg id="Layer_1" xmlns="http://www.w3.org/2000/svg" version="1.1" viewBox="0 0 541.7 272.3">
  <!-- Generator: Adobe Illustrator 29.0.1, SVG Export Plug-In . SVG Version: 2.1.0 Build 192)  -->
  <defs>
    <style>
      .st0 {
        fill: #84c2ff;
      }

      .st1 {
        fill: #e3e4dc;
      }
    </style>
  </defs>
  <g>
    <path class="st1" d="M533.3,158.2l-1.3-6-2.3-5.6-3-4.6-3.7-4-4.3-3.3-5.3-3-8-3,3.7-1.3,4.3-2.7,3-2.7,3-3.7,2.3-4.3,1.7-5.3.7-4.6v-5l-.7-4.6-1.3-5.6-2.3-5-3-4.6-4-4-3-2.3-3.7-2.3-5.3-2.3-5-1.3-7.3-1h-56.1l-.3.3v141.1l1.7.7,60.1-.3,5.3-.7,7.6-2,5.3-2.3,4.6-2.7,4.3-3.3,2.3-2.3,4-5.3,3-5.6,2-6,1.3-7.3v-9.6l-.3-2.3ZM454.3,87.2l.7-2h30.2l5.3,1,3.3,1.3,3.3,2.3,2.3,2.7,1.7,3.3,1,4v6.6l-1,4.3-2,3.7-1.7,2-3.3,2.3-4,1.7-5.6,1h-27.9l-2.3-.3v-33.9ZM511.7,166.2l-1,6-1.7,4.3-3,4.6-4,3.3-4.6,2.3-7,1.7h-35.9l-.3-.3v-47.8l.3-.3h34.2l4.3.7,5.3,1.7,4.6,2.7,2.7,2.3,3,4.3,1.7,4,1,4.3.3,3v3.3Z"/>
    <polygon class="st1" points="104 66.3 104 145 104.3 151.3 105.3 163.6 103.7 161.6 100.7 157.9 96 152.3 93.7 149.6 89.4 145 84.4 139.7 80.4 135.3 78.1 132.7 75.4 130 73.1 127.4 70.4 124.7 68.1 122.1 63.1 116.7 59.2 112.4 55.5 108.4 50.2 102.8 40.9 92.8 37.2 88.9 32.6 83.9 22.6 73.2 20.3 70.6 14.3 64.6 11.7 64.3 11.3 64.6 11 72.3 11 203.7 11.3 207.7 11.7 208.1 31.6 207.7 31.6 122.1 30.9 113.1 30.3 109.8 30.9 109.8 30.9 110.4 31.9 111.4 35.6 116.1 38.6 119.4 41.6 123.1 45.5 127.4 50.9 133 53.8 136.3 57.5 140.3 62.8 146 65.8 149.3 71.1 154.9 75.1 159.2 80.1 164.6 87.4 172.5 92.7 178.2 95 180.8 97.7 183.5 100 186.1 100.7 186.1 101 187.1 104.6 191.1 107 193.8 109.6 196.4 114.9 202.1 117.3 204.7 121.9 209.4 124.2 209.4 124.6 209.1 124.6 65.9 104.3 65.9 104 66.3"/>
    <polygon class="st1" points="234.5 192.1 231.8 188.5 226.5 181.5 222.2 175.5 218.2 170.2 199.6 145 195.6 139.7 191 133.3 190.3 132 192.3 129.4 197.6 122.4 201.6 117.1 206.9 110.1 210.2 105.8 214.9 99.5 219.5 93.5 224.8 86.5 229.5 80.2 239.1 67.6 240.1 65.9 215.2 65.9 214.6 66.6 211.6 70.3 207.6 75.6 202.3 82.5 198.9 86.9 196 90.8 191.6 96.5 186.3 103.5 179.7 112.1 176.7 116.1 172.1 122.1 167.4 128.4 164.4 133.3 161.8 138.3 159.1 143.6 160.1 129.7 160.1 66.3 159.8 65.9 138.2 65.9 137.9 66.3 137.9 207.7 160.1 207.7 160.4 167.2 162.1 164.9 171.4 153.6 174.4 149.9 175.7 149.3 176.4 150.3 195 175.5 198.9 180.8 203.6 187.1 207.9 193.1 213.2 200.1 217.5 206.1 219.9 208.1 244.8 208.1 245.8 207.7 243.8 204.7 234.5 192.1"/>
    <polygon class="st1" points="329.1 154.9 326.8 149.9 323.5 145 320.1 141.6 316.2 138 310.5 134 304.9 130.7 293.9 125.4 282 120.1 275 116.4 270.3 113.1 268 110.4 266 106.8 265 102.8 265 97.8 265.7 94.5 267.7 90.5 269.7 88.2 272.7 86.2 276.3 84.5 282 83.5 284.9 83.5 287.9 83.9 291.9 84.9 295.6 86.5 299.2 88.9 303.2 93.5 305.5 97.2 306.2 97.2 313.2 92.8 322.5 87.2 322.8 85.5 321.5 83.5 319.1 80.2 316.2 76.6 314.2 74.9 310.8 71.9 305.9 68.9 300.2 66.6 295.2 65.3 288.9 64.3 278 64.3 271.7 65.3 266 66.9 261 69.3 256.4 72.3 253.1 75.2 249.1 79.9 246.4 84.5 244.1 90.8 243.1 97.2 243.1 103.8 244.1 110.8 245.8 116.1 247.8 120.1 250.1 123.7 253.1 127.4 255.1 129 258.4 132 262.7 135 268.3 138.3 288.6 147.6 293.9 150.3 299.2 153.3 303.5 156.6 305.9 159.2 308.2 163.6 309.2 167.9 309.2 173.2 308.5 176.2 306.2 180.8 303.9 183.5 299.9 186.5 294.9 188.5 288.3 189.8 280.3 189.8 278.3 189.5 272.7 188.1 268.7 186.5 264 183.8 260.7 180.8 257.7 177.5 255.1 174.2 252.7 170.5 251.1 170.9 243.1 175.2 234.1 180.2 234.1 180.8 235.1 182.5 237.8 186.8 240.1 190.1 243.1 193.4 248.1 198.1 253.7 202.1 259 204.7 265.4 207.1 272.3 208.7 279.6 209.7 290.3 209.7 296.2 209.1 302.2 207.7 309.2 205.4 314.2 202.7 318.8 199.4 322.8 195.4 326.1 191.1 328.4 186.5 330.4 180.5 331.4 174.5 331.4 166.2 330.8 160.9 329.1 154.9"/>
    <polygon class="st1" points="337.4 65.9 337.1 66.3 337.1 207.7 337.7 208.1 359.3 207.7 359.6 162.2 419.4 161.9 419.4 142.6 419.1 142.3 359.6 142 359.3 85.5 425.4 85.2 425.7 84.5 425.7 66.6 425.4 65.9 337.4 65.9"/>
  </g>
  <g>
    <polygon class="st0" points="11.3 7.2 9.7 7.5 9.7 29.8 10 30.1 529.6 30.1 532 29.8 532 7.5 11.3 7.2"/>
    <polygon class="st0" points="9.7 242.3 9.4 242.9 9.4 254.9 9.7 264.8 455.9 264.8 456.3 263.5 456.3 243.2 455.9 242.3 9.7 242.3"/>
    <polygon class="st0" points="518.4 258.5 516 259.2 512.7 258.9 511.1 257.9 509.1 254.9 508.7 251.6 509.7 248.2 511.4 246.2 514 245.2 516.4 245.2 517.7 245.6 519.7 247.2 521 247.6 523.3 246.2 523.7 244.6 522.7 243.6 519.7 241.6 516.7 240.9 513.4 240.9 510.7 241.6 507.4 243.6 505.7 245.6 504.1 248.9 504.1 255.2 505.1 257.9 507.4 260.8 510.4 262.8 513.4 263.5 517 263.5 518.7 263.2 521 262.2 523.7 259.9 524 258.2 521 256.2 518.4 258.5"/>
    <polygon class="st0" points="474.2 259.2 474.2 241.6 473.9 241.3 469.6 241.3 469.6 263.2 483.8 263.2 484.2 262.5 483.8 259.2 474.2 259.2"/>
    <polygon class="st0" points="492.1 259.2 492.1 241.3 487.8 241.3 487.8 263.2 502.1 263.2 502.4 262.8 502.4 260.5 502.1 259.2 492.1 259.2"/>
  </g>
</svg>