<svg width="58" height="17" viewBox="0 0 58 17" fill="none" xmlns="http://www.w3.org/2000/svg">
<path d="M15.8961 15.309H16.0296C16.1243 15.309 16.1846 15.3578 16.1846 15.4819C16.1846 15.5674 16.1487 15.6764 16.0296 15.6764H15.8961V15.309ZM15.8961 15.8623H15.9715C16.2033 15.8623 16.1789 15.9966 16.1789 16.1523C16.1789 16.2406 16.1789 16.3282 16.2184 16.4078H16.5112C16.4832 16.3533 16.4775 16.1064 16.4775 16.021C16.4775 15.7848 16.2822 15.7683 16.2184 15.7655V15.759C16.4136 15.7296 16.4832 15.604 16.4832 15.4367C16.4832 15.2113 16.3526 15.0893 16.1487 15.0893H15.5975V16.4078H15.8961V15.8623ZM16.0389 14.6206C15.4087 14.6206 14.9034 15.1231 14.9034 15.7532C14.9034 16.3834 15.4087 16.8916 16.0389 16.8916C16.6662 16.8916 17.1687 16.3834 17.1687 15.7532C17.1687 15.1231 16.6662 14.6206 16.0389 14.6206ZM16.0389 16.6791C15.5272 16.6791 15.1159 16.2621 15.1159 15.7532C15.1159 15.2451 15.5272 14.8331 16.0389 14.8331C16.5406 14.8331 16.9555 15.2451 16.9555 15.7532C16.9555 16.2621 16.5406 16.6791 16.0389 16.6791Z" fill="#F58025"/>
<path d="M44.415 2.29804H43.1195V11.9016C42.7778 11.4257 36.2262 2.29804 36.2262 2.29804H31.5493V2.83636L31.6577 2.85071C33.5497 3.0969 33.7916 3.18088 33.7916 4.5403V14.6175H35.2113V4.28908C35.5551 4.76639 42.6422 14.6175 42.6422 14.6175H44.5392V2.29804H44.415Z" fill="#0069AA"/>
<path d="M9.20866 0.093811C4.55907 0.093811 0.790161 3.86272 0.790161 8.51088C0.790161 13.1598 4.55907 16.9279 9.20866 16.9279C13.8568 16.9279 17.6257 13.1598 17.6257 8.51088C17.6257 3.86272 13.8568 0.093811 9.20866 0.093811ZM4.68109 4.17638L4.68396 3.89287C4.68755 2.96697 5.07226 2.19036 5.60125 2.0504C6.29244 1.86666 7.22408 2.6892 8.15788 4.30629L9.02564 5.80926C8.77299 5.85305 8.55982 6.021 8.39474 6.3081L5.56177 11.2168C5.14763 11.931 4.86125 12.5748 4.69975 13.1382C4.69903 13.1296 4.69903 13.121 4.69903 13.1109C4.67032 11.8154 4.64448 9.21428 4.68109 4.17638ZM7.71718 14.5967L7.47027 14.7374C6.66567 15.1989 5.80294 15.2534 5.41607 14.8644C4.91149 14.3577 5.15768 13.1397 6.09147 11.5233L6.96139 10.0167C7.12719 10.2163 7.37768 10.3153 7.70785 10.3153H13.3738C14.2006 10.3153 14.9004 10.2428 15.4696 10.1021C15.461 10.1064 15.4545 10.1093 15.4459 10.1158C14.3391 10.7869 12.0976 12.1133 7.71718 14.5967ZM13.3738 9.70306H11.6361C11.7244 9.45975 11.6871 9.19274 11.522 8.9078L8.6883 4.00053C8.27487 3.28421 7.86145 2.71432 7.45376 2.293C7.46309 2.29731 7.47027 2.30161 7.47817 2.30664C8.61293 2.92749 10.8782 4.20509 15.2205 6.75598L15.4696 6.90096C16.2706 7.36822 16.7486 8.08812 16.6058 8.61711C16.4199 9.30687 15.2421 9.70306 13.3738 9.70306Z" fill="#F58025"/>
<path d="M25.4478 8.31926H24.6037V4.32569C24.6037 3.3883 24.6037 3.24475 26.3938 3.24475C28.4049 3.24475 29.5124 4.14912 29.5124 5.79134C29.5124 8.01852 27.4575 8.31926 25.4478 8.31926ZM25.7184 2.29661H20.2814H20.1572V2.83707L20.267 2.84999C22.2028 3.08541 22.3995 3.3395 22.3995 4.32712V14.6175H24.6037V9.26741H25.493C27.5874 9.26741 31.9456 9.26741 31.9456 5.79134C31.9456 2.29661 27.8946 2.29661 25.7184 2.29661Z" fill="#0069AA"/>
<path d="M46.2289 8.05521C46.2289 11.4186 48.2816 14.8128 52.8674 14.8128C55.045 14.8128 56.1181 14.5731 57.1143 14.3061L57.2062 14.2817V13.2711L57.0375 13.3163C55.9788 13.6006 54.9381 13.757 54.1076 13.757C50.4435 13.757 48.6621 11.7401 48.6621 7.58939C48.6621 4.81528 49.9813 3.16015 52.1905 3.16015C53.6727 3.16015 54.5419 3.74152 54.7751 4.88921L54.7952 4.98826H57.2227L57.2047 4.8483C57.1222 4.20447 56.5272 2.10433 52.3262 2.10433C48.2802 2.10433 46.2289 4.10614 46.2289 8.05521Z" fill="#0069AA"/>
</svg>
