<?xml version="1.0" encoding="UTF-8"?>
<svg id="Layer_1" xmlns="http://www.w3.org/2000/svg" version="1.1" viewBox="0 0 600 270">
  <!-- Generator: Adobe Illustrator 29.0.1, SVG Export Plug-In . SVG Version: 2.1.0 Build 192)  -->
  <defs>
    <style>
      .st0 {
        fill: #fff;
      }
    </style>
  </defs>
  <path class="st0" d="M597.6,5.4v45.6h-50.5v56.4h39.7v46.7h-39.7v63.7h52.9v46.7h-99.3V5.4h96.8ZM333.9,5.4h57.1l17.8,130.9L426.6,5.4h53.3v259.1h-41.8V111.3l-23,153.2h-17.4l-23.3-153.2v153.2h-40.4V5.4ZM266.7,264.6V5.4h46.3v259.1h-46.3ZM178.3,111h9.1c9.1,0,12.9-3.5,12.9-15.7v-35.2c0-11.1-2.1-14.6-11.5-14.6h-10.5v65.5ZM178.3,264.6h-46.3V5.4h73.1c28.2,0,42.5,15.7,42.5,43.2v41.4c0,20.9-11.8,31.3-20.6,34.8,7.7,2.8,19.9,11.1,19.9,30.6v88.1c0,11.1,2.1,16,3.8,19.1v1.7h-46.3c-2.1-2.8-4.2-8.4-4.2-19.9v-75.6c0-11.8-2.8-15.3-12.2-15.3h-9.8v110.7ZM46.3,118.6h8.7c10.5,0,11.8-6.6,11.8-14.6v-43.2c0-9.1-1.4-15.3-11.8-15.3h-8.7v73.1ZM46.3,160.8v103.8H0V5.5h65.8c39.3,0,47.7,19.5,47.7,51.2v51.9c0,31.7-12.9,52.2-45.3,52.2h-21.9Z"/>
</svg>