<?xml version="1.0" encoding="UTF-8"?>
<svg id="Layer_1" xmlns="http://www.w3.org/2000/svg" version="1.1" viewBox="0 0 500 500">
  <!-- Generator: Adobe Illustrator 29.2.1, SVG Export Plug-In . SVG Version: 2.1.0 Build 116)  -->
  <defs>
    <style>
      .st0 {
        fill: #fff;
      }
    </style>
  </defs>
  <path class="st0" d="M498,142v38h-42.1v47h33.1v38.9h-33.1v53.1h44.1v38.9h-82.7v-215.9h80.7ZM278.2,142h47.6l14.8,109.1,14.8-109.1h44.4v215.9h-34.8v-127.7l-19.2,127.7h-14.5l-19.4-127.7v127.7h-33.7v-215.9h0ZM222.3,358v-216h38.6v215.9h-38.6ZM148.6,230h7.6c7.6,0,10.7-2.9,10.7-13.1v-29.3c0-9.3-1.8-12.2-9.6-12.2h-8.8v54.6ZM148.6,358h-38.6v-216h60.9c23.5,0,35.4,13.1,35.4,36v34.5c0,17.4-9.8,26.1-17.2,29,6.4,2.3,16.6,9.3,16.6,25.5v73.4c0,9.3,1.8,13.3,3.2,15.9v1.4h-38.6c-1.8-2.3-3.5-7-3.5-16.6v-63c0-9.8-2.3-12.8-10.2-12.8h-8.2v92.6ZM38.6,236.3h7.3c8.8,0,9.8-5.5,9.8-12.2v-36c0-7.6-1.2-12.7-9.8-12.7h-7.3s0,60.9,0,60.9ZM38.6,271.5v86.5H0v-215.9h54.8c32.8,0,39.7,16.2,39.7,42.7v43.3c0,26.4-10.8,43.5-37.8,43.5,0,0-18.3,0-18.2,0Z"/>
</svg>