<?xml version="1.0" encoding="UTF-8"?>
<svg id="Layer_1" xmlns="http://www.w3.org/2000/svg" version="1.1" viewBox="0 0 1734.9 1061.3">
  <!-- Generator: Adobe Illustrator 29.0.1, SVG Export Plug-In . SVG Version: 2.1.0 Build 192)  -->
  <defs>
    <style>
      .st0 {
        fill: #fff;
      }
    </style>
  </defs>
  <g id="l6AkOf.tif">
    <g>
      <path class="st0" d="M1481.3,3.6c164.9,9,249,127.1,249.7,285.9-1.2,6.5-13.7,2.9-18.3,2.8-51.5-1.1-103.2,1.2-154.7-.3.5-73.8-27.3-155.8-118.3-133.9-55,12.9-63.2,57.8-66.1,107.7v519.8c1.6,55.4,9.6,111.4,74.6,118.8,37.1,4.2,76.4.3,96.1-35.4,16.1-28.4,11-60,13.4-91.2,2.7.5,171.4-2.2,173.8,0,1,87.5-24.9,182.6-101.3,234-177.5,113.1-447.4,8.3-428.8-223,2.8-176.1-4-352.8.9-528.7-3.4-153,109.9-253.1,255.4-256.6h23.7Z"/>
      <path class="st0" d="M468.2,70c92.1,64.1,103.7,186.1,98.2,289.7-2.8,227.5-187.4,272.4-378.9,262.8-6.9,0-15.2-4-16.1,5.6-2.7,29.4,1.4,64.1.9,93.8-4.6,105.2,6.9,221.3-3.7,321.1C112.6,1043,56,1045.1,0,1042.7L.4,19.9c93.1-1.8,192.2-2.4,284.9.9,62.9,1.7,129.2,12.8,183,49.2ZM176.1,161.3c-2,.4-4,2.1-3.9,4.3.6,100.8-.7,201.4,0,302,.2,4.5-2.5,11.3,4.1,13,139.3,3.1,229-3.2,217.1-170.5,6.2-154.4-95.5-151.1-217.3-148.8Z"/>
      <path class="st0" d="M798.2,1043.1c-.7-289,1.8-579.5-.9-868.5-.5-3.7-3.5-4.2-6.8-4.6l-163.7.5s-.2-150.4-.2-150.4c1.4-2.9,8.6-1,11.3-1,167.3-1,338.9-.1,504,1.2.9,5-.2,14,0,19.6.2,8.6,1.3,17.4,0,26-2.5,32.1,4,68,.9,99.6-.1,1.4,0,2.7-1.2,3.7-1.9,1.5-16.8.7-20.5.7-48.4.4-97.4-.2-146.1,0-2.7,0-4.8,2.9-5.2,5.4-.5,288.4.3,577.4.6,865.4-1.2,4.2-16.7,3.1-20.7,3.1-50.4-1.9-100.9-.4-151.4-.8Z"/>
      <path class="st0" d="M1712.1,538.7c-4.3,3.2-14.4-12.3-18.6-15-2.7-2.3-9.4-6.8-12.5-8.7-8.2-3.5-27.8-19.7-24.1.5,1.4,11.3,7.1,23.8,6.7,35.8,2.5,12.7,23.6,62.9-5.5,34.9-5.2,5.5,5.3,14.5,9.6,17.3,1.5.7,3.2.4,4.6,1.1,5,2.3,3.8,17.4,4.1,22.4-1.1,1.2-10.6-7.6-9.8,2s3.8,8.9,4.6,10.1c2.8,4.3,7.7,6.3,6.8,13.5s-11.5,8.8-12.9,14.2c-1.3,5.2,8.6,4.8,7.1,10.2-1.8,6.5-15.4-2-18.7-3.1-4.6-1.6-19-3-16.7-9.3.4-1,8.8-11.8,10.2-13.5s3.9-1.8,4.1-5c.3-5-6-2.3-7.8.5-6.5-11,3.4-22.8,6.1-33.1.6-8.9-10.2-24.2-1.4-31.1s4.5-.8,5.4-3.2c-12-19-7.7-45.3-15.6-65.8-7.2-18.1-21.1,21.9-22.6,27.6-.9,4.3-1.1,24.5-4.7,25.6s-12.3-9.9-13.7-13.8c-5-13.8-1.8-34.3,6.9-46.1,11.5-9.7,7.5-17-7-11.9-9.4,3.1-24.8,12.2-29.6,21-2,3.8-6.2,23-12.8,12.4-7.2-11.6,3.7-41.3,13.4-50.1,9.9-9,19.8-10.8,31.6-14.9,5.1-1.8,3.9-5.9-.2-6.7-7.2-1.3-21.6-.2-28.3,2.7s-18.7,11.5-19.2,3.3c3.7-22.6,34.1-31,54-30.5,7.7.4,12.4,4.7,16.9-4.3,9.7-22.9,15.3-39,42.9-45.3,7.4-1.2.6,6.9-.5,9.3-4.6,10.3-9.1,20-15.4,29.5-2,14.1,32.3-3,44.9,2,5.6,1,15.6,3.1,16.1,9.9-.4,1.2-4.8,2.4-6.3,2.7-7.2,2.4-32.8,0-29.2,12.5,1.6,2.7,11.4,1.3,14.7,1.6,19.1,1.1,41.1,12.2,45.1,32.1l-1.9,1.9c-6.8-.1-12.4-4.6-18.7-6.3s-29.7-4.4-35.4-1.2c-12.1,7.9,43.7,17,33.3,62.2Z"/>
    </g>
  </g>
</svg>