<?xml version="1.0" encoding="UTF-8"?>
<svg id="Layer_1" xmlns="http://www.w3.org/2000/svg" xmlns:xlink="http://www.w3.org/1999/xlink" version="1.1" viewBox="0 0 68 20">
  <!-- Generator: Adobe Illustrator 29.0.1, SVG Export Plug-In . SVG Version: 2.1.0 Build 192)  -->
  <defs>
    <style>
      .st0 {
        fill: url(#linear-gradient);
      }

      .st1 {
        fill: #fff;
      }
    </style>
    <linearGradient id="linear-gradient" x1="4.6" y1="1061.9" x2="15.9" y2="1073.3" gradientTransform="translate(0 -1058)" gradientUnits="userSpaceOnUse">
      <stop offset="0" stop-color="#00aae4"/>
      <stop offset="1" stop-color="#006097"/>
    </linearGradient>
  </defs>
  <path class="st1" d="M24.9,7.6h-.9c-1.1,0-2.3.9-2.3,2v5.4h-2.6V5.3h2.5v1c.6-.7,1.6-1.2,2.8-1.2h.9l-.3,2.4h-.1Z"/>
  <path class="st1" d="M27.8.3c.9,0,1.7.7,1.7,1.6s-.8,1.6-1.7,1.6-1.7-.7-1.7-1.6.8-1.6,1.7-1.6ZM29.1,14.9h-2.6V5.3h2.6s0,9.6,0,9.6Z"/>
  <path class="st1" d="M36.7,5.1c-1,0-2,.3-2.8,1v-.8h-2.5v14.4h2.6v-5.4c.7.6,1.6.9,2.6.9s2.8-.6,3.6-1.6c.8-.9,1.2-2.1,1.2-3.4,0-2.8-2.1-5-4.7-5h0ZM36.3,12.8c-1.6,0-2.6-1.1-2.6-2.6s1.1-2.6,2.6-2.6,2.5,1.2,2.5,2.6-1.1,2.6-2.5,2.6Z"/>
  <path class="st1" d="M57,14.9h-2.6V.9h2.6v14.1h0Z"/>
  <path class="st1" d="M67.5,13.4c-.9,1.1-2.5,1.7-3.9,1.7-2.9,0-5-2-5-5s1.8-5,4.7-5,4.5,2.2,4.5,4.9v.7h-6.7c0,1.3,1.2,2.3,2.6,2.3s2-.6,2.4-1.1l1.5,1.5h0ZM65.1,8.9c0-.9-.9-1.7-1.9-1.7s-1.9.8-2.1,1.7h4Z"/>
  <path class="st1" d="M48.2,5.1c-1,0-2,.3-2.8,1v-.8h-2.5v14.4h2.6v-5.4c.7.6,1.6.9,2.6.9s2.8-.6,3.6-1.6c.8-.9,1.2-2.1,1.2-3.4,0-2.8-2.1-5-4.7-5h0ZM47.9,12.8c-1.6,0-2.6-1.1-2.6-2.6s1.1-2.6,2.6-2.6,2.5,1.2,2.5,2.6-1.1,2.6-2.5,2.6Z"/>
  <path class="st0" d="M13.7,11.5c-.6-.3-1.2-.4-1.9-.5-.5,0-1.4-.4-1.4-1.4s.6-1.3,1.4-1.4c.6,0,1.3-.1,1.9-.5.5-.3,1-.7,1.3-1.3.3-.5.5-1.1.5-1.7s-.2-1.2-.5-1.7-.7-1-1.3-1.3c-.5-.3-1.1-.5-1.7-.5s-1.2.2-1.7.5-1,.7-1.3,1.3c-.3.5-.5,1.1-.5,1.7s.2,1.3.5,1.8.4,1.4-.5,1.9c-.6.4-1.5.1-1.9-.5-.3-.5-.8-1.1-1.3-1.4-.5-.3-1.1-.5-1.7-.5s-1.2.2-1.7.5-1,.7-1.3,1.3c-.3.5-.5,1.1-.5,1.7s.2,1.2.5,1.7.7,1,1.3,1.3c.5.3,1.1.5,1.7.5s1.2-.2,1.7-.5c.6-.3,1-.8,1.3-1.4.3-.4,1-1,1.9-.5.6.4.8,1.2.5,1.9-.3.6-.5,1.2-.5,1.8s.2,1.2.5,1.7.7,1,1.3,1.3c.5.3,1.1.5,1.7.5s1.2-.2,1.7-.5,1-.7,1.3-1.3c.3-.5.5-1.1.5-1.7s-.2-1.2-.5-1.7-.7-1-1.3-1.3v.2Z"/>
</svg>