<?xml version="1.0" encoding="UTF-8"?>
<svg id="Layer_1" xmlns="http://www.w3.org/2000/svg" version="1.1" viewBox="0 0 512 272.2">
  <!-- Generator: Adobe Illustrator 29.0.1, SVG Export Plug-In . SVG Version: 2.1.0 Build 192)  -->
  <defs>
    <style>
      .st0 {
        fill: #fff;
      }
    </style>
  </defs>
  <path class="st0" d="M61.7,66.9l3.8,3.8,4.5,2.6,6,1.5h4.9l1.1-.4,1.5-1.9-.4-1.5-2.6-4.1-1.1-3.8v-6.4l.4-1.5,1.9-4.1,3-3.8,3.8-3,5.3-3,4.5-1.9-3,6.4-3,9-4.1,15.4-2.6,11.7-4.5,23.7v4.9l1.1,2.3,2.3,1.5,4.5.8h9l1.9-.4,1.5-1.1,1.1-3.4.4-5.6,1.5-10.5,2.3-10.9.4-3h.8v.8l1.9,6.4,4.5,15,4.5,14.7,3.4,9,3.4,7.1,3,5.3,3.8,5.3,5.3,5.3,4.1,3,4.5,2.3,4.5,1.5,6,1.1h9l3.4-.4,9-1.9,8.6-2.6,9-3.4,8.6-4.1,6-3,9.4-4.9,19.2-10.1,7.5-3.8,13.2-6.4,7.5-2.6,7.9-1.5h11.3l1.5.4,3.4,1.5,1.9,2.3,1.5,4.5v5.3l-1.5,5.3-3,5.3-4.1,5.3-1.5,3,.4,1.9,1.9,1.1h3.4l1.1-.4,3.8-2.3,5.3-3.8,3.8-3.8,3.4-3.8,3.4-4.9,3-6.4,1.5-6v-4.5l-.8-3.4-1.9-4.1-2.3-2.6-3.4-2.6-4.1-1.5-6-.8h-5.6l-8.3.8-7.1,1.5-10.1,3.4-12.4,5.6-15.8,7.9-7.1,3.8-11.3,5.6-9,4.1-9.8,3.8-9,2.6-9,1.9-6.4.8h-7.9l-4.9-.8-6-2.3-4.9-3-4.9-4.9-4.1-6-3-5.6-2.6-5.6-6-14.7-4.5-11.3-3.8-9,4.5-1.9,6-3,5.6-3.8,4.1-3.8,4.1-5.3,2.6-5.3,1.1-5.3-.4-4.5-1.5-4.1-2.3-3.8-3.8-3.4-5.3-3-5.6-1.9-7.1-1.1h-17.3l-3,.4-8.3,1.5-9.4,2.6-7.5,3-6,3-4.1,2.6-3.4,3-4.1,4.5-2.3,4.1-1.1,4.5v4.9l.4,1.9,2.6,5.3ZM111.3,61.2l6.8-22.9,1.5-2.6.8-.4,4.5,1.1,3,2.3,1.9,3,.4,1.1v7.1l-1.1,3.8-1.9,3.8-2.6,3.4-3,3-4.1,2.6-4.1,1.5-3.8.4,1.9-7.1Z"/>
  <polygon class="st0" points="334.6 234.5 330.8 238.3 325.9 242 321 244.7 315 246.9 307.9 248.4 299.6 249.2 295.1 249.2 286.1 248.4 274 246.5 260.5 243.2 233.4 235.6 221 232.6 216.9 231.9 218.4 229.3 221.8 221.4 224.8 212.3 228.9 196.2 233.4 179.3 236.8 168 238.3 165 240.2 163.1 243.2 162 245.1 162.4 245.9 163.5 247 166.9 247 171 245.5 177.4 245.1 180.4 246.2 181.9 250.7 181.9 256.4 178.9 260.1 175.5 263.5 171.4 265.4 166.9 265.4 162 264.6 159.7 262 156 258.6 153.3 254.5 151.8 248.1 150.7 243.2 150.7 240.2 151.1 236.1 152.2 231.2 154.5 226.3 157.8 223.3 161.2 220.3 165.4 217.7 170.6 215.4 177.4 209.8 199.2 209 198.8 204.1 194.7 197.7 190.2 189.8 186 182 183 173.3 180.8 164.3 179.3 155.6 178.5 133.8 178.5 122.9 178.9 100.8 180 86.5 180.4 77.8 180.4 68.8 180 65.1 179.6 56.8 178.5 48.9 176.6 40.6 173.6 35 170.6 29.7 167.2 26 163.9 24.5 163.1 24.1 162 20.7 158.2 17 153 12.8 145.1 9.8 136.8 7.6 128.1 6.4 127 5.7 128.1 3.4 140.9 3.4 145.8 5.3 155.2 7.9 162.4 11.3 168.4 14.7 172.9 18.1 177 22.6 181.1 26.7 184.5 33.1 188.7 41 192.4 48.5 195.1 56.4 196.9 65.8 198.1 74.1 198.1 79 197.7 88.4 196.6 107.5 193.5 128.6 189.8 140.6 188.3 153.8 188.3 162.8 189.4 171.4 191.3 181.6 194.7 189.1 198.1 195.5 201.8 200.4 205.2 206 209.7 206.4 211.6 204.1 217.6 199.6 228.1 198.9 230 190.6 230.4 184.2 231.5 179.7 233.8 177.1 236.4 175.6 239.4 175.2 242.8 176.7 246.2 180.1 249.2 184.2 250.7 190.2 250.7 194 249.9 198.9 248.4 204.5 245.4 209.8 241.3 212 241.7 225.6 246.5 240.2 252.2 260.5 260.5 269.9 263.8 280.4 267.2 288.3 268.7 297.3 268.7 302.2 268 307.5 266.5 313.9 263.8 320.6 259.7 325.9 255.6 328.9 252.6 332.3 248.4 336.1 243.2 338.3 239 338.7 235.6 336.1 234.1 334.6 234.5"/>
  <path class="st0" d="M508.2,91.3l-1.5-1.1-1.5-.4-1.1.8-2.6,3.8-3.4,3.4-4.5,3.4-5.3,2.6-5.6,1.9-8.3,1.5-6.8.8h-10.9l-8.6-.8-13.9-1.9-30.4-5.3-14.3-2.3-4.5-.4.4-.8,2.3-9,2.6-13.5,3-14.3,2.6-9,1.9-6.4-.4-1.5-1.1-1.1-3.4-2.3-4.5-1.9-3.8-.8h-9l-5.6,1.1-5.3,2.3-4.9,3-3.8,3.4-4.1,4.5-3.4,4.9-3,6-1.5,5.6v9.4l.8,2.6,2.3,3.8,2.3,1.9,3.8,1.1h3.4l5.6-1.5,6-2.6,5.3-3.4-3.4,10.9-2.3,6-1.1.4-13.9,1.1-8.3,1.1-6,1.9-6,3-4.9,3.8-1.9,2.3-2.6,3.4-1.9,3.8-1.1,5.6.4,4.9,1.5,4.9,2.3,4.1,2.6,2.6,3.4,2.3,4.1,1.9,7.1,1.1h3.4l5.6-.8,5.6-1.9,6-3,4.9-3.8,3.4-3.8,3.8-5.3,3.8-7.1,4.1-9.4,5.6,1.1,19.5,5.6,17.3,5.3,13.5,3.8,11.3,2.6,10.9,1.5h9.8l2.6-.4,6-1.1,5.3-1.9,6-3,4.5-3.4,3.4-3.4,4.1-5.3,3.4-6,2.6-7.1.8-3.8-.4-2.3ZM362.7,109l-3,5.3-3,4.1-4.1,4.1-3.8,2.3-3.4,1.1h-3.4l-3.4-1.5v-.8h-.8l-1.5-3.4.4-2.6,1.9-3.8,2.6-2.3,3.8-2.3,4.5-1.5,4.1-.8,8.6-.4h1.1l-.8,2.3ZM377.8,50.3l-3.4,9-3.4,6.4-2.6,3.4-2.6,2.3-1.5.4-1.1-1.9.4-3.8,1.5-4.9,3-6,4.1-5.3,3.8-3,.8-.4h1.5l-.4,3.8Z"/>
  <path class="st0" d="M419.9,133.8l-3.8-2.3-4.1-1.1h-3.8l-1.9.8-1.1,1.1-.8,6-1.5,8.3-4.5,16.9-2.6-.8h-7.1l-2.6.8-4.5,1.9-5.6,3.8-2.6,2.6-3.4,3.8-3,4.1-2.6,4.9-1.9,4.9-1.1,6.4v5.3l.8,3.4,1.5,3,3,3,4.1,1.5h4.5l4.5-1.1,5.3-2.6,7.1-4.5,1.5-.4,1.1.8,3.8,2.3,5.3,1.5h4.5l2.6-1.1.4-1.1-.8-4.5-.8-4.9.8-6,2.6-10.5,6.4-24.4,3.4-13.2.4-3.4-.8-1.9-2.6-3ZM394.3,178.5l-3,6.8-3,6-1.9,3.4-3,2.6-2.3.4-.8-.8-.4-2.3,1.5-6,1.9-4.9,2.6-4.5,3.4-3.8,3.8-1.9,1.9.4-.8,4.5Z"/>
  <polygon class="st0" points="275.2 77.4 275.2 82.3 277 84.5 280.1 85.7 284.9 86.1 291.3 86.1 292.5 85.7 293.6 84.2 293.6 80 294.7 73.3 296.6 66.5 299.6 59.4 302.6 54.1 306 50.3 308.2 49.2 308.2 52.6 303 68.4 301.5 75.9 301.5 83.4 302.2 86.8 304.9 92.1 308.2 95.4 313.5 98.1 319.5 99.2 322.9 99.2 325.9 98.8 331.9 97 337.2 93.9 340.2 90.9 343.6 86.8 344 84.2 342.8 83 339.8 83 337.9 83.8 334.6 84.5 331.2 84.5 329.7 84.2 327.4 83 325.5 81.5 323.7 77.8 322.9 73.3 323.3 69.5 328.5 50 329.3 44.7 328.9 41.3 327.4 38.3 325.2 36.4 322.2 35.3 317.6 35.3 313.9 36.1 309.4 37.9 304.1 41.3 299.6 45.8 298.5 44.7 295.5 41.3 291.7 39.4 287.2 39.1 283.4 39.8 282.3 41 281.6 45.8 277.8 63.9 275.2 77.4"/>
  <polygon class="st0" points="214.3 97.7 214.3 101.8 216.2 104.1 218.8 105.2 224.4 106 230.1 105.6 231.9 104.8 232.7 103 233.1 97 236.8 83 241.7 65 247 46.2 249.6 38.3 252.6 31.2 257.1 22.9 259.8 19.9 263.1 17.3 268 15.4 275.5 15.4 277 15.8 279.7 16.1 280.8 15 281.2 13.1 279.3 10.1 275.5 6.7 271 4.5 266.5 3.7 260.5 3.7 256.4 4.5 251.9 6.4 246.6 9.8 242.5 13.5 238.3 18.8 235.3 24.4 231.9 32.7 228.6 42.8 225.2 54.1 219.9 74.4 214.3 97.7"/>
  <path class="st0" d="M301.5,178.1l-2.6-2.3-3-1.5-6-1.5h-6.8l-2.6.4-6.4,1.9-4.5,2.3-4.9,3.4-2.3,3.4-.8,4.5-3,3.8-3.4,4.9-1.5,3.8-1.1,5.6.4,4.1,1.9,4.5,2.3,2.6,3,2.3,4.9,1.5h8.6l2.6-.4,6.8-1.9,3.8-1.9,4.9-3,4.1-3.8,3-3.8,2.6-4.1,1.9-4.5,1.5-6.4v-6.8l-1.5-4.5-1.9-2.6ZM285.7,190.2l-1.5,7.5-1.9,4.9-2.3,4.1-3,3.4-1.5.8-2.6-.4-1.5-3-.4-1.5v-4.9l.8-2.6h4.9l1.5-.8-.4-3.4-.8-2.3v-3.8l2.3-3.4,3-1.5,1.9.4,1.1,1.5.4,1.1v3.8Z"/>
  <path class="st0" d="M148.1,71l-.8,4.5-3.4,4.1-2.6,4.1-1.9,4.5-.8,4.5v3.4l.4,2.3,1.5,3.4,3,3.4,3.4,2.3,3.8,1.1h9l2.6-.4,6-1.9,6-3,5.3-3.8,1.9-2.3,3.4-3.8,3-5.3,1.9-4.9,1.1-5.6v-4.5l-.8-3-2.3-4.5-3-3-4.5-2.3-4.1-.8h-6.8l-3,.4-4.9,1.1-4.5,1.9-4.9,3-2.6,2.6-1.5,2.3ZM157.1,84.9l5.3.4,1.5-.8v-3l-1.1-3v-3l1.5-3,2.6-2.3.8-.4h2.6l1.1,2.3v6.4l-1.5,6-1.9,4.9-3,5.3-3,2.3-2.3.4-1.9-1.9-.8-2.3v-8.3Z"/>
  <polygon class="st0" points="357.5 169.5 353.7 167.2 348.8 165.7 342.8 165.7 341.7 166.1 340.6 167.6 340.2 175.9 339.1 184.2 337.2 190.9 334.2 196.9 331.9 199.6 328.5 200.7 328.5 196.6 331.9 183 331.9 179.6 331.5 178.1 329.7 174 326.7 171 322.2 169.1 316.5 169.1 315.4 169.5 313.9 170.6 313.1 172.5 313.1 176.6 312.8 179.6 308.6 196.2 307.5 201.8 307.5 207.5 307.9 209 309.7 212.7 312.4 215 316.1 216.1 320.3 216.1 324 215.3 328.5 213.5 333.4 210.5 336.4 207.8 338.3 207.5 340.2 209 344 210.8 348.5 212 352.6 212 354.1 211.6 355.6 210.5 356 208.6 354.5 204.1 354.5 196.6 355.2 192 357.5 184.2 360.1 174.8 359.4 171.7 357.5 169.5"/>
  <polygon class="st0" points="186.8 112.4 186.5 116.5 187.2 118 189.8 119.9 194.7 121 198.5 121.4 204.1 120.3 205.3 118.4 205.6 112 211.3 89.4 214.7 76.7 220.3 56 220.7 51.5 219.9 49.2 217.7 46.6 213.9 44.3 210.1 43.2 204.5 43.2 202.6 45.1 202.3 47.7 201.9 50.7 199.2 61.6 194 81.9 190.6 95.1 186.8 112.4"/>
  <polygon class="st0" points="268.8 55.6 265 53 260.9 51.9 256.8 51.9 254.5 52.6 253 54.1 252.2 61.6 249.6 71.8 246.6 83.4 245.1 91.3 245.1 93.9 245.9 95.8 248.1 97.7 252.6 98.8 260.9 98.8 262.8 98.1 263.5 96.6 263.9 92.1 265 84.9 269.2 71.4 271 64.3 271.4 60.9 270.3 57.5 268.8 55.6"/>
  <polygon class="st0" points="276.7 41.7 277.8 38.7 278.6 34.6 277.8 30.4 275.5 27 272.5 25.5 267.3 25.5 266.1 25.9 262.4 28.2 259.8 31.6 258.3 35.7 258.3 40.2 259 42.8 261.6 45.8 265 47.3 268.8 47.3 270.3 47 273.3 45.5 276.7 41.7"/>
  <polygon class="st0" points="463.1 162.7 460.5 161.2 457.1 160.8 454.8 161.6 453 163.1 451.1 166.1 451.1 170.2 452.2 172.5 454.1 174.4 456.7 175.5 459.7 175.5 461.6 174.8 463.9 172.9 465.4 169.9 465.4 166.5 465 165.4 463.1 162.7"/>
  <polygon class="st0" points="437.5 172.5 434.2 172.1 432.3 172.9 430.4 174.4 429.3 176.6 429.3 180 429.6 181.1 430.8 182.6 433 184.2 437.2 184.2 439 183 441.3 179.6 441.3 177 439.8 174 437.5 172.5"/>
  <polygon class="st0" points="443.6 157.1 440.5 156.7 438.7 157.5 436.8 160.1 436.8 162.7 437.5 164.2 439.4 166.1 442.4 166.5 444.3 165.7 446.2 163.1 446.2 160.1 445.4 158.6 443.6 157.1"/>
</svg>