<?xml version="1.0" encoding="UTF-8"?>
<svg id="Layer_1" xmlns="http://www.w3.org/2000/svg" version="1.1" viewBox="0 0 400 35.3">
  <!-- Generator: Adobe Illustrator 29.0.1, SVG Export Plug-In . SVG Version: 2.1.0 Build 192)  -->
  <defs>
    <style>
      .st0 {
        fill: #fff;
      }
    </style>
  </defs>
  <g>
    <path class="st0" d="M51.2,18.1c2.3-5.1-.9-7.1-8.4-7.1h-12.7c-2.8,0-3.3-.2-2.7-1.5l.9-2c.6-1.3,1.4-1.5,4.1-1.5h16.6c3.4,0,4.9.4,6.7,1.2l1.7-7.2H24.3c-6.3,0-11.2,2.9-13.7,8.5l-3.6,7.9c-2.7,5.9-.8,7.6,6.3,7.6h14.5c2.8,0,3.2.3,2.7,1.6l-1.1,2.4c-.6,1.3-1.3,1.5-4.1,1.5H8.2c-3.5,0-5-.7-6.4-1.3L0,35.4h32.2c8.6,0,12.6-3.1,15.1-8.6l4-8.6h-.1Z"/>
    <path class="st0" d="M137.6,20c4.1,0,5.9.5,7.6.9l3.5-7.7c-2.1.4-4.4.9-8.5.9h-12.7l3.8-8.2h14.5c4.2,0,6,.5,7.7.9L155.2,0h-40.5c.3,1.4.2,2.7-1.3,6l-10.6,23.1c-1,2.1-1.8,3.4-2.6,4.4-1.1-1.9-1.9-4-2.4-5.5l-5.7-17.6,11.8-6.9C107.3,1.5,109.1.9,111.6,0h-16.3c0,.5-.2.9-.4,1.3-.5,1.2-1.4,2-4.2,3.8l-17.1,10.7,4.5-9.8C79.6,2.6,80.8,1.3,82.3,0h-20.8c.3,1.4.2,2.7-1.3,6l-10.6,23.1c-1.5,3.3-2.7,4.6-4.2,6.1h20.7c-.2-1.4-.2-2.7,1.3-6.1l2.4-5.3,5.9-3.6,3.6,14.9h60.4l4.7-6.8c-2,.4-4.3.9-8.4.9h-15.5l4.4-9.5h12.7v.3Z"/>
    <path class="st0" d="M191,26.7s-5.6,1.3-12.7,1.3h-8.4c-1.8,0-2.4-.5-1.7-2.2s7.6-16.5,7.6-16.5c.2-.5,1.1-2,3.3-2h13.1c3.3,0,6.2,1.1,6.2,1.1l2.1-8.1h-.1V0h-28.1c-7.6,0-13.1,2.8-16.6,10.4l-6.6,14.5c-3.5,7.6-.5,10.4,7.1,10.4h28.8l5.9-8.6h0Z"/>
    <path class="st0" d="M242.1,29.2l10.6-23.1c1.5-3.3,2.7-4.6,4.2-6h-20.8c.3,1.4.2,2.7-1.3,6l-3.7,8.1h-13.3l3.7-8.1c1.5-3.4,2.7-4.7,4.2-6h-20.8c.3,1.4.2,2.7-1.3,6l-10.6,23.1c-1.5,3.3-2.7,4.7-4.3,6.1h20.8c-.2-1.4-.2-2.7,1.3-6.1l4.2-9.3h13.3l-4.2,9.3c-1.5,3.3-2.7,4.7-4.2,6.1h20.7c-.2-1.4-.2-2.7,1.3-6.1h.2Z"/>
    <path class="st0" d="M279.5,29.4h-15.5l4.3-9.5h12.7c4.1,0,5.9.5,7.6.9l3.5-7.7c-2.1.4-4.4.9-8.4.9h-12.8l3.8-8.2h14.5c4.2,0,6,.5,7.7.9l1.6-6.8h-40.5c.2,1.4.2,2.7-1.3,6.1l-10.6,23.1c-1.6,3.3-2.8,4.7-4.2,6.1h41.2l4.7-6.8c-2,.4-4.3.9-8.5.9h.2Z"/>
    <path class="st0" d="M337.1,19.9c3.9-.2,7.4-.5,9.8-5.7l2.9-6.5c2.7-5.9-.4-7.8-8.6-7.8h-38.5c.7,1.4.7,2.7-.9,6.1l-10.6,23.1c-1.5,3.3-2.7,4.6-4.3,6.1h20.8c-.2-1.4-.2-2.7,1.3-6.1l4.2-9.3h5.5l1.5,15.3h20c-1-1.3-1-3.2-1.4-5.4l-1.8-9.9h.1ZM332,7.8l-1.9,4.3c-.8,1.7-1.6,2-3.9,2h-10.1l3.8-8.2h10c2.3,0,2.8.2,2,2h.1Z"/>
    <path class="st0" d="M370.2,7.4c.6-1.3,1.4-1.5,4.2-1.5h16.6c3.4,0,4.8.5,6.7,1.2l2.3-7.1h-33.8c-6.3,0-11.2,2.9-13.7,8.4l-3.6,7.9c-2.7,5.9-.8,7.6,6.3,7.6h14.6c2.8,0,3.3.3,2.6,1.6l-1.1,2.4c-.6,1.3-1.3,1.5-4.1,1.5h-17.2c-3.5,0-5-.7-6.4-1.3l-1.7,7.2h32.2c8.6,0,12.6-3.1,15.1-8.6l3.9-8.6c2.3-5.1-.8-7.1-8.4-7.1h-12.7c-2.8,0-3.4-.2-2.7-1.5l.9-2h0Z"/>
  </g>
  <path class="st0" d="M390,30c1.4,0,2.6,1.2,2.6,2.6s-1.2,2.6-2.6,2.6-2.6-1.2-2.6-2.6,1.2-2.6,2.6-2.6h0ZM389.9,30.5c-1.1,0-2,.9-2,2.1s.9,2.1,2,2.1,2-.9,2-2.1-.9-2.1-2-2.1h0ZM389.5,34.2h-.6v-2.9h.9c.4,0,.8,0,1,.2.2.1.3.3.3.6s-.2.6-.6.7h0c.3,0,.4.3.5.7,0,.5.1.6.2.7h-.6c0,0-.1-.4-.2-.8,0-.3-.2-.4-.5-.4h-.3v1.2h0ZM389.5,32.5h.3c.4,0,.6,0,.6-.4s-.2-.4-.6-.4-.3,0-.3,0v.8Z"/>
</svg>