<?xml version="1.0" encoding="UTF-8"?>
<svg id="Layer_1" xmlns="http://www.w3.org/2000/svg" version="1.1" viewBox="0 0 500 500">
  <!-- Generator: Adobe Illustrator 29.2.1, SVG Export Plug-In . SVG Version: 2.1.0 Build 116)  -->
  <defs>
    <style>
      .st0 {
        fill: #fff;
      }
    </style>
  </defs>
  <g>
    <path class="st0" d="M64,250.6c2.9-6.4-1.1-8.9-10.5-8.9h-15.9c-3.5,0-4.1-.2-3.4-1.9l1.1-2.5c.8-1.6,1.7-1.9,5.1-1.9h20.7c4.3,0,6.1.5,8.4,1.5l2.1-9H30.4c-7.9,0-14,3.6-17.1,10.6l-4.5,9.9c-3.4,7.4-1,9.5,7.9,9.5h18.1c3.5,0,4,.4,3.4,2l-1.4,3c-.8,1.6-1.6,1.9-5.1,1.9H10.3c-4.4,0-6.2-.9-8-1.6L0,272.2h40.2c10.8,0,15.8-3.9,18.9-10.7l5-10.7h-.1Z"/>
    <path class="st0" d="M172,252.9c5.1,0,7.4.6,9.5,1.1l4.4-9.6c-2.6.5-5.5,1.1-10.6,1.1h-15.9l4.8-10.2h18.1c5.2,0,7.5.6,9.6,1.1l2.1-8.5h-50.6c.4,1.7.2,3.4-1.6,7.5l-13.2,28.9c-1.2,2.6-2.3,4.2-3.2,5.5-1.4-2.4-2.4-5-3-6.9l-7.1-22,14.8-8.6c4.3-2.5,6.5-3.2,9.6-4.4h-20.4c0,.6-.2,1.1-.5,1.6-.6,1.5-1.8,2.5-5.2,4.7l-21.4,13.4,5.6-12.2c1.9-4.2,3.4-5.9,5.2-7.5h-26c.4,1.7.3,3.4-1.6,7.5l-13.2,28.9c-1.9,4.1-3.4,5.8-5.3,7.6h25.9c-.2-1.8-.2-3.4,1.6-7.6l3-6.6,7.4-4.5,4.5,18.6h75.5l5.9-8.5c-2.5.5-5.4,1.1-10.5,1.1h-19.4l5.5-11.9h15.9v.4h0Z"/>
    <path class="st0" d="M238.7,261.3s-7,1.6-15.9,1.6h-10.5c-2.3,0-3-.6-2.1-2.8s9.5-20.6,9.5-20.6c.2-.6,1.4-2.5,4.1-2.5h16.4c4.1,0,7.7,1.4,7.7,1.4l2.6-10.1h-.1v-.4h-35.1c-9.5,0-16.4,3.5-20.8,13l-8.3,18.1c-4.4,9.5-.6,13,8.9,13h36l7.4-10.7h.1Z"/>
    <path class="st0" d="M302.6,264.4l13.3-28.9c1.9-4.1,3.4-5.7,5.3-7.5h-26c.4,1.7.2,3.4-1.6,7.5l-4.6,10.1h-16.6l4.6-10.1c1.9-4.2,3.4-5.9,5.2-7.5h-26c.4,1.7.2,3.4-1.6,7.5l-13.3,28.9c-1.9,4.1-3.4,5.9-5.4,7.6h26c-.2-1.8-.2-3.4,1.6-7.6l5.2-11.6h16.6l-5.2,11.6c-1.9,4.1-3.4,5.9-5.2,7.6h25.9c-.2-1.8-.2-3.4,1.6-7.6,0,0,.2,0,.2,0Z"/>
    <path class="st0" d="M349.4,264.7h-19.4l5.4-11.9h15.9c5.1,0,7.4.6,9.5,1.1l4.4-9.6c-2.6.5-5.5,1.1-10.5,1.1h-16l4.7-10.2h18.1c5.3,0,7.5.6,9.6,1.1l2-8.5h-50.6c.3,1.7.3,3.4-1.6,7.6l-13.3,28.9c-2,4.1-3.5,5.9-5.2,7.6h51.5l5.9-8.5c-2.5.5-5.4,1.1-10.6,1.1h.3,0Z"/>
    <path class="st0" d="M421.4,252.8c4.9-.3,9.2-.6,12.2-7.1l3.6-8.1c3.4-7.4-.5-9.7-10.8-9.7h-48.1c.9,1.7.9,3.4-1.1,7.6l-13.3,28.9c-1.9,4.1-3.4,5.8-5.4,7.6h26c-.3-1.8-.3-3.4,1.6-7.6l5.3-11.6h6.9l1.9,19.1h25c-1.2-1.6-1.2-4-1.7-6.7l-2.2-12.4h.1ZM415,237.7l-2.4,5.4c-1,2.1-2,2.5-4.9,2.5h-12.6l4.7-10.2h12.5c2.9,0,3.5.2,2.5,2.5h.1Z"/>
    <path class="st0" d="M462.7,237.2c.8-1.6,1.7-1.9,5.3-1.9h20.8c4.2,0,6,.6,8.4,1.5l2.9-8.9h-42.2c-7.9,0-14,3.6-17.1,10.5l-4.5,9.9c-3.4,7.4-1,9.5,7.9,9.5h18.3c3.5,0,4.1.4,3.3,2l-1.4,3c-.8,1.6-1.6,1.9-5.1,1.9h-21.5c-4.4,0-6.2-.9-8-1.6l-2.1,9h40.3c10.8,0,15.8-3.9,18.9-10.7l4.9-10.7c2.9-6.4-1-8.9-10.5-8.9h-15.9c-3.5,0-4.2-.2-3.4-1.9l1.1-2.5h0Z"/>
  </g>
  <path class="st0" d="M487.5,265.4c1.7,0,3.3,1.5,3.3,3.2s-1.5,3.2-3.3,3.2-3.3-1.5-3.3-3.2,1.5-3.3,3.3-3.3h0ZM487.4,266.1c-1.4,0-2.5,1.1-2.5,2.6s1.1,2.6,2.5,2.6,2.5-1.1,2.5-2.6-1.1-2.6-2.5-2.6h0ZM486.9,270.7h-.8v-3.6h1.1c.5,0,1,0,1.2.3.3.1.4.4.4.8s-.3.7-.8.9h0c.4,0,.5.4.6.9,0,.6.1.7.3.9h-.8s-.1-.5-.3-1c0-.4-.3-.5-.6-.5h-.4v1.5h-.1ZM486.9,268.6h.4c.5,0,.8,0,.8-.5s-.3-.5-.8-.5-.4,0-.4,0v1Z"/>
</svg>