<?xml version="1.0" encoding="UTF-8"?>
<svg id="Layer_1" xmlns="http://www.w3.org/2000/svg" version="1.1" viewBox="0 0 500 500">
  <!-- Generator: Adobe Illustrator 29.2.1, SVG Export Plug-In . SVG Version: 2.1.0 Build 116)  -->
  <defs>
    <style>
      .st0 {
        fill: #e7e7e7;
      }
    </style>
  </defs>
  <path class="st0" d="M115.5,242.2h-43.9v38.1h11.6v-14.1h.8c0-.8,30.7-.8,30.7-.8,7.5,0,11.6-1.7,11.6-7.5v-8.3c0-5-3.3-7.5-11.6-7.5h.8ZM115.5,255.4c0,2.5-1.7,3.3-5,3.3h-26.5v-9.1h.8c0-.8,25.7-.8,25.7-.8,3.3,0,5,0,5,3.3v4.1-.8Z"/>
  <path class="st0" d="M148.7,248.8l10,14.1v1.7h-23.2l-5.8,6.6h33.2l2.5,1.7,5,6.6h13.3l-29-38.1s-5.8,7.5-5.8,7.5Z"/>
  <path class="st0" d="M282.2,272v-10h.8c0-.8,22.4-.8,22.4-.8v-6.6h-35.7v24.9h52.2v-6.6h-40.6l.8-.8Z"/>
  <path class="st0" d="M322.8,242.2h-53.1v7.5h53.1v-7.5Z"/>
  <path class="st0" d="M210.9,248.8h43.1c0-5-4.1-6.6-12.4-6.6h-30.7c-10,0-12.4,1.7-12.4,9.1v19.9c0,7.5,3.3,9.1,12.4,9.1h30.7c8.3,0,11.6-1.7,12.4-7.5h-43.9v-23.2h1.7l-.8-.8Z"/>
  <path class="st0" d="M43.4,256.3H11v-7.5h43.1v-1.7c-.8-3.3-4.1-5-11.6-5H13.5c-10,0-12.4,1.7-12.4,9.1v4.1c0,7.5,3.3,9.1,12.4,9.1h32.3v7.5h0c0,.8-35.7.8-35.7.8H.2c0,5,4.1,6.6,12.4,6.6h31.5c10,0,12.4-1.7,12.4-9.1v-5c0-7.5-3.3-9.1-12.4-9.1h-.8Z"/>
  <path class="st0" d="M356.8,241.3h-17.4v1.7c-.8,0,18.2,14.1,18.2,14.1,3.3-1.7,7.5-4.1,11.6-6.6l-13.3-9.1h.8Z"/>
  <path class="st0" d="M372.6,267.9l17.4,12.4h17.4v-1.7l-24.9-18.2c-3.3,2.5-6.6,5-10,7.5Z"/>
  <path class="st0" d="M354.3,279.5h-15.8l-1.7-1.7c10.8-10,58.9-53.1,163.3-58,0,0-87.9,2.5-145.9,59.7Z"/>
</svg>