<?xml version="1.0" encoding="UTF-8"?>
<svg id="Layer_1" xmlns="http://www.w3.org/2000/svg" version="1.1" viewBox="0 0 500 500">
  <!-- Generator: Adobe Illustrator 29.2.1, SVG Export Plug-In . SVG Version: 2.1.0 Build 116)  -->
  <defs>
    <style>
      .st0 {
        fill-rule: evenodd;
      }

      .st0, .st1 {
        fill: #ff4c00;
      }
    </style>
  </defs>
  <path class="st0" d="M178.7,304.9c-13.6,0-21.4-6.8-21.4-20.4v-38.9h-4.9c-1.9,0-4.9-1-5.8-2.9-1.9-1.9-2.9-3.9-2.9-5.8,0-4.9,3.9-8.8,8.8-8.8h4.9v-11.7c0-4.9,4.9-8.8,9.7-8.8s9.7,3.9,9.7,8.8v11.7h7.8c1.9,0,4.9,1,5.8,2.9,1.9,1.9,2.9,3.9,2.9,5.8s0,4.9-2.9,5.8c-1.9,1.9-3.9,2.9-5.8,2.9h-7.8v34.1c0,5.8,3.9,7.8,6.8,7.8h1.9c5.8,0,8.8,3.9,8.8,8.8s-2.9,8.8-16.5,8.8h1Z"/>
  <path class="st1" d="M241.9,304.9c-25.3,0-40.9-18.5-40.9-39.9s15.6-38.9,40.9-38.9,40.9,18.5,40.9,38.9,0,10.7-2.9,15.6c-1.9,4.9-4.9,9.7-8.8,13.6s-8.8,6.8-13.6,8.8-10.7,2.9-15.6,1.9ZM241.9,242.6c-12.7,0-19.5,9.7-19.5,21.4s6.8,22.4,19.5,22.4,19.5-9.7,19.5-22.4-6.8-21.4-19.5-21.4ZM353.8,303.9h-1.9c-1.9,0-8.8-1-8.8-8.8-4.9,5.8-14.6,9.7-24.3,9.7s-26.3-7.8-26.3-25.3,14.6-24.3,26.3-24.3,19.5,2.9,24.3,8.8v-9.7c0-7.8-6.8-12.7-16.5-12.7s-11.7,1.9-17.5,4.9c-1,0-1.9,1-3.9,1-3.9,0-7.8-3.9-7.8-7.8s0-2.9,1-3.9c4.9-7.8,21.4-10.7,31.1-10.7,17.5,0,33.1,6.8,33.1,28.2v39.9c0,5.8-3.9,9.7-9.7,9.7h0l1,1ZM343.1,274.7c-2.9-3.9-9.7-6.8-16.5-6.8s-14.6,3.9-14.6,11.7,6.8,10.7,14.6,10.7,12.7-1.9,16.5-6.8v-9.7,1Z"/>
  <path class="st0" d="M411.3,304.9c-9.7,0-26.3-2.9-31.1-9.7,0-1-1-2.9-1-3.9,0-1.9,0-3.9,2.9-5.8,1.9-1.9,3.9-1.9,5.8-1.9s2.9,0,3.9,1c5.8,3.9,13.6,5.8,20.4,5.8s12.7-3.9,12.7-7.8c0-12.7-45.7-1.9-45.7-32.1s11.7-23.4,31.1-23.4,23.4,2.9,28.2,8.8c0,1,1,2.9,1,3.9,0,3.9-3.9,7.8-7.8,7.8h-3.9c-4.9-2.9-11.7-4.9-17.5-4.9s-11.7,2.9-11.7,7.8c0,11.7,45.7,1.9,45.7,32.1s-11.7,24.3-33.1,24.3v-1.9ZM484.2,304.9c-13.6,0-21.4-6.8-21.4-20.4v-38.9h-4.9c-1.9,0-4.9-1-5.8-2.9-1.9-1.9-2.9-3.9-2.9-5.8,0-4.9,3.9-8.8,8.8-8.8h4.9v-11.7c0-2.9,1-4.9,2.9-6.8s3.9-2.9,6.8-2.9c4.9,0,9.7,3.9,9.7,8.8v11.7h7.8c1.9,0,4.9,1,5.8,2.9,1.9,1.9,2.9,3.9,2.9,5.8s0,4.9-2.9,5.8c-1.9,1.9-3.9,2.9-5.8,2.9h-7.8v34.1c0,5.8,3.9,7.8,6.8,7.8h1.9c5.8,0,8.8,3.9,8.8,8.8s-2.9,8.8-16.5,8.8l1,1Z"/>
  <path class="st1" d="M130,273.8c0-8.8,0-16.5-1-25.3,0-5.8-2.9-12.7-8.8-14.6h1.9c6.8-3.9,6.8-12.7,3.9-19.5-2.9-8.8-10.7-14.6-18.5-18.5-14.6-6.8-30.2-10.7-45.7-9.7-15.6,0-31.1,4.9-45.7,13.6-6.8,3.9-14.6,12.7-11.7,22.4,0,1.9,1.9,4.9,3.9,5.8l2.9,2.9c-3.9,4.9-5.8,9.7-7.8,15.6-4.9,17.5-3.9,29.2-2.9,43.8,0,8.8,3.9,22.4,13.6,23.4,8.8,1,17.5-1.9,25.3-2.9,8.8-1,18.5-2.9,27.2-2.9,12.7,0,26.3,3.9,38.9,3.9s18.5,0,20.4-8.8c1.9-8.8,1.9-17.5,1.9-26.3v-2.9h1.9ZM115.4,288.4c-2.9,7.8-12.7,6.8-18.5,5.8l-28.2-3.9c-8.8,0-16.5,1-25.3,2.9-5.8,1-14.6,4.9-20.4,0-5.8-4.9-7.8-14.6-7.8-21.4s0-13.6,1.9-20.4c0-3.9,1.9-7.8,3.9-11.7,1.9-5.8,5.8-8.8,5.8-8.8-1.9-1.9-3.9-2.9-4.9-4.9-3.9-8.8,6.8-16.5,12.7-19.5,20.4-8.8,48.7-7.8,68.1,3.9,5.8,3.9,17.5,16.5,6.8,22.4,6.8,2.9,8.8,12.7,8.8,19.5,1,10.7,0,21.4-1,33.1,0,1,0,1.9-1,3.9l-1-1Z"/>
</svg>