<?xml version="1.0" encoding="UTF-8"?>
<svg id="Layer_1" xmlns="http://www.w3.org/2000/svg" version="1.1" viewBox="0 0 53 15">
  <!-- Generator: Adobe Illustrator 29.0.1, SVG Export Plug-In . SVG Version: 2.1.0 Build 192)  -->
  <defs>
    <style>
      .st0 {
        fill-rule: evenodd;
      }

      .st0, .st1 {
        fill: #ff4c00;
      }
    </style>
  </defs>
  <path class="st0" d="M19,13.1c-1.4,0-2.2-.7-2.2-2.1v-4h-.5c-.2,0-.5-.1-.6-.3-.2-.2-.3-.4-.3-.6,0-.5.4-.9.9-.9h.5v-1.2c0-.5.5-.9,1-.9s1,.4,1,.9v1.2h.8c.2,0,.5.1.6.3.2.2.3.4.3.6,0,.2,0,.5-.3.6-.2.2-.4.3-.6.3h-.8v3.5c0,.6.4.8.7.8h.2c.6,0,.9.4.9.9s-.3.9-1.7.9Z"/>
  <path class="st1" d="M25.5,13.1c-2.6,0-4.2-1.9-4.2-4.1s1.6-4,4.2-4,4.2,1.9,4.2,4c0,.5,0,1.1-.3,1.6-.2.5-.5,1-.9,1.4-.4.4-.9.7-1.4.9-.5.2-1.1.3-1.6.2ZM25.5,6.7c-1.3,0-2,1-2,2.2s.7,2.3,2,2.3,2-1,2-2.3-.7-2.2-2-2.2ZM37,13h-.2c-.2,0-.9-.1-.9-.9-.5.6-1.5,1-2.5,1s-2.7-.8-2.7-2.6,1.5-2.5,2.7-2.5,2,.3,2.5.9v-1c0-.8-.7-1.3-1.7-1.3-.6,0-1.2.2-1.8.5-.1,0-.2.1-.4.1-.4,0-.8-.4-.8-.8,0-.1,0-.3.1-.4.5-.8,2.2-1.1,3.2-1.1,1.8,0,3.4.7,3.4,2.9v4.1c0,.6-.4,1-1,1h0ZM35.9,10c-.3-.4-1-.7-1.7-.7s-1.5.4-1.5,1.2.7,1.1,1.5,1.1,1.3-.2,1.7-.7v-1Z"/>
  <path class="st0" d="M42.9,13.1c-1,0-2.7-.3-3.2-1,0-.1-.1-.3-.1-.4,0-.2,0-.4.3-.6.2-.2.4-.2.6-.2.2,0,.3,0,.4.1.6.4,1.4.6,2.1.6s1.3-.4,1.3-.8c0-1.3-4.7-.2-4.7-3.3s1.2-2.4,3.2-2.4,2.4.3,2.9.9c0,.1.1.3.1.4,0,.4-.4.8-.8.8-.1,0-.3,0-.4,0-.5-.3-1.2-.5-1.8-.5-.7,0-1.2.3-1.2.8,0,1.2,4.7.2,4.7,3.3s-1.2,2.5-3.4,2.5ZM50.4,13.1c-1.4,0-2.2-.7-2.2-2.1v-4h-.5c-.2,0-.5-.1-.6-.3-.2-.2-.3-.4-.3-.6,0-.5.4-.9.9-.9h.5v-1.2c0-.3.1-.5.3-.7.2-.2.4-.3.7-.3.5,0,1,.4,1,.9v1.2h.8c.2,0,.5.1.6.3.2.2.3.4.3.6,0,.2,0,.5-.3.6-.2.2-.4.3-.6.3h-.8v3.5c0,.6.4.8.7.8h.2c.6,0,.9.4.9.9s-.3.9-1.7.9Z"/>
  <path class="st1" d="M14,9.9c0-.9,0-1.7-.1-2.6,0-.6-.3-1.3-.9-1.5,0,0,.2,0,.2,0,.7-.4.7-1.3.4-2-.3-.9-1.1-1.5-1.9-1.9-1.5-.7-3.1-1.1-4.7-1-1.6,0-3.2.5-4.7,1.4-.7.4-1.5,1.3-1.2,2.3,0,.2.2.5.4.6l.3.3c-.4.5-.6,1-.8,1.6-.5,1.8-.4,3-.3,4.5,0,.9.4,2.3,1.4,2.4.9.1,1.8-.2,2.6-.3.9-.1,1.9-.3,2.8-.3,1.3,0,2.7.4,4,.4.7,0,1.9,0,2.1-.9.2-.9.2-1.8.2-2.7,0,0,0-.2,0-.3h0ZM12.5,11.4c-.3.8-1.3.7-1.9.6l-2.9-.4c-.9,0-1.7.1-2.6.3-.6.1-1.5.5-2.1,0-.6-.5-.8-1.5-.8-2.2,0-.7,0-1.4.2-2.1,0-.4.2-.8.4-1.2.2-.6.6-.9.6-.9-.2-.2-.4-.3-.5-.5-.4-.9.7-1.7,1.3-2,2.1-.9,5-.8,7,.4.6.4,1.8,1.7.7,2.3.7.3.9,1.3.9,2,.1,1.1,0,2.2-.1,3.4,0,.1,0,.2-.1.4Z"/>
</svg>