<?xml version="1.0" encoding="UTF-8"?>
<svg id="svg8" xmlns="http://www.w3.org/2000/svg" xmlns:xlink="http://www.w3.org/1999/xlink" xmlns:svg="http://www.w3.org/2000/svg" xmlns:sodipodi="http://sodipodi.sourceforge.net/DTD/sodipodi-0.dtd" xmlns:rdf="http://www.w3.org/1999/02/22-rdf-syntax-ns#" xmlns:inkscape="http://www.inkscape.org/namespaces/inkscape" xmlns:dc="http://purl.org/dc/elements/1.1/" xmlns:cc="http://creativecommons.org/ns#" version="1.1" viewBox="0 0 500 500">
  <!-- Generator: Adobe Illustrator 29.2.1, SVG Export Plug-In . SVG Version: 2.1.0 Build 116)  -->
  <defs>
    <style>
      .st0 {
        fill: url(#linear-gradient);
      }

      .st1 {
        fill: #fff;
      }
    </style>
    <linearGradient id="linear-gradient" x1="-42" y1="449.2" x2="-113.6" y2="526" gradientTransform="translate(520.1 2205.9) scale(4.1 -4.1)" gradientUnits="userSpaceOnUse">
      <stop offset="0" stop-color="#515254"/>
      <stop offset=".2" stop-color="#48494b"/>
      <stop offset=".5" stop-color="#313233"/>
      <stop offset=".9" stop-color="#0c0c0c"/>
      <stop offset="1" stop-color="#000"/>
    </linearGradient>
  </defs>
  <sodipodi:namedview id="base" bordercolor="#666666" borderopacity="1.0" fit-margin-bottom="0" fit-margin-left="0" fit-margin-right="0" fit-margin-top="0" inkscape:current-layer="layer1" inkscape:cx="-236.34194" inkscape:cy="96.253407" inkscape:document-units="mm" inkscape:pageopacity="0.0" inkscape:pageshadow="2" inkscape:window-height="1017" inkscape:window-maximized="1" inkscape:window-width="1920" inkscape:window-x="1912" inkscape:window-y="70" inkscape:zoom="0.84107037" pagecolor="#ffffff" showgrid="false"/>
  <g id="layer1" inkscape:groupmode="layer" inkscape:label="Layer 1">
    <g id="g849">
      <path id="path815" d="M20.5,79.2L312,0l167.5,79.2v341.7l-291.5,79.2L20.5,420.8V79.2Z" inkscape:connector-curvature="0"/>
      <path id="path817" class="st0" d="M312,0l95.7,303.6-219.7,196.4L20.5,79.2,312,0Z" inkscape:connector-curvature="0"/>
      <path id="path819" class="st1" d="M353.9,198.9h46.5l38.4,104.7h-31.2l-6.9-22h-47.1l-6.9,22h-31.2l38.5-104.7ZM360.8,258.9h32.8l-11.8-37.4h-9.3l-11.8,37.4ZM309.5,198.9l-9,25.2h-31.1v79.5h-30.4v-79.5h-33.5v-25.2h104ZM98.3,199v61.3c0,15.5,7.7,21.3,22.9,21.3s22.9-5.8,22.9-21.3v-61.3h30.1v59.1c0,34.5-18.8,48.2-52.9,48.2s-52.9-13.8-52.9-48.2v-59.1h30.1Z" inkscape:connector-curvature="0"/>
    </g>
  </g>
</svg>