<?xml version="1.0" encoding="UTF-8"?>
<svg id="Layer_1" xmlns="http://www.w3.org/2000/svg" version="1.1" viewBox="0 0 233.6 56">
  <!-- Generator: Adobe Illustrator 29.0.1, SVG Export Plug-In . SVG Version: 2.1.0 Build 192)  -->
  <defs>
    <style>
      .st0 {
        fill: #ffc220;
      }

      .st1 {
        fill: #0071ce;
      }
    </style>
  </defs>
  <path class="st1" d="M135.5,29.8c0-5.5-2.4-10.4-10.4-10.4s-7.4,1.2-9.1,2.2l1.3,4.4c1.6-1,4.2-1.9,6.7-1.9,4.1,0,4.7,2.3,4.7,3.8v.4c-8.8,0-14.4,3-14.4,9.3s2.8,7.4,7.8,7.4,5.6-1.2,7.1-3.2h.1s1,4.2,6.6,2.6c-.3-1.8-.4-3.6-.4-5.9v-8.7ZM128.9,35.6c0,.4,0,.9-.2,1.3-.5,1.7-2.3,3.1-4.5,3.1s-3.3-1-3.3-3.2c0-3.3,3.7-4.3,7.9-4.2v3Z"/>
  <path class="st1" d="M0,11.9s5.8,23.6,6.7,27.5c1.1,4.5,3,6.1,8.6,5l3.6-14.7c.9-3.6,1.5-6.2,2.1-9.9h.1c.4,3.7,1,6.3,1.7,10,0,0,1.5,6.7,2.2,10.2.7,3.5,2.8,5.7,8.3,4.5l8.6-32.5h-6.9l-3,14.1c-.8,4.1-1.5,7.3-2,11h-.1c-.5-3.7-1.1-6.8-1.9-10.8l-3.1-14.3h-7.2l-3.3,14c-.9,4.3-1.8,7.7-2.3,11.3h0c-.6-3.4-1.3-7.7-2.1-11.8,0,0-1.9-10-2.6-13.4H0Z"/>
  <path class="st1" d="M61.4,29.8c0-5.5-2.4-10.4-10.4-10.4s-7.4,1.2-9.1,2.2l1.3,4.4c1.6-1,4.2-1.9,6.7-1.9,4.1,0,4.7,2.3,4.7,3.8v.4c-8.8,0-14.4,3-14.4,9.3s2.9,7.4,7.8,7.4,5.6-1.2,7.1-3.2h.2s1,4.2,6.6,2.6c-.3-1.8-.4-3.6-.4-5.9v-8.7ZM54.8,35.6c0,.4,0,.9-.2,1.3-.5,1.7-2.3,3.1-4.5,3.1s-3.3-1-3.3-3.2c0-3.3,3.7-4.3,7.9-4.2v3Z"/>
  <polygon class="st1" points="65 11.9 65 44.4 71.6 44.4 71.6 37.5 71.6 11.9 65 11.9"/>
  <path class="st1" d="M155.8,11.9v24c0,3.3.6,5.6,2,7,1.2,1.2,3.1,2,5.4,2s3.9-.4,4.8-.7v-5.2c-.8.2-1.5.3-2.6.3-2.3,0-3-1.4-3-4.4v-9.2h5.8v-6.2h-5.8v-7.7h-6.5Z"/>
  <path class="st1" d="M138.7,20v24.4h6.8v-12.5c0-.7,0-1.3.1-1.8.5-2.6,2.5-4.3,5.4-4.3s1.4,0,2,.2v-6.4c-.5,0-.9-.1-1.5-.1-2.6,0-5.5,1.6-6.7,5.2h-.2v-4.6h-6Z"/>
  <path class="st1" d="M75.5,20v24.4h6.7v-14.3c0-.7,0-1.4.3-2,.5-1.5,1.9-3.1,4-3.1s3.9,2.3,3.9,5.5v13.9h6.6v-14.5c0-.6,0-1.4.3-2,.5-1.6,2-3,4-3s4,2.2,4,6.1v13.4h6.6v-14.4c0-7.6-3.8-10.6-8.2-10.6s-3.4.5-4.8,1.3c-1.2.7-2.2,1.7-3.1,3h-.1c-1.1-2.6-3.5-4.4-6.7-4.4s-6,2.1-7.1,3.9h-.1v-3.3h-6.3Z"/>
  <path class="st0" d="M203.8,18.9c1.3,0,2.4-.7,2.5-1.6l1.3-14.7c0-1.5-1.7-2.6-3.8-2.6s-3.8,1.2-3.8,2.6l1.3,14.7c.1.9,1.2,1.6,2.5,1.6"/>
  <path class="st0" d="M195.8,23.4c.6-1.1.6-2.4,0-3l-12.1-8.4c-1.3-.7-3.1.1-4.2,2-1.1,1.8-.9,3.9.4,4.6l13.4,6.2c.9.3,2-.3,2.6-1.4"/>
  <path class="st0" d="M211.7,23.4c.7,1.1,1.8,1.7,2.6,1.4l13.4-6.2c1.2-.7,1.4-2.8.4-4.6-1.1-1.8-3-2.7-4.2-2l-12.1,8.4c-.7.6-.7,1.9,0,3"/>
  <path class="st0" d="M203.8,37.2c1.3,0,2.4.7,2.5,1.6l1.3,14.7c0,1.5-1.7,2.6-3.8,2.6s-3.8-1.2-3.8-2.6l1.3-14.7c.1-.9,1.2-1.6,2.5-1.6"/>
  <path class="st0" d="M211.7,32.6c.7-1.1,1.8-1.7,2.6-1.4l13.4,6.2c1.2.7,1.4,2.8.4,4.6-1.1,1.8-3,2.7-4.2,2l-12.1-8.5c-.7-.6-.7-1.8,0-3"/>
  <path class="st0" d="M195.8,32.6c.6,1.1.6,2.4,0,3l-12.1,8.4c-1.3.7-3.1-.1-4.2-2-1.1-1.8-.9-3.9.4-4.6l13.4-6.2c.9-.3,2,.3,2.6,1.4"/>
  <path class="st0" d="M231.6,42.7h.2c.2,0,.3,0,.3.3,0,.2,0,.3.1.4h.4s0-.2-.1-.4c0-.2-.2-.3-.3-.4h0c.2,0,.3-.2.3-.4s0-.3-.1-.4c-.1,0-.3-.1-.6-.1s-.5,0-.6,0v1.6h.4v-.6ZM231.7,42h.2c.2,0,.4,0,.4.2s-.2.2-.4.2h-.2v-.5ZM231.9,40.9c-.9,0-1.7.7-1.7,1.6s.7,1.7,1.7,1.7,1.7-.7,1.7-1.7-.7-1.6-1.7-1.6M231.9,41.2c.7,0,1.3.6,1.3,1.3s-.5,1.3-1.3,1.3c-.7,0-1.3-.6-1.3-1.3s.5-1.3,1.3-1.3"/>
</svg>