<?xml version="1.0" encoding="UTF-8"?>
<svg id="Layer_1" xmlns="http://www.w3.org/2000/svg" version="1.1" viewBox="0 0 500 500">
  <!-- Generator: Adobe Illustrator 29.2.1, SVG Export Plug-In . SVG Version: 2.1.0 Build 116)  -->
  <defs>
    <style>
      .st0 {
        fill: #ffc220;
      }

      .st1 {
        fill: #0071ce;
      }
    </style>
  </defs>
  <path class="st1" d="M290,253.8c0-11.8-5.1-22.3-22.3-22.3s-15.8,2.6-19.5,4.7l2.8,9.4c3.4-2.1,9-4.1,14.3-4.1,8.8,0,10.1,4.9,10.1,8.1v.9c-18.8,0-30.8,6.4-30.8,19.9s6,15.8,16.7,15.8,12-2.6,15.2-6.8h.2s2.1,9,14.1,5.6c-.6-3.9-.9-7.7-.9-12.6v-18.6h0ZM275.9,266.2c0,.9,0,1.9-.4,2.8-1.1,3.6-4.9,6.6-9.6,6.6s-7.1-2.1-7.1-6.8c0-7.1,7.9-9.2,16.9-9v6.4h.2Z"/>
  <path class="st1" d="M0,215.5s12.4,50.5,14.3,58.9c2.4,9.6,6.4,13.1,18.4,10.7l7.7-31.5c1.9-7.7,3.2-13.3,4.5-21.2h.2c.9,7.9,2.1,13.5,3.6,21.4,0,0,3.2,14.3,4.7,21.8s6,12.2,17.8,9.6l18.4-69.6h-14.8l-6.4,30.2c-1.7,8.8-3.2,15.6-4.3,23.5h-.2c-1.1-7.9-2.4-14.6-4.1-23.1l-6.6-30.6h-15.4l-7.1,30c-1.9,9.2-3.9,16.5-4.9,24.2h0c-1.3-7.3-2.8-16.5-4.5-25.3,0,0-4.1-21.4-5.6-28.7H0v-.4Z"/>
  <path class="st1" d="M131.4,253.8c0-11.8-5.1-22.3-22.3-22.3s-15.8,2.6-19.5,4.7l2.8,9.4c3.4-2.1,9-4.1,14.3-4.1,8.8,0,10.1,4.9,10.1,8.1v.9c-18.8,0-30.8,6.4-30.8,19.9s6.2,15.8,16.7,15.8,12-2.6,15.2-6.8h.4s2.1,9,14.1,5.6c-.6-3.9-.9-7.7-.9-12.6v-18.6h-.2ZM117.3,266.2c0,.9,0,1.9-.4,2.8-1.1,3.6-4.9,6.6-9.6,6.6s-7.1-2.1-7.1-6.8c0-7.1,7.9-9.2,16.9-9v6.4h.2Z"/>
  <polygon class="st1" points="139.1 215.5 139.1 285 153.3 285 153.3 270.3 153.3 215.5 139.1 215.5"/>
  <path class="st1" d="M333.5,215.5v51.4c0,7.1,1.3,12,4.3,15,2.6,2.6,6.6,4.3,11.6,4.3s8.3-.9,10.3-1.5v-11.1c-1.7.4-3.2.6-5.6.6-4.9,0-6.4-3-6.4-9.4v-19.7h12.4v-13.3h-12.4v-16.5h-13.9l-.2.2Z"/>
  <path class="st1" d="M296.9,232.8v52.2h14.6v-26.8c0-1.5,0-2.8.2-3.9,1.1-5.6,5.4-9.2,11.6-9.2s3,0,4.3.4v-13.7c-1.1,0-1.9-.2-3.2-.2-5.6,0-11.8,3.4-14.3,11.1h-.4v-9.8h-12.8l.2-.2Z"/>
  <path class="st1" d="M161.6,232.8v52.2h14.3v-30.6c0-1.5,0-3,.6-4.3,1.1-3.2,4.1-6.6,8.6-6.6s8.3,4.9,8.3,11.8v29.8h14.1v-31c0-1.3,0-3,.6-4.3,1.1-3.4,4.3-6.4,8.6-6.4s8.6,4.7,8.6,13.1v28.7h14.1v-30.8c0-16.3-8.1-22.7-17.6-22.7s-7.3,1.1-10.3,2.8c-2.6,1.5-4.7,3.6-6.6,6.4h-.2c-2.4-5.6-7.5-9.4-14.3-9.4s-12.8,4.5-15.2,8.3h-.2v-7.1h-13.5v.2Z"/>
  <path class="st0" d="M436.2,230.5c2.8,0,5.1-1.5,5.4-3.4l2.8-31.5c0-3.2-3.6-5.6-8.1-5.6s-8.1,2.6-8.1,5.6l2.8,31.5c.2,1.9,2.6,3.4,5.4,3.4"/>
  <path class="st0" d="M419.1,240.1c1.3-2.4,1.3-5.1,0-6.4l-25.9-18c-2.8-1.5-6.6.2-9,4.3-2.4,3.9-1.9,8.3.9,9.8l28.7,13.3c1.9.6,4.3-.6,5.6-3"/>
  <path class="st0" d="M453.1,240.1c1.5,2.4,3.9,3.6,5.6,3l28.7-13.3c2.6-1.5,3-6,.9-9.8-2.4-3.9-6.4-5.8-9-4.3l-25.9,18c-1.5,1.3-1.5,4.1,0,6.4"/>
  <path class="st0" d="M436.2,269.6c2.8,0,5.1,1.5,5.4,3.4l2.8,31.5c0,3.2-3.6,5.6-8.1,5.6s-8.1-2.6-8.1-5.6l2.8-31.5c.2-1.9,2.6-3.4,5.4-3.4"/>
  <path class="st0" d="M453.1,259.8c1.5-2.4,3.9-3.6,5.6-3l28.7,13.3c2.6,1.5,3,6,.9,9.8-2.4,3.9-6.4,5.8-9,4.3l-25.9-18.2c-1.5-1.3-1.5-3.9,0-6.4"/>
  <path class="st0" d="M419.1,259.8c1.3,2.4,1.3,5.1,0,6.4l-25.9,18c-2.8,1.5-6.6-.2-9-4.3-2.4-3.9-1.9-8.3.9-9.8l28.7-13.3c1.9-.6,4.3.6,5.6,3"/>
  <path class="st0" d="M495.7,281.4h.4c.4,0,.6,0,.6.6s0,.6.2.9h.9s0-.4-.2-.9c0-.4-.4-.6-.6-.9h0c.4,0,.6-.4.6-.9s0-.6-.2-.9c-.2,0-.6-.2-1.3-.2h-1.3v3.4h.9v-1.3h0ZM495.9,279.9h.4c.4,0,.9,0,.9.4s-.4.4-.9.4h-.4v-1.1.2ZM496.4,277.6c-1.9,0-3.6,1.5-3.6,3.4s1.5,3.6,3.6,3.6,3.6-1.5,3.6-3.6-1.5-3.4-3.6-3.4M496.4,278.2c1.5,0,2.8,1.3,2.8,2.8s-1.1,2.8-2.8,2.8-2.8-1.3-2.8-2.8,1.1-2.8,2.8-2.8"/>
</svg>