<?xml version="1.0" encoding="UTF-8"?>
<svg id="Layer_1" xmlns="http://www.w3.org/2000/svg" version="1.1" viewBox="0 0 32 20">
  <!-- Generator: Adobe Illustrator 29.0.1, SVG Export Plug-In . SVG Version: 2.1.0 Build 192)  -->
  <defs>
    <style>
      .st0 {
        fill: #fff;
      }
    </style>
  </defs>
  <path class="st0" d="M2,.2h28c1.1,0,2,.9,2,2h0c0,1.1-.9,2-2,2H2c-1.1,0-2-.9-2-2h0C0,1.1.9.2,2,.2Z"/>
  <path class="st0" d="M2,.2h28c1.1,0,2,.9,2,2h0c0,1.1-.9,2-2,2H2c-1.1,0-2-.9-2-2h0C0,1.1.9.2,2,.2Z"/>
  <path class="st0" d="M2,8h28c1.1,0,2,.9,2,2h0c0,1.1-.9,2-2,2H2c-1.1,0-2-.9-2-2h0c0-1.1.9-2,2-2Z"/>
  <path class="st0" d="M2,8h28c1.1,0,2,.9,2,2h0c0,1.1-.9,2-2,2H2c-1.1,0-2-.9-2-2h0c0-1.1.9-2,2-2Z"/>
  <path class="st0" d="M2,15.8h28c1.1,0,2,.9,2,2h0c0,1.1-.9,2-2,2H2c-1.1,0-2-.9-2-2h0c0-1.1.9-2,2-2Z"/>
  <path class="st0" d="M2,15.8h28c1.1,0,2,.9,2,2h0c0,1.1-.9,2-2,2H2c-1.1,0-2-.9-2-2h0c0-1.1.9-2,2-2Z"/>
</svg>