<?xml version="1.0" encoding="UTF-8"?>
<svg id="Layer_1" xmlns="http://www.w3.org/2000/svg" version="1.1" viewBox="0 0 500 500">
  <!-- Generator: Adobe Illustrator 29.2.1, SVG Export Plug-In . SVG Version: 2.1.0 Build 116)  -->
  <defs>
    <style>
      .st0 {
        fill-rule: evenodd;
      }

      .st0, .st1 {
        fill: #fff;
      }
    </style>
  </defs>
  <path class="st0" d="M394.7,186.8c-1.1,0-3.2,0-4.3,2.2-1.1,1.1-2.2,2.2-2.2,4.3l-13,84.4v3.2h3.2l26-4.3h3.2v4.3l-14.1,45.5v2.2s0,1.1,1.1,2.2h4.3l99.6-95.2s0-1.1,1.1-2.2v-2.2s0-1.1-2.2-2.2h-2.2l-24.9,4.3h-2.2s-1.1,0-2.2-1.1v-4.3l27.1-54.1v-4.3l-2.2-1.1h-2.2l-99.6,17.3,5.4,1.1ZM438,238.8c4.3,2.2,7.6,3.2,6.5-3.2,0-2.2-1.1-4.3-2.2-6.5-1.1-2.2-3.2-4.3-5.4-5.4s-4.3-2.2-6.5-3.2h-7.6c-5.4,0-9.7,3.2-11.9,7.6-3.2,4.3-4.3,9.7-3.2,14.1,0,5.4,3.2,3.2,6.5,0,3.2-2.2,6.5-5.4,10.8-6.5,4.3,0,8.7,0,13,2.2v1.1Z"/>
  <path class="st0" d="M38.7,319.9c4.3,0,7.6,1.1,11.9,1.1,6.5,0,11.9-1.1,18.4-3.2,5.4-2.2,10.8-6.5,15.2-10.8,4.3-4.3,7.6-10.8,10.8-16.2,2.2-6.5,4.3-14.1,4.3-20.6s-1.1-14.1-4.3-20.6c-2.2-6.5-5.4-11.9-10.8-16.2-4.3-4.3-9.7-8.7-15.2-10.8s-11.9-4.3-18.4-4.3-7.6,0-10.8,2.2c-3.2,0-5.4,2.2-7.6,3.2-2.2,1.1-4.3,3.2-6.5,4.3v-46.5H-.3v137.4h18.4l4.3-8.7c2.2,2.2,5.4,4.3,7.6,5.4,3.2,2.2,5.4,3.2,8.7,4.3ZM30,289.6c-4.3-5.4-7.6-11.9-7.6-20.6s2.2-15.2,7.6-20.6c2.2-2.2,5.4-4.3,8.7-5.4s6.5-2.2,9.7-2.2,6.5,0,9.7,2.2c3.2,1.1,5.4,3.2,8.7,5.4,4.3,5.4,7.6,11.9,7.6,20.6s-2.2,15.2-7.6,20.6-5.4,4.3-8.7,5.4-6.5,2.2-9.7,2.2-6.5,0-9.7-2.2c-3.2-1.1-5.4-3.2-8.7-5.4Z"/>
  <path class="st1" d="M246.5,195.5h-21.6v13c0,7.6-4.3,11.9-11.9,11.9h-6.5v20.6h15.2v44.4c0,5.4,0,9.7,2.2,15.2,1.1,4.3,4.3,7.6,6.5,11.9,3.2,3.2,6.5,5.4,10.8,7.6s8.7,2.2,14.1,2.2,5.4,0,8.7-1.1c1.1,0,2.2,0,3.2-1.1v-21.6h-13c-2.2,0-3.2-2.2-4.3-3.2-2.2-3.2-4.3-6.5-3.2-10.8v-43.3h21.6v-22.7h-21.6s0-22.7,0-22.7Z"/>
  <path class="st1" d="M327.6,217.1h-3.2c-3.2,0-7.6,0-10.8,2.2-2.2,0-5.4,2.2-7.6,4.3-2.2,2.2-4.3,3.2-6.5,6.5l-4.3-10.8h-18.4v101.7h24.9v-54.1c0-6.5,2.2-11.9,5.4-16.2,2.2-2.2,4.3-3.2,6.5-4.3,2.2,0,5.4-1.1,8.7-1.1h8.7v-27.1h-4.3l1.1-1.1Z"/>
  <path class="st0" d="M199.9,289.6c-1.1,4.3-3.2,7.6-6.5,11.9-3.2,4.3-6.5,7.6-9.7,10.8-4.3,3.2-8.7,5.4-13,7.6-5.4,2.2-10.8,3.2-16.2,3.2s-13-1.1-19.5-4.3c-6.5-3.2-11.9-6.5-16.2-10.8s-8.7-9.7-10.8-16.2-4.3-13-4.3-20.6,1.1-14.1,4.3-19.5c2.2-6.5,6.5-11.9,10.8-16.2s9.7-8.7,16.2-10.8,13-4.3,19.5-4.3,13,1.1,19.5,3.2c5.4,2.2,10.8,6.5,15.2,10.8s7.6,10.8,10.8,16.2c2.2,6.5,4.3,14.1,4.3,20.6v9.7h-70.3c1.1,4.3,3.2,9.7,7.6,13s8.7,5.4,15.2,5.4,5.4,0,8.7-1.1c2.2,0,4.3-1.1,5.4-2.2,2.2-1.1,3.2-2.2,4.3-4.3h26l-1.1-2.2ZM155.5,243.1c-5.4,0-11.9,2.2-16.2,5.4s-6.5,8.7-7.6,14.1h48.7c-1.1-5.4-4.3-10.8-7.6-14.1-4.3-4.3-9.7-6.5-16.2-5.4h-1.1Z"/>
</svg>