<?xml version="1.0" encoding="UTF-8"?>
<svg id="Layer_1" xmlns="http://www.w3.org/2000/svg" xmlns:xlink="http://www.w3.org/1999/xlink" version="1.1" viewBox="0 0 500 500">
  <!-- Generator: Adobe Illustrator 29.2.1, SVG Export Plug-In . SVG Version: 2.1.0 Build 116)  -->
  <defs>
    <style>
      .st0 {
        fill: #fff;
      }

      .st0, .st1, .st2, .st3, .st4, .st5, .st6, .st7, .st8, .st9, .st10 {
        fill-rule: evenodd;
      }

      .st1 {
        fill: #111;
      }

      .st2 {
        fill: #e4e5e6;
      }

      .st3 {
        fill: url(#linear-gradient);
      }

      .st4 {
        fill: url(#linear-gradient1);
      }

      .st5 {
        fill: url(#linear-gradient2);
      }

      .st6 {
        fill: url(#linear-gradient7);
      }

      .st7 {
        fill: url(#linear-gradient4);
      }

      .st8 {
        fill: url(#linear-gradient5);
      }

      .st9 {
        fill: url(#linear-gradient3);
      }

      .st10 {
        fill: url(#linear-gradient6);
      }
    </style>
    <linearGradient id="linear-gradient" x1="-220" y1="-272.7" x2="-203.6" y2="-272.7" gradientTransform="translate(0 -48) scale(1 -1)" gradientUnits="userSpaceOnUse">
      <stop offset="0" stop-color="#fff"/>
      <stop offset="0" stop-color="#fff"/>
      <stop offset=".2" stop-color="#dcdfe1"/>
      <stop offset=".4" stop-color="#a8afb3"/>
      <stop offset=".5" stop-color="#949ca1"/>
      <stop offset="1" stop-color="#949ca1"/>
    </linearGradient>
    <linearGradient id="linear-gradient1" x1="423.9" y1="-43.9" x2="423.9" y2="3.3" gradientTransform="translate(0 -48) scale(1 -1)" gradientUnits="userSpaceOnUse">
      <stop offset="0" stop-color="#fff"/>
      <stop offset=".3" stop-color="#fff"/>
      <stop offset=".6" stop-color="#949ca1"/>
      <stop offset="1" stop-color="#949ca1"/>
    </linearGradient>
    <linearGradient id="linear-gradient2" x1="-215.8" y1="-446.7" x2="-152.3" y2="-446.7" gradientTransform="translate(0 -48) scale(1 -1)" gradientUnits="userSpaceOnUse">
      <stop offset="0" stop-color="#fff"/>
      <stop offset=".2" stop-color="#fff"/>
      <stop offset=".2" stop-color="#fafafa"/>
      <stop offset=".3" stop-color="#ebeced"/>
      <stop offset=".4" stop-color="#d2d5d7"/>
      <stop offset=".5" stop-color="#afb5b9"/>
      <stop offset=".5" stop-color="#949ca1"/>
      <stop offset="1" stop-color="#949ca1"/>
    </linearGradient>
    <linearGradient id="linear-gradient3" x1="49.3" y1="18.8" x2="-23.5" y2="126.5" gradientTransform="translate(0 -48) scale(1 -1)" gradientUnits="userSpaceOnUse">
      <stop offset="0" stop-color="#949ca1"/>
      <stop offset="0" stop-color="#99a1a6"/>
      <stop offset="0" stop-color="#c2c6c8"/>
      <stop offset=".2" stop-color="#dbddde"/>
      <stop offset=".2" stop-color="#e4e5e6"/>
      <stop offset=".8" stop-color="#e4e5e6"/>
      <stop offset=".8" stop-color="#dcdedf"/>
      <stop offset=".9" stop-color="#c7cacd"/>
      <stop offset="1" stop-color="#a3aaae"/>
      <stop offset="1" stop-color="#949ca1"/>
    </linearGradient>
    <linearGradient id="linear-gradient4" x1="-194.3" y1="-112.1" x2="-152.3" y2="-112.1" gradientTransform="translate(0 -48) scale(1 -1)" gradientUnits="userSpaceOnUse">
      <stop offset="0" stop-color="#fff"/>
      <stop offset=".2" stop-color="#fff"/>
      <stop offset=".3" stop-color="#fafafa"/>
      <stop offset=".5" stop-color="#ebeced"/>
      <stop offset=".6" stop-color="#d2d5d7"/>
      <stop offset=".7" stop-color="#afb5b9"/>
      <stop offset=".8" stop-color="#949ca1"/>
      <stop offset="1" stop-color="#949ca1"/>
    </linearGradient>
    <linearGradient id="linear-gradient5" x1="-152.3" y1="-402.5" x2="-85.5" y2="-402.5" gradientTransform="translate(0 -48) scale(1 -1)" gradientUnits="userSpaceOnUse">
      <stop offset="0" stop-color="#fff"/>
      <stop offset=".2" stop-color="#fff"/>
      <stop offset=".3" stop-color="#fafbfb"/>
      <stop offset=".5" stop-color="#edeeef"/>
      <stop offset=".6" stop-color="#d7dadc"/>
      <stop offset=".8" stop-color="#b8bdc1"/>
      <stop offset=".9" stop-color="#949ca1"/>
      <stop offset="1" stop-color="#949ca1"/>
    </linearGradient>
    <linearGradient id="linear-gradient6" x1="-152.3" y1="-110.1" x2="-110.2" y2="-110.1" gradientTransform="translate(0 -48) scale(1 -1)" gradientUnits="userSpaceOnUse">
      <stop offset="0" stop-color="#fff"/>
      <stop offset=".2" stop-color="#fff"/>
      <stop offset=".3" stop-color="#fafafa"/>
      <stop offset=".5" stop-color="#ebeced"/>
      <stop offset=".6" stop-color="#d2d5d7"/>
      <stop offset=".7" stop-color="#afb5b9"/>
      <stop offset=".8" stop-color="#949ca1"/>
      <stop offset="1" stop-color="#949ca1"/>
    </linearGradient>
    <linearGradient id="linear-gradient7" x1="-218.9" y1="-124.9" x2="-192.3" y2="-124.9" gradientTransform="translate(0 -48) scale(1 -1)" gradientUnits="userSpaceOnUse">
      <stop offset="0" stop-color="#fff"/>
      <stop offset=".4" stop-color="#fff"/>
      <stop offset=".5" stop-color="#fafafa"/>
      <stop offset=".6" stop-color="#ebeced"/>
      <stop offset=".7" stop-color="#d2d5d7"/>
      <stop offset=".8" stop-color="#afb5b9"/>
      <stop offset=".9" stop-color="#949ca1"/>
      <stop offset="1" stop-color="#949ca1"/>
    </linearGradient>
  </defs>
  <path class="st0" d="M71.5,297.5c0-40,19.5-55.4,23.6-94.4-5.2,33.9-27.7,60.5-27.7,94.4s2,24.6,5.2,34.9c14.4,46.2,56.4,72.9,97.5,83.1-62.6-15.4-97.5-67.7-97.5-118h-1.1ZM433.7,297.5c0-20.5-6.1-37.9-12.4-53.3-8.2-18.5-16.4-34.9-16.4-55.4,0,49.2,23.6,63.6,23.6,107.7s-34.9,101.6-97.5,118c57.5-14.4,102.6-55.4,102.6-118v1.1Z"/>
  <path class="st2" d="M413.1,101.6c-13.3-4.1-22.6-13.3-27.7-28.7l-12.4-34.9-6.1,22.6c12.4,54.4,58.5,58.5,58.5,58.5l18.5-8.2-29.8-8.2-1.1-1.1h0ZM195.6,300.6l-23.6-35.9-26.7,19.5s9.2,0,9.2,10.2v67.7l18.5-13.3v-48.3l21.5,32.9,19.5-14.4v-85.1l-18.5,13.3v53.3h0ZM272.6,221.6l-21.5,15.4v-31.8l-28.7,20.5s9.2,0,9.2,10.2v67.7l19.5-14.4v-30.7l21.5-15.4v31.8l18.5-13.3v-85.1l-18.5,13.3v31.8ZM326,213.5v-63.6l-28.7,20.5s9.2,0,9.2,10.2v67.7l53.3-40v-21.5l-33.9,25.7v1.1h0Z"/>
  <path class="st3" d="M81.7,188.8c0,48.3-24.6,57.5-24.6,107.7s2,29.8,7.2,43.1c1.1-3.1,4.1-6.1,6.1-8.2-3.1-10.2-5.2-21.5-5.2-34.9,0-32.9,22.6-60.5,27.7-94.4v-13.3c0-39-18.5-70.8-18.5-70.8l-18.5-8.2,12.4,27.7c6.1,14.4,11.3,31.8,11.3,51.3h2,0Z"/>
  <path class="st4" d="M405,188.8c0,20.5,8.2,37,16.4,55.4h10.2c-6.1-15.4-12.4-30.7-12.4-55.4s5.2-37,11.3-51.3l12.4-27.7-18.5,8.2s-18.5,32.9-18.5,70.8h-1.1,0Z"/>
  <path class="st5" d="M235.6,429.9c-15.4-5.2-35.9-7.2-65.7-14.4-41.1-10.2-84.2-35.9-97.5-83.1-2,2-5.2,5.2-6.1,8.2,16.4,45.1,56.4,76,100.6,87.3,27.7,7.2,41.1,7.2,62.6,13.3,3.1,3.1,21.5,23.6,21.5,23.6v-19.5s-12.4-14.4-14.4-15.4h-1.1,0Z"/>
  <path class="st9" d="M173,401.2c33.9,8.2,55.4,9.2,69.8,16.4l7.2,7.2,7.2-7.2c14.4-7.2,37-8.2,69.8-16.4,42-10.2,88.2-47.2,88.2-104.7s-23.6-56.4-23.6-107.7,13.3-62.6,13.3-62.6c0,0-30.7-6.1-45.1-45.1,0,0-20.5,19.5-49.2,19.5s-59.5-24.6-59.5-24.6c0,0-23.6,24.6-59.5,24.6s-49.2-19.5-49.2-19.5c-14.4,39-46.2,45.1-46.2,45.1,0,0,13.3,26.7,13.3,62.6,0,52.3-23.6,67.7-23.6,107.7s46.2,93.4,88.2,104.7h-1.1.2ZM400.8,297.5c0,48.3-39,80.1-76,90.3-26.7,7.2-58.5,10.2-68.8,15.4-2,1.1-5.2,4.1-5.2,4.1,0,0-3.1-3.1-5.2-4.1-9.2-5.2-42-9.2-68.8-15.4h-3.1l209.4-155c7.2,24.6,17.4,40,17.4,64.6h.2ZM385.4,135.4c-4.1,12.4-9.2,31.8-9.2,53.3s0,17.4,2,24.6l-224.7,165.2c-27.7-14.4-52.3-41.1-54.4-79L357.7,110.8c9.2,12.4,19.5,19.5,27.7,24.6h0ZM123.8,188.8c0-22.6-5.2-41.1-9.2-53.3,9.2-5.2,22.6-14.4,31.8-30.7,10.2,6.1,25.7,12.4,43.1,12.4,26.7,0,47.2-11.3,59.5-20.5,12.4,8.2,32.9,20.5,59.5,20.5s8.2,0,12.4,0l-217.5,159.1c6.1-24.6,21.5-44.2,21.5-87.3h-1.1,0Z"/>
  <path class="st7" d="M190.5,87.2c35.9,0,59.5-29.8,59.5-29.8v-18.4l-18.5,18.5c-9.2,9.2-25.7,17.4-41.1,17.4s-22.6-5.2-31.8-12.4l-28.7-23.6,6.1,22.6s26.7,27.7,54.4,27.7c0,0,0-2,0-2Z"/>
  <path class="st8" d="M433.7,297.5c0,62.6-45.1,103.6-102.6,118-29.8,7.2-51.3,9.2-65.7,14.4-2,2-14.4,15.4-14.4,15.4v19.5s19.5-20.5,21.5-23.6c20.5-6.1,33.9-6.1,62.6-13.3,56.4-14.4,108.8-62.6,108.8-130.4s-5.2-39-11.3-53.3h-10.2c6.1,15.4,12.4,32.9,12.4,53.3h-1.1,0Z"/>
  <path class="st10" d="M310.5,87.2c27.7,0,55.4-27.7,55.4-27.7l6.1-22.6-28.7,23.6c-9.2,7.2-20.5,12.4-31.8,12.4s-30.7-7.2-41.1-17.4l-18.5-18.5v18.5s23.6,30.7,59.5,30.7l-1.1,1.1h0Z"/>
  <path class="st6" d="M135.1,59.5l-6.1-22.6-13.3,34.9c-6.1,15.4-15.4,24.6-27.7,28.7l-29.8,8.2,18.5,8.2s46.2-4.1,58.5-58.5v1.1Z"/>
  <path class="st1" d="M103.3,276l219.6-161.1h-12.4c-26.7,0-47.2-11.3-59.5-20.5-12.4,8.2-32.9,20.5-59.5,20.5s-32.9-6.1-43.1-12.4c-9.2,16.4-22.6,25.7-31.8,30.7,4.1,12.4,9.2,31.8,9.2,53.3,0,43.1-14.4,63.6-21.5,87.3l-1.1,2h0ZM173,386.8h3.1c26.7,7.2,58.5,11.3,68.8,16.4,2,1.1,5.2,4.1,5.2,4.1,0,0,3.1-3.1,5.2-4.1,9.2-5.2,42-9.2,68.8-15.4,37-9.2,76-41.1,76-90.3s-10.2-40-18.5-64.6l-209.4,153.9h1.1-.2ZM76.5,188.8c0,46.2-24.6,56.4-24.6,107.7,0,73.8,58.5,122.1,112.9,136.5,27.7,7.2,35.9,7.2,60.5,12.4,2,2,25.7,26.7,25.7,26.7,0,0,23.6-24.6,25.7-26.7,24.6-6.1,32.9-6.1,60.5-12.4,54.4-13.3,112.9-62.6,112.9-136.5s-24.6-61.6-24.6-107.7,3.1-33.9,10.2-49.2l15.4-33.9-35.9-10.2c-11.3-3.1-18.5-11.3-24.6-24.6l-16.4-43.1-35.9,28.7c-9.2,7.2-18.5,11.3-28.7,11.3s-27.7-6.1-37-15.4l-22.6-22.6-22.6,22.6c-9.2,9.2-23.6,15.4-37,15.4s-18.5-4.1-28.7-11.3l-35.9-28.8-16.4,43.1c-5.2,13.3-13.3,21.5-24.6,24.6l-35.9,11.3,15.4,33.9c7.2,15.4,10.2,31.8,10.2,48.3h2,0ZM87.9,101.6c13.3-4.1,22.6-13.3,27.7-28.7l13.3-34.9,29.8,23.6c9.2,7.2,20.5,12.4,31.8,12.4s30.7-7.2,41.1-17.4l18.5-18.5,18.5,18.5c9.2,9.2,25.7,17.4,41.1,17.4s22.6-5.2,31.8-12.4l28.7-23.6,13.3,34.9c6.1,15.4,15.4,24.6,27.7,28.7l29.8,8.2-12.4,27.7c-6.1,14.4-11.3,31.8-11.3,51.3s6.1,40,12.4,54.4c6.1,14.4,11.3,28.7,11.3,53.3,0,67.7-51.3,116-107.7,130.4-27.7,7.2-41.1,7.2-62.6,13.3-3.1,3.1-21.5,23.6-21.5,23.6,0,0-19.5-20.5-21.5-23.6-20.5-6.1-33.9-6.1-62.6-13.3-44.2-11.3-84.2-42-100.6-87.3-5.2-13.3-7.2-27.7-7.2-43.1,0-50.3,23.6-59.5,23.6-107.7s-5.2-37-11.3-51.3l-12.4-27.7,29.8-8.2h1.1-.3ZM153.6,378.6l224.7-165.2c0-7.2-2-15.4-2-24.6,0-22.6,5.2-41.1,9.2-53.3-8.2-5.2-18.5-12.4-27.7-24.6L100.2,300.6c1.1,37,25.7,64.6,53.3,78h0ZM326,150.8v62.6l33.9-25.7v21.5l-53.3,40v-67.7c0-9.2-9.2-10.2-9.2-10.2l28.7-21.5v1.1ZM251.1,206.3v31.8l21.5-15.4v-31.8l18.5-13.3v85.1l-18.5,14.4v-30.7l-21.5,15.4v30.7l-19.5,14.4v-67.7c0-9.2-9.2-10.2-9.2-10.2l28.7-21.5v-1.1h0ZM172,264.7l23.6,35.9v-53.3l18.5-13.3v85.1l-19.5,14.4-21.5-32.9v48.3l-18.5,13.3v-67.7c0-9.2-9.2-10.2-9.2-10.2l26.7-19.5h0ZM95,203.1c-4.1,39-23.6,53.3-23.6,94.4s34.9,101.6,98.5,118c29.8,7.2,51.3,9.2,65.7,14.4,2,2,14.4,15.4,14.4,15.4,0,0,12.4-13.3,14.4-15.4,15.4-5.2,35.9-7.2,65.7-14.4,63.6-15.4,98.5-67.7,98.5-118s-23.6-58.5-23.6-107.7,18.5-70.8,18.5-70.8c0,0-46.2-4.1-58.5-58.5,0,0-27.7,27.7-55.4,27.7s-59.5-29.8-59.5-29.8c0,0-23.6,29.8-59.5,29.8s-55.4-27.7-55.4-27.7c-12.4,54.4-58.5,58.5-58.5,58.5,0,0,18.5,32.9,18.5,70.8s0,9.2,0,13.3h0ZM96.1,127.3s30.7-6.1,46.2-45.1c0,0,20.5,19.5,49.2,19.5s59.5-24.6,59.5-24.6c0,0,23.6,24.6,59.5,24.6s49.2-19.5,49.2-19.5c14.4,39,46.2,45.1,46.2,45.1,0,0-13.3,26.7-13.3,62.6,0,52.3,23.6,66.7,23.6,107.7s-46.2,93.4-88.2,104.7c-33.9,8.2-55.4,9.2-69.8,16.4l-7.2,7.2-7.2-7.2c-14.4-7.2-37-8.2-69.8-16.4-42-10.2-88.2-47.2-88.2-104.7s23.6-56.4,23.6-107.7-14.4-62.6-14.4-62.6h1.1-.2Z"/>
</svg>