<?xml version="1.0" encoding="UTF-8"?>
<svg id="Layer_1" xmlns="http://www.w3.org/2000/svg" xmlns:xlink="http://www.w3.org/1999/xlink" version="1.1" viewBox="0 0 500 500">
  <!-- Generator: Adobe Illustrator 29.2.1, SVG Export Plug-In . SVG Version: 2.1.0 Build 116)  -->
  <defs>
    <style>
      .st0 {
        fill: url(#linear-gradient);
      }

      .st1 {
        fill: #fff;
      }
    </style>
    <linearGradient id="linear-gradient" x1="33.3" y1="-761.6" x2="116.7" y2="-845.8" gradientTransform="translate(0 -556.7) scale(1 -1)" gradientUnits="userSpaceOnUse">
      <stop offset="0" stop-color="#00aae4"/>
      <stop offset="1" stop-color="#006097"/>
    </linearGradient>
  </defs>
  <path class="st1" d="M183.1,232.3h-6.6c-8.1,0-17,6.6-17,14.8v39.9h-19.2v-71.6h18.5v7.4c4.4-5.2,11.8-8.9,20.7-8.9h6.6l-2.2,17.7h-.7v.7Z"/>
  <path class="st1" d="M204.5,178.4c6.6,0,12.6,5.2,12.6,11.8s-5.9,11.8-12.6,11.8-12.6-5.2-12.6-11.8,5.9-11.8,12.6-11.8ZM214.1,286.2h-19.2v-70.9h19.2s0,70.9,0,70.9Z"/>
  <path class="st1" d="M270.3,213.8c-7.4,0-14.8,2.2-20.7,7.4v-5.9h-18.5v106.4h19.2v-39.9c5.2,4.4,11.8,6.6,19.2,6.6s20.7-4.4,26.6-11.8c5.9-6.6,8.9-15.5,8.9-25.1,0-20.7-15.5-36.9-34.7-36.9h0v-.7ZM267.3,270.7c-11.8,0-19.2-8.1-19.2-19.2s8.1-19.2,19.2-19.2,18.5,8.9,18.5,19.2-8.1,19.2-18.5,19.2Z"/>
  <path class="st1" d="M420.2,286.2h-19.2v-103.4h19.2v104.1h0v-.7Z"/>
  <path class="st1" d="M497.7,275.1c-6.6,8.1-18.5,12.6-28.8,12.6-21.4,0-36.9-14.8-36.9-36.9s13.3-36.9,34.7-36.9,33.2,16.2,33.2,36.2v5.2h-49.5c0,9.6,8.9,17,19.2,17s14.8-4.4,17.7-8.1l11.1,11.1h-.7ZM480,241.9c0-6.6-6.6-12.6-14-12.6s-14,5.9-15.5,12.6h29.5Z"/>
  <path class="st1" d="M355.2,213.8c-7.4,0-14.8,2.2-20.7,7.4v-5.9h-18.5v106.4h19.2v-39.9c5.2,4.4,11.8,6.6,19.2,6.6s20.7-4.4,26.6-11.8c5.9-6.6,8.9-15.5,8.9-25.1,0-20.7-15.5-36.9-34.7-36.9h0v-.7ZM353,270.7c-11.8,0-19.2-8.1-19.2-19.2s8.1-19.2,19.2-19.2,18.5,8.9,18.5,19.2-8.1,19.2-18.5,19.2Z"/>
  <path class="st0" d="M100.4,261.1c-4.4-2.2-8.9-3-14-3.7-3.7,0-10.3-3-10.3-10.3s4.4-9.6,10.3-10.3c4.4,0,9.6-.7,14-3.7,3.7-2.2,7.4-5.2,9.6-9.6,2.2-3.7,3.7-8.1,3.7-12.6s-1.5-8.9-3.7-12.6-5.2-7.4-9.6-9.6c-3.7-2.2-8.1-3.7-12.6-3.7s-8.9,1.5-12.6,3.7-7.4,5.2-9.6,9.6c-2.2,3.7-3.7,8.1-3.7,12.6s1.5,9.6,3.7,13.3,3,10.3-3.7,14c-4.4,3-11.1.7-14-3.7-2.2-3.7-5.9-8.1-9.6-10.3-3.7-2.2-8.1-3.7-12.6-3.7s-8.9,1.5-12.6,3.7-7.4,5.2-9.6,9.6c-2.2,3.7-3.7,8.1-3.7,12.6s1.5,8.9,3.7,12.6,5.2,7.4,9.6,9.6c3.7,2.2,8.1,3.7,12.6,3.7s8.9-1.5,12.6-3.7c4.4-2.2,7.4-5.9,9.6-10.3,2.2-3,7.4-7.4,14-3.7,4.4,3,5.9,8.9,3.7,14-2.2,4.4-3.7,8.9-3.7,13.3s1.5,8.9,3.7,12.6,5.2,7.4,9.6,9.6c3.7,2.2,8.1,3.7,12.6,3.7s8.9-1.5,12.6-3.7,7.4-5.2,9.6-9.6c2.2-3.7,3.7-8.1,3.7-12.6s-1.5-8.9-3.7-12.6-5.2-7.4-9.6-9.6v1.5Z"/>
</svg>