<?xml version="1.0" encoding="UTF-8"?>
<svg id="Layer_1" xmlns="http://www.w3.org/2000/svg" version="1.1" viewBox="0 0 1500 301">
  <!-- Generator: Adobe Illustrator 29.0.1, SVG Export Plug-In . SVG Version: 2.1.0 Build 192)  -->
  <defs>
    <style>
      .st0 {
        fill: #fff;
      }
    </style>
  </defs>
  <path class="st0" d="M23.4,277.2h264.4V23.8H23.4v253.4ZM62.3,58.2h196.3v19.8h-78.4v65.2h52.7l.7.7v19l-.7.7h-52.7v79.1h-19.8l-.7-164.1-76.9-.7v65.2h58.6v20.5h-58.6v79.1h-20.5V58.2Z"/>
  <path class="st0" d="M0,300.6h312V.4H0v300.3ZM13.9,13.5h282l2.2.7v272.5l-.7.7H13.9V13.5Z"/>
  <polygon class="st0" points="1245.1 75.8 1250.2 89.7 1265.6 130.7 1268.6 137.3 1278.8 137.3 1280.3 133.7 1294.2 97 1302.2 75.1 1303 137.3 1316.9 137.3 1316.9 58.2 1294.2 58.2 1292 64.1 1276.6 106.6 1273.7 113.1 1272.2 109.5 1256.8 67 1253.2 58.2 1231.2 58.2 1231.2 137.3 1244.4 137.3 1245.1 75.8"/>
  <polygon class="st0" points="717 130 722.2 137.3 740.5 137.3 740.5 58.2 725.8 58.2 725.1 116.1 720.7 108.8 711.2 93.4 689.2 58.2 670.2 58.2 670.2 137.3 684.1 137.3 684.8 77.3 689.2 84.6 708.3 115.3 717 130"/>
  <path class="st0" d="M1006.3,129.3l8.1,8.1h18.3v-.7l-13.2-13.2-4.4-5.1,4.4-6.6,8.8-12.5,1.5-3.7h-15.4l-8.1,13.2h-1.5l-6.6-6.6-4.4-5.9,8.1-5.1,3.7-4.4,2.9-5.9.7-7.3-1.5-5.9-3.7-5.9-7.3-4.4-6.6-1.5h-7.3l-3.7.7-5.1,2.2-5.9,4.4-3.7,7.3v9.5l2.2,5.9,5.9,8.1h-2.2l-6.6,4.4-5.1,5.9-2.9,6.6v10.3l2.2,5.9,5.1,5.9,4.4,2.9,8.1,2.9h13.9l2.9-.7,8.8-4.4,5.1-4.4ZM980,69.9l4.4-2.9h5.1l4.4,2.2,2.2,3.7v6.6l-2.2,3.7-5.9,4.4-3.7.7-1.5-1.5-4.4-5.9-.7-7.3,2.2-3.7ZM993.2,124.9l-6.6,2.9h-7.3l-2.9-1.5-4.4-3.7-2.2-4.4v-6.6l2.9-5.1,6.6-4.4h1.5l15.4,15.4,1.5,2.9-4.4,4.4Z"/>
  <path class="st0" d="M810.8,135.1l8.1-3.7,8.1-5.9,5.9-7.3,3.7-8.8,1.5-12.5-1.5-11-2.9-8.1-5.1-7.3-5.1-4.4-11.7-5.9-11-2.2h-35.2v79.1h35.2l10.3-2.2ZM780.8,125.6l-1.5-.7v-54.2l.7-.7,20.5.7,2.9.7,7.3,2.9,5.9,4.4,3.7,6.6,2.2,8.8v7.3l-.7,4.4-2.2,5.9-4.4,5.9-6.6,4.4-9.5,2.9-18.3.7Z"/>
  <path class="st0" d="M490.7,103.6h10.3v1.5l6.6,11.7,11,20.5h17.6v-.7l-20.5-33.7,9.5-4.4,5.9-6.6,2.2-6.6v-8.8l-2.2-6.6-5.1-5.9-6.6-3.7-8.8-2.2h-34.4v79.1h14.6v-33.7ZM490.7,69.9h16.1l5.9,1.5,4.4,2.9,2.2,5.1-.7,5.9-2.2,2.9-4.4,2.9-8.1,1.5h-13.2v-22.7Z"/>
  <path class="st0" d="M1185.8,67.7l-4.4-9.5h-12.5l-.7.7-6.6,15.4-13.2,30-12.5,28.6-1.5,4.4h16.1l3.7-9.5,3.7-8.1h33.7l7.3,17.6h16.1v-1.5l-3.7-8.8-25.6-59.3ZM1162.4,107.3v-1.5l11.7-30,1.5.7,10.3,27.1.7,3.7h-24.2Z"/>
  <polygon class="st0" points="648.9 136.6 648.9 125.6 648.2 124.9 607.9 124.9 608.6 102.9 642.3 102.9 644.5 102.2 644.5 90.4 607.9 90.4 607.9 70.7 646 70.7 646.7 69.9 646.7 58.2 594 58.2 594 137.3 648.2 137.3 648.9 136.6"/>
  <polygon class="st0" points="892.1 138 900.9 133.7 906 127.8 908.9 120.5 908.9 108.8 907.5 104.4 903.1 99.2 897.2 94.8 883.3 89.7 874.5 86 871.6 81.7 871.6 75.8 872.3 74.3 876 70.7 881.8 68.5 887 68.5 890.6 69.2 897.2 72.9 900.1 74.3 908.2 65.5 906.7 62.6 896.5 57.5 889.2 56 881.1 56 876.7 56.8 870.1 58.9 863.5 62.6 859.1 67.7 856.2 75.8 856.2 83.1 856.9 86.8 859.1 91.2 862.8 95.6 870.1 100 886.2 105.8 892.1 109.5 894.3 113.9 893.6 120.5 891.4 123.4 885.5 126.3 878.9 127.1 870.8 124.9 865 120.5 862.1 119 859.9 121.2 854 126.3 853.3 129.3 858.4 133.7 865.7 137.3 874.5 139.5 885.5 139.5 892.1 138"/>
  <polygon class="st0" points="408.7 58.2 408.7 137.3 423.3 137.3 423.3 104.4 457.8 104.4 458.5 103.6 458.5 92.6 457.8 91.9 429.2 91.9 423.3 92.6 423.3 70.7 460 70.7 460.7 69.9 460.7 58.9 460 58.2 408.7 58.2"/>
  <polygon class="st0" points="1092 104.4 1127.2 104.4 1127.2 92.6 1126.5 91.9 1092.8 91.9 1092 70.7 1129.4 70.7 1129.4 58.2 1078.1 58.2 1078.1 137.3 1092 137.3 1092 104.4"/>
  <polygon class="st0" points="1483.2 58.2 1475.1 71.4 1465.6 87.5 1464.1 91.2 1462.6 91.2 1462.6 89.7 1456.1 78.7 1443.6 58.2 1426 58.2 1426 58.9 1434.1 70.7 1455.3 102.9 1456.1 137.3 1470 137.3 1470.7 102.9 1473.6 98.5 1494.9 66.3 1500 58.2 1483.2 58.2"/>
  <polygon class="st0" points="1395.3 124.9 1395.3 58.2 1381.3 58.2 1381.3 137.3 1429 137.3 1429.7 127.1 1429 124.9 1395.3 124.9"/>
  <path class="st0" d="M827.6,198.8l-7.3-16.1h-9.5l-.7.7-9.5,22-13.2,30-2.2,6.6h11.7l2.2-4.4,3.7-8.8h24.9l5.9,13.2h12.5l-7.3-17.6-11-25.6ZM806.4,219.3v-2.2l8.1-21.2h1.5l7.3,19.8.7,3.7h-17.6Z"/>
  <path class="st0" d="M1113.3,202.5l-8.8-19.8h-9.5l-.7.7-9.5,22-13.2,30-2.2,6.6h11.7l2.2-5.1,3.7-8.1h24.9l2.2,5.1,3.7,8.1h12.5l-3.7-8.8-13.2-30.8ZM1089.8,219.3v-.7l8.8-22.7h1.5l5.9,16.1,2.2,7.3h-18.3Z"/>
  <polygon class="st0" points="752.9 227.4 748.5 231.1 742.7 233.3 733.9 233.3 731.7 232.5 725.8 229.6 722.2 225.2 719.2 217.2 719.2 207.6 721.4 201 725.8 195.2 733.2 191.5 740.5 190.8 746.3 192.2 752.9 196.6 759.5 191.5 760.3 188.6 754.4 184.2 745.6 181.3 732.4 181.3 726.6 182.7 719.2 186.4 713.4 191.5 709 198.8 706.8 206.2 706.8 217.9 709.7 227.4 714.8 234.7 722.9 240.6 732.4 243.5 744.1 243.5 751.5 241.3 758.1 237.7 761.7 233.3 755.9 228.9 752.9 227.4"/>
  <path class="st0" d="M911.1,184.9l-7.3-2.2h-27.1v58.6l.7.7h10.3v-24.9h15.4l3.7-.7,7.3-3.7,2.9-3.7,2.2-5.9v-7.3l-2.2-5.9-5.9-5.1ZM908.2,202.5l-1.5,2.9-5.9,2.9h-13.2v-16.8h13.2l4.4,1.5,2.9,3.7v5.9Z"/>
  <rect class="st0" x="1341.8" y="58.2" width="14.6" height="79.1"/>
  <polygon class="st0" points="569.1 136.6 569.1 58.9 568.4 58.2 554.4 58.2 554.4 137.3 568.4 137.3 569.1 136.6"/>
  <polygon class="st0" points="485.6 209.1 484.9 209.8 484.9 215.7 659.9 215.7 659.9 209.8 659.2 209.1 485.6 209.1"/>
  <polygon class="st0" points="1240.7 209.1 1240 209.8 1240 215.7 1415 215.7 1415.8 215 1415.8 209.8 1409.9 209.1 1240.7 209.1"/>
  <polygon class="st0" points="996.8 182.7 996.8 191.5 1014.4 192.2 1015.1 242.1 1025.4 242.1 1026.1 192.2 1043.7 191.5 1044.4 184.2 1043.7 182.7 996.8 182.7"/>
  <polygon class="st0" points="1171.9 232.5 1171.9 182.7 1160.9 182.7 1160.9 242.1 1197.5 242.1 1197.5 233.3 1196.8 232.5 1171.9 232.5"/>
  <rect class="st0" x="953.6" y="182.7" width="11" height="59.3"/>
</svg>