<?xml version="1.0" encoding="UTF-8"?>
<svg id="Layer_1" xmlns="http://www.w3.org/2000/svg" version="1.1" viewBox="0 0 145 17">
  <!-- Generator: Adobe Illustrator 29.0.1, SVG Export Plug-In . SVG Version: 2.1.0 Build 192)  -->
  <defs>
    <style>
      .st0 {
        fill: #fff;
      }
    </style>
  </defs>
  <path class="st0" d="M0,0v16.8h2v-6.6h0l4.3,6.6h2.5l-4.7-6.7,4-5h-2.4l-3.7,5.1h0V0H0Z"/>
  <path class="st0" d="M16.9,16.8v-7.9c0-1.4-.5-2.5-2.1-2.5s-2.5,1.5-2.5,3.5v6.9h-2V0h2v6.5h0c.8-1.4,1.7-1.7,3.3-1.7s3.2,1,3.2,3.6v8.3h-2Z"/>
  <path class="st0" d="M21.7,11.1c0-3.4.4-6.3,4.6-6.3s4.6,2.8,4.6,6.3c0,5.2-2,5.9-4.6,5.9s-4.6-.7-4.6-5.9ZM28.8,10.3c0-3.2-1-3.9-2.5-3.9s-2.5.7-2.5,3.9.5,5.2,2.5,5.2,2.5-1.4,2.5-5.2Z"/>
  <path class="st0" d="M37.3,17c-2.6,0-4.2-1.1-4.2-3.8h2.2c0,.7,0,2.3,2,2.3s2.1-.6,2.1-1.8c0-2.1-6-2.1-6-5.6s.8-3.2,4.2-3.2,4,1,3.8,3.3h-2.2c0-1.2-.6-1.9-1.9-1.9s-1.9.6-1.9,1.6c0,2.1,6,2,6,5.6s-1.8,3.6-4.2,3.6"/>
  <path class="st0" d="M46,0h-2v16.8h2V0Z"/>
  <path class="st0" d="M55.4,15.1h0c-.6,1.3-1.5,1.9-3,1.9-2.6,0-3.3-1.6-3.3-3.9,0-3.6,3.6-3.7,6.3-3.6,0-1.6,0-3.3-2-3.3s-2,.9-1.9,2.1h-2.1c0-2.6,1.5-3.5,4.1-3.5s3.9,1.6,3.9,3.5v5.6c0,.9,0,1.9.2,2.8h-2.1v-1.7h0ZM51,13.3c0,1.1.6,2.2,1.9,2.2s2.7-.7,2.5-4.5c-1.9,0-4.4-.1-4.4,2.3Z"/>
  <path class="st0" d="M64.6,5h2.2l2.7,9.9h0l2.9-9.9h2.1l-3.8,11.7h-2.6l-3.6-11.7Z"/>
  <path class="st0" d="M78.2,11.5c0,3.3.9,3.9,2.4,3.9s2-1,2.1-2.2h2.1c0,2.6-1.7,3.8-4.2,3.8s-4.6-.7-4.6-5.9.4-6.3,4.6-6.3,4.3,1.8,4.3,5.7v1h-6.8,0ZM82.9,10.1c0-3.4-1-3.8-2.4-3.8s-2.3.6-2.3,3.8h4.7Z"/>
  <path class="st0" d="M94.6,16.8v-8.1c0-1.3-.5-2.3-2.1-2.3s-2.5,1.9-2.5,3.5v6.9h-2V7.5c0-.8,0-1.6-.1-2.4h2.1v1.5h0c.8-1.3,1.7-1.7,3.2-1.7,2.6,0,3.2,1.5,3.2,3.8v8.1h-2Z"/>
  <path class="st0" d="M99.9,5v-2.3l2-.9v3.1h2.6v1.4h-2.6v7.2c0,.7,0,1.7,1.8,1.7s.5,0,.9,0v1.5c-.6,0-1.3.2-1.9.2-1.9,0-2.7-.7-2.7-2.1V6.5h-2v-1.4h2Z"/>
  <path class="st0" d="M112.6,5h2v9.3c0,.8,0,1.6.1,2.4h-2.1v-1.4h0c-.6,1.1-1.8,1.6-3.1,1.6-2.1,0-3.2-1-3.2-3V5h2v8.1c0,1.4.7,2.4,2.1,2.4s2.4-.8,2.4-2.7v-7.8Z"/>
  <path class="st0" d="M119.9,6.8h0c.8-1.8,1.8-2,3.7-2v2c-.2,0-.4,0-.5,0-.2,0-.3,0-.5,0-2.2,0-2.7,1.6-2.7,3.2v6.9h-2V5h2v1.8Z"/>
  <path class="st0" d="M127.5,11.5c0,3.3.9,3.9,2.4,3.9s2-1,2.1-2.2h2.1c0,2.6-1.7,3.8-4.2,3.8s-4.6-.7-4.6-5.9.4-6.3,4.6-6.3,4.3,1.8,4.3,5.7v1h-6.8,0ZM132.2,10.1c0-3.4-1-3.8-2.4-3.8s-2.3.6-2.3,3.8h4.7Z"/>
  <path class="st0" d="M140.8,17c-2.6,0-4.2-1.1-4.2-3.8h2.2c0,.7,0,2.3,2,2.3s2.1-.6,2.1-1.8c0-2.1-6-2.1-6-5.6s.8-3.2,4.2-3.2,4,1,3.8,3.3h-2.2c0-1.2-.6-1.9-1.9-1.9s-1.9.6-1.9,1.6c0,2.1,6,2,6,5.6s-1.8,3.6-4.2,3.6"/>
</svg>