<?xml version="1.0" encoding="UTF-8"?>
<svg id="Layer_1" xmlns="http://www.w3.org/2000/svg" version="1.1" viewBox="0 0 500 500">
  <!-- Generator: Adobe Illustrator 29.2.1, SVG Export Plug-In . SVG Version: 2.1.0 Build 116)  -->
  <defs>
    <style>
      .st0 {
        fill: #f9f9f9;
      }

      .st1 {
        fill: #fefefe;
      }

      .st2 {
        fill: #fbfbfb;
      }

      .st3 {
        fill: #fcfcfc;
      }

      .st4 {
        fill: #fdfdfd;
      }
    </style>
  </defs>
  <path class="st1" d="M57.3,194.5h36.4l5.7.7,2.9.6,2.2.7,1.9,1,1.5,1,1.7,1.6,1.5,1.9,1.1,1.9.8,2.3.5,2.4v1.3c.1,0,.2,5.6.2,5.6l-.2.2h-18.8c0-.1-.5-2.8-.5-2.8l-.4-1.2-.7-1-1-.6-1.5-.5-2.8-.4h-2.4c0-.1-24.8-.1-24.8-.1l-2.8.2-1.7.4-1.9,1-1.1,1-.6,1-.6,1.7-.4,2.3-.2,2.9v4.3c-.1,0-.1,2.3-.1,2.3v4.8c.1,0,.4,2.2.4,2.2l.5,1.9.8,1.9,1.1,1.3,1.3.8,1.5.6,3.2.6,3,.2h24.9c0-.1,2.4-.5,2.4-.5l1.6-.6,1.3-1,.8-1.2.5-1.2.2-1.2.2-2.5h-25v-11.7h.1c0-.1,17.3-.1,17.3-.1h26.3c0,.1.1.2.1.2v16c-.1,0-.5,3.9-.5,3.9l-.6,3-.7,2.2-1,1.9-.8,1.3-1.5,1.6-1.2,1-1.9,1.1-1.7.7-2.5.7-2.7.5-1.8.2h-1.6c0,.1-43.6.1-43.6.1l-3.2-.4-2.4-.5-2.1-.6-1.9-.8-2.1-1.1-1.3-1-1.5-1.3-1.2-1.2-1.2-1.7-1.1-2.3-.8-2.8-.5-2.5-.4-3.7v-7.9c-.1,0-.1-11-.1-11l.4-3.8.4-2.3.6-2.5.6-1.8,1.2-2.5,1-1.5,1.3-1.6.8-.8,1.6-1.2,1.8-1.1,2.5-1.1,2.1-.6,1.9-.4,3.4-.4,5.7-.4h0Z"/>
  <path class="st1" d="M331,194.5h25.4l4.2.2,7.3.4,3,.4,2.8.6,1.8.6,2.1,1,1.8,1.2,1.7,1.5,1.1,1.3.8,1.2,1.2,2.3.7,2.1.5,1.8.4,2.3.2,2.5.2,5.4v9.9l-.4,6.1-.4,3.4-.6,3-.6,1.9-.7,1.8-1.2,1.9-1,1.2-1,1.1-1.3,1.1-1.2.8-2.3,1.2-2.1.7-1.7.5-3.4.6-3.2.4h-1.6c0,.1-4.7.2-4.7.2h-32.4c0-.1-4.2-.4-4.2-.4l-3.6-.4-3-.6-2.5-.8-1.9-1-1.5-.8-1.3-1.1-1.7-1.7-1-1.3-1.1-1.9-1-2.5-.7-3-.5-4v-2.3c-.1,0-.1-6.5-.1-6.5l.4-9.4.2-6.1.6-3.4.8-2.5,1-2.1,1.2-1.8,1.7-1.8,1.6-1.2,1.8-1.1,2.3-1,2.1-.6,2.5-.5,3.8-.4,8.3-.5h0ZM330.8,209.6l-2.5.4-1.6.5-1.5.7-1.3,1.1-.7,1-.6,1.2-.5,1.5-.4,3.3v2.3c-.1,0-.2,5.3-.2,5.3l.2,4.4.4,2.9.5,1.8.7,1.5.7.8,1.3.8,1.7.6,2.3.5,3.3.4h24.7l2.5-.2,1.8-.4,1.5-.5,1.3-.7,1.2-1.1.8-1.3.6-1.6.5-2.7v-14.5l-.4-2.1-.6-1.8-.8-1.3-1-1-1.9-1-1.9-.5-2.3-.2h-27.8,0Z"/>
  <path class="st1" d="M237,194.5h25.5l4.2.2,7.2.4,3,.4,2.4.5,2.5.8,1.9,1,1.8,1.2,1.6,1.5,1.3,1.6,1,1.6,1,1.9.7,2.3.5,2.2.4,3,.2,4.5v12.7l-.2,4.3-.4,3.8-.5,2.7-.6,2.3-.7,1.8-1.2,2.1-1.2,1.6-1.7,1.7-1.9,1.3-1.9,1-1.8.7-2.8.7-2.7.5-4.8.5h-4.7c0,.1-27.2.1-27.2.1h-5.1c0-.1-4.2-.4-4.2-.4l-3.6-.4-3.2-.6-2.2-.7-2.5-1.2-1.5-1-1.2-1-1.3-1.3-1.3-1.8-1-1.8-.8-2.3-.6-2.2-.6-4.3v-1.8c-.1,0-.1-7.9-.1-7.9l.5-14.6.5-3,.6-2.3.7-1.9,1-1.8,1.2-1.7,1.5-1.5,1.3-1.1,1.8-1.1,1.8-.8,1.8-.6,2.8-.6,2.7-.4,10-.6h0ZM236.8,209.6l-2.1.2-1.9.5-1.6.8-1.2,1-.8,1-.7,1.5-.5,1.8-.2,1.7v1.9c-.1,0-.2,5.1-.2,5.1v2.8l.2,3.8.5,3.2.7,1.9.7,1,1,.8,1.6.7,1.7.5,3.3.5h1.3c0,.1,24.6.1,24.6.1l2.7-.2,1.9-.4,1.9-.7,1.1-.7,1.2-1.2,1-1.9.5-1.9.2-2.2v-12.7l-.2-2.3-.6-2.1-.8-1.6-1-1.1-1.5-.8-1.5-.5-1.8-.4h-1.7c0-.1-27.7-.1-27.7-.1h0Z"/>
  <path class="st1" d="M180.3,195h4.3l2.5.2,2.4.5,1.9.7,1.7.8,1.7,1.2,1.7,1.7,1.2,1.8.7,1.6.6,1.8.6,2.9.2,2.1v6.8l-.5,4-.6,2.4-1,1.9-1,1.3-1,1.1-1.7,1.2-1.9,1-2.1.7-3.2.8,3.3.4,2.1.5,1.8.7,1.6,1.1,1.1,1.1,1.1,1.7.6,1.5.4,1.7v1.3c.1,0,.1,12.8.1,12.8h-.1c0,.1-18.7.1-18.7.1v-10.1c-.1,0-.6-1.8-.6-1.8l-.7-1.2-1.1-.8-1.6-.6-2.5-.4h-31.2c0-.1,0,14.9,0,14.9h-.1c0,.1-18.7.1-18.7.1h-.1v-59.4h.1c0-.1,53.1-.2,53.1-.2h3.4c0-.1,0-.1,0-.1ZM143.5,209.6h-.7c0,.1-.1.7-.1.7v14.5h28.6l4.9-.2,1.5-.2,1.5-.6,1-.7.8-1.3.6-1.9v-.6c.1,0,.1-3,.1-3l-.4-1.9-.5-1.5-.7-1.1-.8-.7-1-.5-1.8-.5h-1.1c0-.1-13.2-.2-13.2-.2h-18.6Z"/>
  <path class="st1" d="M394.6,195.2h72.1v13.8h-.1c0,.1-26.7.2-26.7.2v45.6h-.1c0,.1-18.8.1-18.8.1h-.1v-45.7h-26.3v-14h0Z"/>
  <path class="st1" d="M116.6,279.8h11.5l3.9.2,2.4.4,1.1.5,1.1.7.6.5.8,1.3.4,1.2v.8c.1,0,.1,2.2.1,2.2h-.1c0,.1-7.3.1-7.3.1l-.2-.2-.4-1-.4-.6-.8-.2-3.4-.2h-7l-1.6.2-.7.6-.2.6v.8c.1,0,.7.7.7.7l1,.4h1.3c0,.1,4,.2,4,.2h3.3c0,.1,6.5.4,6.5.4l1.8.2,1.3.5,1.1.7.8,1,.6,1.2.4,1.7v4l-.4,1.6-.6,1.2-1.1,1.2-1.1.6-1.6.5-1.7.2-4.2.2h-8.7l-6.1-.4-1.7-.4-1.5-.6-1.2-1.1-.5-.7-.5-1.6v-.7c-.1,0-.1-2.8-.1-2.8h7.7l.4,1.6.5.5.6.2h.7c0,.1,5,.4,5,.4h6.5c0-.1,1.2-.7,1.2-.7l.5-1v-.8c-.1,0-.5-.6-.5-.6l-.8-.4-1.7-.2h-5.4c0-.1-2.1-.1-2.1-.1l-5.5-.4-2.1-.2-1.6-.4-1.3-.7-1-1-.6-1.2-.4-1.3v-.8c-.1,0-.1-2.1-.1-2.1l.2-2.1.5-1.6.8-1.2,1.1-1,1.3-.6,1.9-.4,2.2-.2h0Z"/>
  <path class="st1" d="M63.6,279.8h12l4.4.2,2.3.4,1.2.5,1.2.8,1,1,.7,1.2.6,1.9.2,2.7v8.4c-.1,0-.5,2.1-.5,2.1l-.6,1.6-.8,1.2-.8.8-1.5.8-1.6.5-2.4.4h-1.6c0,.1-13.3.1-13.3.1l-3.7-.2-1.9-.4-1.5-.6-1.1-.7-1-1-.7-1.2-.6-1.8-.2-1.6v-1.7c-.1,0,0-4.7,0-4.7v-3.2c.1,0,.4-1.9.4-1.9l.5-1.5.8-1.5,1.1-1.1,1.9-1,1.5-.4,4-.4h0ZM64.6,286.1l-1.2.2-1,.5-.7.8-.4.8v.8c-.1,0-.2,3.9-.2,3.9v2.1c.1,0,.5,1.5.5,1.5l.5.7,1,.5,1.5.4h12.1l1.6-.5.8-.7.5-1.2v-.8c.1,0,.1-6.1.1-6.1l-.4-1.2-.5-.7-.6-.5-1-.4h-1.5c0-.1-11.1-.1-11.1-.1h0Z"/>
  <path class="st4" d="M161.3,280.1h22.6l2.1.2,1.3.5,1.5,1.1,1,1.3.6,1.5.2,2.1v4.9l-.4,1.9-.7,1.8-.8,1.1-1.1.8-1.3.5-1.7.4h-1.7c0,.1-13.8.1-13.8.1v5.9h-.1c0,.1-7.7.1-7.7.1v-1.3c-.1,0-.1-19.3-.1-19.3v-3.6c.1,0,.2-.1.2-.1h0ZM168.9,286.1v6.2h11.1l1.5-.2,1-.8.4-.8v-.6c.1,0,0-1.7,0-1.7l-.5-1.1-.6-.5-1.3-.4h-11.5Z"/>
  <path class="st1" d="M-.2,280.1h7.4l.2.2v8.5h16.3c0,.1,0-8.7,0-8.7h.2c0-.1,7.2-.1,7.2-.1h.2v24.2h-.1c0,.1-7.4.1-7.4.1v-.7c-.1,0-.1-8.7-.1-8.7H7.4v9.3h-.2c0,.1-7.3.1-7.3.1v-24.3Z"/>
  <path class="st4" d="M300.6,280.1h9.4l.5.6,1.3,2.3.7,1.3,1.8,3.3,1.6,2.8,1.7,3,1.5,2.5,1.7,3,1.6,2.8,1.2,2.1v.4h-8.5l-.6-1-1.6-3.2h-15.5c0-.1-.1.5-.1.5l-1.5,2.8-.6.8h-8.2v-.2c-.1,0,1.6-3,1.6-3l1.5-2.7,1.6-2.8,1.9-3.6,1.7-3,1.9-3.6,1.8-3.3,1.1-1.8.4-.2h.1ZM305.1,286l-1,1.9-1.5,2.7-1.6,2.8-.6,1.1v.2h9.5l-1.1-2.3-1.5-2.7-1.7-3.3-.4-.5h-.3Z"/>
  <path class="st4" d="M464.8,280.1h9.1l.5.2,1.1,1.3,1.3,1.6,1,1.2,1.3,1.6,1,1.2,1.7,2.1.5.4.2-.5,1.1-1.3,1.3-1.6,1.1-1.3,1.3-1.6,1.3-1.7,1.3-1.5h.4c0-.1,9.4-.1,9.4-.1v.6c-.1,0-.7.6-.7.6l-1.6,1.7-.8,1-1.1,1.2-.8,1-1.2,1.3-1.1,1.3-.8.8-1.1,1.3-.8.8-1.1,1.3-1.8,1.9-.5.6v8.4c-.1,0-.2.1-.2.1h-7.7v-8.4c-.1,0-1-1.1-1-1.1l-1.5-1.6-1.1-1.3-1.3-1.5-1.1-1.3-1.6-1.7-1.1-1.3-1.3-1.5-.8-1-1.1-1.3-1.7-1.8v-.4c.1,0,0,0,0,0Z"/>
  <path class="st2" d="M240.2,280.1h28.9v5.7h-.2c0,.1-10.5.2-10.5.2v18.1l-.2.2h-7.7v-18.5h-10.6v-5.7h.4c0-.1,0-.1,0-.1Z"/>
  <path class="st0" d="M417.5,280.1h29.1v5.7h-.2c0,.1-10.6.1-10.6.1v18.3h-.1c0,.1-7.6.1-7.6.1h-.1v-18.5h-10.5v-.2c-.1,0-.1-5.4-.1-5.4l.2-.2h0Z"/>
  <path class="st1" d="M343.9,280.1h7.3l.2.2v18c-.1,0,16.5,0,16.5,0v6h-.1c0,.1-24,.1-24,.1h-.1v-24l.2-.2h0Z"/>
  <path class="st3" d="M211.4,280.1h7.6l.2.2v23.9h-.1c0,.1-7.8.1-7.8.1v-.4c-.1,0-.1-22.8-.1-22.8v-1c.1,0,.2-.1.2-.1h0Z"/>
  <path class="st4" d="M389,280.1h7l.8.2v23.8l-.2.2h-7.7v-.7c-.1,0-.1-23.3-.1-23.3l.2-.2Z"/>
</svg>