<?xml version="1.0" encoding="UTF-8"?>
<svg id="Layer_1" xmlns="http://www.w3.org/2000/svg" xmlns:sketch="http://www.bohemiancoding.com/sketch/ns" version="1.1" viewBox="0 0 133 14">
  <!-- Generator: Adobe Illustrator 29.0.1, SVG Export Plug-In . SVG Version: 2.1.0 Build 192)  -->
  <defs>
    <style>
      .st0 {
        fill: #444;
      }

      .st1 {
        fill-rule: evenodd;
      }

      .st1, .st2 {
        fill: #fff;
      }

      .st3 {
        fill: #8f8f8f;
      }

      .st4 {
        fill: #cacaca;
      }
    </style>
  </defs>
  <g id="Page-1" sketch:type="MSPage">
    <g id="logo-ff-2015-white" sketch:type="MSLayerGroup">
      <g id="Layer_11" data-name="Layer_1" sketch:type="MSShapeGroup">
        <g id="Group">
          <g id="Rectangle-path">
            <rect class="st2" y=".4" width="13.2" height="3.3"/>
            <rect class="st4" y="3.7" width="13.2" height="3.3"/>
            <rect class="st3" y="7" width="13.2" height="3.3"/>
            <rect class="st0" y="10.3" width="13.2" height="3.3"/>
          </g>
          <g id="Shape">
            <path class="st1" d="M25,4.3v2.2h3v1h-3v3.2h-1.2V3.3h5v1h-3.8Z"/>
            <path class="st1" d="M35.5,3.3c.7,0,1,0,1.3.3.4.4.7.9.7,3.4s-.3,3-.7,3.4c-.3.2-.5.3-1.3.3h-2.2c-.7,0-1,0-1.3-.3-.4-.4-.7-.9-.7-3.4s.3-3,.7-3.4c.3-.2.5-.3,1.3-.3h2.2ZM32.8,9.6c0,0,.2,0,.6,0h2c.4,0,.5,0,.6,0s.3-.4.3-2.6-.2-2.5-.3-2.6-.2-.1-.6-.1h-2c-.4,0-.5,0-.6.1-.1.1-.3.4-.3,2.6.1,2.1.2,2.5.3,2.6h0Z"/>
            <path class="st1" d="M46.7,7.6c0,1.9-.2,2.2-.6,2.6-.4.3-.9.4-1.9.4h-1.1c-1,0-1.5,0-1.9-.4-.4-.4-.6-.8-.6-2.6V3.3h1.2v4.6c0,1.3.1,1.5.3,1.6.1,0,.3.2,1.2.2h.7c.8,0,1,0,1.2-.2q.2-.2.2-1.6V3.3h1.2v4.3h.1Z"/>
            <path class="st1" d="M56.3,10.7h-1.3c-.3,0-.4,0-.6-.3l-3-5.5h-.2v5.8h-1.2V3.3h1.4c.3,0,.4,0,.6.3l2.9,5.2h.2V3.2h1.2v7.5h0Z"/>
            <path class="st1" d="M63.1,3.3c.9,0,1.5,0,1.9.5.5.4.8,1.4.8,3.2s-.2,2.7-.8,3.2c-.4.4-.9.5-1.9.5h-3.4V3.3h3.4ZM64,4.5c-.2-.2-.5-.2-.9-.2h-2.1v5.4h2.1c.5,0,.7,0,.9-.2.3-.3.4-.8.4-2.4,0-1.8-.1-2.3-.4-2.6h0Z"/>
            <path class="st1" d="M74.1,10.7h-5.3V3.3h5.3v1h-4.1v2h3.4v1h-3.4v2.3h4.1v1.1h0Z"/>
            <path class="st1" d="M81.4,7.8c-.1-.1-.4-.1-.8-.1h-2.2v3.1h-1.2V3.4h4.2c.5,0,.9,0,1.1.3.3.3.5.7.5,1.8s-.4,1.7-1.3,1.8h0c.8,0,1.1.3,1.2,1.4,0,1,0,1.7,0,2.1h-1.2c0-.5,0-1.2,0-2-.1-.7-.2-.9-.3-1h0ZM81,6.7c.3,0,.4-.1.5-.1,0,0,.2-.3.2-1.1s-.1-1-.2-1.1-.2-.1-.5-.1h-2.6v2.4h2.6Z"/>
            <path class="st1" d="M91.4,10.4c-.2.2-.6.3-1.2.3h-2.6c-.6,0-1,0-1.2-.3-.3-.3-.4-.7-.4-2h1.2c0,.9.1,1.1.1,1.2,0,0,.2,0,.5,0h2.2c.3,0,.4,0,.5,0s0-.4,0-1,0-.7,0-.8c0-.1-.2-.1-.5-.1l-2.4-.2c-.6,0-.9-.2-1.1-.4-.3-.3-.4-.6-.4-1.6s.1-1.4.5-1.8c.2-.2.6-.3,1.2-.3h2.4c.6,0,1,0,1.2.3.3.3.4.6.4,2h-1.2c0-.9,0-1.1,0-1.1,0-.1-.2-.1-.5-.1h-2c-.3,0-.4,0-.5.1s0,.4,0,1,0,.7,0,.8c0,0,.2,0,.5,0l2.4.2c.5,0,.9,0,1.1.4.3.3.4.6.4,1.7s0,1.2-.5,1.6h0Z"/>
            <path class="st1" d="M100.3,4.3v2.2h3v1h-3v3.2h-1.2V3.3h5v1h-3.8Z"/>
            <path class="st1" d="M113,7.6c0,1.9-.2,2.2-.6,2.6-.4.3-.9.4-1.9.4h-1.1c-1,0-1.5,0-1.9-.4-.4-.4-.6-.8-.6-2.6V3.3h1.2v4.6c0,1.3,0,1.5.3,1.6,0,0,.3.2,1.2.2h.7c.8,0,1,0,1.2-.2s.2-.2.2-1.6V3.3h1.2v4.3h0Z"/>
            <path class="st1" d="M122.6,10.7h-1.3c-.3,0-.4,0-.6-.3l-3-5.5h-.2v5.8h-1.2V3.3h1.4c.3,0,.4,0,.6.3l2.9,5.2h.2V3.2h1.2v7.5h0Z"/>
            <path class="st1" d="M129.4,3.3c.9,0,1.5,0,1.9.5.5.4.8,1.4.8,3.2s-.2,2.7-.8,3.2c-.4.4-.9.5-1.9.5h-3.4V3.3h3.4ZM130.3,4.5c-.2-.2-.5-.2-.9-.2h-2.1v5.4h2.1c.5,0,.7,0,.9-.2.3-.3.4-.8.4-2.4s0-2.3-.4-2.6h0Z"/>
          </g>
        </g>
      </g>
    </g>
  </g>
</svg>