<?xml version="1.0" encoding="UTF-8"?>
<svg id="Layer_1" xmlns="http://www.w3.org/2000/svg" version="1.1" viewBox="0 0 500 500">
  <!-- Generator: Adobe Illustrator 29.2.1, SVG Export Plug-In . SVG Version: 2.1.0 Build 116)  -->
  <defs>
    <style>
      .st0 {
        fill: #fff;
      }

      .st1 {
        fill: #016fd0;
      }
    </style>
  </defs>
  <path class="st1" d="M37.8,37.3h424.1v229.4l-21,32.9,21,29.2v133.5H37.8v-215.8l12.8-15.6-12.8-14.6V37.3Z"/>
  <path class="st0" d="M120.1,333.4v-66.7h70.4l7.3,10,8.2-10h256v62.1s-6.4,4.6-14.6,4.6h-141.7l-8.2-10v10h-28.3v-18.3s-3.7,2.7-11.9,2.7h-9.2v15.6h-42.1l-7.3-10-7.3,10h-71.3,0Z"/>
  <path class="st0" d="M37.8,216.4l15.6-37.5h27.5l9.2,21v-21h33.8l5.5,14.6,5.5-14.6h153.5v7.3s8.2-7.3,21-7.3h50.2l9.2,21v-21h28.3l8.2,11.9v-11.9h29.2v66.7h-29.2l-7.3-11.9v11.9h-42.1l-4.6-10h-11l-4.6,10h-28.3c-11,0-18.3-7.3-18.3-7.3v7.3h-42.9l-8.2-10v10H77.2l-4.6-10h-11l-4.6,10h-19.2v-29.2Z"/>
  <path class="st1" d="M58.9,187.1l-21.1,50.2h13.7l3.7-10h22.9l3.7,10h14.6l-21-50.2h-16.5,0ZM67,199l7.3,17.3h-13.7l7.3-17.3h-.9Z"/>
  <path class="st1" d="M98.2,237.4v-50.2h20.1l11.9,32,11-32h20.1v50.2h-12.8v-36.6l-12.8,36.6h-11l-13.7-36.6v36.6h-12.8Z"/>
  <path class="st1" d="M169.5,237.4v-50.2h41.1v11h-28.3v8.2h27.5v10h-27.5v9.2h28.3v11h-41.1v.9h0Z"/>
  <path class="st1" d="M217,187.1v50.2h12.8v-17.3h5.5l14.6,17.3h15.6l-16.5-18.3c6.4,0,13.7-6.4,13.7-15.6s-8.2-16.5-17.3-16.5h-28.4ZM229.8,199h14.6c3.7,0,5.5,2.7,5.5,5.5s-3.7,5.5-5.5,5.5h-14.6v-11h0Z"/>
  <path class="st1" d="M280.1,237.4h-12.8v-50.2h12.8v50.2h0Z"/>
  <path class="st1" d="M310.3,237.4h-2.7c-13.7,0-21-10-21-24.7s8.2-25.6,24.7-25.6h13.7v11.9h-14.6c-6.4,0-11.9,5.5-11.9,13.7s5.5,13.7,13.7,13.7h3.7l-5.5,11h0Z"/>
  <path class="st1" d="M337.6,187.1l-21,50.2h13.7l3.7-10h22.9l3.7,10h14.6l-21-50.2h-16.5,0ZM344.9,199l7.3,17.3h-13.7l7.3-17.3h-.9Z"/>
  <path class="st1" d="M377,237.4v-50.2h15.6l20.1,31.1v-31.1h12.8v50.2h-15.6l-21-32v32h-12.8.9,0Z"/>
  <path class="st1" d="M128.3,324.3v-50.2h41.1v11h-28.3v8.2h27.5v10h-27.5v9.2h28.3v11h-41.1v.9h0Z"/>
  <path class="st1" d="M327.6,324.3v-50.2h41.1v11h-28.3v8.2h27.5v10h-27.5v9.2h28.3v11h-41.1v.9h0Z"/>
  <path class="st1" d="M170.4,324.3l20.1-24.7-20.1-25.6h15.6l11.9,15.6,11.9-15.6h15.6l-20.1,24.7,20.1,24.7h-15.6l-11.9-15.6-11.9,15.6h-15.6v.9Z"/>
  <path class="st1" d="M227,274.9v50.2h12.8v-15.6h12.8c11,0,19.2-5.5,19.2-17.3s-6.4-16.5-18.3-16.5h-27.5l.9-.9h0ZM239.9,285.8h13.7c3.7,0,6.4,1.9,6.4,5.5s-2.7,5.5-6.4,5.5h-13.7v-11.9.9h0Z"/>
  <path class="st1" d="M277.4,274.9v50.2h12.8v-17.3h5.5l14.6,17.3h15.6l-16.5-18.3c6.4,0,13.7-6.4,13.7-15.6s-8.2-16.5-17.3-16.5h-28.4ZM290.1,285.8h14.6c3.7,0,5.5,2.7,5.5,5.5s-3.7,5.5-5.5,5.5h-14.6v-11h0Z"/>
  <path class="st1" d="M374.2,324.3v-11h24.7c3.7,0,5.5-1.9,5.5-4.6s-1.9-4.6-5.5-4.6h-11c-10,0-15.6-6.4-15.6-14.6s4.6-15.6,19.2-15.6h24.7l-5.5,11h-21c-3.7,0-5.5,1.9-5.5,4.6s1.9,4.6,4.6,4.6h11.9c11,0,15.6,6.4,15.6,14.6s-5.5,15.6-16.5,15.6h-26.5,1Z"/>
  <path class="st1" d="M419.9,324.3v-11h24.7c3.7,0,5.5-1.9,5.5-4.6s-1.9-4.6-5.5-4.6h-11c-10,0-15.6-6.4-15.6-14.6s4.6-15.6,19.2-15.6h24.7l-5.5,11h-21c-3.7,0-5.5,1.9-5.5,4.6s1.9,4.6,4.6,4.6h11.9c11,0,15.6,6.4,15.6,14.6s-5.5,15.6-16.5,15.6h-26.5,1Z"/>
</svg>