<?xml version="1.0" encoding="UTF-8"?>
<svg id="Layer_1" xmlns="http://www.w3.org/2000/svg" version="1.1" viewBox="0 0 500 500">
  <!-- Generator: Adobe Illustrator 29.2.1, SVG Export Plug-In . SVG Version: 2.1.0 Build 116)  -->
  <defs>
    <style>
      .st0 {
        fill: #fff;
        fill-rule: evenodd;
      }
    </style>
  </defs>
  <polygon class="st0" points="499.5 226.4 498.2 230.5 496.5 226.4 495.8 226.4 495.8 231.5 496.5 231.5 496.5 227.4 497.8 231.5 498.2 231.5 499.5 227.4 499.5 231.5 500.2 231.5 500.2 226.4 499.5 226.4"/>
  <polygon class="st0" points="491 227.1 492.7 227.1 492.7 231.5 493.4 231.5 493.4 227.1 494.7 227.1 494.7 226.4 491 226.4 491 227.1"/>
  <path class="st0" d="M486.9,266.2c0-6.8,1-25.2,1-25.2,0-9.2-6.1-12.6-6.1-12.6,2.7,6.1,1.7,15.3,1,24.5s0,19.1,0,25.9-6.5,6.8-10.9,6.8-10.9-3.7-10.9-3.7c-11.6,4.8-23.8,0-23.8,0,6.5,5.4,10.9,5.8,16.3,5.8s9.9-2.7,9.9-2.7v.7c1.4-.7,4.1,1,5.8,2,7.8,3.7,15.7.7,18-1,2-2,0-4.4,0-5.8s-.7-7.5-.7-14.6h.3Z"/>
  <path class="st0" d="M442.7,240.7h0c0-.3,1.4,0,2.7-1.4,1.4-1.4,8.5-5.4,11.2-5.4s1.4-2.7-3.1-2.7-12.9,6.8-14.6,7.8c-1.7,1.4-1,1.7,0,1.7h3.7Z"/>
  <path class="st0" d="M461.4,275c1,1.4,3.1,2.4,5.4,3.7,2.4,1.4,5.8.7,8.2.7s3.4-1,3.4-5.4c-.3-4.4,0-19.4,1-34,1-14.6-10.2-17.7-13.6-18s-8.5-2.7-15-2.7-16,7.8-20.4,11.9-1.7,6.8-1.7,6.8h0c2.4,3.7,5.1,1.4,6.8,0,12.3-11.2,19.1-11.6,22.5-10.6,3.4,1,5.8,6.1,5.8,11.6s-6.1,4.1-6.1,4.1c-13.6-.7-25.5,3.4-31.3,10.9-5.8,7.1,2.4,16.3,6.5,19.7s9.5,4.8,16.3,4.8,12.3-3.1,12.3-3.1v-.3ZM441.7,267.6s-5.8-1.4-5.8-4.8,4.1-5.4,10.6-7.1c6.5-2,17.4-4.8,16.7,1.7-.7,6.8-2.4,9.2-6.8,9.9s-9.9,1-14.3,0h0l-.3.3Z"/>
  <path class="st0" d="M419.2,243.4c0-5.8-4.4-11.6-6.5-14-2-2.4-1,.7-1,.7,5.1,8.5,2.7,19.7,2.7,24.5-.3,5.1-.3,15-.3,17.7s1.7,4.4,0,8.2-9.9,3.1-12.9,3.1-8.2-1-8.2-1c0,0,3.1,3.1,4.4,4.1,1.4,1,2,1,3.7,1h9.2v-.7c13.3,0,8.8-14.6,8.8-18.7,0,0,0-24.8,0-24.8Z"/>
  <path class="st0" d="M384.5,233.2c-2.4-1.7-4.4,1.4-4.4,1.4-4.8,9.2-6.1,25.5-6.1,28.6s0,5.1,1.4,14.3c1.4,9.2-6.8,8.5-11.2,8.5s-9.2-.7-9.2-.7v.7c2.7,3.4,7.8,5.8,17.4,4.1,9.5-1.4,8.2-10.2,8.2-11.2-.3-1-1.4-4.4-1.4-15.3s4.1-24.5,4.8-25.9c.7-1.4,3.1-2.7.7-4.4Z"/>
  <path class="st0" d="M405.9,279.5c3.1,0,4.8,0,4.1-5.1-.7-4.8.7-10.2.7-30.3s-17.4-20.8-23.5-20.8-10.2,1.4-12.9,2.7c-2.7,1.4-3.4,1.7-4.4-1s-3.4-2.7-4.4-2.7h-9.5c-4.8.7-2.7,4.8-2.7,4.8,1.4,11.2,1,41.2,0,47s2,5.8,2,5.8h0c0,.7,7.1.7,11.6.7s2.7-4.8,2.7-4.8c-.7-9.2-.3-18,.7-28.6,1-10.6,5.1-19.1,12.9-19.1s9.2,12.6,9.2,12.6c1.7,16.3,0,30.6-.7,33.7s0,3.7,2.4,4.4h11.6l.3.7Z"/>
  <path class="st0" d="M340.2,228.8c5.4,12.3,4.4,22.1,4.4,22.1,0,29.6-19.7,34.4-28.6,34.4s-21.4-3.1-21.4-3.1c7.8,6.8,23.8,7.1,23.8,7.1h0c16-.3,29.9-15,29.9-39.8s-3.1-16.7-6.1-20.8c-3.1-4.1-2.4,0-2.4,0h.3Z"/>
  <path class="st0" d="M337.2,234.2c-3.7-11.9-12.9-14.6-30.3-15.7s-20.8,11.6-22.8,28.9c-2,17,2.7,22.8,7.8,27.2,5.1,4.4,19.7,5.4,19.7,5.4,32.3,2.4,29.3-34,25.5-45.9ZM300.1,254.6c-1-22.1,6.8-29.3,11.6-29.3s11.9,5.4,12.6,22.5-4.4,27.9-12.6,27.9c0,0-10.6,1-11.6-21.1Z"/>
  <path class="st0" d="M281.4,216.5c-2.7,3.7-45.6,56.2-47.6,58.5-2,2.7-.7,2.7,0,2.7h4.4v-.7c7.1-8.5,47-56.8,49.3-59.9,2.7-3.1,2.4-4.4,1-7.5-1.4-3.1-9.9-11.2-9.9-11.2,0,0,3.1,6.5,4.8,9.9,1.4,3.4.7,4.8-2,8.5v-.3Z"/>
  <path class="st0" d="M275.9,285.3h0v-.3h0v.3Z"/>
  <path class="st0" d="M275.9,285.3c1.7,12.3-9.5,12.3-21.1,12.6-11.6.7-35.4,4.4-35.4,4.4,6.8,3.7,11.6,3.4,15,2.7s26.9-3.4,34-3.4,11.2-5.8,11.2-9.9-3.4-6.5-3.7-6.5Z"/>
  <path class="st0" d="M246,215.1h0c0,.3,0,0,0,0h0Z"/>
  <path class="st0" d="M230.6,220.9c1.7,0,11.6-1.4,11.6-1.4l3.4-4.1c-2.4,0-18.4,2-22.1,2s-3.1.7-1,1.7c1.7,1,6.5,1.7,8.2,1.7Z"/>
  <path class="st0" d="M262.3,292.7c4.4-.3,8.2-1,8.2-6.5.3-5.4-5.4-4.4-5.4-4.4,0,0-25.2.7-34,1-8.8.7-6.1-3.7-2.4-7.8,3.7-4.4,44.9-55.1,48-59.6,3.4-4.4,1-7.5,1-7.5,0,0-1.7-4.8-4.1-8.5-2.4-4.1-3.7-4.1-8.2-3.1-4.4.7-41.9,5.8-48.3,5.8-6.5.3-6.5,3.1-4.4,6.8,2,3.7,6.1,3.1,8.5,3.1s26.2-2.4,31-2.4,1.7,2,1.7,2h-.3c-2.7,4.4-43.6,60.2-49.7,68.4s-.3,12.3,3.4,15.3c4.1,3.1,6.8,3.1,12.9,1.7,6.1-1.4,38.1-4.4,42.2-4.4h0Z"/>
  <path class="st0" d="M169.4,283.6h.3s-.3,0-.3-.3h0v.3Z"/>
  <path class="st0" d="M195.9,231.1c-.7-2.4-3.4-5.8-3.4-5.8-4.1,24.5-1.7,45.6-1.4,50.7s-1.4,6.8-6.5,7.5c-4.4,1-12.6,0-15,0,6.1,5.8,17,4.8,22.5,3.4,5.4-1.4,3.7-8.2,3.7-8.2-1.4-16.3-.3-40.5,0-42.5,0-2,.7-3.1,0-5.1Z"/>
  <path class="st0" d="M172.4,279.1h10.9c5.4,0,3.4-5.4,3.4-5.4-1.4-13.6,0-40.2,1-44.9.7-4.8,0-6.1-3.1-7.1-3.4-.7-11.9-.7-16,0-4.1,1-2.7,4.8-2.7,4.8h.3c3.7,24.8,2.7,39.1,2,46.3s2.4,6.5,4.1,6.5Z"/>
  <path class="st0" d="M184.7,209.7c-6.1,4.8-14.3.3-14.3.3h0c4.8,6.1,14.3,7.8,20.1,1,5.8-6.8-1-12.9-1-12.9.7,1.7,1.4,6.5-4.8,11.6Z"/>
  <path class="st0" d="M175.9,207.7c7.1,0,9.5-3.7,9.5-7.8s-2.7-7.5-8.2-7.5-10.2,3.7-10.2,7.8c-.3,4.1,5.1,7.5,8.8,7.5Z"/>
  <path class="st0" d="M144.5,233.5c-6.5.3-7.8,3.1-10.6,14-2.7,10.6-2,19.7-2,29.3s-11.6,7.5-13.6,7.5c-2-.3-6.8-1-3.4,1s9.2,2.7,9.2,2.7h0c13.6.7,12.6-5.1,12.6-14.6s1-19.1,3.1-27.9c2-8.8,8.5-7.8,10.2-7.8s6.8.7,9.5-3.1-2.4-9.5-2.4-9.5c1.7,8.5-6.1,8.5-12.3,8.5h-.3Z"/>
  <path class="st0" d="M127.2,274.4c0-25.5,3.1-33.7,5.1-39.8s10.6-6.1,13.6-6.1,4.8,0,6.1-1.7c1-1.7-2-4.8-2-4.8-6.5-3.7-13.6-1.4-17.7,1.7s-5.8.7-5.8-1.7-1.4-3.1-3.4-3.1h-11.9c-5.4.7-3.4,4.4-3.4,4.4h0c3.1,10.6,3.1,44.2,3.1,49.3-.3,5.1,1,5.1,2.7,5.8s5.1.7,9.9.7,3.7-5.1,3.7-5.1v.3Z"/>
  <path class="st0" d="M98.3,264.2c5.1-11.9-1.7-12.6-1.7-12.6,1.4,6.1-3.4,11.9-3.4,11.9,0,0,1.7,5.1,4.4,11.2,2.4,5.8-1.4,7.8-5.1,8.2s-12.6.3-12.6.3c4.4,5.1,11.2,4.1,11.9,4.1h0c14,.3,10.9-10.6,10.2-12.6-.7-1.7-3.7-10.6-3.7-10.6Z"/>
  <path class="st0" d="M63.5,271c-1,.3-23.8,1.4-25.2,1.4s-2.4-.3-3.4,2-4.8,18-6.5,25.2c-1.7,7.1-7.1,8.2-9.9,8.5-2.7,0-15-.7-15-.7l9.2,4.8h8.2c9.2,0,11.6-8.8,12.3-11.9.7-3.1,4.4-18.4,5.4-21.1s3.1-2,3.1-2c0,0,21.4-1.7,24.2-1.7s1.7-1,1.4-2.7c-.7-1.7-2.4-1.7-3.7-1.7Z"/>
  <path class="st0" d="M87.7,242.4c1,0,3.1,1,2-2-1-2.7-11.6-36.8-11.6-36.8-1-4.4-3.1-7.1-3.1-7.1l-5.1-4.8c1.4,6.5,13.3,45.3,14.3,48.3,1,2.7,2.4,2.4,3.4,2.4Z"/>
  <path class="st0" d="M92.5,274.7l-4.8-13.3c1.4-.7,2.7-3.7,3.7-9.2,1-5.4-2.4-4.1-5.8-3.7-3.4.7-3.4-2.4-3.4-2.4-2-6.1-15.3-46.3-16.3-50.4s-2-5.1-4.8-5.8-14.6-1.7-17.7-1.7-3.4,2-3.4,2c0,0-1,3.4-1,4.8s-1.4,2.4-1.4,2.4c-1.4.7-2,2-1.4,3.4.7,1,0,3.4,0,3.4-4.8,22.1-29.9,85.8-29.9,85.8-1.4,3.1-3.4,8.2-5.1,10.2s-1.4,3.4,1,3.4,8.8,1,15.7,0c6.8-1,6.1-6.8,6.5-9.2.7-2.7,5.4-19.7,6.5-23.8,1-4.1,4.1-3.4,4.1-3.4,0,0,25.2-1.7,30.6-1.7,5.1-.7,6.1,3.4,6.1,3.4l-.7.7s1.4,3.4,3.1,6.5,4.1,3.1,12.6,3.1,5.8-4.4,5.8-4.4ZM62.2,250.5h.3s-21.1,2.7-22.8,2.7-3.1,0-2-3.4c1-3.4,10.6-29.9,11.2-32.3s4.1-4.1,5.1,0,8.2,27.6,9.2,29.6c.7,2,.7,3.4-1,3.4Z"/>
  <path class="st0" d="M50.6,226.4h0c-.7,1.4-6.5,17.4-7.5,20.1-1.4,2.7,0,2.7,0,2.7l4.1-1,5.8-15s-1-2-1-5.8c-.3-3.7-1.7-1-1.7-1h.3Z"/>
  <path class="st0" d="M311.6,268.2h0c-.7-2-2.7-7.8-2.4-19.7.7-12.3,4.4-14.6,6.1-15.3s1.4-1.4,0-3.1c-1.7-1.4-4.1-.7-4.1-.7-6.5,3.7-6.5,19.4-6.5,25.9s1.7,14.6,4.8,15.7c3.1,1,2-2.7,2-2.7Z"/>
  <path class="st0" d="M457,261.4c1,0,1.4,0,1.7-1.7,0-1.7-1.7-1.7-1.7-1.7-5.8,0-12.3,2.7-14,3.7-1.7,1,0,1.7,0,1.7,1.7.7,3.1.7,4.1.7s1.7,0,2.4-1c1,0,6.1-1.7,7.5-1.7h0Z"/>
</svg>