<?xml version="1.0" encoding="UTF-8"?>
<svg id="a" xmlns="http://www.w3.org/2000/svg" version="1.1" viewBox="0 0 500 500">
  <!-- Generator: Adobe Illustrator 29.2.1, SVG Export Plug-In . SVG Version: 2.1.0 Build 116)  -->
  <defs>
    <style>
      .st0 {
        fill: #518ac9;
      }

      .st1 {
        fill: #002c57;
      }

      .st2 {
        fill: #fff;
      }

      .st3 {
        fill: #7e8698;
      }
    </style>
  </defs>
  <path class="st2" d="M223.3,242.6v-52.9h9.7v22.4h24.1v-22.4h9.7v53.2h-9.7v-22.6h-24.1v22.6h-9.7v-.2Z"/>
  <path class="st2" d="M272.7,224.2c0-11.2,6.7-19.4,19.1-19.4s19.1,8.2,19.1,19.4-6.7,19.4-19.1,19.4-19.1-8.2-19.1-19.4ZM282.1,224.2c0,7,3.2,12.2,9.7,12.2s9.7-5.2,9.7-12.2-3.2-12.2-9.7-12.2-9.7,5.2-9.7,12.2Z"/>
  <path class="st2" d="M349,242.6h-8.7v-5.2h-.2c-2.2,3.7-6.5,6-11.4,6-7.7,0-12.9-5.2-12.9-12.7v-25.1h9.4v23.6c0,4,2.2,7,6.7,7s8-3.5,8-8.2v-22.4h9.4v37h-.2Z"/>
  <path class="st2" d="M356.2,242.6v-52.9h9.4v53.2h-9.4v-.2Z"/>
  <path class="st2" d="M372.6,189.6h9.7v8.4h-9.7v-8.4ZM372.8,242.6v-37h9.4v37h-9.4Z"/>
  <path class="st2" d="M389.5,189.6h9.4v21.1h0c2.2-3.7,6.2-5.7,11.2-5.7,7.7,0,12.7,5,12.7,12.7v25.3h-9.4v-23.6c0-3.7-2.2-7-6.7-7s-8,3.5-8,8.2v22.4h-9.4v-53.4h.2Z"/>
  <path class="st2" d="M450.8,242.6v-5.2h-.2c-2.2,3.7-5.7,6-10.9,6s-11.9-4.7-11.9-11.2,2.2-8,7-9.7c3.7-1.2,9.7-1.7,15.4-2v-2.7c0-3.5-2.2-6-6.7-6s-6.5,2-7.5,5l-7.2-3.5c2.5-5.7,7.5-8.7,15.2-8.7s15.7,5,15.7,13.2v24.8h-8.7ZM450.3,228.4v-2c-2.2,0-5.2.2-7.7.7-3,.5-5.5,1.5-5.5,4.5s2,4.7,5.5,4.7,7.7-3.5,7.7-8h0Z"/>
  <path class="st2" d="M466.7,205.5h8.7v5.2h.2c2.2-3.7,6.2-6,11.4-6,7.7,0,12.9,5.2,12.9,12.7v25.1h-9.4v-23.6c0-3.7-2.2-7-6.7-7s-8,3.5-8,8.2v22.4h-9.4v-37h.2Z"/>
  <path class="st2" d="M223.3,257h9.7v45h25.6v8h-35.5v-53.2h0l.2.2Z"/>
  <path class="st2" d="M260.3,291.5c0-11.2,6.7-19.4,19.1-19.4s19.1,8.2,19.1,19.4-6.7,19.4-19.1,19.4-19.1-8.2-19.1-19.4ZM269.7,291.5c0,7,3.2,12.2,9.7,12.2s9.7-5.2,9.7-12.2-3.2-12.2-9.7-12.2-9.7,5.2-9.7,12.2Z"/>
  <path class="st2" d="M316.7,294.2h-3.7v15.9h-9.4v-53.2h9.4v30.3h3.7l8.9-14.4h10.7l-11.9,17.9,12.4,19.4h-10.9l-9.4-15.9h.2Z"/>
  <path class="st2" d="M371.1,304.4c-3.2,4-8,6.5-15.2,6.5-12.7,0-19.1-7.7-19.1-19.4s6.5-19.4,18.1-19.4,17.4,8,17.4,18.1,0,3-.2,4.2h-25.8c.7,5.7,3.7,9.2,9.9,9.2s6.7-1.5,8.9-4.5l6,5.2h0ZM363.1,288.3c-.5-5.2-2.7-8.9-8.2-8.9s-8,3.7-8.7,8.9h16.9Z"/>
  <path class="st2" d="M410.3,272.9l-15.2,39.5c-3,7.7-6.5,10.9-13.2,10.9s-4-.2-5.2-.7v-6.7c1,0,2,.5,3.2.5,3.2,0,5.2-1.2,6.5-5.5l-14.4-38h9.9l9.4,27.3h0l9.4-27.3h9.4Z"/>
  <g>
    <path class="st3" d="M77.2,226.7c-3.5,3.5-1.2,9.9,4.7,9.9,4.7-.2,6.2-4.2,6-6.7-.5-5-7.2-7-10.7-3.2"/>
    <path class="st3" d="M97.8,226.9c-3.2,3.5-1.2,9.4,4.7,9.9,4.7,0,6.7-3.7,6.5-6.2-.2-5.5-7.5-7.7-11.2-3.5"/>
    <path class="st3" d="M119.4,227.4c-3.7,3.2-2.5,9.7,3.5,10.4,4.7,0,6.7-3.2,6.7-6,0-5-6.5-7.7-10.2-4.7"/>
    <path class="st3" d="M56.8,208.5c-3.5,3.7-1.7,9.9,4,9.7,4.5-.7,6.2-4.5,6-7-.5-4.7-6.5-6.2-9.9-2.5"/>
    <path class="st3" d="M81.4,216.7c5-.2,6.7-4.2,6.2-6.7-.5-5-7.5-6.7-11.2-2.7-3.2,3.5-1,9.2,5,9.4"/>
    <path class="st3" d="M97.8,207c-3.2,3.5-1,9.2,5,9.7,5,0,6.7-3.7,6.5-6.2-.7-5.2-7.7-7.2-11.4-3.5"/>
    <path class="st3" d="M119.2,208c-3,3.2-.7,9.2,5,9.9,5,0,6.5-3.2,6.2-6-.7-5-7.7-7.7-11.2-4.2"/>
    <path class="st3" d="M139.5,210.3c-2.5,3-.5,9.2,4.5,10.2,4.2.5,5.5-3,5.2-5.5-.7-5.2-6.7-8.2-9.7-4.7"/>
    <path class="st3" d="M28.2,195.6c-4.2,3-5.7,9.2-2.2,9.4h1.2c3.2-1,5.2-4.7,5.7-7,.5-3.2-1.7-4.5-4.7-2.5"/>
    <path class="st3" d="M42.1,192.9c-4,3-4.5,8.2-.7,8.7h1.5c4-1,6-4.2,6.2-6.5.2-3.7-3.5-5-7-2.2"/>
    <path class="st3" d="M58.8,191.1c-3.7,3.2-2.5,8.2,2.2,8.2s.5,0,.5,0c4.5-.5,6.5-4,6.5-6.2,0-4-5.5-5.2-9.2-2"/>
    <path class="st3" d="M76.9,190.4c-2.5,2.7-1.2,7.5,4.7,7.7,4.7-.2,6.5-3.5,6.2-5.7-.5-4.5-7.5-5.7-10.9-2"/>
    <path class="st3" d="M102.5,197.8c4.7,0,6.2-3.2,6-5.5-1-4.5-8.2-6.2-11.4-2.5-2.2,2.7-.5,7.5,5.5,8"/>
    <path class="st3" d="M123.4,199.1c4.7.2,6-2.7,5.2-5-1.2-4.5-8.7-6.7-11.2-3.2-2,2.5,0,7.5,6,8.2"/>
    <path class="st3" d="M146.7,196.8c-1.5-4.7-8-7.2-9.9-4-1.5,2.7,1.2,7.7,6,8.7,4,.5,4.7-2.5,4-4.7"/>
    <path class="st3" d="M153.2,195.8c-1.2,2.5,1.5,8,5.5,9.2,3,.7,3.2-2.2,2.5-4.7-1.7-4.5-6.5-7.5-8-4.7"/>
    <path class="st3" d="M171.1,205c-1.5-4.2-4.7-7.5-5.7-5.5s2,8.4,4.7,10.2c2,.7,1.7-2.2,1-4.5"/>
    <path class="st3" d="M27.5,183.7c-2.5.5-8.9,8.4-7.2,9.2h1c2.2-1.2,5-4.5,6-6.2s1.2-3,.2-2.7"/>
    <path class="st3" d="M37.2,180.2c-4.2,1.5-8.4,7.7-6,8.4h1.2c3.2-1,5.7-4,6.5-5.7,1-2.2,0-3.2-2-2.5"/>
    <path class="st3" d="M48.6,178c-4.2,2.2-6.2,6.5-3,7.5h1.7c3.7-.7,6-3.5,6.5-5.5.7-2.7-1.7-3.7-5.2-2"/>
    <path class="st3" d="M62,177c-3.2,2.5-2.7,6,1,6.2h1c4-.5,6.2-3.2,6.2-5,.2-3.5-4.7-4.2-8.2-1.2"/>
    <path class="st3" d="M78.4,176.2c-2,2.2-1,5.7,4.2,5.7,4.2-.2,6-3,5.7-4.7-.5-3.7-7-4.5-9.9-1.2"/>
    <path class="st3" d="M101.8,182.2c4.5,0,5.7-2.5,5-4.2-1.2-3.7-8-5-10.4-1.7-1.5,2.2,0,5.7,5.5,6"/>
    <path class="st3" d="M124.9,179.2c-2-3.7-8.9-5.5-10.4-2.5-1,2,1.2,5.7,6.5,6.5,4.2.2,5-2.2,4.2-4"/>
    <path class="st3" d="M141,181.7c-2.2-3.7-8.2-6-9.2-3.2-.7,2.2,2.5,6.2,6.7,7.2,3.7.5,3.7-2,2.5-3.7"/>
    <path class="st3" d="M152.9,188.6c2.7.5,2-1.7,1-3.2,0,0,0-.2-.2-.5-2.5-3.5-7-6-7.7-4.2-.5,1.7,3,6.7,6.7,8"/>
    <path class="st3" d="M162.9,188.9c-2.2-3.2-5.7-6-6-5-.2,1.2,3.7,7.2,6.7,8.7,1.2.5,1-.5.7-1.2,0-.5-.5-1.2-1.5-2.5"/>
    <path class="st3" d="M41.4,175.2c2.7-.7,5.5-3.2,6.7-4.5s1.2-2,.5-2c-2.7,0-9.7,5.7-8.4,6.5h1.2"/>
    <path class="st3" d="M52.3,172.5h1.5c3.2-.7,5.7-3,6.5-4.2,1-1.5.2-2.2-1.7-2-4,1-8.4,5-6.2,6"/>
    <path class="st3" d="M68,165.8c-3,1.7-4,4-1.5,4.7h1.7c3.5-.5,5.5-2.5,6-3.7.7-2.2-2.7-2.7-6.2-1"/>
    <path class="st3" d="M80.6,165.8c-1.5,1.5-.7,4,3.2,4s5.2-2.2,5-3.5c0-2.7-6-3-8.4-.5"/>
    <path class="st3" d="M100.3,169.5c3.2,0,4.7-1.7,4-3.2-1.2-3-7.7-3.5-8.9-.7-.7,1.5,1,3.7,5,4"/>
    <path class="st3" d="M119.2,167.8c-2-2.5-8.4-4.2-8.9-1.5-.2,1.5,2,4,6.2,4.5,3.2,0,4-1.2,2.7-3"/>
    <path class="st3" d="M131.6,172.5c3,.5,2.2-1.2,1.5-2.2l-.5-.5c-2.5-2.5-8-4.5-8.2-2.5,0,1.5,3.2,4.5,7.2,5.5"/>
    <path class="st3" d="M144,175.2c1.7.5,1.2-.5,1-1,0-.2-.7-1-1.7-1.7-3-2.5-7-4.5-7-3.5s4.5,5.2,8,6.2"/>
    <path class="st3" d="M62.8,163.3c2.5-.5,5-2,6.2-2.5.5-.2,1.2-1,.7-1-1.2-.2-8.9,2.7-8,3.5h1.2"/>
    <path class="st3" d="M73.7,161.8c2.5-.2,4.7-1.5,5.2-2.2.7-.7,0-1.2-2-1-3.2.5-6.2,2.5-5,3h1.5"/>
    <path class="st3" d="M83.4,159.1c-1,.7-.5,2,2.5,2s4-1.2,4-2c0-1.5-4.7-1.5-6.5,0"/>
    <path class="st3" d="M101,159.1c-1.5-1.7-6.7-1.7-6.7,0s1.2,1.7,4,2c2.7,0,3.2-1,2.7-1.7"/>
    <path class="st3" d="M111,161.8c2.5,0,2.2-.7,1.7-1.2,0,0-.5-.2-.7-.5-2.2-1.5-7-2.2-6.7-1,0,.7,2.5,2.5,5.7,2.7"/>
    <path class="st3" d="M122.4,163.3q1.5,0,1.2-.5s-.5-.5-1.7-1.2c-2.5-1.2-6.7-2.5-6.7-1.7s4,2.7,7.2,3.5"/>
  </g>
  <g>
    <path class="st0" d="M111.9,256.2c4.7,2,9.7-2.7,8.2-7.7-1.2-4.7-8-6-10.9-.7-2,4.2.5,7.5,2.7,8.4"/>
    <path class="st0" d="M101.3,274.4c4.7,2.5,10.4-2.7,8.7-8-1.5-4.5-7.5-5.7-10.9-.7-2.2,4.2,0,7.7,2.2,8.7"/>
    <path class="st0" d="M89.3,291.5c4.5,2.5,9.9-1.7,9.2-6.7s-7.2-7-10.9-2.2c-2.5,4-.5,7.5,1.7,8.7"/>
    <path class="st0" d="M139,247.3c4.2,2,8.7-2.5,7.2-7.5s-7.5-6.5-10.2-1.2c-1.7,4.2.7,7.7,3,8.7"/>
    <path class="st0" d="M129.3,265.9c4.7,2,9.7-3.2,8-8.2-1.5-4.5-7.5-5.5-10.4-.5-2,4.5,0,7.7,2.5,8.7"/>
    <path class="st0" d="M115.9,275.9c-2.5,4.2,0,7.7,2.2,8.7,4.7,2,10.2-3.2,8.7-8.2-1.2-4.5-7.5-5.5-10.9-.5"/>
    <path class="st0" d="M106.2,301.9c4.7,2,10.4-3,9.2-7.7-1.2-4.2-7.5-5.2-11.2-.7-2.5,4.2-.5,7.5,2,8.2"/>
    <path class="st0" d="M92.1,309.6c-2.5,3.2,0,6.2,2.2,7.2,4.7,2,10.4-1.7,8.9-6-1.2-3.7-7.5-5-11.2-1.2"/>
    <path class="st0" d="M167.1,224.4c2.5,2.2,4.7.7,4.5-2.7-.5-5-5-9.4-7-6.7-.2.2-.5.7-.5,1.2-.7,3.5,1.5,7,3,8.4"/>
    <path class="st0" d="M161.4,240.1c3,2,6-.5,5.5-5-.5-5-4.7-8-7.2-5-.2.5-.5,1-.7,1.2-1.2,4,.7,7.5,2.5,8.7"/>
    <path class="st0" d="M153.9,257.2c3.5,2,7.2-2.2,6.5-7-1-5-6-6.2-8.2-2.2,0,0,0,.5-.2.5-1.7,4.2,0,7.5,2,8.7"/>
    <path class="st0" d="M142.8,266.7c-2,4.2,0,7.5,1.7,8.2,4.2,1.7,8.7-3.7,7-8.4-1.2-3.5-6-4.7-8.9,0"/>
    <path class="st0" d="M134.1,292.7c4.5,1.5,9.4-4,8-8.4-1.2-3.2-6.2-4.2-9.4.7-2.2,4.2-.5,7.2,1.7,7.7"/>
    <path class="st0" d="M122.6,309.4c4.5,1.2,10.2-4.2,8.4-8.2-1.2-3-6.7-3.5-10.2,1-2.5,4-.5,6.5,1.7,7"/>
    <path class="st0" d="M111.2,323.8c5,1,10.2-3.2,8.4-6.7-1.5-2.7-7.2-2.7-10.4,1-2.5,3.2,0,5.2,2.2,5.7"/>
    <path class="st0" d="M109,329.8c-1.5-2.2-7.7-2.7-10.7,0-2.2,2.2.2,4,2.7,4.5,4.7.7,9.7-2,8-4.5"/>
    <path class="st0" d="M88.6,338c-1.7,1.5,1,2.7,3.5,3,4.5.7,8.7-.5,7.7-2-1.2-1.7-8.2-2.7-11.2-1"/>
    <path class="st0" d="M182.3,226.9c1-2.5-3-11.9-4.2-10.9,0,0,0,.5-.2.7,0,2.7,1.5,6.5,2.5,8.2,1,1.7,2,2.5,2.2,1.7"/>
    <path class="st0" d="M180.5,237.1c.7-4.5-2.2-11.2-4.2-9.2-.2.2-.5.7-.5,1.2-.7,3.2.7,7,1.7,8.4,1.5,2,2.7,2,3.2-.2"/>
    <path class="st0" d="M172.3,251.5c2,2,4.2.2,4.2-3.5s-2.7-8.7-4.7-6.5c-.5.5-.7,1-.7,1.5-1.2,3.5,0,7,1.5,8.4"/>
    <path class="st0" d="M165.6,266.9c2.7,2,6-2,5.2-6.5-.5-4.2-3.7-5.5-6-2.5,0,0-.5.7-.5,1-1.5,3.7-.2,7,1.2,8"/>
    <path class="st0" d="M163.1,274.6c-1-3-4.5-3.7-7,.7-2,4-.5,6.7,1,7.5,3.5,1.5,7.5-3.7,6-8"/>
    <path class="st0" d="M146.5,292c-2.2,3.7-.5,6.2,1.2,6.5,4,1,8.4-4.5,6.7-8.2-1-2.5-5-2.7-8,1.7"/>
    <path class="st0" d="M137.5,313.6c4.2.2,9.2-5,7.5-8-1.2-2-5.7-1.7-8.7,2.2-2.5,3.7-.5,5.5,1.5,5.5"/>
    <path class="st0" d="M134.8,320.1c-1.5-1.7-6.7-1-9.4,2.2-2.2,3,0,4.2,2,4,4.5,0,9.2-4.2,7.5-6.5"/>
    <path class="st0" d="M115.2,333.2c-2,2,.5,2.7,2.2,2.7h.5c4.2-.5,8.7-3,7.5-4.5-1.2-1.5-7.2-.7-10.4,2"/>
    <path class="st0" d="M106.5,340.7c-1.2.7,0,1.2.7,1.2h3c4-.5,8-2,7.2-2.7-.7-.7-8,0-10.9,1.5"/>
    <path class="st0" d="M183.3,242.3c-.2,0-.5.7-.5,1-.5,2.7,0,6.5.5,8.2s1,2.2,1.5,1.2c1.2-2.5,0-11.2-1.5-10.4"/>
    <path class="st0" d="M179.5,254c-.5.2-.7,1-.7,1.2-1,3.2-.5,6.5.2,7.7.7,1.7,2,1.2,2.5-.7,1.2-4,0-9.7-2-8.4"/>
    <path class="st0" d="M174.1,267.4c-.5.5-.7,1-1,1.2-1.2,3.2-.7,6,0,7,1.7,1.7,3.7-1,4-4.7,0-3.5-1.5-5.5-3.2-3.7"/>
    <path class="st0" d="M166.1,282.8c-1.7,3.2-.7,5.5.5,6.2,2.5,1.2,5.7-3.7,4.7-7-.5-2-3-2.7-5,1"/>
    <path class="st0" d="M158.9,301.9c3.2.2,7-5,5.2-7.5-1-1.2-3.7-1-6,2.5-1.7,3-1,5,.7,5"/>
    <path class="st0" d="M156.2,307.4c-1.2-1-4.5,0-7,3.2-1.7,2.7-.7,4.2,1.2,3.7,3.2-.5,7.7-5.2,5.7-7"/>
    <path class="st0" d="M139.8,322.8c-1.7,2.2,0,2.7,1.2,2.5h.7c3.5-1,8-4.7,6.2-5.7-1.2-.7-5.5.5-8.2,3.5"/>
    <path class="st0" d="M131.3,332.2c-1.2,1.2,0,1.2.5,1.2s1.2,0,2.5-.5c3.5-1.2,7.2-3.7,6.5-4.5-.7-.7-6.7,1.2-9.4,3.7"/>
    <path class="st0" d="M183,266.7c-.2,0-.5.7-.7,1-.7,2.5-1,5.5-.7,6.7,0,.5,0,1.7.5,1.2,1-1,2.2-9.2,1-8.7"/>
    <path class="st0" d="M179,276.6c-.5.2-.7,1-1,1.2-1,2.5-1,4.7-.5,5.7.5,1,1.2.5,1.7-1.2,1.2-3.2,1-6.7,0-5.7"/>
    <path class="st0" d="M172.8,288.8c-1.2,2.5-1,4.2-.2,4.5,1.5.7,3.7-3.2,3.2-5.5-.2-1.2-1.5-1.2-3,1"/>
    <path class="st0" d="M166.4,299.7c-1.5,2.5-.7,3.5,0,3.2,2.2-.5,5-4.7,3.5-5.7-.5-.5-2.2,0-3.7,2.5"/>
    <path class="st0" d="M159.7,310.1c-1.2,2-.5,2.2,0,2.2,0,0,.5,0,.7-.2,2.2-1.2,5.5-5,4.2-5.5-.7-.2-3.2,1-5.2,3.5"/>
    <path class="st0" d="M152.4,319.6c-1,1-.5,1.2,0,1.2,0,0,.7,0,2-1,2.2-1.5,5.5-4.7,5-4.7s-4.5,2-6.7,4.5"/>
  </g>
  <g>
    <path class="st1" d="M62,237.8c4.5-.7,5.7-4.5,5.2-7-.7-5-7.2-6.5-10.2-2.7s-.5,9.9,5,9.7"/>
    <path class="st1" d="M80.1,275.1c4.7,1.2,9.2-4,6.2-9.2-2.7-3.7-6.7-3.5-8.7-2-4,3-2.5,9.7,2.5,10.9"/>
    <path class="st1" d="M70,257.2c4.7,1,8.7-3.7,6.2-8.9-2.5-4-6.5-4-8.7-2.5-4.5,3-2.7,10.2,2.5,11.4"/>
    <path class="st1" d="M80.9,293.7c-2.7-3.7-7-3.2-8.9-1.7-4,2.7-2.2,8.7,2.7,9.9s9.4-3.2,6.2-8.2"/>
    <path class="st1" d="M63.7,285.3c4.7,1,8.7-3.7,5.7-8.9-2.7-4-7-3.7-8.9-2.2-4,3-2,9.9,3.2,11.2"/>
    <path class="st1" d="M52.8,266.9c4.5,1,8.4-3.7,6-9.2-2.5-4.2-6.5-4-8.7-2.5-4,3.2-2.5,10.4,2.7,11.7"/>
    <path class="st1" d="M42.9,248c4.2,1,8.4-4,6.2-9.4-2.2-4.2-6.2-4-8.2-2.5-4,3.2-2.7,10.7,2,11.7"/>
    <path class="st1" d="M34.7,229.1c4,.7,8.2-4,6.7-8.9-1.7-3.7-5.2-3.2-7.5-1.7-4.2,3.2-3.7,9.9.7,10.7"/>
    <path class="st1" d="M86.4,329.3c-2.5-2.2-6.7-2.2-8.7-1.5-3,1-3,3.7,0,5.2,4.5,2.2,10.7.5,9.4-2.7,0-.5-.5-.7-.7-1"/>
    <path class="st1" d="M68.2,322.3c4.7,2,9.4,0,8-3.7,0-.5-.5-1-.7-1.2-2.7-3-6.7-3-8.7-2.2-3.2,1.5-2.5,5.5,1.5,7.2"/>
    <path class="st1" d="M58.5,308.9c4.7,1.7,8.4-2,6-6,0,0,0-.2-.2-.5-2.7-3.5-6.7-3.7-8.4-2.5-3.5,2-1.7,7.5,2.7,8.9"/>
    <path class="st1" d="M53.1,285.5c-2.7-4-6.2-4-8.2-2.5-3.7,2.7-1.2,9.4,3.7,10.4,3.7.7,7.2-2.7,4.2-8"/>
    <path class="st1" d="M42.6,267.4c-2.5-4.2-6-4-7.7-2.5-3.5,3-1.2,10.2,3.5,11.2,3.5.5,6.7-3.2,4.2-8.7"/>
    <path class="st1" d="M29,258.2c3.2.5,6.5-4,4.2-9.4-2.2-4.2-5.5-3.7-7-2-3.2,3.5-1.5,10.9,2.7,11.4"/>
    <path class="st1" d="M21.3,240.3c3,0,6-5,4.5-9.7-1.5-3.7-4.5-2.7-6-1-3.2,3.7-2.2,10.4,1.5,10.7"/>
    <path class="st1" d="M15.5,215.5c-3,3.7-3.2,9.4,0,9.2,2.7,0,6.2-5.5,5.2-9.4-1-3-3.5-1.7-5.2,0"/>
    <path class="st1" d="M12.3,212.2c2,0,6.5-6,6.5-9.2-.2-2.2-2.7-.5-4.2,1.5-2.7,3.5-4,8-2,7.7"/>
    <path class="st1" d="M78.7,340.7c-2.2-1.5-6.2-2-8.4-2s-3,.5-2.5,1c1.7,2,11.7,3.5,11.4,1.7,0-.2-.2-.5-.5-.7"/>
    <path class="st1" d="M70.2,334c0-.5-.5-.7-.7-1-2.5-2.2-6.5-2.7-8.2-2.7-2.5,0-3,1.5-1.2,3,3.5,3,10.9,3.5,10.2,1"/>
    <path class="st1" d="M60.3,323.3c0-.5-.5-1-.7-1.5-2.5-2.7-6.2-3.5-8-3-2.7.7-2.5,3.5.7,5.5,4,2.5,8.7,2,8-1"/>
    <path class="st1" d="M44.6,313.1c3.7,1.5,6.5-.5,5-4,0-.2-.2-.7-.5-1-2.5-3.2-6-3.7-7.5-3-3.2,1.5-1.2,6,3,8"/>
    <path class="st1" d="M31.9,290c-3,2.2-.5,8.2,4,9.2,3,.5,5.5-2,3-6.5-2.5-3.7-5.5-3.7-7-2.7"/>
    <path class="st1" d="M29.2,276.1c-2.2-3.7-5-3.7-6.2-2.2-2.7,3-.2,9.4,3.7,9.9,2.7.2,4.7-3,2.5-7.7"/>
    <path class="st1" d="M15.3,257.5c-2.5,3.5-.2,10.4,3.2,10.4s4.2-4,2.5-8.7c-2-3.7-4.5-3.2-5.5-1.5"/>
    <path class="st1" d="M11.1,252c2.2-.2,4.2-5.2,2.7-9.4-1.5-3.5-3.5-2.2-4.5,0-2,4-1,10.2,1.7,9.7"/>
    <path class="st1" d="M6.1,228.9v.5c-1.7,4-1.7,8.9,0,8.7s4.5-6,3.5-9.9c-.7-2.7-2.5-1-3.5.7"/>
    <path class="st1" d="M3.4,227.4c1.2-.2,4.2-7,4.2-10.2s-1-.5-1.5,0c-.2.5-.7,1.2-1.5,2.5-1.5,3.7-2.2,8-1.2,7.7"/>
    <path class="st1" d="M46.1,328.3c-1.7-.5-2.5,0-2,.5,1.7,2.2,9.7,5.7,9.9,4,0-.2-.2-.7-.5-1-2-2-5.5-3.2-7.2-3.7"/>
    <path class="st1" d="M45.6,323.8c0-.5-.5-1-.7-1.5-2.2-2.5-5.2-3.5-6.7-3.5s-2.2,1-.7,2.5c2.7,3,8.4,4.7,8.2,2.5"/>
    <path class="st1" d="M36.9,312.4c0-.5-.5-1-.7-1.5-2.2-2.7-5-3.7-6.2-3.2-2.2.5-1,3.7,2.2,5.7,3,2,5.5,1.2,4.7-1"/>
    <path class="st1" d="M25.7,302.7c2.2.5,3.7-1.2,1.7-4.7-2-3-4.5-3.5-5.5-2.7-2.2,1.5.2,6.7,3.7,7.5"/>
    <path class="st1" d="M14.6,281.8c-1.7,2.7,1,8.4,3.7,8.2,1.5,0,2.7-2.7,1-6.2-1.7-3-3.7-3.2-4.7-2"/>
    <path class="st1" d="M11.1,276.8c1.5-.5,2.5-3.7.7-7.7-1.5-3-3.2-2.7-3.7-1-1.2,3.2.7,9.4,3,8.4"/>
    <path class="st1" d="M6.1,255c-1.2-2.7-2.2-1.2-2.7,0,0,0,0,.5-.2.7-.7,3.5,0,9.2,2,8.2,1.2-.5,2.2-5.2,1-8.9"/>
    <path class="st1" d="M2.4,242.8c-.5-1.7-1-1-1.2-.2,0,.5-.5,1.2-.7,2.5-.7,3.7-.2,8.2.5,8,1-.5,2.2-6.5,1.5-9.9"/>
    <path class="st1" d="M27.2,315.4c-.5,0-1.5-.7-1.2,0,.5,1.2,6.7,6.5,7.2,5.2,0-.2-.2-.7-.5-1-1.7-2-4.2-3.5-5.2-4"/>
    <path class="st1" d="M26.5,312.1c0-.5-.5-1-.7-1.5-1.5-2-3.5-3.2-4.5-3.5-1,0-1,.7,0,2.2,2.2,2.5,5.2,4.2,5,2.7"/>
    <path class="st1" d="M15.3,298c-1.2.7,1,4.7,3.2,5.5,1.2.5,2-.5.5-3-1.5-2.2-3.2-3-3.7-2.5"/>
    <path class="st1" d="M9.8,288.3c-.7,2,1.7,6.7,3.2,6,.7-.2,1-2-.2-4.5-1.5-2.5-2.5-2.2-3-1.5"/>
    <path class="st1" d="M5.1,277.3v.7c0,2.7,1.5,7.2,2.5,6.5.7-.5.7-3.5-.5-6.2-1-2.2-1.7-1.5-2-1"/>
    <path class="st1" d="M1.6,266.7v2.2c0,2.7,1.2,7.2,1.7,6.7.5-.5.5-5-.5-8-.5-1.2-.7-1.2-1-.7"/>
  </g>
</svg>