<?xml version="1.0" encoding="UTF-8"?>
<svg id="Layer_1" xmlns="http://www.w3.org/2000/svg" version="1.1" viewBox="0 0 300 100">
  <!-- Generator: Adobe Illustrator 29.0.1, SVG Export Plug-In . SVG Version: 2.1.0 Build 192)  -->
  <defs>
    <style>
      .st0, .st1 {
        fill: #fff;
      }

      .st1 {
        isolation: isolate;
        opacity: .4;
      }
    </style>
  </defs>
  <g id="Logo">
    <g id="Group">
      <path id="Vector" class="st0" d="M253.4,54.3h-14.1c.2,3.3,2.5,4.9,4.9,4.9s3.1-.6,4.1-2.3h5.1c-1,2.9-3.9,5.9-9,5.9s-9.8-4.5-9.8-10,3.9-10,9.6-10,9.6,4.5,9.4,11.3c0,0-.2.2-.2.2ZM243.9,46.5c-1.8,0-4.3,1.2-4.7,4.3h9c0-3.3-2.5-4.3-4.5-4.3h.2Z"/>
      <path id="Vector_2" class="st0" d="M226.5,62.5v-11.1c0-2,0-4.5-3.1-4.5s-3.9,2.7-3.9,5.7v10h-4.9v-11.1c0-2,0-4.5-3.1-4.5s-3.9,2.7-3.9,5.7v10h-4.9v-19.3h4.9v2.5c1-1.8,3.1-2.9,5.3-2.9s4.7,1.8,5.5,3.1c1.4-2,3.5-3.1,6.4-3.1,4.7,0,6.6,3.1,6.6,7.6v12.1h-4.9v-.4.2Z"/>
      <path id="Vector_3" class="st0" d="M194.2,55.1v-1.4c-5.5.6-7.8,1.2-7.8,3.3s1,2.5,3.3,2.5,4.3-1.6,4.3-4.5l.2.2h0ZM194.6,60c-1.4,2-3.5,2.9-6.4,2.9s-7-2-7-5.5,5.1-5.9,12.7-6.8v-.4c0-2.9-1.6-3.9-3.7-3.9s-3.5,1-3.5,3.1h-4.5c.4-3.7,3.5-6.6,8.4-6.6s8.2,2,8.2,8.4,0,3.1,0,4.9c0,3.1,0,4.7.6,6.4h-4.5c0-.6-.2-1.4-.4-2.5h0Z"/>
      <path id="Vector_4" class="st0" d="M180.2,43.4v4.7h-2c-2.5,0-4.1.8-4.1,4.5v10h-4.9v-19.3h4.9v3.3c1-2.5,2.9-3.3,5.1-3.3s.8,0,1,0h0Z"/>
      <path id="Vector_5" class="st0" d="M158.1,43.2v-1c0-4.9,2.3-5.5,7.2-5.5h1.6v3.7h-1c-2.5,0-2.9.2-2.9,2v1h3.9v3.5h-3.9v15.8h-4.9v-15.8h-2.7v-3.5h2.7v-.2h0Z"/>
      <path id="Vector_6" class="st0" d="M144.4,46.7c-2.7,0-4.7,2.3-4.7,6.1s1.8,6.1,4.7,6.1,4.7-2,4.7-6.1-1.8-6.1-4.7-6.1ZM144.4,62.9c-4.9,0-9.6-3.3-9.6-10s4.7-10,9.6-10,9.6,3.3,9.6,10-4.7,10-9.6,10Z"/>
      <path id="Vector_7" class="st0" d="M127.4,54.1h4.9c-.6,5.3-5.1,9-11.3,9s-12.1-5.3-12.1-13.5,4.7-13.3,12.3-13.3,10.2,3.5,11.1,8.8h-4.9c-1-3.7-3.5-4.7-6.1-4.7s-7,3.3-7,9.2,3.1,9.4,6.8,9.4,5.5-1.4,6.4-4.9h-.1Z"/>
    </g>
    <g id="Group_2">
      <path id="Rounded_rectangle" class="st1" d="M50.1,39.6l17-11.3c2.3-1.6,4.3-.6,4.3,2.3v15c0,2.9-1.8,6.4-4.3,8l-17,11.3c-2.3,1.6-4.3.6-4.3-2.3v-15c0-2.9,1.8-6.4,4.3-8Z"/>
      <path id="Rounded_rectangle_x5F_2" class="st0" d="M67.9,46.5l17-11.3c2.3-1.6,4.3-.6,4.3,2.3v15c0,2.9-1.8,6.4-4.3,8l-17,11.3c-2.3,1.6-4.3.6-4.3-2.3v-15c0-2.9,1.8-6.4,4.3-8Z"/>
    </g>
  </g>
</svg>