<?xml version="1.0" encoding="UTF-8"?>
<svg id="Layer_1" xmlns="http://www.w3.org/2000/svg" version="1.1" viewBox="0 0 500 500">
  <!-- Generator: Adobe Illustrator 29.2.1, SVG Export Plug-In . SVG Version: 2.1.0 Build 116)  -->
  <defs>
    <style>
      .st0 {
        fill: #bc1f2f;
      }
    </style>
  </defs>
  <path class="st0" d="M120.7,157.5c-2.2,0-4.5,0-6.7.2-15.8,1.1-31.1,6.2-44.4,14.9-13.2,8.7-24.1,20.7-31.3,34.7-7.3,14.2-10.7,29.9-10.2,45.7.5,15.9,5.1,31.3,13.4,44.8,8.3,13.6,19.9,24.8,33.6,32.5,13.9,7.7,29.4,11.8,45.3,11.8s31.4-4.1,45.3-11.9,25.4-19,33.6-32.6h78.3l16.3,40h34.4l16.3-40h77.9l16.6,40h32.7l-73.8-177.6h-29.7l-57.2,139.8-57.2-139.9h-29.7l-47.1,112.2c-15.4,36.9-57.5,48.7-87.8,31.3-7.1-4.1-13.3-9.5-18.3-16s-8.6-13.9-10.7-21.8c-4.3-15.9-2-32.9,6.2-47.2,8.3-14.3,21.8-24.7,37.7-29,15.9-4.3,32.9-2,47.2,6.2,2,1.2,3.8,2.4,5.6,3.7l13-27.8c-1.2-.7-2.3-1.4-3.5-2-13.9-8.1-29.7-12.3-45.8-12.3v.2ZM239,203.4l26.3,64.2h-52.9l26.7-64.2h0ZM383.3,203.4l26.7,64.2h-52.9l26.3-64.2h0Z"/>
</svg>