<?xml version="1.0" encoding="UTF-8"?>
<svg id="Layer_1" xmlns="http://www.w3.org/2000/svg" version="1.1" viewBox="0 0 500 500">
  <!-- Generator: Adobe Illustrator 29.2.1, SVG Export Plug-In . SVG Version: 2.1.0 Build 116)  -->
  <defs>
    <style>
      .st0 {
        fill: #fff;
      }
    </style>
  </defs>
  <g id="l6AkOf.tif">
    <g>
      <path class="st0" d="M426.9,98c47.5,2.6,71.8,36.6,72,82.4-.3,1.9-3.9.8-5.3.8-14.8-.3-29.7.3-44.6,0,.1-21.3-7.9-44.9-34.1-38.6-15.9,3.7-18.2,16.7-19.1,31v149.8c.5,16,2.8,32.1,21.5,34.2,10.7,1.2,22,0,27.7-10.2,4.6-8.2,3.2-17.3,3.9-26.3.8.1,49.4-.6,50.1,0,.3,25.2-7.2,52.6-29.2,67.4-51.2,32.6-128.9,2.4-123.6-64.3.8-50.8-1.2-101.7.3-152.4-1-44.1,31.7-72.9,73.6-74h6.8,0Z"/>
      <path class="st0" d="M134.9,117.2c26.5,18.5,29.9,53.6,28.3,83.5-.8,65.6-54,78.5-109.2,75.7-2,0-4.4-1.2-4.6,1.6-.8,8.5.4,18.5.3,27-1.3,30.3,2,63.8-1.1,92.5-16.1,0-32.5.6-48.6,0V102.7c26.9-.5,55.5-.7,82.2.3,18.1.5,37.2,3.7,52.7,14.2h0ZM50.7,143.5c-.6.1-1.2.6-1.1,1.2.2,29.1-.2,58,0,87,0,1.3-.7,3.3,1.2,3.7,40.1.9,66-.9,62.6-49.1,1.8-44.5-27.5-43.5-62.6-42.9h0Z"/>
      <path class="st0" d="M230,397.6c-.2-83.3.5-167-.3-250.3-.1-1.1-1-1.2-2-1.3h-47.2c0,.1,0-43.2,0-43.2.4-.8,2.5-.3,3.3-.3,48.2-.3,97.7,0,145.3.3.3,1.4,0,4,0,5.6,0,2.5.4,5,0,7.5-.7,9.3,1.2,19.6.3,28.7,0,.4,0,.8-.3,1.1-.5.4-4.8.2-5.9.2-13.9.1-28.1,0-42.1,0-.8,0-1.4.8-1.5,1.6-.1,83.1,0,166.4.2,249.4-.3,1.2-4.8.9-6,.9-14.5-.5-29.1-.1-43.6-.2h0Z"/>
      <path class="st0" d="M493.4,252.2c-1.2.9-4.2-3.5-5.4-4.3-.8-.7-2.7-2-3.6-2.5-2.4-1-8-5.7-6.9.1.4,3.3,2,6.9,1.9,10.3.7,3.7,6.8,18.1-1.6,10.1-1.5,1.6,1.5,4.2,2.8,5,.4.2.9.1,1.3.3,1.4.7,1.1,5,1.2,6.5-.3.3-3.1-2.2-2.8.6s1.1,2.6,1.3,2.9c.8,1.2,2.2,1.8,2,3.9s-3.3,2.5-3.7,4.1c-.4,1.5,2.5,1.4,2,2.9-.5,1.9-4.4-.6-5.4-.9-1.3-.5-5.5-.9-4.8-2.7.1-.3,2.5-3.4,2.9-3.9s1.1-.5,1.2-1.4c0-1.4-1.7-.7-2.2.1-1.9-3.2,1-6.6,1.8-9.5.2-2.6-2.9-7-.4-9s1.3-.2,1.6-.9c-3.5-5.5-2.2-13.1-4.5-19-2.1-5.2-6.1,6.3-6.5,8-.3,1.2-.3,7.1-1.4,7.4s-3.5-2.9-3.9-4c-1.4-4-.5-9.9,2-13.3,3.3-2.8,2.2-4.9-2-3.4-2.7.9-7.1,3.5-8.5,6.1-.6,1.1-1.8,6.6-3.7,3.6-2.1-3.3,1.1-11.9,3.9-14.4,2.9-2.6,5.7-3.1,9.1-4.3,1.5-.5,1.1-1.7,0-1.9-2.1-.4-6.2,0-8.2.8s-5.4,3.3-5.5,1c1.1-6.5,9.8-8.9,15.6-8.8,2.2.1,3.6,1.4,4.9-1.2,2.8-6.6,4.4-11.2,12.4-13.1,2.1-.3.2,2-.1,2.7-1.3,3-2.6,5.8-4.4,8.5-.6,4.1,9.3-.9,12.9.6,1.6.3,4.5.9,4.6,2.9-.1.3-1.4.7-1.8.8-2.1.7-9.5,0-8.4,3.6.5.8,3.3.4,4.2.5,5.5.3,11.8,3.5,13,9.3l-.5.5c-2,0-3.6-1.3-5.4-1.8s-8.6-1.3-10.2-.3c-3.5,2.3,12.6,4.9,9.6,17.9h0Z"/>
    </g>
  </g>
</svg>