<?xml version="1.0" encoding="UTF-8"?>
<svg id="Layer_1" xmlns="http://www.w3.org/2000/svg" version="1.1" viewBox="0 0 25 25">
  <!-- Generator: Adobe Illustrator 29.0.1, SVG Export Plug-In . SVG Version: 2.1.0 Build 192)  -->
  <defs>
    <style>
      .st0 {
        fill: #fff;
      }
    </style>
  </defs>
  <path class="st0" d="M15.3,12.5L24.4,3.4c.8-.8.8-2,0-2.8-.8-.8-2-.8-2.8,0l-9.1,9.1L3.4.6C2.7-.2,1.4-.2.6.6-.2,1.4-.2,2.7.6,3.4l9.1,9.1L.6,21.6c-.8.8-.8,2,0,2.8.8.8.9.6,1.4.6s1-.2,1.4-.6l9.1-9.1,9.1,9.1c.4.4.9.6,1.4.6s1-.2,1.4-.6c.8-.8.8-2,0-2.8,0,0-9.1-9.1-9.1-9.1Z"/>
  <path class="st0" d="M15.3,12.5L24.4,3.4c.8-.8.8-2,0-2.8-.8-.8-2-.8-2.8,0l-9.1,9.1L3.4.6C2.7-.2,1.4-.2.6.6-.2,1.4-.2,2.7.6,3.4l9.1,9.1L.6,21.6c-.8.8-.8,2,0,2.8.8.8.9.6,1.4.6s1-.2,1.4-.6l9.1-9.1,9.1,9.1c.4.4.9.6,1.4.6s1-.2,1.4-.6c.8-.8.8-2,0-2.8,0,0-9.1-9.1-9.1-9.1Z"/>
</svg>