<?xml version="1.0" encoding="UTF-8"?>
<svg id="Layer_1" xmlns="http://www.w3.org/2000/svg" version="1.1" viewBox="0 0 126 126">
  <!-- Generator: Adobe Illustrator 29.0.1, SVG Export Plug-In . SVG Version: 2.1.0 Build 192)  -->
  <defs>
    <style>
      .st0 {
        fill: #222;
      }
    </style>
  </defs>
  <path class="st0" d="M34.3,55.6c.8.4,1.6,1,2.2,1.6l15.8,15.8c.4.4,1,.8,1.6,1.1.6.2,1.2.4,1.8.4s1.3,0,1.8-.4c.6-.2,1.1-.6,1.6-1.1l47.7-47.7c.4-.4.8-1,1.1-1.6.2-.6.4-1.2.4-1.8s0-1.3-.4-1.8c-.2-.6-.6-1.1-1.1-1.6-9.2-8.9-20.9-14.7-33.5-16.8-12.6-2-25.6-.2-37.1,5.3-11.5,5.5-21.1,14.4-27.4,25.5C2.4,43.7-.3,56.5.8,69.2c.1.9.5,1.8,1,2.5.6.7,1.3,1.2,2.2,1.5s1.8.4,2.7.2c.9-.2,1.7-.6,2.3-1.3l14.9-14.9c1.3-1.3,3.1-2.2,4.9-2.5,1.9-.3,3.8,0,5.4.9h0Z"/>
  <path class="st0" d="M62,95.2c-1.4,1.4-3.3,2.3-5.3,2.5s-4-.3-5.7-1.3c-.5-.3-1-.7-1.4-1.2l-15.9-15.9c-.9-.9-2.1-1.4-3.4-1.4s-2.5.5-3.4,1.4l-14.2,14.2c-.8.8-1.3,1.9-1.4,3-.1,1.1.2,2.3.9,3.2,8.7,12.2,21.4,20.8,35.9,24.4,14.5,3.6,29.8,1.9,43.2-4.8,13.4-6.7,23.9-17.9,29.7-31.7,5.8-13.8,6.5-29.2,2-43.4-.2-.8-.7-1.5-1.3-2.1-.6-.6-1.3-1-2.2-1.2-.8-.2-1.7-.2-2.5,0s-1.5.7-2.1,1.2l-52.9,52.9v.2Z"/>
</svg>