<?xml version="1.0" encoding="UTF-8"?>
<svg id="Layer_1" xmlns="http://www.w3.org/2000/svg" version="1.1" viewBox="0 0 500 500">
  <!-- Generator: Adobe Illustrator 29.2.1, SVG Export Plug-In . SVG Version: 2.1.0 Build 116)  -->
  <defs>
    <style>
      .st0 {
        fill: #84c2ff;
      }

      .st1 {
        fill: #e3e4dc;
      }
    </style>
  </defs>
  <g>
    <path class="st1" d="M500.4,271l-1.2-5.7-2.2-5.3-2.9-4.4-3.5-3.8-4.1-3.1-5.1-2.9-7.6-2.9,3.5-1.2,4.1-2.6,2.9-2.6,2.9-3.5,2.2-4.1,1.6-5.1.7-4.4v-4.8l-.7-4.4-1.2-5.3-2.2-4.8-2.9-4.4-3.8-3.8-2.9-2.2-3.5-2.2-5.1-2.2-4.8-1.2-7-1h-53.5l-.3.3v134.6l1.6.7,57.3-.3,5.1-.7,7.2-1.9,5.1-2.2,4.4-2.6,4.1-3.1,2.2-2.2,3.8-5.1,2.9-5.3,1.9-5.7,1.2-7v-9.2l-.3-2.2v-.3ZM425,203.3l.7-1.9h28.8l5.1,1,3.1,1.2,3.1,2.2,2.2,2.6,1.6,3.1,1,3.8v6.3l-1,4.1-1.9,3.5-1.6,1.9-3.1,2.2-3.8,1.6-5.3,1h-26.6l-2.2-.3v-32.3ZM479.8,278.7l-1,5.7-1.6,4.1-2.9,4.4-3.8,3.1-4.4,2.2-6.7,1.6h-34.2l-.3-.3v-45.6l.3-.3h32.6l4.1.7,5.1,1.6,4.4,2.6,2.6,2.2,2.9,4.1,1.6,3.8,1,4.1.3,2.9v3.1h0Z"/>
    <polygon class="st1" points="90.9 183.4 90.9 258.4 91.2 264.4 92.1 276.2 90.6 274.3 87.7 270.7 83.3 265.4 81.1 262.8 77 258.4 72.2 253.4 68.4 249.2 66.2 246.7 63.6 244.1 61.4 241.6 58.8 239.1 56.6 236.6 51.9 231.4 48.2 227.3 44.6 223.5 39.6 218.2 30.7 208.6 27.2 204.9 22.8 200.2 13.2 189.9 11 187.5 5.3 181.7 2.8 181.5 2.5 181.7 2.2 189.1 2.2 314.4 2.5 318.2 2.8 318.6 21.8 318.2 21.8 236.6 21.2 228 20.6 224.9 21.2 224.9 21.2 225.4 22.1 226.4 25.6 230.9 28.5 234 31.4 237.5 35.1 241.6 40.2 247 43 250.1 46.5 254 51.6 259.4 54.4 262.5 59.5 267.9 63.3 272 68.1 277.1 75 284.7 80.1 290.1 82.3 292.6 84.9 295.2 87.1 297.6 87.7 297.6 88 298.6 91.5 302.4 93.7 305 96.2 307.5 101.3 312.9 103.6 315.4 108 319.9 110.2 319.9 110.5 319.6 110.5 183 91.2 183 90.9 183.4"/>
    <polygon class="st1" points="215.4 303.4 212.8 299.9 207.7 293.2 203.6 287.5 199.8 282.5 182.1 258.4 178.3 253.4 173.9 247.3 173.2 246 175.1 243.6 180.2 236.9 184 231.8 189 225.1 192.2 221 196.7 215 201.1 209.3 206.1 202.6 210.6 196.6 219.7 184.6 220.7 183 196.9 183 196.4 183.7 193.5 187.2 189.7 192.2 184.6 198.8 181.4 203 178.6 206.7 174.4 212.2 169.4 218.9 163.1 227.1 160.2 230.9 155.8 236.6 151.4 242.6 148.5 247.3 146 252 143.4 257.1 144.4 243.8 144.4 183.4 144.1 183 123.5 183 123.2 183.4 123.2 318.2 144.4 318.2 144.7 279.6 146.3 277.4 155.2 266.6 158 263.1 159.3 262.5 159.9 263.5 177.7 287.5 181.4 292.6 185.9 298.6 190 304.3 195 311 199.1 316.7 201.4 318.6 225.2 318.6 226.1 318.2 224.2 315.4 215.4 303.4"/>
    <polygon class="st1" points="305.6 267.9 303.4 263.1 300.2 258.4 297 255.2 293.3 251.8 287.8 247.9 282.5 244.8 272 239.7 260.7 234.7 254 231.2 249.5 228 247.3 225.4 245.4 222 244.5 218.2 244.5 213.4 245.1 210.3 247 206.5 248.9 204.3 251.8 202.3 255.2 200.7 260.7 199.8 263.4 199.8 266.3 200.2 270.1 201.1 273.6 202.6 277.1 204.9 280.9 209.3 283.1 212.8 283.7 212.8 290.4 208.6 299.3 203.3 299.6 201.7 298.3 199.8 296.1 196.6 293.3 193.2 291.4 191.6 288.1 188.7 283.5 185.8 278 183.7 273.3 182.4 267.2 181.5 256.8 181.5 250.8 182.4 245.4 183.9 240.6 186.2 236.2 189.1 233.1 191.9 229.3 196.3 226.7 200.7 224.5 206.7 223.6 212.8 223.6 219.1 224.5 225.8 226.1 230.9 228 234.7 230.2 238.1 233.1 241.6 235 243.2 238.2 246 242.3 248.9 247.6 252 267 260.9 272 263.5 277.1 266.4 281.2 269.5 283.5 272 285.7 276.2 286.6 280.3 286.6 285.3 285.9 288.2 283.7 292.6 281.6 295.2 277.7 298 273 299.9 266.7 301.2 259 301.2 257.1 300.9 251.8 299.5 248 298 243.5 295.4 240.3 292.6 237.5 289.4 235 286.3 232.7 282.8 231.2 283.1 223.6 287.2 215 292 215 292.6 215.9 294.2 218.5 298.3 220.7 301.5 223.6 304.6 228.3 309.1 233.7 312.9 238.7 315.4 244.8 317.7 251.4 319.2 258.4 320.1 268.6 320.1 274.2 319.6 279.9 318.2 286.6 316 291.4 313.5 295.8 310.3 299.6 306.5 302.7 302.4 304.9 298 306.8 292.3 307.8 286.6 307.8 278.7 307.2 273.6 305.6 267.9"/>
    <polygon class="st1" points="313.5 183 313.2 183.4 313.2 318.2 313.8 318.6 334.4 318.2 334.7 274.8 391.7 274.6 391.7 256.1 391.4 255.9 334.7 255.6 334.4 201.7 397.4 201.4 397.7 200.7 397.7 183.7 397.4 183 313.5 183"/>
  </g>
  <g>
    <polygon class="st0" points="2.5 127 .9 127.3 .9 148.6 1.2 148.8 496.8 148.8 499.1 148.6 499.1 127.3 2.5 127"/>
    <polygon class="st0" points=".9 351.2 .7 351.8 .7 363.3 .9 372.7 426.5 372.7 426.9 371.5 426.9 352.1 426.5 351.2 .9 351.2"/>
    <polygon class="st0" points="486.2 366.7 483.9 367.4 480.7 367.1 479.2 366.1 477.3 363.3 476.9 360.1 477.9 356.9 479.5 355 482 354 484.2 354 485.5 354.4 487.4 355.9 488.6 356.3 490.8 355 491.2 353.4 490.3 352.5 487.4 350.6 484.5 349.9 481.4 349.9 478.8 350.6 475.7 352.5 474 354.4 472.5 357.5 472.5 363.5 473.5 366.1 475.7 368.9 478.5 370.8 481.4 371.5 484.8 371.5 486.4 371.2 488.6 370.2 491.2 368 491.5 366.4 488.6 364.5 486.2 366.7"/>
    <polygon class="st0" points="444 367.4 444 350.6 443.7 350.3 439.6 350.3 439.6 371.2 453.1 371.2 453.5 370.5 453.1 367.4 444 367.4"/>
    <polygon class="st0" points="461.1 367.4 461.1 350.3 457 350.3 457 371.2 470.6 371.2 470.9 370.8 470.9 368.6 470.6 367.4 461.1 367.4"/>
  </g>
</svg>