<?xml version="1.0" encoding="UTF-8"?>
<svg id="Layer_1" xmlns="http://www.w3.org/2000/svg" version="1.1" viewBox="0 0 55 55">
  <!-- Generator: Adobe Illustrator 29.0.1, SVG Export Plug-In . SVG Version: 2.1.0 Build 192)  -->
  <defs>
    <style>
      .st0 {
        fill: #fff;
      }
    </style>
  </defs>
  <path class="st0" d="M19.9,46.6h1.9v-19.7c0-1,.3-1.3,1.3-1.3h8.9c.9,0,1.2.3,1.2,1.2v19.7h1.9v-25.2c0-.2,0-.4,0-.5,0-.5.4-.9,1-.9,3.2,0,6.4,0,9.5,0,.6,0,.9.4,1,1,0,.2,0,.3,0,.5v25.2c.3,0,.6,0,.9,0,.6,0,1.1.4,1.1,1,0,.6-.4.9-1,.9H7.9c-.2,0-.4,0-.7,0-.2,0-.4-.2-.5-.3-.1-.2-.2-.4-.2-.6,0-.2,0-.4.2-.6.1-.2.3-.3.5-.3.2,0,.4,0,.6,0h.6v-13.9c0-1.1.3-1.3,1.3-1.3h8.9c1,0,1.3.3,1.3,1.3v13.9h0ZM44.7,21.8h-7.6v24.7h7.6v-24.7ZM31.3,46.5v-19h-7.6v19h7.6ZM17.9,33.3h-7.6v13.3h7.6v-13.3Z"/>
  <path class="st0" d="M45,8.4h-4.7c-.2,0-.4,0-.6,0-.2,0-.4-.2-.5-.3-.1-.2-.2-.4-.2-.6,0-.2,0-.4.2-.6.1-.2.3-.3.5-.3.2,0,.3,0,.5,0h7.1c1,0,1.4.5,1.2,1.5-.6,2.4-1.2,4.8-1.8,7.2-.2.7-.7,1-1.3.8-.5-.2-.7-.6-.6-1.2.4-1.5.7-2.9,1.1-4.5-.2.1-.3.2-.4.3-7.3,6.3-15.8,11-25,14-4.2,1.4-8.5,2.3-12.8,2.9-.6,0-1.1-.2-1.2-.8,0-.5.3-1,.9-1.1,2.9-.4,5.9-1,8.8-1.8,10.7-2.9,20.2-7.9,28.6-15.1,0,0,.1-.1.3-.3Z"/>
</svg>