<svg width="135" height="41" viewBox="0 0 135 41" fill="none" xmlns="http://www.w3.org/2000/svg">
<path d="M42.3796 37.3135L39.9618 31.8656H40.7297L42.9504 36.9192H42.5872L44.839 31.8656H45.5654L43.1372 37.3135H42.3796ZM55.6139 37.3654C55.0466 37.3654 54.5485 37.2478 54.1196 37.0125C53.6907 36.7704 53.3551 36.4418 53.113 36.0267C52.8709 35.6047 52.7498 35.1239 52.7498 34.5843C52.7498 34.0447 52.864 33.5674 53.0923 33.1523C53.3275 32.7372 53.6457 32.4121 54.0469 32.1769C54.4551 31.9347 54.9117 31.8137 55.4167 31.8137C55.9286 31.8137 56.3818 31.9313 56.7761 32.1665C57.1773 32.3948 57.4921 32.7199 57.7204 33.1419C57.9487 33.557 58.0628 34.0378 58.0628 34.5843C58.0628 34.6189 58.0594 34.657 58.0525 34.6985C58.0525 34.7331 58.0525 34.7711 58.0525 34.8126H53.3102V34.2626H57.6581L57.3676 34.4806C57.3676 34.0862 57.2811 33.7369 57.1082 33.4325C56.9421 33.1212 56.7138 32.879 56.4233 32.7061C56.1327 32.5331 55.7972 32.4467 55.4167 32.4467C55.0431 32.4467 54.7076 32.5331 54.4101 32.7061C54.1127 32.879 53.8809 33.1212 53.7149 33.4325C53.5488 33.7438 53.4658 34.1001 53.4658 34.5013V34.6155C53.4658 35.0305 53.5558 35.3972 53.7356 35.7154C53.9224 36.0267 54.1784 36.2723 54.5035 36.4522C54.8356 36.6251 55.2126 36.7116 55.6346 36.7116C55.9667 36.7116 56.2745 36.6528 56.5582 36.5352C56.8487 36.4176 57.0978 36.2377 57.3053 35.9956L57.7204 36.4729C57.4783 36.7635 57.1739 36.9849 56.8072 37.1371C56.4475 37.2893 56.0497 37.3654 55.6139 37.3654ZM69.1923 31.8137C69.6351 31.8137 70.0225 31.9001 70.3546 32.0731C70.6935 32.2391 70.9564 32.4951 71.1432 32.841C71.3369 33.1869 71.4338 33.6227 71.4338 34.1485V37.3135H70.697V34.2211C70.697 33.6469 70.5517 33.2146 70.2612 32.924C69.9775 32.6265 69.5763 32.4778 69.0574 32.4778C68.67 32.4778 68.331 32.5574 68.0405 32.7165C67.7568 32.8687 67.5355 33.0935 67.3764 33.391C67.2242 33.6815 67.1481 34.0343 67.1481 34.4494V37.3135H66.4113V31.8656H67.1169V33.3598L67.0028 33.0797C67.1757 32.6853 67.4525 32.3775 67.8329 32.1561C68.2134 31.9278 68.6666 31.8137 69.1923 31.8137ZM81.9953 37.3654C81.4833 37.3654 81.089 37.227 80.8123 36.9503C80.5356 36.6736 80.3972 36.2827 80.3972 35.7777V30.6618H81.134V35.7362C81.134 36.0544 81.2135 36.3 81.3727 36.4729C81.5387 36.6459 81.7739 36.7324 82.0783 36.7324C82.4034 36.7324 82.6732 36.639 82.8877 36.4522L83.1471 36.9814C83.0018 37.1129 82.8254 37.2097 82.6179 37.272C82.4173 37.3342 82.2097 37.3654 81.9953 37.3654ZM79.4218 32.4778V31.8656H82.7943V32.4778H79.4218ZM93.589 37.3654C93.1255 37.3654 92.7208 37.2789 92.3749 37.1059C92.029 36.933 91.7592 36.6736 91.5655 36.3277C91.3787 35.9818 91.2853 35.5494 91.2853 35.0305V31.8656H92.022V34.9475C92.022 35.5286 92.1639 35.9679 92.4475 36.2654C92.7381 36.556 93.1428 36.7012 93.6616 36.7012C94.0421 36.7012 94.3707 36.6251 94.6474 36.4729C94.9311 36.3138 95.1455 36.0855 95.2908 35.7881C95.443 35.4906 95.5191 35.1343 95.5191 34.7192V31.8656H96.2559V37.3135H95.5502V35.8192L95.6644 36.089C95.4914 36.4902 95.2216 36.805 94.855 37.0333C94.4952 37.2547 94.0732 37.3654 93.589 37.3654ZM105.158 37.3135V31.8656H105.864V33.3495L105.791 33.09C105.943 32.675 106.199 32.3602 106.559 32.1457C106.919 31.9244 107.365 31.8137 107.898 31.8137V32.5297C107.87 32.5297 107.842 32.5297 107.815 32.5297C107.787 32.5228 107.759 32.5193 107.732 32.5193C107.157 32.5193 106.708 32.6957 106.383 33.0485C106.057 33.3944 105.895 33.8891 105.895 34.5324V37.3135H105.158ZM118.354 37.3654C117.787 37.3654 117.289 37.2478 116.86 37.0125C116.431 36.7704 116.095 36.4418 115.853 36.0267C115.611 35.6047 115.49 35.1239 115.49 34.5843C115.49 34.0447 115.604 33.5674 115.833 33.1523C116.068 32.7372 116.386 32.4121 116.787 32.1769C117.195 31.9347 117.652 31.8137 118.157 31.8137C118.669 31.8137 119.122 31.9313 119.516 32.1665C119.918 32.3948 120.232 32.7199 120.461 33.1419C120.689 33.557 120.803 34.0378 120.803 34.5843C120.803 34.6189 120.8 34.657 120.793 34.6985C120.793 34.7331 120.793 34.7711 120.793 34.8126H116.05V34.2626H120.398L120.108 34.4806C120.108 34.0862 120.021 33.7369 119.848 33.4325C119.682 33.1212 119.454 32.879 119.164 32.7061C118.873 32.5331 118.537 32.4467 118.157 32.4467C117.783 32.4467 117.448 32.5331 117.15 32.7061C116.853 32.879 116.621 33.1212 116.455 33.4325C116.289 33.7438 116.206 34.1001 116.206 34.5013V34.6155C116.206 35.0305 116.296 35.3972 116.476 35.7154C116.663 36.0267 116.919 36.2723 117.244 36.4522C117.576 36.6251 117.953 36.7116 118.375 36.7116C118.707 36.7116 119.015 36.6528 119.298 36.5352C119.589 36.4176 119.838 36.2377 120.046 35.9956L120.461 36.4729C120.219 36.7635 119.914 36.9849 119.548 37.1371C119.188 37.2893 118.79 37.3654 118.354 37.3654ZM130.615 37.3654C130.165 37.3654 129.74 37.3031 129.338 37.1786C128.937 37.0471 128.622 36.8846 128.394 36.6909L128.726 36.1097C128.948 36.2758 129.231 36.4211 129.577 36.5456C129.923 36.6632 130.286 36.722 130.667 36.722C131.185 36.722 131.559 36.6424 131.787 36.4833C132.016 36.3173 132.13 36.0994 132.13 35.8296C132.13 35.6289 132.064 35.4733 131.933 35.3626C131.808 35.245 131.642 35.1585 131.435 35.1032C131.227 35.0409 130.995 34.989 130.739 34.9475C130.483 34.906 130.227 34.8576 129.971 34.8022C129.722 34.7469 129.494 34.6673 129.286 34.5636C129.079 34.4529 128.909 34.3041 128.778 34.1174C128.654 33.9306 128.591 33.6815 128.591 33.3702C128.591 33.0727 128.674 32.8064 128.84 32.5712C129.006 32.336 129.248 32.1526 129.567 32.0212C129.892 31.8828 130.286 31.8137 130.75 31.8137C131.102 31.8137 131.455 31.8621 131.808 31.9589C132.161 32.0489 132.451 32.1699 132.68 32.3221L132.358 32.9136C132.116 32.7476 131.857 32.63 131.58 32.5608C131.303 32.4847 131.026 32.4467 130.75 32.4467C130.258 32.4467 129.895 32.5331 129.66 32.7061C129.432 32.8721 129.318 33.0866 129.318 33.3495C129.318 33.557 129.38 33.7196 129.504 33.8372C129.636 33.9548 129.805 34.0482 130.013 34.1174C130.227 34.1796 130.459 34.2315 130.708 34.273C130.964 34.3145 131.217 34.3664 131.466 34.4287C131.722 34.484 131.953 34.5636 132.161 34.6673C132.375 34.7642 132.545 34.906 132.669 35.0928C132.801 35.2727 132.867 35.5113 132.867 35.8088C132.867 36.127 132.777 36.4038 132.597 36.639C132.424 36.8673 132.168 37.0471 131.829 37.1786C131.497 37.3031 131.092 37.3654 130.615 37.3654Z" fill="white"/>
<path d="M8.14539 20.2802C8.3414 20.3798 8.51973 20.511 8.67328 20.6684L12.4889 24.484C12.5971 24.5925 12.7256 24.6786 12.8672 24.7374C13.0087 24.7962 13.1605 24.8265 13.3137 24.8265C13.467 24.8265 13.6187 24.7962 13.7603 24.7374C13.9018 24.6786 14.0304 24.5925 14.1386 24.484L25.6436 12.975C25.7521 12.8669 25.8383 12.7383 25.8971 12.5968C25.9559 12.4552 25.9861 12.3035 25.9861 12.1502C25.9861 11.9969 25.9559 11.8452 25.8971 11.7036C25.8383 11.5621 25.7521 11.4336 25.6436 11.3254C23.4222 9.18433 20.5997 7.77315 17.554 7.2808C14.5083 6.78846 11.3849 7.23847 8.60207 8.57056C5.81924 9.90265 3.50987 12.0532 1.98323 14.7343C0.45659 17.4153 -0.214441 20.4988 0.0600385 23.5718C0.0844346 23.7895 0.169794 23.996 0.306286 24.1675C0.442778 24.3389 0.624873 24.4683 0.831642 24.5409C1.03841 24.6135 1.26145 24.6262 1.47515 24.5777C1.68884 24.5292 1.88452 24.4213 2.03966 24.2666L5.64565 20.6606C5.96842 20.3408 6.38437 20.1316 6.83358 20.0633C7.28279 19.9949 7.7421 20.0709 8.14539 20.2802Z" fill="white"/>
<path d="M14.8222 29.8405C14.4762 30.185 14.0233 30.4014 13.5379 30.4544C13.0526 30.5073 12.5637 30.3934 12.1516 30.1316C12.0293 30.0525 11.9172 29.9586 11.8178 29.8521L7.9828 26.021C7.76446 25.8029 7.46849 25.6804 7.1599 25.6804C6.85132 25.6804 6.55535 25.8029 6.33701 26.021L2.91345 29.4446C2.71785 29.6384 2.59726 29.8952 2.5731 30.1695C2.54894 30.4438 2.62276 30.7178 2.78146 30.9429C4.87802 33.8777 7.95353 35.9675 11.4541 36.836C14.9548 37.7045 18.6505 37.2946 21.8757 35.6801C25.1009 34.0656 27.6437 31.3526 29.0462 28.0297C30.4487 24.7068 30.6187 20.9924 29.5256 17.5553C29.4665 17.3628 29.3585 17.1889 29.2122 17.0506C29.0658 16.9123 28.8861 16.8144 28.6906 16.7663C28.495 16.7182 28.2904 16.7216 28.0966 16.7762C27.9028 16.8308 27.7264 16.9347 27.5848 17.0778L14.8222 29.8405Z" fill="white"/>
<path d="M47.2714 11.0159C48.3817 11.0159 49.3706 11.2327 50.2381 11.6665C51.1229 12.1002 51.8169 12.7681 52.32 13.6703C52.8231 14.5551 53.0747 15.7001 53.0747 17.1054V25.0687H49.8217V17.5218C49.8217 16.29 49.5268 15.3705 48.9369 14.7633C48.3644 14.1561 47.5576 13.8525 46.5167 13.8525C45.7533 13.8525 45.0767 14.0086 44.4868 14.3209C43.8969 14.6332 43.4372 15.1016 43.1076 15.7262C42.7953 16.3334 42.6391 17.1054 42.6391 18.0423V25.0687H39.3862V11.172H42.483V14.9194L41.9365 13.7744C42.4223 12.8896 43.1249 12.213 44.0444 11.7445C44.9813 11.2587 46.0569 11.0159 47.2714 11.0159ZM63.7587 25.2509C62.2146 25.2509 60.8614 24.9473 59.699 24.3401C58.5539 23.7155 57.6604 22.8654 57.0185 21.7897C56.3939 20.7141 56.0817 19.491 56.0817 18.1204C56.0817 16.7324 56.3853 15.5093 56.9925 14.451C57.6171 13.3754 58.4672 12.5339 59.5428 11.9267C60.6358 11.3195 61.8763 11.0159 63.2642 11.0159C64.6175 11.0159 65.8232 11.3108 66.8815 11.9007C67.9398 12.4905 68.7726 13.3233 69.3798 14.399C69.9871 15.4746 70.2907 16.7411 70.2907 18.1984C70.2907 18.3372 70.282 18.4934 70.2646 18.6669C70.2646 18.8404 70.256 19.0052 70.2386 19.1613H58.658V17.0013H68.521L67.2459 17.678C67.2632 16.8799 67.0984 16.1773 66.7514 15.57C66.4044 14.9628 65.9273 14.4857 65.3201 14.1387C64.7302 13.7917 64.0449 13.6182 63.2642 13.6182C62.4662 13.6182 61.7635 13.7917 61.1563 14.1387C60.5664 14.4857 60.098 14.9715 59.751 15.5961C59.4214 16.2033 59.2566 16.9233 59.2566 17.756V18.2765C59.2566 19.1093 59.4474 19.8466 59.8291 20.4885C60.2108 21.1305 60.7486 21.6249 61.4426 21.9719C62.1365 22.3189 62.9346 22.4924 63.8368 22.4924C64.6175 22.4924 65.3201 22.3709 65.9447 22.128C66.5693 21.8851 67.1244 21.5035 67.6102 20.983L69.3538 22.9868C68.7292 23.7155 67.9398 24.2793 66.9856 24.6784C66.0488 25.0601 64.9731 25.2509 63.7587 25.2509ZM78.6461 25.2509C77.1194 25.2509 75.9397 24.8605 75.1069 24.0798C74.2741 23.2818 73.8578 22.1107 73.8578 20.5666V8.10119H77.1107V20.4885C77.1107 21.1478 77.2756 21.6596 77.6052 22.0239C77.9522 22.3883 78.4293 22.5704 79.0365 22.5704C79.7652 22.5704 80.3724 22.3796 80.8582 21.9979L81.769 24.314C81.3873 24.6263 80.9189 24.8605 80.3637 25.0167C79.8085 25.1728 79.236 25.2509 78.6461 25.2509ZM71.5677 13.8785V11.2761H80.8321V13.8785H71.5677ZM87.2617 25.0687L82.161 11.172H85.2318L89.6038 23.4292H88.1465L92.7267 11.172H95.4592L99.9092 23.4292H98.4779L102.98 11.172H105.869L100.742 25.0687H97.6191L93.5594 14.2168H94.5223L90.3845 25.0687H87.2617ZM108.105 25.0687V11.172H111.202V14.9975L110.838 13.8785C111.254 12.9416 111.905 12.2303 112.79 11.7445C113.692 11.2587 114.811 11.0159 116.147 11.0159V14.1127C116.008 14.078 115.878 14.0606 115.756 14.0606C115.635 14.0433 115.513 14.0346 115.392 14.0346C114.16 14.0346 113.18 14.399 112.451 15.1276C111.723 15.8389 111.358 16.9059 111.358 18.3286V25.0687H108.105ZM121.561 21.9719L121.639 17.8861L128.899 11.172H132.803L126.635 17.3657L124.918 18.797L121.561 21.9719ZM118.906 25.0687V5.75905H122.159V25.0687H118.906ZM129.394 25.0687L124.319 18.797L126.375 16.1946L133.349 25.0687H129.394Z" fill="white"/>
</svg>
