<?xml version="1.0" encoding="UTF-8"?>
<svg id="Layer_1" xmlns="http://www.w3.org/2000/svg" version="1.1" viewBox="0 0 135 41">
  <!-- Generator: Adobe Illustrator 29.0.1, SVG Export Plug-In . SVG Version: 2.1.0 Build 192)  -->
  <defs>
    <style>
      .st0 {
        fill: #222;
      }
    </style>
  </defs>
  <path class="st0" d="M82.1,36.7c-.3,0-.5,0-.7-.3-.2-.2-.2-.4-.2-.7v-3.3h1.7v-.6h-1.7v-1.2h-.7v1.2h-1v.6h1v3.3c0,.5.1.9.4,1.2s.7.4,1.2.4.4,0,.6,0c.2,0,.4-.2.5-.3l-.3-.5c-.2.2-.5.3-.8.3Z"/>
  <path class="st0" d="M56.8,32.2c-.4-.2-.8-.4-1.4-.4s-1,.1-1.4.4c-.4.2-.7.6-1,1-.2.4-.3.9-.3,1.4s.1,1,.4,1.4c.2.4.6.7,1,1,.4.2.9.4,1.5.4s.8,0,1.2-.2c.4-.2.7-.4.9-.7l-.4-.5c-.2.2-.5.4-.7.5-.3.1-.6.2-.9.2s-.8,0-1.1-.3c-.3-.2-.6-.4-.8-.7-.1-.3-.2-.6-.2-.9h4.6c0-.2,0-.2,0-.2,0-.5-.1-1-.3-1.4-.2-.4-.5-.7-.9-1ZM53.7,33.4c.2-.3.4-.6.7-.7.3-.2.6-.3,1-.3s.7,0,1,.3c.3.2.5.4.7.7.1.2.2.5.2.8h-3.9c0-.3,0-.6.2-.8Z"/>
  <path class="st0" d="M95.5,34.7c0,.4,0,.8-.2,1.1-.1.3-.4.5-.6.7-.3.2-.6.2-1,.2s-.9-.1-1.2-.4c-.3-.3-.4-.7-.4-1.3v-3.1h-.7v3.2c0,.5,0,1,.3,1.3.2.3.5.6.8.8.3.2.8.3,1.2.3s.9-.1,1.3-.3c.3-.2.5-.5.7-.8v1h.7v-5.4h-.7v2.9Z"/>
  <path class="st0" d="M70.4,32.1c-.3-.2-.7-.3-1.2-.3s-1,.1-1.4.3c-.3.2-.5.4-.7.7v-1h-.7v5.4h.7v-2.9c0-.4,0-.8.2-1.1.2-.3.4-.5.7-.7.3-.2.6-.2,1-.2s.9.1,1.2.4c.3.3.4.7.4,1.3v3.1h.7v-3.2c0-.5,0-1-.3-1.3-.2-.3-.4-.6-.8-.8Z"/>
  <polygon class="st0" points="42.8 36.5 40.7 31.9 40 31.9 42.4 37.3 43.1 37.3 45.6 31.9 44.8 31.9 42.8 36.5"/>
  <path class="st0" d="M105.9,33v-1.1h-.7v5.4h.7v-2.8c0-.6.2-1.1.5-1.5.3-.4.8-.5,1.3-.5s0,0,0,0h0v-.7c-.5,0-1,.1-1.3.3-.3.2-.5.5-.7.8Z"/>
  <path class="st0" d="M132.2,34.7c-.2-.1-.4-.2-.7-.2-.2,0-.5-.1-.8-.2-.2,0-.5,0-.7-.2-.2,0-.4-.2-.5-.3-.1-.1-.2-.3-.2-.5s.1-.5.3-.6c.2-.2.6-.3,1.1-.3s.6,0,.8.1c.3,0,.5.2.8.4l.3-.6c-.2-.2-.5-.3-.9-.4-.4,0-.7-.1-1.1-.1s-.9,0-1.2.2c-.3.1-.6.3-.7.6-.2.2-.2.5-.2.8s0,.6.2.7c.1.2.3.3.5.4.2.1.4.2.7.2.3,0,.5.1.8.1s.5,0,.7.2c.2,0,.4.1.5.3.1.1.2.3.2.5s-.1.5-.3.7c-.2.2-.6.2-1.1.2s-.7,0-1.1-.2c-.3-.1-.6-.3-.9-.4l-.3.6c.2.2.5.4.9.5.4.1.8.2,1.3.2s.9,0,1.2-.2c.3-.1.6-.3.8-.5.2-.2.3-.5.3-.8s0-.5-.2-.7c-.1-.2-.3-.3-.5-.4Z"/>
  <path class="st0" d="M119.5,32.2c-.4-.2-.8-.4-1.4-.4s-1,.1-1.4.4c-.4.2-.7.6-1,1-.2.4-.3.9-.3,1.4s.1,1,.4,1.4c.2.4.6.7,1,1,.4.2.9.4,1.5.4s.8,0,1.2-.2c.4-.2.7-.4.9-.7l-.4-.5c-.2.2-.5.4-.7.5-.3.1-.6.2-.9.2s-.8,0-1.1-.3c-.3-.2-.6-.4-.8-.7-.1-.3-.2-.6-.2-.9h4.6c0-.2,0-.2,0-.2,0-.5-.1-1-.3-1.4-.2-.4-.5-.7-.9-1ZM116.5,33.4c.2-.3.4-.6.7-.7.3-.2.6-.3,1-.3s.7,0,1,.3c.3.2.5.4.7.7.1.2.2.5.2.8h-3.9c0-.3,0-.6.2-.8Z"/>
  <path class="st0" d="M6.8,20.1c.4,0,.9,0,1.3.2.2,0,.4.2.5.4l3.8,3.8c.1.1.2.2.4.3.1,0,.3,0,.4,0s.3,0,.4,0c.1,0,.3-.1.4-.3l11.5-11.5c.1-.1.2-.2.3-.4,0-.1,0-.3,0-.4s0-.3,0-.4c0-.1-.1-.3-.3-.4-2.2-2.1-5-3.6-8.1-4-3-.5-6.2,0-9,1.3s-5.1,3.5-6.6,6.2C.5,17.4-.2,20.5,0,23.6c0,.2.1.4.2.6.1.2.3.3.5.4.2,0,.4,0,.6,0s.4-.2.6-.3l3.6-3.6c.3-.3.7-.5,1.2-.6Z"/>
  <path class="st0" d="M29.2,17.1c-.1-.1-.3-.2-.5-.3-.2,0-.4,0-.6,0-.2,0-.4.2-.5.3l-12.8,12.8c-.3.3-.8.6-1.3.6-.5,0-1,0-1.4-.3-.1,0-.2-.2-.3-.3l-3.8-3.8c-.2-.2-.5-.3-.8-.3s-.6.1-.8.3l-3.4,3.4c-.2.2-.3.5-.3.7s0,.5.2.8c2.1,2.9,5.2,5,8.7,5.9,3.5.9,7.2.5,10.4-1.2,3.2-1.6,5.8-4.3,7.2-7.7,1.4-3.3,1.6-7,.5-10.5,0-.2-.2-.4-.3-.5Z"/>
  <path class="st0" d="M116.1,14.1v-3.1c-1.3,0-2.5.2-3.4.7-.7.4-1.2.9-1.6,1.5v-2h-3.1v13.9h3.3v-6.7c0-1.4.4-2.5,1.1-3.2.7-.7,1.7-1.1,2.9-1.1s.2,0,.4,0c.1,0,.3,0,.4,0Z"/>
  <polygon class="st0" points="124.6 19.1 129.4 25.1 133.3 25.1 127 17 132.8 11.2 128.9 11.2 122.2 17.4 122.2 5.8 118.9 5.8 118.9 25.1 122.2 25.1 122.2 21.4 124.6 19.1"/>
  <polygon class="st0" points="103 11.2 99.2 21.5 95.5 11.2 92.7 11.2 88.9 21.4 85.2 11.2 82.2 11.2 87.3 25.1 90.4 25.1 94 15.5 97.6 25.1 100.7 25.1 105.9 11.2 103 11.2"/>
  <path class="st0" d="M81.8,24.3l-.9-2.3c-.5.4-1.1.6-1.8.6s-1.1-.2-1.4-.5c-.3-.4-.5-.9-.5-1.5v-6.6h3.7v-2.6h-3.7v-3.2h-3.3v3.2h-2.3v2.6h2.3v6.7c0,1.5.4,2.7,1.2,3.5.8.8,2,1.2,3.5,1.2s1.2,0,1.7-.2c.6-.2,1-.4,1.4-.7Z"/>
  <path class="st0" d="M53.1,25.1v-8c0-1.4-.3-2.6-.8-3.4-.5-.9-1.2-1.6-2.1-2-.9-.4-1.9-.7-3-.7s-2.3.2-3.2.7c-.6.3-1.1.7-1.6,1.2v-1.8h-3.1v13.9h3.3v-7c0-.9.2-1.7.5-2.3.3-.6.8-1.1,1.4-1.4.6-.3,1.3-.5,2-.5s1.8.3,2.4.9c.6.6.9,1.5.9,2.8v7.5h3.3Z"/>
  <path class="st0" d="M69.4,23l-1.7-2c-.5.5-1,.9-1.7,1.1s-1.3.4-2.1.4-1.7-.2-2.4-.5c-.7-.3-1.2-.8-1.6-1.5-.2-.4-.4-.8-.5-1.3h10.9c0-.2,0-.3,0-.5,0-.2,0-.3,0-.5,0-1.5-.3-2.7-.9-3.8-.6-1.1-1.4-1.9-2.5-2.5-1.1-.6-2.3-.9-3.6-.9s-2.6.3-3.7.9c-1.1.6-1.9,1.4-2.6,2.5-.6,1.1-.9,2.3-.9,3.7s.3,2.6.9,3.7c.6,1.1,1.5,1.9,2.7,2.6,1.2.6,2.5.9,4.1.9s2.3-.2,3.2-.6c1-.4,1.7-1,2.4-1.7ZM59.8,15.6c.3-.6.8-1.1,1.4-1.5.6-.3,1.3-.5,2.1-.5s1.5.2,2.1.5c.6.3,1.1.8,1.4,1.4.2.4.4.9.5,1.4h-7.9c0-.5.2-1,.4-1.4Z"/>
</svg>