<?xml version="1.0" encoding="UTF-8"?>
<svg id="Layer_1" xmlns="http://www.w3.org/2000/svg" version="1.1" viewBox="0 0 500 500">
  <!-- Generator: Adobe Illustrator 29.2.1, SVG Export Plug-In . SVG Version: 2.1.0 Build 116)  -->
  <defs>
    <style>
      .st0 {
        fill: #fff;
      }
    </style>
  </defs>
  <g id="SVG">
    <path class="st0" d="M173,223.9h35.6v169.4h-35.6v-11.9c-15.1,11.7-33.6,18-52.6,18-48.6,0-88.3-40.7-88.3-90.7s39.6-90.8,88.3-90.8,37.9,6.7,52.6,18v-11.9h0ZM173,308.7c0-29.9-23.6-54.2-52.6-54.2s-52.6,24.3-52.6,54.2,23.6,54.2,52.6,54.2,52.6-24.3,52.6-54.2h0ZM271.3,393.4h-35.6V100.6h35.6v292.8ZM291.4,308.7c0-50,39.6-90.8,88.3-90.8s88.3,40.7,88.3,90.8-39.6,90.8-88.3,90.8-88.3-40.7-88.3-90.8h0ZM327,308.7c0,29.9,23.6,54.2,52.6,54.2s52.6-24.3,52.6-54.2-23.6-54.2-52.6-54.2-52.6,24.3-52.6,54.2h0Z"/>
  </g>
</svg>