<?xml version="1.0" encoding="UTF-8"?>
<svg id="Layer_1" xmlns="http://www.w3.org/2000/svg" version="1.1" viewBox="0 0 300 100">
  <!-- Generator: Adobe Illustrator 29.0.1, SVG Export Plug-In . SVG Version: 2.1.0 Build 192)  -->
  <defs>
    <style>
      .st0 {
        fill: #fff;
      }
    </style>
  </defs>
  <path class="st0" d="M137.5,42.5c-1.6-.2-3.2,0-4.6.6s-2.7,1.7-3.5,3.1l-.3-3.4h-5.2c-.1,0-.2,0-.2.2v24.9c0,.1,0,.2.2.2h6c.1,0,.2,0,.2-.2v-13c0-1,0-1.9.3-2.9s1-1.7,1.6-2.4c.7-.6,1.7-1.1,2.7-1.4s1.9-.2,2.9-.1c.1,0,.2,0,.2-.2v-5.2h-.3,0Z"/>
  <path class="st0" d="M155.2,42.9c-1.6-.6-3.2-1-4.9-.8-1.7,0-3.3.2-4.9.8s-2.9,1.6-4.1,2.8c-2.2,2.8-3.3,6.2-3.3,9.8s1.2,6.9,3.3,9.8c1.2,1.2,2.5,2.2,4.1,2.8,1.6.6,3.3.8,4.9.8,2.7,0,5.3-.7,7.5-2.3,2-1.6,3.5-3.7,4-6.3,0-.1,0-.2-.2-.2h-6.5c0,1.4-.7,2.3-1.7,3.1-1,.7-2,1.1-3.3,1-3.4,0-5.3-2.5-5.4-7.5h17c.3-3.6-.7-7.4-2.9-10.3-1.1-1.2-2.4-2.3-3.9-2.9l.2-.2v-.2ZM144.9,52.4c0-1.6.6-3.1,1.7-4.2.5-.5,1.1-1,1.7-1.2s1.4-.3,2-.3h0c.7,0,1.4.1,1.9.5.6.2,1.2.7,1.6,1.2,1,1.2,1.5,2.7,1.5,4.1h-10.5.1Z"/>
  <path class="st0" d="M178.2,42.1c-1.5,0-2.9.3-4.1,1-1.4.7-2.4,1.7-3.2,2.9l-.3-3.2c0-.1,0-.2-.2-.2h-5.2c-.1,0-.2,0-.2.2v24.9c0,.1,0,.2.2.2h5.9c.1,0,.2,0,.2-.2v-14.1c0-1.8.3-3.5,1.4-5,.3-.6,1-1.1,1.7-1.5s1.4-.5,2-.5,1.2,0,1.8.3c.6.2,1.1.7,1.5,1.2.8,1.6,1.2,3.4,1,5.1v14.3h5.9c.1,0,.2,0,.2-.2v-15.6c0-6.7-3.1-10.1-9-10.1l.3.2h0Z"/>
  <path class="st0" d="M212.2,68.5c1,0,1.8,0,2.8-.3h0v-4.6h0c-1.6.3-2.3-.2-2.3-1.9v-10.4c0-1.2,0-2.4-.6-3.6-.5-1.1-1.2-2.2-2.2-3.1-2.2-1.7-5-2.5-7.7-2.3-2.8,0-5.4.7-7.6,2.3-1,.7-1.8,1.7-2.4,2.8s-1,2.3-1,3.5,0,.2.2.2h5.9s.2,0,.2-.2c0-.6,0-1.1.3-1.6.2-.5.6-1,1-1.4.3-.3.8-.6,1.5-.8.5-.1,1.1-.2,1.6-.2,1.2,0,2.3.2,3.2,1,.3.3.6.8.8,1.5,0,.5.2,1.1.2,1.7s-.6,1.2-1.7,1.5c-1.4.3-2.7.6-4.1.8-1.6.2-3.2.6-4.8,1s-3.1,1.2-4.1,2.3c-1.1,1.2-1.7,2.9-1.6,4.6,0,5,3.1,7.4,9.2,7.4s3.2,0,4.5-.8c1.5-.7,2.5-1.7,3.4-3.1l.3,1c.3,1,1.1,1.7,1.9,2.2s1.8.7,2.8.5l.2.2h-.3ZM206,57.6c0,1.8-.3,3.5-1.5,5-.5.6-1.1,1.1-1.8,1.4-.7.3-1.5.5-2.3.3-1,0-1.9-.2-2.7-.8-.3-.3-.6-.7-.8-1.2,0-.5-.2-1-.2-1.5s0-1,.3-1.5c.2-.3.6-.7,1.1-1,1.4-.6,2.7-1,4.1-1.2,1.2-.1,2.4-.5,3.6-.8v1.4h.1,0Z"/>
  <path class="st0" d="M104.3,40l2.3-6.6h-6.3s-.2,0-.2.2l-12.5,34.1c0,.1,0,.2.2.2h7.1l2.3-7.1h13.7l2.3,7h7s.2,0,.2-.2l-10.1-27.8h-6.6.6ZM98.6,56.3l5.6-16.2.8,2.7,4.5,13.7h-10.9v-.2Z"/>
  <polygon class="st0" points="79.9 26.4 89.8 26.4 89.8 24.5 78 24.5 78 75.5 89.8 75.5 89.8 73.5 79.9 73.5 79.9 26.4"/>
  <polygon class="st0" points="210.2 24.5 210.2 26.4 220.1 26.4 220.1 73.5 210.2 73.5 210.2 75.5 222 75.5 222 24.5 210.2 24.5"/>
</svg>