<?xml version="1.0" encoding="UTF-8"?>
<svg id="Layer_1" xmlns="http://www.w3.org/2000/svg" xmlns:xlink="http://www.w3.org/1999/xlink" version="1.1" viewBox="0 0 500 500">
  <!-- Generator: Adobe Illustrator 29.2.1, SVG Export Plug-In . SVG Version: 2.1.0 Build 116)  -->
  <defs>
    <style>
      .st0, .st1 {
        fill: #fff;
      }

      .st0, .st2 {
        fill-rule: evenodd;
      }

      .st3 {
        fill: url(#linear-gradient1);
      }

      .st4 {
        fill: url(#linear-gradient3);
      }

      .st5 {
        fill: url(#linear-gradient);
      }

      .st6 {
        fill: #f6780d;
      }

      .st2 {
        fill: url(#linear-gradient2);
      }
    </style>
    <linearGradient id="linear-gradient" x1="30.7" y1="321.2" x2="174.7" y2="321.2" gradientTransform="translate(0 -57.3)" gradientUnits="userSpaceOnUse">
      <stop offset="0" stop-color="#c7c9cb"/>
      <stop offset=".2" stop-color="#b4b5b7"/>
      <stop offset=".4" stop-color="#a1a2a3"/>
      <stop offset=".6" stop-color="#cecfd0"/>
      <stop offset=".7" stop-color="#e0e1e3"/>
    </linearGradient>
    <linearGradient id="linear-gradient1" x1="63.2" y1="251.6" x2="139.6" y2="400.6" gradientTransform="translate(0 -57.3)" gradientUnits="userSpaceOnUse">
      <stop offset="0" stop-color="#464749"/>
      <stop offset=".2" stop-color="#373738" stop-opacity=".7"/>
      <stop offset=".5" stop-color="#272626" stop-opacity=".3"/>
      <stop offset=".8" stop-color="#1d1b1b" stop-opacity="0"/>
      <stop offset="1" stop-color="#1a1818" stop-opacity="0"/>
    </linearGradient>
    <linearGradient id="linear-gradient2" x1="3.3" y1="231.7" x2="43.6" y2="231.7" gradientTransform="translate(0 -57.3)" gradientUnits="userSpaceOnUse">
      <stop offset="0" stop-color="#c7c9cb"/>
      <stop offset=".3" stop-color="#a1a3a5"/>
      <stop offset=".5" stop-color="#8e9091"/>
      <stop offset=".8" stop-color="#b0b2b3"/>
      <stop offset="1" stop-color="#c2c4c6"/>
    </linearGradient>
    <linearGradient id="linear-gradient3" x1="31.8" y1="257.1" x2="182.8" y2="257.1" gradientTransform="translate(0 -57.3)" gradientUnits="userSpaceOnUse">
      <stop offset="0" stop-color="#ffc861"/>
      <stop offset=".3" stop-color="#fcb44c"/>
      <stop offset=".5" stop-color="#f78218"/>
      <stop offset=".6" stop-color="#f6780d"/>
    </linearGradient>
  </defs>
  <g id="Layer_2">
    <g id="Celsius_Logo">
      <path id="Light_Grey" class="st5" d="M128.2,280c-1.2.5-2.4,1-3.7,1.4-1.3.4-2.5.7-3.8,1-1.3.3-2.6.5-3.9.6-1.3.2-2.6.2-4,.2-5,0-10.1-1-14.7-3-4.7-2-8.9-4.8-12.5-8.4-3.6-3.6-6.4-7.9-8.4-12.5-1.9-4.7-2.9-9.7-2.9-14.8,0-3.5.5-6.9,1.4-10.3.9-3.4,2.3-6.6,4-9.6s3.9-5.7,6.4-8.2c2.5-2.4,5.3-4.5,8.3-6.2,13.9-7.2,25.2-7.3,39.1-8.6-3.8,0-12.6.3-21.7.2h-3.8c-1.3,0-2.6,0-3.8,0-1.3,0-2.6.1-3.8.2s-2.5.2-3.8.3c-40.5,3.9-63.8,34-65,37.3v2.6c0,44.9,36.5,83.5,81.3,83.5s11.9-.7,17.8-2c5.8-1.3,11.5-3.2,16.9-5.8,5.4-2.5,10.5-5.7,15.2-9.3,4.7-3.7,9-7.9,12.8-12.5,3.8-4.6-20.3-28.4-47.4-16.4h0Z"/>
      <g id="Celsius_Logomark">
        <path id="Dark_Grey" class="st3" d="M175.6,296.4s-20.3-28.4-47.4-16.4c-1.2.5-2.4,1-3.7,1.4-1.3.4-2.5.7-3.8,1-1.3.3-2.6.5-3.9.6-1.3.2-2.6.2-4,.2-5,0-10.1-1-14.7-3-4.7-2-8.9-4.8-12.5-8.4-3.6-3.6-6.4-7.9-8.4-12.5-1.9-4.7-2.9-9.7-2.9-14.8,0-3.5.5-6.9,1.4-10.3.9-3.4,2.3-6.6,4-9.6s3.9-5.7,6.4-8.2c2.5-2.4,5.3-4.5,8.3-6.2,13.9-7.2,25.2-7.3,39.1-8.6h-1.6c-4.3,0-12.1.3-20.1.2h-3.8c-1.3,0-2.6,0-3.8,0-1.3,0-2.6.1-3.8.2s-2.5.2-3.8.3c-40.5,3.9-63.8,34-65,37.3v2.6c0,44.9,36.5,83.5,81.3,83.5s11.9-.7,17.8-2c5.8-1.3,11.5-3.3,16.9-5.8,5.4-2.5,10.5-5.7,15.3-9.3,4.7-3.7,9-7.9,12.8-12.5Z"/>
        <path id="Degree" class="st2" d="M28.4,155.7c2.4,1,4.7,2.5,6.6,4.4,1.9,1.9,3.4,4.1,4.4,6.6,1,2.5,1.5,5.1,1.5,7.7,0,8.2-4.9,15.5-12.5,18.7-7.5,3.1-16.2,1.4-22-4.4-5.8-5.8-7.5-14.5-4.4-22,3.1-7.5,10.5-12.5,18.7-12.5s5.3.5,7.7,1.5ZM23.9,182.1c1-.4,1.9-1,2.7-1.8s1.4-1.7,1.8-2.7c.4-1,.6-2.1.6-3.2,0-3.4-2.1-6.5-5.2-7.8-3.1-1.3-6.7-.6-9.2,1.8s-3.1,6-1.8,9.2c1.3,3.1,4.4,5.2,7.8,5.2s2.2-.2,3.2-.6Z"/>
        <path id="Orange_Gradient" class="st4" d="M111.9,202.1c12.5,0,21.9-.2,23.1-.2,35.1-2.6,46.6-39.7,47.6-42.3-26.5,2.6-68.9,1.3-68.9,1.3-43.9-.9-81.3,35.1-82.2,79v.3c.3-2.2,23.8-33.4,65-37.4,1.3-.1,2.6-.2,3.8-.3s2.5-.2,3.8-.2c1.3,0,2.5,0,3.8-.1,1.3,0,2.5,0,3.8,0h0Z"/>
      </g>
      <g id="Celsius">
        <g id="Group_24">
          <path id="Path_55" class="st0" d="M494.5,263.2c.1,0,.3,0,.4,0s.3,0,.4,0c.1,0,.3,0,.4,0h.8c0,0,.2,0,.4,0,.1,0,.3,0,.4,0,0,0,.2.1.3.2,0,0,0,0,.1,0,0,0,0,0,0,.1,0,0,0,0,0,.1,0,0,0,.1,0,.2,0,.2,0,.3,0,.4s0,.3,0,.4c0,.2-.2.3-.3.4,0,0-.2.2-.4.2h-.2c0,.2.2.2.3.3,0,0,.1.2.2.3s0,.2.1.3,0,.2,0,.3v.5c0,0,.1.2.2.2,0,0,0,.2,0,.3h0q0,0,0,0h-1.1c0,0,0-.1,0-.2,0,0,0-.2,0-.2s0-.1,0-.2c0,0,0-.1,0-.2v-.2c0-.4-.3-.5-.7-.5h-.4v1.4h0c0,0-1,0-1,0h0v-4.3h.2-.2ZM77.3,145.2l418.6,118.8h-.4v1h.6c0,0,.1,0,.2,0,0,0,.1,0,.2,0,0,0,.1,0,.2,0h0c0,0,0,0,0-.1h0v-.2c0-.4-.3-.5-.8-.5h0L77.3,145.2Z"/>
          <path id="Path_56" class="st0" d="M496.1,261c.6,0,1.1,0,1.7.3.5.2,1,.5,1.4.9.4.4.7.9,1,1.4.2.5.4,1.1.4,1.6h0c0,.7-.1,1.2-.4,1.8-.2.5-.5,1-1,1.4-.4.4-.9.7-1.4.9-.5.2-1.1.3-1.6.3s-.6,0-.9,0c-.3,0-.6-.2-.8-.3-.3,0-.5-.3-.8-.4-.3-.2-.5-.3-.7-.5-.2-.2-.4-.4-.5-.6s-.3-.5-.4-.7c-.1-.3-.2-.5-.3-.8,0-.3,0-.5,0-.8h0c0-.7.1-1.2.4-1.7.2-.5.5-1,1-1.4.4-.4.9-.7,1.4-.9.5-.2,1.1-.3,1.7-.3h0ZM499.1,264.7c0-.2,0-.4-.2-.6,0-.2-.2-.4-.3-.6s-.2-.4-.4-.5-.3-.3-.5-.4c-.2-.1-.4-.2-.5-.3s-.4-.1-.6-.2c-.2,0-.4,0-.6,0s-.4,0-.6,0c-.2,0-.4,0-.6.2s-.4.2-.5.3c-.2.1-.3.3-.5.4-.1.2-.3.3-.4.5,0,.2-.2.4-.3.6,0,.2-.1.4-.2.6,0,.2,0,.4,0,.6s0,.4,0,.6c0,.2,0,.4.2.6,0,.2.2.4.3.5,0,.2.2.4.4.5s.3.3.5.4c.2.1.4.2.5.3.2,0,.4.2.6.2.2,0,.4,0,.6,0s.4,0,.6,0c.2,0,.4,0,.5-.2.2,0,.4-.2.5-.3s.3-.2.4-.4c.2-.2.3-.3.4-.5.1-.2.2-.4.3-.6,0-.2.1-.4.2-.6,0-.2,0-.4,0-.7s0-.4,0-.6Z"/>
        </g>
        <g id="Group_25">
          <path id="Path_57" class="st1" d="M204.2,270.7c-1.4,0-2.9,0-4.4-.4-1.4-.3-2.9-.7-4.2-1.3-1.3-.5-2.7-1.3-3.9-2.1-1.2-.8-2.3-1.8-3.3-2.9-5.9-6.1-5.8-13.6-5.8-24.1s-.2-18,5.8-24.1c1-1.1,2.1-2,3.3-2.9,1.2-.8,2.5-1.5,3.9-2.1,1.3-.6,2.8-1,4.2-1.3,1.4-.3,2.9-.4,4.4-.4,11,0,19.4,6.5,21.5,19h-11.6c-1.2-4.8-4.1-8.5-9.9-8.5s-1.4,0-2.1.1c-.7.1-1.3.3-2,.6s-1.3.6-1.8,1c-.5.4-1.1.9-1.5,1.4-2.2,2.5-2.9,5.4-2.9,17s.7,14.5,2.9,17c.5.5,1,1,1.5,1.4.5.4,1.2.7,1.8,1,.6.3,1.3.4,2,.6s1.4.2,2.1.2c5.7,0,8.7-3.7,9.9-8.5h11.6c-2.1,12.6-10.7,19-21.5,19h0ZM233.6,270.3v-58.6h38.5v10.2h-27.1v13.7h23.1v10.2h-23.1v14.2h27.1v10.2h-38.5ZM283.3,270.3v-58.6h11.5v48.4h26.5v10.2h-38ZM346.7,270.7c-8.9,0-15.6-1.9-21.4-7.7l7.4-7.4c3.7,3.7,8.7,4.8,14.1,4.8s10.4-2.5,10.4-7.3,0-.9,0-1.3c0-.4-.2-.9-.4-1.3s-.4-.8-.6-1.2c-.2-.4-.5-.7-.8-1.1-.4-.3-.7-.6-1.2-.8-.4-.2-.8-.4-1.3-.6-.4-.2-.9-.3-1.3-.4-.5,0-.9-.2-1.4-.2l-7.1-1c-1.1,0-2.1-.3-3.1-.5s-2-.6-3-1-1.9-.9-2.8-1.4c-.9-.6-1.7-1.2-2.5-1.9-.7-.8-1.4-1.6-1.9-2.5s-1-1.8-1.3-2.8c-.4-1-.6-2-.8-3.1s-.2-2.1-.2-3.1c0-10.4,7.7-17.7,20.4-17.7s13.9,2,18.9,6.8l-7.2,7.2c-3.7-3.5-8.1-4-12-4-6.1,0-9,3.4-9,7.4s0,.8,0,1.2c0,.4.2.8.3,1.1s.3.7.5,1,.4.6.7.9c.4.3.8.6,1.2.9.4.3.9.5,1.3.7.4.2.9.4,1.4.5s1,.2,1.4.3l6.9,1c5.3.7,8.7,2.2,11.2,4.5,3.1,3,4.5,7.2,4.5,12.4,0,11.3-9.5,17.8-21.7,17.8h0c0,0,0,0,0,0ZM377.1,211.7h11.3v58.6h-11.3v-58.6ZM421.6,270.7c-12,0-21.5-8.1-21.5-20.6v-38.5h11.3v38.1c0,6.7,4,10.8,10.1,10.8s10.2-4,10.2-10.8v-38.1h11.4v38.5c0,12.4-9.5,20.6-21.5,20.6h0,0ZM469.9,270.7c-8.9,0-15.6-1.9-21.4-7.7l7.4-7.4c3.7,3.7,8.7,4.8,14.2,4.8s10.3-2.5,10.3-7.2,0-.9,0-1.3c0-.4-.2-.9-.3-1.3s-.4-.8-.6-1.2c-.2-.4-.5-.7-.8-1.1-.4-.3-.7-.6-1.2-.8-.4-.3-.8-.5-1.3-.6-.4-.2-.9-.3-1.3-.4s-.9-.2-1.4-.2l-7.1-1c-1.1,0-2.1-.3-3.1-.5-1-.3-2-.6-3-1-1-.4-1.9-.9-2.8-1.4-.9-.5-1.7-1.2-2.5-1.9-.7-.8-1.3-1.6-1.9-2.5-.5-.9-1-1.8-1.3-2.8s-.6-2-.7-3.1-.2-2.1-.1-3.1c0-10.4,7.7-17.7,20.4-17.7s13.9,2,18.9,6.8l-7.2,7.2c-3.7-3.5-8.1-4-12-4-6.1,0-9.1,3.4-9.1,7.4s0,.8,0,1.2c0,.4.2.8.4,1.1s.3.7.5,1,.4.6.7.9c.4.3.8.6,1.2.9.4.3.9.5,1.3.7.4.2.9.4,1.4.5s1,.2,1.4.3l6.9,1c5.4.7,8.7,2.2,11.2,4.5,3.1,3,4.6,7.2,4.6,12.4,0,11.3-9.5,17.8-21.7,17.8h0q0,0,0,0Z"/>
        </g>
      </g>
      <g id="Live_Fit">
        <g id="Group_27">
          <path id="Path_64" class="st6" d="M377.1,302.5v-20h3.9v16.5h9.1v3.5h-13ZM394.7,282.5h3.9v20h-3.9v-20ZM411.9,302.5h-2.9l-6.6-20h4l4,12.9,4-12.9h4l-6.6,20ZM422.4,302.5v-20h13.2v3.5h-9.2v4.7h7.9v3.5h-7.9v4.8h9.2v3.5h-13.2ZM452.5,286v4.9h7.9v3.5h-7.9v8.1h-3.9v-20h13.2v3.5h-9.2ZM466.6,282.5h3.9v20h-3.9v-20ZM484.3,286v16.5h-3.9v-16.5h-5.2v-3.5h14.4v3.5h-5.2Z"/>
        </g>
      </g>
    </g>
  </g>
</svg>