<?xml version="1.0" encoding="UTF-8"?>
<svg id="Layer_1" xmlns="http://www.w3.org/2000/svg" version="1.1" viewBox="0 0 500 500">
  <!-- Generator: Adobe Illustrator 29.2.1, SVG Export Plug-In . SVG Version: 2.1.0 Build 116)  -->
  <defs>
    <style>
      .st0 {
        fill: #fff;
      }

      .st1 {
        fill: #e53d2e;
      }
    </style>
  </defs>
  <path class="st0" d="M269.2,247.9c12.1,0,20.3,9.3,20.3,23.2v25.8c0,.3-.3.7-.7.7h-11.8c-.3,0-.7-.3-.7-.7v-25.7c0-5.4-2.6-11.2-10-11.2h-.2c-5.6.1-10.4,5.1-10.4,10.8v26.1c0,.3-.3.7-.7.7h-11.7c-.3,0-.7-.3-.7-.7v-47.8c0-.3.3-.7.7-.7h11.4c.3,0,.7.3.7.7v4.2c4.3-3.8,8.8-5.5,13.9-5.5ZM449.6,289c-.2.2-.1.7.1.9,7.1,7.1,14.7,8,21.3,8s16.3-3.5,19.2-9.8c.9-1.9,1.4-4,1.4-6.1,0-12.6-10.9-14.9-20.4-15.5-7.5-.5-7.5-3.1-7.5-4,0-3.2,5.1-3.5,7.3-3.5,4.2,0,7.4,1,10,3.3.2.2.7.2.9-.1l6.7-7.7c.2-.2.2-.7-.1-.9-4.9-4.1-10.1-5.8-17.8-5.8s-9.7,1.3-13.2,3.3c-4.6,2.7-6.9,6.8-6.9,11.8,0,8.8,6.9,14.1,19.7,15,7.2.5,8.1,2.5,8.1,4.3,0,2.6-3.5,4-6.9,4h-.3c-5.6-.1-10.9-2.2-14.5-5.5-.3-.2-.8-.2-1,.1l-6,8.2ZM330.7,281c1.9-2.3,2.8-5.5,2.8-8.9,0-6.1-3.8-12.6-12.9-12.6s-12.5,5.1-12.5,12.8,5,12.9,12.5,12.9,7.7-1.5,10-4.1ZM333.2,249.1c0-.3.3-.7.7-.7h11.7c.3,0,.7.3.7.7v47.9c0,.3-.3.7-.7.7h-11.7c-.3,0-.7-.3-.7-.7v-3.6c-4.1,3.8-9,3.9-13.2,4h-.7c-7.1,0-13-2.2-17.3-6.4-4.6-4.4-6.8-10.9-6.8-18.7,0-15,9.6-24.7,24.5-24.7h.2c4.7,0,9.6.5,13.4,3.6v-2.2ZM187.3,236.6v-11.5c0-.5-.3-.8-.8-.8h-42.7c-.5,0-.8.3-.8.8v71.7c0,.5.3.8.8.8h11.5c.5,0,.8-.3.8-.8v-29.3c0-.5.3-.8.8-.8h21.5c.5,0,.8-.3.8-.8v-11.6c0-.5-.3-.8-.8-.8h-21.5c-.5,0-.8-.3-.8-.8v-14.5c0-.5.3-.8.8-.8h29.5c.6,0,.9-.5.9-.9ZM438.4,282.3c-.2-.2-.7-.2-.9,0-2.3,1.9-5.2,3-8.1,3-7.2,0-12.2-5.1-12.2-12.5s5-12.5,12.2-12.5,5.7,1,8.1,3c.2.2.7.2.9,0l7.6-8c.2-.2.2-.7,0-.9-4.9-4.7-9.9-6.6-16.7-6.6-15.4,0-25.3,9.9-25.3,25.3s9.9,25.3,25.3,25.3,11.8-1.9,16.7-6.6c.2-.2.2-.7,0-.9l-7.6-8.4ZM377.1,297.7c.3,0,.7-.3.7-.7v-10.7c0-.3-.3-.7-.7-.7h-5.8c-3.4-.1-5-1.8-5-5.5v-18.3h10.8c.3,0,.7-.3.7-.7v-12c0-.3-.3-.7-.7-.7h-10.7v-10.4c0-.3-.3-.7-.7-.7h-11.8c-.3,0-.7.3-.7.7v42c0,11.2,6.3,17.5,17.3,17.5h6.6ZM219.8,281c1.9-2.3,2.8-5.5,2.8-8.9,0-6.1-3.8-12.6-12.9-12.6s-12.5,5.1-12.5,12.8,5,12.9,12.5,12.9,7.9-1.5,10-4.1ZM222.4,249.1c0-.3.3-.7.7-.7h11.7c.3,0,.7.3.7.7v47.9c0,.3-.3.7-.7.7h-11.7c-.3,0-.7-.3-.7-.7v-3.6c-4.1,3.8-9,3.9-13.2,4h-.7c-7.1,0-13-2.2-17.3-6.4-4.6-4.4-6.8-10.9-6.8-18.7-.1-15,9.4-24.8,24.2-24.8h.2c4.7,0,9.6.5,13.4,3.6v-2ZM384.8,297.7h11.8c.3,0,.7-.3.7-.7v-47.9c0-.3-.3-.7-.7-.7h-11.8c-.3,0-.7.3-.7.7v47.9c.1.3.3.7.7.7ZM398.3,233.9c0-9.7-14.6-9.7-14.6,0-.1,9.6,14.6,9.6,14.6,0Z"/>
  <path class="st1" d="M123,210.4l-12.3,19.1c-.2.3-.8.6-1.1.3-28.3-14.2-61.1,12-90.1,5.7-.2-.1-.5-.2-.7-.5.1,0-13.9-21.4-18.6-28.6-.6-.9.1-2.2,1.4-2,2.5.6,13.4,3,21.9,3.6,43.8,2.4,67.6-23.9,99.4,1,.3.2.5.8.1,1.3ZM87.2,265.1c.2.1.5,0,.7-.2l14.8-23.1c.2-.3,0-.7-.3-.8-21.5-7.4-41.7,6.8-72.4,7.6-.8,0-1.6.9-1,1.9l33.1,51.2c.5.9,1.6.3,1.5-.5l-7.2-32.4c-.1-.3.1-.6.3-.7,2.8-.8,21.6-7.2,30.5-3.1Z"/>
  <path class="st0" d="M500.1,243.3c0,2.4-1.5,4.3-4.2,4.3s-4.2-1.9-4.2-4.3,1.5-4.3,4.2-4.3,4.2,1.9,4.2,4.3ZM495.9,246.9c2.3,0,3.5-1.6,3.5-3.6s-1.3-3.6-3.5-3.6-3.5,1.6-3.5,3.6,1.3,3.6,3.5,3.6ZM496.5,243.8c1.7-.2,1.6-2.8-.3-2.8h-2v4.4h.7v-1.6h.9l1.4,1.6h.8c0-.1-1.4-1.6-1.4-1.6ZM496.2,241.7c1.1,0,1.1,1.6,0,1.6h-1.4v-1.6h1.4Z"/>
</svg>