<?xml version="1.0" encoding="UTF-8"?>
<svg id="Layer_1" xmlns="http://www.w3.org/2000/svg" version="1.1" viewBox="0 0 500 500">
  <!-- Generator: Adobe Illustrator 29.2.1, SVG Export Plug-In . SVG Version: 2.1.0 Build 116)  -->
  <defs>
    <style>
      .st0 {
        fill: #9ebee0;
      }

      .st1 {
        fill: #7b7b79;
      }
    </style>
  </defs>
  <path class="st0" d="M231.3,136.9s-34.2,0-58.7,25.4c0,0-23.6,25.4-24.5,60.4,0,0,0,35.9,24.5,61.3,0,0,24.5,25.4,58.7,25.4,0,0,34.2,0,58.7-25.4,0,0,24.5-25.4,24.5-60.4h0s0-35.9-24.5-60.4c0,0-24.5-25.4-58.7-25.4v-.9ZM231.3,144.8s13.1,0,25.4,5.3c0,0,21,9.6,32.4,30.6,0,0,10.5,18.4,10.5,41.2h0s0,23.6-10.5,42c0,0-12.3,21-32.4,29.8,0,0-12.3,5.3-25.4,5.3,0,0-13.1,0-25.4-5.3,0,0-20.1-9.6-32.4-30.6,0,0-10.5-18.4-10.5-41.2h0s0-23.6,10.5-42c0,0,12.3-21,32.4-30.6,0,0,12.3-5.3,25.4-5.3v.9Z"/>
  <path class="st0" d="M488.8,348.8l-102.5-129.6,55.2-65.7s8.8-10.5,16.6-15.8h-24.5s-1.8,6.1-8.8,15.8l-43.8,59.5-45.5-59.5s-6.1-7.9-8.8-15.8h-27.1l6.1,4.4,14.9,16.6,50.8,64.8-56,67.4-11.4,12.3-5.3,3.5h24.5s.9-4.4,5.3-10.5l3.5-5.3,44.7-60.4,98.9,127,2.6,4.4h21.9s-1.8,0-11.4-12.3v-.9Z"/>
  <path class="st1" d="M305.8,330.4v31.5h5.3v-10.5h7l7.9,10.5h6.1l-8.8-12.3c7-1.8,7-9.6,7-9.6,0-10.5-11.4-10.5-11.4-10.5h-14l.9.9ZM311,335.7h7.9c6.1,0,6.1,5.3,6.1,5.3,0,5.3-6.1,5.3-6.1,5.3h-7.9v-10.5Z"/>
  <path class="st1" d="M343.4,330.4v31.5h-5.3v-31.5h5.3Z"/>
  <path class="st1" d="M243.6,330.4v31.5h5.3v-10.5h7l7.9,10.5h7l-8.8-12.3c7.9-1.8,7.9-9.6,7.9-9.6,0-10.5-11.4-10.5-11.4-10.5h-14l-.9.9ZM248.8,335.7h7.9c7,0,7,5.3,7,5.3,0,5.3-6.1,5.3-6.1,5.3h-7.9v-10.5h-.9Z"/>
  <path class="st1" d="M276,330.4v31.5h5.3v-10.5h6.1c12.3,0,12.3-10.5,12.3-10.5,0-10.5-12.3-10.5-12.3-10.5h-12.3.9ZM281.2,335.7h6.1c7,0,7,5.3,7,5.3,0,5.3-7,5.3-7,5.3h-6.1v-11.4.9Z"/>
  <path class="st1" d="M353,353.2s4.4,4.4,9.6,4.4c0,0,5.3,0,5.3-3.5,0,0,0-3.5-7-5.3,0,0-10.5-2.6-10.5-9.6,0,0,0-8.8,10.5-8.8,0,0,6.1,0,11.4,4.4l-3.5,4.4s-4.4-3.5-8.8-3.5c0,0-5.3,0-5.3,3.5,0,0,0,3.5,7,5.3,0,0,10.5,2.6,10.5,9.6,0,0,0,9.6-11.4,9.6,0,0-7,0-13.1-5.3l3.5-4.4,1.8-.9Z"/>
  <path class="st1" d="M420.5,334.8s-5.3,0-5.3,3.5c0,0,0,3.5,7.9,5.3,0,0,9.6,2.6,9.6,9.6,0,0,0,9.6-11.4,9.6,0,0-7,0-13.1-5.3l3.5-4.4s4.4,4.4,9.6,4.4c0,0,5.3,0,5.3-3.5,0,0,0-3.5-7-5.3,0,0-10.5-2.6-10.5-9.6,0,0,0-8.8,10.5-8.8,0,0,6.1,0,11.4,4.4l-3.5,4.4s-4.4-3.5-8.8-3.5l1.8-.9Z"/>
  <path class="st1" d="M386.3,343.6h15.8v5.3h-15.8v8.8h17.5v5.3h-23.6v-31.5h23.6v5.3h-17.5v7.9-.9Z"/>
  <path class="st0" d="M137.6,150.1s-28.9-14.9-56-13.1c0,0-34.2,0-57.8,25.4,0,0-23.6,25.4-23.6,60.4,0,0,0,35.9,24.5,60.4,0,0,23.6,25.4,57.8,25.4,0,0,25.4.9,55.2-14v-21.9s-21,26.3-55.2,27.1c0,0-13.1,0-25.4-5.3,0,0-20.1-9.6-32.4-29.8,0,0-10.5-18.4-10.5-41.2,0,0,0-23.6,10.5-42,0,0,11.4-21,32.4-30.6,0,0,12.3-5.3,25.4-5.3,0,0,34.2.9,55.2,27.1v-22.8Z"/>
  <path class="st1" d="M197.2,335.7v26.3h-5.3v-26.3h-9.6v-5.3h25.4v5.3h-10.5Z"/>
  <path class="st1" d="M236.6,334.8h-17.5v7.9h15.8v5.3h-15.8v8.8h18.4v5.3h-23.6v-31.5h23.6v5.3l-.9-.9Z"/>
  <path class="st1" d="M142,334.8h-17.5v7.9h15.8v5.3h-15.8v8.8h17.5v5.3h-23.6v-31.5h22.8v5.3l.9-.9Z"/>
  <path class="st1" d="M170.9,351.5v-21.9h5.3v31.5h-4.4l-17.5-22.8v22.8h-5.3v-31.5h5.3l16.6,21.9Z"/>
</svg>