<?xml version="1.0" encoding="UTF-8"?>
<svg id="Layer_1" xmlns="http://www.w3.org/2000/svg" version="1.1" viewBox="0 0 500 500">
  <!-- Generator: Adobe Illustrator 29.2.1, SVG Export Plug-In . SVG Version: 2.1.0 Build 116)  -->
  <defs>
    <style>
      .st0 {
        fill: #fff;
      }

      .st1 {
        fill: #013369;
      }

      .st2 {
        fill: #d50a0a;
      }
    </style>
  </defs>
  <path class="st0" d="M420.3,57.6c-15.5,11.1-45.4,26.5-84.1,16.6C269.8,57.6,249.9.1,249.9.1c0,0-18.8,57.5-86.3,74.1-38.7,10-68.6-5.5-84.1-16.6h-12.2v309.7c0,7.7,2.2,23.2,14.4,38.7,15.5,18.8,42,31,79.6,36.5,29.9,4.4,50.9,13.3,66.4,27.7,11.1,11.1,22.1,29.9,22.1,29.9,0,0,11.1-18.8,22.1-29.9,15.5-14.4,37.6-24.3,66.4-27.7,36.5-5.5,63.1-17.7,79.6-36.5,13.3-15.5,14.4-31,14.4-38.7V57.6h-12.2Z"/>
  <path class="st1" d="M421.4,69.8s-36.5,28.8-88.5,15.5c-59.7-14.4-83-59.7-83-59.7,0,0-23.2,45.4-83,59.7-50.9,13.3-88.5-15.5-88.5-15.5v297.6c0,10,4.4,53.1,85.2,64.2,32.1,4.4,55.3,14.4,73,31,5.5,5.5,11.1,12.2,14.4,17.7,3.3-5.5,7.7-11.1,14.4-17.7,16.6-16.6,40.9-26.5,73-31,80.8-12.2,85.2-54.2,85.2-64.2V69.8h-2.2Z"/>
  <path class="st0" d="M249.9,449.2s23.2-28.8,84.1-37.6c69.7-11.1,67.5-43.1,67.5-44.2v-156H98.4v156c0,2.2-2.2,34.3,67.5,44.2,60.8,8.8,84.1,37.6,84.1,37.6h0Z"/>
  <path class="st2" d="M179.1,325.3v-74.1l-8.8-5.5v-18.8h42v18.8l-8.8,5.5v151.5l-23.2-6.6-33.2-96.2v64.2l10,7.7v19.9l-45.4-11.1v-16.6l10-4.4v-106.2l-11.1-5.5v-18.8h34.3l32.1,98.5,2.2-2.2ZM257.6,392.8l8.8,11.1v18.8l-45.4-16.6v-16.6l10-4.4v-135l-10-4.4v-19.9h78.5v38.7h-17.7l-5.5-15.5h-19.9v45.4h15.5l5.5-8.8h12.2v39.8h-12.2l-5.5-7.7h-15.5v74.1h0l1.1,1.1ZM307.4,399.4v-18.8l11.1-8.8v-120.6l-10-4.4v-19.9h45.4v19.9l-8.8,4.4v112.8l19.9-5.5,3.3-29.9h18.8v49.8l-79.6,21h0Z"/>
  <path class="st0" d="M106.1,179.3l-13.3-10h16.6l5.5-15.5,5.5,15.5h16.6l-13.3,10,5.5,15.5-13.3-10-13.3,10,5.5-15.5h-2.2ZM165.8,179.3l-13.3-10h16.6l5.5-15.5,5.5,15.5h16.6l-13.3,10,5.5,15.5-13.3-10-13.3,10,5.5-15.5h-2.2ZM106.1,126.2l-13.3-10h16.6l5.5-15.5,5.5,15.5h16.6l-13.3,10,5.5,15.5-13.3-10-13.3,10,5.5-15.5h-2.2ZM165.8,126.2l-13.3-10h16.6l5.5-15.5,5.5,15.5h16.6l-13.3,10,5.5,15.5-13.3-10-13.3,10,5.5-15.5h-2.2ZM398.1,195.9l-13.3-10-13.3,10,5.5-15.5-13.3-10h16.6l5.5-15.5,5.5,15.5h16.6l-13.3,10,5.5,15.5h-2.2ZM338.4,195.9l-13.3-10-13.3,10,5.5-15.5-13.3-10h16.6l5.5-15.5,5.5,15.5h16.6l-13.3,10,5.5,15.5h-2.2ZM398.1,141.7l-13.3-10-13.3,10,5.5-15.5-13.3-10h16.6l5.5-15.5,5.5,15.5h16.6l-13.3,10,5.5,15.5h-2.2ZM338.4,141.7l-13.3-10-13.3,10,5.5-15.5-13.3-10h16.6l5.5-15.5,5.5,15.5h16.6l-13.3,10,5.5,15.5h-2.2ZM287.5,83.1c1.1,0,2.2,1.1,3.3,2.2,5.5,14.4,7.7,33.2,3.3,50.9-6.6,26.5-28.8,50.9-77.4,57.5h-2.2c2.2-10,7.7-29.9,18.8-49.8,2.2,1.1,4.4,3.3,6.6,4.4,0-1.1,2.2-2.2,3.3-4.4-5.5-4.4-13.3-7.7-19.9-8.8,0,0-1.1,3.3-2.2,5.5,0,0,3.3,0,6.6,2.2-10,22.1-14.4,42-15.5,52-3.3-4.4-5.5-15.5-5.5-21-7.7-56.4,33.2-88.5,76.3-89.6h4.4s-10,3.3-21,12.2c0,0-2.2,0-5.5-2.2-2.2,0-3.3,2.2-5.5,3.3,5.5,1.1,12.2,4.4,18.8,8.8,1.1-1.1,3.3-2.2,4.4-4.4-1.1-1.1-4.4-3.3-6.6-4.4,10-10,16.6-13.3,16.6-13.3h0l-1.1-1.1ZM246.6,136.2c0-1.1,2.2-3.3,3.3-5.5-5.5-4.4-12.2-7.7-21-10-1.1,2.2-3.3,5.5-3.3,5.5,6.6,1.1,14.4,4.4,21,10ZM254.3,125.1c1.1-2.2,2.2-3.3,4.4-4.4-6.6-5.5-14.4-8.8-21-10l-4.4,4.4c7.7,1.1,15.5,5.5,21,10ZM263.2,114c1.1-1.1,2.2-3.3,4.4-4.4-4.4-3.3-10-7.7-18.8-10-1.1,1.1-3.3,2.2-5.5,4.4,6.6,1.1,14.4,4.4,19.9,10h0Z"/>
</svg>