<?xml version="1.0" encoding="UTF-8"?>
<svg id="Layer_1" xmlns="http://www.w3.org/2000/svg" version="1.1" viewBox="0 0 55 55">
  <!-- Generator: Adobe Illustrator 29.0.1, SVG Export Plug-In . SVG Version: 2.1.0 Build 192)  -->
  <defs>
    <style>
      .st0 {
        fill: #fff;
      }
    </style>
  </defs>
  <path class="st0" d="M14.3,50.5c-.8-.2-1.5-.4-2.1-1-.8-.7-1.3-1.6-1.4-2.6,0-.2,0-.5,0-.7v-17.4c0-1.4.5-2.6,1.6-3.5.8-.6,1.8-.8,2.8-.8v-.5c0-2.3,0-4.5,0-6.8,0-3.4,1-6.4,3.4-8.8,2.9-3.1,6.5-4.4,10.7-3.8,4.5.7,7.6,3.2,9.5,7.3.9,2,1.2,4.1.9,6.3-.2,2-2.3,3.5-4.3,3.3-1,0-2-.6-2.7-1.4-.7-.8-1.1-1.8-1-2.8,0-1.5-.4-2.8-1.6-3.8-1.9-1.6-5-1.1-6.2,1.1-.4.7-.6,1.4-.6,2.2v7.5c0,0,0,.1,0,.3h16.3c1.2,0,2.2.2,3.2.9,1,.8,1.5,1.9,1.5,3.2,0,5.9,0,11.8,0,17.7,0,2.1-1.3,3.6-3.4,4,0,0,0,0-.1,0H14.3ZM27.5,48.2h12.5c1.3,0,1.9-.6,1.9-2v-17.5c0-1.2-.7-1.9-1.9-1.9H14.9c-.2,0-.4,0-.6,0-.8.2-1.3.9-1.3,1.9v17.3c0,1.4.6,2,2.1,2h12.4ZM20.9,24.5v-.5c0-2.3,0-4.6,0-7,0-.5,0-1,.1-1.5.6-2.9,3-5,6-5.3,2.8-.2,5.6,1.6,6.6,4.3.4,1,.4,2,.4,3.1,0,.9.8,1.6,1.7,1.6.4,0,.8-.2,1.2-.5.3-.3.5-.7.5-1.1,0-1.7-.1-3.3-.8-4.8-2.3-5-7.7-7.3-12.9-5.3-3.5,1.3-6.2,5.1-6.3,8.8,0,2.6,0,5.3,0,8,0,0,0,.2,0,.3h3.4Z"/>
  <path class="st0" d="M48.8,15.7c0,.2,0,.4-.1.6-.1.2-.2.3-.4.4-1.3.8-2.7,1.5-4,2.3-.6.3-1.3.1-1.6-.4-.1-.3-.2-.6-.1-.9,0-.3.3-.5.5-.7,1.3-.8,2.7-1.6,4-2.3.8-.5,1.7,0,1.7,1Z"/>
  <path class="st0" d="M42.5,22.6c0-.9.9-1.4,1.7-1,1,.5,2,1.1,3,1.7.4.2.7.4,1,.6.5.3.7,1.1.4,1.6,0,.1-.2.2-.3.3-.1,0-.3.2-.4.2s-.3,0-.4,0c-.1,0-.3,0-.4-.1-1.4-.8-2.7-1.5-4-2.3-.2-.1-.3-.2-.4-.4,0-.2-.1-.4-.1-.6Z"/>
  <path class="st0" d="M27.5,45.9h-2.1c-.9,0-1.4-.5-1.4-1.4,0-2,0-4,0-6,0-.1,0-.3,0-.4,0-.1-.1-.2-.2-.3-1.5-1.6-1.8-4-.8-5.9,1-2,3.2-3,5.5-2.7,2.1.3,3.8,2.1,4.1,4.2.3,1.7-.2,3.2-1.4,4.4-.2.2-.2.4-.3.7,0,2,0,4,0,6,0,1-.4,1.4-1.4,1.4-.7,0-1.4,0-2.1,0ZM28.7,43.6v-.5c0-1.6,0-3.3,0-4.9,0-.8.2-1.3.8-1.8,1.2-1,1.2-3,0-4.1-1.2-1.1-3.1-1-4.1.2-1,1.2-.9,2.9.3,4,.2.2.4.4.5.7.1.3.2.6.2.9,0,1.7,0,3.4,0,5.1v.5h2.3Z"/>
</svg>