<svg width="168" height="51" viewBox="0 0 168 51" fill="none" xmlns="http://www.w3.org/2000/svg">
<path d="M53.3871 47.1768L50.3775 40.3955H51.3334L54.0976 46.6859H53.6455L56.4484 40.3955H57.3526L54.3301 47.1768H53.3871ZM69.8604 47.2413C69.1543 47.2413 68.5343 47.095 68.0004 46.8022C67.4665 46.5008 67.0488 46.0918 66.7474 45.5751C66.4461 45.0498 66.2954 44.4513 66.2954 43.7797C66.2954 43.108 66.4374 42.5138 66.7216 41.9972C67.0144 41.4805 67.4105 41.0758 67.9099 40.783C68.418 40.4816 68.9863 40.3309 69.615 40.3309C70.2522 40.3309 70.8162 40.4773 71.307 40.7701C71.8065 41.0542 72.1983 41.459 72.4825 41.9842C72.7666 42.5009 72.9087 43.0994 72.9087 43.7797C72.9087 43.8227 72.9044 43.8701 72.8958 43.9217C72.8958 43.9648 72.8958 44.0122 72.8958 44.0638H66.9929V43.3792H72.405L72.0433 43.6505C72.0433 43.1597 71.9357 42.7248 71.7204 42.3459C71.5137 41.9584 71.2295 41.657 70.8679 41.4417C70.5062 41.2265 70.0886 41.1188 69.615 41.1188C69.15 41.1188 68.7323 41.2265 68.362 41.4417C67.9918 41.657 67.7033 41.9584 67.4966 42.3459C67.2899 42.7334 67.1866 43.1769 67.1866 43.6763V43.8184C67.1866 44.3351 67.2986 44.7915 67.5224 45.1876C67.7549 45.5751 68.0736 45.8808 68.4783 46.1047C68.8916 46.3199 69.3609 46.4276 69.8862 46.4276C70.2995 46.4276 70.6827 46.3544 71.0358 46.208C71.3975 46.0616 71.7075 45.8377 71.9658 45.5363L72.4825 46.1305C72.1811 46.4922 71.8022 46.7677 71.3458 46.9572C70.898 47.1466 70.4029 47.2413 69.8604 47.2413ZM86.7621 40.3309C87.3132 40.3309 87.7954 40.4385 88.2087 40.6538C88.6307 40.8605 88.9579 41.1791 89.1904 41.6097C89.4315 42.0402 89.5521 42.5827 89.5521 43.2372V47.1768H88.635V43.3276C88.635 42.6129 88.4542 42.0747 88.0925 41.713C87.7394 41.3427 87.24 41.1576 86.5942 41.1576C86.1119 41.1576 85.69 41.2566 85.3283 41.4547C84.9753 41.6441 84.6997 41.924 84.5017 42.2942C84.3122 42.6559 84.2175 43.0951 84.2175 43.6117V47.1768H83.3004V40.3955H84.1787V42.2555L84.0367 41.9067C84.2519 41.4159 84.5964 41.0327 85.07 40.7572C85.5436 40.473 86.1076 40.3309 86.7621 40.3309ZM102.698 47.2413C102.061 47.2413 101.57 47.0691 101.226 46.7247C100.882 46.3802 100.709 45.8937 100.709 45.2651V38.8972H101.626V45.2134C101.626 45.6095 101.725 45.9152 101.923 46.1305C102.13 46.3458 102.423 46.4534 102.802 46.4534C103.207 46.4534 103.542 46.3372 103.809 46.1047L104.132 46.7634C103.951 46.927 103.732 47.0476 103.473 47.1251C103.224 47.2026 102.965 47.2413 102.698 47.2413ZM99.4951 41.1576V40.3955H103.693V41.1576H99.4951ZM117.13 47.2413C116.553 47.2413 116.049 47.1337 115.618 46.9184C115.188 46.7031 114.852 46.3802 114.611 45.9497C114.378 45.5191 114.262 44.9809 114.262 44.3351V40.3955H115.179V44.2317C115.179 44.9551 115.356 45.5019 115.709 45.8722C116.07 46.2338 116.574 46.4147 117.22 46.4147C117.694 46.4147 118.103 46.3199 118.447 46.1305C118.8 45.9324 119.067 45.6483 119.248 45.278C119.437 44.9077 119.532 44.4643 119.532 43.9476V40.3955H120.449V47.1768H119.571V45.3168L119.713 45.6526C119.498 46.152 119.162 46.5438 118.705 46.828C118.258 47.1036 117.732 47.2413 117.13 47.2413ZM131.53 47.1768V40.3955H132.408V42.2426L132.318 41.9197C132.508 41.403 132.826 41.0112 133.274 40.7442C133.722 40.4687 134.277 40.3309 134.94 40.3309V41.2222C134.906 41.2222 134.871 41.2222 134.837 41.2222C134.802 41.2135 134.768 41.2092 134.733 41.2092C134.019 41.2092 133.459 41.4288 133.054 41.868C132.65 42.2985 132.447 42.9142 132.447 43.7151V47.1768H131.53ZM147.956 47.2413C147.25 47.2413 146.63 47.095 146.096 46.8022C145.562 46.5008 145.144 46.0918 144.843 45.5751C144.542 45.0498 144.391 44.4513 144.391 43.7797C144.391 43.108 144.533 42.5138 144.817 41.9972C145.11 41.4805 145.506 41.0758 146.006 40.783C146.514 40.4816 147.082 40.3309 147.711 40.3309C148.348 40.3309 148.912 40.4773 149.403 40.7701C149.902 41.0542 150.294 41.459 150.578 41.9842C150.862 42.5009 151.004 43.0994 151.004 43.7797C151.004 43.8227 151 43.8701 150.991 43.9217C150.991 43.9648 150.991 44.0122 150.991 44.0638H145.088V43.3792H150.501L150.139 43.6505C150.139 43.1597 150.031 42.7248 149.816 42.3459C149.609 41.9584 149.325 41.657 148.963 41.4417C148.602 41.2265 148.184 41.1188 147.711 41.1188C147.246 41.1188 146.828 41.2265 146.458 41.4417C146.087 41.657 145.799 41.9584 145.592 42.3459C145.386 42.7334 145.282 43.1769 145.282 43.6763V43.8184C145.282 44.3351 145.394 44.7915 145.618 45.1876C145.851 45.5751 146.169 45.8808 146.574 46.1047C146.987 46.3199 147.457 46.4276 147.982 46.4276C148.395 46.4276 148.778 46.3544 149.131 46.208C149.493 46.0616 149.803 45.8377 150.061 45.5363L150.578 46.1305C150.277 46.4922 149.898 46.7677 149.441 46.9572C148.994 47.1466 148.498 47.2413 147.956 47.2413ZM163.217 47.2413C162.658 47.2413 162.128 47.1638 161.629 47.0088C161.129 46.8452 160.737 46.6429 160.453 46.4018L160.866 45.6784C161.142 45.8851 161.495 46.0659 161.926 46.2209C162.356 46.3673 162.808 46.4405 163.282 46.4405C163.928 46.4405 164.393 46.3415 164.677 46.1434C164.961 45.9368 165.103 45.6655 165.103 45.3297C165.103 45.0799 165.021 44.8862 164.858 44.7484C164.703 44.602 164.496 44.4944 164.238 44.4255C163.979 44.348 163.691 44.2834 163.372 44.2317C163.054 44.1801 162.735 44.1198 162.416 44.0509C162.106 43.982 161.822 43.883 161.564 43.7538C161.306 43.6161 161.095 43.4309 160.931 43.1984C160.776 42.9659 160.699 42.6559 160.699 42.2684C160.699 41.8981 160.802 41.5666 161.009 41.2738C161.215 40.981 161.517 40.7529 161.913 40.5892C162.317 40.417 162.808 40.3309 163.385 40.3309C163.824 40.3309 164.264 40.3912 164.703 40.5117C165.142 40.6237 165.504 40.7744 165.788 40.9638L165.387 41.7001C165.086 41.4934 164.763 41.347 164.419 41.2609C164.074 41.1662 163.73 41.1188 163.385 41.1188C162.774 41.1188 162.322 41.2265 162.029 41.4417C161.745 41.6484 161.603 41.9154 161.603 42.2426C161.603 42.5009 161.68 42.7033 161.835 42.8497C161.999 42.9961 162.21 43.1123 162.468 43.1984C162.735 43.2759 163.024 43.3405 163.334 43.3922C163.652 43.4438 163.966 43.5084 164.276 43.5859C164.595 43.6548 164.884 43.7538 165.142 43.883C165.409 44.0036 165.62 44.1801 165.775 44.4126C165.938 44.6365 166.02 44.9336 166.02 45.3038C166.02 45.6999 165.908 46.0444 165.684 46.3372C165.469 46.6213 165.15 46.8452 164.729 47.0088C164.315 47.1638 163.811 47.2413 163.217 47.2413Z" fill="#222222"/>
<path d="M10.7742 25.4219C11.0182 25.546 11.2402 25.7092 11.4313 25.9051L16.1808 30.6546C16.3154 30.7897 16.4754 30.8969 16.6516 30.9701C16.8278 31.0432 17.0167 31.0809 17.2075 31.0809C17.3982 31.0809 17.5871 31.0432 17.7633 30.9701C17.9395 30.8969 18.0995 30.7897 18.2342 30.6546L32.555 16.3289C32.6901 16.1942 32.7973 16.0342 32.8705 15.858C32.9437 15.6818 32.9813 15.4929 32.9813 15.3022C32.9813 15.1114 32.9437 14.9225 32.8705 14.7463C32.7973 14.5701 32.6901 14.4101 32.555 14.2755C29.7899 11.6104 26.2766 9.85385 22.4855 9.24101C18.6944 8.62816 14.8066 9.18831 11.3427 10.8464C7.87877 12.5045 5.0042 15.1815 3.10392 18.5187C1.20365 21.8559 0.368391 25.694 0.710047 29.5191C0.740414 29.7902 0.846665 30.0472 1.01656 30.2606C1.18646 30.474 1.41312 30.6351 1.67049 30.7254C1.92787 30.8158 2.2055 30.8317 2.47149 30.7713C2.73748 30.7109 2.98105 30.5766 3.17417 30.384L7.66269 25.8954C8.06446 25.4973 8.5822 25.237 9.14136 25.1519C9.70052 25.0668 10.2722 25.1614 10.7742 25.4219Z" fill="#222222"/>
<path d="M19.085 37.3219C18.6543 37.7507 18.0906 38.0202 17.4865 38.086C16.8823 38.1519 16.2738 38.0102 15.7608 37.6843C15.6086 37.5858 15.469 37.469 15.3453 37.3364L10.5717 32.5676C10.3 32.2962 9.93156 32.1437 9.54744 32.1437C9.16333 32.1437 8.79493 32.2962 8.52315 32.5676L4.2617 36.8291C4.01823 37.0703 3.86813 37.3901 3.83805 37.7315C3.80798 38.0729 3.89987 38.414 4.09741 38.6941C6.70708 42.3472 10.5353 44.9485 14.8927 46.0295C19.25 47.1106 23.8502 46.6004 27.8648 44.5908C31.8794 42.5811 35.0445 39.2042 36.7903 35.068C38.536 30.9318 38.7476 26.3083 37.387 22.0299C37.3134 21.7903 37.179 21.5739 36.9968 21.4018C36.8146 21.2296 36.5909 21.1077 36.3476 21.0478C36.1042 20.988 35.8495 20.9922 35.6083 21.0602C35.367 21.1282 35.1475 21.2575 34.9712 21.4356L19.085 37.3219Z" fill="#222222"/>
<path d="M59.476 13.7715C60.8581 13.7715 62.089 14.0414 63.1688 14.5813C64.2702 15.1212 65.134 15.9526 65.7602 17.0755C66.3865 18.1769 66.6996 19.6022 66.6996 21.3514V31.2637H62.6505V21.8697C62.6505 20.3364 62.2834 19.1919 61.5492 18.436C60.8365 17.6802 59.8323 17.3023 58.5366 17.3023C57.5864 17.3023 56.7442 17.4966 56.01 17.8854C55.2757 18.2741 54.7034 18.8572 54.2931 19.6346C53.9044 20.3904 53.7101 21.3514 53.7101 22.5176V31.2637H49.6609V13.9658H53.5157V18.6304L52.8354 17.2051C53.4401 16.1037 54.3147 15.2615 55.4593 14.6785C56.6254 14.0738 57.9643 13.7715 59.476 13.7715ZM79.9985 31.4904C78.0765 31.4904 76.3921 31.1125 74.9452 30.3567C73.5199 29.5792 72.4077 28.5211 71.6087 27.1822C70.8313 25.8432 70.4426 24.3208 70.4426 22.6147C70.4426 20.8871 70.8205 19.3646 71.5763 18.0473C72.3537 16.7084 73.4119 15.661 74.7508 14.9052C76.1113 14.1494 77.6554 13.7715 79.383 13.7715C81.0675 13.7715 82.5683 14.1386 83.8856 14.8728C85.203 15.6071 86.2395 16.6436 86.9954 17.9825C87.7512 19.3215 88.1291 20.8979 88.1291 22.7119C88.1291 22.8847 88.1183 23.079 88.0967 23.295C88.0967 23.5109 88.0859 23.7161 88.0643 23.9105H73.6495V21.2218H85.9264L84.3391 22.0641C84.3607 21.0707 84.1556 20.1961 83.7237 19.4402C83.2918 18.6844 82.6979 18.0905 81.9421 17.6586C81.2078 17.2267 80.3548 17.0108 79.383 17.0108C78.3896 17.0108 77.515 17.2267 76.7592 17.6586C76.0249 18.0905 75.4419 18.6952 75.01 19.4726C74.5997 20.2285 74.3945 21.1247 74.3945 22.1612V22.8091C74.3945 23.8457 74.632 24.7635 75.1071 25.5625C75.5822 26.3615 76.2517 26.977 77.1155 27.4089C77.9793 27.8408 78.9727 28.0568 80.0957 28.0568C81.0675 28.0568 81.9421 27.9056 82.7195 27.6033C83.4969 27.3009 84.188 26.8258 84.7927 26.178L86.963 28.6722C86.1856 29.5792 85.203 30.2811 84.0152 30.7778C82.8491 31.2529 81.5102 31.4904 79.9985 31.4904ZM98.5296 31.4904C96.6292 31.4904 95.1607 31.0045 94.1241 30.0327C93.0875 29.0394 92.5692 27.5817 92.5692 25.6597V10.1434H96.6184V25.5625C96.6184 26.3831 96.8235 27.0202 97.2338 27.4737C97.6657 27.9272 98.2596 28.1539 99.0155 28.1539C99.9225 28.1539 100.678 27.9164 101.283 27.4413L102.417 30.3243C101.942 30.713 101.359 31.0045 100.667 31.1989C99.9764 31.3932 99.2638 31.4904 98.5296 31.4904ZM89.7187 17.3347V14.0954H101.251V17.3347H89.7187ZM109.254 31.2637L102.905 13.9658H106.727L112.169 29.2229H110.355L116.056 13.9658H119.457L124.997 29.2229H123.215L128.819 13.9658H132.415L126.033 31.2637H122.146L117.093 17.7558H118.291L113.141 31.2637H109.254ZM135.199 31.2637V13.9658H139.053V18.7276L138.6 17.3347C139.118 16.1685 139.928 15.2831 141.029 14.6785C142.152 14.0738 143.545 13.7715 145.208 13.7715V17.6262C145.035 17.583 144.873 17.5614 144.722 17.5614C144.571 17.5398 144.42 17.529 144.269 17.529C142.735 17.529 141.515 17.9825 140.608 18.8895C139.701 19.775 139.248 21.1031 139.248 22.8739V31.2637H135.199ZM151.947 27.4089L152.044 22.3232L161.082 13.9658H165.941L158.264 21.6753L156.126 23.457L151.947 27.4089ZM148.643 31.2637V7.22807H152.692V31.2637H148.643ZM161.697 31.2637L155.381 23.457L157.94 20.2177L166.621 31.2637H161.697Z" fill="#222222"/>
</svg>
