<?xml version="1.0" encoding="UTF-8"?>
<svg id="Layer_1" xmlns="http://www.w3.org/2000/svg" version="1.1" viewBox="0 0 500 500">
  <!-- Generator: Adobe Illustrator 29.2.1, SVG Export Plug-In . SVG Version: 2.1.0 Build 116)  -->
  <defs>
    <style>
      .st0 {
        fill: #fff;
      }
    </style>
  </defs>
  <path class="st0" d="M249.9.1C112.2.1,0,112.3,0,250.1s112.2,250,249.9,250,249.9-112.2,249.9-250C499.9,112.3,387.7.1,249.9.1ZM230.2,476.2v-65.2c6.5.8,12.9,1.2,19.7,1.2s12.9-.4,19.2-1.1v65.2c-6.3.6-12.8.8-19.2.8-6.6-.1-13.2-.4-19.7-.9ZM297.9,243.9v-123.6l-28.6-8.2v131.7h-38.9V112.2l-28.6,8.2v123.6h-109.2c2.4-84.9,72-153,157.3-153s154.8,68.2,157.3,152.8h-109.3ZM407.2,250.5c-.9,69.1-46.6,127.7-109.4,147.8v-147.8h109.4ZM201.7,250.5v147.7c-62.5-20.2-108.1-78.7-109-147.7h109ZM230.2,250.5h38.9v154c-6.3.8-12.8,1.2-19.2,1.2s-13.2-.4-19.7-1.2v-154h0ZM297.9,471.9v-67c67-20.5,115.9-83,115.9-156.6s-73.5-163.9-163.9-163.9S86,157.9,86,248.4s48.7,135.8,115.5,156.6v66.9c-101.9-22.1-178.6-113.2-178.6-221.7S124.8,23,249.9,23s227.1,101.9,227.1,227.1-76.8,199.9-179.1,221.8h0ZM53.5,148.9l11.2,4.1-13.1,36,9.3,3.4,12.4-34,11.2,4.2-12.2,34,16.4,5.9-5.2,14.8-48.4-17.7,18.4-50.7h0ZM137.1,123l-11.2,10.9-35.7-37.1,11.2-10.9,35.7,37.1ZM185,74.9c.9,2.6,2.2,4.1,3.6,4.3.6.1,1.4,0,2.3-.1s2.2-.6,3.5-.9l5.2-1.7,3.9-1.4c2.9-1.1,4.1-2.8,3.1-5.4-.8-2.2-2.2-2.9-4.3-2.7l-3.1.8-2.9.8-8.6,2.4-5.9,1.5c-.9.2-2.3.6-3.9.8-4.4.8-7.7-.4-9.8-3.6-1.2-1.7-2.3-3.7-2.9-6.1-1.5-4.1-2-7.2-2-9.3.1-3.5,1.6-6.2,4.2-8.2s8.5-4.6,17.5-7.7c1.6-.6,2.9-.9,4.4-1.4,3.4-.9,5.7-1.6,8.1-1.9,2.4-.4,4.6-.4,6.3-.1,2,.2,3.7,1.1,5.4,2.6,1.5,1.5,2.8,3.5,3.6,6.1l1.1,3.2-14.8,5.1-.8-1.7c-.8-1.5-2-2.3-3.6-2.3s-.4,0-1.1.1c-1.1.2-2.2.6-3.4.8,0,0-2,.6-2.9.9-.9.2-3.7,1.5-3.7,1.5-1.1.6-2,.8-2.7,1.5-1.5.9-1.9,2.4-1.4,4.3.7,1.9,2,2.8,4.3,2.6.4,0,.9-.1,1.6-.2s1.2-.2,1.7-.4l3.9-1.1,3.9-1.2,8.1-2.3c1.1-.4,2.2-.7,3.2-.8,1.1-.1,2.3-.2,3.4-.2,5.4,0,9.4,3.7,12,11.4,2.9,8.5.7,14.6-6.7,18.3-.4.2-1.1.6-2,.9-.8.4-1.6.7-2.2.8-1.5.6-3.4,1.2-5.7,2s-3.6,1.4-4.1,1.5c-.6.1-2.7.9-6.7,2.2-4.1,1.4,2.6-1.1.4-.2-.9.2-1.9.7-2.8.8-.9.2-1.9.6-2.8.7-2,.7-4.1,1.1-5.8,1.1s-3.5-.4-5.1-.9c-1.4-.6-2.6-1.5-3.7-2.9-1.2-1.5-2.2-3.4-2.9-5.5l-1.4-3.4,15.2-5.1h0v-.2ZM293.6,34.3l-4.7,18.6,4.1.9,22-14.3,17.8,4.4-30.4,18.9,21.6,31.9-18.1-4.6-16.3-23.6-3.7-.8-4.6,18.3-15.1-3.7,12.4-49.9,15.2,3.7h-.1ZM440.6,169l-11.3,4.3,4.4,11.4c.1.4.4,1.2.8,2.2.4,1.1.7,1.9.9,2.4.2.7.6,1.2.8,1.6s.6.8.9,1.2c1.2,1.2,3.2,1.2,6.1.1,1.9-.8,3.2-1.7,3.7-3.2.4-1.1.2-2.7-.7-4.9l-1.6-4.3-4.2-10.9h0ZM460.3,182.9c.7,1.6,1.1,2.7,1.2,3.4s.4,1.5.8,2.7c1.2,4.7.8,8.4-1.4,11.1-.8,1.1-1.7,1.9-2.8,2.7-1.1.7-2.2,1.4-3.2,1.9s-2.3,1.1-3.6,1.6c-3.9,1.5-7.1,2.2-9.6,1.7-2.4-.2-5-2.3-7.7-5.8.4,4.4,0,7.6-1.2,9.1-1.2,1.6-3.9,3.2-8.1,4.9l-5.9,2.3-5.7-14.6,4.4-1.7c2.9-1.2,4.9-2.3,5.5-3.4.7-1.2.6-3.2-.7-6.3l-5.4-14.1-12,4.6-5.7-14.6,48.1-18.4,12.8,33.2h0ZM380.5,70.6l39.1,37.1-8.4,8.7-27.6-26.3-4.9,5.1,26.3,24.9-7.8,8.1-26.1-24.9-6.5,6.7,28.1,26.6-8.2,8.7-39.4-37.5,35.4-37.3h0Z"/>
</svg>