<?xml version="1.0" encoding="UTF-8"?>
<svg id="Layer_1" xmlns="http://www.w3.org/2000/svg" version="1.1" viewBox="0 0 500 500">
  <!-- Generator: Adobe Illustrator 29.2.1, SVG Export Plug-In . SVG Version: 2.1.0 Build 116)  -->
  <defs>
    <style>
      .st0 {
        fill: #e3b000;
      }
    </style>
  </defs>
  <path class="st0" d="M416.2,85.4C294.5-81.6,31.3,13.8,44.9,222.1c6,94,87.9,178.9,182.3,187.1,11.8,1,33.2,1,45,0,154.3-13.4,235.1-199,144-324h0ZM87.8,323.4C-5.5,196.3,79.6,15.7,236.1,5.4c161.3-10.7,269.4,165.7,184.6,304.1-74.1,121.1-249,128.4-333.1,13.9h.1Z"/>
  <path class="st0" d="M444.9,315.1c-25.5,4.7-12.5,48.3,13.9,33.3,17-9.6,7.1-37.2-13.9-33.3ZM458.5,343.7c-13.9,11-32.1-7.3-20.3-20.2,14.1-15.4,35.5,6.7,20.3,20.2Z"/>
  <path class="st0" d="M369.7,89.1c-18-5.5-41.3-5.2-53.5,11.1-7.5,10.2-1.9,10.7-16,16.2-9.2,3.6-19.1,5.2-28.3,8.6-4.3,1.5-21,10.7-22.2,10.8-1.1,0-11.4-5.2-16.2-5.3-8.8-.4-18.8,5.1-22.9,12.8-2.5,4.5-2.2,8.4-4.7,12.5-7.1-.7-27-9.9-30.9-1.8-3.3,7,10.3,7.5,5.5,14.7-.7,1-21.1,8.8-22.2,9.1-1.1.1-12.2-6.4-16.3-7.4-20-4.8-37.9,2.9-56.8,8-7.5,2.1-18.4,1.6-24,7.7,7.8-2.6,16.7-2.3,24.6-3.7,18.5-3.6,38.3-12.3,57.5-7.3,10.8,2.9,13.3,8.5,19.6,16.7,1.8-2.7-2.6-11-2.3-11.5.7-.8,17.4-6,20.4-7.8,11.4-6.9-4-14.7-4.1-15.8-1-8.6,26.7,1.6,31.4.7,6.3-11.1,11.9-23.2,26.7-23.2s11.8,3.6,15.6,3c4.1-.5,11.9-5.9,16.6-7.5,11.7-4.4,37.2-8.1,46-13.7.8-.5,2.9-6.7,4.1-8.8,8.6-14.3,22.4-18,38.5-16.2,5.3.5,23.5,5.1,25.7,10,2.5,5.5-3,25.4-6.9,29.9-6.2,7.5-25.5,11.1-34.8,15.9-9.1,4.5-32.8,26.1-36.4,35.1-5.2,13.3-.1,33.5-1.9,47.5-.3,2.2-2.2,1.5-2.3,2.5-2.2,9.3,3.7,27.2,3.4,37.2l3.4-6.9c.3,4.7.8,12.2,2.6,16.5.5,1.4,9.2,14.3,10.2,15.2,5.1,4.7,23.3,11,30.5,12.3,1.9.4,6-.3,6.3,0,3.8,3-2.2,4.5-4.4,6.3-2.5,2.1-1.9,4.7-6.6,4.7-8.6,0-7.1-10.6-20.7-6.6-11.1,3.3-15,8.1-28.8,7-8.8-.7-11.1-6.4-18.1-8.5-8.6-2.6-7.8,3-12.1,8.4-5.9,7.5-6.6,4.9-15.5,3.6,1,2.7,4.4,3.3,6.9,3.4-7.7,7-22.6,15-31.7,6.9v3.4c-1.9-1.2-8.6-8.9-9.9-8.1l1.8,5.8-11-15c.3,3.7,2.7,8.9,4.8,11.9,4,5.8,13.3,7.5,2.7,11l-7.5-1c1.2,3.7,5.6,1.4,8.1,2.9-.8,5.2-4,6.9-6.7,10.6-3,4.1-.7,7.5-8.2,6.2l3.4,3.4h-9.2l5.8,2.3c2.9,2.3-13.7,1-15,1.1.4,3.2,10.6.7,9.2,4-2.6,3-6,5.6-8.6,8.6-.8,1-3,2.3-1.1,3.4,6.2-7.7,16.5-12.5,22.5-20.2,1.8-2.2,8-10.8,9.1-12.8,1.2-2.2.8-4.8,2.5-6.7,4.8-6,15.5-3.3,22.2-4.4,12.6-1.9,27.4-14.4,33.9-25.1,3.7-.5,10.6,6,14.3,7.5,7.3,2.7,15.8,1.8,23,0,5.3-1.2,15.2-7.4,19.1-7.4s5.8,9.1,17.3,6.7c1.1-.3,10.4-7.5,11.1-8.5,3-4.4-1.4-6.2-.7-7.5,1.8-4,9.5-7,11-15.6,1.2-7.1-7.4,2.2-9.2.7,5.5-8.1,13-17.4,9.2-27.6-4.8,5.3-11.8,7.3-17.1,11s-18.9,17.7-24.4,17.1c-7.3-.7-13.6-5.9-16-12.8-1.6-4.4-2.6-13.4-3.3-18.5-2.3-15.6-5.5-61,0-74.6,2.5-6,30-32.2,35.3-32.6,2.6-.3,4.8,3,5.6,3,1.2,0,2.5-3.8,4-2.7,4.1,5.1,3.7,8.1,2.5,14-.8,4.1,6.3-1.9,7.4-3,7-7.3,7-18.9,10.2-22.8.8-1.1,4.3-2.7,6-4.9,4.1-4.9,9.5-22.1,9.7-28.4.5-10.2-9.7-14.1-17.8-16.6h-.5ZM347.8,283.7l18-17.3c1,11.1-17.6,30.5-27.4,32.1-3.6.5-6.2-1.6-9.5-2.1l18.9-12.6h0ZM358.7,158.2c.5-4.9-2.9-8.6-5.8-12.1,0-1.6,13-5.9,13.9-5.2,1.1,1.1-4.5,16.3-8.1,17.3h0Z"/>
  <path class="st0" d="M263,187c-2.1,6.7-3.7,13.7-3.4,20.7l2.3-2.3c-.5,6.4-1.5,12.5-1.1,18.9.7,10.4,4.3,22.5,8,31.4,1,2.2,0,7.1,2.3,8.4-.7-8.1-.5-18.8-2.9-26.6-1-3-2.9-3.6-3-5.1-.7-5.9,2.7-13.3,1.2-19.5-.3-.8-2.1-.7-2.2-1.6-.7-2.7.4-6.6,0-9.6l-2.3,2.3c.1-1.4,4.9-20.2,1.1-17.3v.3Z"/>
  <path class="st0" d="M297.6,168.6c15.2-12.8,23.6-28.3,43.9-34,12.5-3.6,27.2-2.5,35.8-14.4-4.8,1-8.6,4.3-13.2,5.8-23.3,7.7-28.8,3.4-49.7,21.8-6.2,5.3-13.9,13-16.7,20.7h-.1Z"/>
  <path class="st0" d="M183.2,248.9l4.8,8.4-6.9-26.5-3.4,3.4c-1.1-5.2-1-14-2.3-18.8-.3-1-1.8-.8-1.9-1.1-.8-3.6-1-7.5-.4-11.2-5.9,2.5-3.2,14.5-1.8,19.6.4,1.5,2.2,2.7,2.6,4.4,1.5,5.3,3,14,5.5,18.7,1.9,3.4,1.4-2.1,2.9-1.1l1,4.3h0Z"/>
  <path class="st0" d="M218,146.7l11.5-3.4,1.1,5.8c-1.4,1-8.1-2.2-6.9,2.3,2.1,1.5,19.2-1.4,16.7-6.9l-2.9,2.3,1.1-5.8,4.7,2.3c-6.4-10.7-21.1-7.4-25.4,3.4h0Z"/>
  <path class="st0" d="M339,105.1c.4-.3.8-4.5,1.2-5.6l3.4,3.4c.5-13-21.5-7.1-19.6,4.7l2.3-4.5h1.1c-1.6,3.6,11,2.6,11.4,2.2h.1Z"/>
  <path class="st0" d="M140.6,201.4c-.8-1-.3-2.6-1.1-3.4-7.3-8.1-17.8-12.3-28.8-11l9.9,2.2c2.1.5,10,4.5,11.4,5.8.8.8-.3,1.9.7,2.9,6.4,5.8,13.3,11,19.6,16.7-.3-6.4-8.5-9.6-11.5-13.2h-.1Z"/>
  <path class="st0" d="M227.2,280.3c.5,2.9,14.5,37,17.3,34.6l.5-2.3c2.9,2.9,5.2,5.9,9.5,6.7,2.2.4,2.2-1.5,1.5-2.1-.3-.3-2.7-.4-3.8-1.4-2.7-2.2-8-5.6-9.6-7.1-4.4-4-9.1-23.9-15.4-28.5h0Z"/>
  <path class="st0" d="M479.5,458.2c-14.3-10.4-36.4-2.7-38,15.5-2.6,29.9,37.9,35.7,46.2,8.6v-11.5c-2.2-4.8-3.8-9.5-8.4-12.8h.1ZM461.5,490.2c-13.4-3.3-12.8-25.1.4-27.3,21.7-3.6,19.8,32.1-.4,27.3Z"/>
  <polygon class="st0" points="260.8 480.8 241.6 454.6 231 454.5 231 499 241 499 241 471.8 260.8 498.5 270.7 499 270.7 454.5 260.8 454.5 260.8 480.8"/>
  <path class="st0" d="M176.8,457.9c-1.1-.7-7.5-3.4-8.1-3.4h-23.6v44.4h22.6c1,0,7.3-2.5,8.4-3.2,13.4-7.8,14.1-29.9.5-38h.1ZM156,489.9v-26.3c7.4,0,15.8-1.2,19.2,6.9,5.8,13.6-6.3,22.1-19.2,19.5Z"/>
  <path class="st0" d="M55.3,474.3h-22.4v8.2h11.5c-.3,1.5.7,4.9-.5,5.9-6.3,4.9-17,1.9-20.2-5.3-5.8-13.9,8.5-26.5,20.3-16.9.8.7,1.1,2.5,1.6,2.5,2.2,0,6.2-3.8,8.6-4.3-8.9-17.7-39.1-12.1-41.8,7.3-3.2,21.4,16.3,34.7,35.3,25.4,1.5-.7,7-4.5,7.4-5.8,1.1-3.8-.8-12.5,0-16.9h.1Z"/>
  <path class="st0" d="M78.2,453.8c-25.7,3.7-25.1,43.8,2.3,46,34.7,2.6,33.6-51.2-2.3-46ZM80,490.3c-13.7-2.7-13.2-25.1-.1-27.4,21-3.7,20.7,31.6.1,27.4Z"/>
  <polygon class="st0" points="325.1 471.8 305.4 471.8 305.4 454.5 295.5 454.5 295.5 499 305.4 499 305.4 480.8 325.1 480.8 325.1 499 336 499 336 454.5 325.1 454.5 325.1 471.8"/>
  <polygon class="st0" points="192.3 499 224.4 499 224.4 489.9 203 489.9 203 480.8 223.6 480.8 223.6 471.8 203 471.8 203 463.6 224.4 463.6 224.4 454.5 192.3 454.5 192.3 499"/>
  <path class="st0" d="M391.2,456.6c-.7-.4-4.1-2.1-4.5-2.1h-25.2v44.4h9.9v-15.6h14.4c.4,0,4.9-2.2,5.6-2.6,8.4-5.5,8-18.8-.3-24.1h.1ZM383.4,474.3h-11.9v-10.7h11.9c4.7,0,4.7,10.7,0,10.7Z"/>
  <path class="st0" d="M432.8,457.1c-.7-.4-5.2-2.6-5.6-2.6h-24.4v44.4h9.9v-15.6h14.4c.3,0,4.5-1.9,5.1-2.3,8-4.9,8.5-18.8.5-23.9h.1ZM428.3,469.5c-1,6.4-11,4.5-15.5,4.7v-10.7c3.3.5,9.2-.8,11.9,0,1.4.4,3.8,4.3,3.6,6h0Z"/>
  <polygon class="st0" points="121.3 454.5 111.4 454.5 111.4 499 140.2 499 140.2 489.9 121.3 489.9 121.3 454.5"/>
  <rect class="st0" x="343.4" y="454.5" width="9.9" height="44.4"/>
  <path class="st0" d="M446.7,335.6h3.3c.8,0,1.5.1,1.9.5.4.4.7,1,.8,1.6v2.2c0,1.2.1,2.1.4,2.7h5.2v-.7c-.4-.3-.7-1.1-.8-2.7v-1.6c0-1.4-.3-2.3-.5-2.9-.4-.5-1-1-1.8-1.4,1.1-.5,1.8-1.2,2.3-1.9s.7-1.6.7-2.7c0-1.8-.5-3.2-1.8-4.1-1.1-.8-3-1.4-5.3-1.4h-9.2v19.2h4.9v-7.1.3ZM446.7,327.3h3.8c1,0,1.6.1,2.1.5s.7.8.7,1.5-.3,1.4-.7,1.8-1.2.5-2.2.5h-3.7v-4.4h0Z"/>
</svg>