<?xml version="1.0" encoding="UTF-8"?>
<svg id="Layer_1" xmlns="http://www.w3.org/2000/svg" version="1.1" viewBox="0 0 500 500">
  <!-- Generator: Adobe Illustrator 29.2.1, SVG Export Plug-In . SVG Version: 2.1.0 Build 116)  -->
  <defs>
    <style>
      .st0 {
        stroke-width: 18.6px;
      }

      .st0, .st1 {
        stroke: #dfae4b;
      }

      .st0, .st1, .st2 {
        fill: none;
        stroke-miterlimit: 33.9;
      }

      .st3 {
        fill: #b33c3a;
      }

      .st3, .st4, .st5, .st6 {
        fill-rule: evenodd;
      }

      .st4 {
        fill: #373739;
      }

      .st5 {
        fill: #fff;
      }

      .st1, .st2 {
        stroke-linecap: round;
        stroke-width: 13.2px;
      }

      .st2 {
        stroke: #373739;
      }

      .st6 {
        fill: #005944;
      }
    </style>
  </defs>
  <path class="st6" d="M0,250C0,174,111.9,112.4,250,112.4s250,61.6,250,137.6-111.9,137.6-250,137.6S0,326,0,250h0Z"/>
  <path class="st0" d="M16,250c0-69.3,104.8-125.6,234-125.6s234,56.2,234,125.6-104.7,125.6-234,125.6S16,319.4,16,250h0Z"/>
  <path class="st2" d="M189.8,253.4h219.5M92.4,254.1h52"/>
  <path class="st4" d="M249.4,259.7c2.3,0,4.2.4,4.8,1.4.5.9.9,2.7.9,3.6s-.3.8-1.5.8c-3.1,0-2.7-2-5.3-2s-4.5,3.1-4.5,6.3,1.8,6.9,5.2,6.9,2.2-1.9,4.8-1.9,2,.2,2,.8-.8,2.5-1.3,3.5c-.4.8-3.1,1.3-5.8,1.3-6.2,0-9.9-4.1-9.9-10s4.3-10.8,10.7-10.8h0ZM279,259.7c6,0,9.8,4.5,9.8,10.4s-3.8,10.4-9.8,10.4-9.8-4.5-9.8-10.4,3.8-10.4,9.8-10.4ZM279,276.7c3.2,0,4.7-2.9,4.7-6.6s-1.5-6.6-4.7-6.6-4.7,2.9-4.7,6.6,1.5,6.6,4.7,6.6ZM305.3,264.3c0-.6-.3-.9-1.1-.9s-1.3-.3-1.3-1v-1.5c0-.6.3-.8,1-.8h12.4c.4,0,.6.2.8.6.1.3,1.3,3.3,1.3,3.8s-.5.9-1.9.9c-2,0-1.9-1.7-4.6-1.7h-2.2v4.3h1.9c2.8,0,1.1-.9,3.5-.9s1.4.1,1.5.4c.3.7,1.6,3.8,1.6,4.3s-.3.8-1.5.8c-3.3,0-1.3-1.2-4.9-1.2h-2.2v4.5c0,.6.3.9,1,.9,1.5,0,1.7.2,1.7.9v1.6c0,.6-.3.8-1,.8h-7.6c-.7,0-1-.2-1-.8v-1.5c0-.7.3-1,1.3-1s1.1-.3,1.1-.9v-11.6h0ZM334.2,264.3c0-.6-.3-.9-1.1-.9s-1.3-.3-1.3-1v-1.5c0-.6.3-.8,1-.8h12.4c.4,0,.6.2.8.6.1.3,1.3,3.3,1.3,3.8s-.5.9-1.9.9c-2,0-1.9-1.7-4.6-1.7h-2.2v4.3h1.9c2.8,0,1.1-.9,3.5-.9s1.4.1,1.5.4c.3.7,1.6,3.8,1.6,4.3s-.3.8-1.5.8c-3.3,0-1.3-1.2-4.9-1.2h-2.2v4.5c0,.6.3.9,1,.9,1.5,0,1.7.2,1.7.9v1.6c0,.6-.3.8-1,.8h-7.6c-.7,0-1-.2-1-.8v-1.5c0-.7.3-1,1.3-1s1.1-.3,1.1-.9v-11.6h0ZM367.6,267.9h2.1c2.8,0,1.1-.9,3.5-.9s1.4.1,1.5.4c.3.7,1.6,3.8,1.6,4.3s-.3.8-1.4.8c-3.3,0-1.3-1.2-4.9-1.2h-2.4v5.2h3.7c2.7,0,1.7-1.8,4.5-1.8s1.8.3,1.8.8-1.3,3.6-1.5,4.1c-.1.3-.3.4-1,.4h-13.4c-.7,0-1-.2-1-.8v-1.5c0-.7.3-1,1.3-1s1.1-.3,1.1-.9v-11.6c0-.6-.3-.9-1.1-.9s-1.3-.3-1.3-1v-1.5c0-.6.3-.8,1-.8h12.6c.4,0,.6.2.8.6.1.3,1.3,3.3,1.3,3.8s-.5.9-1.9.9c-2,0-1.9-1.7-4.6-1.7h-2.4v4.3h0ZM398.1,267.9h2.1c2.8,0,1.1-.9,3.5-.9s1.4.1,1.5.4c.3.7,1.6,3.8,1.6,4.3s-.3.8-1.4.8c-3.3,0-1.3-1.2-4.9-1.2h-2.4v5.2h3.7c2.7,0,1.7-1.8,4.5-1.8s1.8.3,1.8.8-1.3,3.6-1.5,4.1c-.1.3-.3.4-1,.4h-13.4c-.7,0-1-.2-1-.8v-1.5c0-.7.3-1,1.3-1s1.1-.3,1.1-.9v-11.6c0-.6-.3-.9-1.1-.9s-1.3-.3-1.3-1v-1.5c0-.6.3-.8,1-.8h12.6c.4,0,.6.2.8.6.1.3,1.3,3.3,1.3,3.8s-.5.9-1.9.9c-2,0-1.9-1.7-4.6-1.7h-2.4v4.3h0ZM243.3,289.3c0-.6-.3-.9-1.1-.9s-1.3-.3-1.3-1v-1.5c0-.6.3-.8,1-.8h8.7c4,0,6.6,1.9,6.6,5.5s-1.5,4.8-4.1,5.5l5,7.3c.2.3.3.5.3.9,0,.6-1.5,1.5-2.2,1.5s-.7-.3-1-.6l-7.3-9.2h0v4.9c0,.6.3.9,1.4.9s1.3.3,1.3,1v1.5c0,.6-.3.8-1,.8h-7.6c-.7,0-1-.2-1-.8v-1.5c0-.7.3-1,1.3-1s1.1-.3,1.1-.9v-11.6h0ZM247.9,293h1.7c2,0,2.9-.6,2.9-2.2s-.9-2.2-2.9-2.2h-1.7v4.4h0ZM272.8,284.7c6,0,9.8,4.5,9.8,10.4s-3.8,10.4-9.8,10.4-9.8-4.5-9.8-10.4,3.8-10.4,9.8-10.4ZM272.8,301.7c3.2,0,4.7-2.9,4.7-6.6s-1.5-6.6-4.7-6.6-4.7,2.9-4.7,6.6,1.5,6.6,4.7,6.6ZM293.5,298.9l-.4,1.3c0,.2-.1.6-.1.9s.3.6.8.6c1.2,0,1.6.3,1.6,1.1v1.5c0,.7-.4.8-1.1.8h-6.8c-.6,0-1-.1-1-.8v-1.5c0-.8.4-1.1,1.1-1.1s1-.8,1.3-1.8l3-9.6c.1-.3.3-.8.3-1.2s-.5-.7-.9-.7-.9-.3-.9-1v-1.5c0-.6.3-.8,1-.8h10.3c.7,0,1,.2,1,.8v1.7c0,.5-.4.9-1,.9s-.8.3-.8.7.1.8.3,1.2l3.3,9.8c.4,1.1.7,1.6,1.3,1.6s1.1.3,1.1,1.1v1.5c0,.7-.3.8-.9.8h-7c-.6,0-1.1-.1-1.1-.8v-1.5c0-.8.5-1.1,1.3-1.1s1.1-.2,1.1-.7-.1-.6-.2-.9l-.4-1.2h-6.4,0ZM298.8,295.5l-2.1-6.9h0l-2.1,6.9h4.3ZM318.1,284.7c2.1,0,4.7.6,5.3,1.7.4.7,1,2.6,1,3.4s-.2.6-2,.6c-3.6,0-2.4-2.1-4.8-2.1s-1.9.6-1.9,1.8c0,3.6,9.5,2.3,9.5,9.1s-3.8,6.3-7.9,6.3-4.9-.3-5.7-1.9c-.4-.8-1.1-2.4-1.1-3.1s.3-.9,1.9-.9c3.9,0,3,2.4,5.7,2.4s2.5-.7,2.5-2.2c0-3.8-9.5-2.8-9.5-9.4s3-5.7,6.8-5.7h0ZM334.1,305.1c-.7,0-1-.2-1-.8v-1.5c0-.7.3-1,1.3-1s1.4-.3,1.4-.9v-11.9c-3.5,0-1.6,1.2-4.9,1.2s-1.5-.3-1.5-.8,1.3-3.6,1.6-4.3c.1-.3.5-.4,1.5-.4,2.4,0,.7.9,3.5.9h5.3c2.6,0,1.1-.9,4-.9s1.4.3,1.4.8-1.3,3.6-1.6,4.3c0,.3-.5.4-1.5.4-1.6,0-1.1-1.2-3.5-1.2v11.9c0,.6.3.9,1.6.9s1.3.3,1.3,1v1.5c0,.6-.3.8-1,.8h-8.1,0ZM357.9,292.9h2.1c2.8,0,1.1-.9,3.5-.9s1.4.1,1.5.4c.3.7,1.6,3.8,1.6,4.3s-.3.8-1.5.8c-3.3,0-1.3-1.2-4.9-1.2h-2.4v5.2h3.7c2.7,0,1.7-1.8,4.5-1.8s1.8.3,1.8.8-1.3,3.6-1.5,4.1c-.1.3-.3.4-1,.4h-13.4c-.7,0-1-.2-1-.8v-1.5c0-.7.3-1,1.3-1s1.1-.3,1.1-.9v-11.6c0-.6-.3-.9-1.1-.9s-1.3-.3-1.3-1v-1.5c0-.6.3-.8,1-.8h12.6c.4,0,.6.2.8.6.1.3,1.3,3.3,1.3,3.8s-.5.9-1.9.9c-2,0-1.9-1.7-4.6-1.7h-2.4v4.3h0ZM374.2,289.3c0-.6-.3-.9-1.1-.9s-1.3-.3-1.3-1v-1.5c0-.6.3-.8,1-.8h8.7c4,0,6.6,1.9,6.6,5.5s-1.5,4.8-4.2,5.5l5,7.3c.2.3.3.5.3.9,0,.6-1.5,1.5-2.2,1.5s-.7-.3-1-.6l-7.3-9.2h0v4.9c0,.6.3.9,1.4.9s1.3.3,1.3,1v1.5c0,.6-.3.8-1,.8h-7.6c-.7,0-1-.2-1-.8v-1.5c0-.7.3-1,1.3-1s1.1-.3,1.1-.9v-11.6h0ZM378.7,293h1.7c2,0,2.9-.6,2.9-2.2s-.9-2.2-2.9-2.2h-1.7v4.4h0ZM400.7,284.7c2.1,0,4.7.6,5.3,1.7.4.7,1,2.6,1,3.4s-.2.6-2,.6c-3.6,0-2.4-2.1-4.8-2.1s-1.9.6-1.9,1.8c0,3.6,9.5,2.3,9.5,9.1s-3.8,6.3-7.9,6.3-4.9-.3-5.7-1.9c-.4-.8-1.1-2.4-1.1-3.1s.3-.9,1.9-.9c3.8,0,3,2.4,5.7,2.4s2.5-.7,2.5-2.2c0-3.8-9.5-2.8-9.5-9.4s3-5.7,6.8-5.7h0Z"/>
  <path class="st5" d="M250.8,258.3c2.3,0,4.2.4,4.8,1.4.5.9.9,2.7.9,3.6s-.3.8-1.5.8c-3.1,0-2.7-2-5.3-2s-4.5,3.1-4.5,6.3,1.8,6.9,5.2,6.9,2.2-1.9,4.8-1.9,2,.2,2,.8-.8,2.5-1.3,3.5c-.4.8-3.1,1.3-5.8,1.3-6.2,0-9.9-4.1-9.9-10s4.3-10.8,10.7-10.8h0ZM280.5,258.3c6,0,9.8,4.5,9.8,10.4s-3.8,10.4-9.8,10.4-9.8-4.5-9.8-10.4,3.8-10.4,9.8-10.4ZM280.5,275.3c3.2,0,4.7-2.9,4.7-6.6s-1.5-6.6-4.7-6.6-4.7,2.9-4.7,6.6,1.5,6.6,4.7,6.6ZM306.7,262.9c0-.6-.3-.9-1.1-.9s-1.3-.3-1.3-1v-1.5c0-.6.3-.8,1-.8h12.4c.4,0,.6.2.8.6.1.3,1.3,3.3,1.3,3.8s-.5.9-1.9.9c-2,0-1.9-1.7-4.6-1.7h-2.2v4.3h1.9c2.8,0,1.1-.9,3.5-.9s1.4.1,1.5.4c.3.7,1.6,3.8,1.6,4.3s-.3.8-1.5.8c-3.3,0-1.3-1.2-4.9-1.2h-2.2v4.5c0,.6.3.9,1,.9,1.5,0,1.7.2,1.7.9v1.6c0,.6-.3.8-1,.8h-7.6c-.7,0-1-.2-1-.8v-1.5c0-.7.3-1,1.3-1s1.1-.3,1.1-.9v-11.6h0ZM335.6,262.9c0-.6-.3-.9-1.1-.9s-1.3-.3-1.3-1v-1.5c0-.6.3-.8,1-.8h12.4c.4,0,.6.2.8.6.1.3,1.3,3.3,1.3,3.8s-.5.9-1.9.9c-2,0-1.9-1.7-4.6-1.7h-2.2v4.3h1.9c2.8,0,1.1-.9,3.5-.9s1.4.1,1.5.4c.3.7,1.6,3.8,1.6,4.3s-.3.8-1.5.8c-3.3,0-1.3-1.2-4.9-1.2h-2.2v4.5c0,.6.3.9,1,.9,1.5,0,1.8.2,1.8.9v1.6c0,.6-.3.8-1,.8h-7.6c-.7,0-1-.2-1-.8v-1.5c0-.7.3-1,1.3-1s1.1-.3,1.1-.9v-11.6h0ZM369.1,266.5h2.1c2.8,0,1.1-.9,3.5-.9s1.4.1,1.5.4c.3.7,1.6,3.8,1.6,4.3s-.3.8-1.5.8c-3.3,0-1.3-1.2-4.9-1.2h-2.4v5.2h3.7c2.7,0,1.7-1.8,4.5-1.8s1.8.3,1.8.8-1.3,3.6-1.5,4.1c-.1.3-.3.4-1,.4h-13.4c-.7,0-1-.2-1-.8v-1.5c0-.7.3-1,1.3-1s1.1-.3,1.1-.9v-11.6c0-.6-.3-.9-1.1-.9s-1.3-.3-1.3-1v-1.5c0-.6.3-.8,1-.8h12.6c.4,0,.6.2.8.6.1.3,1.3,3.3,1.3,3.8s-.5.9-1.9.9c-2,0-1.9-1.7-4.6-1.7h-2.4v4.3h0ZM399.6,266.5h2.1c2.8,0,1.1-.9,3.5-.9s1.4.1,1.5.4c.3.7,1.6,3.8,1.6,4.3s-.3.8-1.5.8c-3.3,0-1.3-1.2-4.9-1.2h-2.4v5.2h3.7c2.7,0,1.7-1.8,4.5-1.8s1.8.3,1.8.8-1.3,3.6-1.5,4.1c-.1.3-.3.4-1,.4h-13.4c-.7,0-1-.2-1-.8v-1.5c0-.7.3-1,1.3-1s1.1-.3,1.1-.9v-11.6c0-.6-.3-.9-1.1-.9s-1.3-.3-1.3-1v-1.5c0-.6.3-.8,1-.8h12.6c.4,0,.6.2.8.6.1.3,1.3,3.3,1.3,3.8s-.5.9-1.9.9c-2,0-1.9-1.7-4.6-1.7h-2.4v4.3h0ZM244.8,287.9c0-.6-.3-.9-1.1-.9s-1.3-.3-1.3-1v-1.5c0-.6.3-.8,1-.8h8.7c4,0,6.6,1.9,6.6,5.5s-1.5,4.8-4.1,5.5l5,7.3c.2.3.3.5.3.9,0,.6-1.5,1.5-2.2,1.5s-.7-.3-1-.6l-7.3-9.2h0v5c0,.6.3.9,1.4.9s1.3.3,1.3,1v1.5c0,.6-.3.8-1,.8h-7.6c-.7,0-1-.2-1-.8v-1.5c0-.7.3-1,1.3-1s1.1-.3,1.1-.9v-11.6h0ZM249.3,291.5h1.7c2,0,2.9-.6,2.9-2.2s-.9-2.2-2.9-2.2h-1.7v4.4h0ZM274.2,283.3c6,0,9.8,4.5,9.8,10.4s-3.8,10.4-9.8,10.4-9.8-4.5-9.8-10.4,3.8-10.4,9.8-10.4ZM274.2,300.3c3.2,0,4.7-2.9,4.7-6.6s-1.5-6.6-4.7-6.6-4.7,2.9-4.7,6.6,1.5,6.6,4.7,6.6ZM295,297.4l-.4,1.3c0,.2-.1.6-.1.9s.3.6.8.6c1.2,0,1.6.3,1.6,1.1v1.5c0,.7-.4.8-1.1.8h-6.8c-.6,0-.9-.1-.9-.8v-1.5c0-.8.4-1.1,1.1-1.1s.9-.8,1.3-1.8l3-9.6c.1-.3.3-.8.3-1.2s-.5-.7-.9-.7-.9-.3-.9-1v-1.5c0-.6.3-.8,1-.8h10.3c.7,0,1,.2,1,.8v1.7c0,.5-.4.9-1,.9s-.8.3-.8.7.1.8.3,1.2l3.3,9.8c.4,1.1.7,1.6,1.3,1.6s1.1.3,1.1,1.1v1.5c0,.7-.4.8-1,.8h-7c-.6,0-1.1-.1-1.1-.8v-1.5c0-.8.5-1.1,1.3-1.1s1.1-.2,1.1-.7-.1-.6-.2-.9l-.4-1.2h-6.4,0ZM300.3,294l-2.1-6.9h0l-2.1,6.9h4.3ZM319.5,283.3c2.1,0,4.7.6,5.3,1.7.4.7,1,2.6,1,3.3s-.2.6-2,.6c-3.6,0-2.4-2.1-4.8-2.1s-1.9.6-1.9,1.8c0,3.6,9.5,2.3,9.5,9.1s-3.8,6.3-7.9,6.3-4.9-.3-5.7-1.9c-.4-.8-1.1-2.4-1.1-3.1s.3-.9,1.9-.9c3.9,0,3,2.4,5.7,2.4s2.5-.6,2.5-2.2c0-3.8-9.5-2.8-9.5-9.4s3-5.7,6.8-5.7h0ZM335.6,303.7c-.7,0-1-.2-1-.8v-1.5c0-.7.3-1,1.3-1s1.4-.3,1.4-.9v-11.9c-3.5,0-1.6,1.2-4.9,1.2s-1.4-.3-1.4-.8,1.3-3.6,1.6-4.3c.1-.3.5-.4,1.5-.4,2.4,0,.7.9,3.5.9h5.3c2.6,0,1.1-.9,4-.9s1.5.3,1.5.8-1.3,3.6-1.6,4.3c0,.3-.5.4-1.5.4-1.6,0-1.1-1.2-3.5-1.2v11.9c0,.6.3.9,1.6.9s1.3.3,1.3,1v1.5c0,.6-.3.8-1,.8h-8.1ZM359.3,291.5h2.1c2.8,0,1.1-.9,3.5-.9s1.4.1,1.5.4c.3.7,1.6,3.8,1.6,4.3s-.3.8-1.5.8c-3.3,0-1.3-1.2-4.9-1.2h-2.4v5.2h3.7c2.7,0,1.7-1.8,4.5-1.8s1.8.3,1.8.8-1.3,3.6-1.5,4.1c-.1.3-.3.4-1,.4h-13.4c-.7,0-1-.2-1-.8v-1.5c0-.7.3-1,1.3-1s1.1-.3,1.1-.9v-11.6c0-.6-.3-.9-1.1-.9s-1.3-.3-1.3-1v-1.5c0-.6.3-.8,1-.8h12.6c.4,0,.6.2.8.6.1.3,1.3,3.3,1.3,3.8s-.5.9-1.9.9c-2,0-1.9-1.7-4.6-1.7h-2.4v4.3h0ZM375.6,287.9c0-.6-.3-.9-1.1-.9s-1.3-.3-1.3-1v-1.5c0-.6.3-.8,1-.8h8.7c4,0,6.6,1.9,6.6,5.5s-1.5,4.8-4.1,5.5l5,7.3c.2.3.3.5.3.9,0,.6-1.5,1.5-2.2,1.5s-.7-.3-1-.6l-7.3-9.2h0v5c0,.6.3.9,1.4.9s1.3.3,1.3,1v1.5c0,.6-.3.8-1,.8h-7.6c-.7,0-1-.2-1-.8v-1.5c0-.7.3-1,1.3-1s1.1-.3,1.1-.9v-11.6h0ZM380.2,291.5h1.7c2,0,2.9-.6,2.9-2.2s-.9-2.2-2.9-2.2h-1.7v4.4h0ZM402.1,283.3c2.1,0,4.7.6,5.3,1.7.4.7,1,2.6,1,3.3s-.2.6-2,.6c-3.6,0-2.4-2.1-4.8-2.1s-1.9.6-1.9,1.8c0,3.6,9.5,2.3,9.5,9.1s-3.8,6.3-7.9,6.3-4.9-.3-5.7-1.9c-.4-.8-1.1-2.4-1.1-3.1s.3-.9,1.9-.9c3.8,0,3,2.4,5.7,2.4s2.5-.6,2.5-2.2c0-3.8-9.5-2.8-9.5-9.4s3-5.7,6.8-5.7h0Z"/>
  <path class="st4" d="M173.3,208.9c-7.1,11.7-10.3,25.1-12.8,38.7-.8,1.8-3.4,3-5.6,2.1-5.9-5.1-9.9-12.5-7.2-21,2-9.9,10-19.2,19.7-23.1,4.5-2.3,7.7.4,5.9,3.4h0Z"/>
  <path class="st4" d="M186.5,221.5c1.4,12-6.1,22.7-16.8,28-2.4.8-7.3,3.6-8.1-.8,2-8.1,6.1-14.4,7.9-23.5,1.3-6.6,3.1-16.9,8.3-18.6,6.1,1.8,8.1,8.9,8.7,14.8h0ZM198.4,274.5c1.2,3.4,1,7.7-.6,10.7-1.2,2.6-3.8,4-6.3,4.3l-2.2-1.4c-7.7-10.7-22.1-29.5-21.5-32.6,2.7-4.9,14.5-1.4,20.9,5.3,4.1,3.8,8.1,8.5,9.7,13.6h0ZM170.3,264.2c4.3,9.1,10.7,17.6,16.8,26.1.4,1.8-1.2,2.8-2.6,3.6-11.3,1.6-20.5-7.3-25.5-16.2-2.4-5.5-4.1-13-.4-18.6.8-1.4,2.4-2,3.6-2.6,4.2,0,6.1,4.7,8.1,7.7h0ZM152.8,272.9c-9.4,7.9-21.3,15.5-36.1,22.5-2.6.2-3.4-2-3-4.3,1.5-11.3,11.3-19.9,21.1-23.7,8.5-3.4,17.6,1.1,18,5.5ZM157.9,280.8c.2,7.7-6.1,13.2-11.8,18-7.3,5.1-19.1,7.9-25.7,5.7-2-1.4-3.8-3.5-2.8-5.5,3.4-4.4,24.3-14.6,35.9-22.9,2.8,0,4.1,2.2,4.3,4.7h0ZM236.7,295.4c.8,1.8,1.6,4.2.2,5.9l-1.8,1c-10.1.9-17.6,0-26.3-1.4-5.3-.6-14.5,1.3-15.4-3.4.6-7.7,9.1-9.7,14.6-12.1,10.9-2.8,21.7,1.6,28.6,9.9h0ZM187.9,303.9c3.8,3.6,4.8,7.6,4.2,12.9,0,0-1,2-4.2,1.5-13.2-1.9-23.5-10.9-36.5-13.2-.8-.8-1.2-2-.6-3,5.9-7.7,13.4-7.4,22.1-6.8,4.3.7,10.4,3.9,15,8.6h0Z"/>
  <path class="st4" d="M225.2,306c4.1-1,5.1-3.2,9.9-2,1.6.4,3.9,1.5,3.9,3.6.2,3-1.6,5.1-3.6,7.1-8.5,6.1-22.7,7.5-32.2,2.6-4-2-8.3-4.6-9.7-9.5l.2-4.2c2.6-4.9,23.5,3.2,31.4,2.4h0ZM188.9,321.5c1.4,3.2-2,5.3-4,6.9-7.5,5.7-19.2,4.5-26.7,0-6.7-4.9-14.2-13.5-10.9-20.9l.2-.2c3.8-1.6,28,8.7,41.3,14.2h0ZM230.6,335.3c-13.2,4.9-36.4,10.9-41.9,9.7-2.4-.8-1.4-3.7-.8-5.3,4.5-9.9,15.2-14.6,25.3-15.6,10.5,0,18.9,8.8,17.4,11.3h0ZM233.1,341.8c-1,9.3-11.3,13.6-19,16-8.1,2.2-17.6.7-23.9-3-2.2-1.4-2.6-4.5-1.2-6.3,13.8-3.2,27.6-5.9,40.7-10.5,2,.4,2.6,2.4,3.4,3.8h0Z"/>
  <path class="st3" d="M171.9,207.5c-7.1,11.7-10.3,25.1-12.8,38.7-.8,1.8-3.4,3-5.6,2.1-5.9-5.1-9.9-12.5-7.2-21,2-9.9,10-19.2,19.7-23.1,4.5-2.3,7.7.4,5.9,3.4h0Z"/>
  <path class="st3" d="M185.1,220.1c1.4,12-6.1,22.7-16.8,28-2.4.8-7.3,3.6-8.1-.8,2-8.1,6.1-14.4,7.9-23.5,1.3-6.6,3.1-16.9,8.3-18.6,6.1,1.8,8.1,8.9,8.7,14.8h0ZM196.9,273c1.2,3.4,1,7.7-.6,10.7-1.2,2.6-3.8,4-6.3,4.3l-2.2-1.4c-7.7-10.7-22.1-29.5-21.5-32.6,2.6-4.9,14.5-1.4,20.9,5.3,4.1,3.8,8.1,8.5,9.7,13.6h0ZM168.9,262.7c4.3,9.1,10.7,17.6,16.8,26.1.4,1.8-1.2,2.8-2.6,3.6-11.3,1.6-20.5-7.3-25.5-16.2-2.4-5.5-4.1-13-.4-18.6.8-1.4,2.4-2,3.6-2.6,4.1,0,6.1,4.7,8.1,7.7h0ZM151.3,271.4c-9.4,7.9-21.3,15.5-36.1,22.5-2.6.2-3.4-2-3-4.3,1.5-11.3,11.3-19.9,21.1-23.7,8.5-3.4,17.6,1.1,18,5.5h0ZM156.5,279.3c.2,7.7-6.1,13.2-11.8,18-7.3,5.1-19.1,7.9-25.7,5.7-2-1.4-3.8-3.5-2.8-5.5,3.4-4.4,24.3-14.6,35.9-22.9,2.8,0,4.1,2.2,4.3,4.7ZM235.3,293.9c.8,1.8,1.6,4.1.2,5.9l-1.8,1c-10.1.9-17.6,0-26.3-1.4-5.3-.6-14.5,1.3-15.4-3.4.6-7.7,9.1-9.7,14.6-12,10.9-2.8,21.7,1.6,28.6,9.9h0ZM186.5,302.4c3.8,3.6,4.8,7.6,4.2,12.9,0,0-1,2-4.2,1.5-13.2-1.9-23.5-10.9-36.5-13.2-.8-.8-1.2-2-.6-3,5.9-7.7,13.4-7.4,22.1-6.8,4.3.7,10.4,3.9,15,8.6h0Z"/>
  <path class="st3" d="M223.8,304.6c4.1-1,5.1-3.2,9.9-2,1.6.4,3.9,1.5,3.9,3.6.2,3-1.6,5.1-3.6,7.1-8.5,6.1-22.7,7.5-32.2,2.6-3.9-2-8.3-4.6-9.7-9.5l.2-4.2c2.5-4.9,23.4,3.2,31.4,2.4h0ZM187.4,320c1.4,3.2-2,5.3-3.9,6.9-7.5,5.7-19.2,4.5-26.7,0-6.7-4.9-14.2-13.5-10.9-20.9l.2-.2c3.8-1.6,28,8.7,41.3,14.2h0ZM229.1,333.8c-13.2,4.9-36.4,10.9-41.9,9.7-2.4-.8-1.4-3.7-.8-5.3,4.5-9.9,15.2-14.6,25.3-15.6,10.6,0,18.9,8.8,17.4,11.3h0ZM231.7,340.4c-1,9.3-11.3,13.6-19,16-8.1,2.2-17.6.7-23.9-3-2.2-1.4-2.6-4.5-1.2-6.3,13.8-3.2,27.6-5.9,40.7-10.5,2,.4,2.6,2.4,3.4,3.8h0Z"/>
  <path class="st4" d="M189.3,176.7c1.5,0,2.1.4,2.1,1.7v3.1c0,1.5-.6,2-1.4,2-1.6,0-2.2.5-2.2,1.7v7.6c0,1.2-5.7,4.4-13.6,4.4-11.9,0-19.4-7.6-19.4-19.2s7.4-22.3,20.4-22.3,8.6.9,10.1,2.8c.6.8,2.2,6,2.2,6.8,0,1.4-.5,1.9-4,1.9-6.2,0-5.3-4-9.9-4s-8.6,5.7-8.6,14.5,4.1,12.4,9.4,12.4,3.6-.2,4.6-.8v-4.1c0-1.2-.6-1.7-2.7-1.7s-2.7-.5-2.7-2v-3.1c0-1.2.6-1.7,2.1-1.7h13.6,0ZM197.6,164.8c0-1.2-.6-1.7-2.2-1.7s-2.7-.5-2.7-2v-3.1c0-1.2.6-1.7,2.1-1.7h17.4c8,0,13.1,3.7,13.1,10.9s-3,9.5-8.3,11l10,14.6c.4.5.6,1.1.5,1.8,0,1.2-3.1,3.1-4.3,3.1s-1.4-.5-2-1.2l-14.5-18.4h-.1v9.9c0,1.2.6,1.7,2.8,1.7s2.7.5,2.7,2v3.1c0,1.2-.6,1.7-2.1,1.7h-15.2c-1.5,0-2.1-.4-2.1-1.7v-3.1c0-1.5.6-2,2.7-2s2.2-.5,2.2-1.7v-23.2h0ZM206.7,172.1h3.5c4,0,5.8-1.2,5.8-4.4s-1.8-4.4-5.8-4.4h-3.5v8.8h0ZM244.6,172h4.1c5.6,0,2.2-1.8,7-1.8s2.8.3,3,.8c.5,1.4,3.1,7.6,3.1,8.6s-.6,1.7-2.9,1.7c-6.6,0-2.7-2.4-9.7-2.4h-4.7v10.5h7.5c5.4,0,3.4-3.6,9-3.6s3.6.6,3.6,1.5-2.7,7.3-3,8.2-.6.9-2,.9h-26.8c-1.5,0-2.1-.4-2.1-1.7v-3.1c0-1.5.6-2,2.5-2s2.2-.5,2.2-1.7v-23.2c0-1.2-.6-1.7-2.2-1.7s-2.5-.5-2.5-2v-3.1c0-1.2.6-1.7,2.1-1.7h25.2c.9,0,1.2.4,1.5,1.1.3.6,2.7,6.5,2.7,7.5s-.9,1.8-3.7,1.8c-4.1,0-3.7-3.4-9.2-3.4h-4.7v8.6h0ZM282.1,172h4.2c5.6,0,2.3-1.8,7-1.8s2.8.3,3,.8c.5,1.4,3.1,7.6,3.1,8.6s-.6,1.7-2.9,1.7c-6.6,0-2.7-2.4-9.7-2.4h-4.7v10.5h7.5c5.4,0,3.4-3.6,9-3.6s3.6.6,3.6,1.5-2.7,7.3-3,8.2-.6.9-2,.9h-26.8c-1.5,0-2.1-.4-2.1-1.7v-3.1c0-1.5.6-2,2.5-2s2.2-.5,2.2-1.7v-23.2c0-1.2-.6-1.7-2.2-1.7s-2.5-.5-2.5-2v-3.1c0-1.2.6-1.7,2.1-1.7h25.2c.9,0,1.2.4,1.5,1.1.3.6,2.7,6.5,2.7,7.5s-.9,1.8-3.7,1.8c-4.1,0-3.7-3.4-9.2-3.4h-4.7v8.6h0ZM310.1,164.8c0-1.4-.6-1.7-1.7-1.7-2,0-2.5-.5-2.5-2.3v-2.8c0-1.2.6-1.7,2.1-1.7h12.9c1,0,1.5.4,1.9,1.1l11.7,27.4h0,.1v-20.1c0-1.4-.6-1.7-1.7-1.7-2.2,0-2.7-.5-2.7-2.3v-2.8c0-1.2.6-1.7,2.1-1.7h11.6c1.5,0,2.1.4,2.1,1.7v3.1c0,1.5-.6,2-1.9,2s-2.1.4-2.1,1.7v29.9c0,1.2-.6,1.7-1.7,1.7h-7.9c-1.1,0-1.8-.4-2.2-1.4l-12.3-28.8h-.1v21.8c0,1.4.6,1.7,2,1.7s2.3.5,2.3,2.3v2.8c0,1.2-.6,1.7-2.1,1.7h-11.7c-1.5,0-2.1-.4-2.1-1.7v-2.8c0-1.8.5-2.3,2.3-2.3s2-.4,2-1.7v-23.2h0ZM93.9,245.8c-1.5,0-2.1-.4-2.1-1.7v-2.8c0-1.8.5-2.3,2.7-2.3s2-.4,2-1.7v-23.4c0-1.1-.5-1.5-2.4-1.5s-2.3-.4-2.3-1.8v-3.3c0-1.2.6-1.7,2.1-1.7h14.5c1,0,1.6.4,1.8,1.3l6.8,23.3h.1l6.8-23.3c.2-.9.8-1.3,1.8-1.3h13.8c1.5,0,2.1.4,2.1,1.7v3.1c0,1.5-.4,2-2.4,2s-2.3.4-2.3,1.7v23.2c0,1.3.5,1.7,1.9,1.7,2.2,0,2.7.5,2.7,2v3.1c0,1.2-.6,1.7-2.1,1.7h-12c-1.5,0-2.1-.4-2.1-1.7v-3.3c0-1.5.5-1.8,2-1.8s1.7-.4,1.7-1.7v-23.5h-.1l-8.5,30.3c-.4,1.2-.8,1.6-1.7,1.6h-4c-.9,0-1.4-.4-1.7-1.6l-9.2-30.3h-.1v23.5c0,1.4.5,1.7,2.1,1.7s1.9.4,1.9,2v3.1c0,1.2-.6,1.7-2.1,1.7h-11.9ZM201.6,205.7c1.5,0,2.1.4,2.1,1.7v3.1c0,1.5-.6,2-2.7,2s-2.2.5-2.2,1.7v18.4c0,4,2.3,6.4,6.3,6.4s6.4-1.8,6.4-6.4v-18.4c0-1.2-.6-1.7-2.2-1.7s-2.7-.5-2.7-2v-3.1c0-1.2.6-1.7,2.1-1.7h14.6c1.5,0,2.1.4,2.1,1.7v3.1c0,1.5-.6,2-2.7,2s-2.2.5-2.2,1.7v17.3c0,10.2-5,15-15.3,15s-15.6-5.2-15.6-15v-17.3c0-1.2-.6-1.7-2.2-1.7s-2.7-.5-2.7-2v-3.1c0-1.2.6-1.7,2.1-1.7h14.6,0ZM232,214.2c0-1.4-.6-1.7-1.7-1.7-2,0-2.5-.5-2.5-2.3v-2.8c0-1.2.6-1.7,2.1-1.7h12.9c1,0,1.5.4,1.9,1.1l11.7,27.4h0,.1v-20.1c0-1.4-.6-1.7-1.7-1.7-2.2,0-2.7-.5-2.7-2.3v-2.8c0-1.2.6-1.7,2.1-1.7h11.6c1.5,0,2.1.4,2.1,1.7v3.1c0,1.5-.6,2-1.9,2s-2.1.4-2.1,1.7v29.9c0,1.2-.6,1.7-1.7,1.7h-7.9c-1.1,0-1.8-.4-2.2-1.4l-12.3-28.8h-.1v21.8c0,1.4.6,1.7,2,1.7s2.3.5,2.3,2.3v2.8c0,1.2-.6,1.7-2.1,1.7h-11.7c-1.5,0-2.1-.4-2.1-1.7v-2.8c0-1.8.5-2.3,2.3-2.3s2-.4,2-1.7v-23.2h0ZM278.7,245.8c-1.5,0-2.1-.4-2.1-1.7v-3.1c0-1.5.6-2,2.7-2s2.8-.5,2.8-1.7v-23.9c-7,0-3.1,2.4-9.7,2.4s-2.9-.7-2.9-1.7,2.6-7.2,3.1-8.6c.2-.5,1-.8,3-.8,4.8,0,1.5,1.8,7,1.8h10.7c5.2,0,2.1-1.8,8-1.8s2.9.7,2.9,1.7-2.6,7.2-3.1,8.6c-.2.5-1,.8-3,.8-3.3,0-2.3-2.4-6.9-2.4v23.9c0,1.2.6,1.7,3.1,1.7s2.7.5,2.7,2v3.1c0,1.2-.6,1.7-2.1,1.7h-16.2,0ZM314.2,233.3l-.8,2.6c-.1.5-.2,1.1-.2,1.9s.5,1.3,1.5,1.3c2.3,0,3.3.5,3.3,2.1v3c0,1.3-.9,1.6-2.1,1.6h-13.5c-1.2,0-1.9-.3-1.9-1.6v-3c0-1.5.8-2.2,2.3-2.2s1.9-1.5,2.6-3.6l6-19.2c.2-.7.5-1.5.5-2.4s-1-1.4-1.8-1.4-1.8-.7-1.8-2.1v-3c0-1.2.6-1.7,2.1-1.7h20.7c1.4,0,2.1.4,2.1,1.7v3.3c0,.9-.8,1.8-2,1.8s-1.6.6-1.6,1.4.2,1.6.5,2.4l6.6,19.5c.8,2.2,1.4,3.3,2.6,3.3s2.2.7,2.2,2.2v3c0,1.3-.7,1.6-1.9,1.6h-14.1c-1.2,0-2.1-.3-2.1-1.6v-3c0-1.6,1-2.1,2.7-2.1s2.1-.4,2.1-1.4-.2-1.2-.4-1.9l-.7-2.5h-12.9ZM324.8,226.5l-4.3-13.9h-.1l-4.3,13.9h8.6ZM358.1,237.4c0,1.2.6,1.7,2.2,1.7s2.7.5,2.7,2v3.1c0,1.2-.6,1.7-2.1,1.7h-14.6c-1.5,0-2.1-.4-2.1-1.7v-3.1c0-1.5.6-2,2.7-2s2.2-.5,2.2-1.7v-23.2c0-1.2-.6-1.7-2.2-1.7s-2.7-.5-2.7-2v-3.1c0-1.2.6-1.7,2.1-1.7h14.6c1.5,0,2.1.4,2.1,1.7v3.1c0,1.5-.6,2-2.7,2s-2.2.5-2.2,1.7v23.2h0ZM370.6,214.2c0-1.4-.6-1.7-1.7-1.7-2,0-2.5-.5-2.5-2.3v-2.8c0-1.2.6-1.7,2.1-1.7h12.8c1,0,1.5.4,1.9,1.1l11.7,27.4h0,.1v-20.1c0-1.4-.6-1.7-1.7-1.7-2.2,0-2.7-.5-2.7-2.3v-2.8c0-1.2.6-1.7,2.1-1.7h11.6c1.5,0,2.1.4,2.1,1.7v3.1c0,1.5-.7,2-1.9,2s-2.1.4-2.1,1.7v29.9c0,1.2-.6,1.7-1.7,1.7h-7.9c-1.1,0-1.8-.4-2.2-1.4l-12.3-28.8h-.1v21.8c0,1.4.6,1.7,2,1.7s2.3.5,2.3,2.3v2.8c0,1.2-.6,1.7-2.1,1.7h-11.7c-1.5,0-2.1-.4-2.1-1.7v-2.8c0-1.8.5-2.3,2.3-2.3s2-.4,2-1.7v-23.2h0Z"/>
  <path class="st5" d="M190.2,175.2c1.5,0,2.1.4,2.1,1.7v3.1c0,1.5-.6,2-1.4,2-1.6,0-2.2.5-2.2,1.7v7.6c0,1.2-5.7,4.4-13.6,4.4-11.8,0-19.4-7.6-19.4-19.2s7.4-22.3,20.4-22.3,8.6.9,10.1,2.8c.6.8,2.2,6,2.2,6.8,0,1.4-.5,1.9-4,1.9-6.2,0-5.3-4-9.9-4s-8.6,5.7-8.6,14.5,4.1,12.4,9.4,12.4,3.6-.2,4.6-.8v-4.1c0-1.2-.6-1.7-2.7-1.7s-2.7-.5-2.7-2v-3.1c0-1.2.6-1.7,2.1-1.7h13.6ZM198.6,163.4c0-1.2-.6-1.7-2.2-1.7s-2.7-.5-2.7-2v-3.1c0-1.2.6-1.7,2.1-1.7h17.4c8,0,13.2,3.7,13.2,10.9s-3,9.5-8.3,11l10,14.6c.4.5.6,1.1.5,1.8,0,1.2-3.1,3.1-4.3,3.1s-1.4-.5-2-1.2l-14.5-18.4h-.1v9.9c0,1.2.6,1.7,2.8,1.7s2.7.5,2.7,2v3.1c0,1.2-.6,1.7-2.1,1.7h-15.2c-1.5,0-2.1-.4-2.1-1.7v-3.1c0-1.5.6-2,2.7-2s2.2-.5,2.2-1.7v-23.2h0ZM207.6,170.7h3.5c4,0,5.8-1.2,5.8-4.4s-1.8-4.4-5.8-4.4h-3.5v8.8h0ZM245.5,170.6h4.2c5.6,0,2.2-1.8,7-1.8s2.8.3,3,.8c.5,1.4,3.1,7.6,3.1,8.6s-.7,1.7-2.9,1.7c-6.6,0-2.7-2.4-9.7-2.4h-4.7v10.5h7.5c5.4,0,3.4-3.6,9-3.6s3.6.6,3.6,1.5-2.7,7.3-3,8.2c-.2.6-.6.9-2,.9h-26.8c-1.5,0-2.1-.4-2.1-1.7v-3.1c0-1.5.6-2,2.5-2s2.2-.5,2.2-1.7v-23.2c0-1.2-.6-1.7-2.2-1.7s-2.5-.5-2.5-2v-3.1c0-1.2.6-1.7,2.1-1.7h25.2c.9,0,1.2.4,1.5,1.1.3.7,2.7,6.5,2.7,7.5s-.9,1.8-3.7,1.8c-4.1,0-3.7-3.4-9.2-3.4h-4.7v8.6h0ZM283,170.6h4.1c5.6,0,2.3-1.8,7-1.8s2.8.3,3,.8c.5,1.4,3.1,7.6,3.1,8.6s-.7,1.7-2.9,1.7c-6.6,0-2.7-2.4-9.7-2.4h-4.7v10.5h7.5c5.4,0,3.4-3.6,9-3.6s3.6.6,3.6,1.5-2.7,7.3-3,8.2c-.2.6-.6.9-2,.9h-26.8c-1.5,0-2.1-.4-2.1-1.7v-3.1c0-1.5.6-2,2.5-2s2.2-.5,2.2-1.7v-23.2c0-1.2-.6-1.7-2.2-1.7s-2.5-.5-2.5-2v-3.1c0-1.2.6-1.7,2.1-1.7h25.2c.9,0,1.2.4,1.5,1.1.3.7,2.7,6.5,2.7,7.5s-.9,1.8-3.7,1.8c-4.1,0-3.7-3.4-9.2-3.4h-4.7v8.6h0ZM311,163.4c0-1.4-.6-1.7-1.7-1.7-2,0-2.5-.5-2.5-2.3v-2.8c0-1.2.6-1.7,2.1-1.7h12.9c1,0,1.5.4,1.9,1.1l11.7,27.4h0,.1v-20.1c0-1.4-.6-1.7-1.7-1.7-2.2,0-2.7-.5-2.7-2.3v-2.8c0-1.2.6-1.7,2.1-1.7h11.6c1.5,0,2.1.4,2.1,1.7v3.1c0,1.5-.6,2-1.9,2s-2.1.4-2.1,1.7v29.9c0,1.2-.6,1.7-1.7,1.7h-7.9c-1.1,0-1.8-.4-2.2-1.4l-12.3-28.8h-.1v21.8c0,1.4.6,1.7,2,1.7s2.3.5,2.3,2.3v2.8c0,1.2-.6,1.7-2.1,1.7h-11.7c-1.5,0-2.1-.4-2.1-1.7v-2.8c0-1.8.5-2.3,2.3-2.3s2-.4,2-1.7v-23.2h0ZM94.9,244.4c-1.5,0-2.1-.4-2.1-1.7v-2.8c0-1.8.5-2.3,2.7-2.3s2-.4,2-1.7v-23.4c0-1.1-.5-1.5-2.4-1.5s-2.3-.4-2.3-1.8v-3.3c0-1.2.6-1.7,2.1-1.7h14.5c1,0,1.6.4,1.8,1.3l6.8,23.3h.1l6.8-23.3c.2-.9.8-1.3,1.8-1.3h13.8c1.5,0,2.1.4,2.1,1.7v3.1c0,1.5-.4,2-2.4,2s-2.3.4-2.3,1.7v23.2c0,1.3.5,1.7,1.9,1.7,2.2,0,2.7.5,2.7,2v3.1c0,1.2-.6,1.7-2.1,1.7h-12c-1.5,0-2.1-.4-2.1-1.7v-3.3c0-1.5.5-1.8,2-1.8s1.7-.4,1.7-1.7v-23.5h-.1l-8.5,30.3c-.4,1.2-.8,1.6-1.7,1.6h-4c-.9,0-1.4-.4-1.7-1.6l-9.2-30.3h-.1v23.5c0,1.4.5,1.7,2.1,1.7s1.9.4,1.9,2v3.1c0,1.2-.6,1.7-2.1,1.7h-11.9ZM202.6,204.3c1.5,0,2.1.4,2.1,1.7v3.1c0,1.5-.6,2-2.7,2s-2.2.5-2.2,1.7v18.4c0,4,2.3,6.4,6.3,6.4s6.4-1.8,6.4-6.4v-18.4c0-1.2-.6-1.7-2.2-1.7s-2.7-.5-2.7-2v-3.1c0-1.2.6-1.7,2.1-1.7h14.6c1.5,0,2.1.4,2.1,1.7v3.1c0,1.5-.6,2-2.7,2s-2.2.5-2.2,1.7v17.3c0,10.2-5,15-15.3,15s-15.6-5.2-15.6-15v-17.3c0-1.2-.6-1.7-2.2-1.7s-2.7-.5-2.7-2v-3.1c0-1.2.6-1.7,2.1-1.7h14.6,0ZM233,212.8c0-1.4-.6-1.7-1.7-1.7-2,0-2.5-.5-2.5-2.3v-2.8c0-1.2.6-1.7,2.1-1.7h12.9c1,0,1.5.4,1.9,1.1l11.7,27.4h0,.1v-20.1c0-1.4-.6-1.7-1.7-1.7-2.2,0-2.7-.5-2.7-2.3v-2.8c0-1.2.6-1.7,2.1-1.7h11.6c1.5,0,2.1.4,2.1,1.7v3.1c0,1.5-.7,2-1.9,2s-2.1.4-2.1,1.7v29.9c0,1.2-.6,1.7-1.7,1.7h-7.9c-1.1,0-1.8-.4-2.2-1.4l-12.3-28.8h-.1v21.8c0,1.4.6,1.7,2,1.7s2.3.5,2.3,2.3v2.8c0,1.2-.6,1.7-2.1,1.7h-11.7c-1.5,0-2.1-.4-2.1-1.7v-2.8c0-1.8.5-2.3,2.3-2.3s2-.4,2-1.7v-23.2h0ZM279.7,244.4c-1.5,0-2.1-.4-2.1-1.7v-3.1c0-1.5.6-2,2.7-2s2.8-.5,2.8-1.7v-23.9c-7,0-3.1,2.4-9.7,2.4s-2.9-.6-2.9-1.7,2.6-7.2,3.1-8.6c.2-.5,1-.8,3-.8,4.8,0,1.5,1.8,7,1.8h10.7c5.2,0,2.1-1.8,8-1.8s2.9.6,2.9,1.7-2.6,7.2-3.1,8.6c-.2.5-1,.8-3,.8-3.3,0-2.3-2.4-6.9-2.4v23.9c0,1.2.6,1.7,3.1,1.7s2.7.5,2.7,2v3.1c0,1.2-.6,1.7-2.1,1.7h-16.2,0ZM315.1,231.8l-.8,2.6c-.1.5-.2,1.1-.2,1.9s.5,1.3,1.5,1.3c2.3,0,3.3.5,3.3,2.1v3c0,1.3-.9,1.6-2.1,1.6h-13.5c-1.2,0-1.9-.3-1.9-1.6v-3c0-1.5.8-2.2,2.3-2.2s1.9-1.5,2.5-3.6l6-19.2c.2-.7.5-1.5.5-2.4s-1-1.4-1.8-1.4-1.8-.7-1.8-2.1v-3c0-1.2.6-1.7,2.1-1.7h20.7c1.4,0,2.1.4,2.1,1.7v3.3c0,.9-.8,1.8-2,1.8s-1.6.6-1.6,1.4.2,1.6.5,2.4l6.6,19.5c.8,2.2,1.4,3.3,2.6,3.3s2.2.6,2.2,2.2v3c0,1.3-.7,1.6-1.9,1.6h-14.1c-1.2,0-2.1-.3-2.1-1.6v-3c0-1.6,1-2.1,2.7-2.1s2.1-.4,2.1-1.4-.2-1.2-.4-1.9l-.7-2.5h-12.9,0ZM325.8,225.1l-4.3-13.9h-.1l-4.3,13.9h8.7,0ZM359,235.9c0,1.2.6,1.7,2.2,1.7s2.7.5,2.7,2v3.1c0,1.2-.6,1.7-2.1,1.7h-14.6c-1.5,0-2.1-.4-2.1-1.7v-3.1c0-1.5.6-2,2.7-2s2.2-.5,2.2-1.7v-23.2c0-1.2-.6-1.7-2.2-1.7s-2.7-.5-2.7-2v-3.1c0-1.2.6-1.7,2.1-1.7h14.6c1.5,0,2.1.4,2.1,1.7v3.1c0,1.5-.6,2-2.7,2s-2.2.5-2.2,1.7v23.2ZM371.6,212.8c0-1.4-.6-1.7-1.7-1.7-2,0-2.5-.5-2.5-2.3v-2.8c0-1.2.6-1.7,2.1-1.7h12.9c1,0,1.5.4,1.9,1.1l11.7,27.4h0,.1v-20.1c0-1.4-.6-1.7-1.7-1.7-2.2,0-2.7-.5-2.7-2.3v-2.8c0-1.2.6-1.7,2.1-1.7h11.6c1.5,0,2.1.4,2.1,1.7v3.1c0,1.5-.6,2-1.9,2s-2.1.4-2.1,1.7v29.9c0,1.2-.6,1.7-1.7,1.7h-7.9c-1.1,0-1.8-.4-2.2-1.4l-12.3-28.8h-.1v21.8c0,1.4.6,1.7,2,1.7s2.3.5,2.3,2.3v2.8c0,1.2-.6,1.7-2.1,1.7h-11.7c-1.5,0-2.1-.4-2.1-1.7v-2.8c0-1.8.5-2.3,2.3-2.3s2-.4,2-1.7v-23.2h0ZM241.2,323.7c.9.9,1.4,2,1.4,3.3s-.5,2.4-1.4,3.3-2,1.4-3.3,1.4-2.4-.5-3.3-1.4-1.4-2.1-1.4-3.3c0-1.3.4-2.4,1.4-3.3.9-.9,2.1-1.4,3.3-1.4,1.3,0,2.4.5,3.3,1.4h0ZM241.7,323.2c-1-1-2.4-1.6-3.9-1.6-1.5,0-2.8.5-3.8,1.6-1,1-1.6,2.4-1.6,3.8,0,1.5.5,2.8,1.6,3.9s2.3,1.6,3.8,1.6c1.5,0,2.8-.6,3.9-1.6,1.1-1.1,1.6-2.4,1.6-3.9s-.5-2.8-1.6-3.8h0ZM238.7,326.8c-.3.1-.7.1-1,.1h-.9v-2.2h.9c.6,0,1,0,1.3.2s.4.4.4.9-.2.8-.6.9h0ZM235.7,330h1.1v-2.4h.8c.6,0,.9,0,1.2.2.4.2.6.7.6,1.4v.7s0,0,0,0h0c0,0,1,0,1,0h0c0-.2,0-.3,0-.4v-.9c0-.3-.1-.7-.3-.9-.2-.3-.6-.5-1-.6.3,0,.6-.1.9-.3.4-.2.6-.6.6-1.2s-.3-1.3-.9-1.5c-.3-.1-.9-.2-1.6-.2h-2.1v6h0Z"/>
  <path class="st1" d="M188.4,252h219.5M90.9,252.7h52"/>
  <path class="st4" d="M109.1,269.5c-13.1,1.7-25.2,7.4-37.1,13.7-1.8.5-4.4-.8-4.9-3,.3-7.6,3.5-15.1,11.6-18.1,8.7-4.5,20.6-4,29.4.9,4.5,2,4.4,6.1,1,6.5h0Z"/>
  <path class="st4" d="M107.5,287.2c-8.3,8.3-20.9,9.1-31.4,4.2-2-1.3-7.1-3.4-4.3-6.6,7.3-3.4,14.6-4.1,22.6-8.2,5.8-3,14.7-7.9,19.1-5,2.4,5.7-1.8,11.5-6,15.6h0Z"/>
  <path class="st3" d="M107.7,268.1c-13.1,1.7-25.2,7.4-37.1,13.7-1.8.5-4.4-.8-4.9-3,.3-7.6,3.5-15.1,11.6-18.1,8.7-4.5,20.6-4,29.4.9,4.5,2,4.4,6.1,1,6.5h0Z"/>
  <path class="st3" d="M106.1,285.8c-8.3,8.3-20.9,9.1-31.4,4.2-2-1.3-7.1-3.4-4.3-6.6,7.3-3.4,14.6-4.1,22.6-8.2,5.8-3,14.7-7.9,19.1-4.9,2.4,5.7-1.8,11.5-6,15.6h0Z"/>
</svg>