<?xml version="1.0" encoding="UTF-8"?>
<svg id="Layer_1" xmlns="http://www.w3.org/2000/svg" version="1.1" viewBox="0 0 500 500">
  <!-- Generator: Adobe Illustrator 29.2.1, SVG Export Plug-In . SVG Version: 2.1.0 Build 116)  -->
  <defs>
    <style>
      .st0 {
        fill: #fff;
      }
    </style>
  </defs>
  <g id="Layer_11" data-name="Layer_1" focusable="false">
    <path class="st0" d="M446.6,291.7h27.4v-19.7h19.5v-21.8h-19.4c.7-8.2,7.5-14.4,16-14.4h9.8v-27.6h-9.8c-24.3,0-43.5,19.3-43.5,43.4v39.9h0ZM333.7,250c0-9,7-16.1,16.1-16.1s16.1,7,16.1,16.1-7,16.1-16.1,16.1-16.1-7-16.1-16.1h0ZM222,250.1c0,24.1,19.3,43.4,43.5,43.4s37.7-13.1,42.4-31.1c5.3,18.1,21.9,31.1,41.7,31.1s36.6-12.9,41.7-30.9c5.9,16.9,22,29,41.2,29h9.8v-27.6h-9.8c-9,0-16.1-6.9-16.1-16v-39.9h-27.4v22.8c-7-14.8-21.9-24.8-39.3-24.8s-36.8,13.3-42,31.8h-41.7v21.9h12.1c-3,3.6-7.5,5.9-12.7,5.9-9,0-16.1-7-16.1-16.1s7-16.1,16.1-16.1,4.8.5,6.7,1.6l13.5-24.1c-5.9-3-12.7-4.8-20.1-4.8-24.3,0-43.5,19.3-43.5,43.7h0ZM138.8,291.7h8c1.6,0,3.8-1.2,5.4-2.8l77.1-76.7c2-1.8,2-4,0-4h-4.5l-78.8,78.4,1.3-6.2,72.3-72.2h-8.3l-61.8,61.8,1.2-5.7,55.3-56.1h-8.2l-44.7,44.9,1.3-5.9,38.4-38.9h-5.4c-1.7,0-4,1.1-5.4,2.6l-25.3,26,5.3-24.7c.5-2.2-1.1-4-3.2-4h-2.2l-17.6,83.3h-.3ZM128.7,291.7h6.5l17.6-83.4h-6.5l-17.6,83.3h0ZM118.8,291.7h6.6l17.6-83.4h-6.5l-17.6,83.3h-.1ZM109.9,287.8c-.5,2.2,1.1,4,3.2,4h2.2l17.7-83.4h-2.6c-2.1,0-4,1.3-4.4,3.6l-16.1,75.7h0ZM93.8,291.7h2.6c2.1,0,4-1.3,4.4-3.6l16.1-75.7c.5-2.2-1.1-4-3.2-4h-2.2l-17.6,83.3h-.1ZM74,291.7h6.6l17.4-83.4h-6.5l-17.6,83.3h0ZM64.9,287.8c-.5,2.2,1.1,4,3.2,4h2.2l17.7-83.4h-2.6c-2.1,0-4,1.3-4.4,3.6l-16.1,75.7h0ZM23.3,285.5l5,6.2h25.6c1.7,0,2.9-1.2,3.3-2.8l.7-3.4h-28.4l.8-3.7h28.2c.5-1.8.9-4.1,1.3-6.1h-28.2l.8-3.7h28.4c.4-2,.8-4.1,1.3-6.2h-28.4l.7-3.6h28.4l.5-2.2c.5-2-1.1-3.8-3.2-3.8h-24.3l9.2-43.9c.5-2.2-1.1-4-3.2-4h-2.2l-16.2,77.1h-.1ZM15.4,275.5l5,6.3,15.6-73.5h-6.5l-14.1,67.2h0ZM7.6,265.5l5.1,6.5,13.3-63.6h-6.5l-12.1,57.1h.1ZM0,256l4.9,6.2,11.2-53.8h-2.6c-2.1,0-4,1.3-4.4,3.6L0,256ZM107.9,208.3h-6.5l-17.6,83.3h6.5l17.6-83.3Z"/>
  </g>
</svg>