<?xml version="1.0" encoding="UTF-8"?>
<svg id="svg4540" xmlns="http://www.w3.org/2000/svg" xmlns:svg="http://www.w3.org/2000/svg" version="1.1" viewBox="0 0 500 500">
  <!-- Generator: Adobe Illustrator 29.2.1, SVG Export Plug-In . SVG Version: 2.1.0 Build 116)  -->
  <defs>
    <style>
      .st0 {
        fill: #fff;
        fill-rule: evenodd;
      }
    </style>
  </defs>
  <path id="path3568" class="st0" d="M207.7,191.5c-1.9,0-2.8,1.2-3.5,2.8-45.3,104-49.1,112.3-49.1,112.3h25.7l5.4-13h38.7l5.4,13h30.1s-2.6-5.4-49.1-112.3c-.7-1.7-1.6-2.8-3.5-2.8M194.3,273.6l11.1-27.2,11.2,27.2h-22.3ZM336,254.3c8.8-5.2,15.5-14.4,15.5-27.6s-4.2-18.8-11.4-24.6c-7.3-5.9-15.8-9-33-9h-36.9v113.3h27.3v-42.2h8.5c9.2,0,13.9,3.5,17.8,12.6,3.2,7.8,5.6,17,8.6,29.6h30.4c-4.3-12.9-6.5-18.9-9.7-28-4.5-12.4-9.8-20-16.9-24.2M318.5,240.4c-3.3,2.5-7.6,3.3-15.2,3.3h-5.8v-30.2h5.8c8,0,12,.8,15.2,3.3,3.7,2.7,5.3,7,5.3,11.8s-1.8,9.1-5.3,11.9M93.9,241.3l-46.3-46.1c-1.4-1.3-2.8-2.3-5-2.3v113.7h23.8v-54.4l27.6,27.3,27.6-27.3v54.4h23.8v-113.7c-2.2,0-3.6,1-5,2.3l-46.4,46.1h0ZM447.6,250c-12.1-11.5-34.3-13.5-42.9-20.2-3.4-2.7-4.6-6.6-3.5-10.3,1.3-4.6,6-7.6,12.8-7.6s17.8,4.2,23.6,11.1l15.6-16.2c-9.2-9.7-23.8-15.5-39.3-15.5s-31.5,8.6-37.7,22.4c-4.7,10.7-3.1,21.9,2.7,29.9,11.2,15.5,34.8,16,45,24,3.7,2.8,5.7,7.4,3.5,12.4-1.9,4.3-6.6,7.2-14.4,7.5-10.8.2-20.3-4.7-27.4-13.5l-15.6,16.2c10.3,12.4,25.7,18.3,44.3,18.3s33.9-7,40.4-21.8c5.6-13,3.7-26.8-6.9-36.7"/>
</svg>