<?xml version="1.0" encoding="UTF-8"?>
<svg id="Layer_1" xmlns="http://www.w3.org/2000/svg" xmlns:rdf="http://www.w3.org/1999/02/22-rdf-syntax-ns#" xmlns:dc="http://purl.org/dc/elements/1.1/" xmlns:cc="http://creativecommons.org/ns#" version="1.1" viewBox="0 0 500 500">
  <!-- Generator: Adobe Illustrator 29.2.1, SVG Export Plug-In . SVG Version: 2.1.0 Build 116)  -->
  <defs>
    <style>
      .st0 {
        fill: #bf0d3e;
      }

      .st1 {
        fill: #041e42;
      }

      .st2 {
        fill: #fff;
      }
    </style>
  </defs>
  <path class="st2" d="M458.4,115.2H41.7c-11,0-21.7,4.3-29.5,12C4.3,135.1-.1,145.8,0,157v185.9c-.1,11.1,4.2,21.8,12.1,29.6,7.8,7.8,18.5,12.2,29.6,12.2h416.7c23-.1,41.6-18.8,41.6-41.8v-186c.2-22.9-18.2-41.6-41.1-41.7,0,0,0,0,0,0-.2,0-.3,0-.5,0Z"/>
  <path class="st0" d="M485.4,156.9c.2-14.8-11.7-26.9-26.5-27.1-.2,0-.3,0-.5,0h-116.5l66.8,111.7,6.2.8,3.9,5.1v4.8l4.2.9,3.9,5.3v4.6l4.4.8,4.4,4.8v10.6c5.3,4.7,11.2,8.7,17.6,11.7,5.9,2.3,6.6,11.7,10.1,16.7,4.4,7.3,10.5,10.3,9.3,14.4-3,11-14.2,29.5-24.7,30.3h-41.4v17.7h51.8c15,0,27-12.2,27-27.2h0v-185.9"/>
  <path class="st1" d="M200.4,352.6h-20c0-50,16.9-77.7,37.2-83.2,2.8-.5,1.4-14.2-2.1-18.3h-11.7c-1.9,0-.8-3.5-.8-3.5l9.5-20.3-1.3-5.5h-35.1l28.8-20.1c1.3-53.1,55.8-57.3,88.6-35.1,19.5,12.9,21,38.5,19.5,56.2-.2,1.1-5.1.4-5.1.4,0,0-3.3,19.5,5.3,19.5h38.3c15.6-.6,30.7,10,30.7,10l3.7-13.4-83.9-109.2H41.7c-7.2,0-14.1,2.8-19.3,7.8-5.1,5.1-7.9,12.1-7.8,19.3v186c0,7.2,2.7,14.1,7.8,19.2,5.1,5.1,12,8,19.3,8h169.1c-4.1-7.1-8.9-15.2-10.3-17.6"/>
  <path class="st2" d="M52.1,313.1c0-10.2,8.3-18.5,18.5-18.5,10.2,0,18.5,8.3,18.5,18.5,0,10.2-8.3,18.5-18.5,18.5h-.2c-10.1,0-18.3-8.2-18.3-18.3h0c0,0,0-.2,0-.2"/>
</svg>