<?xml version="1.0" encoding="UTF-8"?>
<svg id="Layer_1" xmlns="http://www.w3.org/2000/svg" version="1.1" viewBox="0 0 300 100">
  <!-- Generator: Adobe Illustrator 29.0.1, SVG Export Plug-In . SVG Version: 2.1.0 Build 192)  -->
  <defs>
    <style>
      .st0 {
        fill: #fff;
      }
    </style>
  </defs>
  <path class="st0" d="M76.1,40.1c-.9,6-3.5,10.2-7.5,14.5-3.3,3.5-7.2,6.8-11.6,9-8.8-5.5-16.7-12.7-18.8-23.3-.7-.5-2.7,1.1-3.2,1.7,1.7,9.9,7.4,19.6,15.1,26.1,1.9,1.7,5.7,5,8.3,4.3,1.7-.5,7.9-6,9.3-7.5,4.5-4.8,10.5-14.6,11.4-21,.3-2.6-.8-3-3.2-3.7h.1Z"/>
  <path class="st0" d="M181.8,57.9c-.1-.6,0-1.1.7-1.4,7.2-.7,15.4,1.1,14.3-9-.2-1.7-1.1-2.1-2-3.4l2.8-.9v-1.9h-9.8c-1.1,0-4.3.6-5.4,1-3.7,1.4-4.6,4.7-4.1,8.3.2,1.1,1.1,2.9,2.4,3v.6c-.3.8-2.9,1.1-3.2,3.3-.1,1.5,1.4,2.4,1.5,2.7,0,.3-1.4,1.8-1.6,3.2-.8,5.9,3.6,7.5,8.7,7.9,3.6.2,9.7-.1,11.5-3.8,4.6-9.6-15.3-7.8-15.8-9.6h0ZM185.3,45c4.7-.9,8,.5,7,5.7-.6,3-5.9,2.9-8,2-2.6-1-2.7-7,1.1-7.7h-.1ZM183.3,67.2c-2-1-1.9-5.6-.9-5.9,2.4,1,9.7.9,11.1,2.9,2.8,3.7-7.2,4.5-10.2,2.9h0Z"/>
  <path class="st0" d="M72.6,29.7c-9.6-3.4-24.5-2.9-33.9,1.1-3.6,1.6-5.3,2-4.5,6.4,5.5-3.6,11.4-4.8,17.7-2.1,2,.8,3.5,2.1,5.4,2.9,7-5.3,15.4-6.1,22.7-.8.2-1.2.9-3.2,0-4.2-.6-.6-6.3-2.9-7.4-3.4h0Z"/>
  <path class="st0" d="M113.9,38.3c-1-.9-4.2-2.1-5.4-2.1h-12.3v26.3h4.4v-9.2h9c.6,0,3.4-1.2,3.9-1.7,4.2-2.8,4.1-10.2.2-13.3h.1ZM110.6,48.8c-.6.5-3.2,1.5-3.8,1.5h-6.2v-10.4h7.1c.1,0,2.1.7,2.4.9,2.5,1.4,2.7,6.5.7,8.1h-.1Z"/>
  <path class="st0" d="M265.6,56.3c-.6-.3-3.5-.3-4.1,0-.8.5-.6,2.3-2.8,2.8-4.4,1.1-8.4-.6-8.4-5.4h15.1c.9-.7.7-1.9.6-2.9-.6-7.4-4.8-10.2-12.2-9.3-11,1.4-10.2,19.8-.5,21,4.6.6,11,0,12.4-5.3,0-.5.5-.5,0-.9h-.1ZM261.5,50.1h-11.3c0-7.7,11.3-7.7,11.3,0Z"/>
  <path class="st0" d="M127.4,41.3c-11.5,1.4-10.7,20-.5,21.2,5.3.6,11.5-.2,12.3-6.4h-4.4c-1.9,5.7-11.5,3.8-11.4-2.4h15.6c.5-8.2-2.9-13.4-11.8-12.4h.1ZM134.8,50.1h-11.3c-.1-7.8,11.9-7.7,11.3,0Z"/>
  <path class="st0" d="M161.8,41.6c-9.2,1.9-9.3,17.7-1,20.5,4.8,1.6,13.7.6,13.8-5.9-1.1.1-2.4-.2-3.4,0-1.1.2-1.8,2.5-3.4,3-4.3,1.4-8.6-.7-8.4-5.4h15.3c1.2-8.8-3.8-14-12.8-12.2h-.1ZM159.3,50.1c-.5-7.8,11.4-7.8,11.3,0h-11.3Z"/>
  <path class="st0" d="M226.3,44.1c-1.1-1.6-.7-3.3-3.4-2.8v21.2h4.1l.5-13.7c-.3-4.8,8.8-5.3,10.1-2.1.1.3.7,3,.7,3.3v12.6h4.1v-15c0-.8-1.4-3.7-2-4.4-2.8-2.9-11.4-2.5-14,1h0Z"/>
  <path class="st0" d="M204,44.1l-.9-2.7h-2.4v21.2h4.4v-13.4c0-3.4,3.5-4.7,6.4-4.2v-3.6c-3.2-.5-5.4.9-7.7,2.8h.1Z"/>
  <path class="st0" d="M147.5,43c-.5.3-.6,1-.9,1.1-.9.3-1-2.3-1.5-2.7h-1.9v21.2h4.1v-14.2c0-.1,1-1.8,1.2-2,1.4-1.6,3.3-1.5,5.3-1.4v-3.6c-2.4-.2-4.3.2-6.2,1.7h-.1Z"/>
  <path class="st0" d="M214.3,62.2l4.3.3v-21.2h-4.1c.3,7-.6,14-.2,20.8h0Z"/>
  <path class="st0" d="M216.6,32.7h-.1c-1.5,0-3,.6-3,2.8s1.7,2.5,3.2,2.5,3.2-.7,3.2-2.5-1.6-2.8-3-2.8h-.1Z"/>
</svg>