<?xml version="1.0" encoding="UTF-8"?>
<svg id="Layer_1" xmlns="http://www.w3.org/2000/svg" version="1.1" viewBox="0 0 907.5 285">
  <!-- Generator: Adobe Illustrator 29.0.1, SVG Export Plug-In . SVG Version: 2.1.0 Build 192)  -->
  <defs>
    <style>
      .st0 {
        fill: #fff;
      }
    </style>
  </defs>
  <path class="st0" d="M134.6,89.5c-3.7,3.6-8,6.5-12.7,8.5-6.9,2.9-14.4,4.3-21.9,4-12.2.4-24-4.7-32.1-13.8-8.3-9.2-12.4-21.1-12.4-35.9v-1.6c0-14.7,4.1-26.7,12.3-35.9C76.1,5.6,88.1.5,100.5,1c6.6-.1,13.1,1,19.2,3.4,5.1,2.1,9.8,5.1,13.8,9v17.8h-9.3l-3.2-13.5c-2.4-1.9-5.1-3.4-8-4.4-3.6-1.2-7.4-1.8-11.2-1.7-10.6,0-18.7,3.6-24.5,10.9-6,8.1-9,18.1-8.6,28.2v1.7c0,11.7,2.8,21.2,8.3,28.4,5.4,7.2,14,11.2,22.9,10.8,4.4,0,8.9-.4,13.1-1.7,2.9-.9,5.7-2.1,8.3-3.7v-21.5l-16.1-.7v-9.8h29.3v35.3h0Z"/>
  <path class="st0" d="M237.4,52.3c.5,13-3.9,25.6-12.2,35.6-7.9,9.3-19.6,14.5-31.8,14.1-11.9.3-23.3-4.9-30.8-14.1-8.1-10-12.3-22.7-11.9-35.6v-1.4c-.5-12.9,3.8-25.5,11.9-35.6,7.5-9.3,18.9-14.5,30.8-14.2,12.2-.4,23.9,4.9,31.8,14.2,8.4,9.9,12.7,22.6,12.3,35.6v1.4ZM224.1,50.7c.4-10-2.5-19.8-8.3-27.9-5.3-7.1-13.8-11.2-22.7-10.8-8.6-.3-16.8,3.8-21.7,10.8-5.5,8.2-8.2,18-7.8,27.9v1.5c0,11.5,2.6,20.8,7.8,28.1,4.9,7.1,13.1,11.1,21.7,10.8,8.9.4,17.4-3.6,22.8-10.8,5.4-7.2,8.1-16.5,8.1-28.1v-1.5h.1Z"/>
  <path class="st0" d="M247.2,100.6v-8.5l11-1.9V13l-11-1.9V2.5h35.2v8.6l-11,1.9v77.2h34.1l1-11.3h11.3v21.6h-70.6Z"/>
  <path class="st0" d="M369.1,2.5c12.9,0,23.2,3.9,30.9,11.8,7.9,8.1,12.1,19.1,11.7,30.5v13.4c.5,11.4-3.7,22.5-11.7,30.7-7.8,7.8-18.1,11.8-30.9,11.8h-41.1v-8.5l11-1.9V13.1l-11-1.9V2.6h41.1ZM352.3,13v77.2h16.8c8.1.4,16-2.9,21.5-9,5.4-6.4,8.2-14.6,7.8-23v-13.5c.3-8.3-2.5-16.5-7.8-22.8-5.4-6.1-13.3-9.4-21.5-9h-16.8Z"/>
  <path class="st0" d="M499.6,32.6h-9.4l-2.5-13.8c-2.3-2.2-5-4-7.9-5.2-3.6-1.4-7.4-2.1-11.3-2-9.2-.5-18,3.7-23.5,11-5.8,8.2-8.7,18.1-8.3,28.1v1.5c-.4,10,2.4,19.9,8.1,28.2,5.1,7.2,13.5,11.4,22.3,11,4.1,0,8.2-.7,12.1-2.1,3.1-1.1,6-2.8,8.4-5.1l2.5-13.8h9.4v17.6c-3.5,4.1-7.8,7.5-12.7,9.7-6.1,3-12.9,4.4-19.7,4.3-12.1.3-23.6-4.9-31.4-14.1-8.3-9.9-12.6-22.6-12.1-35.5v-1.4c-.5-13,3.8-25.7,12.1-35.7,7.8-9.3,19.4-14.5,31.6-14.1,6.8-.1,13.6,1.3,19.7,4.3,4.9,2.3,9.2,5.6,12.7,9.7v17.4Z"/>
  <path class="st0" d="M555.6,2.6c10.7,0,18.9,2.4,24.6,7.1,5.8,5,9,12.5,8.6,20.2.1,4.5-1.3,9-4,12.7-2.9,3.9-6.9,6.9-11.4,8.7,4.8,1.3,8.9,4.4,11.6,8.6,2.5,4.5,3.7,9.5,3.5,14.6v7.9c0,2.3.3,4.6,1.2,6.7.7,1.4,2.2,2.4,3.8,2.6l3.2.4v8.7h-7.2c-4.4.4-8.7-1.8-11-5.5-2.3-4-3.4-8.5-3.3-13.1v-7.6c.2-4.7-1.4-9.4-4.6-12.9-3.3-3.3-7.8-5.1-12.5-4.9h-21.3v33.4l11,1.9v8.5h-35.3v-8.6l11-1.9V12.9l-11-1.9V2.6h43.1ZM554.2,46.4c7.4,0,12.7-1.4,16.2-4.2,3.5-3.1,5.4-7.7,5-12.4.2-4.6-1.5-9.1-4.9-12.2-3.2-3-8.2-4.5-15-4.5h-18.8v33.3h17.5Z"/>
  <path class="st0" d="M605.9,100.6v-8.5l11-1.9V13l-11-1.9V2.5h75.3v23.6h-11.4l-1.1-13.1h-38.6v31.8h37.5v10.4h-37.5v35.1h39.4l1.1-13.1h11.3v23.5h-76Z"/>
  <path class="st0" d="M764.8,31.5h-10.1l-2.5-14c-2.4-1.9-5.1-3.4-8.1-4.2-3.7-1.1-7.6-1.6-11.5-1.5-5.8-.4-11.5,1.2-16.2,4.5-3.7,2.8-5.8,7.1-5.7,11.7,0,4.3,2.2,8.3,5.8,10.7,5.7,3.6,12,6.2,18.6,7.5,8.7,1.7,16.8,5.6,23.5,11.3,5.2,4.7,8.2,11.5,8.1,18.5.2,7.6-3.5,14.7-9.7,19.1-7.4,5.1-16.3,7.6-25.3,7.2-6.9,0-13.7-1.1-20.1-3.7-5.4-2.2-10.3-5.5-14.3-9.7v-18.3h10l2.6,14.1c2.7,2.2,5.8,4,9.2,5.2,4.1,1.4,8.4,2.1,12.7,2,5.6.3,11.2-1.2,15.9-4.2,3.8-2.6,6-6.9,5.8-11.5,0-4.3-1.8-8.5-5-11.3-3.4-3-9.3-5.6-17.8-7.6-8.8-1.8-17.1-5.6-24.3-11-5.6-4.3-8.8-11-8.7-18.1,0-7.6,3.6-14.7,9.8-19.2,7.3-5.4,16.3-8.1,25.4-7.6,6.4-.1,12.8,1.1,18.8,3.5,5,2,9.6,4.9,13.6,8.6v18.3l-.5-.3Z"/>
  <path class="st0" d="M857,2.5v21.7h-11.3l-1-11.3h-21.8v77.2l11,1.9v8.5h-35.1v-8.5l11-1.9V13h-22.1l-.9,11.3h-11.3V2.6h81.5Z"/>
  <path class="st0" d="M246.7,215.2h-9.4l-2.5-13.8c-2.3-2.2-5-4-7.9-5.2-3.6-1.4-7.4-2.1-11.3-2-9.2-.5-18,3.7-23.5,11-5.8,8.2-8.7,18.1-8.3,28.1v1.5c-.4,10,2.4,19.9,8.1,28.2,5.1,7.2,13.5,11.4,22.3,11,4.1.1,8.2-.7,12.1-2.1,3.1-1.1,6-2.8,8.4-5.1l2.5-13.8h9.4v17.4c-3.5,4.1-7.8,7.5-12.7,9.7-6.1,3-12.9,4.4-19.7,4.3-12.1.3-23.6-4.9-31.4-14.1-8.3-9.9-12.7-22.6-12.2-35.6v-1.4c-.5-13,3.8-25.7,12.1-35.7,7.8-9.3,19.5-14.5,31.7-14.1,6.8-.1,13.6,1.3,19.7,4.3,4.9,2.3,9.2,5.6,12.7,9.7v17.7Z"/>
  <path class="st0" d="M258.5,274.7l7.3-1,34.3-88.5h11.4l33.7,88.5,7.2,1v8.5h-28.1v-8.5l7.4-1.3-6.5-18h-39.3l-6.7,18,7.4,1.3v8.5h-28.1v-8.5ZM289.9,244.3h31.2l-15.2-42.1h-.5l-15.5,42.1Z"/>
  <path class="st0" d="M405.6,185.1c10.5,0,18.6,2.7,24.4,8.1,11.7,11.8,11.7,30.8,0,42.6-5.8,5.4-13.9,8-24.4,8h-20.8v29l11,1.9v8.5h-35.3v-8.5l11-1.9v-77.2l-11-1.9v-8.6h45.1ZM384.8,233.5h20.8c5.5.4,10.9-1.5,14.9-5.4,3.3-3.7,5.1-8.5,4.9-13.5.2-5-1.6-9.9-4.9-13.6-3.9-3.9-9.4-5.9-14.9-5.5h-20.8v38Z"/>
  <path class="st0" d="M448.1,193.7v-8.6h35.2v8.6l-11,1.9v77.2l11,1.9v8.5h-35.2v-8.5l11-1.9v-77.2l-11-1.9Z"/>
  <path class="st0" d="M575.2,185.1v21.7h-11.3l-1-11.3h-21.8v77.2l11,1.9v8.5h-35.3v-8.5l11-1.9v-77.2h-21.8l-.9,11.3h-11.4v-21.7h81.5Z"/>
  <path class="st0" d="M569.4,274.7l7.3-1,34.3-88.5h11.4l33.8,88.5,7.2,1v8.5h-28.2v-8.5l7.4-1.3-6.5-18h-39.3l-6.7,18,7.4,1.3v8.5h-28.1v-8.5ZM600.8,244.3h31.1l-15.2-42.1h-.4l-15.5,42.1Z"/>
  <path class="st0" d="M671.5,283.2v-8.5l11-1.9v-77.2l-11-1.9v-8.6h35.2v8.6l-11,1.9v77.2h34.1l1-11.3h11.3v21.6h-70.6Z"/>
  <path class="st0" d="M857,140.8H50.9v5h806.1v-5Z"/>
  <path class="st0" d="M907.5,12c0,6.1-4.9,10.9-11,10.9s-11.1-4.8-11.1-10.9,4.9-10.8,11.2-10.8,10.9,4.7,10.9,10.8ZM888.1,12c0,4.8,3.6,8.6,8.4,8.6,4.7.1,8.2-3.8,8.2-8.5s-3.6-8.7-8.4-8.7-8.2,3.8-8.2,8.6ZM894.7,17.6h-2.5V6.8c1,0,2.4-.3,4.1-.3s3,.3,3.7.9c.7.5,1.1,1.2,1.1,2.3s-1,2.2-2.2,2.6h0c1.1.4,1.6,1.3,1.9,2.7.3,1.6.6,2.2.8,2.6h-2.6c-.3-.4-.5-1.3-.9-2.6-.2-1.1-.9-1.6-2.2-1.6h-1.2v4.2ZM894.8,11.5h1.2c1.4,0,2.5-.5,2.5-1.6s-.7-1.6-2.3-1.6-1.1.1-1.4.1v3.1Z"/>
</svg>