<?xml version="1.0" encoding="UTF-8"?>
<svg id="Layer_1" xmlns="http://www.w3.org/2000/svg" xmlns:xlink="http://www.w3.org/1999/xlink" version="1.1" viewBox="0 0 500 500">
  <!-- Generator: Adobe Illustrator 29.2.1, SVG Export Plug-In . SVG Version: 2.1.0 Build 116)  -->
  <defs>
    <style>
      .st0, .st1 {
        fill: #fff;
      }

      .st0, .st2 {
        fill-rule: evenodd;
      }

      .st3 {
        fill: #134a7c;
      }

      .st2, .st4 {
        fill: #ee3227;
      }
    </style>
  </defs>
  <path class="st4" d="M250.2,68.3C112.3,68.2.1,149.6,0,249.8c0,100.2,112,181.7,249.8,181.9,137.9.1,250.1-81.3,250.2-181.4.1-100.2-111.9-181.8-249.8-181.9"/>
  <path class="st1" d="M11.9,249.8c0,93.6,106.7,169.9,238,170,131.3.1,238.2-75.9,238.3-169.5,0-93.6-106.7-169.9-237.9-170.1-131.3-.1-238.3,75.9-238.3,169.6"/>
  <path class="st3" d="M19.8,249.8c.1-89.3,103.5-161.8,230.4-161.7,127,.1,230.2,72.9,230.1,162.1-.1,89.3-103.5,161.8-230.4,161.6-126.9-.1-230.2-72.8-230.1-162.1Z"/>
  <g>
    <path class="st1" d="M185.5,121.9c-.9-.4-2-.5-3-.3-.8.2-1.7.8-1.5,1.6.2.8,1.4.9,2.1.9h1.1c2.3.1,4.3.7,4.9,3,.3,1.4.3,3-.8,4.2-1,1.2-2.6,2-4.2,2.4-2,.4-4.1.3-5.9-.3l1.1-3.4c1.2.6,2.6,1,4,.6,1-.3,1.9-.9,1.6-1.9-.2-1-1.9-1-2.9-1-2.7,0-4.6-.3-5.2-3-.7-2.9,1.1-5.3,4.3-6.1,1.6-.3,3.7-.4,5.2,0l-1,3.3"/>
    <polyline class="st1" points="200 130.2 195.8 130.9 193.2 116.5 197.3 115.7 200 130.2"/>
    <polyline class="st1" points="204.1 114.5 208.3 114 217.1 122 217.2 121.9 216 113 220.2 112.5 222.1 127.1 217.8 127.6 209 119.6 209 119.6 210.1 128.5 205.9 129.1 204.1 114.5"/>
    <path class="st1" d="M239.1,116.3c-.9-1-2.3-1.5-3.8-1.4-2.6.1-4.2,2-4.1,4.3.1,2.3,2,3.8,4.6,3.7,1.4,0,2.7-.7,3.6-1.7l.3,4.6c-1.4.5-2.4.8-3.7.9-2.3.1-4.5-.5-6.2-1.8-1.9-1.3-2.8-3.2-2.9-5.4-.1-2,.6-4,2.1-5.5,1.5-1.6,3.8-2.6,6-2.7,1.4,0,2.6.1,3.9.5l.3,4.5"/>
    <polyline class="st1" points="249.8 114.5 249.8 116.9 254.6 116.9 254.6 120.2 249.8 120.1 249.8 122.7 254.8 122.7 254.8 125.9 245.6 125.9 245.6 111.2 254.9 111.2 254.9 114.5 249.8 114.5"/>
    <polyline class="st1" points="274.7 115.4 275 112.2 281.6 112.8 280.2 127.4 276 127 277 115.7 274.7 115.4"/>
    <path class="st1" d="M289.4,128.5l5.3-4.2h0c-.8.1-1.5.2-2.3,0-3.2-.5-4.8-3.2-4.4-5.9.5-3.6,4.1-5,7.8-4.5,1.5.2,3.3.9,4.4,1.9,1.2,1.2,1.8,2.8,1.6,4.3-.3,2.1-1.8,3.9-3.5,5.4l-4,3.5-4.8-.7M292.4,119c-.2,1.3.8,2.6,2.3,2.8,1.5.2,2.8-.7,3-2,.2-1.3-.8-2.6-2.3-2.8-1.5-.2-2.7.6-3,2Z"/>
    <path class="st1" d="M312.8,121l-.6,1.6,1.3.2c3.3.5,5.2,3.4,4.5,6.4-.3,1.5-1.4,2.7-2.9,3.4-1.5.7-3.3.5-4.9.2-1.8-.4-3.6-1.2-4.9-2.4l1.4-3.4c1,1.2,2.4,2.3,4.1,2.6,1.3.3,2.7-.3,3-1.6.4-1.7-1.3-2.8-2.9-3.2-1-.2-2.1-.2-3.2,0l3.1-7.5,8.3,1.8-.7,3.2-5.5-1.2"/>
    <path class="st1" d="M336.6,123.9l-5.8,3.4h0c.8,0,1.5,0,2.3.2,3.1.9,4.3,3.9,3.6,6.4-1,3.5-4.7,4.4-8.3,3.4-1.5-.4-3.1-1.3-4.1-2.5-1-1.3-1.4-3-1-4.5.6-2,2.3-3.6,4.1-4.8l4.5-3,4.6,1.4M332.4,132.9c.4-1.3-.4-2.6-1.8-3-1.4-.4-2.9.3-3.3,1.5-.4,1.3.5,2.7,1.9,3.1,1.4.4,2.8-.3,3.2-1.6Z"/>
    <path class="st1" d="M237.2,371.4c0,7.2-.4,8.5-.9,8.9-1,.9-3.9,1.8-6.1.3-2.1-1.4-2.9-4.5-2.9-10.1,0-3.1.4-7.2,1-11.8-3.4-.3-8-.3-10.3,0-.5,2.2-1.5,8.5-1.5,14.7,0,4.8.4,9.7,2.8,12.8,1.7,2.3,4.2,3.4,7.7,3.3,0,0,4,.3,7.3-1.9l2.7-1.3s0,2.6.3,2.9c1.7.3,9.1,0,9.1,0,0,0,.7-28.1.8-30.5-2.4-.4-7.6-.3-10.1,0,0,5.5,0,9.7,0,12.7"/>
    <path class="st1" d="M210.9,383c1.4-6.2-3.5-10-10.5-13.1-2.2-1-4.3-1.9-3.7-4.3.9-4,8-2.3,10.8-1.2.6-1.3,1.1-4.5,1.2-6.2,0-.2-20.3-4.5-22.4,5.5-1.4,6.6,4.1,9.4,9.1,11.7,3.8,1.7,5.9,3.5,5.1,6.2-1,3.2-9.2,2-12.2.4-.9,1.2-1.5,4.4-1.6,6.2,7.1,3.6,22.2,3.7,24.2-5.1"/>
    <path class="st1" d="M312.2,383.1c1.4-6.2-3.5-10-10.5-13.1-2.2-.9-4.3-1.9-3.7-4.3.9-3.9,8-2.2,10.8-1.1.6-1.3,1.1-4.4,1.2-6.2,0-.2-20.3-4.5-22.4,5.5-1.4,6.6,4.1,9.5,9.2,11.7,3.8,1.7,5.9,3.5,5.1,6.1-1,3.3-9.2,2-12.2.4-.9,1.3-1.5,4.5-1.6,6.2,7.1,3.6,22.2,3.7,24.2-5.1"/>
    <path class="st1" d="M271.4,369.1h0M283.4,378.5c-.4-5.6-6.7-6.4-6.7-6.7,0-.3,5.5-3,3.9-8.5-2.6-9-24.2-4.1-25.2-3.9,0,1.7-.4,30.3-.4,30.3,0,0,10.7,1.4,18.6-.1,4.4-.8,10.2-4.2,9.8-11ZM264.8,370.9c-.3-.3-.3-6.1.2-6.2,1.5-.6,7.1-.8,6.9,2.5-.2,3.1-6.9,4-7.1,3.7ZM265.1,383.5c-.3-.4-.2-5.8.2-6.2,1.9-1.7,8.6-2.1,8.4,2.4-.2,4.3-8.2,4.2-8.6,3.8Z"/>
    <path class="st0" d="M207,169.1c0,0,.1,0,.2,0,0,0-.2,0-.2,0M419.7,248.2c7.9-2.5,9.4-9.6,9.4-14.6,0-.4,0-.7,0-1,0-1.3-.6-4.5-4-6.4,1.6-9.5,3.7-25.5,3.7-36.9,0-2.4,0-4.5-.3-6.4-.2-1.5-1.2-6.5-8.3-8-3.7-.9-17.7-.5-25.3,2.8-2.1-5.1-8.5-5.6-10.7-5.7-4.7-.3-10.3.3-12.6.6-6.5.8-10.9,1.6-12.8,5.8-.6,1.3-1,2.6-1.4,4-.7-1-1.6-1.9-2.5-2.8-5.4-4.8-12.6-7.3-20.1-6.9-9.4.5-18.8,5.4-26.5,13.8-1.9,2.1-3.5,4.3-4.8,6.7-.2-.2-.4-.5-.6-.7,0,0,0,0,0,0,0-.1-.2-.2-.3-.4.1.1.2.2.3.4-4.2-6.1-5.6-9.5-4.9-12.7h0c.9-4,1.5-9.1-1.8-13-2.2-2.5-5.4-3.8-9.6-3.8,0,0-14.5,0-14.5,0-11.5,0-16.7,12.3-18.3,21.7-2.3-1.8-5.2-2.8-8.5-2.7h-2.4c-2.9.3-6,.5-7.5-.1,0,0,0,0,0,0,0-.3,0-.5,0-.8,0-.5.2-1.4.2-2.4,0-1.2-.2-2.8-1-4.4-.9-2-2.9-4.4-7.1-5.1-1.5-.3-5.6-.7-10.2-.8-5.2,0-9.5.7-10.2.8-2,.3-5.7,1.2-7.9,4.1-1.4,1.7-1.8,3.5-2,5.2-5.1-3.7-11.2-5.6-17.8-5.3-8,.4-16,4-23,10.3-.2-14.3-.9-25.4-1.4-31.4v-1.1c-.3-2.5-.5-5.8-3.1-8.8-3.9-4.5-9.8-4.5-11.7-4.5l-18.2,1.8c.3,0,.5,0,.8,0-3.2-.3-8,.7-11.1,4.7-3.3,4.1-2.5,9.4-2,12.9l.7,3.5c6,28.5,4.1,33.8,3,37.7-.8,2.6-3.5,3-4.6,3-3,.2-9.5-2.9-13.8-5.8-1.8-1.3-4.8-2.9-9.2-2.2-5.1.7-7.1,5-7.7,6.5v.2c-.4.6-2.7,5.8-7.1,15.6-.6,1-1.4,3-1.4,5.3,0,1.1.2,2.3.7,3.5,1.4,3.7,5.8,7,6,7.1,1.7,1.3,13.9,9.9,30.1,11.6-.9,1.7-1.5,3.6-2,5.9,0-.1-15.2,74.9-15.2,74.9-.8,3.9-1.9,9.2,1.9,13.5,2.4,2.8,6.2,4.2,11.2,4.2h16.7c8.9,0,12.3-5,14.6-12.4.1-.5.3-1,.4-1.6,0,0,.3.6.3.6,2.9,7.3,11.3,7.3,14.9,7.3h2.7c3.6,0,12,0,15-7.5,0,0,0-.3.3-.6,0,.1.3,1.1.3,1.1,2.1,8.9,6.7,12.8,14.7,12.7h16.5c4.4,0,7.8-1.1,10.2-3.3,2.5,2.2,6,3.3,10.5,3.3h9.4c6.2,0,10.2-2.3,12.4-6.8,1.7,3.5,5.1,6.5,12.2,6.5h.5s4.7.1,4.7.1h3.1c2.9.1,5.7-1.1,8-3.3.7-.7,1.3-1.5,1.8-2.2,7,5.2,16,10.3,25.3,10.3,7.9,0,10.8-4,12.4-7.4,0,0,.3-.6.4-.7,5.4,3,11.9,4.6,19,4.6,11,0,19.1-3.4,24.6-6.4,4.2,3,10.4,5.8,19.3,5.8,15.8,0,25.9-8.1,30.3-17.4,6.1.3,12.3-1.6,15.5-4.1,5.3-4.2,5.2-8.3,4.5-13h0c-1.6-10.7-10.4-10.1-13.2-9.9h-1.5c-4,.1-8,0-10.4-3-3.1-4.5-4.8-8.7-4.8-11.9,0-.6,0-1.1.2-1.6.3-1.7.6-3.5.6-5.3,0-1.5-.2-3-.7-4.4,19.5-1.6,24.6-14.1,27.1-22.8ZM153.3,245.3c-.4,1.2-1.4,4.8-2.8,9.1-1-3.5-2.7-9-2.7-9-2-6.2-5.3-9.1-8.6-10.3,3.8-2.6,7-5.8,9.5-9.6,2.7,4.3,6.5,7.9,11.1,10.6-2.6,1.6-4.9,4.4-6.5,9.2ZM242.2,245.7c-.9,3.7-1.7,7.9-2.3,12.4-.5-.7-1.1-1.3-1.7-1.9-4.2-4-9.8-6.2-15.8-6.1-10.5,0-19.4,7-21.7,16.4-2-10.3-3.5-17.9-3.5-17.9h0c-.6-3-1.6-5.6-2.9-7.6,4.4-1,8.7-2.4,12.7-4.4,0,0,.4-.2.3-.2,4.5-2.3,8.6-5.5,12.3-9.5.6,1.3,1.2,2.6,2.1,3.8,4.5,6.2,11.4,9.7,19.5,9.9,1.1,0,2.1,0,3.2,0-.9,1.4-1.7,3-2.2,5.1ZM323.5,259.3c.2,5.3,2.5,11.3,8.3,15-1.1-.1-2.3-.2-3.5,0-7,.3-13.9,3.1-20.2,8-1.2-5.9-4.2-10.8-8.9-13.7-6.2-3.9-12.8-5.2-19.5-4,1.2-5.1,2.7-10,3.7-12.9.7-2.1,1-4,1-5.6,0-2.6-.8-4.7-1.7-6.1,10-1.2,17.6-6,22.3-12.2,6.3,8.9,17.1,14.2,29.9,14.1.2,0,.5,0,.7,0-3.3,1.2-5.8,2.9-7.4,4.4-3.2,3.1-4.8,8.9-4.8,12.8,0,.1,0,.2,0,.3ZM359.9,226.6s0,0,0,0c0,0,0,0,0,0h0ZM361.7,247.5c0,.7,0,1.3,0,1.9,0,1.2,0,2.4.3,3.5-.1-.4-.3-.7-.5-1-3-5.6-9.3-10.5-16-11.3,7-1.5,13.8-4.6,19.7-8.9,1.2.9,2.5,1.7,3.8,2.3-4.3,3.7-6.8,8.2-7.3,13.5ZM234.6,174c0,0,0,0,0,.2,0,0,.1.2.2.3,0-.2-.2-.3-.2-.5Z"/>
    <path class="st1" d="M402,272.6c3.5,0,6.3,2.8,6.3,6.3,0,3.5-2.8,6.3-6.3,6.3-3.5,0-6.3-2.8-6.3-6.3,0-3.5,2.8-6.3,6.3-6.3M402,283.3c2.4,0,4.2-2,4.2-4.4,0-2.4-1.8-4.3-4.2-4.3-2.4,0-4.2,1.9-4.2,4.3,0,2.4,1.8,4.3,4.2,4.4ZM399.5,275.8h2.5c1.8,0,2.8.4,2.8,2,0,1.2-.8,1.7-1.7,1.7l1.4,2.6h-1.6s-1.3-2.5-1.3-2.5h-.6s0,2.5,0,2.5h-1.5s0-6.4,0-6.4ZM401,278.4h1.3c.6,0,.9-.2.9-.8,0-.6-.7-.7-1.2-.7h-.9s0,1.5,0,1.5Z"/>
  </g>
  <path class="st2" d="M85.1,202.7c.4-.8.9-2,1.8-2.1,1.3-.2,2.1,0,3.3.9,1.1.8,11.4,7.7,18.9,7.3,4.5-.3,9.9-2.6,11.7-8.5,3.1-10.3-.7-31.3-2.8-41.2l-.6-3.1c-.3-2.6-.8-5.7.5-7.4,1.5-1.9,3.9-1.7,4-1.7,0,0,18.3-1.8,18.3-1.8,2,0,4.2.2,5.6,1.8,1,1.1,1.1,2.7,1.2,4.5v1.2c1,9.7,3.2,38.8.3,54.6-2.8,15.6-10.7,23.9-26.4,27.5-16.4,3.9-32.8-4-39.9-9.3-1.3-.9-3-2.8-3.4-3.8-.5-1.4.5-3.1.5-3.1,0-.2,6.6-14.7,7-15.4l.2-.4M421,232.9c.3,8-3.8,8.4-6.2,8.6-1,.1-1.7.2-1.9.8l-.4,1.4c-2.4,9.2-5.3,20.6-26,20-6.1-.2-10.9-1.9-13.9-5-2.5-2.7-3.6-6.2-3.3-10.5,1.1-11.1,15.9-14.8,24.7-16h.1s0-.1,0-.1c0,0,.8-4.8.4-5.2l-.2-.2h-.2c-2,.9-19.4,7.4-28.3-4.5l-.4-.7-.4.2c-8.4,8-19.4,12.6-30.4,12.6-11.7,0-20.9-5.1-25.3-14.1-4.6-9.4-2.7-20.8,4.7-28.9,6.2-6.9,13.7-10.8,20.9-11.2,5.3-.3,10.4,1.5,14.3,4.9,4.5,4,4.3,8.9,3.4,12.2-2.1,7.5-9.8,14.7-17.9,16.6h-.3v.3c0,1,.5,1.9,1.5,2.4,3.1,1.8,10,.8,15.7-2.1,6.9-3.6,9.6-8.8,9.8-12.2l.4-2.8c.8-6.1,1.6-12.3,4.2-18.3.9-.8,15.4-2.6,20.2-1.4.7.2,1.1.4,1.2.7.3,1-.3,3.8-1,7.1-1.6,7.6-3.9,19,.3,24.6,1,1.1,2.3,1.7,3.7,1.7,1.3,0,2.6-.7,3.6-1.8,1.2-1.2,1.7-8.5,2.3-18.1.2-4.3.5-8.7.8-9.2.9-1.1,16.1-4.1,21.6-2.6,1.1.3,1.7.8,1.7,1.4,1.4,12.7-3.2,42.6-4.5,47.8,0,.1,0,.4.1.5.3.3.9.4,2.1.3,1.2,0,2.9,0,2.9.7M328.9,202.9c4.9,0,10-3.7,10.8-6.8.3-1.5-.2-2.6-1.7-3.3-1.6-.8-3.3-.6-5,.5-2.8,1.9-4.9,6.3-4.5,9.3v.3c0,0,.4,0,.4,0ZM393.2,242.8v-.3s-.4,0-.4,0c-4.8.3-9.7,2.7-10.9,5.4-.5,1.1-.3,2.2.5,3.1,1.2,1.3,2.8,1.7,4.6,1.1,3-1.1,6.2-5,6.2-9.3ZM296.2,196.5c5.1,6.4,7.3,12.3,6.2,17.3-1.3,9.2-9.8,19-25.2,18.8-9.5-.1-14.4-3.7-17.6-6.8l-.3-.3-.2.3c-3.8,4.5-11.1,7.6-17.9,7.4-3.9,0-9.4-1.3-13.3-6.7-4.3-5.8-1.7-13.7.3-17.8,1.1-2.3,2.1-5.2,0-6.3-.7-.3-1.3-.3-1.9,0-1.5.6-2.4,2.6-3,3.9l-.2.5c-4.5,10.7-11.6,18.9-19.7,23.1,0,0-.3.2-.3.2-7.2,3.6-15.6,5.3-23.6,4.6-12.5-1.1-21.9-7-25.9-16.3-3.7-8.8-1.7-19,5.3-26.7,6.2-6.8,13.6-10.8,20.9-11.1,5.3-.3,10.4,1.5,14.3,4.9,4.4,4,4.3,8.8,3.3,12.2-2.1,7.5-9.8,14.7-17.9,16.6h-.3v.3c0,1,.5,1.8,1.5,2.4,2.9,1.7,9.9.8,15.7-2.1,4.3-2.1,6.7-6.1,6.8-6.2,6-10.2,2.2-27.4,2-28.1-.2-.5-.5-2.1.2-2.9.6-.7,2.3-1.1,2.9-1.2,0,0,4.1-.7,8.8-.6,4.8,0,8.2.5,8.7.6h.3c.6.2,1.1.2,1.4,1,.4.7.3,1.6.1,2.4-.2,1.2-1.1,7.3,4,8.9,3.3,1.6,7.5,1.3,11.7,1.1l2.3-.2c2.1,0,3.6.8,4.5,2.6.7,1.6,0,3.4-.8,4.8-.9,1.6-8.6,15.8-5.1,20.2.9,1.2,2.6,1.6,4.8,1.1,7.7-1.6,12-20.3,12-27.6,0-7.2,3.7-20.2,11-20.2h14.5c1.8,0,2.9.3,3.5,1,.9,1.1,1,3.2.2,6.7-1.3,6.2,1.4,11.6,6.1,18.3M173.5,203.2c4.9,0,10-3.8,10.7-6.8.4-1.5-.2-2.7-1.7-3.4-1.6-.8-3.3-.6-4.9.5-2.8,1.9-5,6.3-4.5,9.3v.3s.4,0,.4,0ZM282.9,207.6c0-2.3-1.4-4.4-2.7-6.4-.9-1.4-1.8-2.8-2.3-4.3h-.8c.2,5.3-2.2,12.8-4.8,15.3l-.4.4.5.2c2.4,1,5,1.1,6.9.2,1.5-.7,2.6-1.8,3.2-3.5.2-.7.3-1.3.4-1.9ZM341.6,269.5h0c2.3.4,3.5,3.4,3,5.8-.1.7.2,1.3.9,1.6,1.2.5,3.3,0,4.9-2.1,4.5-6,5.7-14.3,2.8-19.8-1.3-2.6-4.2-5.6-9.9-5.6-4.4,0-7.2,1.7-8.7,3.2-2.2,2.1-2.9,4.6-2.9,6.1,0,2.7,1.2,9.2,9.8,10.9M298.9,323.1c2.7.2,5,.9,6,2.6.7,1.2.2,2.5,0,3-.7,2.1-2,5.1-2.9,6.9l-.3.6c-.8,1.7-1.4,3-5.3,3-11.8,0-24.6-11.9-30.1-17l-1.1-1v8.9c0,1-.6,2.3-1.6,3.2-.8.8-1.7,1.2-2.5,1.2h-2.6c0,0-5.2-.3-5.2-.3h-.6c-2.5,0-4.8,0-5.5-4-2.9-18.2-3.4-59.3,2.3-82.3,1.3-5.4,4.8-6,12.4-6h8.3c2.5,0,4.2.7,5.2,2,1,1.3,1,3.3.1,5.8-1.8,5.2-5.8,19.3-6.3,27.5v.8c0,0,.6-.5.6-.5,8.5-6.5,16.8-7.2,24.7-2.3,3.6,2.3,5.8,6.7,6,12.2.4,9.8-5.5,20.2-15.8,27.7l-.2.2v.3c1.5,2.8,8.8,7.1,14.2,7.4M281.5,293.6c0-.5,0-.9-.2-1.3-.4-1-1.3-1.6-2.5-1.8-1.7-.3-3.3.1-4.8,1.3-3.8,2.9-5.5,9.4-5.6,12.8v.3s.4,0,.4,0c4.6,0,8.2-3.1,10.4-5.7,1.3-1.6,2.4-3.8,2.4-5.6ZM414.8,308.9c.2,1.1.3,2,.3,2.7,0,1.7-.5,2.4-2,3.5-2.5,1.9-10.4,3.9-15.4,1.1l-.5-.3v.5c-1.4,8.9-9.7,18.5-24.9,18.5-9.7,0-15.2-4.1-18-7.5l-.2-.2-.6.4c-4.4,2.8-12.5,7.9-25,7.9-9.8,0-17.9-3.6-22.8-10.4l-.5-.7c-6.3-9.5-5-22.3,3-31.3,6.1-6.8,13.4-10.7,20.5-11,5.3-.3,10.2,1.5,14,4.8,4.4,3.9,4.2,8.7,3.3,12.1-2,7.4-9.6,14.5-17.6,16.4h-.3c0,0,0,.4,0,.4,0,1.1.6,2,1.7,2.6,2.9,1.5,9.5,1.1,15.2-2.4,7.6-4.5,10.8-15.9,11.2-22.4.3-6.7,3.4-21.4,10.8-21.4h14.3c1.8,0,2.8.3,3.4,1,.9,1,.9,3.1.2,6.6-1.5,7,2.4,14.5,6,19.6,5.1,6.3,13.1,6.2,16.9,6.2h1.9c2.9-.3,4.3-.4,4.9,3.4M322.8,304.6c4.8,0,9.8-3.7,10.6-6.7.4-1.5-.2-2.6-1.6-3.3-1.6-.8-3.2-.6-4.9.5-2.8,1.8-4.9,6.2-4.4,9.1v.3c0,0,.4,0,.4,0ZM375.3,303.9c-.9-1.3-1.8-2.8-2.3-4.2h-.7c.2,5-2.2,12.6-4.7,15.1l-.4.4.5.2c2.3,1,4.9,1.1,6.7.3,1.5-.6,2.6-1.8,3.2-3.5,1.1-3.1-.6-5.7-2.3-8.2ZM230.8,291.8h-15.6c-2,0-3.6.3-4.6,1.3-1.1,1.1-1.5,3.2-1.4,6.6.3,6.2,1.3,14.3,2,20.8l.8,7.9c.5,5.8,3.2,6.3,6.9,6.2h9.4c3.4,0,5.6-.4,6.1-6.4.5-5.7,1.7-19.1,2.2-28.7.2-3.4-.2-5.5-1.4-6.6-1-1-2.5-1.2-4.6-1.2M222.1,286.3c8,0,14.5-6.3,14.6-14.1,0-3.8-1.6-7.4-4.3-10-2.7-2.6-6.4-4-10.2-4-8,0-14.6,6.4-14.6,14.1,0,3.8,1.5,7.3,4.3,10,2.7,2.6,6.3,4,10.2,4M189.1,250.6c-1-5.3-3.8-8.4-7.5-8.4h-15c-2.9,0-4.6,1.8-5.9,5.9-1.2,3.7-9.9,33.1-10,33.4l-.4,1.2-10.3-34.5c-1.3-4.1-3.1-5.8-5.9-5.9h-14.6c-3.8,0-6.6,3.2-7.6,8.5l-15.3,75.4c-.7,3.3-1,5.8.2,7.3.9,1,2.5,1.5,5.1,1.5h16.8c3.2,0,4.9-.4,7-7,1.7-5.5,3-11.6,4.1-16.4l1.8-7.9s9.7,22.6,9.7,22.7c.8,2,2.7,2.6,7.6,2.6h2.7c4.9,0,6.8-.7,7.6-2.7l9.8-22.7,5.9,24.3c1.5,6.5,3.6,6.9,7,6.9h16.5c2.6,0,4.2-.5,5.1-1.6,1.3-1.4.9-3.9.2-7.3l-14.5-75.3"/>
</svg>