<?xml version="1.0" encoding="UTF-8"?>
<svg id="Layer_1" xmlns="http://www.w3.org/2000/svg" version="1.1" viewBox="0 0 512 500">
  <!-- Generator: Adobe Illustrator 29.2.1, SVG Export Plug-In . SVG Version: 2.1.0 Build 116)  -->
  <defs>
    <style>
      .st0 {
        fill: #fff;
      }
    </style>
  </defs>
  <path class="st0" d="M64.1,181.6h-.4c0,0,3.8,3.7,3.8,3.7l4.5,2.6,5.9,1.5h4.8l1.1-.4,1.5-1.9-.4-1.5-2.6-4.1-1.1-3.8v-6.3l.4-1.5,1.9-4.1,3-3.8,3.8-3,5.2-3,4.5-1.9-3,6.3-3,8.9-4.1,15.2-2.6,11.6-4.5,23.5v4.8l1.1,2.3,2.3,1.5,4.5.8h8.9l1.9-.4,1.5-1.1,1.1-3.4.4-5.5,1.5-10.4,2.3-10.8.4-3h.8v.8l1.9,6.3,4.5,14.8,4.5,14.5,3.4,8.9,3.4,7,3,5.2,3.8,5.2,5.2,5.2,4.1,3,4.5,2.3,4.5,1.5,5.9,1.1h8.9l3.4-.4,8.9-1.9,8.5-2.6,8.9-3.4,8.5-4.1,5.9-3,9.3-4.8,19-10,7.4-3.8,13.1-6.3,7.4-2.6,7.8-1.5h11.2l1.5.4,3.4,1.5,1.9,2.3,1.5,4.5v5.2l-1.5,5.2-3,5.2-4.1,5.2-1.5,3,.4,1.9,1.9,1.1h3.4l1.1-.4,3.8-2.3,5.2-3.8,3.8-3.8,3.4-3.8,3.4-4.8,3-6.3,1.5-5.9v-4.5l-.8-3.4-1.9-4.1-2.3-2.6-3.4-2.6-4.1-1.5-5.9-.8h-5.5l-8.2.8-7,1.5-10,3.4-12.3,5.5-15.6,7.8-7,3.8-11.2,5.5-8.9,4.1-9.7,3.8-8.9,2.6-8.9,1.9-6.3.8h-7.8l-4.8-.8-5.9-2.3-4.8-3-4.8-4.8-4.1-5.9-3-5.5-2.6-5.5-5.9-14.5-4.5-11.2-3.8-8.9,4.5-1.9,5.9-3,5.5-3.8,4.1-3.8,4.1-5.2,2.6-5.2,1.1-5.2-.4-4.5-1.5-4.1-2.3-3.8-3.8-3.4-5.2-3-5.5-1.9-7-1.1h-17.1l-3,.4-8.2,1.5-9.3,2.6-7.4,3-5.9,3-4.1,2.6-3.4,3-4.1,4.5-2.3,4.1-1.1,4.5v4.8l.4,1.9,2.6,5.2ZM112.8,175.9l6.7-22.7,1.5-2.6.8-.4,4.5,1.1,3,2.3,1.9,3,.4,1.1v7l-1.1,3.8-1.9,3.8-2.6,3.4-3,3-4.1,2.6-4.1,1.5-3.8.4,1.9-7h-.2Z"/>
  <polygon class="st0" points="333.8 347.4 330 351.1 325.2 354.8 320.3 357.5 314.4 359.6 307.4 361.1 299.1 361.9 294.7 361.9 285.8 361.1 273.8 359.2 260.5 356 233.6 348.5 221.4 345.5 217.3 344.8 218.8 342.2 222.2 334.4 225.1 325.4 229.2 309.5 233.6 292.7 237 281.6 238.5 278.6 240.4 276.7 243.3 275.6 245.2 276 246 277.1 247.1 280.5 247.1 284.5 245.6 290.9 245.2 293.8 246.3 295.3 250.8 295.3 256.4 292.4 260.1 289 263.4 284.9 265.3 280.5 265.3 275.6 264.5 273.4 261.9 269.7 258.6 267 254.5 265.5 248.2 264.4 243.3 264.4 240.4 264.8 236.3 265.9 231.5 268.2 226.6 271.5 223.6 274.8 220.7 279 218.1 284.1 215.8 290.9 210.3 312.4 209.5 312 204.6 308 198.3 303.5 190.5 299.4 182.8 296.4 174.2 294.2 165.3 292.7 156.7 292 135.1 292 124.3 292.4 102.4 293.4 88.3 293.8 79.7 293.8 70.8 293.4 67.1 293 58.9 292 51.1 290.1 42.9 287.1 37.3 284.1 32.1 280.8 28.4 277.5 26.9 276.7 26.5 275.6 23.2 271.9 19.5 266.7 15.4 258.9 12.4 250.7 10.2 242.1 9 241 8.3 242.1 6 254.8 6 259.6 7.9 268.9 10.5 276 13.9 282 17.2 286.4 20.6 290.5 25 294.5 29.1 297.9 35.4 302 43.3 305.7 50.7 308.4 58.5 310.2 67.8 311.4 76 311.4 80.9 311 90.2 309.9 109.1 306.8 129.9 303.1 141.8 301.7 154.9 301.7 163.8 302.7 172.3 304.6 182.4 308 189.8 311.4 196.1 315 201 318.4 206.5 322.8 206.9 324.7 204.6 330.6 200.2 341 199.5 342.9 191.3 343.3 185 344.4 180.5 346.7 177.9 349.2 176.4 352.2 176 355.6 177.5 358.9 180.9 361.9 185 363.4 190.9 363.4 194.7 362.6 199.5 361.1 205 358.2 210.3 354.1 212.5 354.5 225.9 359.2 240.4 364.9 260.5 373.1 269.8 376.4 280.1 379.7 288 381.2 296.9 381.2 301.7 380.5 307 379 313.3 376.4 319.9 372.3 325.2 368.2 328.1 365.3 331.5 361.1 335.3 356 337.4 351.8 337.8 348.5 335.3 347 333.8 347.4"/>
  <path class="st0" d="M505.7,205.4v.3c0,0-1.6-1.1-1.6-1.1l-1.5-.4-1.1.8-2.6,3.8-3.4,3.4-4.5,3.4-5.2,2.6-5.5,1.9-8.2,1.5-6.7.8h-10.8l-8.5-.8-13.8-1.9-30.1-5.2-14.1-2.3-4.5-.4.4-.8,2.3-8.9,2.6-13.4,3-14.2,2.6-8.9,1.9-6.3-.4-1.5-1.1-1.1-3.4-2.3-4.5-1.9-3.8-.8h-8.9l-5.5,1.1-5.2,2.3-4.8,3-3.8,3.4-4.1,4.5-3.4,4.8-3,5.9-1.5,5.5v9.3l.8,2.6,2.3,3.8,2.3,1.9,3.8,1.1h3.4l5.5-1.5,5.9-2.6,5.2-3.4-3.4,10.8-2.3,5.9-1.1.4-13.8,1.1-8.2,1.1-5.9,1.9-5.9,3-4.8,3.8-1.9,2.3-2.6,3.4-1.9,3.8-1.1,5.5.4,4.8,1.5,4.8,2.3,4.1,2.6,2.6,3.4,2.3,4.1,1.9,7,1.1h3.4l5.5-.8,5.5-1.9,5.9-3,4.8-3.8,3.4-3.8,3.8-5.2,3.8-7,4.1-9.3,5.5,1.1,19.3,5.5,17.1,5.2,13.4,3.8,11.2,2.6,10.8,1.5h9.7l2.6-.4,5.9-1.1,5.2-1.9,5.9-3,4.5-3.4,3.4-3.4,4.1-5.2,3.4-5.9,2.6-7,.8-3.8-.4-2.3ZM361.6,223.2l-3,5.2-3,4.1-4.1,4.1-3.8,2.3-3.4,1.1h-3.4l-3.4-1.5v-.8h-.8l-1.5-3.4.4-2.6,1.9-3.8,2.6-2.3,3.8-2.3,4.5-1.5,4.1-.8,8.5-.4h1.1l-.8,2.3.2.2ZM376.6,165.1h0l-3.4,8.9-3.4,6.3-2.6,3.4-2.6,2.3-1.5.4-1.1-1.9.4-3.8,1.5-4.8,3-5.9,4.1-5.2,3.8-3,.8-.4h1.5l-.4,3.8Z"/>
  <path class="st0" d="M418.3,248v-.3c0,0-3.9-2.3-3.9-2.3l-4.1-1.1h-3.8l-1.9.8-1.1,1.1-.8,5.9-1.5,8.2-4.5,16.7-2.6-.8h-7l-2.6.8-4.5,1.9-5.5,3.8-2.6,2.6-3.4,3.8-3,4.1-2.6,4.8-1.9,4.8-1.1,6.3v5.2l.8,3.4,1.5,3,3,3,4.1,1.5h4.5l4.5-1.1,5.2-2.6,7-4.5,1.5-.4,1.1.8,3.8,2.3,5.2,1.5h4.5l2.6-1.1.4-1.1-.8-4.5-.8-4.8.8-5.9,2.6-10.4,6.3-24.1,3.4-13.1.4-3.4-.8-1.9-2.6-3ZM392.8,291.9h0c0,0-3,6.8-3,6.8l-3,5.9-1.9,3.4-3,2.6-2.3.4-.8-.8-.4-2.3,1.5-5.9,1.9-4.8,2.6-4.5,3.4-3.8,3.8-1.9,1.9.4-.8,4.5Z"/>
  <polygon class="st0" points="275 191.9 275 196.8 276.8 198.9 279.8 200.1 284.6 200.5 290.9 200.5 292.1 200.1 293.2 198.6 293.2 194.5 294.3 187.9 296.2 181.1 299.1 174.1 302.1 168.9 305.5 165.1 307.7 164 307.7 167.4 302.5 183 301 190.4 301 197.9 301.7 201.2 304.4 206.5 307.7 209.7 312.9 212.4 318.8 213.5 322.2 213.5 325.2 213.1 331.1 211.3 336.3 208.2 339.3 205.3 342.7 201.2 343.1 198.6 341.9 197.5 338.9 197.5 337 198.2 333.8 198.9 330.4 198.9 328.9 198.6 326.7 197.5 324.8 196 323 192.3 322.2 187.9 322.6 184.1 327.7 164.8 328.5 159.6 328.1 156.2 326.7 153.2 324.5 151.3 321.5 150.3 317 150.3 313.3 151 308.8 152.8 303.6 156.2 299.1 160.6 298.1 159.6 295.1 156.2 291.3 154.3 286.9 154 283.1 154.7 282 155.9 281.3 160.6 277.6 178.6 275 191.9"/>
  <polygon class="st0" points="214.7 212 214.7 216.1 216.6 218.3 219.2 219.4 224.7 220.2 230.4 219.8 232.2 219 232.9 217.2 233.3 211.3 237 197.5 241.9 179.6 247.1 161 249.7 153.2 252.6 146.2 257.1 138 259.8 135 263 132.4 267.9 130.6 275.3 130.6 276.8 131 279.5 131.3 280.5 130.2 280.9 128.3 279.1 125.3 275.3 122 270.8 119.8 266.4 119 260.5 119 256.4 119.8 251.9 121.7 246.7 125 242.6 128.7 238.5 133.9 235.5 139.5 232.2 147.7 228.9 157.7 225.5 168.9 220.3 188.9 214.7 212"/>
  <path class="st0" d="M301,291.6l-2.6-2.3-3-1.5-5.9-1.5h-6.7l-2.6.4-6.3,1.9-4.5,2.3-4.8,3.4-2.3,3.4-.8,4.5-3,3.8-3.4,4.8-1.5,3.8-1.1,5.5.4,4.1,1.9,4.5,2.3,2.6,3,2.3,4.8,1.5h8.5l2.6-.4,6.7-1.9,3.8-1.9,4.8-3,4.1-3.8,3-3.8,2.6-4.1,1.9-4.5,1.5-6.3v-6.7l-1.5-4.5-1.9-2.6ZM285.4,303.4h0c0,0-1.5,7.5-1.5,7.5l-1.9,4.8-2.3,4.1-3,3.4-1.5.8-2.6-.4-1.5-3-.4-1.5v-4.8l.8-2.6h4.8l1.5-.8-.4-3.4-.8-2.3v-3.8l2.3-3.4,3-1.5,1.9.4,1.1,1.5.4,1.1v3.8Z"/>
  <path class="st0" d="M149.1,185.4v.2c0,0-.7,4.5-.7,4.5l-3.4,4.1-2.6,4.1-1.9,4.5-.8,4.5v3.4l.4,2.3,1.5,3.4,3,3.4,3.4,2.3,3.8,1.1h8.9l2.6-.4,5.9-1.9,5.9-3,5.2-3.8,1.9-2.3,3.4-3.8,3-5.2,1.9-4.8,1.1-5.5v-4.5l-.8-3-2.3-4.5-3-3-4.5-2.3-4.1-.8h-6.7l-3,.4-4.8,1.1-4.5,1.9-4.8,3-2.6,2.6-1.5,2.3ZM158,199.3h0l5.2.4,1.5-.8v-3l-1.1-3v-3l1.5-3,2.6-2.3.8-.4h2.6l1.1,2.3v6.3l-1.5,5.9-1.9,4.8-3,5.2-3,2.3-2.3.4-1.9-1.9-.8-2.3v-8.2Z"/>
  <polygon class="st0" points="356.4 283.1 352.7 280.8 347.8 279.3 341.9 279.3 340.8 279.7 339.7 281.2 339.3 289.4 338.2 297.6 336.3 304.2 333.4 310.2 331.1 312.8 327.7 313.9 327.7 309.9 331.1 296.4 331.1 293 330.7 291.6 328.9 287.5 326 284.5 321.5 282.7 315.9 282.7 314.8 283.1 313.3 284.1 312.5 286 312.5 290.1 312.2 293 308 309.5 307 315 307 320.7 307.4 322.1 309.1 325.8 311.8 328.1 315.5 329.2 319.6 329.2 323.3 328.4 327.7 326.6 332.6 323.6 335.6 320.9 337.4 320.7 339.3 322.1 343.1 323.9 347.5 325.1 351.6 325.1 353.1 324.7 354.6 323.6 355 321.7 353.5 317.3 353.5 309.9 354.2 305.3 356.4 297.6 359 288.3 358.3 285.2 356.4 283.1"/>
  <polygon class="st0" points="187.5 226.5 187.2 230.6 187.9 232.1 190.5 234 195.3 235.1 199.1 235.5 204.6 234.4 205.8 232.5 206.1 226.2 211.8 203.8 215.1 191.2 220.7 170.7 221.1 166.3 220.3 164 218.1 161.4 214.3 159.2 210.6 158.1 205 158.1 203.2 160 202.9 162.5 202.5 165.5 199.8 176.3 194.7 196.4 191.3 209.4 187.5 226.5"/>
  <polygon class="st0" points="268.7 170.3 264.9 167.8 260.8 166.7 256.8 166.7 254.5 167.4 253 168.9 252.2 176.3 249.7 186.4 246.7 197.9 245.2 205.7 245.2 208.2 246 210.1 248.2 212 252.6 213.1 260.8 213.1 262.7 212.4 263.4 210.9 263.8 206.5 264.9 199.3 269.1 186 270.8 179 271.2 175.6 270.2 172.2 268.7 170.3"/>
  <polygon class="st0" points="276.5 156.6 277.6 153.6 278.4 149.6 277.6 145.4 275.3 142 272.3 140.6 267.2 140.6 266 141 262.3 143.2 259.8 146.6 258.3 150.7 258.3 155.1 259 157.7 261.5 160.6 264.9 162.1 268.7 162.1 270.2 161.8 273.1 160.4 276.5 156.6"/>
  <polygon class="st0" points="460.9 276.3 458.4 274.8 455 274.4 452.7 275.2 450.9 276.7 449.1 279.7 449.1 283.7 450.1 286 452 287.9 454.6 289 457.6 289 459.4 288.3 461.7 286.4 463.2 283.4 463.2 280.1 462.8 279 460.9 276.3"/>
  <polygon class="st0" points="435.6 286 432.3 285.6 430.5 286.4 428.6 287.9 427.5 290.1 427.5 293.4 427.8 294.5 429 296 431.1 297.6 435.3 297.6 437.1 296.4 439.4 293 439.4 290.5 437.9 287.5 435.6 286"/>
  <polygon class="st0" points="441.6 270.8 438.6 270.4 436.8 271.2 434.9 273.7 434.9 276.3 435.6 277.8 437.5 279.7 440.4 280.1 442.3 279.3 444.2 276.7 444.2 273.7 443.4 272.3 441.6 270.8"/>
</svg>