<?xml version="1.0" encoding="UTF-8"?>
<svg id="Layer_1" xmlns="http://www.w3.org/2000/svg" version="1.1" viewBox="0 0 2188 274">
  <!-- Generator: Adobe Illustrator 29.0.1, SVG Export Plug-In . SVG Version: 2.1.0 Build 192)  -->
  <defs>
    <style>
      .st0 {
        fill: #fff;
      }
    </style>
  </defs>
  <path class="st0" d="M211,6h-46c8.6,38.9,3.7,79.4,5,119H40V52.5c1.4-15.5,1.8-31.1,5-46.5H0s0,2,0,2l3.9,16.6c-.7,68.8,4.7,141.3,1.2,209.9-.5,10.2-2.1,21.7-5,31.5v1h45c-7.8-41.1-4.2-83.3-5-125h130c-1.3,41.6,3.7,84.1-5,125h45l-2.9-14.6c-1.6-66.5-4.9-136.4-2.2-202.9.6-14.6,2.5-29.4,6-43.4Z"/>
  <path class="st0" d="M1368.9,205c-13.5,25.5-38.4,43.4-66.8,48.7-101.5,18.8-154.4-67.9-134.5-159.5,13-59.8,59.7-85.1,118.7-78.1,33.5,4,65.1,21.1,73.6,55.9.3.3,2-1.3,2-1.5V19c-16.9-8.2-35.1-14-53.8-16.7-6.6-.9-13.9-.6-20.2-2.3h-30l-28.2,5.3c-150.8,45.7-130.7,260.3,34.2,268.7,1.3,0,2.7,0,4,0l22.4-2.1c27.4-4.4,54.1-17.6,70.4-40.5,4.2-5.8,14.6-20.7,8.2-26.3Z"/>
  <path class="st0" d="M2187.9,26c-3-14.8-12.3-23.2-27-26h-8c-37.2,5.1-35.3,60.6,2.5,62,16.2.6,30.3-9.6,32.5-26,.4-3.1-.3-6.8,0-10ZM2132.8,30.5c.3-10.4,7-21.4,17.8-23.3,16.8-2.8,30.6,6.6,30.3,24.3-.5,33.1-49.1,32.1-48.1-1Z"/>
  <path class="st0" d="M1049.5,165.9c-4.3-6.6-8.6-16-13.1-21.9-1.2-1.5-2.3-2.9-4.4-3.1l.6-2c25.5-4.6,52.2-20.5,60.7-46.2,14.3-43.4-24-83.1-65.8-86.8h-117.5l5,32.5c-2.4,64.1,3,130.3,0,194.1-.5,11.4-2.3,23.5-5,34.4h45l-5-42.5V23s39.6-1,39.6-1c42.8.7,75.6,10.1,71.4,60.5-3.1,37.6-34.8,50.5-68,54,17.1,25.9,33.3,52.4,51.2,77.8,12.2,17.3,25.3,38.7,44.8,48.2,17.2,8.4,36.5,9,55,5.5l-20.3-9.2c-30-25.4-52.8-60-74.1-92.9Z"/>
  <path class="st0" d="M603.5,7h-120.5c4.5,15.3,5.3,31.7,5.6,47.7,0,1.8-.7,3.7-.7,5.8.8,56.7,3.3,121.1,0,177.1-.6,10-2.7,20.8-5,30.5h45c-3.1-16.3-3.7-32.9-5-49.5v-74.5c43.5-1.9,110.2,10.8,136.8-33.7,27-45.1-7.2-98.3-56.3-103.3ZM634,80.5c-2.7,38.2-36.6,46.2-68.5,47.5-10.7.4-28.9,1.2-39.1,0-1.5-.2-2.6-.1-3.4-1.6V24c24.7,0,53.1-4.3,77.2,2.3,27.1,7.4,35.7,27.5,33.8,54.3Z"/>
  <path class="st0" d="M737.5,250c-1.4-.2.5-1.3.5-1.5v-106.5c31.3,1.1,63.8-3.5,94,6v-29c-3.5,1-6.6,2.5-10.2,3.3-3.4.8-11.4,2.7-14.3,2.7h-70.5c-.3-.7,1-1.2,1-1.5V23c30.7,1.3,62.9-1.8,93.5,0,8.9.5,21.1,2.2,29.2,5.8,3.5,1.5,6,3.9,9.3,5.2l-7-28h-165c.9,9.2,3.2,18.3,4,27.5.4,4.2-.3,8.8,0,13,2.8,54.9,3.1,117.9,1.1,173-.3,9.4-1.1,20.5-2.2,29.8-.7,5.7-1.9,12.3-3.9,17.6h177l4-28c-11.5,7-24.2,9.4-37.5,11h-103Z"/>
  <path class="st0" d="M459,6h-33c-1.1,9.1-5.2,17.4-8.8,25.7l-60.7,96.3c-23.1-35-49.1-68.5-68-106l-5-16h-47.5l97.5,143.9c0,39,3.5,78.7-4.5,117h45c-8-40.4-4.5-82-4.5-123,29.1-46.4,56-94.5,89.5-138Z"/>
  <path class="st0" d="M1780.3,145.1c-2-2.4-7.9-5.2-3.9-6.1,93.7-21.1,75.3-126.1-6-133h-116.5c2.4,13.7,4.5,27.5,5,41.4,2.3,55.4,2.3,121.7,0,177.1-.3,8.1-1.2,17.7-2.2,25.8-.7,5.6-2.3,11-2.9,16.6h45l-5-33.5V23c8.8,1,18.1-1,26.5-1,46.1-.5,92.9,5,83.4,64.4-6,37.9-33.2,43.5-65.3,49.7-1.3.2-1.8-.7-1.5,1.4l72.8,109.2c3.8,6.3,6,12.8,5.2,20.3h56c-22.6-23.1-41.3-49.3-59.8-75.7-10-14.3-20.3-33.2-30.8-46.2Z"/>
  <path class="st0" d="M1996.4,6c-33.2-1.8-68.1,1.4-101.5,0l4,24.5c-2.2,71.2,7.2,150.5-1.1,220.8-.6,5.2-2.2,10.4-2.9,15.6h106.5c161-14.2,160.1-251.9-5-261ZM2061.8,221.5c-32.5,38-82.5,26.9-127,28.5V23c48.6.8,104.9-9,134.4,39.1,25.1,40.8,24.4,122.1-7.4,159.4Z"/>
  <path class="st0" d="M1519.1,12.3c-1.1-2.2-1.9-4.5-3.7-6.3h-35.5c1.6,8.9,8.2,14.7,2.2,23.7-28.7,59.7-52.6,122-81.3,181.7-9.2,19.1-19.6,37.7-30.9,55.6h36v-14.5c0-15.1,16.9-35.9,28.7-44.3,32.9-23.5,78-25.5,112.2-3.6,20.3,13,40.3,36.6,34.1,62.4h52c-8.8-15.1-18.1-30.1-25.5-46-31.3-67.5-55.6-142.5-88.3-208.6ZM1543.6,185.8c-36.3-15.7-78.2-12.7-112.7,6.2l65.5-149c23.4,48.8,42.5,99.3,61.5,150-4.9-2-9.4-5.1-14.3-7.2Z"/>
  <path class="st0" d="M2165.9,31.5c8.5-2.8,7.5-16.1-.5-17.5-6.1-1.1-15,.8-21.5,0v33h8s0-13,0-13l8,.5,4.1,12.4h7.9c-2.3-4.8-.7-12.6-6-15.4ZM2162.9,27.6l-11.1.4v-8c6.8.1,15.3-2.2,11.1,7.6Z"/>
</svg>