<?xml version="1.0" encoding="UTF-8"?>
<svg id="Layer_1" xmlns="http://www.w3.org/2000/svg" version="1.1" viewBox="0 0 300 100">
  <!-- Generator: Adobe Illustrator 29.0.1, SVG Export Plug-In . SVG Version: 2.1.0 Build 192)  -->
  <defs>
    <style>
      .st0 {
        fill: #fff;
      }
    </style>
  </defs>
  <path class="st0" d="M70.9,37.9h-4.2c.8,3.6.4,7.3.5,11h-12v-6.7c.2-1.4.2-2.9.5-4.3h-4.2v.2l.4,1.5c0,6.4.5,13,0,19.4,0,.9-.2,2-.5,2.9h0c0,0,4.2,0,4.2,0-.8-3.8-.4-7.7-.5-11.5h12c-.2,3.9.4,7.8-.5,11.5h4.2l-.3-1.4c-.2-6.1-.5-12.6-.2-18.7,0-1.4.2-2.7.5-4h0Z"/>
  <path class="st0" d="M177.8,56.3c-1.2,2.3-3.6,4-6.1,4.5-9.4,1.7-14.2-6.3-12.4-14.8,1.2-5.5,5.5-7.9,11-7.2,3.1.4,6,2,6.8,5.1l.2-.2v-4.8c-1.6-.8-3.3-1.3-5-1.5-.6,0-1.3,0-1.9-.2h-2.8l-2.6.5c-13.9,4.2-12,24,3.2,24.8h.4l2-.2c2.5-.4,5-1.6,6.5-3.7s1.4-1.9.8-2.4h0Z"/>
  <path class="st0" d="M253.4,39.8c-.3-1.4-1.1-2.1-2.5-2.4h-.8c-3.4.5-3.3,5.6.2,5.8,1.5,0,2.8-.9,3-2.4v-.9ZM248.3,40.1c0-1,.7-2,1.7-2.1,1.5-.2,2.8.6,2.8,2.3,0,3-4.5,3-4.5,0h0Z"/>
  <path class="st0" d="M148.4,52.6c-.4-.6-.8-1.5-1.2-2,0-.2-.2-.3-.4-.3v-.2c2.4-.5,4.8-1.9,5.7-4.2,1.3-4-2.2-7.6-6.1-8h-10.8l.5,3c-.2,5.9.3,12,0,17.9,0,1.1-.2,2.2-.5,3.2h4.2l-.5-3.9v-18.6h3.6c3.9,0,7,.8,6.6,5.5-.3,3.5-3.2,4.7-6.3,5,1.6,2.4,3.1,4.8,4.7,7.2,1.1,1.6,2.3,3.6,4.2,4.5,1.6.8,3.4.8,5.1.5l-1.9-.8c-2.8-2.3-4.8-5.5-6.8-8.6h0v-.2Z"/>
  <path class="st0" d="M107.2,37.9h-11.1c.4,1.4.5,3,.5,4.4v.5c0,5.2.3,11.2,0,16.3,0,.9-.2,1.9-.5,2.8h4.2c-.3-1.5-.4-3-.5-4.5v-6.9c4-.2,10.1,1,12.6-3.1,2.5-4.2-.7-9.1-5.2-9.5h0ZM110,44.8c-.2,3.6-3.4,4.2-6.4,4.4-1,0-2.6,0-3.6,0-.2,0-.2,0-.3-.2v-9.5c2.3,0,4.9-.4,7.1.2,2.5.7,3.3,2.6,3.1,5h0Z"/>
  <path class="st0" d="M119.5,60.4c-.2,0,0-.2,0-.2v-9.8c2.9,0,5.9-.3,8.7.5v-2.6c-.3,0-.6.2-.9.3-.3,0-1.1.2-1.3.2h-6.5s0,0,0-.2v-9.3c2.8.2,5.8-.2,8.6,0,.8,0,2,.2,2.7.5.3.2.5.4.8.5l-.7-2.6h-15.2c0,.8.3,1.7.4,2.6v1.2c.2,5.1.3,10.9,0,16,0,.8,0,1.9-.2,2.7,0,.5-.2,1.1-.4,1.6h16.3l.4-2.6c-1.1.7-2.3.8-3.5,1h-9.5v.2Z"/>
  <path class="st0" d="M93.9,37.9h-3c0,.8-.5,1.6-.8,2.3l-5.6,8.9c-2.1-3.3-4.5-6.4-6.3-9.8l-.5-1.5h-4.4l9,13.3c0,3.6.3,7.3-.4,10.8h4.2c-.8-3.7-.4-7.6-.4-11.4,2.6-4.3,5.1-8.7,8.2-12.7h0Z"/>
  <path class="st0" d="M215.8,50.7c-.2-.2-.8-.5-.4-.5,8.6-2,7-11.7-.5-12.3h-10.7c.2,1.3.4,2.6.5,3.8.2,5.1.2,11.2,0,16.3,0,.8,0,1.7-.2,2.3,0,.5-.2,1-.3,1.5h4.2l-.5-3.1v-19.5c.8,0,1.7,0,2.4,0,4.2,0,8.6.5,7.7,6-.5,3.5-3,4-6.1,4.6q-.2,0-.2.2l6.7,10.1c.4.6.5,1.2.5,1.9h5.1c-2.1-2.1-3.8-4.5-5.5-7-.9-1.3-1.9-3-2.9-4.2h.2Z"/>
  <path class="st0" d="M235.8,37.9c-3-.2-6.3.2-9.4,0l.4,2.3c-.2,6.6.7,13.9,0,20.4,0,.5-.2,1-.3,1.4h9.8c14.8-1.3,14.8-23.2-.5-24.1h0ZM241.8,57.8c-3,3.5-7.6,2.5-11.7,2.6v-21c4.5,0,9.7-.8,12.4,3.6,2.3,3.8,2.3,11.3-.7,14.7Z"/>
  <path class="st0" d="M191.7,38.5c0-.2-.2-.4-.4-.6h-3.3c.2.8.8,1.4.2,2.2-2.6,5.5-4.8,11.3-7.5,16.8-.8,1.7-1.8,3.5-2.9,5.1h3.3v-1.4c0-1.4,1.6-3.3,2.6-4.1,3-2.2,7.2-2.3,10.4-.3,1.9,1.2,3.7,3.4,3.2,5.8h4.8c-.8-1.4-1.7-2.8-2.3-4.2-2.9-6.2-5.1-13.2-8.2-19.2h0ZM193.9,54.5c-3.3-1.4-7.2-1.1-10.4.6l6.1-13.8c2.2,4.5,3.9,9.2,5.7,13.8-.5-.2-.8-.5-1.3-.7h0Z"/>
  <path class="st0" d="M251.4,40.2c.8-.2.7-1.5,0-1.6-.5,0-1.4,0-2,0v3h.8v-1.2h.8l.4,1.2h.8c-.2-.5,0-1.1-.5-1.4h-.2ZM251.1,39.9h-1.1v-.7c.6,0,1.4-.2,1.1.7Z"/>
</svg>