<?xml version="1.0" encoding="UTF-8"?>
<svg id="Layer_1" xmlns="http://www.w3.org/2000/svg" version="1.1" viewBox="0 0 1168.4 226.7">
  <!-- Generator: Adobe Illustrator 29.0.1, SVG Export Plug-In . SVG Version: 2.1.0 Build 192)  -->
  <defs>
    <style>
      .st0 {
        fill: #fff;
      }
    </style>
  </defs>
  <path class="st0" d="M211.6,63.7c-4.3,29.8-17.8,51.8-37.7,73.2-16.5,17.8-36.4,34-58.2,45.1-44.1-28-83.8-64.1-94.5-117.4-3.2-2.5-13.8,5.6-16.1,8.5,8.5,49.7,37.5,98.6,75.7,131.5,9.9,8.5,28.8,25.2,42.1,21.6,8.5-2.3,39.9-30,47.1-37.7,22.4-24.1,52.5-73.7,57.3-106.2,1.9-13-4.1-15.4-15.7-18.6Z"/>
  <path class="st0" d="M744.5,153.2c-.6-3,.1-5.7,3.4-6.7,36.4-3.3,77.8,5.4,71.7-45.6-1.1-8.7-5.5-10.6-10.2-17l13.9-4.3.3-9.8h-49.7c-5.7,0-21.5,2.9-27.3,5.1-18.6,7-23.1,23.6-20.2,42.1.9,5.8,5.4,14.7,12,15.3v3c-1.7,4.1-14.8,5.5-15.6,16.4-.6,7.2,6.9,12,7.1,13.8.2,1.8-6.8,9.2-7.7,16.1-3.7,29.6,17.9,37.9,43.5,39.4,18.1,1.1,49-.7,57.9-19.1,23.5-48.4-77.2-39.1-79.2-48.4ZM762.3,88.3c23.7-4.3,40,2.3,34.9,28.7-2.9,15.1-29.3,14.5-40.5,10.1-13.1-5.2-13.5-35.4,5.6-38.8ZM752.1,200.1c-10-5.3-9.7-28.4-4.6-29.3,12,5.1,48.7,4.8,56,14.5,13.9,18.5-36.1,22.8-51.4,14.8Z"/>
  <path class="st0" d="M194.4,11.4C146-5.7,70.9-3.4,23.7,17.1,5.8,24.9-2.8,27.1.8,49.6c28-18.4,57.3-24.4,89.1-11,10,4.2,17.5,11,27.4,15,35.2-26.9,77.7-30.5,114.5-4,1.4-6,4.6-16,0-21.1-2.8-3.1-31.5-15-37.5-17.1Z"/>
  <path class="st0" d="M402.1,54.6c-5.3-4.3-21.2-11-27.4-11h-61.8v132.8h22.3v-46.3h45.6c2.7,0,16.9-6.4,19.9-8.4,21-14.1,20.6-51.6,1.4-67.1ZM385.7,106.9c-3,2.4-16,7.1-19.2,7.1h-31.4v-52.3h35.5c.7,0,10.5,3.5,11.9,4.3,12.3,7,13.5,32.7,3.2,40.9Z"/>
  <path class="st0" d="M1166.2,145.1c-3.1-1.7-17.5-1.7-20.4,0-3.7,2.3-2.8,11.3-14.1,14.2-22.1,5.7-42.6-2.7-42.6-27.2h76c4.7-3.5,3.2-9.8,2.8-14.8-2.9-37.3-24.5-51.8-61.3-47.3-55.6,6.8-51.4,99.6-2.1,106.2,23.1,3.1,55.4-.1,62.2-26.5.5-2.1,2.5-2.4-.5-4.6ZM1145.8,114h-56.7c.4-38.4,56.4-38.4,56.7,0Z"/>
  <path class="st0" d="M470.2,70c-57.9,6.7-53.8,100.7-2.3,106.4,26.5,3,57.6-1,61.8-32.2l-22,.3c-9.7,28.4-58,19.1-57.1-12.4h79c2.1-41.5-14.7-67.4-59.6-62.2ZM507.4,114h-56.7c-.8-38.9,60-38.8,56.7,0Z"/>
  <path class="st0" d="M643.5,71.1c-46.3,9.4-46.9,89.1-4.9,102.9,24.5,8,69.1,3.1,69.5-29.7-5.4.6-12.1-1-17.2,0-5.7,1.1-9,12.7-17.1,15.2-21.6,6.6-42.9-3.2-42.7-27.3h77c6.5-44.1-19-70.3-64.6-61.1ZM631.1,114c-2.1-39.1,57.1-38.9,56.7,0h-56.7Z"/>
  <path class="st0" d="M968.5,83.8c-5.9-8.1-3.6-16.6-17.2-14v106.6h20.3s2.2-69.2,2.2-69.2c-1.6-24.5,44.4-26.7,51-10.7.7,1.6,3.5,15.4,3.5,16.6v63.4h20.3v-75.4c0-4.2-6.9-18.9-10.1-22.2-14-14.6-57.2-12.3-70,5Z"/>
  <path class="st0" d="M856,83.8l-4.4-13.8-11.9-.3v106.6h22.3v-67.4c0-16.8,17.6-23.6,32.4-21.1v-18.1c-15.6-2.1-27.2,4.5-38.5,14.1Z"/>
  <path class="st0" d="M571.5,78.1c-2.4,1.7-2.7,5.2-4.3,5.8-4.7,1.6-5.3-11.1-7.4-13.8l-9.9-.3v106.6h20.3v-71.4c0-.6,5-8.9,6-10.1,7-7.9,16.5-7.3,26.4-7v-18.1c-12.1-1.2-21.5,1.4-31.2,8.3Z"/>
  <path class="st0" d="M907.6,174.5l21.4,1.9v-106.6h-20.3c1.9,35.1-3,70-1.1,104.7Z"/>
  <path class="st0" d="M919.4,26.2s0,0,0,0c-.1,0-.2,0-.3,0-.1,0-.2,0-.3,0,0,0,0,0,0,0-7.2.2-15.4,2.6-15.4,14.3,0,9,8.4,12.7,15.7,12.4,7.3.3,15.7-3.4,15.7-12.4,0-11.7-8.2-14.1-15.4-14.3Z"/>
</svg>