<?xml version="1.0" encoding="UTF-8"?>
<svg id="Layer_1" xmlns="http://www.w3.org/2000/svg" version="1.1" viewBox="0 0 300 100">
  <!-- Generator: Adobe Illustrator 29.0.1, SVG Export Plug-In . SVG Version: 2.1.0 Build 192)  -->
  <defs>
    <style>
      .st0 {
        fill: #fff;
      }
    </style>
  </defs>
  <path class="st0" d="M106.6,43.2h-22.1v19.2h5.9v-7.1h15.8c3.8,0,5.9-.8,5.9-3.8v-4.2c0-2.5-1.7-3.8-5.9-3.8h.4v-.4h0ZM106.6,49.9c0,1.3-.8,1.7-2.5,1.7h-13.3v-4.6h13.3c1.7,0,2.5,0,2.5,1.7v2.1h0v-.8Z"/>
  <path class="st0" d="M123.3,46.6l5,7.1v.8h-11.6l-2.9,3.4h16.7l1.3.8,2.5,3.4h6.7l-14.6-19.2-2.9,3.8h0Z"/>
  <path class="st0" d="M190.4,58.2v-5h11.2v-3.4h-17.9v12.5h26.2v-3.4h-20.4.4l.4-.8h0Z"/>
  <path class="st0" d="M210.8,43.2h-26.6v3.8h26.6v-3.8Z"/>
  <path class="st0" d="M154.5,46.6h21.7c0-2.5-2.1-3.4-6.3-3.4h-15.4c-5,0-6.3.8-6.3,4.6v10c0,3.8,1.7,4.6,6.3,4.6h15.4c4.2,0,5.9-.8,6.3-3.8h-22.1v-11.6h.8-.4s0-.4,0-.4Z"/>
  <path class="st0" d="M70.3,50.3h-16.3v-3.8h21.7v-.8c0-1.7-2.1-2.5-5.9-2.5h-14.6c-5,0-6.3.8-6.3,4.6v2.1c0,3.8,1.7,4.6,6.3,4.6h16.3v3.8h-23c0,2.5,2.1,3.4,6.3,3.4h15.8c5,0,6.3-.8,6.3-4.6v-2.5c0-3.8-1.7-4.6-6.3-4.6h0s-.4.4-.4.4Z"/>
  <path class="st0" d="M227.9,42.8h-8.7v.8l9.1,7.1c1.7-.8,3.8-2.1,5.9-3.4l-6.7-4.6h.4Z"/>
  <path class="st0" d="M235.8,56.1l8.7,6.3h8.7v-.8l-12.5-9.1-5,3.8h0Z"/>
  <path class="st0" d="M226.6,62h-8l-.8-.8c5.4-5,29.6-26.6,82.1-29.2,0,0-44.2,1.3-73.4,30h0Z"/>
</svg>