<?xml version="1.0" encoding="UTF-8"?>
<svg id="Layer_1" xmlns="http://www.w3.org/2000/svg" version="1.1" viewBox="0 0 500 500">
  <!-- Generator: Adobe Illustrator 29.2.1, SVG Export Plug-In . SVG Version: 2.1.0 Build 116)  -->
  <defs>
    <style>
      .st0 {
        fill: #d20a0a;
      }
    </style>
  </defs>
  <g id="_x23_d20a0aff">
    <path class="st0" d="M66.7,174.3h51.9c-10.3,37.1-20.6,74.2-30.9,111.2-.4,1.3-.4,2.9.3,4,1.3,2,3.8,2.8,6,2.9h8.1c2.9,0,5.9,0,8.7-1,1.9-.8,3.1-2.6,3.6-4.5,10.4-37.5,20.8-75.1,31.3-112.6h51.6c-10.9,39.4-22,78.9-32.9,118.4-1.2,4.2-2.3,8.4-3.5,12.6-1.6,5.1-4.2,10.1-8.3,13.5-3.1,2.6-6.9,4.1-10.8,5.1-5.5,1.4-11.1,1.7-16.7,2.1H58.4c-6.6-.4-13.4-1.9-18.9-5.8-3.6-2.4-6.5-6-7.7-10.3-.6-1.8-.4-3.8-.4-5.7s.8-4.4,1.3-6.6c11.4-41.1,22.8-82.2,34.2-123.3h-.3,0Z"/>
    <path class="st0" d="M222.1,174.3h111.6c-3.1,11.1-6.1,22.2-9.3,33.3h-111.6c3.1-11.1,6.1-22.2,9.3-33.3Z"/>
    <path class="st0" d="M384,174.3h84.7c-1.2,5.1-2.7,10-4.1,15-1.7,6.1-3.4,12.2-5.1,18.3h-54.9c-2.7,0-5.5,0-8,1-2,.9-3.1,3.1-3.7,5.1-6.6,24.1-13.4,48.2-20,72.3-.5,1.5,0,3.2,1,4.3,1.7,1.7,4.1,2.2,6.4,2.2h59.8c-3.1,11.1-6.1,22.2-9.3,33.3h-84.7c-6.4-.4-12.9-1.8-18.2-5.3-3.5-2.3-6.5-5.5-8-9.5-1.3-3.4-1.2-7.3-.2-10.8,9.6-34.5,19.2-69.1,28.8-103.5,1.4-5.1,3.6-10.1,7.3-13.9,2.4-2.5,5.6-4.4,9-5.4,6.2-2.1,12.8-2.6,19.2-3.1h-.2Z"/>
    <path class="st0" d="M206.4,230.5h111.6c-3.1,11.1-6.2,22.2-9.3,33.4h-60c-5.7,20.6-11.5,41.3-17.1,61.9h.3-51.9c8.8-31.7,17.6-63.5,26.4-95.2h0Z"/>
  </g>
</svg>