<?xml version="1.0" encoding="UTF-8"?>
<svg id="layer" xmlns="http://www.w3.org/2000/svg" version="1.1" viewBox="0 0 500 500">
  <!-- Generator: Adobe Illustrator 29.2.1, SVG Export Plug-In . SVG Version: 2.1.0 Build 116)  -->
  <defs>
    <style>
      .st0 {
        fill: #fff;
      }
    </style>
  </defs>
  <path class="st0" d="M1,272.7h8.3v-74.9H1v-1.5h17.6v42.5h.2c.3-.9,1-2.1,1.8-3.5.8-1.4,2-2.7,3.5-4s3.3-2.3,5.4-3.3,4.7-1.3,7.6-1.3c4.8,0,8.7,1.2,11.6,3.5,3,2.3,4.5,6,4.5,11v31.6h8.3v1.5h-25.9v-1.5h8.3v-34.9c0-2.8-.7-5.1-2-6.9-1.3-1.8-3.4-2.7-6.2-2.7s-4.5.5-6.6,1.5-3.9,2.4-5.5,4.2c-1.6,1.8-2.8,3.9-3.8,6.3s-1.3,5.1-1.3,8v24.4h8.3v1.5H1v-1.6Z"/>
  <path class="st0" d="M58.4,227.8h26.5v1.5h-9.1l13.9,33.9,14.6-33.9h-9v-1.5h16.5v1.5h-5.8l-17.8,41.7c-1.3,3.1-2.7,6.2-3.9,9.3-1.2,3.2-2.4,6.2-3.7,9.5-1,2.6-2,4.8-3,6.8-1,1.9-2.1,3.5-3.2,4.7s-2.3,2.2-3.6,2.8c-1.3.6-2.8.9-4.6.9s-3.8-.3-5-1-2.2-1.4-3-2.2-1.2-1.8-1.4-2.7c-.3-.9-.3-1.8-.3-2.4,0-1.8.5-3.2,1.5-4.1,1-.9,2.2-1.3,3.7-1.3s1.1,0,1.6.2,1.1.3,1.6.6c.5.3.9.7,1.3,1.2.3.5.6,1.1.6,1.8s-.3,1.9-.9,2.8-.9,1.9-.9,3,.3,1.6.8,1.8c.5.3,1.2.4,2.1.4s2.2-.3,3.2-.8c1-.5,1.9-1.4,2.8-2.7s1.9-2.8,2.8-4.8,2-4.4,3.2-7.3l4.7-12.1-18.7-46.3h-7.5v-1.4h0Z"/>
  <path class="st0" d="M139.9,196.3h17.6v76.4h8.3v1.5h-17.4v-9.4h-.3c-.3.8-.7,1.9-1.3,3.2-.6,1.2-1.4,2.4-2.5,3.6s-2.5,2.2-4.3,3-3.8,1.2-6.2,1.2-6.2-.7-9-2.1c-2.8-1.3-5.3-3.3-7.5-5.5-2.2-2.3-3.8-4.9-5.2-7.9-1.2-3-1.9-6.2-1.9-9.4s.6-6.3,1.8-9.3c1.2-2.9,2.9-5.5,5-7.7,2.1-2.2,4.5-4,7.2-5.3s5.7-2,8.8-2,7.2,1,9.6,2.9,4.2,4.3,5.2,7.2h.3v-38.7h-8.3v-1.5h.2ZM121.2,249.5c0,3.7,0,7.2.3,10.3.3,3.1.7,5.7,1.6,7.8s2.2,3.8,3.9,5c1.8,1.2,4.1,1.7,7,1.7s5.4-.7,7.3-1.9c1.8-1.3,3.2-3,4.3-5,1-2.1,1.7-4.3,2.1-6.8.3-2.5.5-5,.5-7.3s0-5.3-.2-7.3-.3-3.8-.6-5.4-.7-2.9-1.2-4.1c-.5-1.2-1.1-2.3-1.8-3.3-1.1-1.4-2.5-2.7-4.3-3.6s-3.9-1.4-6.6-1.4-4.6.5-6.2,1.5c-1.6,1-2.9,2.4-3.8,4.3-.9,1.9-1.5,4.1-1.9,6.7-.3,2.4-.5,5.4-.5,8.8"/>
  <path class="st0" d="M169.1,272.7h8.3v-43.3h-8.3v-1.5h17.4v10.9h.3c.3-1.1.7-2.3,1.4-3.7s1.6-2.7,2.7-3.9c1.2-1.2,2.5-2.3,4.2-3.2s3.6-1.3,5.9-1.3,3.1.2,4.3.8c1.2.5,2.2,1.2,3,2.1s1.3,1.7,1.8,2.8c.3,1.1.5,2.2.5,3.3,0,2.4-.5,4-1.7,4.8-1.1.8-2.3,1.2-3.8,1.2-3.2,0-4.7-1-4.7-3s0-1.2.3-1.6.3-.8.5-1.2c.2-.4.3-.8.5-1.3s.3-1.2.3-2.2c0-2.3-1.2-3.4-3.8-3.4s-2.4.4-3.7,1.3c-1.3.8-2.5,2.1-3.6,3.8s-2.1,3.7-2.8,6c-.7,2.3-1.2,5-1.2,8.1v24.8h9.4v1.5h-27v-1.7h-.2Z"/>
  <path class="st0" d="M259.2,273c-.9.8-2.1,1.3-3.3,1.9-1.2.5-2.9.8-4.8.8-3.4,0-6-.8-7.5-2.2-1.6-1.5-2.6-3.6-3.2-6.2h-.2c-.2.7-.7,1.5-1.2,2.4-.5,1-1.2,1.9-2.3,2.8s-2.4,1.7-4.2,2.2-3.9.9-6.6.9-5.4-.3-7.3-1c-1.8-.7-3.2-1.5-4.3-2.5-1-1-1.7-2.2-2-3.4s-.5-2.4-.5-3.5c0-2.5.5-4.6,1.5-6.1,1-1.5,2.3-2.8,3.9-3.6,1.6-.9,3.4-1.7,5.4-2.2s4-1.2,6-1.8c2.4-.8,4.3-1.5,5.9-2.1s2.7-1.2,3.6-2.1,1.4-1.9,1.8-3.2.5-3,.5-5.2,0-3.3-.3-4.7c-.2-1.3-.6-2.6-1.2-3.5-.6-1-1.4-1.7-2.5-2.3s-2.5-.8-4.3-.8-4.3.4-5.9,1.2-2.3,2.2-2.3,4.1,0,2.4.3,3.6.3,2.1.3,2.7c0,1-.3,1.8-1.1,2.5s-1.8,1-3.2,1c-2.4,0-3.8-.4-4.4-1.3-.6-.8-.8-2-.8-3.3s.3-3.1,1.1-4.6c.7-1.4,1.8-2.7,3.2-3.8,1.4-1.1,3.2-2,5.3-2.7,2.1-.7,4.6-1,7.3-1s6.1.4,8.3,1.2,4,1.9,5.4,3.3c1.3,1.4,2.3,3,2.9,4.8s.8,3.6.8,5.6v26.9c0,2.1.3,3.5,1,4.2.7.8,1.6,1.1,2.8,1.1s1.6-.2,2.5-.4c.8-.3,1.7-.8,2.5-1.3l.8,1.4h0ZM240.3,247.7h-.2c-.2.9-1.3,1.9-3.6,2.8l-8.1,3.3c-2.3.9-4.1,2.2-5.3,3.9s-1.8,3.8-1.8,6.3,0,2.2.3,3.3.6,2.2,1.2,3.1c.6.9,1.4,1.7,2.4,2.2,1.1.6,2.4.8,4.1.8,2.4,0,4.3-.5,5.7-1.5,1.5-1,2.6-2.2,3.3-3.8s1.2-3.2,1.5-4.9.4-3.3.4-4.8c0,0,0-10.8,0-10.8h0Z"/>
  <path class="st0" d="M259.9,272.7h5.4v-43.3h-8.3v-1.5h8.3v-5.8c0-2.5,0-4.7.4-6.5.2-1.8.6-3.5,1-4.8.4-1.4.9-2.7,1.5-3.7.6-1.1,1.2-2,1.9-2.8,1.8-2.4,4.3-4.4,7-6.2,2.8-1.8,5.8-2.7,9-2.7s4.4.3,6.1,1,3.1,1.5,4.2,2.5,1.8,2.1,2.3,3.3c.5,1.2.7,2.3.7,3.2,0,1.3-.4,2.7-1.2,3.8-.8,1.2-2.2,1.8-4,1.8s-2-.2-3.2-.7-1.8-1.3-1.8-2.8.3-2.3,1-3.3c.7-1,1-2.1,1-3.3s-.7-2.7-1.9-3.2-2.7-.8-4-.8c-2.9,0-5.5,1.3-7.7,3.9-2.2,2.6-3.2,6.7-3.2,12.1v15h13.4v1.5h-13.4v43.3h9.8v1.5h-24.6v-1.3s0,0,0,0Z"/>
  <path class="st0" d="M339,273c-.9.8-2.1,1.3-3.3,1.9-1.3.5-2.9.8-4.8.8-3.5,0-6-.8-7.5-2.2-1.6-1.5-2.6-3.6-3.2-6.2h-.2c-.3.7-.7,1.5-1.2,2.4-.5,1-1.2,1.9-2.3,2.8s-2.4,1.7-4.2,2.2-3.9.9-6.6.9-5.4-.3-7.3-1c-1.8-.7-3.2-1.5-4.3-2.5-1-1-1.7-2.2-2-3.4s-.5-2.4-.5-3.5c0-2.5.5-4.6,1.5-6.1,1-1.5,2.3-2.8,3.9-3.6,1.6-.9,3.4-1.7,5.4-2.2s4-1.2,6-1.8c2.4-.8,4.3-1.5,5.9-2.1s2.7-1.2,3.6-2.1,1.5-1.9,1.8-3.2c.3-1.2.5-3,.5-5.2s0-3.3-.3-4.7c-.2-1.3-.6-2.6-1.2-3.5-.6-1-1.4-1.7-2.5-2.3s-2.5-.8-4.3-.8-4.3.4-5.9,1.2-2.3,2.2-2.3,4.1,0,2.4.3,3.6.3,2.1.3,2.7c0,1-.3,1.8-1.1,2.5s-1.8,1-3.2,1c-2.3,0-3.8-.4-4.4-1.3-.6-.8-.8-2-.8-3.3s.3-3.1,1.1-4.6c.7-1.4,1.8-2.7,3.2-3.8,1.4-1.1,3.2-2,5.3-2.7,2.1-.7,4.6-1,7.3-1s6.1.4,8.3,1.2,4,1.9,5.4,3.3c1.3,1.4,2.3,3,2.9,4.8s.8,3.6.8,5.6v26.9c0,2.1.3,3.5,1,4.2.7.8,1.6,1.1,2.8,1.1s1.6-.2,2.5-.4c.8-.3,1.7-.8,2.5-1.3l.8,1.4h0ZM320.1,247.7h-.2c-.2.9-1.3,1.9-3.6,2.8l-8.1,3.3c-2.3.9-4.1,2.2-5.3,3.9s-1.8,3.8-1.8,6.3,0,2.2.3,3.3.6,2.2,1.2,3.1c.6.9,1.4,1.7,2.4,2.2,1.1.6,2.4.8,4.1.8,2.4,0,4.3-.5,5.7-1.5,1.5-1,2.6-2.2,3.3-3.8s1.2-3.2,1.5-4.9.4-3.3.4-4.8v-10.8h0Z"/>
  <path class="st0" d="M384.8,262.3c-.2.8-.7,1.9-1.2,3.4-.6,1.5-1.6,2.9-2.9,4.4s-3.2,2.8-5.4,3.9c-2.3,1.1-5.2,1.7-8.8,1.7s-5.6-.4-8.6-1.3c-2.9-.8-5.7-2.2-8.1-4.2-2.4-1.9-4.4-4.4-6-7.5-1.6-3.1-2.3-6.9-2.3-11.5s.7-6.8,2-9.8c1.3-3,3.2-5.7,5.4-7.9s4.9-4,8-5.2,6.3-1.9,9.8-1.9,3.9.2,6,.7c2.1.5,3.9,1.2,5.6,2.2s3.1,2.3,4.3,3.8c1.1,1.6,1.7,3.4,1.7,5.7s-.5,2.7-1.4,3.8c-1,1-2.3,1.5-4.2,1.5s-2.4-.3-3.5-.8c-1.2-.5-1.7-1.5-1.7-2.7s.2-2.3.7-3.7.7-2.7.7-3.6c0-1.7-.8-2.9-2.5-3.8s-3.6-1.3-5.7-1.3-3.2.2-4.9.6-3.2,1.4-4.7,3-2.6,4-3.5,7.2-1.3,7.5-1.3,13,.2,6,.6,8.8,1.1,5.2,2.2,7.2c1.1,2.1,2.5,3.7,4.3,4.8s4.3,1.7,7.2,1.7,5.7-.5,7.8-1.4,3.7-2.1,4.8-3.4,2.1-2.7,2.7-4.1c.6-1.3,1-2.5,1.3-3.3l1.8.5h0Z"/>
  <polygon class="st0" points="388.9 272.7 397.2 272.7 397.2 229.3 388.9 229.3 388.9 227.8 406.6 227.8 406.6 272.7 414.9 272.7 414.9 274.2 388.9 274.2 388.9 272.7"/>
  <path class="st0" d="M466.9,273c-.9.8-2.1,1.3-3.3,1.9-1.3.5-2.9.8-4.8.8-3.5,0-6-.8-7.5-2.2-1.6-1.5-2.6-3.6-3.2-6.2h-.2c-.2.7-.7,1.5-1.2,2.4-.5,1-1.2,1.9-2.3,2.8s-2.4,1.7-4.2,2.2-3.9.9-6.6.9-5.4-.3-7.3-1c-1.8-.7-3.2-1.5-4.2-2.5-1-1-1.7-2.2-2-3.4s-.5-2.4-.5-3.5c0-2.5.5-4.6,1.5-6.1,1-1.5,2.3-2.8,3.9-3.6,1.7-.9,3.4-1.7,5.4-2.2s4-1.2,6-1.8c2.4-.8,4.3-1.5,5.9-2.1,1.6-.6,2.7-1.2,3.6-2.1s1.5-1.9,1.7-3.2c.3-1.2.5-3,.5-5.2s0-3.3-.3-4.7c-.2-1.3-.6-2.6-1.2-3.5-.6-1-1.4-1.7-2.5-2.3s-2.5-.8-4.3-.8-4.3.4-5.9,1.2c-1.6.8-2.3,2.2-2.3,4.1s0,2.4.3,3.6c.2,1.2.3,2.1.3,2.7,0,1-.3,1.8-1.1,2.5-.8.7-1.7,1-3.2,1-2.3,0-3.8-.4-4.4-1.3-.6-.8-.8-2-.8-3.3s.3-3.1,1.1-4.6c.8-1.4,1.7-2.7,3.2-3.8s3.2-2,5.3-2.7c2.2-.7,4.6-1,7.3-1s6.1.4,8.3,1.2,4,1.9,5.4,3.3c1.3,1.4,2.3,3,2.9,4.8s.8,3.6.8,5.6v26.9c0,2.1.3,3.5,1,4.2s1.6,1.1,2.8,1.1,1.6-.2,2.5-.4c.8-.3,1.7-.8,2.5-1.3l.8,1.4h0ZM448,247.7h-.2c-.2.9-1.3,1.9-3.6,2.8l-8.1,3.3c-2.3.9-4.1,2.2-5.3,3.9s-1.8,3.8-1.8,6.3,0,2.2.3,3.3c.2,1.2.6,2.2,1.2,3.1s1.4,1.7,2.4,2.2c1.1.6,2.4.8,4.1.8s4.3-.5,5.8-1.5c1.5-1,2.6-2.2,3.3-3.8s1.2-3.2,1.5-4.9.4-3.3.4-4.8v-10.8h0Z"/>
  <polygon class="st0" points="467.5 272.7 475.8 272.7 475.8 197.8 467.5 197.8 467.5 196.3 485.2 196.3 485.2 272.7 493.5 272.7 493.5 274.2 467.5 274.2 467.5 272.7"/>
  <path class="st0" d="M501,199.6c0,1.9-1.5,3.4-3.5,3.4s-3.5-1.5-3.5-3.4,1.6-3.4,3.5-3.4c2,0,3.5,1.6,3.5,3.4M494.8,199.6c0,1.5,1.1,2.7,2.7,2.7s2.6-1.2,2.6-2.7-1.1-2.8-2.6-2.8-2.7,1.2-2.7,2.7M497,201.5h-.8v-3.4c.3,0,.8,0,1.3,0s.9,0,1.2.3c.2.2.3.4.3.7s-.2.7-.7.7h0c.3.2.5.4.6.9,0,.5.2.7.2.8h-.8c0-.2-.2-.4-.2-.8s-.2-.5-.7-.5h-.4c0,0,0,1.3,0,1.3h0ZM497,199.5h.4c.4,0,.8-.2.8-.5s-.2-.5-.8-.5-.3,0-.4,0v.9Z"/>
  <path class="st0" d="M408.7,295.8c0,3.8-3.1,6.8-6.8,6.8s-6.8-3.1-6.8-6.8,6.8-8.5,6.8-8.5c0,0,6.8,3.9,6.8,8.5"/>
</svg>