<?xml version="1.0" encoding="UTF-8"?>
<svg id="Layer_1" xmlns="http://www.w3.org/2000/svg" version="1.1" viewBox="0 0 500 500">
  <!-- Generator: Adobe Illustrator 29.2.1, SVG Export Plug-In . SVG Version: 2.1.0 Build 116)  -->
  <defs>
    <style>
      .st0 {
        fill-rule: evenodd;
      }

      .st0, .st1 {
        fill: #1d4289;
      }

      .st2 {
        fill: #fff;
      }

      .st3 {
        fill: #c80f2e;
      }
    </style>
  </defs>
  <path class="st2" d="M55.6,120.9h60.7c14.7,0,26.6,11.9,26.6,26.6v205.1c0,14.7-11.9,26.6-26.6,26.6h-60.7c-14.7,0-26.6-11.9-26.6-26.6v-205.1c0-14.7,11.9-26.6,26.6-26.6h0Z"/>
  <path class="st3" d="M101.2,168.2v.9c1.9,1.1,2.8,1.9,4.8,3.2,4.9,3.1,11,8.7,10.2,27.6,1.4,4.2,2,12.3,3.3,14.9,2.6,5.1,4.3,8.4,5,13.2,0,0,.7,7.5,1.7,8.1,5,1.2,3.6,1.7,4.3,2.6.8,1,3.7,1,3.7,3.7,1.1,1.4,1.9,2.7,2.4,4.3v-98.9c0-11.3-9.1-20.5-20.5-20.5h-19.5c3.1,1.2,4.9,2.5,5.9,4.5,2.5.2,5.5,5.8.8,14.2,2,1.4.4,3.5-1,5.8-.4.7-.9,2.1-2.3,2-1.9,3.8-4,7.4-5.6,7.6-.4.6-.8,2.2,0,2.9,2.4,1.1,5.2,2.5,6.7,3.9h0Z"/>
  <path class="st3" d="M119.3,372.6h-.2c8.9-5.4,3.5-15.8,1.7-21.8l.4-1.1c.4-.8-.5-2.7-.5-2.7-1.2-.9-1.4-6-1.9-8.3-1-3.8,1.7-10.4,1.7-12.7s-1.7-5.3-4.8-9.2c-.7-.9-3-20-5-24.9-2.7-6.7-3.6-5.6-6.9-13.6-2.6-5.6-.5-13.9-6.3-33.1l1.3-1.2s-4.6-16.7-6.1-21.3c-1.4-4.6-4.2-4.9-4.2-4.9l.2-2.4c.2-.7,5.6-14.6,6-15.1,0-.3,7.7-5.6,7.9-4.8.6,3.5,3.6,20.7,4.9,23.5,1.3,2.7,5.8,11.2,7.8,16.6-8,1.9-13.9,9.1-13.9,17.7s8.1,18.2,18.2,18.2,14.3-4.8,17-11.5v92.5c0,10.3-7.4,18.7-17.2,20.2h0Z"/>
  <path class="st1" d="M90.2,127.2c-6.6,2.6-7.6,5.5-7.8,14.7-1.2,0-3.5-1-2.7,4.7,0,0,.4,3.7,1.9,3.1-1.2,8.1-.3,10.2-5.7,10.8-1.2,0-2.6.2-4.3.3l-.5.7c-7.4.7-11.1.3-15.9,6.6-1.9,2.4-3.8,5.8-6.2,10.7,0,0-2.2,5.5-2.8,7.7-2.1,4.4-7.4,14.3-8.9,20.6-.5,2.1-1.4,2.8,0,5.9,2,4.5-1.3,5.7,10.3,5.3v2.7s-3.1,2.7-3.7,4.3-2.4,9.6-2.3,13.4c.2,9.8,8.2,18.1,10.6,27.9l5.4.7c2.9,6.7,15.7,24.8,18.6,27.6h0c.7,1.8,4,3.9,5.8,6,1.2,1.2,6.6,6.9,13.7,12.5,2.7,2,5.5,4.1,8.4,5.8,0,0,1.8,3.6,2.7,6.6-3.6,2.9,3.5,8.3,5.6,17.3,0,1.2-2,2.4,1.2,5.4-.2,13.6-4.3,20.6,2.6,24.4h-61.1c-11.1-.3-20-9.3-20-20.5v-204.8c0-11.2,8.9-20.2,20-20.5h35,0Z"/>
  <path class="st0" d="M173.4,127.1v245.5h26.6c0-63.2,1.5-126.6-2.4-189.2l30.6,189.2h38.1V127.1h-26.3c-.5,65.1,1.8,129.3,6.2,192.8l-31.8-192.8h-40.9,0Z"/>
  <path class="st0" d="M403.4,126.9l-26,245.7h32.4l4.3-49.7h21.3l4.3,49.7h32.3l-25.3-245.7h-43.1ZM424.6,196.2l8.1,97.9h-16.4l8.1-97.9h0Z"/>
  <path class="st1" d="M286.6,127.1v245.3h47.5c7.8,0,34.3-6.8,34.3-40.8v-49c0-5.1,0-21.3-14.1-30.8,8.9,0,14.1-17.2,14.1-32.7v-52.5c0-20.5-12.8-39.4-38.3-39.3h-43.4v-.2ZM315.9,158.4h14.4c6.6,0,8.8,7.3,8.8,12.8v57.1c0,9.7-3.2,10.5-9.8,10.5h-13.4v-80.5h0ZM315.9,265.8h14.4c6.6,0,8.8,7.3,8.8,12.9v51c0,6.6-3.3,11.7-9.8,11.7l-13.4.2v-75.8h0Z"/>
</svg>