<?xml version="1.0" encoding="UTF-8"?>
<svg id="Layer_1" xmlns="http://www.w3.org/2000/svg" version="1.1" viewBox="0 0 500 500">
  <!-- Generator: Adobe Illustrator 29.2.1, SVG Export Plug-In . SVG Version: 2.1.0 Build 116)  -->
  <defs>
    <style>
      .st0 {
        fill: #0069aa;
      }

      .st1 {
        fill: #f58025;
      }
    </style>
  </defs>
  <path class="st1" d="M133.8,310.2h1.2c.8,0,1.4.4,1.4,1.5s-.3,1.7-1.4,1.7h-1.2v-3.3ZM133.8,315.1h.7c2.1,0,1.8,1.2,1.8,2.6s0,1.6.3,2.3h2.6c-.2-.5-.3-2.7-.3-3.4,0-2.1-1.7-2.2-2.3-2.3h0c1.7-.3,2.3-1.4,2.3-2.9s-1.2-3.1-3-3.1h-4.9v11.7h2.6v-4.8ZM135.1,304.1c-5.6,0-10.1,4.5-10.1,10s4.5,10.1,10.1,10.1,10-4.5,10-10.1-4.5-10-10-10ZM135.1,322.4c-4.5,0-8.2-3.7-8.2-8.2s3.6-8.2,8.2-8.2,8.1,3.7,8.1,8.2-3.7,8.2-8.1,8.2Z"/>
  <path class="st0" d="M386.5,195h-11.5v85.1c-3-4.2-61.1-85.1-61.1-85.1h-41.4v4.8h1c16.8,2.3,18.9,3.1,18.9,15.1v89.3h12.6v-91.5c3,4.2,65.8,91.5,65.8,91.5h16.8v-109.2h-1.1Z"/>
  <path class="st1" d="M74.6,175.4C33.4,175.4,0,208.8,0,250s33.4,74.6,74.6,74.6,74.6-33.4,74.6-74.6-33.4-74.6-74.6-74.6ZM34.5,211.6v-2.5c0-8.2,3.5-15.1,8.2-16.3,6.1-1.6,14.4,5.7,22.7,20l7.7,13.3c-2.2.4-4.1,1.9-5.6,4.4l-25.1,43.5c-3.7,6.3-6.2,12-7.6,17,0,0,0-.2,0-.2-.3-11.5-.5-34.5-.2-79.2ZM61.4,303.9l-2.2,1.2c-7.1,4.1-14.8,4.6-18.2,1.1-4.5-4.5-2.3-15.3,6-29.6l7.7-13.3c1.5,1.8,3.7,2.6,6.6,2.6h50.2c7.3,0,13.5-.6,18.6-1.9,0,0-.1,0-.2.1-9.8,5.9-29.7,17.7-68.5,39.7ZM111.5,260.6h-15.4c.8-2.2.5-4.5-1-7l-25.1-43.5c-3.7-6.3-7.3-11.4-10.9-15.1,0,0,.1,0,.2.1,10.1,5.5,30.1,16.8,68.6,39.4l2.2,1.3c7.1,4.1,11.3,10.5,10.1,15.2-1.6,6.1-12.1,9.6-28.6,9.6Z"/>
  <path class="st0" d="M218.5,248.3h-7.5v-35.4c0-8.3,0-9.6,15.9-9.6s27.6,8,27.6,22.6-18.2,22.4-36,22.4ZM220.9,195h-49.3v4.8h1c17.2,2.2,18.9,4.5,18.9,13.2v91.2h19.5v-47.4h7.9c18.6,0,57.2,0,57.2-30.8s-35.9-31-55.2-31Z"/>
  <path class="st0" d="M402.6,246c0,29.8,18.2,59.9,58.8,59.9s28.8-2.1,37.6-4.5l.8-.2v-9l-1.5.4c-9.4,2.5-18.6,3.9-26,3.9-32.5,0-48.2-17.9-48.2-54.6s11.7-39.2,31.3-39.2,20.8,5.2,22.9,15.3l.2.9h21.5l-.2-1.2c-.7-5.7-6-24.3-43.2-24.3s-54,17.7-54,52.7Z"/>
</svg>