<?xml version="1.0" encoding="UTF-8"?>
<svg id="Layer_1" xmlns="http://www.w3.org/2000/svg" version="1.1" viewBox="0 0 102 24">
  <!-- Generator: Adobe Illustrator 29.0.1, SVG Export Plug-In . SVG Version: 2.1.0 Build 192)  -->
  <defs>
    <style>
      .st0, .st1 {
        fill: #fff;
      }

      .st1 {
        isolation: isolate;
        opacity: .4;
      }
    </style>
  </defs>
  <g id="Logo">
    <g id="Group">
      <path id="Vector" class="st0" d="M101.3,14.1h-6.9c.1,1.6,1.2,2.4,2.4,2.4s1.5-.3,2-1.1h2.5c-.5,1.4-1.9,2.9-4.4,2.9s-4.8-2.2-4.8-4.9,1.9-4.9,4.7-4.9,4.7,2.2,4.6,5.5ZM96.7,10.3c-.9,0-2.1.6-2.3,2.1h4.4c0-1.6-1.2-2.1-2.2-2.1Z"/>
      <path id="Vector_2" class="st0" d="M88.2,18.1v-5.4c0-1,0-2.2-1.5-2.2s-1.9,1.3-1.9,2.8v4.9h-2.4v-5.4c0-1,0-2.2-1.5-2.2s-1.9,1.3-1.9,2.8v4.9h-2.4v-9.4h2.4v1.2c.5-.9,1.5-1.4,2.6-1.4s2.3.9,2.7,1.5c.7-1,1.7-1.5,3.1-1.5,2.3,0,3.2,1.5,3.2,3.7v5.9h-2.4Z"/>
      <path id="Vector_3" class="st0" d="M72.4,14.5v-.7c-2.7.3-3.8.6-3.8,1.6s.5,1.2,1.6,1.2,2.1-.8,2.1-2.2ZM72.6,16.9c-.7,1-1.7,1.4-3.1,1.4s-3.4-1-3.4-2.7,2.5-2.9,6.2-3.3v-.2c0-1.4-.8-1.9-1.8-1.9s-1.7.5-1.7,1.5h-2.2c.2-1.8,1.7-3.2,4.1-3.2s4,1,4,4.1,0,1.5,0,2.4c0,1.5,0,2.3.3,3.1h-2.2c0-.3-.1-.7-.2-1.2Z"/>
      <path id="Vector_4" class="st0" d="M65.6,8.8v2.3c-.3,0-.6,0-1,0-1.2,0-2,.4-2,2.2v4.9h-2.4v-9.4h2.4v1.6c.5-1.2,1.4-1.6,2.5-1.6s.4,0,.5,0Z"/>
      <path id="Vector_5" class="st0" d="M54.8,8.7v-.5c0-2.4,1.1-2.7,3.5-2.7h.8v1.8h-.5c-1.2,0-1.4.1-1.4,1v.5h1.9v1.7h-1.9v7.7h-2.4v-7.7h-1.3v-1.7h1.3Z"/>
      <path id="Vector_6" class="st0" d="M48.1,10.4c-1.3,0-2.3,1.1-2.3,3s.9,3,2.3,3,2.3-1,2.3-3-.9-3-2.3-3ZM48.1,18.3c-2.4,0-4.7-1.6-4.7-4.9s2.3-4.9,4.7-4.9,4.7,1.6,4.7,4.9-2.3,4.9-4.7,4.9Z"/>
      <path id="Vector_7" class="st0" d="M39.8,14h2.4c-.3,2.6-2.5,4.4-5.5,4.4s-5.9-2.6-5.9-6.6,2.3-6.5,6-6.5,5,1.7,5.4,4.3h-2.4c-.5-1.8-1.7-2.3-3-2.3s-3.4,1.6-3.4,4.5,1.5,4.6,3.3,4.6,2.7-.7,3.1-2.4Z"/>
    </g>
    <g id="Group_2">
      <path id="Rounded_rectangle" class="st1" d="M2.1,6.9L10.4,1.4c1.1-.8,2.1-.3,2.1,1.1v7.3c0,1.4-.9,3.1-2.1,3.9l-8.3,5.5c-1.1.8-2.1.3-2.1-1.1v-7.3c0-1.4.9-3.1,2.1-3.9Z"/>
      <path id="Rounded_rectangle_x5F_2" class="st0" d="M10.8,10.3l8.3-5.5c1.1-.8,2.1-.3,2.1,1.1v7.3c0,1.4-.9,3.1-2.1,3.9l-8.3,5.5c-1.1.8-2.1.3-2.1-1.1v-7.3c0-1.4.9-3.1,2.1-3.9Z"/>
    </g>
  </g>
</svg>