<?xml version="1.0" encoding="UTF-8"?>
<svg id="Layer_1" xmlns="http://www.w3.org/2000/svg" version="1.1" viewBox="0 0 62 8">
  <!-- Generator: Adobe Illustrator 29.0.1, SVG Export Plug-In . SVG Version: 2.1.0 Build 192)  -->
  <defs>
    <style>
      .st0 {
        fill: #fff;
      }
    </style>
  </defs>
  <path class="st0" d="M15,3.1h-5.3v4.6h1.4v-1.7h.1c0,0,3.7,0,3.7,0,.9,0,1.4-.2,1.4-.9v-1c0-.6-.4-.9-1.4-.9h.1ZM15,4.7c0,.3-.2.4-.6.4h-3.2v-1.1h.1c0,0,3.1,0,3.1,0,.4,0,.6,0,.6.4v.5h0Z"/>
  <path class="st0" d="M19,3.9l1.2,1.7v.2h-2.8l-.7.8h4l.3.2.6.8h1.6l-3.5-4.6s-.7.9-.7.9Z"/>
  <path class="st0" d="M35.1,6.7v-1.2h0c0,0,2.7,0,2.7,0v-.8h-4.3v3h6.3v-.8h-4.9.1Z"/>
  <path class="st0" d="M40,3.1h-6.4v.9h6.4v-.9Z"/>
  <path class="st0" d="M26.5,3.9h5.2c0-.6-.5-.8-1.5-.8h-3.7c-1.2,0-1.5.2-1.5,1.1v2.4c0,.9.4,1.1,1.5,1.1h3.7c1,0,1.4-.2,1.5-.9h-5.3v-2.8h.2-.1Z"/>
  <path class="st0" d="M6.3,4.8h-3.9v-.9h5.2v-.2c0-.4-.5-.6-1.4-.6h-3.5c-1.2,0-1.5.2-1.5,1.1v.5c0,.9.4,1.1,1.5,1.1h3.9v.9h0c0,0-4.3,0-4.3,0h-1.2c0,.6.5.8,1.5.8h3.8c1.2,0,1.5-.2,1.5-1.1v-.6c0-.9-.4-1.1-1.5-1.1h0Z"/>
  <path class="st0" d="M44.1,3h-2.1v.2c0,0,2.2,1.7,2.2,1.7.4-.2.9-.5,1.4-.8l-1.6-1.1h0Z"/>
  <path class="st0" d="M46,6.2l2.1,1.5h2.1v-.2l-3-2.2c-.4.3-.8.6-1.2.9Z"/>
  <path class="st0" d="M43.8,7.6h-1.9l-.2-.2c1.3-1.2,7.1-6.4,19.7-7,0,0-10.6.3-17.6,7.2Z"/>
</svg>